<svg xmlns="http://www.w3.org/2000/svg" xmlns:xlink="http://www.w3.org/1999/xlink" width="229.108" height="195.662" viewBox="0 0 229.108 195.662">
  <defs>
    <clipPath id="clip-path">
      <rect id="Rectángulo_39216" data-name="Rectángulo 39216" width="229.108" height="195.662" fill="none"/>
    </clipPath>
  </defs>
  <g id="Grupo_143639" data-name="Grupo 143639" transform="translate(-535.274 -3312.092)">
    <g id="Grupo_143499" data-name="Grupo 143499" transform="translate(535.274 3312.092)">
      <g id="Grupo_143258" data-name="Grupo 143258" transform="translate(0)" clip-path="url(#clip-path)">
        <path id="Trazado_186666" data-name="Trazado 186666" d="M132.861,154.6s-7.793-8.061-19.671-8.061S96.247,154.6,96.247,154.6l-2.043,9.12s7.136,3.409,20.35,3.409,20.351-3.409,20.351-3.409c-.933-4.16-2.044-9.12-2.044-9.12" fill="#7e8b96"/>
        <path id="Trazado_186667" data-name="Trazado 186667" d="M135.378,165.828c-.147-.657-.308-1.373-.474-2.114H94.2c-.166.741-.327,1.457-.474,2.114-.974,4.348-3.856,7.006-10.718,7.006,0,0,4.5,5.114,30.178,5.114s32.906-5.114,32.906-5.114C139.235,172.834,136.352,170.176,135.378,165.828Z" fill="#a2abb8"/>
        <path id="Trazado_186668" data-name="Trazado 186668" d="M159,180.505a2.557,2.557,0,0,1-2.557,2.557H72.667a2.557,2.557,0,0,1-2.557-2.557v-2.557a5.114,5.114,0,0,1,5.114-5.114h78.66A5.114,5.114,0,0,1,159,177.948Z" fill="#c8d2dc"/>
        <path id="Trazado_186669" data-name="Trazado 186669" d="M114.554,136.2l-84.72,7.826v5.455a5.129,5.129,0,0,0,5.114,5.114H194.16a5.129,5.129,0,0,0,5.114-5.114v-1.064Z" fill="#a2abb8"/>
        <path id="Trazado_186670" data-name="Trazado 186670" d="M36.767,144.367a5.132,5.132,0,0,0,5,4.049H199.274v-4.049l-84.72-7.186Z" fill="#c8d2dc"/>
        <path id="Trazado_186671" data-name="Trazado 186671" d="M36.653,38.68h-1.7a5.129,5.129,0,0,0-5.113,5.115v5.454l84.719,7.827Z" fill="#a2abb8"/>
        <path id="Trazado_186672" data-name="Trazado 186672" d="M36.653,49.879l77.9,7.2,84.72-7.826V43.794a5.13,5.13,0,0,0-5.114-5.114H36.653Z" fill="#c8d2dc"/>
        <path id="Trazado_186673" data-name="Trazado 186673" d="M57.145,144.4l-27.31-.035V49.249h6.818l23.865,70.977Z" fill="#06c8d8"/>
        <path id="Trazado_186674" data-name="Trazado 186674" d="M171.947,49.249H36.653v67.126c4.256,1.335,9.022,3.02,9.827,3.605,1.393,1.013,9.749,12.5,10.287,14.159.3.922.432,5.822.4,10.228H199.274V79.044c-1.722,0-27.364-25.39-27.327-29.795" fill="#79f5ed"/>
        <path id="Trazado_186675" data-name="Trazado 186675" d="M114.554,137.713A2.557,2.557,0,0,1,112,135.156V104.845L94.18,129.367a2.557,2.557,0,1,1-4.137-3.006l17.817-24.522-28.828,9.367a2.557,2.557,0,1,1-1.58-4.863l28.827-9.367L77.452,87.609a2.557,2.557,0,1,1,1.58-4.863l28.828,9.366L90.043,67.59a2.557,2.557,0,1,1,4.137-3.006L112,89.106V58.795a2.557,2.557,0,0,1,5.114,0V89.106l17.817-24.522a2.557,2.557,0,1,1,4.137,3.006L121.248,92.112l28.828-9.366a2.557,2.557,0,1,1,1.58,4.863l-28.827,9.367,28.827,9.367a2.557,2.557,0,1,1-1.58,4.863l-28.828-9.367,17.817,24.522a2.557,2.557,0,1,1-4.137,3.006l-17.817-24.522v30.311A2.557,2.557,0,0,1,114.554,137.713Z" fill="#8ce0e3"/>
        <path id="Trazado_186676" data-name="Trazado 186676" d="M50.312,138.794a2.558,2.558,0,0,1-.789-4.99l15.838-5.146a2.557,2.557,0,1,1,1.58,4.863L51.1,138.668a2.567,2.567,0,0,1-.791.126m-7.3-11.506a2.557,2.557,0,0,1-2.063-4.064l9.274-12.707a2.557,2.557,0,0,1,4.131,3.015l-9.275,12.706a2.552,2.552,0,0,1-2.067,1.05" fill="#06c8d8"/>
        <path id="Trazado_186677" data-name="Trazado 186677" d="M176.818,84.148a2.556,2.556,0,0,1-2.063-4.064l9.274-12.707a2.557,2.557,0,0,1,4.13,3.015L178.885,83.1A2.551,2.551,0,0,1,176.818,84.148ZM162.957,65.083a2.557,2.557,0,0,1-.79-4.989l15.839-5.147a2.557,2.557,0,0,1,1.58,4.864l-15.838,5.146a2.568,2.568,0,0,1-.791.126" fill="#8ce0e3"/>
        <path id="Trazado_186678" data-name="Trazado 186678" d="M171.947,49.249c-.037,4.4.1,9.306.395,10.228.538,1.654,8.894,13.146,10.287,14.159s14.923,5.408,16.645,5.408V49.249Z" fill="#8ce0e3"/>
        <path id="Trazado_186679" data-name="Trazado 186679" d="M55.4,69.705a5.114,5.114,0,1,1-5.114,5.114A5.114,5.114,0,0,1,55.4,69.705" fill="#8ce0e3"/>
        <path id="Trazado_186680" data-name="Trazado 186680" d="M173.7,113.684a5.114,5.114,0,1,1-5.114,5.114,5.114,5.114,0,0,1,5.114-5.114" fill="#06c8d8"/>
        <path id="Trazado_186681" data-name="Trazado 186681" d="M94.512,103.5c.4,1.231,18.756,14.563,20.037,14.563s19.641-13.344,20.037-14.563-6.616-22.81-7.653-23.564-23.731-.753-24.767,0S94.116,102.285,94.512,103.5Z" fill="#6fd9df"/>
        <path id="Trazado_186682" data-name="Trazado 186682" d="M102.16,101.018l4.732-14.57s-8.9-12.23-8.989-12.36a46.19,46.19,0,0,0-4.542,5.586c-2.631,3.556-2.023,7.64-2.324,8.567-.538,1.654-3.942,15.863-3.41,17.5l.006.015C88.208,105.544,102.16,101.018,102.16,101.018Z" fill="#c1f2f7"/>
        <path id="Trazado_186683" data-name="Trazado 186683" d="M93.361,79.674c-2.631,3.557-5.433,7.639-5.734,8.566-.537,1.655-.532,15.863,0,17.5l.006.015c.242-.09,2.709-1,5.545-2C92.676,101.527,92.806,81.384,93.361,79.674Z" fill="#8ce0e3"/>
        <path id="Trazado_186684" data-name="Trazado 186684" d="M131.188,74.081l-8.982,12.367,4.733,14.57,14.532,4.724c.538-1.655.532-15.864,0-17.5-.537-1.655-8.89-13.146-10.283-14.159" fill="#8ce0e3"/>
        <path id="Trazado_186685" data-name="Trazado 186685" d="M141.455,105.754s-13.8-5.1-14.517-4.735-11.589,9-12.389,9l-1.691,2.585,1.691,12.7c1.739,0,11.837-4.4,13.23-5.409.779-.566,7.085-4.335,9.609-7.868a48.329,48.329,0,0,0,4.067-6.279" fill="#c1f2f7"/>
        <path id="Trazado_186686" data-name="Trazado 186686" d="M114.549,119.385v5.924c1.739,0,15.246-4.4,16.639-5.408.778-.565,3.676-4.333,6.2-7.866-2.8,1.426-21.151,7.341-22.841,7.35" fill="#8ce0e3"/>
        <path id="Trazado_186687" data-name="Trazado 186687" d="M131.188,74.081c-1.407-1.023-14.917-5.408-16.639-5.408-1.739,0-15.246,4.4-16.639,5.408l-.008.006c.088.13,8.2,12.236,8.99,12.361s14.693.125,15.483,0S131.188,74.081,131.188,74.081Z" fill="#dcecef"/>
        <path id="Trazado_186688" data-name="Trazado 186688" d="M102.16,101.018c-.691-.352-13.952,4.526-14.527,4.738.577,1.7,8.888,9.726,10.277,10.736,1.407,1.022,14.917,8.817,16.639,8.817V110.023C113.757,110.023,102.873,101.382,102.16,101.018Z" fill="#8ce0e3"/>
        <path id="Trazado_186689" data-name="Trazado 186689" d="M114.549,119.385h0c-1.722,0-12.357-3.933-13.066-4.448s-7.738-9.422-8.275-11.076a1.015,1.015,0,0,1-.026-.1c-2.836,1-5.3,1.906-5.545,2,.574,1.7,8.888,13.134,10.277,14.144,1.407,1.023,14.916,5.408,16.639,5.409Z" fill="#06c8d8"/>
      </g>
    </g>
  </g>
</svg>
