<svg xmlns="http://www.w3.org/2000/svg" xmlns:xlink="http://www.w3.org/1999/xlink" width="190" height="175.231" viewBox="0 0 190 175.231">
  <defs>
    <clipPath id="clip-path">
      <rect id="Rectángulo_39058" data-name="Rectángulo 39058" width="190" height="175.231" fill="none"/>
    </clipPath>
    <clipPath id="clip-path-3">
      <rect id="Rectángulo_39044" data-name="Rectángulo 39044" width="81.752" height="91.53" fill="none"/>
    </clipPath>
    <clipPath id="clip-path-4">
      <rect id="Rectángulo_39045" data-name="Rectángulo 39045" width="68.939" height="86.876" fill="none"/>
    </clipPath>
    <clipPath id="clip-path-5">
      <rect id="Rectángulo_39046" data-name="Rectángulo 39046" width="36.085" height="71.828" fill="none"/>
    </clipPath>
    <clipPath id="clip-path-6">
      <rect id="Rectángulo_39047" data-name="Rectángulo 39047" width="37.475" height="23.444" fill="none"/>
    </clipPath>
    <clipPath id="clip-path-7">
      <rect id="Rectángulo_39048" data-name="Rectángulo 39048" width="19.118" height="19.627" fill="none"/>
    </clipPath>
    <clipPath id="clip-path-8">
      <rect id="Rectángulo_39049" data-name="Rectángulo 39049" width="16.138" height="14.616" fill="none"/>
    </clipPath>
    <clipPath id="clip-path-9">
      <rect id="Rectángulo_39050" data-name="Rectángulo 39050" width="50.977" height="71.722" fill="none"/>
    </clipPath>
    <clipPath id="clip-path-10">
      <path id="Trazado_185747" data-name="Trazado 185747" d="M61.069,18.919l33.2,19.435a8.288,8.288,0,0,1,3.653,7.879l-6.537,41.16c-.461,2.9-2.845,4.076-5.321,2.626L47.023,67.166c3.626-18.68,22.334-20.943,14.046-48.247" transform="translate(-47.023 -18.919)" fill="none"/>
    </clipPath>
    <linearGradient id="linear-gradient" x1="-0.756" y1="1.383" x2="-0.737" y2="1.383" gradientUnits="objectBoundingBox">
      <stop offset="0"/>
      <stop offset="1" stop-color="#fff"/>
    </linearGradient>
    <clipPath id="clip-path-11">
      <rect id="Rectángulo_39051" data-name="Rectángulo 39051" width="33.769" height="68.132" fill="none"/>
    </clipPath>
    <clipPath id="clip-path-12">
      <path id="Trazado_185749" data-name="Trazado 185749" d="M62.378,21.5,89.446,37.348A8.288,8.288,0,0,1,93.1,45.227l-6.537,41.16c-.461,2.9-2.845,4.076-5.321,2.626L59.409,76.235C62.222,58.27,72.11,47.265,62.378,21.5" transform="translate(-59.409 -21.503)" fill="none"/>
    </clipPath>
    <linearGradient id="linear-gradient-2" x1="-1.338" y1="1.55" x2="-1.313" y2="1.55" xlink:href="#linear-gradient"/>
    <clipPath id="clip-path-13">
      <rect id="Rectángulo_39052" data-name="Rectángulo 39052" width="27.463" height="57.203" fill="none"/>
    </clipPath>
    <clipPath id="clip-path-14">
      <path id="Trazado_185751" data-name="Trazado 185751" d="M79.281,29.369l8.4,4.917a8.288,8.288,0,0,1,3.653,7.879L84.8,83.325c-.461,2.9-2.845,4.076-5.321,2.626L63.947,76.862C68.472,59,81.822,52.618,79.281,29.369" transform="translate(-63.947 -29.369)" fill="none"/>
    </clipPath>
    <linearGradient id="linear-gradient-3" x1="-1.799" y1="1.701" x2="-1.767" y2="1.701" xlink:href="#linear-gradient"/>
    <clipPath id="clip-path-15">
      <rect id="Rectángulo_39053" data-name="Rectángulo 39053" width="5.407" height="14.209" fill="none"/>
    </clipPath>
    <clipPath id="clip-path-16">
      <rect id="Rectángulo_39054" data-name="Rectángulo 39054" width="10.655" height="17.586" fill="none"/>
    </clipPath>
    <clipPath id="clip-path-17">
      <rect id="Rectángulo_39055" data-name="Rectángulo 39055" width="53.508" height="34.744" fill="none"/>
    </clipPath>
    <clipPath id="clip-path-18">
      <rect id="Rectángulo_39056" data-name="Rectángulo 39056" width="28.533" height="19.79" fill="none"/>
    </clipPath>
  </defs>
  <g id="Grupo_143634" data-name="Grupo 143634" transform="translate(-1020 -1831.399)">
    <g id="Grupo_143108" data-name="Grupo 143108" transform="translate(1020 1831.399)">
      <g id="Grupo_143155" data-name="Grupo 143155" clip-path="url(#clip-path)">
        <g id="Grupo_143154" data-name="Grupo 143154" transform="translate(0 0)">
          <g id="Grupo_143153" data-name="Grupo 143153" clip-path="url(#clip-path)">
            <path id="Trazado_185706" data-name="Trazado 185706" d="M188.852,120.126l-62.49,36.08a6.125,6.125,0,0,1-5.542,0L1.148,87.11a1.689,1.689,0,0,1,0-3.2l62.49-36.08a6.125,6.125,0,0,1,5.542,0l119.673,69.1c1.531.884,1.531,2.316,0,3.2" transform="translate(0 18.364)" fill="#878787"/>
            <path id="Trazado_185707" data-name="Trazado 185707" d="M0,70.3v6.21l190,33.1-.007-6.188Z" transform="translate(0 27.368)" fill="#878787"/>
            <path id="Trazado_185708" data-name="Trazado 185708" d="M188.852,115.656l-62.49,36.08a6.125,6.125,0,0,1-5.542,0L1.148,82.64a1.689,1.689,0,0,1,0-3.2l62.49-36.08a6.125,6.125,0,0,1,5.542,0l119.673,69.1c1.531.884,1.531,2.316,0,3.2" transform="translate(0 16.624)" fill="#3c3c3b"/>
            <path id="Trazado_185709" data-name="Trazado 185709" d="M114.055,143.867,6.387,81.7,67.558,46.386l107.668,62.163Z" transform="translate(2.487 18.06)" fill="#64d2d6"/>
            <path id="Trazado_185710" data-name="Trazado 185710" d="M123.434,105.052,108,113.965a2.531,2.531,0,0,1-2.287,0l-4-2.31a.7.7,0,0,1,0-1.321l15.436-8.911a2.522,2.522,0,0,1,2.287,0l4,2.31a.7.7,0,0,1,0,1.32" transform="translate(39.415 39.38)" fill="#878787"/>
            <path id="Trazado_185711" data-name="Trazado 185711" d="M107.2,113.5a1.265,1.265,0,0,1-1.143,0l-4-2.31a.348.348,0,0,1,0-.66l15.436-8.913a1.265,1.265,0,0,1,1.143,0l4,2.31a.349.349,0,0,1,0,.661Z" transform="translate(39.642 39.511)" fill="#1d1d1b"/>
            <path id="Trazado_185712" data-name="Trazado 185712" d="M25.993,60.481a.291.291,0,0,1,0,.55,1.056,1.056,0,0,1-.953,0l-3.715-2.145a.29.29,0,0,1,0-.55,1.045,1.045,0,0,1,.952,0Z" transform="translate(8.225 22.668)" fill="#273340"/>
            <path id="Trazado_185713" data-name="Trazado 185713" d="M27.433,59.65a.291.291,0,0,1,0,.55,1.057,1.057,0,0,1-.953,0l-3.716-2.145a.291.291,0,0,1,0-.55,1.048,1.048,0,0,1,.953,0Z" transform="translate(8.786 22.344)" fill="#273340"/>
            <path id="Trazado_185714" data-name="Trazado 185714" d="M28.874,58.818a.291.291,0,0,1,0,.55,1.059,1.059,0,0,1-.954,0L24.2,57.223a.29.29,0,0,1,0-.55,1.045,1.045,0,0,1,.952,0Z" transform="translate(9.347 22.02)" fill="#273340"/>
            <path id="Trazado_185715" data-name="Trazado 185715" d="M30.314,57.987a.291.291,0,0,1,0,.55,1.048,1.048,0,0,1-.953,0l-3.716-2.145a.291.291,0,0,1,0-.55,1.048,1.048,0,0,1,.953,0Z" transform="translate(9.908 21.697)" fill="#273340"/>
            <path id="Trazado_185716" data-name="Trazado 185716" d="M31.754,57.155a.291.291,0,0,1,0,.55,1.056,1.056,0,0,1-.953,0L27.084,55.56a.291.291,0,0,1,0-.55,1.048,1.048,0,0,1,.953,0Z" transform="translate(10.468 21.373)" fill="#273340"/>
            <path id="Trazado_185717" data-name="Trazado 185717" d="M25.993,60.481a.291.291,0,0,1,0,.55,1.056,1.056,0,0,1-.953,0l-3.715-2.145a.29.29,0,0,1,0-.55,1.045,1.045,0,0,1,.952,0Z" transform="translate(8.225 22.668)" fill="#1d1d1b"/>
            <path id="Trazado_185718" data-name="Trazado 185718" d="M27.433,59.65a.291.291,0,0,1,0,.55,1.057,1.057,0,0,1-.953,0l-3.716-2.145a.291.291,0,0,1,0-.55,1.048,1.048,0,0,1,.953,0Z" transform="translate(8.786 22.344)" fill="#1d1d1b"/>
            <path id="Trazado_185719" data-name="Trazado 185719" d="M28.874,58.818a.291.291,0,0,1,0,.55,1.059,1.059,0,0,1-.954,0L24.2,57.223a.29.29,0,0,1,0-.55,1.045,1.045,0,0,1,.952,0Z" transform="translate(9.347 22.02)" fill="#1d1d1b"/>
            <path id="Trazado_185720" data-name="Trazado 185720" d="M30.314,57.987a.291.291,0,0,1,0,.55,1.048,1.048,0,0,1-.953,0l-3.716-2.145a.291.291,0,0,1,0-.55,1.048,1.048,0,0,1,.953,0Z" transform="translate(9.908 21.697)" fill="#1d1d1b"/>
            <path id="Trazado_185721" data-name="Trazado 185721" d="M31.754,57.155a.291.291,0,0,1,0,.55,1.056,1.056,0,0,1-.953,0L27.084,55.56a.291.291,0,0,1,0-.55,1.048,1.048,0,0,1,.953,0Z" transform="translate(10.468 21.373)" fill="#1d1d1b"/>
            <path id="Trazado_185722" data-name="Trazado 185722" d="M11.237,66.6a.756.756,0,0,1,0,1.431,2.74,2.74,0,0,1-2.477,0,.755.755,0,0,1,0-1.431,2.74,2.74,0,0,1,2.477,0" transform="translate(3.211 25.816)" fill="#878787"/>
            <path id="Trazado_185723" data-name="Trazado 185723" d="M17.752,62.842a.756.756,0,0,1,0,1.431,2.74,2.74,0,0,1-2.477,0,.756.756,0,0,1,0-1.431,2.74,2.74,0,0,1,2.477,0" transform="translate(5.747 24.351)" fill="#1d1d1b"/>
            <g id="Grupo_143110" data-name="Grupo 143110" transform="translate(45.785 69.077)" opacity="0.5">
              <g id="Grupo_143109" data-name="Grupo 143109">
                <g id="Grupo_143108-2" data-name="Grupo 143108" clip-path="url(#clip-path-3)">
                  <path id="Trazado_185724" data-name="Trazado 185724" d="M32.955,60.414l50.769,69.3,19.987,11.54,11-6.349L51.477,49.72Z" transform="translate(-32.955 -49.719)" fill="#fff"/>
                </g>
              </g>
            </g>
            <g id="Grupo_143113" data-name="Grupo 143113" transform="translate(67.109 65.765)" opacity="0.5">
              <g id="Grupo_143112" data-name="Grupo 143112">
                <g id="Grupo_143111" data-name="Grupo 143111" clip-path="url(#clip-path-4)">
                  <path id="Trazado_185725" data-name="Trazado 185725" d="M51.238,47.336,48.3,49.029l63.229,85.183,5.71-3.3L57.14,50.744Z" transform="translate(-48.303 -47.336)" fill="#fff"/>
                </g>
              </g>
            </g>
            <path id="Trazado_185726" data-name="Trazado 185726" d="M78.965,84.257a10.7,10.7,0,0,0-.257,5.423l2.927,2.077h.925c2.548,5.039,5.9,6.777,9.5,7.448a5.917,5.917,0,0,0,4.365-1.8c.347-1.657.338-3.012-.36-3.9-1.644-2.106-4.52-3.493-6.42-7.859l-.72-2.825-9.245-1.541Z" transform="translate(30.559 31.644)" fill="#3a144a"/>
            <path id="Trazado_185727" data-name="Trazado 185727" d="M93.5,104.308c-.911,3.152-5.693,3.318-9.025,1.733A5.669,5.669,0,0,1,81.3,102.9c-.642-11.281-1.495-24.326,2.077-29.615L75.147,55.418c0-.015-2.106-4.572-2.106-4.572l-3.273-7.083L84.052,32.841l.478-.36A76.335,76.335,0,0,1,89.222,43.15a74.463,74.463,0,0,1,2.54,8.713,88.721,88.721,0,0,1,2.227,21.351C94,84.57,92.345,94.566,93.5,104.308" transform="translate(27.163 12.646)" fill="#2d759c"/>
            <path id="Trazado_185728" data-name="Trazado 185728" d="M72.218,99.406a6.243,6.243,0,0,1-4.752,1.652c-4.625-.657-8.242-3.184-9.98-9.177a5.728,5.728,0,0,1-3.245-3.81c-.019-.06-.046-.126-.065-.192a10.8,10.8,0,0,1,1.107-3.391,10.964,10.964,0,0,1,1.885-2.534l.777.371,7.544,3.63a16.287,16.287,0,0,0,.438,2c1.56,5.361,5.282,6.337,6.291,8.248a4.223,4.223,0,0,1,0,3.205" transform="translate(21.093 31.908)" fill="#3a144a"/>
            <path id="Trazado_185729" data-name="Trazado 185729" d="M87.578,39.7l-7.307,9.653c.029.268.075.538.089.806.285,2.212.478,4.364.584,6.47.493,9.5-.717,18.141-4.438,26.672A92.909,92.909,0,0,0,66.45,107.533a2.29,2.29,0,0,1-.792.911,7.274,7.274,0,0,1-4.185,1.046,7.87,7.87,0,0,1-4.647-1.524A5.021,5.021,0,0,1,55,104.978a7.049,7.049,0,0,1-.06-2.256c1.2-10.908,4.738-20.53,12.164-24.609,0-.031-.015-.075-.015-.106-.508-3.227-.971-6.409-1.36-9.517a116.5,116.5,0,0,1-1.06-21.472,45.155,45.155,0,0,1-.747-12.237c0-.075.015-.119.015-.165a45.979,45.979,0,0,1,.732-5.274c.029,0,23.041,2.869,23.041,2.869l1.733.208.15.584.254,1.06.328,1.345.15.672Z" transform="translate(21.367 11.423)" fill="#2d759c"/>
            <g id="Grupo_143116" data-name="Grupo 143116" transform="translate(82.841 49.087)" opacity="0.3" style="mix-blend-mode: multiply;isolation: isolate">
              <g id="Grupo_143115" data-name="Grupo 143115">
                <g id="Grupo_143114" data-name="Grupo 143114" clip-path="url(#clip-path-5)">
                  <path id="Trazado_185730" data-name="Trazado 185730" d="M88.883,72.313c-1.389,11.565-2.36,22.293-.463,32.6a5.6,5.6,0,0,1-3.168-3.123c-.643-11.281-1.495-24.326,2.077-29.615L79.1,54.308c.493,9.489-.718,18.125-4.438,26.657A92.966,92.966,0,0,0,64.6,105.2a2.25,2.25,0,0,1-.792.911,7.255,7.255,0,0,1-4.183,1.046c4.8-8.457,8.023-16.944,9.07-25.505-.1-2.017-1.464-4-3.451-5.977-.508-3.227-.971-6.41-1.36-9.518l13.1-16.422,1.524-1.912L88.48,35.332l4.692,6.709a74.364,74.364,0,0,1,2.54,8.711Z" transform="translate(-59.626 -35.331)" fill="#662483"/>
                </g>
              </g>
            </g>
            <path id="Trazado_185731" data-name="Trazado 185731" d="M93.109,50.091l-3.461,4.058a25.789,25.789,0,0,1-4.622,5.5c-.818,1.342-.1,1.628,1.538,1.28l4.2-3.4a7.653,7.653,0,0,1,.842,3.871l-2.781,6.331c-.181,1.332.365,1.362,1.221.836l2.975-5.613L91.189,69.37c.289.678.721.607,1.287-.164l.935-1.724c.117.764.479.739,1.017.158,0,0,2.576-7.63,2.612-7.752s.22-9.756.22-9.756l-.392-2.2-4.158-.1Z" transform="translate(32.971 18.625)" fill="#3a144a"/>
            <path id="Trazado_185732" data-name="Trazado 185732" d="M95.694,11.571l-11.038-.949a11.856,11.856,0,0,0-.093,6.124c-.2,5.585,1.41,12.749,3.7,20.505C88.41,45.5,92.406,55.3,93.256,64.878c.282.989,4.111.9,4.187-.043,1.41-17.522.854-22.835-.59-30.176a120.332,120.332,0,0,0-1.159-23.088" transform="translate(32.784 4.136)" fill="#662483"/>
            <path id="Trazado_185733" data-name="Trazado 185733" d="M100.284,31.8c-.208.449-.389.836-.553,1.241a24.279,24.279,0,0,1-2.152,2.823.677.677,0,0,1-.06.075,34.8,34.8,0,0,1-9.085,7.158A19.455,19.455,0,0,1,86.343,44.9c-.135.1-.285.21-.418.3-7.607,5.424-16.825,3.96-21.412-.672-1.808-1.823-2.779-2.63-2.779-5.214a39.425,39.425,0,0,1,1.792-10.46c2.511-7.47,5.364-12.4,8.906-16.122,3.287-2.466,10.191-4.079,13.881-2.466,6.455-3.63,12.283-3.675,17.482,0,2.705,9.354-.777,15.465-3.511,21.532" transform="translate(24.035 2.93)" fill="#662483"/>
            <g id="Grupo_143119" data-name="Grupo 143119" transform="translate(86.815 24.687)" opacity="0.5" style="mix-blend-mode: multiply;isolation: isolate">
              <g id="Grupo_143118" data-name="Grupo 143118">
                <g id="Grupo_143117" data-name="Grupo 143117" clip-path="url(#clip-path-6)">
                  <path id="Trazado_185734" data-name="Trazado 185734" d="M99.962,27.855c-.179.268-1.27,1.927-2.674,4.019-.015.015-.031.044-.06.075a34.788,34.788,0,0,1-9.085,7.156,19.5,19.5,0,0,1-2.092,1.809c-.135.1-.283.208-.418.3-7.725-1.7-23.145-5.11-23.145-5.11l3.915-11.3,9.218-7.038c-3.183,14.375,16.3,20.426,24.341,10.087" transform="translate(-62.487 -17.769)" fill="#662483"/>
                </g>
              </g>
            </g>
            <g id="Grupo_143122" data-name="Grupo 143122" transform="translate(108.476 12.655)" opacity="0.5" style="mix-blend-mode: multiply;isolation: isolate">
              <g id="Grupo_143121" data-name="Grupo 143121">
                <g id="Grupo_143120" data-name="Grupo 143120" clip-path="url(#clip-path-7)">
                  <path id="Trazado_185735" data-name="Trazado 185735" d="M78.789,9.109l-.711,12.337c0,7.6,10.715,10.137,14.182,3.334L97.2,13.32,88.23,10.109Z" transform="translate(-78.078 -9.109)" fill="#662483"/>
                </g>
              </g>
            </g>
            <path id="Trazado_185736" data-name="Trazado 185736" d="M80.239,10.086s-2.4,14.6,4.535,15.872c4.877.891,8.87-9.937,8.87-9.937,1.644-4.074,2.319-7.5.632-11.365-1.788-2.694-5.3-4.165-9.613-3.283-3.468,1.934-3.689,5.031-4.424,8.713" transform="translate(31.083 0.435)" fill="#ffbb7d"/>
            <path id="Trazado_185737" data-name="Trazado 185737" d="M78.8,11.106a2.244,2.244,0,0,0,.2.838.869.869,0,0,0,.672.488.849.849,0,0,0,.67-.318,1.943,1.943,0,0,0,.346-.679,5.891,5.891,0,0,0,.067-3.451,1.911,1.911,0,0,0-.407-.806.821.821,0,0,0-.825-.249c-.4.138-.546.615-.617,1.032a11.926,11.926,0,0,0-.11,3.145" transform="translate(30.656 2.684)" fill="#ffbb7d"/>
            <path id="Trazado_185738" data-name="Trazado 185738" d="M89.265,13.626a5.386,5.386,0,0,1,1.77-3.933c.118-.107.356-.271.489-.185a.646.646,0,0,1,.171.535,7.944,7.944,0,0,1-1.6,3.923c-.325.345-.647.217-.738.1a.7.7,0,0,1-.094-.436" transform="translate(34.754 3.692)" fill="#ffbb7d"/>
            <path id="Trazado_185739" data-name="Trazado 185739" d="M80.438,6.612c-.043.211.717,3.3,2.345,4.5,1.2.889,8,3,9.859,2.2a5.055,5.055,0,0,0,2.008-2.506,39.817,39.817,0,0,1-1.173,4.271c-.517.959-.9,2.444-2.2,2.719a2.8,2.8,0,0,1-2.641-.639c-.627-.646-.332-2.112-1.143-2.288l-.157-.042c-.436-.149-1.382,1.313-2.355,1.492a2.966,2.966,0,0,1-3.094-1.306c-.842-1.166-1.368-3.665-1.9-6.137Z" transform="translate(31.14 2.574)" fill="#3a144a"/>
            <g id="Grupo_143125" data-name="Grupo 143125" transform="translate(110.516 3.657)" opacity="0.5" style="mix-blend-mode: multiply;isolation: isolate">
              <g id="Grupo_143124" data-name="Grupo 143124">
                <g id="Grupo_143123" data-name="Grupo 143123" clip-path="url(#clip-path-8)">
                  <path id="Trazado_185740" data-name="Trazado 185740" d="M79.546,12.684a17.883,17.883,0,0,1,8.9,0,9.933,9.933,0,0,1,6.37,4.564L95.683,6.08,83.01,2.632Z" transform="translate(-79.546 -2.632)" fill="#ffbb7d"/>
                </g>
              </g>
            </g>
            <path id="Trazado_185741" data-name="Trazado 185741" d="M78.963,24.993S79.843,7.586,90.211,9.921c10.77,2.426,2.934,18.406,2.934,18.406l5.895-5.821c-1.2-5.8,1.674-13.485-2.216-18.587-1.673-2.194-3.878-4.05-7.1-3.912A10.618,10.618,0,0,0,82.386,3.83c-2.672,2.875-4.789,7.282-6.58,12.341Z" transform="translate(29.514 0)" fill="#662483"/>
            <path id="Trazado_185742" data-name="Trazado 185742" d="M82.254,11.242l3.093.825a1.725,1.725,0,0,1-1.9.674,1.38,1.38,0,0,1-1.2-1.5" transform="translate(32.016 4.377)" fill="#ffbb7d"/>
            <path id="Trazado_185743" data-name="Trazado 185743" d="M86.395,12.374l3.2.478a1.715,1.715,0,0,1-1.813.886,1.415,1.415,0,0,1-1.389-1.364" transform="translate(33.636 4.818)" fill="#ffbb7d"/>
            <path id="Trazado_185744" data-name="Trazado 185744" d="M100.864,41.867,44.873,9.091C42.386,7.635,40,8.813,39.542,11.713L33,52.872a8.3,8.3,0,0,0,3.662,7.884L92.658,93.533c2.477,1.449,4.861.272,5.323-2.627l6.537-41.159a8.294,8.294,0,0,0-3.653-7.88" transform="translate(12.819 3.296)" fill="#c43e3d"/>
            <path id="Trazado_185745" data-name="Trazado 185745" d="M44.076,9.491l55.992,32.776a8.291,8.291,0,0,1,3.653,7.88L97.183,91.306c-.46,2.9-2.845,4.076-5.321,2.627L35.87,61.157a8.294,8.294,0,0,1-3.662-7.886l6.537-41.159c.461-2.9,2.845-4.076,5.331-2.622" transform="translate(12.509 3.452)" fill="#c43e3d"/>
            <g id="Grupo_143130" data-name="Grupo 143130" transform="translate(65.33 26.285)" opacity="0.2" style="mix-blend-mode: screen;isolation: isolate">
              <g id="Grupo_143129" data-name="Grupo 143129">
                <g id="Grupo_143128" data-name="Grupo 143128" clip-path="url(#clip-path-9)">
                  <g id="Grupo_143127" data-name="Grupo 143127" transform="translate(0 0)">
                    <g id="Grupo_143126" data-name="Grupo 143126" clip-path="url(#clip-path-10)">
                      <path id="Trazado_185746" data-name="Trazado 185746" d="M96.968,126.687,39.436,93.008,54.345-.88,111.878,32.8Z" transform="translate(-49.977 -26.628)" fill="url(#linear-gradient)"/>
                    </g>
                  </g>
                </g>
              </g>
            </g>
            <g id="Grupo_143135" data-name="Grupo 143135" transform="translate(82.538 29.875)" opacity="0.2" style="mix-blend-mode: screen;isolation: isolate">
              <g id="Grupo_143134" data-name="Grupo 143134">
                <g id="Grupo_143133" data-name="Grupo 143133" clip-path="url(#clip-path-11)">
                  <g id="Grupo_143132" data-name="Grupo 143132" transform="translate(0.001 0)">
                    <g id="Grupo_143131" data-name="Grupo 143131" clip-path="url(#clip-path-12)">
                      <path id="Trazado_185748" data-name="Trazado 185748" d="M93.463,113.881,52.2,89.725,65.121,8.337l41.266,24.157Z" transform="translate(-62.217 -26.629)" fill="url(#linear-gradient-2)"/>
                    </g>
                  </g>
                </g>
              </g>
            </g>
            <g id="Grupo_143140" data-name="Grupo 143140" transform="translate(88.844 40.804)" opacity="0.2" style="mix-blend-mode: screen;isolation: isolate">
              <g id="Grupo_143139" data-name="Grupo 143139">
                <g id="Grupo_143138" data-name="Grupo 143138" clip-path="url(#clip-path-13)">
                  <g id="Grupo_143137" data-name="Grupo 143137" transform="translate(0 0)">
                    <g id="Grupo_143136" data-name="Grupo 143136" clip-path="url(#clip-path-14)">
                      <path id="Trazado_185750" data-name="Trazado 185750" d="M91.788,106.5l-33.91-19.85,10.8-68.011,33.91,19.85Z" transform="translate(-66.31 -33.549)" fill="url(#linear-gradient-3)"/>
                    </g>
                  </g>
                </g>
              </g>
            </g>
            <path id="Trazado_185752" data-name="Trazado 185752" d="M49.7,28.338l-.929,5.85a.847.847,0,0,1-1.346.665l-7.564-4.428a2.1,2.1,0,0,1-.924-1.994l.929-5.85a.847.847,0,0,1,1.346-.665l7.564,4.428a2.1,2.1,0,0,1,.924,1.994" transform="translate(15.153 8.472)" fill="#3c3c3b"/>
            <path id="Trazado_185753" data-name="Trazado 185753" d="M38.941,26.889l.185-1.167,2.987,1.749-.4,2.5-1.852-1.084a2.1,2.1,0,0,1-.924-1.994" transform="translate(15.153 10.014)" fill="#ebc467"/>
            <path id="Trazado_185754" data-name="Trazado 185754" d="M39.126,26.055l.4-2.5,2.987,1.749-.4,2.5Z" transform="translate(15.233 9.172)" fill="#ebc467"/>
            <path id="Trazado_185755" data-name="Trazado 185755" d="M39.47,23.748l.185-1.167A.848.848,0,0,1,41,21.917L42.853,23l-.4,2.5Z" transform="translate(15.367 8.472)" fill="#ebc467"/>
            <path id="Trazado_185756" data-name="Trazado 185756" d="M41.247,30.905l1.1-6.936,2.987,1.749-1.1,6.934Z" transform="translate(16.059 9.332)" fill="#ebc467"/>
            <path id="Trazado_185757" data-name="Trazado 185757" d="M41.591,27.5l.4-2.5,2.987,1.749-.4,2.5Z" transform="translate(16.193 9.733)" fill="#ebc467"/>
            <path id="Trazado_185758" data-name="Trazado 185758" d="M41.934,25.332l.4-2.5,2.987,1.749-.4,2.5Z" transform="translate(16.327 8.891)" fill="#ebc467"/>
            <path id="Trazado_185759" data-name="Trazado 185759" d="M42.673,30.5l.4-2.5L47.5,30.593l-.185,1.167a.847.847,0,0,1-1.348.664Z" transform="translate(16.614 10.901)" fill="#ebc467"/>
            <path id="Trazado_185760" data-name="Trazado 185760" d="M44.055,28.939l.4-2.5,2.988,1.749-.4,2.5Z" transform="translate(17.152 10.295)" fill="#ebc467"/>
            <path id="Trazado_185761" data-name="Trazado 185761" d="M44.4,26.775l.4-2.5,1.852,1.085a2.1,2.1,0,0,1,.924,1.994l-.185,1.167Z" transform="translate(17.286 9.452)" fill="#ebc467"/>
            <path id="Trazado_185762" data-name="Trazado 185762" d="M66.169,51.041l1.491-9.384a.705.705,0,0,1,1.121-.553l12.662,7.412a1.747,1.747,0,0,1,.768,1.66l-1.489,9.384a.706.706,0,0,1-1.121.553L66.938,52.7a1.742,1.742,0,0,1-.77-1.659" transform="translate(25.755 15.953)" fill="#dadada"/>
            <g id="Grupo_143143" data-name="Grupo 143143" transform="translate(93.592 57.549)" opacity="0.5">
              <g id="Grupo_143142" data-name="Grupo 143142">
                <g id="Grupo_143141" data-name="Grupo 143141" clip-path="url(#clip-path-15)">
                  <path id="Trazado_185763" data-name="Trazado 185763" d="M67.895,41.422a.384.384,0,0,0-.25.328l-.281,1.763,3.764,11.156,1.644.961Z" transform="translate(-67.364 -41.422)" fill="#fff"/>
                </g>
              </g>
            </g>
            <g id="Grupo_143146" data-name="Grupo 143146" transform="translate(95.164 58.009)" opacity="0.5">
              <g id="Grupo_143145" data-name="Grupo 143145">
                <g id="Grupo_143144" data-name="Grupo 143144" clip-path="url(#clip-path-16)">
                  <path id="Trazado_185764" data-name="Trazado 185764" d="M73.723,44.812,68.5,41.753l4.867,14.353,5.41,3.168a.382.382,0,0,0,.378.028Z" transform="translate(-68.496 -41.753)" fill="#fff"/>
                </g>
              </g>
            </g>
            <path id="Trazado_185765" data-name="Trazado 185765" d="M44.388,16.858l-.032.2c-.09.567-.35.81-.832.725a1.752,1.752,0,0,1,.571,1.624l-.072.449c-.135.85-.734,1-1.749.4l-1.6-.935.875-5.509,1.534.9c1.053.617,1.439,1.3,1.3,2.148m-1.946-1.664-.232,1.456.4.233c.379.221.632.215.7-.225l.049-.307a.769.769,0,0,0-.428-.871Zm-.357,2.244-.268,1.691.582.342c.342.2.547.174.613-.235l.076-.481a.9.9,0,0,0-.55-1.052Z" transform="translate(15.836 5.378)" fill="#fff"/>
            <path id="Trazado_185766" data-name="Trazado 185766" d="M46.739,22.7l-1.025-.6L45.7,21l-1.248-.729-.333.9-.934-.546,1.91-4.9,1.487.87ZM44.7,19.6l.979.572L45.63,17.1Z" transform="translate(16.812 6.12)" fill="#fff"/>
            <path id="Trazado_185767" data-name="Trazado 185767" d="M47.624,19.03l-.634,3.99-.914-.536.874-5.509,1.275.747.52,3.908.524-3.3.906.531L49.3,24.372l-1.043-.611Z" transform="translate(17.939 6.609)" fill="#fff"/>
            <path id="Trazado_185768" data-name="Trazado 185768" d="M50.6,22.733l-.395.32-.268,1.692-1.017-.595.875-5.509,1.016.595-.381,2.4,1.712-1.623,1.016.6-1.8,1.627.928,3.882-1.043-.611Z" transform="translate(19.047 7.258)" fill="#fff"/>
            <g id="Grupo_143149" data-name="Grupo 143149" transform="translate(53.022 43.031)" opacity="0.8">
              <g id="Grupo_143148" data-name="Grupo 143148">
                <g id="Grupo_143147" data-name="Grupo 143147" clip-path="url(#clip-path-17)">
                  <path id="Trazado_185769" data-name="Trazado 185769" d="M38.687,31.571l-.229.208a.106.106,0,0,1-.113,0,.226.226,0,0,1-.1-.125.3.3,0,0,1-.019-.163.19.19,0,0,1,.044-.1.136.136,0,0,1,.074-.051l.546-.358c.083-.024.108-.018.138,0a.339.339,0,0,1,.117.118.224.224,0,0,1,.036.158l-.607,3.822c-.008.057-.036.088-.083.09a.243.243,0,0,1-.147-.039.427.427,0,0,1-.135-.125.223.223,0,0,1-.043-.165Z" transform="translate(-38.164 -30.972)" fill="#fff"/>
                  <path id="Trazado_185770" data-name="Trazado 185770" d="M39.884,32.464a.754.754,0,0,1,.138-.352.544.544,0,0,1,.253-.188.664.664,0,0,1,.333-.022,1.078,1.078,0,0,1,.378.143,1.548,1.548,0,0,1,.379.313,1.727,1.727,0,0,1,.282.415,1.869,1.869,0,0,1,.156.478,1.4,1.4,0,0,1,.007.488.908.908,0,0,1-.206.481,1.117,1.117,0,0,1-.367.267,1.955,1.955,0,0,1-.445.142c-.157.029-.3.063-.438.1a1.275,1.275,0,0,0-.346.139.355.355,0,0,0-.171.264l-.046.289,1.491.874a.214.214,0,0,1,.089.121.332.332,0,0,1,.017.176.2.2,0,0,1-.064.125.09.09,0,0,1-.111.01l-1.728-1.013a.352.352,0,0,1-.114-.117.222.222,0,0,1-.044-.161l.088-.552a.567.567,0,0,1,.188-.36,1.15,1.15,0,0,1,.358-.2,2.985,2.985,0,0,1,.446-.118,2.75,2.75,0,0,0,.446-.118,1.122,1.122,0,0,0,.36-.2.581.581,0,0,0,.188-.363.973.973,0,0,0,0-.263,1.143,1.143,0,0,0-.074-.286,1.054,1.054,0,0,0-.16-.267.927.927,0,0,0-.253-.214.506.506,0,0,0-.415-.078c-.121.039-.2.164-.232.377a.117.117,0,0,1-.076.1.2.2,0,0,1-.167-.036.3.3,0,0,1-.126-.14.443.443,0,0,1-.014-.246" transform="translate(-37.712 -30.614)" fill="#fff"/>
                  <path id="Trazado_185771" data-name="Trazado 185771" d="M42.562,37.1a.565.565,0,0,0,.515.1c.131-.06.217-.226.26-.5l.018-.11a.951.951,0,0,0-.093-.638,1.2,1.2,0,0,0-.449-.436.2.2,0,0,1-.1-.124.359.359,0,0,1-.01-.158.211.211,0,0,1,.053-.118c.028-.029.068-.029.119,0a1.15,1.15,0,0,0,.24.11.286.286,0,0,0,.193,0,.3.3,0,0,0,.146-.144,1.217,1.217,0,0,0,.039-.9.906.906,0,0,0-.385-.4.789.789,0,0,0-.29-.114.327.327,0,0,0-.195.029.269.269,0,0,0-.117.125.585.585,0,0,0-.053.174.175.175,0,0,1-.068.128c-.036.021-.089.01-.161-.032a.382.382,0,0,1-.164-.151.4.4,0,0,1-.01-.218.911.911,0,0,1,.089-.264.508.508,0,0,1,.206-.217.618.618,0,0,1,.339-.065,1.2,1.2,0,0,1,.5.185,2.022,2.022,0,0,1,.365.274,1.391,1.391,0,0,1,.265.346,1.29,1.29,0,0,1,.143.421,1.616,1.616,0,0,1-.006.51,1.111,1.111,0,0,1-.211.552.43.43,0,0,1-.335.174,1.61,1.61,0,0,1,.3.527,1.339,1.339,0,0,1,.047.667l-.017.108a1.344,1.344,0,0,1-.172.517.573.573,0,0,1-.289.243.662.662,0,0,1-.37.013,1.462,1.462,0,0,1-.421-.175,1.79,1.79,0,0,1-.453-.364,1.917,1.917,0,0,1-.283-.418,1.5,1.5,0,0,1-.138-.42,1.16,1.16,0,0,1-.008-.371c.014-.086.039-.136.072-.15s.085,0,.153.04a.368.368,0,0,1,.16.144.286.286,0,0,1,.019.165.673.673,0,0,0,0,.21.887.887,0,0,0,.079.249,1.1,1.1,0,0,0,.175.254,1.19,1.19,0,0,0,.288.228" transform="translate(-36.825 -30.116)" fill="#fff"/>
                  <path id="Trazado_185772" data-name="Trazado 185772" d="M45.158,37.917l-1.214-.711a.242.242,0,0,1-.1-.115.276.276,0,0,1-.019-.161.166.166,0,0,1,.042-.094L45.5,34.768a.147.147,0,0,1,.207-.029.423.423,0,0,1,.119.126.245.245,0,0,1,.049.179.125.125,0,0,1-.032.067L44.39,36.969l.841.492.151-.954c.01-.058.038-.088.083-.089a.262.262,0,0,1,.147.043.448.448,0,0,1,.135.122.212.212,0,0,1,.043.163l-.151.954.257.15a.219.219,0,0,1,.1.136.431.431,0,0,1,.011.178.212.212,0,0,1-.067.131.089.089,0,0,1-.115.011l-.257-.15-.125.785c-.01.056-.038.086-.083.09a.255.255,0,0,1-.147-.04.427.427,0,0,1-.135-.125.221.221,0,0,1-.043-.164Z" transform="translate(-35.962 -29.517)" fill="#fff"/>
                  <path id="Trazado_185773" data-name="Trazado 185773" d="M49.747,39.093a2.076,2.076,0,0,1,.4.3,1.5,1.5,0,0,1,.3.4,1.637,1.637,0,0,1,.164.493,1.856,1.856,0,0,1-.007.593l-.017.108a1.412,1.412,0,0,1-.171.521.587.587,0,0,1-.283.251.638.638,0,0,1-.367.018,1.457,1.457,0,0,1-.418-.174,1.9,1.9,0,0,1-.435-.342,1.783,1.783,0,0,1-.293-.407,1.561,1.561,0,0,1-.154-.433,1.168,1.168,0,0,1-.011-.415c.014-.088.042-.136.083-.147a.223.223,0,0,1,.157.039.351.351,0,0,1,.151.147.294.294,0,0,1,.022.165.768.768,0,0,0,.114.543,1.238,1.238,0,0,0,.428.415.543.543,0,0,0,.5.082c.133-.063.222-.231.265-.5l.018-.108a1.147,1.147,0,0,0-.078-.688,1.078,1.078,0,0,0-.436-.464l-.689-.4a.308.308,0,0,1-.142-.143.285.285,0,0,1-.018-.156c.029-.121.385-1.653.385-1.653a.193.193,0,0,1,.051-.107.065.065,0,0,1,.082,0l1.4.818a.19.19,0,0,1,.089.126.427.427,0,0,1,.008.167.25.25,0,0,1-.056.129.076.076,0,0,1-.11.01L49.532,37.6l-.271,1.2Z" transform="translate(-34.162 -28.62)" fill="#fff"/>
                  <path id="Trazado_185774" data-name="Trazado 185774" d="M52.132,40.44a2.06,2.06,0,0,1,.372.281,1.458,1.458,0,0,1,.281.372,1.479,1.479,0,0,1,.153.475,1.908,1.908,0,0,1-.011.593l-.019.119a1.432,1.432,0,0,1-.172.531.6.6,0,0,1-.282.254.613.613,0,0,1-.367.018,1.518,1.518,0,0,1-.421-.175,2.12,2.12,0,0,1-.4-.306,1.614,1.614,0,0,1-.463-.924,2.016,2.016,0,0,1,.011-.624l.272-1.712a1.389,1.389,0,0,1,.174-.529.565.565,0,0,1,.654-.271,1.622,1.622,0,0,1,.432.182,1.838,1.838,0,0,1,.436.349,1.816,1.816,0,0,1,.285.413,1.567,1.567,0,0,1,.144.432,1.248,1.248,0,0,1,.007.4c-.012.081-.036.126-.074.138A.2.2,0,0,1,53,40.418a.474.474,0,0,1-.142-.126.234.234,0,0,1-.043-.186.667.667,0,0,0-.011-.272,1.061,1.061,0,0,0-.108-.261,1.043,1.043,0,0,0-.183-.235,1.19,1.19,0,0,0-.24-.185.545.545,0,0,0-.507-.083c-.135.065-.224.236-.268.513l-.126.8a.48.48,0,0,1,.353-.09,1.089,1.089,0,0,1,.413.151m-.914.877a1.2,1.2,0,0,0,.072.714,1.074,1.074,0,0,0,.44.468.535.535,0,0,0,.5.082c.132-.064.221-.236.265-.517l.018-.119a1.125,1.125,0,0,0-.072-.695A1.107,1.107,0,0,0,52,40.8a.632.632,0,0,0-.493-.108c-.133.042-.222.195-.263.456Z" transform="translate(-33.25 -28.032)" fill="#fff"/>
                  <path id="Trazado_185775" data-name="Trazado 185775" d="M55.481,41.443a.333.333,0,0,1-.038.106.57.57,0,0,1-.069.1l-1.88,2.338c-.031.04-.078.042-.143,0a.449.449,0,0,1-.163-.164.3.3,0,0,1-.049-.208.174.174,0,0,1,.035-.085l1.889-2.27.051-.324-1.278-.747-.094.6a.1.1,0,0,1-.081.088.22.22,0,0,1-.15-.036.387.387,0,0,1-.136-.132.236.236,0,0,1-.042-.158l.136-.859a.1.1,0,0,1,.078-.082.159.159,0,0,1,.135.021l1.724,1.009a.345.345,0,0,1,.115.126.235.235,0,0,1,.042.151Z" transform="translate(-32.334 -27.613)" fill="#fff"/>
                  <path id="Trazado_185776" data-name="Trazado 185776" d="M56.813,41.34a2.021,2.021,0,0,1,.368.272,1.35,1.35,0,0,1,.271.345,1.322,1.322,0,0,1,.149.425,1.582,1.582,0,0,1,0,.511.868.868,0,0,1-.211.506.449.449,0,0,1-.367.125,1.672,1.672,0,0,1,.332.6,1.689,1.689,0,0,1,.038.784,1.414,1.414,0,0,1-.176.561.569.569,0,0,1-.279.235.612.612,0,0,1-.365.01,1.568,1.568,0,0,1-.42-.178,2.057,2.057,0,0,1-.406-.306,1.519,1.519,0,0,1-.3-.4,1.624,1.624,0,0,1-.164-.493,1.859,1.859,0,0,1,.006-.588,1.115,1.115,0,0,1,.271-.678.565.565,0,0,1,.454-.135,1.329,1.329,0,0,1-.275-.5,1.442,1.442,0,0,1-.026-.647,1.083,1.083,0,0,1,.144-.428.451.451,0,0,1,.249-.193.6.6,0,0,1,.328.006,1.648,1.648,0,0,1,.385.17m.178,3.257a1.149,1.149,0,0,0-.075-.7,1.072,1.072,0,0,0-.436-.461.558.558,0,0,0-.5-.088c-.132.058-.221.224-.264.5l-.015.09a1.215,1.215,0,0,0,.072.714,1.069,1.069,0,0,0,.442.468.514.514,0,0,0,.5.075c.132-.067.221-.236.264-.51Zm-.243-2.847a.513.513,0,0,0-.429-.09c-.111.043-.185.178-.221.406a.928.928,0,0,0,.065.575.95.95,0,0,0,.382.389.494.494,0,0,0,.427.085c.114-.043.188-.179.224-.407a.915.915,0,0,0-.067-.574.961.961,0,0,0-.381-.383" transform="translate(-31.509 -27.012)" fill="#fff"/>
                  <path id="Trazado_185777" data-name="Trazado 185777" d="M61.1,46.591a1.99,1.99,0,0,1-.372-.279,1.41,1.41,0,0,1-.278-.371,1.577,1.577,0,0,1-.153-.475,1.869,1.869,0,0,1,.008-.595l.019-.119a1.432,1.432,0,0,1,.172-.531.6.6,0,0,1,.282-.254.614.614,0,0,1,.367-.019,1.569,1.569,0,0,1,.421.176,2.153,2.153,0,0,1,.4.307,1.531,1.531,0,0,1,.3.41,1.654,1.654,0,0,1,.161.513,2.072,2.072,0,0,1-.013.625l-.271,1.71a1.388,1.388,0,0,1-.175.529.612.612,0,0,1-.285.253.606.606,0,0,1-.371.015,1.547,1.547,0,0,1-.431-.179,1.9,1.9,0,0,1-.436-.349,1.861,1.861,0,0,1-.285-.413,1.578,1.578,0,0,1-.143-.432,1.212,1.212,0,0,1-.008-.4c.013-.081.038-.125.075-.138a.209.209,0,0,1,.153.04.489.489,0,0,1,.142.126.238.238,0,0,1,.042.186.684.684,0,0,0,.013.271,1.066,1.066,0,0,0,.107.263,1.155,1.155,0,0,0,.181.233,1.208,1.208,0,0,0,.239.182.544.544,0,0,0,.508.083c.133-.065.222-.235.267-.513l.126-.8a.444.444,0,0,1-.349.09,1.118,1.118,0,0,1-.417-.153m.914-.875A1.22,1.22,0,0,0,61.949,45a1.074,1.074,0,0,0-.443-.47.532.532,0,0,0-.5-.082c-.133.064-.221.235-.265.517l-.019.119a1.126,1.126,0,0,0,.072.695,1.108,1.108,0,0,0,.446.453.621.621,0,0,0,.49.108c.132-.044.22-.2.261-.457Z" transform="translate(-29.66 -25.928)" fill="#fff"/>
                  <path id="Trazado_185778" data-name="Trazado 185778" d="M63.012,45.81l-.229.208a.106.106,0,0,1-.113,0,.232.232,0,0,1-.1-.125.3.3,0,0,1-.019-.163.2.2,0,0,1,.044-.1.136.136,0,0,1,.074-.051l.546-.36c.083-.022.108-.017.138,0a.339.339,0,0,1,.117.118.224.224,0,0,1,.036.158L62.9,49.325c-.008.057-.036.088-.083.09a.243.243,0,0,1-.147-.039.427.427,0,0,1-.135-.125.223.223,0,0,1-.043-.165Z" transform="translate(-28.693 -25.428)" fill="#fff"/>
                  <path id="Trazado_185779" data-name="Trazado 185779" d="M64.706,50.543a1.984,1.984,0,0,1-.4-.306,1.548,1.548,0,0,1-.3-.407,1.674,1.674,0,0,1-.161-.514,2.063,2.063,0,0,1,.012-.624l.272-1.712a1.459,1.459,0,0,1,.171-.531.6.6,0,0,1,.282-.254.6.6,0,0,1,.367-.019,1.562,1.562,0,0,1,.421.175,2.091,2.091,0,0,1,.4.306,1.612,1.612,0,0,1,.3.41,1.672,1.672,0,0,1,.163.515,2.062,2.062,0,0,1-.013.624l-.271,1.712a1.432,1.432,0,0,1-.172.531.591.591,0,0,1-.283.253.636.636,0,0,1-.37.017,1.477,1.477,0,0,1-.421-.175m1.11-2.576a1.209,1.209,0,0,0-.074-.711,1.042,1.042,0,0,0-.44-.471.522.522,0,0,0-.5-.079c-.133.065-.221.236-.265.514l-.272,1.712a1.222,1.222,0,0,0,.071.709,1.066,1.066,0,0,0,.438.471.533.533,0,0,0,.5.079c.133-.064.222-.235.267-.511Zm-.736.264a.3.3,0,0,1,.125.142.328.328,0,0,1,.028.19.164.164,0,0,1-.079.132.142.142,0,0,1-.146-.015.314.314,0,0,1-.131-.147.337.337,0,0,1-.028-.193.14.14,0,0,1,.231-.108" transform="translate(-28.172 -25.06)" fill="#fff"/>
                  <path id="Trazado_185780" data-name="Trazado 185780" d="M66.82,48.039l-.229.208a.106.106,0,0,1-.113,0,.226.226,0,0,1-.1-.125.29.29,0,0,1-.019-.163.2.2,0,0,1,.044-.1.136.136,0,0,1,.074-.051l.546-.36c.083-.022.108-.017.138,0a.339.339,0,0,1,.117.118.224.224,0,0,1,.036.158l-.607,3.822c-.008.057-.036.088-.083.09a.243.243,0,0,1-.147-.039.427.427,0,0,1-.135-.125.223.223,0,0,1-.043-.165Z" transform="translate(-27.211 -24.56)" fill="#fff"/>
                  <path id="Trazado_185781" data-name="Trazado 185781" d="M70.659,50.286l-.229.208a.106.106,0,0,1-.113,0,.232.232,0,0,1-.1-.125.3.3,0,0,1-.019-.163.186.186,0,0,1,.044-.094.132.132,0,0,1,.074-.053l.546-.358c.083-.024.108-.018.138,0a.332.332,0,0,1,.117.119.219.219,0,0,1,.036.157L70.546,53.8c-.008.057-.036.088-.083.09a.243.243,0,0,1-.147-.039.427.427,0,0,1-.135-.125.223.223,0,0,1-.043-.165Z" transform="translate(-25.716 -23.686)" fill="#fff"/>
                  <path id="Trazado_185782" data-name="Trazado 185782" d="M71.856,51.18a.754.754,0,0,1,.138-.352.544.544,0,0,1,.253-.188.679.679,0,0,1,.333-.024,1.122,1.122,0,0,1,.378.144,1.547,1.547,0,0,1,.379.313,1.728,1.728,0,0,1,.282.415,1.817,1.817,0,0,1,.156.478,1.44,1.44,0,0,1,.007.488.908.908,0,0,1-.206.481,1.117,1.117,0,0,1-.367.267,1.954,1.954,0,0,1-.445.142c-.157.029-.3.063-.438.1a1.275,1.275,0,0,0-.346.139.355.355,0,0,0-.171.264l-.046.289,1.491.874a.214.214,0,0,1,.089.121.332.332,0,0,1,.017.176.2.2,0,0,1-.064.125.09.09,0,0,1-.111.01l-1.728-1.013a.368.368,0,0,1-.115-.117.227.227,0,0,1-.043-.161l.088-.552a.567.567,0,0,1,.188-.36,1.15,1.15,0,0,1,.358-.2,2.986,2.986,0,0,1,.446-.118,2.788,2.788,0,0,0,.446-.118,1.122,1.122,0,0,0,.36-.2.581.581,0,0,0,.188-.363.973.973,0,0,0,0-.263,1.144,1.144,0,0,0-.074-.286,1.054,1.054,0,0,0-.16-.267.928.928,0,0,0-.253-.214.506.506,0,0,0-.415-.078c-.121.039-.2.165-.232.377a.117.117,0,0,1-.076.1A.2.2,0,0,1,72,51.566a.3.3,0,0,1-.126-.139.45.45,0,0,1-.014-.247" transform="translate(-25.264 -23.328)" fill="#fff"/>
                  <path id="Trazado_185783" data-name="Trazado 185783" d="M74.267,52.4l-.229.208a.106.106,0,0,1-.113,0,.226.226,0,0,1-.1-.125.3.3,0,0,1-.019-.163.2.2,0,0,1,.044-.1.136.136,0,0,1,.074-.051l.546-.358c.083-.024.108-.018.138,0a.339.339,0,0,1,.117.118.224.224,0,0,1,.036.158l-.607,3.822c-.008.057-.036.088-.083.09a.243.243,0,0,1-.147-.039.427.427,0,0,1-.135-.125.222.222,0,0,1-.043-.165Z" transform="translate(-24.311 -22.863)" fill="#fff"/>
                  <path id="Trazado_185784" data-name="Trazado 185784" d="M75.925,56.629a.565.565,0,0,0,.515.1c.131-.06.217-.226.26-.5l.018-.11a.951.951,0,0,0-.093-.638,1.206,1.206,0,0,0-.447-.436.2.2,0,0,1-.1-.124.359.359,0,0,1-.01-.158.211.211,0,0,1,.053-.118c.028-.029.068-.029.119,0a1.15,1.15,0,0,0,.24.11.286.286,0,0,0,.193,0,.3.3,0,0,0,.146-.144,1.217,1.217,0,0,0,.039-.9.906.906,0,0,0-.385-.4.79.79,0,0,0-.29-.114.327.327,0,0,0-.194.029.269.269,0,0,0-.117.125.6.6,0,0,0-.053.174.175.175,0,0,1-.068.128c-.036.021-.089.01-.16-.032a.379.379,0,0,1-.165-.151.416.416,0,0,1-.01-.218.91.91,0,0,1,.089-.264.508.508,0,0,1,.206-.217.618.618,0,0,1,.339-.065,1.2,1.2,0,0,1,.5.185,2.024,2.024,0,0,1,.365.274,1.391,1.391,0,0,1,.265.346,1.29,1.29,0,0,1,.143.421,1.617,1.617,0,0,1-.006.51,1.139,1.139,0,0,1-.21.552.432.432,0,0,1-.336.174,1.61,1.61,0,0,1,.3.527,1.34,1.34,0,0,1,.047.667l-.017.108a1.361,1.361,0,0,1-.172.518.577.577,0,0,1-.289.242.661.661,0,0,1-.37.012,1.461,1.461,0,0,1-.421-.175A1.79,1.79,0,0,1,75.4,56.7a1.885,1.885,0,0,1-.283-.418,1.5,1.5,0,0,1-.138-.42,1.16,1.16,0,0,1-.008-.371c.014-.086.039-.136.072-.15s.085,0,.153.04a.369.369,0,0,1,.16.146.28.28,0,0,1,.019.164.672.672,0,0,0,0,.21.887.887,0,0,0,.079.249,1.1,1.1,0,0,0,.175.254,1.157,1.157,0,0,0,.288.228" transform="translate(-23.836 -22.513)" fill="#fff"/>
                </g>
              </g>
            </g>
            <g id="Grupo_143152" data-name="Grupo 143152" transform="translate(51.654 50.942)" opacity="0.8">
              <g id="Grupo_143151" data-name="Grupo 143151">
                <g id="Grupo_143150" data-name="Grupo 143150" clip-path="url(#clip-path-18)">
                  <path id="Trazado_185785" data-name="Trazado 185785" d="M37.315,40.213a.311.311,0,0,1-.1-.1.184.184,0,0,1-.032-.138l.514-3.236c.007-.047.031-.072.069-.074a.225.225,0,0,1,.125.036.382.382,0,0,1,.114.1.174.174,0,0,1,.036.138l-.478,3.013,1.123.659a.163.163,0,0,1,.075.106.381.381,0,0,1,.007.142.209.209,0,0,1-.047.11.066.066,0,0,1-.093.008Z" transform="translate(-37.179 -36.666)" fill="#fff"/>
                  <path id="Trazado_185786" data-name="Trazado 185786" d="M39.772,41.622a1.742,1.742,0,0,1-.338-.258,1.333,1.333,0,0,1-.254-.346,1.434,1.434,0,0,1-.135-.435,1.741,1.741,0,0,1,.01-.528l.231-1.449a1.23,1.23,0,0,1,.146-.45.466.466,0,0,1,.549-.229,1.241,1.241,0,0,1,.356.147,1.751,1.751,0,0,1,.339.258,1.4,1.4,0,0,1,.256.346,1.458,1.458,0,0,1,.138.436,1.75,1.75,0,0,1-.01.529l-.231,1.449a1.223,1.223,0,0,1-.146.449.508.508,0,0,1-.24.214.537.537,0,0,1-.313.015,1.34,1.34,0,0,1-.357-.149m.941-2.181a1.01,1.01,0,0,0-.063-.6.9.9,0,0,0-.372-.4.444.444,0,0,0-.422-.065q-.169.083-.225.433L39.4,40.256a1.015,1.015,0,0,0,.06.6.881.881,0,0,0,.37.4.451.451,0,0,0,.425.068c.114-.056.19-.2.226-.433Z" transform="translate(-36.458 -36.183)" fill="#fff"/>
                  <path id="Trazado_185787" data-name="Trazado 185787" d="M41.581,39.018a.1.1,0,0,1,.049-.074.1.1,0,0,1,.1.007l.753.44a1.977,1.977,0,0,1,.343.254,1.387,1.387,0,0,1,.268.329,1.308,1.308,0,0,1,.15.411,1.49,1.49,0,0,1,0,.5,1.113,1.113,0,0,1-.108.354.534.534,0,0,1-.172.2.428.428,0,0,1-.225.068.7.7,0,0,1-.256-.04l.393,1.709a.184.184,0,0,1,.006.076.122.122,0,0,1-.089.106.176.176,0,0,1-.15-.019.2.2,0,0,1-.082-.1.931.931,0,0,1-.049-.149l-.4-1.774-.472-.276-.225,1.416c-.007.047-.031.072-.069.076a.225.225,0,0,1-.126-.033.373.373,0,0,1-.113-.107.186.186,0,0,1-.038-.139Zm.31.429-.2,1.256.531.31a.564.564,0,0,0,.435.1c.119-.035.2-.167.233-.395a.866.866,0,0,0-.079-.572,1.035,1.035,0,0,0-.389-.385Z" transform="translate(-35.666 -35.783)" fill="#fff"/>
                  <path id="Trazado_185788" data-name="Trazado 185788" d="M43.748,41.868l.642.375a.177.177,0,0,1,.079.106.294.294,0,0,1,.013.138.173.173,0,0,1-.046.094q-.038.038-.1,0l-.642-.375L43.5,43.434l1.275.746a.182.182,0,0,1,.079.107.322.322,0,0,1,.01.15.183.183,0,0,1-.049.106c-.025.025-.057.026-.1,0l-1.463-.857a.311.311,0,0,1-.1-.1.184.184,0,0,1-.033-.138l.514-3.23c.007-.047.029-.075.067-.079a.182.182,0,0,1,.113.026l1.463.857a.168.168,0,0,1,.082.108.319.319,0,0,1,.01.139.2.2,0,0,1-.051.115.079.079,0,0,1-.1,0l-1.274-.746Z" transform="translate(-34.867 -35.314)" fill="#fff"/>
                  <path id="Trazado_185789" data-name="Trazado 185789" d="M46.494,44.158a.125.125,0,0,1-.078.05.123.123,0,0,1-.075-.018.205.205,0,0,1-.063-.063A.39.39,0,0,1,46.231,44l-.4-1.748-.4,2.548c-.008.047-.032.072-.071.076a.223.223,0,0,1-.125-.033.379.379,0,0,1-.114-.107.185.185,0,0,1-.036-.139l.5-3.179c.013-.072.038-.114.076-.122a.168.168,0,0,1,.128.028.359.359,0,0,1,.146.156,1.162,1.162,0,0,1,.089.261l.417,1.827.879-1.07a.392.392,0,0,1,.149-.119.18.18,0,0,1,.167.026.312.312,0,0,1,.115.114.27.27,0,0,1,.026.183l-.5,3.179c-.008.047-.032.072-.071.076a.223.223,0,0,1-.125-.033.379.379,0,0,1-.114-.107.185.185,0,0,1-.036-.139l.4-2.527Z" transform="translate(-34.102 -34.864)" fill="#fff"/>
                  <path id="Trazado_185790" data-name="Trazado 185790" d="M49.076,43.4c.008-.049.031-.074.071-.074a.21.21,0,0,1,.124.036.364.364,0,0,1,.114.1.181.181,0,0,1,.038.138l-.514,3.236c-.008.047-.032.072-.071.076a.223.223,0,0,1-.125-.033.379.379,0,0,1-.114-.107.185.185,0,0,1-.036-.139Z" transform="translate(-32.748 -34.073)" fill="#fff"/>
                  <path id="Trazado_185791" data-name="Trazado 185791" d="M50.189,44.056a.093.093,0,0,1,.053-.074.115.115,0,0,1,.11.017l.777.456a1.63,1.63,0,0,1,.333.254,1.309,1.309,0,0,1,.249.34,1.384,1.384,0,0,1,.133.431,1.667,1.667,0,0,1-.008.524,1.272,1.272,0,0,1-.151.485.493.493,0,0,1-.24.213.537.537,0,0,1-.313.017,1.243,1.243,0,0,1-.357-.146l-.554-.325-.2,1.248c-.008.047-.031.072-.071.076a.223.223,0,0,1-.125-.033.374.374,0,0,1-.113-.107.186.186,0,0,1-.038-.139Zm.31.429-.226,1.425.556.325a.444.444,0,0,0,.425.064c.114-.056.189-.2.226-.431a1.105,1.105,0,0,0-.053-.66.91.91,0,0,0-.372-.4Z" transform="translate(-32.315 -33.821)" fill="#fff"/>
                  <path id="Trazado_185792" data-name="Trazado 185792" d="M52.46,48.629a.561.561,0,0,0,.439.1c.119-.038.2-.157.228-.36a.838.838,0,0,0-.04-.439,1.584,1.584,0,0,0-.215-.378,4.539,4.539,0,0,0-.3-.354,3.135,3.135,0,0,1-.3-.37,1.7,1.7,0,0,1-.206-.427,1.12,1.12,0,0,1-.028-.524.755.755,0,0,1,.154-.389.439.439,0,0,1,.26-.147.655.655,0,0,1,.314.029,1.524,1.524,0,0,1,.32.142,2.549,2.549,0,0,1,.233.157,2.2,2.2,0,0,1,.222.195,1.068,1.068,0,0,1,.164.2.261.261,0,0,1,.049.182.231.231,0,0,1-.061.118.088.088,0,0,1-.121.018.282.282,0,0,1-.076-.076c-.026-.036-.058-.078-.1-.125a1.783,1.783,0,0,0-.146-.154,1.278,1.278,0,0,0-.224-.163,1.066,1.066,0,0,0-.22-.1.427.427,0,0,0-.19-.021.234.234,0,0,0-.146.085.414.414,0,0,0-.083.208.641.641,0,0,0,.05.377,1.7,1.7,0,0,0,.221.342q.138.167.3.342a2.6,2.6,0,0,1,.295.383,1.68,1.68,0,0,1,.2.464,1.4,1.4,0,0,1,.018.584,1.04,1.04,0,0,1-.14.411.518.518,0,0,1-.236.206.539.539,0,0,1-.314.019,1.259,1.259,0,0,1-.371-.151,1.842,1.842,0,0,1-.351-.267,1.878,1.878,0,0,1-.253-.3,1.334,1.334,0,0,1-.147-.279.447.447,0,0,1-.033-.207.18.18,0,0,1,.069-.119.1.1,0,0,1,.117-.014.233.233,0,0,1,.083.115c.025.058.06.126.1.207a1.425,1.425,0,0,0,.17.246,1.055,1.055,0,0,0,.286.233" transform="translate(-31.553 -33.293)" fill="#fff"/>
                  <path id="Trazado_185793" data-name="Trazado 185793" d="M55.557,47.216c.007-.049.031-.074.068-.075a.221.221,0,0,1,.126.038.367.367,0,0,1,.113.1.18.18,0,0,1,.039.139l-.375,2.359a1.179,1.179,0,0,1-.147.447.51.51,0,0,1-.243.213.523.523,0,0,1-.315.014,1.349,1.349,0,0,1-.361-.151,1.774,1.774,0,0,1-.346-.263,1.309,1.309,0,0,1-.254-.347,1.424,1.424,0,0,1-.138-.435,1.671,1.671,0,0,1,.008-.531l.374-2.359c.008-.047.032-.072.069-.074a.212.212,0,0,1,.125.036.382.382,0,0,1,.114.1.175.175,0,0,1,.038.138l-.375,2.359a1.015,1.015,0,0,0,.064.6.92.92,0,0,0,.379.4.467.467,0,0,0,.432.072c.117-.053.195-.2.231-.431Z" transform="translate(-30.745 -32.919)" fill="#fff"/>
                  <path id="Trazado_185794" data-name="Trazado 185794" d="M57.183,50.415a.125.125,0,0,1-.078.05.123.123,0,0,1-.075-.018.205.205,0,0,1-.063-.063.389.389,0,0,1-.047-.124l-.4-1.748-.4,2.548c-.008.047-.032.072-.071.076a.223.223,0,0,1-.125-.033A.379.379,0,0,1,55.809,51a.185.185,0,0,1-.036-.139l.5-3.179c.013-.072.038-.114.076-.122a.168.168,0,0,1,.128.028.359.359,0,0,1,.146.156,1.172,1.172,0,0,1,.089.26l.417,1.828.879-1.07a.392.392,0,0,1,.149-.119.18.18,0,0,1,.167.026.312.312,0,0,1,.115.114.27.27,0,0,1,.026.183l-.5,3.179c-.008.047-.032.072-.071.076a.223.223,0,0,1-.125-.033.379.379,0,0,1-.114-.107.185.185,0,0,1-.036-.139l.4-2.527Z" transform="translate(-29.94 -32.428)" fill="#fff"/>
                </g>
              </g>
            </g>
            <path id="Trazado_185795" data-name="Trazado 185795" d="M56.715,55.879l-2.736-6.266L51.86,46.436l-.176-.265.308-2.427-4.545-1.721-.663,1.457L44.4,47.8l-1.677,4.061-.17,2.676c.421,2.094,2.669,2.751,2.919,1.767l-.233-.14-.176-.729.176.729c.6,2.012,1.389,2.888,2.568,1.448l-.489-.35.128-1.606.361,1.956c.328,2.755,2.312,2.988,2.909,1.7,0,0-.7-.427-.981-.574a39.091,39.091,0,0,1,.535-3.968A26.541,26.541,0,0,1,51.9,52.525l3.486,4.546c1.059.985,2.059.132,1.324-1.192" transform="translate(16.569 16.361)" fill="#3a144a"/>
            <path id="Trazado_185796" data-name="Trazado 185796" d="M78.777,11.276c-7.484,3.037-15.254,8.9-23.182,16.357-4.428,7.105-7.405,17.306-10.16,28.235,1.082,1.377,2.854,1.56,5.217,1.538,3.3-7.532,8.661-14.246,11.356-22.006,5.086-.639,12.348-5.987,19.476-10.238,5.275-8.126,5.917-12.649-2.706-13.886" transform="translate(17.689 4.39)" fill="#662483"/>
          </g>
        </g>
      </g>
    </g>
  </g>
</svg>
