<svg xmlns="http://www.w3.org/2000/svg" xmlns:xlink="http://www.w3.org/1999/xlink" width="190" height="162.263" viewBox="0 0 190 162.263">
  <defs>
    <clipPath id="clip-path">
      <rect id="Rectángulo_39267" data-name="Rectángulo 39267" width="190" height="162.263" fill="none"/>
    </clipPath>
  </defs>
  <g id="Grupo_143645" data-name="Grupo 143645" transform="translate(-1020 -4923.75)">
    <g id="Grupo_143344" data-name="Grupo 143344" transform="translate(1020 4923.75)">
      <g id="Grupo_143345" data-name="Grupo 143345" clip-path="url(#clip-path)">
        <path id="Trazado_186829" data-name="Trazado 186829" d="M166.863,68.105H151.119a3.872,3.872,0,1,1,0-7.745h15.744a3.876,3.876,0,0,0,3.873-3.873V41a3.872,3.872,0,0,1,7.745,0V56.488a11.63,11.63,0,0,1-11.618,11.618" transform="translate(-25.134 -6.337)" fill="#a7f"/>
        <path id="Trazado_186830" data-name="Trazado 186830" d="M173.014,152.159a3.871,3.871,0,0,1-3.873-3.873V132.8a3.875,3.875,0,0,0-3.872-3.873H141.775a3.872,3.872,0,0,1,0-7.745h23.494A11.63,11.63,0,0,1,176.887,132.8v15.49a3.871,3.871,0,0,1-3.873,3.873" transform="translate(-23.54 -20.685)" fill="#a7f"/>
        <path id="Trazado_186831" data-name="Trazado 186831" d="M184,100.906H160.765a3.872,3.872,0,1,1,0-7.745H184a3.872,3.872,0,1,1,0,7.745" transform="translate(-26.781 -15.902)" fill="#a7f"/>
        <path id="Trazado_186832" data-name="Trazado 186832" d="M71.492,68.105H55.816A11.63,11.63,0,0,1,44.2,56.488V41a3.872,3.872,0,0,1,7.745,0V56.488a3.876,3.876,0,0,0,3.873,3.873H71.492a3.872,3.872,0,1,1,0,7.745" transform="translate(-7.544 -6.337)" fill="#a7f"/>
        <path id="Trazado_186833" data-name="Trazado 186833" d="M48.071,152.159a3.871,3.871,0,0,1-3.874-3.873V132.8a11.63,11.63,0,0,1,11.618-11.618H79.309a3.872,3.872,0,0,1,0,7.745H55.815a3.875,3.875,0,0,0-3.872,3.873v15.49a3.871,3.871,0,0,1-3.872,3.873" transform="translate(-7.544 -20.685)" fill="#a7f"/>
        <path id="Trazado_186834" data-name="Trazado 186834" d="M61.99,100.906H38.732a3.872,3.872,0,1,1,0-7.745H61.99a3.872,3.872,0,1,1,0,7.745" transform="translate(-5.95 -15.902)" fill="#a7f"/>
        <path id="Trazado_186835" data-name="Trazado 186835" d="M177.85,172.69a11.854,11.854,0,0,1-11.618-11.876,11.618,11.618,0,0,1,23.235,0A11.854,11.854,0,0,1,177.85,172.69" transform="translate(-28.375 -25.467)" fill="#8f52f5"/>
        <path id="Trazado_186836" data-name="Trazado 186836" d="M46.477,172.69a11.854,11.854,0,0,1-11.619-11.876,11.618,11.618,0,0,1,23.235,0A11.854,11.854,0,0,1,46.477,172.69" transform="translate(-5.95 -25.467)" fill="#8f52f5"/>
        <path id="Trazado_186837" data-name="Trazado 186837" d="M177.85,41.629a11.63,11.63,0,0,1-11.618-11.618,11.621,11.621,0,1,1,23.235,0A11.63,11.63,0,0,1,177.85,41.629" transform="translate(-28.375 -3.096)" fill="#8f52f5"/>
        <path id="Trazado_186838" data-name="Trazado 186838" d="M46.477,41.629A11.631,11.631,0,0,1,34.858,30.012,11.854,11.854,0,0,1,46.477,18.136,11.854,11.854,0,0,1,58.093,30.012,11.63,11.63,0,0,1,46.477,41.629" transform="translate(-5.95 -3.096)" fill="#8f52f5"/>
        <path id="Trazado_186839" data-name="Trazado 186839" d="M38.731,107.057a3.871,3.871,0,0,1-3.873-3.873V87.695a3.873,3.873,0,0,1,7.746,0v15.49a3.871,3.871,0,0,1-3.873,3.873" transform="translate(-5.95 -14.308)" fill="#8f52f5"/>
        <path id="Trazado_186840" data-name="Trazado 186840" d="M132.611,55.991a42.516,42.516,0,0,0-26.875-9.526,45.708,45.708,0,0,0-9.14.93C77.7,51.345,63.422,68.151,62.957,87.2a27.432,27.432,0,0,0,15.671,26.333v6.507a11.6,11.6,0,0,0,11.618,11.618h30.98a11.6,11.6,0,0,0,11.618-11.618v-6.507a27.367,27.367,0,0,0,13.968-14.87,27.082,27.082,0,0,0,1.781-9.6,42.764,42.764,0,0,0-15.981-33.072" transform="translate(-10.736 -7.931)" fill="#f0e9ff"/>
        <path id="Trazado_186841" data-name="Trazado 186841" d="M157.411,89.063a27.068,27.068,0,0,1-1.781,9.6,27.363,27.363,0,0,1-13.967,14.87v6.506a11.6,11.6,0,0,1-11.618,11.618H114.554v-85.2a42.958,42.958,0,0,1,42.857,42.6" transform="translate(-19.554 -7.931)" fill="#d2b7ff"/>
        <path id="Trazado_186842" data-name="Trazado 186842" d="M130.842,107.057a11.63,11.63,0,0,1-11.618-11.618,3.874,3.874,0,0,1,2.14-3.464l15.491-7.745a3.874,3.874,0,0,1,5.6,3.464v7.745a11.63,11.63,0,0,1-11.618,11.618" transform="translate(-20.351 -14.308)" fill="#5c379b"/>
        <path id="Trazado_186843" data-name="Trazado 186843" d="M93.485,107.057A11.63,11.63,0,0,1,81.867,95.44V87.695a3.873,3.873,0,0,1,5.6-3.464l15.491,7.745a3.874,3.874,0,0,1,2.14,3.464,11.63,11.63,0,0,1-11.617,11.618" transform="translate(-13.974 -14.308)" fill="#8f52f5"/>
        <path id="Trazado_186844" data-name="Trazado 186844" d="M108.29,146.009V134.391a3.872,3.872,0,1,0-7.745,0v11.618Z" transform="translate(-17.163 -22.279)" fill="#8f52f5"/>
        <path id="Trazado_186845" data-name="Trazado 186845" d="M126.969,146.009V134.391a3.872,3.872,0,1,0-7.745,0v11.618Z" transform="translate(-20.351 -22.279)" fill="#5c379b"/>
        <path id="Trazado_186846" data-name="Trazado 186846" d="M188.783,107.057a3.871,3.871,0,0,1-3.873-3.873V87.695a3.873,3.873,0,1,1,7.746,0v15.49a3.871,3.871,0,0,1-3.873,3.873" transform="translate(-31.564 -14.308)" fill="#8f52f5"/>
      </g>
    </g>
  </g>
</svg>
