<svg xmlns="http://www.w3.org/2000/svg" xmlns:xlink="http://www.w3.org/1999/xlink" width="119.931" height="119.93" viewBox="0 0 119.931 119.93">
  <defs>
    <clipPath id="clip-path">
      <rect id="Rectángulo_39313" data-name="Rectángulo 39313" width="9.04" height="6.49" transform="translate(60.415 47.99)" fill="none"/>
    </clipPath>
  </defs>
  <g id="Grupo_143595" data-name="Grupo 143595" transform="translate(-7620 6034.002)">
    <path id="Trazado_187776" data-name="Trazado 187776" d="M117.431,55.294a52.8,52.8,0,1,0-52.8,52.8,52.8,52.8,0,0,0,52.8-52.8" transform="translate(7620 -6034)" fill="#fff"/>
    <path id="Trazado_187777" data-name="Trazado 187777" d="M117.431,55.294a52.8,52.8,0,1,0-52.8,52.8A52.8,52.8,0,0,0,117.431,55.294Z" transform="translate(7620 -6034)" fill="none" stroke="#5c379b" stroke-miterlimit="10" stroke-width="1"/>
    <path id="Trazado_187778" data-name="Trazado 187778" d="M105.342,88.917A52.815,52.815,0,0,0,46.061,5.857" transform="translate(7620 -6034)" fill="none" stroke="#a7f" stroke-miterlimit="10" stroke-width="5"/>
    <path id="Trazado_187779" data-name="Trazado 187779" d="M5.853,35.108A62.187,62.187,0,0,0,75.2,116.534" transform="translate(7620 -6034)" fill="none" stroke="#5c379b" stroke-miterlimit="10" stroke-width="5"/>
    <path id="Trazado_187780" data-name="Trazado 187780" d="M75.058,57.854l-19.649.061v1.759l19.649-.06Z" transform="translate(7620 -6034)" fill="#3c3c3b"/>
    <path id="Trazado_187781" data-name="Trazado 187781" d="M72.181,55.473c3.837,2.215,3.837,5.807,0,8.022a15.356,15.356,0,0,1-13.894,0c-3.836-2.215-3.836-5.807,0-8.022a15.356,15.356,0,0,1,13.894,0" transform="translate(7620 -6034)" fill="#3c3c3b"/>
    <path id="Trazado_187782" data-name="Trazado 187782" d="M72.181,53.9c3.837,2.215,3.837,5.807,0,8.022a15.356,15.356,0,0,1-13.894,0c-3.836-2.215-3.836-5.807,0-8.022a15.356,15.356,0,0,1,13.894,0" transform="translate(7620 -6034)" fill="#c6c6c6"/>
    <path id="Trazado_187783" data-name="Trazado 187783" d="M69.455,56.522,62.1,60.768V44.336l7.354-4.246Z" transform="translate(7620 -6034)" fill="#878787"/>
    <path id="Trazado_187784" data-name="Trazado 187784" d="M61.013,43.707l-.938,15.878L62.1,60.768V44.336Z" transform="translate(7620 -6034)" fill="#9d9d9c"/>
    <path id="Trazado_187785" data-name="Trazado 187785" d="M61.013,43.707l7.354-4.245,1.088.628L62.1,44.336Z" transform="translate(7620 -6034)" fill="#575756"/>
    <path id="Trazado_187786" data-name="Trazado 187786" d="M46.208,61.412,82.385,40.525v-23.7L46.208,37.709Z" transform="translate(7620 -6034)" fill="#dadada"/>
    <path id="Trazado_187787" data-name="Trazado 187787" d="M49.267,57.641,79.326,40.287V20.593L49.267,37.947Z" transform="translate(7620 -6034)" fill="#343038"/>
    <path id="Trazado_187788" data-name="Trazado 187788" d="M50.97,38.93,77.624,23.542V39.3L50.97,54.692Z" transform="translate(7620 -6034)" fill="#662483"/>
    <path id="Trazado_187789" data-name="Trazado 187789" d="M80.874,21.691l1.511-.873v-.576l-1.511.873Z" transform="translate(7620 -6034)" fill="#1d1d1b"/>
    <path id="Trazado_187790" data-name="Trazado 187790" d="M80.874,22.787l1.511-.872v-.577l-1.511.872Z" transform="translate(7620 -6034)" fill="#1d1d1b"/>
    <path id="Trazado_187791" data-name="Trazado 187791" d="M80.874,23.882l1.511-.873v-.576l-1.511.872Z" transform="translate(7620 -6034)" fill="#1d1d1b"/>
    <path id="Trazado_187792" data-name="Trazado 187792" d="M80.874,24.977l1.511-.872v-.577l-1.511.872Z" transform="translate(7620 -6034)" fill="#1d1d1b"/>
    <path id="Trazado_187793" data-name="Trazado 187793" d="M80.874,26.072l1.511-.872v-.577l-1.511.873Z" transform="translate(7620 -6034)" fill="#1d1d1b"/>
    <path id="Trazado_187794" data-name="Trazado 187794" d="M80.874,27.167l1.511-.872v-.577l-1.511.873Z" transform="translate(7620 -6034)" fill="#1d1d1b"/>
    <path id="Trazado_187795" data-name="Trazado 187795" d="M80.874,28.263l1.511-.872v-.577l-1.511.873Z" transform="translate(7620 -6034)" fill="#1d1d1b"/>
    <path id="Trazado_187796" data-name="Trazado 187796" d="M80.874,29.358l1.511-.872v-.577l-1.511.873Z" transform="translate(7620 -6034)" fill="#1d1d1b"/>
    <path id="Trazado_187797" data-name="Trazado 187797" d="M80.875,30.453l1.511-.872V29l-1.511.873Z" transform="translate(7620 -6034)" fill="#1d1d1b"/>
    <path id="Trazado_187798" data-name="Trazado 187798" d="M80.875,31.549l1.511-.873V30.1l-1.511.872Z" transform="translate(7620 -6034)" fill="#1d1d1b"/>
    <path id="Trazado_187799" data-name="Trazado 187799" d="M46.207,41.706l1.511-.872v-.577l-1.511.873Z" transform="translate(7620 -6034)" fill="#1d1d1b"/>
    <path id="Trazado_187800" data-name="Trazado 187800" d="M46.207,42.8l1.511-.872v-.577l-1.511.873Z" transform="translate(7620 -6034)" fill="#1d1d1b"/>
    <path id="Trazado_187801" data-name="Trazado 187801" d="M46.207,43.9l1.511-.872v-.577l-1.511.873Z" transform="translate(7620 -6034)" fill="#1d1d1b"/>
    <path id="Trazado_187802" data-name="Trazado 187802" d="M46.208,44.992l1.511-.872v-.577l-1.511.873Z" transform="translate(7620 -6034)" fill="#1d1d1b"/>
    <path id="Trazado_187803" data-name="Trazado 187803" d="M46.208,46.087l1.511-.872v-.577l-1.511.873Z" transform="translate(7620 -6034)" fill="#1d1d1b"/>
    <path id="Trazado_187804" data-name="Trazado 187804" d="M46.208,47.182l1.511-.873v-.576l-1.511.872Z" transform="translate(7620 -6034)" fill="#1d1d1b"/>
    <path id="Trazado_187805" data-name="Trazado 187805" d="M46.208,48.277l1.511-.872v-.577l-1.511.873Z" transform="translate(7620 -6034)" fill="#1d1d1b"/>
    <path id="Trazado_187806" data-name="Trazado 187806" d="M46.208,49.373l1.511-.873v-.576l-1.511.872Z" transform="translate(7620 -6034)" fill="#1d1d1b"/>
    <path id="Trazado_187807" data-name="Trazado 187807" d="M46.208,50.468l1.511-.872v-.577l-1.511.873Z" transform="translate(7620 -6034)" fill="#1d1d1b"/>
    <path id="Trazado_187808" data-name="Trazado 187808" d="M46.208,51.563l1.511-.873v-.576l-1.511.873Z" transform="translate(7620 -6034)" fill="#1d1d1b"/>
    <path id="Trazado_187809" data-name="Trazado 187809" d="M49.723,58.7l1.048-.6v-.461l-1.048.6Z" transform="translate(7620 -6034)" fill="#e30613"/>
    <path id="Trazado_187810" data-name="Trazado 187810" d="M82.385,16.821,46.207,37.709l-1.431-.826L80.954,16Z" transform="translate(7620 -6034)" fill="#c6c6c6"/>
    <path id="Trazado_187811" data-name="Trazado 187811" d="M44.776,60.586v-23.7l1.432.827v23.7Z" transform="translate(7620 -6034)" fill="#9d9d9c"/>
    <path id="Trazado_187812" data-name="Trazado 187812" d="M45.451,41.279l.757.437v-.577l-.757-.436Z" transform="translate(7620 -6034)" fill="#1d1d1b"/>
    <path id="Trazado_187813" data-name="Trazado 187813" d="M45.451,42.374l.757.437v-.577l-.757-.436Z" transform="translate(7620 -6034)" fill="#1d1d1b"/>
    <path id="Trazado_187814" data-name="Trazado 187814" d="M45.451,43.469l.757.437v-.577l-.757-.437Z" transform="translate(7620 -6034)" fill="#1d1d1b"/>
    <path id="Trazado_187815" data-name="Trazado 187815" d="M45.451,44.564l.757.437v-.576l-.757-.437Z" transform="translate(7620 -6034)" fill="#1d1d1b"/>
    <path id="Trazado_187816" data-name="Trazado 187816" d="M45.451,45.66l.757.437V45.52l-.757-.436Z" transform="translate(7620 -6034)" fill="#1d1d1b"/>
    <path id="Trazado_187817" data-name="Trazado 187817" d="M45.451,46.755l.757.437v-.577l-.757-.437Z" transform="translate(7620 -6034)" fill="#1d1d1b"/>
    <path id="Trazado_187818" data-name="Trazado 187818" d="M45.45,47.85l.757.437V47.71l-.757-.437Z" transform="translate(7620 -6034)" fill="#1d1d1b"/>
    <path id="Trazado_187819" data-name="Trazado 187819" d="M45.45,48.945l.757.437v-.576l-.757-.437Z" transform="translate(7620 -6034)" fill="#1d1d1b"/>
    <path id="Trazado_187820" data-name="Trazado 187820" d="M45.45,50.041l.757.437V49.9l-.757-.438Z" transform="translate(7620 -6034)" fill="#1d1d1b"/>
    <path id="Trazado_187821" data-name="Trazado 187821" d="M45.45,51.136l.757.437V51l-.757-.437Z" transform="translate(7620 -6034)" fill="#1d1d1b"/>
    <g id="Grupo_143388" data-name="Grupo 143388" transform="translate(7620 -6034)" opacity="0.3">
      <g id="Grupo_143387" data-name="Grupo 143387">
        <g id="Grupo_143386" data-name="Grupo 143386" clip-path="url(#clip-path)">
          <path id="Trazado_187822" data-name="Trazado 187822" d="M60.452,53.2l-.037.63,1.686.656,7.354-4.3v-2.2Z" fill="#1d1d1b"/>
        </g>
      </g>
    </g>
    <path id="Trazado_187823" data-name="Trazado 187823" d="M56.484,73.875v1.182l.952.305V74.021Z" transform="translate(7620 -6034)" fill="#9d9d9c"/>
    <path id="Trazado_187824" data-name="Trazado 187824" d="M84.553,58.672,56.7,74.751a.323.323,0,0,0,0,.612l10.4,6.006a1.169,1.169,0,0,0,1.059,0L96.015,65.29a.323.323,0,0,0,0-.611l-10.4-6.007a1.169,1.169,0,0,0-1.059,0" transform="translate(7620 -6034)" fill="#9d9d9c"/>
    <path id="Trazado_187825" data-name="Trazado 187825" d="M96.234,63.8v1.182l-1.164.084V63.744l1.152.128Z" transform="translate(7620 -6034)" fill="#9d9d9c"/>
    <path id="Trazado_187826" data-name="Trazado 187826" d="M84.553,57.49,56.7,73.569a.323.323,0,0,0,0,.611l10.4,6.007a1.169,1.169,0,0,0,1.059,0L96.015,64.108a.323.323,0,0,0,0-.612l-10.4-6.006a1.169,1.169,0,0,0-1.059,0" transform="translate(7620 -6034)" fill="#575756"/>
    <path id="Trazado_187827" data-name="Trazado 187827" d="M58.08,73.7l1.417-.818,1.146.662-1.417.818Z" transform="translate(7620 -6034)" fill="#dadada"/>
    <path id="Trazado_187828" data-name="Trazado 187828" d="M59.777,72.718l1.417-.818,1.146.661-1.417.818Z" transform="translate(7620 -6034)" fill="#dadada"/>
    <path id="Trazado_187829" data-name="Trazado 187829" d="M61.473,71.738l1.417-.818,1.146.661-1.417.818Z" transform="translate(7620 -6034)" fill="#dadada"/>
    <path id="Trazado_187830" data-name="Trazado 187830" d="M64.866,69.78l1.417-.818,1.146.661-1.417.818Z" transform="translate(7620 -6034)" fill="#dadada"/>
    <path id="Trazado_187831" data-name="Trazado 187831" d="M66.562,68.8l1.417-.818,1.146.661-1.417.818Z" transform="translate(7620 -6034)" fill="#dadada"/>
    <path id="Trazado_187832" data-name="Trazado 187832" d="M68.258,67.821,69.675,67l1.146.661-1.417.818Z" transform="translate(7620 -6034)" fill="#dadada"/>
    <path id="Trazado_187833" data-name="Trazado 187833" d="M69.954,66.841l1.417-.818,1.146.661L71.1,67.5Z" transform="translate(7620 -6034)" fill="#dadada"/>
    <path id="Trazado_187834" data-name="Trazado 187834" d="M73.347,64.883l1.417-.818,1.146.661-1.417.819Z" transform="translate(7620 -6034)" fill="#dadada"/>
    <path id="Trazado_187835" data-name="Trazado 187835" d="M75.044,63.9l1.417-.818,1.146.661-1.417.819Z" transform="translate(7620 -6034)" fill="#dadada"/>
    <path id="Trazado_187836" data-name="Trazado 187836" d="M76.74,62.924l1.417-.818,1.146.661-1.417.818Z" transform="translate(7620 -6034)" fill="#dadada"/>
    <path id="Trazado_187837" data-name="Trazado 187837" d="M81.557,61.788l1.417-.818,1.146.661L82.7,62.45Z" transform="translate(7620 -6034)" fill="#dadada"/>
    <path id="Trazado_187838" data-name="Trazado 187838" d="M83.254,60.808l1.417-.818,1.146.661-1.417.818Z" transform="translate(7620 -6034)" fill="#dadada"/>
    <path id="Trazado_187839" data-name="Trazado 187839" d="M84.95,59.829l1.417-.818,1.146.661-1.417.819Z" transform="translate(7620 -6034)" fill="#dadada"/>
    <path id="Trazado_187840" data-name="Trazado 187840" d="M60.93,75.343l1.417-.818,1.146.661L62.076,76Z" transform="translate(7620 -6034)" fill="#dadada"/>
    <path id="Trazado_187841" data-name="Trazado 187841" d="M62.627,74.363l1.417-.818,1.146.661-1.417.818Z" transform="translate(7620 -6034)" fill="#dadada"/>
    <path id="Trazado_187842" data-name="Trazado 187842" d="M64.323,73.384l1.417-.818,1.146.661-1.417.818Z" transform="translate(7620 -6034)" fill="#dadada"/>
    <path id="Trazado_187843" data-name="Trazado 187843" d="M66.019,72.4l1.417-.818,1.146.661-1.417.819Z" transform="translate(7620 -6034)" fill="#dadada"/>
    <path id="Trazado_187844" data-name="Trazado 187844" d="M67.715,71.425l1.417-.818,1.146.661-1.417.818Z" transform="translate(7620 -6034)" fill="#dadada"/>
    <path id="Trazado_187845" data-name="Trazado 187845" d="M69.412,70.446l1.417-.818,1.146.661-1.417.819Z" transform="translate(7620 -6034)" fill="#dadada"/>
    <path id="Trazado_187846" data-name="Trazado 187846" d="M71.108,69.466l1.417-.818,1.146.661-1.417.818Z" transform="translate(7620 -6034)" fill="#dadada"/>
    <path id="Trazado_187847" data-name="Trazado 187847" d="M72.8,68.487l1.417-.818,1.146.661-1.417.819Z" transform="translate(7620 -6034)" fill="#dadada"/>
    <path id="Trazado_187848" data-name="Trazado 187848" d="M74.5,67.507l1.417-.818,1.146.661-1.417.818Z" transform="translate(7620 -6034)" fill="#dadada"/>
    <path id="Trazado_187849" data-name="Trazado 187849" d="M76.2,66.528l1.417-.818,1.146.661-1.417.819Z" transform="translate(7620 -6034)" fill="#dadada"/>
    <path id="Trazado_187850" data-name="Trazado 187850" d="M77.893,65.549l1.417-.818,1.146.661-1.417.819Z" transform="translate(7620 -6034)" fill="#dadada"/>
    <path id="Trazado_187851" data-name="Trazado 187851" d="M79.59,64.569l1.417-.818,1.146.661-1.417.818Z" transform="translate(7620 -6034)" fill="#dadada"/>
    <path id="Trazado_187852" data-name="Trazado 187852" d="M82.982,62.611l1.417-.818,1.146.661-1.417.818Z" transform="translate(7620 -6034)" fill="#dadada"/>
    <path id="Trazado_187853" data-name="Trazado 187853" d="M84.678,61.631l1.417-.818,1.146.661-1.417.819Z" transform="translate(7620 -6034)" fill="#dadada"/>
    <path id="Trazado_187854" data-name="Trazado 187854" d="M86.375,60.652l1.417-.818,1.146.661-1.417.819Z" transform="translate(7620 -6034)" fill="#dadada"/>
    <path id="Trazado_187855" data-name="Trazado 187855" d="M62.355,76.165l1.417-.818,1.146.661-1.417.818Z" transform="translate(7620 -6034)" fill="#dadada"/>
    <path id="Trazado_187856" data-name="Trazado 187856" d="M64.051,75.186l1.417-.818,1.146.661-1.417.818Z" transform="translate(7620 -6034)" fill="#dadada"/>
    <path id="Trazado_187857" data-name="Trazado 187857" d="M65.748,74.206l1.417-.818,1.146.661-1.417.819Z" transform="translate(7620 -6034)" fill="#dadada"/>
    <path id="Trazado_187858" data-name="Trazado 187858" d="M67.444,73.227l1.417-.818,1.146.661-1.417.818Z" transform="translate(7620 -6034)" fill="#dadada"/>
    <path id="Trazado_187859" data-name="Trazado 187859" d="M69.14,72.248l1.417-.818,1.146.661-1.417.819Z" transform="translate(7620 -6034)" fill="#dadada"/>
    <path id="Trazado_187860" data-name="Trazado 187860" d="M70.837,71.268l1.417-.818,1.146.661-1.417.819Z" transform="translate(7620 -6034)" fill="#dadada"/>
    <path id="Trazado_187861" data-name="Trazado 187861" d="M72.533,70.289l1.417-.818,1.146.661-1.417.819Z" transform="translate(7620 -6034)" fill="#dadada"/>
    <path id="Trazado_187862" data-name="Trazado 187862" d="M74.229,69.31l1.417-.818,1.146.661-1.417.818Z" transform="translate(7620 -6034)" fill="#dadada"/>
    <path id="Trazado_187863" data-name="Trazado 187863" d="M75.926,68.33l1.417-.818,1.146.661-1.417.818Z" transform="translate(7620 -6034)" fill="#dadada"/>
    <path id="Trazado_187864" data-name="Trazado 187864" d="M77.622,67.351l1.417-.818,1.146.661-1.417.819Z" transform="translate(7620 -6034)" fill="#dadada"/>
    <path id="Trazado_187865" data-name="Trazado 187865" d="M79.318,66.371l1.417-.818,1.146.661-1.417.819Z" transform="translate(7620 -6034)" fill="#dadada"/>
    <path id="Trazado_187866" data-name="Trazado 187866" d="M84.407,63.433l1.417-.818,1.146.661-1.417.819Z" transform="translate(7620 -6034)" fill="#dadada"/>
    <path id="Trazado_187867" data-name="Trazado 187867" d="M86.1,62.454l1.417-.818,1.146.661-1.417.818Z" transform="translate(7620 -6034)" fill="#dadada"/>
    <path id="Trazado_187868" data-name="Trazado 187868" d="M87.8,61.474l1.417-.818,1.146.661-1.417.819Z" transform="translate(7620 -6034)" fill="#dadada"/>
    <path id="Trazado_187869" data-name="Trazado 187869" d="M63.78,76.988,65.2,76.17l1.146.661-1.417.818Z" transform="translate(7620 -6034)" fill="#dadada"/>
    <path id="Trazado_187870" data-name="Trazado 187870" d="M65.476,76.009l1.417-.818,1.146.661-1.417.819Z" transform="translate(7620 -6034)" fill="#dadada"/>
    <path id="Trazado_187871" data-name="Trazado 187871" d="M67.173,75.029l1.417-.818,1.146.661-1.417.818Z" transform="translate(7620 -6034)" fill="#dadada"/>
    <path id="Trazado_187872" data-name="Trazado 187872" d="M68.869,74.05l1.417-.818,1.146.661-1.417.819Z" transform="translate(7620 -6034)" fill="#dadada"/>
    <path id="Trazado_187873" data-name="Trazado 187873" d="M70.565,73.07l1.417-.818,1.146.661-1.417.819Z" transform="translate(7620 -6034)" fill="#dadada"/>
    <path id="Trazado_187874" data-name="Trazado 187874" d="M72.261,72.091l1.417-.818,1.146.662-1.417.818Z" transform="translate(7620 -6034)" fill="#dadada"/>
    <path id="Trazado_187875" data-name="Trazado 187875" d="M73.958,71.112l1.417-.818,1.146.661-1.417.818Z" transform="translate(7620 -6034)" fill="#dadada"/>
    <path id="Trazado_187876" data-name="Trazado 187876" d="M75.654,70.132l1.417-.818,1.146.661-1.417.818Z" transform="translate(7620 -6034)" fill="#dadada"/>
    <path id="Trazado_187877" data-name="Trazado 187877" d="M77.351,69.153l1.417-.818L79.914,69l-1.417.818Z" transform="translate(7620 -6034)" fill="#dadada"/>
    <path id="Trazado_187878" data-name="Trazado 187878" d="M79.047,68.173l1.417-.818,1.146.661-1.417.818Z" transform="translate(7620 -6034)" fill="#dadada"/>
    <path id="Trazado_187879" data-name="Trazado 187879" d="M81.014,65.392l1.425.823-1.7.979,1.145.662,1.7-.98.47-.271L85,66.058l-.682-.394-.464-.268-1.425-.822Z" transform="translate(7620 -6034)" fill="#dadada"/>
    <path id="Trazado_187880" data-name="Trazado 187880" d="M85.832,64.256l1.417-.818,1.146.661-1.417.818Z" transform="translate(7620 -6034)" fill="#dadada"/>
    <path id="Trazado_187881" data-name="Trazado 187881" d="M87.528,63.276l1.417-.818,1.146.661-1.417.818Z" transform="translate(7620 -6034)" fill="#dadada"/>
    <path id="Trazado_187882" data-name="Trazado 187882" d="M89.225,62.3l1.417-.818,1.146.661-1.417.818Z" transform="translate(7620 -6034)" fill="#dadada"/>
    <path id="Trazado_187883" data-name="Trazado 187883" d="M67.61,76.422l-.708.409-1.7.98,1.146.661,1.7-.979.709-.409.708-.409-1.145-.662Z" transform="translate(7620 -6034)" fill="#dadada"/>
    <path id="Trazado_187884" data-name="Trazado 187884" d="M68.6,75.852l1.417-.818,1.146.661-1.417.819Z" transform="translate(7620 -6034)" fill="#dadada"/>
    <path id="Trazado_187885" data-name="Trazado 187885" d="M70.294,74.873l1.417-.818,1.146.661-1.417.818Z" transform="translate(7620 -6034)" fill="#dadada"/>
    <path id="Trazado_187886" data-name="Trazado 187886" d="M71.99,73.893l1.417-.818,1.146.661-1.417.819Z" transform="translate(7620 -6034)" fill="#dadada"/>
    <path id="Trazado_187887" data-name="Trazado 187887" d="M73.687,72.914,75.1,72.1l1.146.661-1.417.819Z" transform="translate(7620 -6034)" fill="#dadada"/>
    <path id="Trazado_187888" data-name="Trazado 187888" d="M75.383,71.934l1.417-.818,1.146.661-1.417.818Z" transform="translate(7620 -6034)" fill="#dadada"/>
    <path id="Trazado_187889" data-name="Trazado 187889" d="M77.079,70.955l1.417-.818,1.146.661-1.417.818Z" transform="translate(7620 -6034)" fill="#dadada"/>
    <path id="Trazado_187890" data-name="Trazado 187890" d="M78.775,69.976l1.417-.818,1.146.661-1.417.818Z" transform="translate(7620 -6034)" fill="#dadada"/>
    <path id="Trazado_187891" data-name="Trazado 187891" d="M80.472,69l1.417-.818,1.146.661-1.417.819Z" transform="translate(7620 -6034)" fill="#dadada"/>
    <path id="Trazado_187892" data-name="Trazado 187892" d="M84.381,66.739l-.517.3-1.7.98,1.146.661,1.7-.979.517-.3.9-.519-1.146-.662Z" transform="translate(7620 -6034)" fill="#dadada"/>
    <path id="Trazado_187893" data-name="Trazado 187893" d="M87.257,65.079l1.417-.818,1.146.661L88.4,65.74Z" transform="translate(7620 -6034)" fill="#dadada"/>
    <path id="Trazado_187894" data-name="Trazado 187894" d="M88.953,64.1l1.417-.818,1.146.661L90.1,64.76Z" transform="translate(7620 -6034)" fill="#dadada"/>
    <path id="Trazado_187895" data-name="Trazado 187895" d="M90.649,63.12l1.417-.818,1.146.661-1.417.818Z" transform="translate(7620 -6034)" fill="#dadada"/>
    <path id="Trazado_187896" data-name="Trazado 187896" d="M66.63,78.633l1.417-.818,1.146.661-1.417.819Z" transform="translate(7620 -6034)" fill="#dadada"/>
    <path id="Trazado_187897" data-name="Trazado 187897" d="M68.326,77.654l1.417-.818,1.146.661-1.417.818Z" transform="translate(7620 -6034)" fill="#dadada"/>
    <path id="Trazado_187898" data-name="Trazado 187898" d="M70.022,76.675l1.417-.818,1.146.661-1.417.818Z" transform="translate(7620 -6034)" fill="#dadada"/>
    <path id="Trazado_187899" data-name="Trazado 187899" d="M80.654,70.536,80.2,70.8l-.279.161-1.417.818-.279.161-1.417.819-.279.161-1.417.818-.28.161-1.417.818-1.7.98,1.146.661,1.7-.979,1.417-.818.279-.161,1.417-.819.28-.161,1.417-.818.279-.161,1.417-.818.279-.162L81.8,71.2l.963-.557-1.146-.661Z" transform="translate(7620 -6034)" fill="#dadada"/>
    <path id="Trazado_187900" data-name="Trazado 187900" d="M84.085,68.555l-.492.284-1.7.98,1.146.661,1.7-.979.492-.284.925-.535-1.146-.661Z" transform="translate(7620 -6034)" fill="#dadada"/>
    <path id="Trazado_187901" data-name="Trazado 187901" d="M85.289,67.86l1.417-.818,1.146.661-1.417.819Z" transform="translate(7620 -6034)" fill="#dadada"/>
    <path id="Trazado_187902" data-name="Trazado 187902" d="M88.682,65.9l1.417-.818,1.146.661-1.417.818Z" transform="translate(7620 -6034)" fill="#dadada"/>
    <path id="Trazado_187903" data-name="Trazado 187903" d="M90.378,64.922,91.8,64.1l1.146.661-1.417.818Z" transform="translate(7620 -6034)" fill="#dadada"/>
    <path id="Trazado_187904" data-name="Trazado 187904" d="M92.074,63.943l1.417-.818,1.146.661L93.22,64.6Z" transform="translate(7620 -6034)" fill="#dadada"/>
    <path id="Trazado_187905" data-name="Trazado 187905" d="M33.228,63.062V78.531l15.935,7.832,8.859-5.151.681-2.476V65.863Z" transform="translate(7620 -6034)" fill="#1d1d1b"/>
    <path id="Trazado_187906" data-name="Trazado 187906" d="M48.824,84.436l-3.125-1.8,3.125,1.8" transform="translate(7620 -6034)" fill="#706f6f"/>
    <path id="Trazado_187907" data-name="Trazado 187907" d="M48.824,84.436v-5.8l-3.124-1.8V75.6l3.124,1.8V75.712l-3.124-1.8V72.679l3.124,1.8V72.791l-3.124-1.8V69.759l3.124,1.8V69.871L35.012,61.9,33.2,60.85l-.717-.415,0,1.691,0,1.23,0,1.691,0,1.23,0,1.691,0,1.229,0,1.691,0,1.23,0,1.691,0,1.192v5.646l1.21.7L45.7,88.293c0-.015,3.126,1.79,3.126,1.79l0-5.647m-9.236-6.451v2.951c0,.166-.117.234-.261.151a.58.58,0,0,1-.267-.456V77.68c0-.166.117-.234.262-.15a.578.578,0,0,1,.266.455m-4.925-2.843c0-.167.117-.234.262-.151a.58.58,0,0,1,.266.455V78.4c0,.167-.117.234-.261.151a.578.578,0,0,1-.267-.455Zm4.046,2.335v2.951c0,.167-.117.234-.262.151a.58.58,0,0,1-.266-.455V77.173c0-.167.117-.234.261-.151a.578.578,0,0,1,.267.455m-2.287-1.32c0-.166.117-.234.261-.151a.58.58,0,0,1,.267.456v2.951c0,.166-.117.234-.261.151a.58.58,0,0,1-.267-.456Zm.88.508c0-.167.117-.234.261-.151a.58.58,0,0,1,.266.456v2.95c0,.167-.117.235-.261.151a.577.577,0,0,1-.266-.455ZM35.543,78.6V75.649c0-.166.117-.234.261-.15a.577.577,0,0,1,.266.455V78.9c0,.167-.117.234-.261.151a.581.581,0,0,1-.266-.456m-.879-13.163c0-.167.116-.234.261-.151a.581.581,0,0,1,.266.456v2.95c0,.167-.117.235-.261.151a.578.578,0,0,1-.267-.455Zm4.924,2.843v2.951c0,.167-.117.234-.261.151a.58.58,0,0,1-.266-.456v-2.95c0-.167.117-.235.261-.151a.58.58,0,0,1,.266.455M36.422,69.4V66.452c0-.166.117-.234.262-.15a.578.578,0,0,1,.266.455v2.951c0,.166-.117.234-.261.151a.58.58,0,0,1-.267-.456m-.879-3.458c0-.167.117-.234.261-.151a.578.578,0,0,1,.267.455V69.2c0,.167-.117.234-.262.151a.58.58,0,0,1-.266-.455ZM37.3,66.96c0-.166.117-.234.261-.151a.581.581,0,0,1,.266.456v2.951c0,.166-.117.234-.261.15a.578.578,0,0,1-.266-.455Zm.879.508c0-.167.117-.234.261-.151a.578.578,0,0,1,.267.455v2.951c0,.167-.117.234-.261.151a.578.578,0,0,1-.267-.455Zm-4.4-2.539c0-.166.117-.234.261-.151a.58.58,0,0,1,.267.456v2.951c0,.166-.117.234-.262.151a.581.581,0,0,1-.266-.456Zm0,9.705c0-.167.117-.234.261-.151a.58.58,0,0,1,.267.456V77.89c0,.166-.117.234-.262.15a.58.58,0,0,1-.266-.455Z" transform="translate(7620 -6034)" fill="#9d9d9c"/>
    <path id="Trazado_187908" data-name="Trazado 187908" d="M48.824,84.436v5.646q6.6-1.769,9.879-5.7V78.736q-3.276,3.935-9.879,5.7" transform="translate(7620 -6034)" fill="#706f6f"/>
    <path id="Trazado_187909" data-name="Trazado 187909" d="M48.824,81.553v1.692a25.669,25.669,0,0,0,4.429-1.6,19.216,19.216,0,0,0,1.7-.919,15.369,15.369,0,0,0,3.043-2.4c.247-.253.485-.513.709-.781V75.853q-3.276,3.935-9.879,5.7" transform="translate(7620 -6034)" fill="#706f6f"/>
    <path id="Trazado_187910" data-name="Trazado 187910" d="M48.824,78.633V85.8A25.586,25.586,0,0,0,53.253,84.2a18.954,18.954,0,0,0,1.7-.918,15.364,15.364,0,0,0,3.019-2.372c.256-.261.5-.528.733-.805V72.933q-3.276,3.935-9.879,5.7" transform="translate(7620 -6034)" fill="#dadada"/>
    <path id="Trazado_187911" data-name="Trazado 187911" d="M54.951,75.431v-.55a18.954,18.954,0,0,1-1.7.918v.549Z" transform="translate(7620 -6034)" fill="#b5ff00"/>
    <path id="Trazado_187912" data-name="Trazado 187912" d="M48.824,75.712V77.4a25.669,25.669,0,0,0,4.429-1.6,19.216,19.216,0,0,0,1.7-.919A15.36,15.36,0,0,0,57.97,72.51c.256-.261.5-.529.733-.806V70.012q-3.276,3.935-9.879,5.7" transform="translate(7620 -6034)" fill="#dadada"/>
    <path id="Trazado_187913" data-name="Trazado 187913" d="M54.951,72.519v-.558a18.952,18.952,0,0,1-1.7.918v.557Z" transform="translate(7620 -6034)" fill="#fc0"/>
    <path id="Trazado_187914" data-name="Trazado 187914" d="M35.012,61.9,48.824,69.87Z" transform="translate(7620 -6034)" fill="#3c3c3b"/>
    <path id="Trazado_187915" data-name="Trazado 187915" d="M48.824,72.791v1.692a25.669,25.669,0,0,0,4.429-1.6,19.214,19.214,0,0,0,1.7-.919,15.36,15.36,0,0,0,3.019-2.371c.256-.261.5-.529.733-.806V67.091q-3.276,3.934-9.879,5.7" transform="translate(7620 -6034)" fill="#dadada"/>
    <path id="Trazado_187916" data-name="Trazado 187916" d="M54.951,69.606V69.04a18.956,18.956,0,0,1-1.7.918v.565Z" transform="translate(7620 -6034)" fill="#b5ff00"/>
    <path id="Trazado_187917" data-name="Trazado 187917" d="M48.824,69.871q6.6-1.769,9.879-5.7L42.357,54.735l-9.875,5.7,2.53,1.461Z" transform="translate(7620 -6034)" fill="#c6c6c6"/>
    <path id="Trazado_187918" data-name="Trazado 187918" d="M58.7,64.17q-3.276,3.935-9.879,5.7v1.692a25.638,25.638,0,0,0,4.429-1.6,19.218,19.218,0,0,0,1.7-.919,15.36,15.36,0,0,0,3.019-2.371c.256-.261.5-.529.733-.806Z" transform="translate(7620 -6034)" fill="#dadada"/>
    <path id="Trazado_187919" data-name="Trazado 187919" d="M56.168,79.528a3.96,3.96,0,0,1-1.792,3.1c-.99.572-1.793.109-1.793-1.034a3.964,3.964,0,0,1,1.793-3.105c.99-.571,1.792-.108,1.792,1.035" transform="translate(7620 -6034)" fill="#1d1d1b"/>
    <path id="Trazado_187920" data-name="Trazado 187920" d="M55.608,79.851a2.721,2.721,0,0,1-1.232,2.133c-.68.393-1.231.075-1.231-.711a2.723,2.723,0,0,1,1.231-2.133c.681-.393,1.232-.074,1.232.711" transform="translate(7620 -6034)" fill="#fff"/>
    <path id="Trazado_187921" data-name="Trazado 187921" d="M55.451,79.942A2.377,2.377,0,0,1,54.376,81.8c-.593.342-1.075.065-1.075-.621a2.373,2.373,0,0,1,1.075-1.861c.594-.343,1.075-.065,1.075.62" transform="translate(7620 -6034)" fill="#dadada"/>
    <path id="Trazado_187922" data-name="Trazado 187922" d="M54.512,80.125l-.272.157V79.273l.272-.157Z" transform="translate(7620 -6034)" fill="#fff"/>
    <path id="Trazado_187923" data-name="Trazado 187923" d="M89.686,51.311c1.7.981,2.767,2.729,1.47,3.478s-4.468.215-6.168-.766-1.283-2.038.014-2.787a4.551,4.551,0,0,1,4.684.075" transform="translate(7620 -6034)" fill="#3c3c3b"/>
    <path id="Trazado_187924" data-name="Trazado 187924" d="M89.057,49.7a4.6,4.6,0,0,0-4.025.2,5.52,5.52,0,0,1,1.605.345,5.307,5.307,0,0,1,2.42-.544" transform="translate(7620 -6034)" fill="#9d9d9c"/>
    <path id="Trazado_187925" data-name="Trazado 187925" d="M84.9,53.677c.137.079.285.154.438.227a2.431,2.431,0,0,1,.949-3.477c.113-.065.228-.125.346-.182a5.6,5.6,0,0,0-1.606-.345c-.038.02-.076.039-.113.06a2.07,2.07,0,0,0-.014,3.717" transform="translate(7620 -6034)" fill="#c6c6c6"/>
    <path id="Trazado_187926" data-name="Trazado 187926" d="M89.742,50.038a5.689,5.689,0,0,0-.685-.336,5.3,5.3,0,0,0-2.419.543c-.117.058-.232.117-.345.182a2.431,2.431,0,0,0-.949,3.477,9.964,9.964,0,0,0,4.706.894,3.048,3.048,0,0,0,1.207-.332c1.336-.771.235-3.418-1.515-4.428" transform="translate(7620 -6034)" fill="#575756"/>
    <path id="Trazado_187927" data-name="Trazado 187927" d="M87.735,50.348a.221.221,0,0,1,0,.419.8.8,0,0,1-.725,0,.221.221,0,0,1,0-.419.8.8,0,0,1,.725,0" transform="translate(7620 -6034)" fill="#b2b2b2"/>
    <path id="Trazado_187928" data-name="Trazado 187928" d="M66.608,42.017,66.3,42.2a.226.226,0,0,0-.1.1.155.155,0,0,0,0,.092.563.563,0,0,1-.042.325c-.048.114-.161.214-.23.192a2.4,2.4,0,0,0,.036-.406c0-.023,0-.051-.015-.054s-.035,0-.054.015l-.324.19a2.917,2.917,0,0,0-.011.5.816.816,0,0,0-.22.159c-.011-.13-.017-.263-.028-.393L65,43.1a2.964,2.964,0,0,0-.015.5c-.044.031-.082.053-.126.079a1.281,1.281,0,0,1-.125.068,2.571,2.571,0,0,0-.024-.479l-.3.179c-.009.141-.013.279-.021.421a.6.6,0,0,0-.222.1,2.528,2.528,0,0,0-.018-.482l-.324.19a.122.122,0,0,0-.054.048.115.115,0,0,0-.014.07,1.679,1.679,0,0,0,.042.361c-.068.1-.181.136-.231.079a.343.343,0,0,1-.046-.273c0-.031.009-.068-.006-.087s-.064,0-.1.018l-.309.183a1.446,1.446,0,0,0,.044.494l-.354.175c.042.271.079.544.12.807.021.107.036.224.106.272.084.064.227.015.354-.038.5-.212,1-.455,1.5-.726q.75-.476,1.494-1.031a1.186,1.186,0,0,0,.352-.378,1.163,1.163,0,0,0,.1-.393c.037-.31.069-.624.106-.94l-.353.242a1.9,1.9,0,0,0,.035-.543" transform="translate(7620 -6034)" fill="#fff"/>
    <path id="Trazado_187929" data-name="Trazado 187929" d="M68.54,35.233a5.446,5.446,0,0,0-.221-1.661A1.643,1.643,0,0,0,66.4,32.534a4.5,4.5,0,0,0-1.625.621,7.8,7.8,0,0,0-3.5,4.557,8.136,8.136,0,0,0-.192,1.9,3.7,3.7,0,0,0,.17,1.5c.146.317.4.545.378.991a2.836,2.836,0,0,0-.045.525c.052.411.554.252.807.449a.743.743,0,0,1,.206.44c.132-.078.265-.15.4-.217a3.676,3.676,0,0,0,.059.583,1.51,1.51,0,0,1,.387-.245,2.393,2.393,0,0,0,.011-.589c.068-.063.161-.129.191-.073a.16.16,0,0,1,.011.067l0,.441.349-.172a.155.155,0,0,0,.059-.051.139.139,0,0,0,.019-.074c0-.144.007-.288.016-.429l.132-.078c.012.181.018.364.029.544.158-.075.315-.144.467-.217a3.816,3.816,0,0,0,.044-.661c.024-.008.048-.016.077-.028l.076-.062a2.993,2.993,0,0,0,.054.6c.152-.107.309-.221.466-.331.008-.192.012-.38.02-.572l.133-.078c.01.129.017.267.023.406,0,.023,0,.047.02.05s.039-.006.059-.017c.117-.081.23-.159.348-.239l0-.44a.255.255,0,0,1,.009-.079.259.259,0,0,1,.192-.152,2.152,2.152,0,0,0,.019.572,1.293,1.293,0,0,1,.388-.211,5.185,5.185,0,0,0,.049-.646c.132-.09.265-.172.4-.25a2.19,2.19,0,0,1,.2-.677c.247-.492.747-.922.792-1.39a2.081,2.081,0,0,0-.053-.467,4.821,4.821,0,0,1,.358-1.423,5.186,5.186,0,0,0,.145-1.688m-5.2,6.52c-.519.307-1.064.5-1.068-.055a2.948,2.948,0,0,1,1.052-1.96c.519-.306.944-.1.949.455a2.011,2.011,0,0,1-.933,1.56m1.906-.268a.511.511,0,0,1-.4.208.6.6,0,0,1-.4.258.153.153,0,0,1-.168-.157.64.64,0,0,1,.016-.14,5.43,5.43,0,0,1,.536-1.456,1.425,1.425,0,0,1,.553.815.382.382,0,0,1,.019.12.63.63,0,0,1-.164.352m1.1-1.5c-.519.306-.944.1-.949-.455a2.015,2.015,0,0,1,.933-1.561.739.739,0,0,1,1.074.71c0,.556-.539,1-1.058,1.306" transform="translate(7620 -6034)" fill="#fff"/>
    <path id="Trazado_187930" data-name="Trazado 187930" d="M71.1,40.723c-.036.425-.036.425.121.539.223.163.648-.035.916-.427a1.082,1.082,0,0,0,.15-1.136,1.569,1.569,0,0,0,.781-1.582c-.189-.433-.879-.056-1.185.586-1.373-.28-1.971-.459-3.345-.74a1.97,1.97,0,0,1-.594,1.954c.862.12.867-.1,1.729.022a5.477,5.477,0,0,1,1.414.286c.128.081.032.272.013.5" transform="translate(7620 -6034)" fill="#fff"/>
    <path id="Trazado_187931" data-name="Trazado 187931" d="M58.637,47.917a.807.807,0,0,1-.121.679c-.223.421-.648.713-.916.63s-.337-.529-.15-.962c-.5.38-.97-.029-.781-.68s.879-1.071,1.185-.782c1.373-1.867,1.971-2.737,3.345-4.6-.258.742.045,1.388.594,1.268-.862,1.115-.867.9-1.729,2.018-.317.41-1.16,1.464-1.414,1.919-.128.228-.032.309-.013.513" transform="translate(7620 -6034)" fill="#fff"/>
    <path id="Trazado_187932" data-name="Trazado 187932" d="M72.281,29.97c.187-.433.118-.879-.15-.962s-.693.209-.916.63a.807.807,0,0,0-.121.679c.019.2.115.285-.013.513-.254.455-1.1,1.509-1.414,1.919a8.609,8.609,0,0,1-.721.858,6,6,0,0,1,.089,1.741c1.1-1.5,1.613-2.245,2.842-3.916.306.289,1-.13,1.185-.782s-.281-1.06-.781-.68" transform="translate(7620 -6034)" fill="#fff"/>
    <path id="Trazado_187933" data-name="Trazado 187933" d="M60.061,38.295a5.477,5.477,0,0,1-1.414-.286c-.128-.081-.032-.272-.013-.5.036-.425.036-.425-.121-.539-.224-.163-.648.035-.916.428a1.08,1.08,0,0,0-.15,1.135,1.569,1.569,0,0,0-.781,1.582c.189.434.879.056,1.185-.586,1.174.24,1.715.391,2.725.609a8.986,8.986,0,0,1,.125-1.813,2.3,2.3,0,0,1-.64-.032" transform="translate(7620 -6034)" fill="#fff"/>
  </g>
</svg>
