<svg xmlns="http://www.w3.org/2000/svg" width="119.931" height="119.93" viewBox="0 0 119.931 119.93">
  <g id="Grupo_143600" data-name="Grupo 143600" transform="translate(-7620 5252.192)">
    <path id="Trazado_187955" data-name="Trazado 187955" d="M117.431,837.1a52.8,52.8,0,1,0-52.8,52.8,52.8,52.8,0,0,0,52.8-52.8" transform="translate(7620 -6034)" fill="#fff"/>
    <path id="Trazado_187956" data-name="Trazado 187956" d="M117.431,837.1a52.8,52.8,0,1,0-52.8,52.8A52.8,52.8,0,0,0,117.431,837.1Z" transform="translate(7620 -6034)" fill="none" stroke="#5c379b" stroke-miterlimit="10" stroke-width="1"/>
    <path id="Trazado_187957" data-name="Trazado 187957" d="M105.342,870.727a52.815,52.815,0,0,0-59.281-83.06" transform="translate(7620 -6034)" fill="none" stroke="#a7f" stroke-miterlimit="10" stroke-width="5"/>
    <path id="Trazado_187958" data-name="Trazado 187958" d="M5.853,816.918A62.187,62.187,0,0,0,75.2,898.344" transform="translate(7620 -6034)" fill="none" stroke="#5c379b" stroke-miterlimit="10" stroke-width="5"/>
    <path id="Trazado_188030" data-name="Trazado 188030" d="M83.934,812.7l-.014-5.123a.605.605,0,0,0-.313-.592l-.749-.474a.517.517,0,0,0-.585.059l-6.5,4.072a2.014,2.014,0,0,0-.817,1.54l.014,5.122a.614.614,0,0,0,.245.563l.817.489c.014,0,.014.015.014.015l.04.014-.013-.014a.54.54,0,0,0,.545-.075L78,817.441l1.062,1.452.817.533,1.552-4.131,1.689-1.066a1.988,1.988,0,0,0,.817-1.525" transform="translate(7620 -6034)" fill="#e4e8f4"/>
    <path id="Trazado_188031" data-name="Trazado 188031" d="M80.693,833.314v1.836c-.953,1.081-.722,2.473.749,3.4a6.64,6.64,0,0,0,6.441,0c1.389-.873,1.688-2.176.912-3.228V833.3a2.189,2.189,0,0,0-1.171-1.793,5.822,5.822,0,0,0-5.733,0,2.073,2.073,0,0,0-1.157,2.088,1.942,1.942,0,0,1-.041-.281" transform="translate(7620 -6034)" fill="#e4e8f4"/>
    <path id="Trazado_188032" data-name="Trazado 188032" d="M31.548,846.269v1.362l.027,8.869a.306.306,0,0,0,.123.267l.9.577a.256.256,0,0,0,.286-.03l3.4-2.132v2.976L53.376,868.7l7.572,3.716a1.351,1.351,0,0,0,.694.178,1.241,1.241,0,0,0,.613-.178l34.724-21.794a.462.462,0,0,0,.272-.414v-.519a.484.484,0,0,0-.272-.4L73.162,834.262,73.094,805.3a.738.738,0,0,0-.3-.666l-.844-.533a.6.6,0,0,0-.667.074L37.158,825.6a1.846,1.846,0,0,0-.613.667,2.241,2.241,0,0,0-.34,1.11l.041,14.82-3.8,2.4a2.121,2.121,0,0,0-.9,1.673" transform="translate(7620 -6034)" fill="#e4e8f4"/>
    <path id="Trazado_188033" data-name="Trazado 188033" d="M97.006,837.607c.082.03.177.074.259.1l1.2,2.295,1.43-.237.776-.489-.5-2.058,1.28.814.776-.488.395-1.806-1.552-1.9c-.027-.295-.055-.606-.109-.917l.436-.267.79-.489-.886-2.339-1.62-.281a7.627,7.627,0,0,0-.586-.9l.041-2.1L97.5,825.052l-.79.488-.394.785c-.082-.029-.177-.074-.259-.1l-1.185-2.28-1.43.222-.789.489.5,2.058-1.28-.814-.68.429-.205-.874.667.43.79-.489.273-1.332-1.144-1.406a6.213,6.213,0,0,0-.082-.681l.123-.075.789-.489-.653-1.732-1.2-.207c-.136-.222-.285-.459-.435-.666l.027-1.555-1.212-1.125-.79.5-.2.4a.191.191,0,0,0-.082-.03l-.871-1.687-1.062.163-.79.5.3,1.214-.653-.43-.79.5L83.7,818.6l1.157,1.392a3.683,3.683,0,0,0,.069.667l-.123.073-.79.5.667,1.733,1.2.206a5.309,5.309,0,0,0,.422.667l-.027,1.569,1.225,1.111.776-.489.205-.414a.178.178,0,0,1,.081.029l.885,1.688,1.049-.163.49-.311-.286,1.348,1.553,1.865c.027.311.054.622.109.933l-.436.251-.79.5.885,2.339,1.607.282c.191.295.381.606.6.888l-.041,2.117,1.634,1.51.79-.5Z" transform="translate(7620 -6034)" fill="#e4e8f4"/>
    <path id="Trazado_188034" data-name="Trazado 188034" d="M84.933,820.7l.785-.5-.913.53-.785.5Z" transform="translate(7620 -6034)" fill="#474b59"/>
    <path id="Trazado_188035" data-name="Trazado 188035" d="M87.5,826.524l.785-.5.541-1.107-.785.5Z" transform="translate(7620 -6034)" fill="#474b59"/>
    <path id="Trazado_188036" data-name="Trazado 188036" d="M85.25,818.071l.785-.5-1.262-.81-.786.5Z" transform="translate(7620 -6034)" fill="#474b59"/>
    <path id="Trazado_188037" data-name="Trazado 188037" d="M92.37,831.039l.785-.5-1.231.714-.785.5Z" transform="translate(7620 -6034)" fill="#f25574"/>
    <path id="Trazado_188038" data-name="Trazado 188038" d="M87.521,822.981a2.083,2.083,0,0,0,.29.224.884.884,0,0,0,.941.1l.786-.5a.872.872,0,0,1-.942-.1,2.078,2.078,0,0,1-.289-.224,3.111,3.111,0,0,1-.981-2.586.819.819,0,0,1,.345-.557l-.785.5a.823.823,0,0,0-.346.557,3.115,3.115,0,0,0,.981,2.587" transform="translate(7620 -6034)" fill="#5b5e71"/>
    <path id="Trazado_188039" data-name="Trazado 188039" d="M90.5,827.173l.785-.5-.426-1.768-.785.5Z" transform="translate(7620 -6034)" fill="#474b59"/>
    <path id="Trazado_188040" data-name="Trazado 188040" d="M95.824,838.891l.785-.5.738-1.469-.785.5Z" transform="translate(7620 -6034)" fill="#f25574"/>
    <path id="Trazado_188041" data-name="Trazado 188041" d="M90.069,825.405l.785-.5a1.349,1.349,0,0,0,.322-.341l-.785.5a1.368,1.368,0,0,1-.322.341" transform="translate(7620 -6034)" fill="#5b5e71"/>
    <path id="Trazado_188042" data-name="Trazado 188042" d="M87.076,817.49l.785-.5-.879-1.683-.785.5Z" transform="translate(7620 -6034)" fill="#474b59"/>
    <path id="Trazado_188043" data-name="Trazado 188043" d="M86.2,815.808l.785-.5-1.058.163-.786.5Z" transform="translate(7620 -6034)" fill="#5b5e71"/>
    <path id="Trazado_188044" data-name="Trazado 188044" d="M92.8,827.489l.785-.5-1.707-1.1-.785.5Z" transform="translate(7620 -6034)" fill="#f25574"/>
    <path id="Trazado_188045" data-name="Trazado 188045" d="M87.6,817.716l.785-.5a2.939,2.939,0,0,0-.523-.226l-.785.5a3.008,3.008,0,0,1,.523.226" transform="translate(7620 -6034)" fill="#5b5e71"/>
    <path id="Trazado_188046" data-name="Trazado 188046" d="M90.788,823.154l.785-.5a5.69,5.69,0,0,0-.08-.718l-.785.5a5.716,5.716,0,0,1,.08.718" transform="translate(7620 -6034)" fill="#5b5e71"/>
    <path id="Trazado_188047" data-name="Trazado 188047" d="M91.935,824.551l.785-.5-1.147-1.4-.785.5Z" transform="translate(7620 -6034)" fill="#474b59"/>
    <path id="Trazado_188048" data-name="Trazado 188048" d="M91.654,825.888l.785-.5.282-1.337-.786.5Z" transform="translate(7620 -6034)" fill="#5b5e71"/>
    <path id="Trazado_188049" data-name="Trazado 188049" d="M95.8,829.371l-.785.5a1.148,1.148,0,0,0-.47.765,4.162,4.162,0,0,0,1.317,3.479l.785-.5a4.158,4.158,0,0,1-1.316-3.479,1.144,1.144,0,0,1,.469-.765" transform="translate(7620 -6034)" fill="#f25574"/>
    <path id="Trazado_188050" data-name="Trazado 188050" d="M97.521,834.558l.785-.5a1.166,1.166,0,0,1-1.255-.135,2.72,2.72,0,0,1-.4-.312l-.785.5a2.8,2.8,0,0,0,.4.313,1.166,1.166,0,0,0,1.255.134" transform="translate(7620 -6034)" fill="#f25574"/>
    <path id="Trazado_188051" data-name="Trazado 188051" d="M89.766,819.967l.785-.5c-.131-.225-.28-.457-.433-.673l-.785.5c.153.216.3.447.433.672" transform="translate(7620 -6034)" fill="#5b5e71"/>
    <path id="Trazado_188052" data-name="Trazado 188052" d="M99.886,839.776l.785-.5-.578-2.375-.785.5Z" transform="translate(7620 -6034)" fill="#f25574"/>
    <path id="Trazado_188053" data-name="Trazado 188053" d="M89.363,817.742l.785-.5-1.219-1.122-.785.5Z" transform="translate(7620 -6034)" fill="#5b5e71"/>
    <path id="Trazado_188054" data-name="Trazado 188054" d="M89.334,819.295l.785-.5.029-1.553-.785.5Z" transform="translate(7620 -6034)" fill="#474b59"/>
    <path id="Trazado_188055" data-name="Trazado 188055" d="M99.308,837.4l.785-.5a2.208,2.208,0,0,0,.425-.468l-.785.5a2.182,2.182,0,0,1-.425.468" transform="translate(7620 -6034)" fill="#f25574"/>
    <path id="Trazado_188056" data-name="Trazado 188056" d="M91.614,821.9l.785-.5-.651-1.731-.785.5Z" transform="translate(7620 -6034)" fill="#5b5e71"/>
    <path id="Trazado_188057" data-name="Trazado 188057" d="M84.853,819.99a5.576,5.576,0,0,0,.08.709l-.913.53.658,1.736,1.2.212c.132.225.281.448.433.664l-.029,1.562,1.22,1.121.54-1.107a3.033,3.033,0,0,0,.527.228l.879,1.692,1.052-.164-.427-1.768a1.35,1.35,0,0,0,.322-.341l1.262.824.282-1.337-1.147-1.4a5.716,5.716,0,0,0-.08-.718l.906-.535-.651-1.73-1.2-.2c-.131-.225-.28-.456-.433-.672l.029-1.553-1.219-1.122-.544,1.1a3.008,3.008,0,0,0-.523-.226l-.879-1.682-1.059.163.426,1.755a1.83,1.83,0,0,0-.314.345l-1.263-.81-.281,1.336Zm2.668,2.992a3.127,3.127,0,0,1-.98-2.587c.143-.665.685-.835,1.285-.459a2.112,2.112,0,0,1,.294.226,3.109,3.109,0,0,1,.98,2.578c-.143.666-.685.844-1.287.466a2.073,2.073,0,0,1-.292-.224" transform="translate(7620 -6034)" fill="#3f434f"/>
    <path id="Trazado_188058" data-name="Trazado 188058" d="M90.963,820.171l.785-.5-1.2-.2-.786.5Z" transform="translate(7620 -6034)" fill="#474b59"/>
    <path id="Trazado_188059" data-name="Trazado 188059" d="M95.264,826.717l.785-.5-1.187-2.286-.786.5Z" transform="translate(7620 -6034)" fill="#f25574"/>
    <path id="Trazado_188060" data-name="Trazado 188060" d="M94.076,824.431l.785-.5-1.429.224-.785.5Z" transform="translate(7620 -6034)" fill="#f76d8e"/>
    <path id="Trazado_188061" data-name="Trazado 188061" d="M95.972,827.01l.785-.5a3.5,3.5,0,0,0-.708-.294l-.785.5a3.487,3.487,0,0,1,.708.293" transform="translate(7620 -6034)" fill="#f76d8e"/>
    <path id="Trazado_188062" data-name="Trazado 188062" d="M100.275,834.345l.785-.5a8.653,8.653,0,0,0-.111-.96l-.786.5a8.43,8.43,0,0,1,.112.96" transform="translate(7620 -6034)" fill="#f76d8e"/>
    <path id="Trazado_188063" data-name="Trazado 188063" d="M101.827,836.231l.785-.5-1.552-1.887-.785.5Z" transform="translate(7620 -6034)" fill="#f25574"/>
    <path id="Trazado_188064" data-name="Trazado 188064" d="M101.441,838.041l.785-.5.386-1.81-.785.5Z" transform="translate(7620 -6034)" fill="#f76d8e"/>
    <path id="Trazado_188065" data-name="Trazado 188065" d="M98.9,830.043l.785-.5c-.181-.3-.376-.61-.585-.893l-.786.5a10.465,10.465,0,0,1,.586.893" transform="translate(7620 -6034)" fill="#f76d8e"/>
    <path id="Trazado_188066" data-name="Trazado 188066" d="M98.311,829.15l.785-.5.031-2.109-.786.5Z" transform="translate(7620 -6034)" fill="#f25574"/>
    <path id="Trazado_188067" data-name="Trazado 188067" d="M98.341,827.042l.785-.5-1.631-1.5-.785.5Z" transform="translate(7620 -6034)" fill="#f76d8e"/>
    <path id="Trazado_188068" data-name="Trazado 188068" d="M101.391,832.668l.785-.5-.881-2.343-.785.5Z" transform="translate(7620 -6034)" fill="#f76d8e"/>
    <path id="Trazado_188069" data-name="Trazado 188069" d="M100.51,830.326l.785-.5-1.613-.283-.785.5Z" transform="translate(7620 -6034)" fill="#f25574"/>
    <path id="Trazado_188070" data-name="Trazado 188070" d="M92.259,830.078a8.229,8.229,0,0,0,.111.961l-1.231.713.885,2.345,1.61.281c.18.3.379.607.589.9l-.031,2.117,1.632,1.5.737-1.469a5.682,5.682,0,0,0,.709.293L98.457,840l1.429-.225-.578-2.375a2.207,2.207,0,0,0,.426-.467l1.707,1.107.386-1.81-1.552-1.886a8.709,8.709,0,0,0-.112-.961l1.228-.716-.881-2.342-1.614-.283c-.181-.305-.376-.61-.585-.893l.03-2.109-1.631-1.5-.738,1.469a3.487,3.487,0,0,0-.708-.293l-1.188-2.286-1.429.225.578,2.374a2.314,2.314,0,0,0-.425.459l-1.707-1.1-.386,1.809Zm3.6,4.033a4.161,4.161,0,0,1-1.316-3.479c.192-.9.92-1.141,1.727-.633a2.849,2.849,0,0,1,.4.308,4.2,4.2,0,0,1,1.316,3.484c-.192.907-.917,1.138-1.723.632a2.716,2.716,0,0,1-.4-.312" transform="translate(7620 -6034)" fill="#e01650"/>
    <path id="Trazado_188071" data-name="Trazado 188071" d="M36.278,856.336,60.95,871.9a1.322,1.322,0,0,0,1.295,0l34.731-21.8a.445.445,0,0,0,0-.815L72.308,833.718Z" transform="translate(7620 -6034)" fill="#e4e8f4"/>
    <path id="Trazado_188072" data-name="Trazado 188072" d="M60.951,871.894a1.235,1.235,0,0,0,.687.165v.529a1.278,1.278,0,0,1-.687-.166l-7.58-3.724-17.09-10.547v-1.813Z" transform="translate(7620 -6034)" fill="#cad0dd"/>
    <path id="Trazado_188073" data-name="Trazado 188073" d="M62.25,871.894l34.73-21.8a.5.5,0,0,0,.269-.414v.529a.475.475,0,0,1-.269.412l-34.73,21.8a1.211,1.211,0,0,1-.612.166v-.529a1.241,1.241,0,0,0,.612-.165" transform="translate(7620 -6034)" fill="#cad0dd"/>
    <path id="Trazado_188074" data-name="Trazado 188074" d="M38.012,826.144a2.3,2.3,0,0,0-.944,1.777l.076,28.964,36.022-22.613-.075-28.964c0-.655-.426-.917-.95-.588Z" transform="translate(7620 -6034)" fill="#5b5e71"/>
    <path id="Trazado_188075" data-name="Trazado 188075" d="M37.392,826.836a2.249,2.249,0,0,0-.325,1.081l.074,28.967-.858-.546-.074-28.967a2.167,2.167,0,0,1,.336-1.1Z" transform="translate(7620 -6034)" fill="#cad0dd"/>
    <path id="Trazado_188076" data-name="Trazado 188076" d="M37.153,825.6l34.129-21.426a.609.609,0,0,1,.674-.067l.858.546a.614.614,0,0,0-.674.067L38.011,826.143a2.012,2.012,0,0,0-.619.692l-.847-.567a1.992,1.992,0,0,1,.608-.67" transform="translate(7620 -6034)" fill="#e4e8f4"/>
    <path id="Trazado_188077" data-name="Trazado 188077" d="M38.372,828.728v.064l.09,25.621,14.867-9.358,8.1-5.071,1.625-1.014,2.829-1.768,5.958-3.762-.06-25.687-20.916,13.12-2.8,1.768-1.655,1.048Z" transform="translate(7620 -6034)" fill="#fff"/>
    <path id="Trazado_188078" data-name="Trazado 188078" d="M77.872,850.684l-12.519,7.858-.08-.05a.211.211,0,0,1,.008-.386l12.591-7.9a.631.631,0,0,1,.608,0l6.878,4.346a.212.212,0,0,1,0,.387l-.077.048-6.805-4.3a.631.631,0,0,0-.608,0" transform="translate(7620 -6034)" fill="#bac1ce"/>
    <path id="Trazado_188079" data-name="Trazado 188079" d="M72.151,862.838l-6.8-4.3,12.519-7.858a.631.631,0,0,1,.608,0l6.805,4.3-12.513,7.855a.639.639,0,0,1-.62,0" transform="translate(7620 -6034)" fill="#cad0dd"/>
    <path id="Trazado_188080" data-name="Trazado 188080" d="M43.629,861.487l0,.723-6.234-4,0-.723Z" transform="translate(7620 -6034)" fill="#bac1ce"/>
    <path id="Trazado_188081" data-name="Trazado 188081" d="M71.646,837.286a.162.162,0,0,0,0,.3l.945.6a.49.49,0,0,0,.478,0l1.406-.882a.165.165,0,0,0,0-.3l-.945-.6a.485.485,0,0,0-.478,0Z" transform="translate(7620 -6034)" fill="#5b5e71"/>
    <path id="Trazado_188082" data-name="Trazado 188082" d="M69.489,838.64a.166.166,0,0,0-.008.3l.945.6a.512.512,0,0,0,.485-.005l1.409-.885a.166.166,0,0,0,0-.3l-.945-.6a.5.5,0,0,0-.474,0Z" transform="translate(7620 -6034)" fill="#5b5e71"/>
    <path id="Trazado_188083" data-name="Trazado 188083" d="M67.326,840a.163.163,0,0,0,0,.3l.945.6a.5.5,0,0,0,.478,0l1.409-.885a.163.163,0,0,0,0-.3l-.945-.6a.477.477,0,0,0-.474,0Z" transform="translate(7620 -6034)" fill="#5b5e71"/>
    <path id="Trazado_188084" data-name="Trazado 188084" d="M65.173,841.349c-.137.086-.145.223-.012.308l.945.6a.514.514,0,0,0,.489-.007L68,841.365a.165.165,0,0,0,0-.3l-.945-.6a.485.485,0,0,0-.478,0Z" transform="translate(7620 -6034)" fill="#5b5e71"/>
    <path id="Trazado_188085" data-name="Trazado 188085" d="M63.005,842.71a.162.162,0,0,0,0,.3l.945.6a.489.489,0,0,0,.475,0l1.409-.885a.17.17,0,0,0,.012-.307l-.945-.6a.5.5,0,0,0-.488.006Z" transform="translate(7620 -6034)" fill="#5b5e71"/>
    <path id="Trazado_188086" data-name="Trazado 188086" d="M73.572,838.5a.161.161,0,0,0,0,.3l1.288.814a.493.493,0,0,0,.485,0l1.406-.883a.166.166,0,0,0-.005-.3l-1.289-.814a.477.477,0,0,0-.474,0Z" transform="translate(7620 -6034)" fill="#5b5e71"/>
    <path id="Trazado_188087" data-name="Trazado 188087" d="M71.415,839.856c-.134.084-.145.219-.012.3l1.288.814a.512.512,0,0,0,.492,0l1.41-.885a.168.168,0,0,0-.009-.3l-1.289-.814a.487.487,0,0,0-.47,0Z" transform="translate(7620 -6034)" fill="#5b5e71"/>
    <path id="Trazado_188088" data-name="Trazado 188088" d="M69.251,841.215a.162.162,0,0,0,0,.3l1.288.814a.5.5,0,0,0,.485,0l1.41-.885a.165.165,0,0,0-.009-.3l-1.289-.814a.47.47,0,0,0-.47,0Z" transform="translate(7620 -6034)" fill="#5b5e71"/>
    <path id="Trazado_188089" data-name="Trazado 188089" d="M67.1,842.566c-.137.086-.149.221-.016.3l1.289.814a.512.512,0,0,0,.495,0l1.406-.883a.166.166,0,0,0-.005-.3l-1.289-.814a.477.477,0,0,0-.474,0Z" transform="translate(7620 -6034)" fill="#5b5e71"/>
    <path id="Trazado_188090" data-name="Trazado 188090" d="M64.931,843.927a.16.16,0,0,0,0,.3l1.289.815a.491.491,0,0,0,.481.006l1.41-.885a.172.172,0,0,0,0-.312l-1.289-.814a.5.5,0,0,0-.484.009Z" transform="translate(7620 -6034)" fill="#5b5e71"/>
    <path id="Trazado_188091" data-name="Trazado 188091" d="M74.569,840.518a.163.163,0,0,0,0,.3l1.285.812a.48.48,0,0,0,.478,0l2.5-1.573a.162.162,0,0,0,0-.3l-1.285-.812a.483.483,0,0,0-.477,0Z" transform="translate(7620 -6034)" fill="#5b5e71"/>
    <path id="Trazado_188092" data-name="Trazado 188092" d="M72.353,841.909a.166.166,0,0,0,0,.3l1.285.812a.5.5,0,0,0,.478,0l1.41-.885c.133-.084.145-.219.008-.305l-1.285-.812a.5.5,0,0,0-.484,0Z" transform="translate(7620 -6034)" fill="#5b5e71"/>
    <path id="Trazado_188093" data-name="Trazado 188093" d="M70.189,843.267a.165.165,0,0,0,0,.3l1.285.812a.492.492,0,0,0,.478,0l1.406-.883c.137-.086.149-.221.012-.307l-1.285-.812a.5.5,0,0,0-.488.006Z" transform="translate(7620 -6034)" fill="#5b5e71"/>
    <path id="Trazado_188094" data-name="Trazado 188094" d="M68.022,844.628a.164.164,0,0,0,0,.3l1.285.812a.49.49,0,0,0,.474,0l1.41-.885c.133-.084.148-.221.012-.308l-1.285-.812a.5.5,0,0,0-.488.007Z" transform="translate(7620 -6034)" fill="#5b5e71"/>
    <path id="Trazado_188095" data-name="Trazado 188095" d="M76.11,842.2c-.134.084-.145.219-.009.3l1.285.812a.5.5,0,0,0,.485,0l3.066-1.925a.163.163,0,0,0,0-.3l-1.285-.812a.478.478,0,0,0-.477,0Z" transform="translate(7620 -6034)" fill="#5b5e71"/>
    <path id="Trazado_188096" data-name="Trazado 188096" d="M73.935,843.562a.162.162,0,0,0,0,.3l1.285.812a.485.485,0,0,0,.478,0l1.41-.885a.162.162,0,0,0,0-.3l-1.285-.812a.472.472,0,0,0-.474,0Z" transform="translate(7620 -6034)" fill="#5b5e71"/>
    <path id="Trazado_188097" data-name="Trazado 188097" d="M77.143,844.181c-.134.084-.124.219.009.3l1.288.814a.471.471,0,0,0,.471,0l4.123-2.588a.162.162,0,0,0,.005-.3l-1.288-.814a.5.5,0,0,0-.485,0Z" transform="translate(7620 -6034)" fill="#5b5e71"/>
    <path id="Trazado_188098" data-name="Trazado 188098" d="M71.782,844.913a.162.162,0,0,0,0,.3l1.285.812a.485.485,0,0,0,.478,0l1.406-.883c.137-.086.145-.223.012-.307l-1.285-.812a.491.491,0,0,0-.488.006Z" transform="translate(7620 -6034)" fill="#5b5e71"/>
    <path id="Trazado_188099" data-name="Trazado 188099" d="M75.021,845.513a.166.166,0,0,0,0,.3l1.289.814a.477.477,0,0,0,.474,0l1.41-.885a.16.16,0,0,0,0-.3l-1.288-.814a.491.491,0,0,0-.481-.007Z" transform="translate(7620 -6034)" fill="#5b5e71"/>
    <path id="Trazado_188100" data-name="Trazado 188100" d="M81.3,844.212c-.134.084-.121.221.012.305l1.285.812a.477.477,0,0,0,.474,0l2.062-1.294a.163.163,0,0,0,0-.3l-1.285-.812a.5.5,0,0,0-.488-.006Z" transform="translate(7620 -6034)" fill="#5b5e71"/>
    <path id="Trazado_188101" data-name="Trazado 188101" d="M79.24,845.506c-.134.084-.121.221.012.3l1.285.812a.477.477,0,0,0,.474,0l1.41-.885a.168.168,0,0,0,.012-.307l-1.285-.812a.524.524,0,0,0-.5,0Z" transform="translate(7620 -6034)" fill="#5b5e71"/>
    <path id="Trazado_188102" data-name="Trazado 188102" d="M77.044,846.884c-.134.084-.121.221.012.305l1.285.812a.477.477,0,0,0,.474,0l1.41-.885a.168.168,0,0,0,.012-.307L78.952,846a.523.523,0,0,0-.5,0Z" transform="translate(7620 -6034)" fill="#5b5e71"/>
    <path id="Trazado_188103" data-name="Trazado 188103" d="M69.626,846.267a.161.161,0,0,0,0,.3l1.285.812a.477.477,0,0,0,.474,0l1.41-.885a.169.169,0,0,0,.012-.308l-1.285-.812a.5.5,0,0,0-.488.007Z" transform="translate(7620 -6034)" fill="#5b5e71"/>
    <path id="Trazado_188104" data-name="Trazado 188104" d="M72.847,846.878a.166.166,0,0,0,0,.3l1.289.814a.477.477,0,0,0,.474,0l1.406-.883c.137-.086.149-.221.016-.3l-1.289-.814a.512.512,0,0,0-.5,0Z" transform="translate(7620 -6034)" fill="#5b5e71"/>
    <path id="Trazado_188105" data-name="Trazado 188105" d="M60.852,844.061a.166.166,0,0,0-.008.305l.945.6a.512.512,0,0,0,.485-.005l1.409-.885a.163.163,0,0,0,0-.3l-.945-.6a.477.477,0,0,0-.474,0Z" transform="translate(7620 -6034)" fill="#5b5e71"/>
    <path id="Trazado_188106" data-name="Trazado 188106" d="M62.778,845.278c-.134.084-.145.219-.012.3l1.288.814a.512.512,0,0,0,.492,0l1.41-.885a.165.165,0,0,0-.009-.3l-1.289-.814a.47.47,0,0,0-.47,0Z" transform="translate(7620 -6034)" fill="#5b5e71"/>
    <path id="Trazado_188107" data-name="Trazado 188107" d="M65.869,845.98a.166.166,0,0,0-.009.3l1.285.812a.493.493,0,0,0,.485,0l1.4-.879a.166.166,0,0,0,.009-.3l-1.285-.812a.5.5,0,0,0-.485.005Z" transform="translate(7620 -6034)" fill="#5b5e71"/>
    <path id="Trazado_188108" data-name="Trazado 188108" d="M67.473,847.619a.163.163,0,0,0,0,.3l1.286.812a.483.483,0,0,0,.477,0l1.411-.885a.167.167,0,0,0,.007-.3l-1.284-.812a.491.491,0,0,0-.485,0Z" transform="translate(7620 -6034)" fill="#5b5e71"/>
    <path id="Trazado_188109" data-name="Trazado 188109" d="M70.673,848.243a.168.168,0,0,0,.005.3l1.289.814a.487.487,0,0,0,.474,0l1.406-.883c.134-.084.149-.221.016-.3l-1.289-.814a.518.518,0,0,0-.495,0Z" transform="translate(7620 -6034)" fill="#5b5e71"/>
    <path id="Trazado_188110" data-name="Trazado 188110" d="M58.688,845.42a.165.165,0,0,0,0,.3l.945.6a.506.506,0,0,0,.478,0l1.406-.882a.17.17,0,0,0,.012-.308l-.946-.6a.5.5,0,0,0-.488.006Z" transform="translate(7620 -6034)" fill="#5b5e71"/>
    <path id="Trazado_188111" data-name="Trazado 188111" d="M60.614,846.636a.163.163,0,0,0,0,.3l1.288.814a.509.509,0,0,0,.485,0l1.406-.883a.17.17,0,0,0,.005-.311l-1.288-.814a.491.491,0,0,0-.485.008Z" transform="translate(7620 -6034)" fill="#5b5e71"/>
    <path id="Trazado_188112" data-name="Trazado 188112" d="M63.705,847.338a.168.168,0,0,0-.012.307l1.285.812a.5.5,0,0,0,.488-.006l1.41-.885a.164.164,0,0,0,0-.3l-1.285-.812a.5.5,0,0,0-.474,0Z" transform="translate(7620 -6034)" fill="#5b5e71"/>
    <path id="Trazado_188113" data-name="Trazado 188113" d="M65.319,848.97a.162.162,0,0,0,0,.3l1.285.812a.485.485,0,0,0,.478,0l1.41-.885a.167.167,0,0,0,.008-.3l-1.285-.812a.489.489,0,0,0-.484,0Z" transform="translate(7620 -6034)" fill="#5b5e71"/>
    <path id="Trazado_188114" data-name="Trazado 188114" d="M68.5,849.6a.17.17,0,0,0,0,.31l1.289.814a.491.491,0,0,0,.481-.007l1.41-.885a.161.161,0,0,0,.005-.3l-1.289-.814a.5.5,0,0,0-.484-.005Z" transform="translate(7620 -6034)" fill="#5b5e71"/>
    <path id="Trazado_188115" data-name="Trazado 188115" d="M56.532,846.774a.162.162,0,0,0,0,.3l.945.6a.489.489,0,0,0,.475,0l1.409-.885a.165.165,0,0,0,0-.3l-.946-.6a.483.483,0,0,0-.477,0Z" transform="translate(7620 -6034)" fill="#5b5e71"/>
    <path id="Trazado_188116" data-name="Trazado 188116" d="M58.458,847.99a.159.159,0,0,0,0,.3l1.289.815a.491.491,0,0,0,.481.006l1.41-.885a.166.166,0,0,0-.006-.3l-1.288-.814a.475.475,0,0,0-.473,0Z" transform="translate(7620 -6034)" fill="#5b5e71"/>
    <path id="Trazado_188117" data-name="Trazado 188117" d="M61.541,848.7c-.137.086-.145.223-.012.307l1.285.812a.491.491,0,0,0,.488-.006l1.406-.883a.164.164,0,0,0,0-.3l-1.285-.812a.5.5,0,0,0-.478,0Z" transform="translate(7620 -6034)" fill="#5b5e71"/>
    <path id="Trazado_188118" data-name="Trazado 188118" d="M63.163,850.324a.161.161,0,0,0,0,.3l1.285.812a.477.477,0,0,0,.474,0l1.41-.885a.169.169,0,0,0,.012-.308l-1.285-.812a.5.5,0,0,0-.488.007Z" transform="translate(7620 -6034)" fill="#5b5e71"/>
    <path id="Trazado_188119" data-name="Trazado 188119" d="M66.331,850.968a.166.166,0,0,0,0,.3l1.289.814a.477.477,0,0,0,.474,0l1.41-.885a.16.16,0,0,0,0-.3l-1.288-.814a.491.491,0,0,0-.481-.007Z" transform="translate(7620 -6034)" fill="#5b5e71"/>
    <path id="Trazado_188120" data-name="Trazado 188120" d="M74.849,848.263c-.134.084-.121.221.012.3l1.285.812a.477.477,0,0,0,.474,0l1.41-.885a.168.168,0,0,0,.012-.307l-1.285-.812a.524.524,0,0,0-.5,0Z" transform="translate(7620 -6034)" fill="#5b5e71"/>
    <path id="Trazado_188121" data-name="Trazado 188121" d="M54.379,848.125a.169.169,0,0,0-.012.308l.945.6a.52.52,0,0,0,.489-.007l1.409-.885a.166.166,0,0,0,0-.3l-.945-.6a.5.5,0,0,0-.474,0Z" transform="translate(7620 -6034)" fill="#5b5e71"/>
    <path id="Trazado_188122" data-name="Trazado 188122" d="M56.3,849.342c-.134.084-.149.221-.016.3l1.289.814a.518.518,0,0,0,.495,0l1.41-.885a.168.168,0,0,0-.009-.3l-1.289-.814a.488.488,0,0,0-.47,0Z" transform="translate(7620 -6034)" fill="#5b5e71"/>
    <path id="Trazado_188123" data-name="Trazado 188123" d="M59.374,850.056a.166.166,0,0,0-.009.3l1.285.812a.493.493,0,0,0,.485,0l1.41-.885a.165.165,0,0,0,0-.3l-1.285-.812a.5.5,0,0,0-.477,0Z" transform="translate(7620 -6034)" fill="#5b5e71"/>
    <path id="Trazado_188124" data-name="Trazado 188124" d="M61.01,851.676a.161.161,0,0,0,0,.3l1.285.812a.477.477,0,0,0,.474,0l1.41-.885a.167.167,0,0,0,.008-.3l-1.285-.812a.489.489,0,0,0-.484,0Z" transform="translate(7620 -6034)" fill="#5b5e71"/>
    <path id="Trazado_188125" data-name="Trazado 188125" d="M52.215,849.483a.163.163,0,0,0,0,.3l.945.6a.5.5,0,0,0,.478,0l1.406-.882a.164.164,0,0,0,0-.3l-.945-.6a.48.48,0,0,0-.478,0Z" transform="translate(7620 -6034)" fill="#5b5e71"/>
    <path id="Trazado_188126" data-name="Trazado 188126" d="M54.141,850.7a.162.162,0,0,0,0,.3l1.288.814a.5.5,0,0,0,.485,0l1.406-.883a.165.165,0,0,0,0-.3l-1.289-.814a.472.472,0,0,0-.474,0Z" transform="translate(7620 -6034)" fill="#5b5e71"/>
    <path id="Trazado_188127" data-name="Trazado 188127" d="M57.21,851.415a.168.168,0,0,0-.012.307l1.285.812a.5.5,0,0,0,.488-.006l1.41-.885a.161.161,0,0,0,0-.3l-1.285-.812a.477.477,0,0,0-.474,0Z" transform="translate(7620 -6034)" fill="#5b5e71"/>
    <path id="Trazado_188128" data-name="Trazado 188128" d="M58.856,853.027a.163.163,0,0,0,0,.3l1.285.812a.485.485,0,0,0,.478,0l1.41-.885a.167.167,0,0,0,.008-.3l-1.285-.812a.489.489,0,0,0-.484,0Z" transform="translate(7620 -6034)" fill="#5b5e71"/>
    <path id="Trazado_188129" data-name="Trazado 188129" d="M50.058,850.837a.166.166,0,0,0-.008.305l.945.6a.512.512,0,0,0,.485-.005l1.409-.885a.165.165,0,0,0,0-.3l-.946-.6a.483.483,0,0,0-.477,0Z" transform="translate(7620 -6034)" fill="#5b5e71"/>
    <path id="Trazado_188130" data-name="Trazado 188130" d="M51.984,852.054c-.134.084-.145.219-.012.3l1.288.814a.512.512,0,0,0,.492,0l1.41-.885a.166.166,0,0,0-.006-.3l-1.288-.814a.477.477,0,0,0-.474,0Z" transform="translate(7620 -6034)" fill="#5b5e71"/>
    <path id="Trazado_188131" data-name="Trazado 188131" d="M55.047,852.773a.168.168,0,0,0-.012.307l1.285.812a.5.5,0,0,0,.488-.006L58.214,853a.162.162,0,0,0,0-.3l-1.285-.812a.48.48,0,0,0-.478,0Z" transform="translate(7620 -6034)" fill="#5b5e71"/>
    <path id="Trazado_188132" data-name="Trazado 188132" d="M56.7,854.381a.163.163,0,0,0,0,.3l1.285.812a.5.5,0,0,0,.474,0l1.41-.885a.169.169,0,0,0,.012-.308l-1.285-.812a.5.5,0,0,0-.488.007Z" transform="translate(7620 -6034)" fill="#5b5e71"/>
    <path id="Trazado_188133" data-name="Trazado 188133" d="M47.9,852.2a.162.162,0,0,0,0,.3l.945.6a.489.489,0,0,0,.475,0l1.409-.885a.168.168,0,0,0,.009-.3l-.946-.6a.5.5,0,0,0-.484,0Z" transform="translate(7620 -6034)" fill="#5b5e71"/>
    <path id="Trazado_188134" data-name="Trazado 188134" d="M49.82,853.412a.16.16,0,0,0,0,.3l1.289.815a.491.491,0,0,0,.481.006l1.41-.885a.169.169,0,0,0,0-.309l-1.288-.814a.491.491,0,0,0-.481.006Z" transform="translate(7620 -6034)" fill="#5b5e71"/>
    <path id="Trazado_188135" data-name="Trazado 188135" d="M64.157,852.333a.166.166,0,0,0,.005.3l1.289.814a.477.477,0,0,0,.474,0l1.41-.885c.133-.084.145-.219.012-.3l-1.289-.814a.51.51,0,0,0-.491,0Z" transform="translate(7620 -6034)" fill="#5b5e71"/>
    <path id="Trazado_188136" data-name="Trazado 188136" d="M61.993,853.691a.171.171,0,0,0-.005.312l1.288.814a.494.494,0,0,0,.485-.009l1.406-.883a.163.163,0,0,0,0-.3l-1.288-.814a.512.512,0,0,0-.485-.005Z" transform="translate(7620 -6034)" fill="#5b5e71"/>
    <path id="Trazado_188137" data-name="Trazado 188137" d="M59.815,855.058a.17.17,0,0,0,0,.31l1.289.814a.491.491,0,0,0,.481-.007l1.41-.885a.161.161,0,0,0,.005-.3l-1.289-.814a.5.5,0,0,0-.484-.005Z" transform="translate(7620 -6034)" fill="#5b5e71"/>
    <path id="Trazado_188138" data-name="Trazado 188138" d="M64.09,855.016a.172.172,0,0,0,0,.314l1.285.812a.5.5,0,0,0,.488-.007l9.973-6.26a.166.166,0,0,0,.009-.3l-1.285-.812a.518.518,0,0,0-.495,0Z" transform="translate(7620 -6034)" fill="#5b5e71"/>
    <path id="Trazado_188139" data-name="Trazado 188139" d="M61.913,856.383a.172.172,0,0,0,0,.312l1.285.812a.5.5,0,0,0,.484-.005l1.41-.885a.162.162,0,0,0,0-.3l-1.285-.812a.5.5,0,0,0-.488-.007Z" transform="translate(7620 -6034)" fill="#5b5e71"/>
    <path id="Trazado_188140" data-name="Trazado 188140" d="M52.88,854.133a.166.166,0,0,0-.01.3l1.285.812a.493.493,0,0,0,.485,0l1.41-.885a.162.162,0,0,0,0-.3l-1.285-.812a.481.481,0,0,0-.476,0Z" transform="translate(7620 -6034)" fill="#5b5e71"/>
    <path id="Trazado_188141" data-name="Trazado 188141" d="M54.547,855.733a.163.163,0,0,0,0,.3l1.285.812a.5.5,0,0,0,.474,0l1.41-.885a.167.167,0,0,0,.008-.3l-1.285-.812a.489.489,0,0,0-.484,0Z" transform="translate(7620 -6034)" fill="#5b5e71"/>
    <path id="Trazado_188142" data-name="Trazado 188142" d="M57.641,856.423c-.134.084-.124.219.009.3l1.288.814a.471.471,0,0,0,.471,0l1.41-.885a.161.161,0,0,0,.005-.3l-1.289-.814a.5.5,0,0,0-.484-.005Z" transform="translate(7620 -6034)" fill="#5b5e71"/>
    <path id="Trazado_188143" data-name="Trazado 188143" d="M59.689,857.779a.172.172,0,0,0,0,.314l1.285.812a.5.5,0,0,0,.488-.007l1.406-.882a.163.163,0,0,0,0-.3l-1.285-.812a.5.5,0,0,0-.488-.007Z" transform="translate(7620 -6034)" fill="#5b5e71"/>
    <path id="Trazado_188144" data-name="Trazado 188144" d="M45.742,853.547a.169.169,0,0,0-.012.308l.945.6a.52.52,0,0,0,.489-.007l1.409-.885a.163.163,0,0,0,0-.3l-.945-.6a.477.477,0,0,0-.474,0Z" transform="translate(7620 -6034)" fill="#5b5e71"/>
    <path id="Trazado_188145" data-name="Trazado 188145" d="M47.667,854.764c-.134.084-.149.221-.016.3l1.289.814a.518.518,0,0,0,.5,0l1.41-.885a.165.165,0,0,0-.009-.3l-1.289-.814a.47.47,0,0,0-.47,0Z" transform="translate(7620 -6034)" fill="#5b5e71"/>
    <path id="Trazado_188146" data-name="Trazado 188146" d="M50.716,855.492a.166.166,0,0,0-.009.3l1.285.812a.493.493,0,0,0,.485,0l1.41-.885a.162.162,0,0,0,0-.3l-1.285-.812a.483.483,0,0,0-.477,0Z" transform="translate(7620 -6034)" fill="#5b5e71"/>
    <path id="Trazado_188147" data-name="Trazado 188147" d="M52.394,857.084a.165.165,0,0,0,0,.3l1.285.812a.5.5,0,0,0,.478,0l1.406-.883c.137-.086.145-.223.012-.307l-1.285-.812a.491.491,0,0,0-.488.006Z" transform="translate(7620 -6034)" fill="#5b5e71"/>
    <path id="Trazado_188148" data-name="Trazado 188148" d="M55.467,857.788a.166.166,0,0,0,.005.3l1.289.814a.477.477,0,0,0,.474,0l1.41-.885c.133-.084.145-.219.012-.3l-1.289-.814a.51.51,0,0,0-.491,0Z" transform="translate(7620 -6034)" fill="#5b5e71"/>
    <path id="Trazado_188149" data-name="Trazado 188149" d="M57.462,859.177a.172.172,0,0,0,0,.314l1.285.812a.5.5,0,0,0,.488-.007l1.406-.882a.162.162,0,0,0,0-.3l-1.285-.812a.5.5,0,0,0-.488-.007Z" transform="translate(7620 -6034)" fill="#5b5e71"/>
    <path id="Trazado_188150" data-name="Trazado 188150" d="M43.578,854.905a.165.165,0,0,0,0,.3l.945.6a.506.506,0,0,0,.478,0l1.406-.882a.17.17,0,0,0,.012-.308l-.946-.6a.5.5,0,0,0-.488.006Z" transform="translate(7620 -6034)" fill="#5b5e71"/>
    <path id="Trazado_188151" data-name="Trazado 188151" d="M40.79,856.655a.163.163,0,0,0,0,.3l.945.6a.5.5,0,0,0,.478,0l2.04-1.281a.165.165,0,0,0,0-.3l-.945-.6a.485.485,0,0,0-.478,0Z" transform="translate(7620 -6034)" fill="#5b5e71"/>
    <path id="Trazado_188152" data-name="Trazado 188152" d="M42.716,857.872a.162.162,0,0,0-.005.3l1.288.814a.5.5,0,0,0,.485,0l4.007-2.515a.166.166,0,0,0-.006-.3l-1.288-.814a.47.47,0,0,0-.474,0Z" transform="translate(7620 -6034)" fill="#5b5e71"/>
    <path id="Trazado_188153" data-name="Trazado 188153" d="M48.552,856.85a.168.168,0,0,0-.012.307l1.285.812a.5.5,0,0,0,.488-.006l1.41-.885a.161.161,0,0,0,0-.3l-1.285-.812a.477.477,0,0,0-.474,0Z" transform="translate(7620 -6034)" fill="#5b5e71"/>
    <path id="Trazado_188154" data-name="Trazado 188154" d="M44.813,859.2a.163.163,0,0,0,0,.3l1.285.812a.48.48,0,0,0,.478,0l3.066-1.925a.162.162,0,0,0,0-.3l-1.285-.812a.483.483,0,0,0-.477,0Z" transform="translate(7620 -6034)" fill="#5b5e71"/>
    <path id="Trazado_188155" data-name="Trazado 188155" d="M46.914,860.524a.163.163,0,0,0,0,.3l1.285.812a.485.485,0,0,0,.478,0l4.743-2.978a.166.166,0,0,0,0-.3l-1.285-.812a.5.5,0,0,0-.478,0Z" transform="translate(7620 -6034)" fill="#5b5e71"/>
    <path id="Trazado_188156" data-name="Trazado 188156" d="M49,861.845a.166.166,0,0,0,0,.305l1.289.814a.477.477,0,0,0,.474,0l5.656-3.55c.134-.084.145-.219.012-.3l-1.288-.815a.509.509,0,0,0-.492,0Z" transform="translate(7620 -6034)" fill="#5b5e71"/>
    <path id="Trazado_188157" data-name="Trazado 188157" d="M56.356,861.1a.163.163,0,0,0,0,.3l.255.161a.5.5,0,0,0,.488.007l1.41-.885c.134-.084.124-.219-.013-.3l-.255-.162a.477.477,0,0,0-.474,0Z" transform="translate(7620 -6034)" fill="#5b5e71"/>
    <path id="Trazado_188158" data-name="Trazado 188158" d="M53.212,861.779a.166.166,0,0,0-.008.3l.265.168a.491.491,0,0,0,.485,0l1.41-.885a.162.162,0,0,0,0-.3l-.266-.168a.483.483,0,0,0-.477,0Z" transform="translate(7620 -6034)" fill="#5b5e71"/>
    <path id="Trazado_188159" data-name="Trazado 188159" d="M54.242,862.429a.166.166,0,0,0-.009.3l.255.162a.512.512,0,0,0,.5,0l1.41-.885c.135-.084.128-.221-.009-.307l-.256-.162a.481.481,0,0,0-.476,0Z" transform="translate(7620 -6034)" fill="#5b5e71"/>
    <path id="Trazado_188160" data-name="Trazado 188160" d="M52.12,863.761a.163.163,0,0,0,0,.3l.255.161a.5.5,0,0,0,.488.007l1.406-.883a.171.171,0,0,0,0-.314l-.256-.161a.5.5,0,0,0-.488.006Z" transform="translate(7620 -6034)" fill="#5b5e71"/>
    <path id="Trazado_188161" data-name="Trazado 188161" d="M51.773,825.156a1.5,1.5,0,0,0-.619,1.156l0,1.495,19.563-12.28,0-1.495c0-.421-.279-.593-.623-.377Z" transform="translate(7620 -6034)" fill="#30596d"/>
    <path id="Trazado_188162" data-name="Trazado 188162" d="M61.722,834.333l0,.738,7.882-4.948,0-.738Z" transform="translate(7620 -6034)" fill="#bac1ce"/>
    <path id="Trazado_188163" data-name="Trazado 188163" d="M51.153,827.812l.047,16.8,19.56-12.276-.035-16.81Z" transform="translate(7620 -6034)" fill="#e4e8f4"/>
    <path id="Trazado_188164" data-name="Trazado 188164" d="M52.56,828.274a.594.594,0,0,0-.246.463l.013,4.831c0,.167.1.242.247.153l3.866-2.427a.6.6,0,0,0,.246-.463L56.674,826c0-.168-.113-.237-.248-.153Z" transform="translate(7620 -6034)" fill="#8f52f5"/>
    <path id="Trazado_188165" data-name="Trazado 188165" d="M57.776,834.938l0,.738L69.6,828.254l0-.738Z" transform="translate(7620 -6034)" fill="#bac1ce"/>
    <path id="Trazado_188166" data-name="Trazado 188166" d="M57.771,833.069l0,.739L69.6,826.386l0-.739Z" transform="translate(7620 -6034)" fill="#bac1ce"/>
    <path id="Trazado_188167" data-name="Trazado 188167" d="M57.756,827.37l0,.738,11.823-7.422,0-.738Z" transform="translate(7620 -6034)" fill="#bac1ce"/>
    <path id="Trazado_188168" data-name="Trazado 188168" d="M57.751,825.5l0,.739,11.823-7.422,0-.739Z" transform="translate(7620 -6034)" fill="#bac1ce"/>
    <path id="Trazado_188169" data-name="Trazado 188169" d="M57.761,829.239l0,.738,11.823-7.422,0-.738Z" transform="translate(7620 -6034)" fill="#bac1ce"/>
    <path id="Trazado_188170" data-name="Trazado 188170" d="M52.58,835.842a.6.6,0,0,0-.246.463l.013,4.831c0,.167.1.242.247.153l3.866-2.427a.6.6,0,0,0,.246-.463l-.012-4.831c0-.168-.113-.237-.248-.153Z" transform="translate(7620 -6034)" fill="#8f52f5"/>
    <path id="Trazado_188171" data-name="Trazado 188171" d="M69.059,814.945a1.012,1.012,0,0,0-.412.776c0,.284.188.4.415.257a1.013,1.013,0,0,0,.412-.776c0-.284-.188-.4-.415-.257" transform="translate(7620 -6034)" fill="#75ca75"/>
    <path id="Trazado_188172" data-name="Trazado 188172" d="M67.892,815.678a1.012,1.012,0,0,0-.412.776c0,.284.188.4.415.257a1.007,1.007,0,0,0,.412-.776c0-.284-.185-.4-.415-.257" transform="translate(7620 -6034)" fill="#f9bb4a"/>
    <path id="Trazado_188173" data-name="Trazado 188173" d="M66.727,816.409a1,1,0,0,0-.412.776c0,.284.185.4.415.257a1.01,1.01,0,0,0,.412-.776c0-.284-.188-.4-.415-.257" transform="translate(7620 -6034)" fill="#ed435c"/>
    <path id="Trazado_188174" data-name="Trazado 188174" d="M40.645,831.931l.015,6.139v.441c0,.147.1.212.218.139l8.117-5.1a.514.514,0,0,0,.21-.4l-.008-2.482-.007-4.107c0-.163-.083-.212-.218-.13l-8.117,5.094a.5.5,0,0,0-.21.4" transform="translate(7620 -6034)" fill="#e4e8f4"/>
    <path id="Trazado_188175" data-name="Trazado 188175" d="M39.226,831.49l.015,6.58a.448.448,0,0,0,.173.4l1.058.669a.445.445,0,0,1-.172-.4l-.015-6.581a1.394,1.394,0,0,1,.57-1.077l8.117-5.1a.4.4,0,0,1,.421-.041l-1.059-.661a.37.37,0,0,0-.42.041L39.8,830.412a1.394,1.394,0,0,0-.571,1.078" transform="translate(7620 -6034)" fill="#ebc5b2"/>
    <path id="Trazado_188176" data-name="Trazado 188176" d="M40.858,831.078a1.407,1.407,0,0,0-.574,1.08l.017,6.583c0,.395.261.556.578.357l8.116-5.1a1.435,1.435,0,0,0,.583-1.086l-.017-6.582c0-.4-.275-.547-.587-.352Zm-.2,7.437-.017-6.582a.511.511,0,0,1,.215-.4l8.116-5.1c.13-.082.211-.025.212.137l.017,6.582a.5.5,0,0,1-.21.4l-8.117,5.095c-.115.073-.216.01-.216-.134" transform="translate(7620 -6034)" fill="#ddaf9b"/>
    <path id="Trazado_188177" data-name="Trazado 188177" d="M40.652,838.07v.441c0,.147.1.212.217.139l8.117-5.1a.516.516,0,0,0,.21-.4l-.008-2.482c-.172-.122-.36-.229-.5-.335-.369-.285-.744-.571-1.119-.849-.361-.253-.8-.522-1.186-.326a1.382,1.382,0,0,0-.548.816c-.264.7-.519,1.4-.774,2.107-.15.4-.383.865-.774.865-.187,0-.368-.114-.548-.065s-.293.228-.39.4c-.9,1.6-1.8,3.192-2.695,4.784" transform="translate(7620 -6034)" fill="#37617b"/>
    <path id="Trazado_188178" data-name="Trazado 188178" d="M44.085,830.072a1.657,1.657,0,0,0-.68,1.281c0,.473.306.671.684.433a1.689,1.689,0,0,0,.688-1.294c0-.473-.314-.657-.692-.42" transform="translate(7620 -6034)" fill="#efac41"/>
    <path id="Trazado_188179" data-name="Trazado 188179" d="M78.312,817.245l-.824-.521,1.566,2.175.824.52Z" transform="translate(7620 -6034)" fill="#8f52f5"/>
    <path id="Trazado_188180" data-name="Trazado 188180" d="M74.961,812.187l.016,5.118a.636.636,0,0,0,.241.568l.876.523a.675.675,0,0,1-.291-.566l-.016-5.126a2,2,0,0,1,.818-1.534l6.493-4.076a.542.542,0,0,1,.576-.059l-.818-.526a.545.545,0,0,0-.585.068l-6.492,4.076a1.983,1.983,0,0,0-.818,1.534" transform="translate(7620 -6034)" fill="#a7f"/>
    <path id="Trazado_188181" data-name="Trazado 188181" d="M76.606,811.142a1.988,1.988,0,0,0-.818,1.535L75.8,817.8c0,.565.371.788.824.5l1.687-1.059,1.565,2.174,1.549-4.129,1.687-1.059a1.984,1.984,0,0,0,.814-1.532l-.014-5.123c0-.566-.366-.792-.818-.507Z" transform="translate(7620 -6034)" fill="#d2b7ff"/>
    <path id="Trazado_188182" data-name="Trazado 188182" d="M82.04,810.494a1.979,1.979,0,0,0-.809,1.523c0,.565.362.788.814.5a1.954,1.954,0,0,0,.8-1.518c0-.555-.361-.788-.806-.509" transform="translate(7620 -6034)" fill="#fff"/>
    <path id="Trazado_188183" data-name="Trazado 188183" d="M79.638,812a1.992,1.992,0,0,0-.809,1.523c0,.565.37.784.814.5a1.959,1.959,0,0,0,.809-1.523c0-.555-.362-.788-.814-.5" transform="translate(7620 -6034)" fill="#fff"/>
    <path id="Trazado_188184" data-name="Trazado 188184" d="M77.243,813.505a1.992,1.992,0,0,0-.809,1.523c0,.565.37.784.814.5a1.974,1.974,0,0,0,.809-1.523c0-.555-.369-.783-.814-.5" transform="translate(7620 -6034)" fill="#fff"/>
    <path id="Trazado_188185" data-name="Trazado 188185" d="M81.459,834.489c-1.785,1.121-1.795,2.938-.021,4.059a6.6,6.6,0,0,0,6.444,0c1.786-1.121,1.795-2.938.021-4.059a6.594,6.594,0,0,0-6.444,0" transform="translate(7620 -6034)" fill="#363a44"/>
    <path id="Trazado_188186" data-name="Trazado 188186" d="M80.693,833.317l.008,2.963a2.194,2.194,0,0,0,1.177,1.792,5.866,5.866,0,0,0,5.729,0,2.212,2.212,0,0,0,1.2-1.817l-.007-2.963a2.214,2.214,0,0,1-1.2,1.817,5.868,5.868,0,0,1-5.73,0,2.2,2.2,0,0,1-1.177-1.792" transform="translate(7620 -6034)" fill="#ed435c"/>
    <path id="Trazado_188187" data-name="Trazado 188187" d="M81.889,831.5c-1.587,1-1.6,2.612-.019,3.608a5.862,5.862,0,0,0,5.73,0c1.587-1,1.6-2.611.018-3.608a5.863,5.863,0,0,0-5.729,0" transform="translate(7620 -6034)" fill="#f25574"/>
    <path id="Trazado_188188" data-name="Trazado 188188" d="M83.575,831.864a.085.085,0,0,0-.044.057l-.4,2.4c-.009.059.069.109.164.1l3.806-.243a.2.2,0,0,0,.092-.027.073.073,0,0,0,0-.135l-3.408-2.153a.217.217,0,0,0-.214,0" transform="translate(7620 -6034)" fill="#fff"/>
    <path id="Trazado_188189" data-name="Trazado 188189" d="M31.553,847.627l.026,8.865a.328.328,0,0,0,.116.281l.909.575a.331.331,0,0,1-.116-.281l-.025-8.865Z" transform="translate(7620 -6034)" fill="#a7f"/>
    <path id="Trazado_188190" data-name="Trazado 188190" d="M43.209,841.46l-.909-.575-10.745,6.746.909.574Z" transform="translate(7620 -6034)" fill="#e4e8f4"/>
    <path id="Trazado_188191" data-name="Trazado 188191" d="M32.464,848.205l.022,8.861c0,.277.18.388.4.248l9.941-6.241a.977.977,0,0,0,.4-.753l-.023-8.86Z" transform="translate(7620 -6034)" fill="#d2b7ff"/>
    <path id="Trazado_188192" data-name="Trazado 188192" d="M31.553,846.273v1.354l.91.575v-1.354a2.149,2.149,0,0,1,.89-1.683l8.953-5.625a.608.608,0,0,1,.639-.07l-.91-.568a.587.587,0,0,0-.638.063l-8.954,5.625a2.153,2.153,0,0,0-.89,1.683" transform="translate(7620 -6034)" fill="#474b59"/>
    <path id="Trazado_188193" data-name="Trazado 188193" d="M33.351,845.164a2.179,2.179,0,0,0-.891,1.683l0,1.358,10.745-6.745,0-1.359c0-.622-.4-.87-.9-.558Z" transform="translate(7620 -6034)" fill="#5b5e71"/>
  </g>
</svg>
