<svg xmlns="http://www.w3.org/2000/svg" xmlns:xlink="http://www.w3.org/1999/xlink" width="295" height="232" viewBox="0 0 295 232">
  <defs>
    <clipPath id="clip-path">
      <rect id="Rectángulo_38012" data-name="Rectángulo 38012" width="295" height="187.684" fill="none"/>
    </clipPath>
    <clipPath id="clip-path-3">
      <rect id="Rectángulo_37993" data-name="Rectángulo 37993" width="47.057" height="31.823" fill="none"/>
    </clipPath>
    <clipPath id="clip-path-4">
      <rect id="Rectángulo_37997" data-name="Rectángulo 37997" width="280.726" height="186.058" fill="none"/>
    </clipPath>
    <clipPath id="clip-path-5">
      <rect id="Rectángulo_37998" data-name="Rectángulo 37998" width="10.696" height="3.447" fill="none"/>
    </clipPath>
    <clipPath id="clip-path-6">
      <rect id="Rectángulo_37999" data-name="Rectángulo 37999" width="1.139" height="1.132" fill="none"/>
    </clipPath>
    <clipPath id="clip-path-7">
      <rect id="Rectángulo_38000" data-name="Rectángulo 38000" width="1.081" height="1.073" fill="none"/>
    </clipPath>
    <clipPath id="clip-path-8">
      <rect id="Rectángulo_38001" data-name="Rectángulo 38001" width="13.412" height="4.304" fill="none"/>
    </clipPath>
    <clipPath id="clip-path-9">
      <rect id="Rectángulo_38002" data-name="Rectángulo 38002" width="6.898" height="3.073" fill="none"/>
    </clipPath>
    <clipPath id="clip-path-10">
      <rect id="Rectángulo_38003" data-name="Rectángulo 38003" width="21.371" height="12.002" fill="none"/>
    </clipPath>
    <clipPath id="clip-path-11">
      <rect id="Rectángulo_38004" data-name="Rectángulo 38004" width="4.039" height="2.538" fill="none"/>
    </clipPath>
    <clipPath id="clip-path-12">
      <rect id="Rectángulo_38005" data-name="Rectángulo 38005" width="4.162" height="1.466" fill="none"/>
    </clipPath>
    <clipPath id="clip-path-13">
      <rect id="Rectángulo_38007" data-name="Rectángulo 38007" width="18.993" height="24.953" fill="none"/>
    </clipPath>
    <clipPath id="clip-path-14">
      <rect id="Rectángulo_38008" data-name="Rectángulo 38008" width="11.433" height="15.172" fill="none"/>
    </clipPath>
    <clipPath id="clip-path-15">
      <rect id="Rectángulo_38009" data-name="Rectángulo 38009" width="2.576" height="4.474" fill="none"/>
    </clipPath>
  </defs>
  <g id="Grupo_143604" data-name="Grupo 143604" transform="translate(-1654 9948)">
    <g id="Grupo_112882" data-name="Grupo 112882" transform="translate(27 -7)">
      <g id="Grupo_112549" data-name="Grupo 112549" transform="translate(1627 -9918.842)">
        <g id="Grupo_112548" data-name="Grupo 112548" clip-path="url(#clip-path)">
          <g id="Grupo_112547" data-name="Grupo 112547">
            <g id="Grupo_112546" data-name="Grupo 112546" clip-path="url(#clip-path)">
              <g id="Grupo_112509" data-name="Grupo 112509" transform="translate(192.379 7.489)" opacity="0.67">
                <g id="Grupo_112508" data-name="Grupo 112508">
                  <g id="Grupo_112507" data-name="Grupo 112507" clip-path="url(#clip-path-3)">
                    <path id="Trazado_179899" data-name="Trazado 179899" d="M509.015,17.862V49.536H463.8l-1.629-31.452Z" transform="translate(-461.958 -17.862)" fill="#e0e0e0"/>
                    <rect id="Rectángulo_37990" data-name="Rectángulo 37990" width="45.213" height="31.385" transform="translate(0.214 0.222)" fill="#fff"/>
                    <path id="Trazado_179900" data-name="Trazado 179900" d="M507.3,49.693H461.658V17.876H507.3Zm-45.213-.432h44.785V18.307H462.087Z" transform="translate(-461.658 -17.87)" fill="#e0e0e0"/>
                    <rect id="Rectángulo_37991" data-name="Rectángulo 37991" width="35.419" height="23.586" transform="translate(5.111 4.121)" fill="#fff"/>
                    <path id="Trazado_179901" data-name="Trazado 179901" d="M509.187,27.548s-.061,0-.175.006l-.5.006-1.945.013-7.3.028-25.5.051.1-.1c0,7.207.006,15.191.009,23.583v0l-.112-.112,35.419.023-.089.09c.02-7.178.036-13.063.047-17.161.01-2.049.017-3.649.022-4.746q.006-.813.01-1.247c0-.283.01-.433.01-.433s.006.138.01.414.006.7.01,1.231c.005,1.092.013,2.685.023,4.725.011,4.111.028,10.016.047,17.217v.09h-.089l-35.419.023h-.112v-.115c0-8.392.006-16.377.009-23.583v-.1h.1l25.564.051,7.276.028,1.925.013.492.006c.11,0,.163.006.163.006" transform="translate(-468.656 -23.427)" fill="#e0e0e0"/>
                    <path id="Trazado_179902" data-name="Trazado 179902" d="M462.172,18.177a3.823,3.823,0,0,1,.777.506c.463.336,1.093.813,1.773,1.36s1.279,1.066,1.7,1.454a3.69,3.69,0,0,1,.648.667c-.042.048-1.129-.854-2.486-1.945a24.742,24.742,0,0,1-2.41-2.042" transform="translate(-461.957 -18.044)" fill="#e0e0e0"/>
                    <path id="Trazado_179903" data-name="Trazado 179903" d="M563.817,18.388a22.007,22.007,0,0,1-2.379,2.038,21.932,21.932,0,0,1-2.518,1.862A21.944,21.944,0,0,1,561.3,20.25a21.94,21.94,0,0,1,2.518-1.862" transform="translate(-518.389 -18.166)" fill="#e0e0e0"/>
                    <path id="Trazado_179904" data-name="Trazado 179904" d="M563.531,87.563l-5.041-4.111" transform="translate(-518.139 -55.952)" fill="#fff"/>
                    <path id="Trazado_179905" data-name="Trazado 179905" d="M558.488,83.449a23.679,23.679,0,0,1,2.591,1.968,23.722,23.722,0,0,1,2.45,2.143,23.7,23.7,0,0,1-2.591-1.968,23.686,23.686,0,0,1-2.45-2.142" transform="translate(-518.137 -55.949)" fill="#e0e0e0"/>
                    <path id="Trazado_179906" data-name="Trazado 179906" d="M462.172,87.9a42.786,42.786,0,0,1,4.847-3.857,21.512,21.512,0,0,1-2.354,2.017,21.468,21.468,0,0,1-2.493,1.84" transform="translate(-461.957 -56.294)" fill="#e0e0e0"/>
                    <rect id="Rectángulo_37992" data-name="Rectángulo 37992" width="22.287" height="7.897" transform="translate(12.303 11.47)" fill="#e0e0e0"/>
                  </g>
                </g>
              </g>
              <g id="Grupo_112512" data-name="Grupo 112512" transform="translate(14.274)" opacity="0.65">
                <g id="Grupo_112511" data-name="Grupo 112511">
                  <g id="Grupo_112510" data-name="Grupo 112510" clip-path="url(#clip-path-4)">
                    <rect id="Rectángulo_37994" data-name="Rectángulo 37994" width="25.935" height="27.201" transform="translate(250.228 49.028)" fill="#b5dee0"/>
                    <rect id="Rectángulo_37995" data-name="Rectángulo 37995" width="25.935" height="27.201" transform="translate(248.472 49.028)" fill="#bee9eb"/>
                    <rect id="Rectángulo_37996" data-name="Rectángulo 37996" width="18.962" height="19.888" transform="translate(251.958 52.684)" fill="#caf7fa"/>
                    <path id="Trazado_179907" data-name="Trazado 179907" d="M634.041,173.4a3.678,3.678,0,0,1-.474.54c-.3.32-.731.754-1.208,1.227s-.915.9-1.236,1.2a3.6,3.6,0,0,1-.542.466,3.511,3.511,0,0,1,.472-.539c.3-.319.732-.755,1.21-1.229s.917-.9,1.239-1.2a3.5,3.5,0,0,1,.54-.464" transform="translate(-382.083 -100.699)" fill="#b5dee0"/>
                    <path id="Trazado_179908" data-name="Trazado 179908" d="M684.388,173.288a3.665,3.665,0,0,1,.537.477c.318.306.749.735,1.219,1.215s.89.92,1.189,1.244a3.571,3.571,0,0,1,.463.545,3.5,3.5,0,0,1-.535-.475c-.318-.306-.75-.736-1.221-1.218s-.892-.922-1.191-1.246a3.526,3.526,0,0,1-.461-.543" transform="translate(-413.468 -100.632)" fill="#b5dee0"/>
                    <path id="Trazado_179909" data-name="Trazado 179909" d="M684.264,121.031a3.673,3.673,0,0,1,.474-.54c.3-.32.731-.754,1.208-1.227s.915-.9,1.236-1.2a3.6,3.6,0,0,1,.542-.466,3.512,3.512,0,0,1-.471.539c-.3.319-.732.755-1.211,1.229s-.917.9-1.238,1.2a3.5,3.5,0,0,1-.54.464" transform="translate(-413.396 -68.294)" fill="#b5dee0"/>
                    <path id="Trazado_179910" data-name="Trazado 179910" d="M633.988,121.075a3.661,3.661,0,0,1-.537-.477c-.318-.306-.75-.735-1.219-1.215s-.89-.92-1.189-1.244a3.579,3.579,0,0,1-.463-.545,3.527,3.527,0,0,1,.535.475c.318.306.75.736,1.221,1.218s.891.922,1.19,1.246a3.511,3.511,0,0,1,.461.543" transform="translate(-382.082 -68.289)" fill="#b5dee0"/>
                    <path id="Trazado_179911" data-name="Trazado 179911" d="M657.7,145.445s0-.034,0-.1,0-.158,0-.277c0-.248,0-.606-.007-1.073,0-.94-.009-2.31-.016-4.052-.008-3.482-.019-8.446-.032-14.39l.062.062-18.908.009h0l.071-.071c0,7.3-.007,14.129-.01,19.888l-.061-.062,13.7.031,3.845.016,1.016.007.263,0c.059,0,.091,0,.091,0s-.027,0-.084,0l-.256,0-1,.007-3.831.016-13.735.031h-.061v-.062c0-5.759-.006-12.588-.01-19.888v-.072h.073l18.908.009h.062v.062c-.013,5.96-.024,10.938-.032,14.43-.007,1.735-.013,3.1-.016,4.038,0,.461-.005.816-.007,1.06,0,.117,0,.205,0,.27s0,.089,0,.089" transform="translate(-386.827 -72.872)" fill="#b5dee0"/>
                    <path id="Trazado_179912" data-name="Trazado 179912" d="M650.884,145.472a4.506,4.506,0,0,0,4.894,4.924,5.1,5.1,0,0,0-4.894-4.924" transform="translate(-393.922 -84.479)" fill="#bee9eb"/>
                    <path id="Trazado_179913" data-name="Trazado 179913" d="M667.318,145.471a4.5,4.5,0,0,0-4.894,4.924,5.094,5.094,0,0,0,4.894-4.924" transform="translate(-400.657 -84.474)" fill="#bee9eb"/>
                    <path id="Trazado_179914" data-name="Trazado 179914" d="M659.676,139.053a4.958,4.958,0,0,0,.219,7.616,5.616,5.616,0,0,0-.219-7.616" transform="translate(-398.055 -80.751)" fill="#b5dee0"/>
                    <path id="Trazado_179915" data-name="Trazado 179915" d="M75.338,17.08,61.145,11.917,47.09,17.01c-1.794.859-3.368,1.373-3.368,3.066v8.43a32.169,32.169,0,0,0,4.63,16.777A28.949,28.949,0,0,0,61.283,56.851c5.745-1.891,10.034-6.929,12.656-11.24a32.168,32.168,0,0,0,4.63-16.777V21.254a3.967,3.967,0,0,0-3.23-4.174" transform="translate(-39.776 -6.92)" fill="#c6f3f5"/>
                    <path id="Trazado_179916" data-name="Trazado 179916" d="M61.284,51.958a23.023,23.023,0,0,1-10.231-9.227,25.449,25.449,0,0,1-3.663-13.274V23.543A3.727,3.727,0,0,1,49.771,20.2l11.377-4.309,0-3.976L47.09,17.009c-1.475.653-3.368,1.373-3.368,3.066V28.5a32.172,32.172,0,0,0,4.63,16.777A28.948,28.948,0,0,0,61.284,56.85Z" transform="translate(-39.776 -6.92)" fill="#bee9eb"/>
                    <path id="Trazado_179917" data-name="Trazado 179917" d="M85.672,56.851A16.976,16.976,0,0,0,88.46,55.64a25.065,25.065,0,0,0,5.9-4.7,32.182,32.182,0,0,0,4.1-5.586,30.974,30.974,0,0,0,4.492-16.939l.009-6.96c-.009-3.466-1.764-3.721-3.239-4.374L85.534,11.917l0,3.975,11.51,4.378a3.728,3.728,0,0,1,2.382,3.343v5.913A25.45,25.45,0,0,1,95.765,42.8a22.51,22.51,0,0,1-10.093,9.158Z" transform="translate(-64.165 -6.92)" fill="#b5dee0"/>
                    <path id="Trazado_179918" data-name="Trazado 179918" d="M81.792,46.1l.016-1.138a3.685,3.685,0,1,0-7.37-.005l-.016,1.159a2.079,2.079,0,0,0-1.759,2.064v6.711a2.076,2.076,0,0,0,2.062,2.089H81.6a2.076,2.076,0,0,0,2.062-2.089V48.181A2.078,2.078,0,0,0,81.792,46.1M79.1,53.222h-1.8l.281-1.316a1.1,1.1,0,1,1,1.189-.021c.127.51.329,1.337.329,1.337M81,46.093H75.216l.015-1.128a2.891,2.891,0,1,1,5.782-.005Z" transform="translate(-56.657 -23.944)" fill="#b5dee0"/>
                    <path id="Trazado_179919" data-name="Trazado 179919" d="M57.571,42.141a4.6,4.6,0,0,1-.213-1.168,20.289,20.289,0,0,1-.115-2.862c.015-.56.052-1.093.1-1.575a3.4,3.4,0,0,1,.318-1.272,1.45,1.45,0,0,1,.621-.633c.193-.091.313-.086.315-.073a1.611,1.611,0,0,0-.779.785,3.54,3.54,0,0,0-.246,1.213c-.037.479-.067,1.007-.082,1.561-.032,1.109,0,2.113.042,2.84a7.183,7.183,0,0,1,.038,1.183" transform="translate(-47.657 -20.065)" fill="#fff"/>
                    <path id="Trazado_179920" data-name="Trazado 179920" d="M58.347,59.255c-.069,0-.131-.345-.139-.774s.04-.777.109-.779.131.345.139.774-.041.777-.109.779" transform="translate(-48.225 -33.51)" fill="#fff"/>
                    <path id="Trazado_179921" data-name="Trazado 179921" d="M603.436,345.007a14.186,14.186,0,0,0-6.093-2.11,4.04,4.04,0,0,0-2.882.533.6.6,0,0,0-.3.53.646.646,0,0,0,.282.362,8.667,8.667,0,0,0,8.991.685" transform="translate(-360.838 -199.102)" fill="#b5dee0"/>
                    <path id="Trazado_179922" data-name="Trazado 179922" d="M606.982,334.266a29.763,29.763,0,0,1-3.935-3.484,10.033,10.033,0,0,1-2.467-4.591,1.86,1.86,0,0,1,.2-1.536c3.137,2.465,5.6,5.654,6.208,9.611" transform="translate(-364.541 -188.535)" fill="#b5dee0"/>
                    <path id="Trazado_179923" data-name="Trazado 179923" d="M616.064,334.794a14.405,14.405,0,0,1,.073-5.2,7.033,7.033,0,0,1,2.752-4.29,6.173,6.173,0,0,1-.073,4.076,19.849,19.849,0,0,1-2.729,5.781" transform="translate(-373.499 -188.913)" fill="#b5dee0"/>
                    <path id="Trazado_179924" data-name="Trazado 179924" d="M612.972,361.16a8.981,8.981,0,0,0-4.886,2.488,9.315,9.315,0,0,0-2.8,4.828,6.587,6.587,0,0,0,4.511-2.87c1.127-1.457,1.907-3.055,3.145-4.418" transform="translate(-367.331 -209.734)" fill="#b5dee0"/>
                    <path id="Trazado_179925" data-name="Trazado 179925" d="M624.151,347.388a12.189,12.189,0,0,1,1.391-11.47,14.679,14.679,0,0,1-1.391,11.47" transform="translate(-377.843 -195.076)" fill="#b5dee0"/>
                    <path id="Trazado_179926" data-name="Trazado 179926" d="M623.237,374.862a8.706,8.706,0,0,0-8.333,4.826c-.1.208-.194.471-.056.657a.617.617,0,0,0,.553.164,7.235,7.235,0,0,0,4.3-2.234,41.328,41.328,0,0,1,3.575-3.419" transform="translate(-372.866 -217.682)" fill="#b5dee0"/>
                    <path id="Trazado_179927" data-name="Trazado 179927" d="M633.791,358.162a15.707,15.707,0,0,1-.155-8.723,4.255,4.255,0,0,1,1.85-2.831.36.36,0,0,1,.283-.05.373.373,0,0,1,.179.208,5.281,5.281,0,0,1,.436,2.5,15.737,15.737,0,0,1-.39,2.533,13.533,13.533,0,0,1-1.342,4.547,9.279,9.279,0,0,0-.537,1c-.16.34-.161.459-.307.729" transform="translate(-383.548 -201.247)" fill="#b5dee0"/>
                    <path id="Trazado_179928" data-name="Trazado 179928" d="M660.16,364.79a11.3,11.3,0,0,1,1.959-9.247c.141-.184.327-.382.557-.36.352.033.443.5.427.859a16.778,16.778,0,0,1-2.943,8.748" transform="translate(-399.162 -206.262)" fill="#b5dee0"/>
                    <path id="Trazado_179929" data-name="Trazado 179929" d="M662.905,375.261a13.3,13.3,0,0,0,10.97-2.245,8.832,8.832,0,0,0-5.939-.733,8.463,8.463,0,0,0-5.031,2.978" transform="translate(-400.938 -216.067)" fill="#b5dee0"/>
                    <path id="Trazado_179930" data-name="Trazado 179930" d="M664.867,366.823a12.663,12.663,0,0,1,9.957-5.792,6.158,6.158,0,0,1-3.257,3.622,17.981,17.981,0,0,1-4.779,1.406,3.36,3.36,0,0,0-1.921.764" transform="translate(-402.082 -209.66)" fill="#b5dee0"/>
                    <path id="Trazado_179931" data-name="Trazado 179931" d="M659.068,335.18a29.272,29.272,0,0,0,1.273-5.866,9.824,9.824,0,0,0-1.161-5.8,12.846,12.846,0,0,0-.17,11.872" transform="translate(-397.865 -187.87)" fill="#b5dee0"/>
                    <path id="Trazado_179932" data-name="Trazado 179932" d="M676.635,332.575a15.623,15.623,0,0,1,11.5-7.872,12.814,12.814,0,0,1-11.5,7.872" transform="translate(-408.946 -188.563)" fill="#b5dee0"/>
                    <path id="Trazado_179933" data-name="Trazado 179933" d="M673.233,344.467c3.36.515,6.223,2.674,9.363,3.983a4.174,4.174,0,0,0,2.116.408,1.844,1.844,0,0,0,1.593-1.295,1.866,1.866,0,0,0-.556-1.654,4.523,4.523,0,0,0-1.538-.938,16.988,16.988,0,0,0-10.69-.6" transform="translate(-406.962 -199.648)" fill="#b5dee0"/>
                    <path id="Trazado_179934" data-name="Trazado 179934" d="M668.567,350.832a3.97,3.97,0,0,1,1.623,1.132,17.476,17.476,0,0,0,7.1,3.669c.271.068.627.095.762-.152.117-.215-.031-.476-.184-.668a9.769,9.769,0,0,0-4.287-2.928c-1.638-.614-3.058-1.354-5.014-1.2" transform="translate(-404.24 -203.642)" fill="#b5dee0"/>
                    <path id="Trazado_179935" data-name="Trazado 179935" d="M663.3,316.4a13.387,13.387,0,0,0,10.3,3.526.7.7,0,0,0,.469-.169c.259-.284-.052-.722-.354-.959a11.812,11.812,0,0,0-10.417-2.4" transform="translate(-401.169 -183.526)" fill="#b5dee0"/>
                    <path id="Trazado_179936" data-name="Trazado 179936" d="M669.545,310.72a14.286,14.286,0,0,1,12.854-2.134,10.175,10.175,0,0,1-6.125,2.706,19.268,19.268,0,0,1-6.729-.571" transform="translate(-404.811 -178.808)" fill="#b5dee0"/>
                    <path id="Trazado_179937" data-name="Trazado 179937" d="M664.633,286.252c-.3-3.041-.1-5.443-.314-8.5-.017-.244-.069-.538-.3-.626-.316-.122-.58.269-.683.593a9.792,9.792,0,0,0,1.289,8.464" transform="translate(-400.933 -160.922)" fill="#b5dee0"/>
                    <path id="Trazado_179938" data-name="Trazado 179938" d="M666.542,286.481a17.829,17.829,0,0,0,5.008-4.9,6.724,6.724,0,0,0,1.6-4.664,4.781,4.781,0,0,0-3.612,1.8,10.165,10.165,0,0,0-1.841,3.727c-.4,1.338-.682,2.714-1.152,4.029" transform="translate(-403.059 -160.814)" fill="#b5dee0"/>
                    <path id="Trazado_179939" data-name="Trazado 179939" d="M678.258,285.892a40.309,40.309,0,0,0,12.323-7.311,6.26,6.26,0,0,0-4.629.358,14.63,14.63,0,0,0-7.758,6.921" transform="translate(-409.855 -161.601)" fill="#b5dee0"/>
                    <path id="Trazado_179940" data-name="Trazado 179940" d="M669.861,298.725a24.906,24.906,0,0,0,6.843.034,28.916,28.916,0,0,0,6.388-2.136.749.749,0,0,0,.434-.332.5.5,0,0,0-.156-.55,1.316,1.316,0,0,0-.545-.257,11.759,11.759,0,0,0-6.9.415,31.958,31.958,0,0,0-6.061,2.825" transform="translate(-404.995 -171.394)" fill="#b5dee0"/>
                    <path id="Trazado_179941" data-name="Trazado 179941" d="M637.093,303.189a12.246,12.246,0,0,1-.111-10.079,7.74,7.74,0,0,1,.886,5.012c-.172,1.722-.693,3.494-.727,5.225" transform="translate(-385.217 -170.216)" fill="#b5dee0"/>
                    <path id="Trazado_179942" data-name="Trazado 179942" d="M609.277,309.643a13.932,13.932,0,0,0-10.383,4.45,9.654,9.654,0,0,0,5.686-1.06,28.906,28.906,0,0,0,4.872-3.281" transform="translate(-363.601 -179.816)" fill="#b5dee0"/>
                    <path id="Trazado_179943" data-name="Trazado 179943" d="M600.135,306.046a14.4,14.4,0,0,0-5.543.171,6.659,6.659,0,0,0-4.224,3.6,9.957,9.957,0,0,0,5.2-.987,29.845,29.845,0,0,0,4.571-2.788" transform="translate(-358.628 -177.621)" fill="#b5dee0"/>
                    <path id="Trazado_179944" data-name="Trazado 179944" d="M613.061,302.4a17.439,17.439,0,0,0-5.442-2.735,5.9,5.9,0,0,0-5.672,1.384,10.54,10.54,0,0,0,5.421,1.06,18.621,18.621,0,0,1,5.905.6" transform="translate(-365.382 -173.909)" fill="#b5dee0"/>
                    <path id="Trazado_179945" data-name="Trazado 179945" d="M624.01,290.057c-2.916-2.88-4.021-8.055-2.848-11.993a18.363,18.363,0,0,1,2.848,11.993" transform="translate(-376.32 -161.479)" fill="#b5dee0"/>
                    <path id="Trazado_179946" data-name="Trazado 179946" d="M647.881,274.093c.55-1.286.937-2.636,1.43-3.945a11.355,11.355,0,0,1,2.039-3.637,5.357,5.357,0,0,1,3.611-1.883,14.624,14.624,0,0,1-7.008,9.486" transform="translate(-392.174 -153.676)" fill="#b5dee0"/>
                    <path id="Trazado_179947" data-name="Trazado 179947" d="M633.842,284.1a18.845,18.845,0,0,0-3.2-3.911,5.321,5.321,0,0,0-4.347-1.148,10.124,10.124,0,0,0,7.542,5.06" transform="translate(-379.586 -161.981)" fill="#b5dee0"/>
                    <path id="Trazado_179948" data-name="Trazado 179948" d="M642.936,274.362a21.86,21.86,0,0,1-1.439-4.687,7.353,7.353,0,0,1,.729-4.765,10.869,10.869,0,0,1,.791,9.486" transform="translate(-388.389 -153.84)" fill="#b5dee0"/>
                    <path id="Trazado_179949" data-name="Trazado 179949" d="M647.916,255.975c.906-3.018,3.653-5.239,6.617-6.259a2.457,2.457,0,0,1,1.16-.175,1.008,1.008,0,0,1,.855.718c.108.513-.313.973-.71,1.314a22.483,22.483,0,0,1-7.923,4.4" transform="translate(-392.195 -144.904)" fill="#b5dee0"/>
                    <path id="Trazado_179950" data-name="Trazado 179950" d="M647.928,244.976a21.727,21.727,0,0,1,.864-5.763,7.274,7.274,0,0,1,3.6-4.379,8.581,8.581,0,0,1-1.6,5.611,25.778,25.778,0,0,0-2.916,5.173" transform="translate(-392.174 -136.374)" fill="#b5dee0"/>
                    <path id="Trazado_179951" data-name="Trazado 179951" d="M640.01,247.566c-.749-2.2-.827-4.992-2.136-6.908-.915-1.339-2.38-2.251-3.168-3.67a5.613,5.613,0,0,0,.184,4.166,12.059,12.059,0,0,0,2.421,3.488c.969,1.041,1.8,1.823,2.7,2.924" transform="translate(-384.303 -137.625)" fill="#b5dee0"/>
                    <path id="Trazado_179952" data-name="Trazado 179952" d="M647.758,325.919c-.058,0-.109-14.67-.113-32.763s.04-32.766.1-32.766.108,14.667.113,32.766-.04,32.763-.1,32.763" transform="translate(-392.036 -151.215)" fill="#b5dee0"/>
                    <path id="Trazado_179953" data-name="Trazado 179953" d="M660.631,311.867a3.074,3.074,0,0,1-.548.207l-1.509.512c-1.272.436-3.02,1.068-4.916,1.849A19.882,19.882,0,0,0,649,316.783a3.434,3.434,0,0,0-.936,1.246c-.145.344-.17.555-.19.551a.433.433,0,0,1,.006-.154,2.355,2.355,0,0,1,.107-.428,3.313,3.313,0,0,1,.914-1.328,8.185,8.185,0,0,1,2.021-1.263c.808-.379,1.7-.776,2.656-1.169,1.9-.784,3.663-1.4,4.95-1.8.643-.2,1.168-.35,1.531-.449a3.08,3.08,0,0,1,.572-.128" transform="translate(-392.168 -181.107)" fill="#b5dee0"/>
                    <path id="Trazado_179954" data-name="Trazado 179954" d="M666.212,287.251a.919.919,0,0,1-.154.165l-.468.442-1.747,1.6-5.814,5.208c-2.269,2.032-4.23,3.974-5.589,5.436-.68.73-1.216,1.335-1.582,1.758l-.422.485a.886.886,0,0,1-.158.161.929.929,0,0,1,.125-.188c.088-.118.217-.293.393-.512.347-.439.867-1.061,1.536-1.806a73.853,73.853,0,0,1,5.559-5.493c2.277-2.028,4.349-3.849,5.855-5.162l1.791-1.546.494-.413a.9.9,0,0,1,.182-.133" transform="translate(-393.572 -166.814)" fill="#b5dee0"/>
                    <path id="Trazado_179955" data-name="Trazado 179955" d="M663,302.825c-.06-.027.415-1.128.887-2.521s.7-2.568.762-2.558a8.638,8.638,0,0,1-.562,2.626,17.2,17.2,0,0,1-.706,1.763,2.742,2.742,0,0,1-.38.69" transform="translate(-400.987 -172.908)" fill="#b5dee0"/>
                    <path id="Trazado_179956" data-name="Trazado 179956" d="M636.119,316.2a2.624,2.624,0,0,1-.35-.408l-.9-1.156c-.753-.979-1.793-2.329-2.959-3.808s-2.239-2.8-3.015-3.764l-.915-1.14a2.633,2.633,0,0,1-.316-.435,2.629,2.629,0,0,1,.378.382c.233.255.564.629.967,1.1.806.935,1.9,2.249,3.066,3.729s2.19,2.847,2.913,3.85c.361.5.649.91.843,1.2a2.646,2.646,0,0,1,.284.457" transform="translate(-380.384 -177.404)" fill="#b5dee0"/>
                    <path id="Trazado_179957" data-name="Trazado 179957" d="M639.215,316.288a5.169,5.169,0,0,1-1.171-2.2,6.337,6.337,0,0,1-.266-2.223l.093.008c-.042.17-.072.259-.089.257s-.018-.1,0-.272l.093.008a10.2,10.2,0,0,0,.374,2.162,16.541,16.541,0,0,0,.969,2.265" transform="translate(-386.273 -181.101)" fill="#b5dee0"/>
                    <path id="Trazado_179958" data-name="Trazado 179958" d="M623.755,310.294a3.777,3.777,0,0,0-.817-.477,5.432,5.432,0,0,0-2.269-.182,13.941,13.941,0,0,0-2.285.371,6.857,6.857,0,0,1-.94.227,3.28,3.28,0,0,1,.9-.372,10.384,10.384,0,0,1,2.309-.438,4.922,4.922,0,0,1,2.34.254,1.452,1.452,0,0,1,.761.617" transform="translate(-374.42 -179.672)" fill="#b5dee0"/>
                    <path id="Trazado_179959" data-name="Trazado 179959" d="M618.124,307.036c-.016.033-.476-.192-1.252-.459a12.524,12.524,0,0,0-6.309-.484c-.807.145-1.3.3-1.307.263a1.174,1.174,0,0,1,.332-.143,7.736,7.736,0,0,1,.946-.267,11.072,11.072,0,0,1,6.389.49,7.719,7.719,0,0,1,.894.408,1.188,1.188,0,0,1,.307.191" transform="translate(-369.645 -177.521)" fill="#b5dee0"/>
                    <path id="Trazado_179960" data-name="Trazado 179960" d="M645.6,288.833a52.266,52.266,0,0,1-1.622-6.434,52.273,52.273,0,0,1,1.622,6.434" transform="translate(-389.895 -163.996)" fill="#b5dee0"/>
                    <path id="Trazado_179961" data-name="Trazado 179961" d="M644.518,292.952a15.361,15.361,0,0,0-1.012-1.91,8.365,8.365,0,0,0-1.49-1.547,1.382,1.382,0,0,1,.575.3,4.66,4.66,0,0,1,1.087,1.127,4.25,4.25,0,0,1,.839,2.032" transform="translate(-388.753 -168.115)" fill="#b5dee0"/>
                    <path id="Trazado_179962" data-name="Trazado 179962" d="M629.219,368.371c-.023,0-.066-.353-.23-.976a13.967,13.967,0,0,0-.974-2.54,35.145,35.145,0,0,0-5.17-7.328c-1.154-1.327-2.274-2.578-3.224-3.777a26.547,26.547,0,0,1-2.306-3.346,16.132,16.132,0,0,1-1.164-2.483c-.107-.306-.186-.545-.228-.71a1.189,1.189,0,0,1-.06-.253c.019-.006.125.335.365.934a18.246,18.246,0,0,0,1.216,2.437,28.051,28.051,0,0,0,2.328,3.3c.954,1.186,2.076,2.431,3.232,3.76a33.3,33.3,0,0,1,5.145,7.4,12.713,12.713,0,0,1,.92,2.585,7.271,7.271,0,0,1,.129.736,1.235,1.235,0,0,1,.021.26" transform="translate(-373.498 -201.487)" fill="#b5dee0"/>
                    <path id="Trazado_179963" data-name="Trazado 179963" d="M659.428,366.818a5.29,5.29,0,0,1-.6.341,13.168,13.168,0,0,0-1.565,1.041,18,18,0,0,0-2.055,1.886c-.721.767-1.464,1.657-2.223,2.612-1.517,1.914-2.935,3.608-3.784,4.96-.431.671-.745,1.236-.95,1.633a5.193,5.193,0,0,1-.332.611.593.593,0,0,1,.056-.172c.045-.109.106-.273.2-.476a15.481,15.481,0,0,1,.9-1.676,54.591,54.591,0,0,1,3.746-5.014c.76-.956,1.512-1.848,2.247-2.614a16.74,16.74,0,0,1,2.106-1.871,10.96,10.96,0,0,1,1.617-.994c.2-.1.363-.163.471-.21a.575.575,0,0,1,.17-.058" transform="translate(-392.193 -213.02)" fill="#b5dee0"/>
                    <path id="Trazado_179964" data-name="Trazado 179964" d="M664.949,376.922a8.706,8.706,0,0,1-1.276.187,16.7,16.7,0,0,0-3.025.6,9.069,9.069,0,0,0-2.708,1.43c-.624.485-.919.887-.948.864a.965.965,0,0,1,.189-.3,4.8,4.8,0,0,1,.665-.684,8.182,8.182,0,0,1,2.738-1.516,13.587,13.587,0,0,1,3.075-.547,7,7,0,0,1,1.29-.037" transform="translate(-397.488 -218.879)" fill="#b5dee0"/>
                    <path id="Trazado_179965" data-name="Trazado 179965" d="M657.88,377.155c-.067-.038.508-.921.954-2.109.418-1.2.516-2.25.591-2.238a2.054,2.054,0,0,1-.021.688,7.4,7.4,0,0,1-.372,1.622,7.858,7.858,0,0,1-.74,1.488,2.078,2.078,0,0,1-.412.55" transform="translate(-398.003 -216.499)" fill="#b5dee0"/>
                    <path id="Trazado_179966" data-name="Trazado 179966" d="M663.163,339.638a.963.963,0,0,1-.2.109l-.6.274c-.263.113-.581.257-.941.447s-.781.38-1.219.644l-.7.4c-.241.14-.48.306-.734.465-.513.313-1.027.7-1.575,1.092a27.124,27.124,0,0,0-6.067,6.316c-.372.565-.738,1.1-1.031,1.622-.15.261-.307.507-.437.754l-.371.714c-.248.449-.425.878-.6,1.247s-.309.693-.412.961l-.252.612a.952.952,0,0,1-.1.209.965.965,0,0,1,.062-.223l.215-.628c.092-.273.213-.6.381-.978s.332-.811.573-1.268l.362-.724c.127-.251.282-.5.43-.765.289-.534.651-1.071,1.022-1.644a26.126,26.126,0,0,1,6.111-6.362c.556-.392,1.077-.775,1.6-1.084.258-.158.5-.321.745-.458l.707-.389c.445-.257.872-.442,1.239-.62s.691-.314.959-.416l.616-.238a.941.941,0,0,1,.22-.07" transform="translate(-392.199 -197.235)" fill="#b5dee0"/>
                    <path id="Trazado_179967" data-name="Trazado 179967" d="M662.624,352.169a1.477,1.477,0,0,1,.5-.751,3.155,3.155,0,0,1,2.019-.779,5.5,5.5,0,0,1,2.124.418,3.022,3.022,0,0,1,.8.393,4.879,4.879,0,0,1-.852-.251,6.385,6.385,0,0,0-2.069-.347,3.277,3.277,0,0,0-1.929.681,5.988,5.988,0,0,0-.6.637" transform="translate(-400.772 -203.624)" fill="#b5dee0"/>
                    <path id="Trazado_179968" data-name="Trazado 179968" d="M659.353,352.35a5.454,5.454,0,0,0,.445-3.835,1.24,1.24,0,0,1,.237.547,3.9,3.9,0,0,1-.326,2.812c-.178.324-.335.492-.355.477" transform="translate(-398.863 -202.391)" fill="#b5dee0"/>
                    <path id="Trazado_179969" data-name="Trazado 179969" d="M623.75,403.041a48.8,48.8,0,0,0,4.576,17.073h11.231a49.342,49.342,0,0,0,4.3-17.073Z" transform="translate(-378.099 -234.056)" fill="#b5dee0"/>
                    <path id="Trazado_179970" data-name="Trazado 179970" d="M644.523,424.532c0,.059-3.7.106-8.258.106s-8.259-.047-8.259-.106,3.7-.106,8.259-.106,8.258.047,8.258.106" transform="translate(-380.581 -246.475)" fill="#caf7fa"/>
                    <path id="Trazado_179971" data-name="Trazado 179971" d="M645.367,429.376c0,.059-3.467.106-7.742.106s-7.743-.047-7.743-.106,3.466-.106,7.743-.106,7.742.047,7.742.106" transform="translate(-381.676 -249.288)" fill="#caf7fa"/>
                    <path id="Trazado_179972" data-name="Trazado 179972" d="M635.019,411.821a32.19,32.19,0,0,1,0,5.206,32.153,32.153,0,0,1,0-5.206" transform="translate(-384.61 -239.154)" fill="#caf7fa"/>
                    <path id="Trazado_179973" data-name="Trazado 179973" d="M649.458,411.821a34.479,34.479,0,0,1,0,5.391,34.539,34.539,0,0,1,0-5.391" transform="translate(-393.033 -239.154)" fill="#caf7fa"/>
                    <path id="Trazado_179974" data-name="Trazado 179974" d="M663.016,411.712a35.925,35.925,0,0,1,0,5.5,35.883,35.883,0,0,1,0-5.5" transform="translate(-400.941 -239.091)" fill="#caf7fa"/>
                    <path id="Trazado_179975" data-name="Trazado 179975" d="M644.039,411.674c0,.059-4.338.106-9.687.106s-9.687-.047-9.687-.106,4.336-.106,9.687-.106,9.687.047,9.687.106" transform="translate(-378.633 -239.008)" fill="#caf7fa"/>
                    <path id="Trazado_179976" data-name="Trazado 179976" d="M293.049,59.289C289.707,40,279.067,21.79,262.977,10.783S225.359-3.384,207.344,4.01c-27.159,11.147-42.556,42.93-70.6,51.588-14.958,4.618-31.017,1.794-46.623.665s-32.819.064-44.355,10.7c-10.644,9.812-13.869,26.21-9.84,40.158s8.6,24.16,17.8,35.35c12.168,14.794,32.209,18.227,44.3,19.15a557.176,557.176,0,0,0,100.835,2.751c24.319.86,53.029-9,64.591-20.055,8.463-8.09,15.893-17.291,20.917-27.892,8.375-17.67,12.014-37.85,8.672-57.135" transform="translate(-34.253 0)" fill="#c6f3f5"/>
                  </g>
                </g>
              </g>
              <path id="Trazado_179977" data-name="Trazado 179977" d="M299.756,443.51c0,.06-61.341.109-136.992.109-75.677,0-137-.049-137-.109s61.328-.109,137-.109c75.651,0,136.992.049,136.992.109" transform="translate(-15.025 -257.494)" fill="#263238"/>
              <path id="Trazado_179978" data-name="Trazado 179978" d="M623.462,410.31l4.669,8.387,5.594,5.562a.989.989,0,0,1-.04,1.439.968.968,0,0,1-.869.221c-1.967-.465-9.192-2.213-9.5-2.846-.356-.733-5.509-8.517-5.509-8.517Z" transform="translate(-360.359 -238.277)" fill="#79f5ed"/>
              <g id="Grupo_112515" data-name="Grupo 112515" transform="translate(262.63 184.236)" opacity="0.6">
                <g id="Grupo_112514" data-name="Grupo 112514">
                  <g id="Grupo_112513" data-name="Grupo 112513" clip-path="url(#clip-path-5)">
                    <path id="Trazado_179979" data-name="Trazado 179979" d="M640.937,442.6l-10.7-3.184.206.351a1.473,1.473,0,0,0,.787.649c.885.307,3.347,1.1,8.81,2.421a.973.973,0,0,0,.893-.237" transform="translate(-630.241 -439.416)" fill="#fff"/>
                  </g>
                </g>
              </g>
              <g id="Grupo_112518" data-name="Grupo 112518" transform="translate(262.145 180.555)" opacity="0.6">
                <g id="Grupo_112517" data-name="Grupo 112517">
                  <g id="Grupo_112516" data-name="Grupo 112516" clip-path="url(#clip-path-6)">
                    <path id="Trazado_179980" data-name="Trazado 179980" d="M629.684,430.644a.594.594,0,0,1,.533.587.571.571,0,0,1-.574.537.627.627,0,0,1-.561-.625.591.591,0,0,1,.658-.491" transform="translate(-629.078 -430.637)" fill="#fff"/>
                  </g>
                </g>
              </g>
              <path id="Trazado_179981" data-name="Trazado 179981" d="M646.181,438.512a3.029,3.029,0,0,1,.343-1.073c.337-.535.86-.688.84-.745,0-.025-.147-.027-.355.06a1.571,1.571,0,0,0-.915,1.406c0,.227.063.357.087.352" transform="translate(-376.858 -253.591)" fill="#263238"/>
              <path id="Trazado_179982" data-name="Trazado 179982" d="M649.238,440.94c.06.013.166-.413.52-.789s.759-.522.742-.582a1.083,1.083,0,0,0-.9.438,1.1,1.1,0,0,0-.366.932" transform="translate(-378.679 -255.258)" fill="#263238"/>
              <path id="Trazado_179983" data-name="Trazado 179983" d="M641.664,436.035a5.058,5.058,0,0,1,1.773-2.283,2.168,2.168,0,0,0-1.217.881,2.191,2.191,0,0,0-.555,1.4" transform="translate(-374.266 -251.886)" fill="#263238"/>
              <path id="Trazado_179984" data-name="Trazado 179984" d="M637.763,431.49c.051.036.393-.425.972-.8s1.131-.509,1.119-.57a2.428,2.428,0,0,0-2.091,1.368" transform="translate(-371.995 -249.772)" fill="#263238"/>
              <path id="Trazado_179985" data-name="Trazado 179985" d="M634.323,425.818a3.1,3.1,0,0,1,2.243-1.23c0-.026-.148-.076-.4-.073a2.131,2.131,0,0,0-1.684.924c-.14.214-.18.369-.157.379" transform="translate(-369.989 -246.526)" fill="#263238"/>
              <path id="Trazado_179986" data-name="Trazado 179986" d="M633.319,421.759a.838.838,0,0,0-.173-.32,2.509,2.509,0,0,0-.729-.673,1.107,1.107,0,0,0-.681-.216.393.393,0,0,0-.337.3.647.647,0,0,0,.089.451,1.379,1.379,0,0,0,1.7.489,1.616,1.616,0,0,0,.93-1.534.561.561,0,0,0-.213-.415.383.383,0,0,0-.452.03,1.381,1.381,0,0,0-.375.605,2.837,2.837,0,0,0-.184.977.87.87,0,0,0,.041.361,4.5,4.5,0,0,1,.28-1.282,1.287,1.287,0,0,1,.34-.519A.2.2,0,0,1,633.8,420a.385.385,0,0,1,.124.281,1.441,1.441,0,0,1-.822,1.32,1.2,1.2,0,0,1-1.445-.394.47.47,0,0,1-.076-.312.214.214,0,0,1,.184-.17,1,1,0,0,1,.581.172,3.726,3.726,0,0,1,.976.864" transform="translate(-368.281 -243.779)" fill="#263238"/>
              <path id="Trazado_179987" data-name="Trazado 179987" d="M593.218,414.4l-1.9,6.874s6.308,4.249,6.08,5.554l-13.379-3.223,2.519-10.833Z" transform="translate(-340.652 -239.707)" fill="#79f5ed"/>
              <g id="Grupo_112521" data-name="Grupo 112521" transform="translate(246.143 179.982)" opacity="0.6">
                <g id="Grupo_112520" data-name="Grupo 112520">
                  <g id="Grupo_112519" data-name="Grupo 112519" clip-path="url(#clip-path-7)">
                    <path id="Trazado_179988" data-name="Trazado 179988" d="M591.205,429.274a.563.563,0,0,0-.527.536.542.542,0,0,0,.524.53.6.6,0,0,0,.556-.571.561.561,0,0,0-.606-.491" transform="translate(-590.678 -429.268)" fill="#fff"/>
                  </g>
                </g>
              </g>
              <g id="Grupo_112524" data-name="Grupo 112524" transform="translate(243.369 182.817)" opacity="0.6">
                <g id="Grupo_112523" data-name="Grupo 112523">
                  <g id="Grupo_112522" data-name="Grupo 112522" clip-path="url(#clip-path-8)">
                    <path id="Trazado_179989" data-name="Trazado 179989" d="M584.021,437.112l.3-1.082,12.718,3.494s.533.4.366.81Z" transform="translate(-584.021 -436.03)" fill="#fff"/>
                  </g>
                </g>
              </g>
              <path id="Trazado_179990" data-name="Trazado 179990" d="M600.143,432.821c-.018.065-.352.016-.723.151s-.608.369-.663.328.134-.4.587-.551.828.015.8.072" transform="translate(-349.242 -251.27)" fill="#263238"/>
              <path id="Trazado_179991" data-name="Trazado 179991" d="M603.581,435.134c0,.067-.31.111-.6.336s-.422.5-.487.484-.017-.4.346-.673.752-.211.738-.148" transform="translate(-351.414 -252.661)" fill="#263238"/>
              <path id="Trazado_179992" data-name="Trazado 179992" d="M606.027,438.288c-.063,0-.075-.351.178-.67s.593-.389.608-.328-.22.208-.424.474-.295.533-.361.524" transform="translate(-353.465 -253.933)" fill="#263238"/>
              <path id="Trazado_179993" data-name="Trazado 179993" d="M600.749,428.57c-.042.053-.32-.109-.7-.173s-.691-.016-.712-.081.312-.232.753-.151.7.361.654.4" transform="translate(-349.588 -248.634)" fill="#263238"/>
              <g id="Grupo_112527" data-name="Grupo 112527" transform="translate(245.291 174.207)" opacity="0.3">
                <g id="Grupo_112526" data-name="Grupo 112526">
                  <g id="Grupo_112525" data-name="Grupo 112525" clip-path="url(#clip-path-9)">
                    <path id="Trazado_179994" data-name="Trazado 179994" d="M595.53,417.342l-.336,1.225-6.561-1.644.328-1.429Z" transform="translate(-588.632 -415.494)"/>
                  </g>
                </g>
              </g>
              <path id="Trazado_179995" data-name="Trazado 179995" d="M600.98,423.754a1.285,1.285,0,0,1-.669-.165,3.081,3.081,0,0,1-.65-.386,3.256,3.256,0,0,1-.336-.3.843.843,0,0,1-.165-.207.3.3,0,0,1,.053-.357.367.367,0,0,1,.322-.081.9.9,0,0,1,.243.1,2.489,2.489,0,0,1,.382.244,2.435,2.435,0,0,1,.521.557,1.158,1.158,0,0,1,.264.642c-.034.015-.137-.228-.4-.543a2.749,2.749,0,0,0-.517-.483,2.536,2.536,0,0,0-.356-.212c-.133-.071-.253-.1-.3-.047-.019.021-.023.03,0,.079a.678.678,0,0,0,.121.151,3.583,3.583,0,0,0,.306.289,3.777,3.777,0,0,0,.588.406,4.77,4.77,0,0,1,.6.314" transform="translate(-349.461 -245.212)" fill="#263238"/>
              <path id="Trazado_179996" data-name="Trazado 179996" d="M603.242,423.214a1.11,1.11,0,0,1-.022-.694,2.263,2.263,0,0,1,.267-.716,2.3,2.3,0,0,1,.268-.368.568.568,0,0,1,.508-.237.323.323,0,0,1,.235.255.949.949,0,0,1,.01.264,1.565,1.565,0,0,1-.108.454,1.6,1.6,0,0,1-.452.628c-.345.286-.636.3-.636.275s.244-.11.524-.4a1.6,1.6,0,0,0,.363-.583,1.425,1.425,0,0,0,.08-.392c.013-.148-.013-.276-.069-.275-.066-.017-.205.064-.287.164a2.313,2.313,0,0,0-.253.326,2.5,2.5,0,0,0-.29.642c-.113.391-.1.654-.139.655" transform="translate(-351.83 -244.598)" fill="#263238"/>
              <path id="Trazado_179997" data-name="Trazado 179997" d="M595.4,236.191s4.56,8.011,4.808,16.887-6.2,63.934-6.2,63.934l-10.222-2.5c-.188,1.771,3.2-18.1,4.4-27.663,1.181-9.418-4.75-43.392-4.75-43.392l11.171-7.267" transform="translate(-340.314 -137.162)" fill="#263238"/>
              <path id="Trazado_179998" data-name="Trazado 179998" d="M555.787,252.2s-1.11,9.529,1.688,15.916,25.005,59.224,25.005,59.224l9.1-4.664-22.272-70.448Z" transform="translate(-324.057 -146.456)" fill="#263238"/>
              <path id="Trazado_179999" data-name="Trazado 179999" d="M604.843,305.077c-.057.019-2.863-8.486-6.267-18.994s-6.119-19.044-6.062-19.063,2.863,8.484,6.268,19,6.118,19.042,6.061,19.061" transform="translate(-345.605 -155.065)" fill="#455a64"/>
              <path id="Trazado_180000" data-name="Trazado 180000" d="M592.69,366.918c-.055.024-4.492-10.382-9.908-23.237s-9.764-23.3-9.709-23.325,4.49,10.379,9.909,23.24,9.763,23.3,9.708,23.323" transform="translate(-334.266 -186.038)" fill="#455a64"/>
              <path id="Trazado_180001" data-name="Trazado 180001" d="M554.106,107.841c-1.331-2.792-5.539-4.391-9.022-3.562-2.93.7-6.115,3.566-6.4,6.592-.421,4.388,1.865,8.943.331,13.081-1.784,4.816-4.229,3.228-4.057,10.212.052,2.1.863,7.255,1.877,9.1a3.771,3.771,0,0,0,2.422,2.049c1.346.253,3.2.523,4.288-.3,2.945-2.214,5.681-2.513,6.42-6.114,1.089-5.307-2.429-11.8-2.276-16.112a67.956,67.956,0,0,0-1.181-12.859" transform="translate(-312.026 -60.43)" fill="#263238"/>
              <path id="Trazado_180002" data-name="Trazado 180002" d="M584.885,133.013a11.464,11.464,0,0,0-4.228-4.467,31.227,31.227,0,0,1-4.987-3.7c-1.445-1.491-2.463-4.885-2.5-7.377h0c-.026-.685-.075-1.361-.165-2.031a17.381,17.381,0,0,0-2.172-7.021c-1.32-2.094-4.825-4.041-7.917-2.826l-1.562,2.021a58.335,58.335,0,0,1,1.606,20.194c-.188,1.962-.413,4.154.823,5.7a5.611,5.611,0,0,0,3.363,1.776,5.046,5.046,0,0,0,4.122-.65,1.318,1.318,0,0,1,.219-.138,6.6,6.6,0,0,0,1.129,2.057,9.67,9.67,0,0,0,5.014,2.711c2.129.592,4.649.93,6.336-.5,1.582-1.343,1.767-3.849.914-5.747" transform="translate(-327.433 -61.099)" fill="#263238"/>
              <path id="Trazado_180003" data-name="Trazado 180003" d="M545.522,157.063a64.547,64.547,0,0,0-6.138,2.969c-1.181.831,4.84,17.578,4.84,17.578s2.833,6.889,2.125,9.977c-.4,1.739-1.135,3.592-1.449,5.2a3.071,3.071,0,0,0,2.376,3.6c2.922.6,8.546,1.348,13.356-.487a34.192,34.192,0,0,0,8.117-4.314,3.083,3.083,0,0,0,.8-4.054,8.264,8.264,0,0,0-1.243-1.609c-1.624-1.634-3.074-8.012-3.448-9.765a3.064,3.064,0,0,1-.058-.876c.128-1.666.507-7.778-.507-10.737a36.044,36.044,0,0,0-3.448-6.7,3.048,3.048,0,0,0-2.021-1.365l-3.956-.732a3.041,3.041,0,0,0-1.031-.013Z" transform="translate(-314.526 -90.42)" fill="#79f5ed"/>
              <g id="Grupo_112530" data-name="Grupo 112530" transform="translate(231.179 87.451)" opacity="0.3">
                <g id="Grupo_112529" data-name="Grupo 112529">
                  <g id="Grupo_112528" data-name="Grupo 112528" clip-path="url(#clip-path-10)">
                    <path id="Trazado_180004" data-name="Trazado 180004" d="M555.647,217.648l-.88,2.93s6.077-2.064,8.038-4.384,3.893-4.051,4.8-4.155,4.833-.1,5.521.45,3.008,2.037,3.008,2.037l-1.067-3.08-2.608-2.058-7.765-.811Z" transform="translate(-554.767 -208.576)"/>
                  </g>
                </g>
              </g>
              <path id="Trazado_180005" data-name="Trazado 180005" d="M536.839,166.031s-1.972,1.419-1.972,4.983c0,0,.178,16.322.732,19.47.738,4.19,4.1,4.695,5.853,4.695s11.14-7.686,11.14-7.686l-2.885-4.364-6.854,1.8s-.282-6.723-.282-9.009-5.732-9.884-5.732-9.884" transform="translate(-311.981 -96.418)" fill="#79f5ed"/>
              <path id="Trazado_180006" data-name="Trazado 180006" d="M587.378,157.878s4.365,1.036,6.107,4.851c1.529,3.349,11.117,18.394,6.169,21.166-3.574,2-8.136-2.61-8.136-2.61Z" transform="translate(-342.61 -91.684)" fill="#79f5ed"/>
              <path id="Trazado_180007" data-name="Trazado 180007" d="M601,197.144a6.014,6.014,0,0,1-.414-2.167,4,4,0,0,0-.162-1.325,1.014,1.014,0,0,0-1.05-.707l-.156,3.276Z" transform="translate(-349.515 -112.038)" fill="#a26752"/>
              <path id="Trazado_180008" data-name="Trazado 180008" d="M591.275,184.472l-.545,11.577-5.529.538-.124-11.347a.6.6,0,0,1,.505-.6l5-.79a.6.6,0,0,1,.69.623" transform="translate(-341.268 -106.761)" fill="#263238"/>
              <path id="Trazado_180009" data-name="Trazado 180009" d="M586.253,189a1.971,1.971,0,0,0,.031-.343c.01-.242.025-.557.041-.936.014-.4.03-.872.047-1.389a1.476,1.476,0,0,1,.011-.189.357.357,0,0,1,.075-.157.346.346,0,0,1,.142-.1,1.017,1.017,0,0,1,.193-.04l.864-.141c1.184-.2,2.256-.379,3.03-.517l.916-.17a1.925,1.925,0,0,0,.333-.078,1.906,1.906,0,0,0-.341.033l-.922.134c-.778.117-1.851.288-3.035.483l-.864.144a1.061,1.061,0,0,0-.217.048.458.458,0,0,0-.186.138.471.471,0,0,0-.1.207,1.542,1.542,0,0,0-.01.207c-.008.517-.016.987-.022,1.389,0,.379,0,.695,0,.937a1.977,1.977,0,0,0,.014.344" transform="translate(-341.946 -107.393)" fill="#455a64"/>
              <path id="Trazado_180010" data-name="Trazado 180010" d="M592.356,187.381a.275.275,0,0,1,.3-.216.272.272,0,0,1,.229.188.313.313,0,0,1-.107.3.282.282,0,0,1-.316.02.263.263,0,0,1-.107-.3" transform="translate(-345.507 -108.689)" fill="#fafafa"/>
              <path id="Trazado_180011" data-name="Trazado 180011" d="M589.1,195.671c.131.013,3.266,1.055,3.266,1.055l1.764,1.363a3.159,3.159,0,0,1,.477,2.36c-.215,1.519-.856,2.143-2.457,2.823H588.92l-1.8-1.06a1.012,1.012,0,0,1-.485-1.022l.011-.07-.229-.274a.561.561,0,0,1-.068-.614.552.552,0,0,1,.745-.24l2,1.034,1.259-.033.121-.437-1.957-.657-2.583-1.425a.691.691,0,0,1-.256-.961.682.682,0,0,1,.835-.284l2.337.924,2.388.635-.492-.836-2.931-1.536s-.354-.9,1.278-.748" transform="translate(-341.563 -113.621)" fill="#a26752"/>
              <path id="Trazado_180012" data-name="Trazado 180012" d="M580.058,192.059a1.92,1.92,0,0,0-1.6.327c-.938.578-2.117,1.413-2.117,1.413l-1.836.859.152-.514s1.928-.109,1.619-1.482l-1.136.232-1.062-.351-1.633,2.2-.435,2.436-1.038,1.194,2.274,3.541,3.063-1.176,2.757-.275,1.2-1.339-.072-1.449,1.131-1.6s.062-.72-.57-.688-1.9,1.769-1.9,1.769l-1.5.276s-.3-.2-.106-.364,4.272-3.062,4.39-3.584.271-.875-.19-.942a2.473,2.473,0,0,0-1.154.3s.1-.73-.254-.784" transform="translate(-333.043 -111.502)" fill="#a26752"/>
              <path id="Trazado_180013" data-name="Trazado 180013" d="M585.022,196.481a41.769,41.769,0,0,0,3.585-2.574,41.743,41.743,0,0,0-3.585,2.574" transform="translate(-341.235 -112.606)" fill="#8a503f"/>
              <path id="Trazado_180014" data-name="Trazado 180014" d="M584.224,204.731a.917.917,0,0,0,.237.037c.153.015.376.035.652.039a4.226,4.226,0,0,0,.97-.086,2.841,2.841,0,0,0,1.089-.5,5.048,5.048,0,0,0,1.367-1.672c.134-.243.232-.444.3-.584a.969.969,0,0,0,.092-.223c-.015-.008-.18.292-.461.765a5.422,5.422,0,0,1-1.365,1.62,2.838,2.838,0,0,1-1.044.488,4.581,4.581,0,0,1-.947.108c-.547.007-.888-.014-.888.005" transform="translate(-340.77 -117.158)" fill="#8a503f"/>
              <path id="Trazado_180015" data-name="Trazado 180015" d="M570.977,198.292s.025-.024.071-.074l.2-.226.779-.88,0,0V197.1c.116-.635.267-1.455.447-2.435l-.007.014,1.64-2.194-.046.015,1.061.353.011,0,.011,0,1.136-.23-.055-.036a1.09,1.09,0,0,1-.022.577.993.993,0,0,1-.362.461,2.5,2.5,0,0,1-1.192.382l-.036,0-.01.033c-.047.158-.1.335-.153.514l-.033.111.1-.049,1.836-.857,0,0,0,0c.546-.383,1.115-.771,1.707-1.152a4.627,4.627,0,0,1,.924-.507,1.709,1.709,0,0,1,1.03-.071l.01,0h0c.109.015.175.141.2.28a1.581,1.581,0,0,1,.008.439l-.012.107.1-.049a3.318,3.318,0,0,1,.625-.243.992.992,0,0,1,.644-.006c.092.04.117.136.111.247a2.042,2.042,0,0,1-.063.343,1.041,1.041,0,0,1-.1.322,2.047,2.047,0,0,1-.232.262,27.138,27.138,0,0,1-2.229,1.817l-1.122.836-.554.409-.137.1a.308.308,0,0,0-.128.159.248.248,0,0,0,.052.206.579.579,0,0,0,.136.13l.018.013.023,0,1.5-.278.021,0,.013-.018a9.309,9.309,0,0,1,1.237-1.4c.226-.188.479-.4.754-.343a.4.4,0,0,1,.306.224.827.827,0,0,1,.074.4l.009-.025-1.128,1.6-.01.014v.016q.039.75.075,1.449l.011-.032-1.2,1.343.026-.013-2.756.284h0l0,0-2.263.884-.59.235-.15.062a.287.287,0,0,0-.05.023.271.271,0,0,0,.052-.016l.153-.055.6-.22,2.273-.857-.008,0,2.758-.265h.015l.01-.012,1.206-1.336.012-.013v-.018q-.032-.7-.068-1.449l-.009.03,1.134-1.6.008-.012V196a.929.929,0,0,0-.083-.454.559.559,0,0,0-.154-.187.521.521,0,0,0-.225-.092.7.7,0,0,0-.463.092,2.306,2.306,0,0,0-.378.273,9.388,9.388,0,0,0-1.257,1.413l.034-.022-1.5.275.041.008c-.079-.054-.16-.15-.141-.214s.14-.131.223-.2l.554-.408,1.124-.836a27.158,27.158,0,0,0,2.241-1.827,2.191,2.191,0,0,0,.246-.28.469.469,0,0,0,.077-.185l.042-.175a2.189,2.189,0,0,0,.066-.364.467.467,0,0,0-.028-.2.289.289,0,0,0-.145-.155,1.085,1.085,0,0,0-.727,0,3.45,3.45,0,0,0-.65.253l.084.059a1.683,1.683,0,0,0-.009-.475.622.622,0,0,0-.083-.228.31.31,0,0,0-.21-.144l.012,0a1.8,1.8,0,0,0-1.109.072,4.743,4.743,0,0,0-.946.519c-.593.383-1.162.772-1.709,1.158l.008,0-1.834.861.071.062.151-.514-.045.036a2.585,2.585,0,0,0,1.243-.405,1.087,1.087,0,0,0,.4-.509,1.189,1.189,0,0,0,.022-.63l-.007-.046-.048.01-1.135.234.023,0-1.063-.348-.028-.01-.018.024-1.626,2.2,0,.007,0,.008c-.17.982-.312,1.8-.423,2.439l0-.01-.763.893-.2.233c-.043.053-.063.081-.063.081" transform="translate(-333.043 -111.422)" fill="#8a503f"/>
              <path id="Trazado_180016" data-name="Trazado 180016" d="M551.353,115.168a6.511,6.511,0,0,1,6.1-7.113,6.688,6.688,0,0,1,6.991,5.875,67.009,67.009,0,0,1,.653,7.182,5.283,5.283,0,0,1-2.948,4.942,4.4,4.4,0,0,1-.893.195.022.022,0,0,0-.02.026l.648,3.844a4.309,4.309,0,0,1-3.742,5.009c-2.55.3-4.485-1.68-4.806-4.2Z" transform="translate(-321.578 -62.742)" fill="#a26752"/>
              <path id="Trazado_180017" data-name="Trazado 180017" d="M578.755,126.616a.53.53,0,0,1-.449.591.513.513,0,0,1-.606-.41.531.531,0,0,1,.449-.591.513.513,0,0,1,.607.41" transform="translate(-336.961 -73.286)" fill="#263238"/>
              <path id="Trazado_180018" data-name="Trazado 180018" d="M577.929,123.582c-.058.076-.5-.171-1.07-.1s-.958.4-1.029.339c-.034-.027.018-.159.186-.312a1.477,1.477,0,0,1,.813-.356,1.425,1.425,0,0,1,.861.168c.193.113.267.23.238.265" transform="translate(-335.868 -71.511)" fill="#263238"/>
              <path id="Trazado_180019" data-name="Trazado 180019" d="M565.934,128.339a.53.53,0,0,1-.449.591.513.513,0,0,1-.606-.41.531.531,0,0,1,.449-.591.513.513,0,0,1,.607.41" transform="translate(-329.483 -74.287)" fill="#263238"/>
              <path id="Trazado_180020" data-name="Trazado 180020" d="M564.445,125.4c-.058.076-.5-.171-1.07-.1s-.958.4-1.029.338c-.034-.027.017-.158.185-.312a1.477,1.477,0,0,1,.813-.356,1.426,1.426,0,0,1,.861.168c.192.113.267.23.238.265" transform="translate(-328.003 -72.569)" fill="#263238"/>
              <path id="Trazado_180021" data-name="Trazado 180021" d="M572.432,128.958a3.851,3.851,0,0,1,.91-.275c.145-.032.28-.077.292-.179a.733.733,0,0,0-.149-.417l-.565-1.05a18.934,18.934,0,0,1-1.319-2.766,19.09,19.09,0,0,1,1.541,2.655l.548,1.059a.835.835,0,0,1,.145.558.366.366,0,0,1-.215.239.987.987,0,0,1-.244.063,3.787,3.787,0,0,1-.943.112" transform="translate(-333.405 -72.168)" fill="#263238"/>
              <path id="Trazado_180022" data-name="Trazado 180022" d="M567.882,150.254a9.291,9.291,0,0,1-5.156-.882s1.222,2.788,5.33,1.918Z" transform="translate(-328.231 -86.744)" fill="#8a503f"/>
              <path id="Trazado_180023" data-name="Trazado 180023" d="M571.078,138.361a1.05,1.05,0,0,0-.971-.271.95.95,0,0,0-.609.421.589.589,0,0,0,.036.681.705.705,0,0,0,.774.1,2.174,2.174,0,0,0,.68-.517.634.634,0,0,0,.143-.187.19.19,0,0,0-.026-.211" transform="translate(-332.128 -80.177)" fill="#8a503f"/>
              <path id="Trazado_180024" data-name="Trazado 180024" d="M569.581,136.854c.093-.016.168.6.753.972s1.239.229,1.254.314c.013.038-.133.137-.412.177a1.577,1.577,0,0,1-1.043-.228,1.344,1.344,0,0,1-.591-.82c-.055-.254,0-.414.039-.416" transform="translate(-332.192 -79.474)" fill="#263238"/>
              <path id="Trazado_180025" data-name="Trazado 180025" d="M564.109,123.148c-.038.161-.619.154-1.281.313s-1.184.4-1.29.275c-.048-.061.029-.217.23-.392a2.316,2.316,0,0,1,1.959-.448c.259.069.4.176.382.252" transform="translate(-327.529 -71.334)" fill="#263238"/>
              <path id="Trazado_180026" data-name="Trazado 180026" d="M577.29,120.829c-.085.14-.5.053-.971.1-.477.033-.866.189-.975.065-.048-.061,0-.2.16-.339a1.427,1.427,0,0,1,1.568-.135c.184.113.255.239.218.306" transform="translate(-335.58 -69.89)" fill="#263238"/>
              <path id="Trazado_180027" data-name="Trazado 180027" d="M560.76,106.949a6.9,6.9,0,0,1-4.96,5.38l.217-.939a9.755,9.755,0,0,1-5.443,4.529,6.819,6.819,0,0,1,1.558-8.338c2.374-1.969,6.218-2.435,8.628-.505" transform="translate(-320.678 -61.466)" fill="#263238"/>
              <path id="Trazado_180028" data-name="Trazado 180028" d="M551.4,123.669a4.787,4.787,0,0,0,.02,3.607,9.162,9.162,0,0,1,.708,3.607c-.125,1.14-.772,2.172-.916,3.309-.242,1.916.959,3.693,1.419,5.57a7.546,7.546,0,0,1-1.865,6.9.915.915,0,0,1-.651.359.681.681,0,0,1-.57-.587,2.966,2.966,0,0,1,.044-.873c.307-2.75-2.316-5.027-2.635-7.776-.207-1.786.585-3.53.743-5.32.2-2.254-.606-4.467-.826-6.719a5.166,5.166,0,0,1,.19-2.293,2.406,2.406,0,0,1,1.614-1.552,1.6,1.6,0,0,1,1.881.981" transform="translate(-318.956 -70.768)" fill="#263238"/>
              <path id="Trazado_180029" data-name="Trazado 180029" d="M550.631,210.463a6.789,6.789,0,0,1-.713.035,3.9,3.9,0,0,0-2.832,1.649,6.706,6.706,0,0,1-.385.6,1.508,1.508,0,0,1,.256-.687,3.522,3.522,0,0,1,2.955-1.72,1.481,1.481,0,0,1,.72.119" transform="translate(-318.881 -122.152)" fill="#263238"/>
              <path id="Trazado_180030" data-name="Trazado 180030" d="M553.73,189.168c.06,0,.14,2,.179,4.472s.022,4.475-.038,4.476-.141-2-.179-4.473-.022-4.475.038-4.476" transform="translate(-322.949 -109.855)" fill="#263238"/>
              <path id="Trazado_180031" data-name="Trazado 180031" d="M594.119,184.416c-.037,0-.073-.531-.225-1.375a14.388,14.388,0,0,0-2.634-6.079c-.511-.686-.875-1.076-.848-1.1.011-.01.111.077.284.246a8.7,8.7,0,0,1,.685.761,12.568,12.568,0,0,1,2.665,6.15,8.693,8.693,0,0,1,.088,1.023,1.267,1.267,0,0,1-.014.377" transform="translate(-344.378 -102.126)" fill="#263238"/>
              <path id="Trazado_180032" data-name="Trazado 180032" d="M534.733,180.171a.612.612,0,0,1,.011.135c0,.1.006.231.011.395.007.361.016.869.029,1.517.032,1.332.077,3.233.133,5.578.073,2.354.166,5.158.362,8.264q.041.582.082,1.179l.045.6q.041.3.081.6a7.8,7.8,0,0,0,.264,1.186,6.228,6.228,0,0,0,.513,1.12,4.934,4.934,0,0,0,1.762,1.762,5.737,5.737,0,0,0,2.458.764l.154.007h.012a3.741,3.741,0,0,0,1.867-.36,13.076,13.076,0,0,0,1.683-.927q1.625-1.01,3.09-2.076a51.322,51.322,0,0,0,5.14-4.269l-.013.116-2.869-4.376.075.029c-1.889.47-3.379.885-4.407,1.144l-1.176.3-.3.072a.449.449,0,0,1-.1.018.429.429,0,0,1,.1-.038l.3-.091,1.168-.335c1.022-.282,2.507-.718,4.392-1.206l.048-.013.028.042,2.9,4.353.042.063-.055.053a50.346,50.346,0,0,1-5.142,4.307q-1.464,1.071-3.1,2.091a13.224,13.224,0,0,1-1.711.943,3.94,3.94,0,0,1-1.977.377h.012l-.169-.008a5.938,5.938,0,0,1-2.553-.795,5.144,5.144,0,0,1-1.836-1.84,6.429,6.429,0,0,1-.53-1.163,7.943,7.943,0,0,1-.27-1.221q-.041-.306-.081-.61-.022-.3-.043-.6-.04-.6-.078-1.181c-.185-3.112-.263-5.917-.316-8.273s-.065-4.263-.065-5.581c.005-.648.009-1.156.012-1.517,0-.164.008-.294.011-.395a.618.618,0,0,1,.011-.135" transform="translate(-311.883 -104.63)" fill="#263238"/>
              <path id="Trazado_180033" data-name="Trazado 180033" d="M603.881,216.793c0,.015-.1.028-.293.039a4.892,4.892,0,0,1-.8-.029,6.643,6.643,0,0,1-1.173-.237,8.15,8.15,0,0,1-1.354-.563,11.573,11.573,0,0,1-2.171-1.522,4.614,4.614,0,0,1-.776-.776,6.781,6.781,0,0,1,.874.656,15.024,15.024,0,0,0,2.174,1.448,9.253,9.253,0,0,0,1.313.564,7.949,7.949,0,0,0,1.134.276c.658.107,1.076.105,1.076.143" transform="translate(-348.403 -124.103)" fill="#263238"/>
              <path id="Trazado_180034" data-name="Trazado 180034" d="M609.81,202.039a6.919,6.919,0,0,0-4.126-1.052,4.368,4.368,0,0,1,4.126,1.052" transform="translate(-353.287 -116.625)" fill="#263238"/>
              <path id="Trazado_180035" data-name="Trazado 180035" d="M607.833,199.129c0,.065-.587.057-1.265.252s-1.176.5-1.212.444a2.763,2.763,0,0,1,2.477-.7" transform="translate(-353.095 -115.594)" fill="#263238"/>
              <path id="Trazado_180036" data-name="Trazado 180036" d="M558.393,248.593c-.013.021-.191-.052-.407-.27a2.115,2.115,0,0,1-.4-2.241c.126-.281.267-.412.286-.4s-.062.178-.143.45a2.393,2.393,0,0,0,.377,2.087c.17.226.311.342.291.371" transform="translate(-325.137 -142.674)" fill="#263238"/>
              <path id="Trazado_180037" data-name="Trazado 180037" d="M567.853,249.773c-.011.022-.21-.045-.473-.255a2.64,2.64,0,0,1-.923-2.351c.05-.334.149-.519.172-.511s-.011.208-.019.524a3.064,3.064,0,0,0,.873,2.223c.221.226.387.339.37.369" transform="translate(-330.394 -143.239)" fill="#263238"/>
              <path id="Trazado_180038" data-name="Trazado 180038" d="M577.554,250.789c-.013.022-.19-.047-.418-.251a2.359,2.359,0,0,1-.7-2.178c.067-.3.17-.459.193-.449a3.059,3.059,0,0,0,.924,2.878" transform="translate(-336.201 -143.968)" fill="#263238"/>
              <path id="Trazado_180039" data-name="Trazado 180039" d="M587.444,248.811c-.064,0-.119-.582-.333-1.261s-.493-1.194-.439-1.228a3.251,3.251,0,0,1,.772,2.49" transform="translate(-342.194 -143.044)" fill="#263238"/>
              <path id="Trazado_180040" data-name="Trazado 180040" d="M597.014,244.446a6.049,6.049,0,0,0-.972-3.015,3.143,3.143,0,0,1,.972,3.015" transform="translate(-347.661 -140.204)" fill="#263238"/>
              <path id="Trazado_180041" data-name="Trazado 180041" d="M603.909,240.55c-.065,0-.052-.7-.337-1.484s-.723-1.321-.673-1.364a3.083,3.083,0,0,1,1.01,2.848" transform="translate(-351.661 -138.038)" fill="#263238"/>
              <path id="Trazado_180042" data-name="Trazado 180042" d="M609.386,236.682a4.8,4.8,0,0,0-1.343-2.659,2.668,2.668,0,0,1,1.343,2.659" transform="translate(-354.662 -135.9)" fill="#263238"/>
              <g id="Grupo_112533" data-name="Grupo 112533" transform="translate(226.883 87.685)" opacity="0.3">
                <g id="Grupo_112532" data-name="Grupo 112532">
                  <g id="Grupo_112531" data-name="Grupo 112531" clip-path="url(#clip-path-11)">
                    <path id="Trazado_180043" data-name="Trazado 180043" d="M548.413,209.6a2.655,2.655,0,0,0-3.669.65,1.334,1.334,0,0,0-.285.745.672.672,0,0,0,.4.643,1.04,1.04,0,0,0,1.009-.4,4.98,4.98,0,0,1,2.628-1.526" transform="translate(-544.459 -209.134)"/>
                  </g>
                </g>
              </g>
              <g id="Grupo_112536" data-name="Grupo 112536" transform="translate(252.312 83.425)" opacity="0.3">
                <g id="Grupo_112535" data-name="Grupo 112535">
                  <g id="Grupo_112534" data-name="Grupo 112534" clip-path="url(#clip-path-12)">
                    <path id="Trazado_180044" data-name="Trazado 180044" d="M605.556,199.917a12.311,12.311,0,0,1,3.322.505.778.778,0,0,0,.587-.086.5.5,0,0,0,.177-.431.774.774,0,0,0-.193-.436,1.8,1.8,0,0,0-1.377-.5,5.606,5.606,0,0,0-1.534.188,1.607,1.607,0,0,0-1.056.678" transform="translate(-605.481 -198.973)"/>
                  </g>
                </g>
              </g>
              <path id="Trazado_180045" data-name="Trazado 180045" d="M534.78,184.12a1.628,1.628,0,0,0,.464.874.628.628,0,0,0,.83.086c.143-.128.215-.346.4-.405.233-.075.467.164.709.13.371-.053.445-.667.815-.723.354-.053.627.467.972.371s.3-.629.6-.808c.258-.158.581.051.8.265s.476.467.77.4c.49-.12.5-1,1-1.061.354-.046.7.39,1.014.224.15-.079.211-.262.335-.378.235-.22.607-.14.92-.069s.714.083.876-.2a5.653,5.653,0,0,0-2.382-.4,1.286,1.286,0,0,1-.826-.123c-.159-.114-.285-.318-.48-.31-.174.006-.292.184-.456.242-.263.094-.53-.14-.664-.386a1.818,1.818,0,0,0-.455-.695.819.819,0,0,0-1.067.293,2.417,2.417,0,0,0-.33,1.172c-.435-.138-.425-.911-.873-.992-.282-.05-.509.23-.625.493s-.218.572-.478.692l-.618-1.02a1.253,1.253,0,0,1-1.232,1.067" transform="translate(-311.93 -105.14)" fill="#fff"/>
              <path id="Trazado_180046" data-name="Trazado 180046" d="M576.064,169.75l.367-.716a.809.809,0,0,0,1.3-.245c.107-.3.042-.67.261-.9a.627.627,0,0,1,.76-.039,1.857,1.857,0,0,1,.541.613,2.07,2.07,0,0,1,.438-.8.7.7,0,0,1,.838-.146c.166.11.294.325.493.308.373-.033.236-.733.574-.9.311-.151.661.318.98.187.262-.108.264-.528.52-.652.38-.184.734.483,1.146.392.2-.044.316-.248.488-.358a.772.772,0,0,1,.879.117,2.29,2.29,0,0,1,.533.781,1.661,1.661,0,0,1,.22.671.565.565,0,0,1-.341.567c-.448.142-.868-.51-1.316-.363-.335.109-.45.613-.8.655s-.582-.444-.942-.489c-.434-.055-.644.506-.967.8a.982.982,0,0,1-1.473-.268l-.657.409a.832.832,0,0,0-1.245.488c.042-.211-.223-.376-.431-.323a.965.965,0,0,0-.481.406.965.965,0,0,1-.482.405c-.327.083-.672-.19-.993-.088-.343.109-.541.613-.894.543-.3-.06-.338-.523-.122-.74a1.28,1.28,0,0,1,.852-.27" transform="translate(-335.463 -96.635)" fill="#fff"/>
              <path id="Trazado_180047" data-name="Trazado 180047" d="M562.526,196a.579.579,0,0,0-.376-.547.572.572,0,0,0-.631.2c-.122.164-.169.408-.358.483-.323.128-.641-.382-.969-.264-.293.1-.274.606-.568.708-.222.078-.434-.137-.551-.342s-.238-.452-.469-.5c-.293-.057-.52.252-.63.53s-.223.61-.507.7c-.382.122-.711-.284-.911-.634s-.529-.756-.911-.633a.9.9,0,0,0-.445.468l-1.1,1.957.023,2.176c.511.019.6-.5.637-1.013a.965.965,0,0,0,1.133.369,3.648,3.648,0,0,0,1.093-.678,1.944,1.944,0,0,1,1.169-.492c.308.008.636.141.909,0,.3-.158.362-.561.567-.835a1.5,1.5,0,0,1,1.107-.482,3.894,3.894,0,0,0,1.223-.186.88.88,0,0,0,.57-.984" transform="translate(-323.197 -113.49)" fill="#fff"/>
              <path id="Trazado_180048" data-name="Trazado 180048" d="M605,192.162a2.7,2.7,0,0,0-.066-.752c-.022-.252.075-.559.32-.615a.6.6,0,0,1,.526.244,1.039,1.039,0,0,0,.475.364c.184-.21.015-.557.129-.812a.529.529,0,0,1,.708-.184,1.551,1.551,0,0,1,.555.588c.082-.278.487-.333.724-.166a1.4,1.4,0,0,1,.439.733.479.479,0,0,1,.023.372.409.409,0,0,1-.265.174,1.547,1.547,0,0,1-1.018-.063.6.6,0,0,0-.364-.084c-.251.064-.28.457-.521.55-.16.062-.347-.039-.508.018s-.239.251-.392.332a.448.448,0,0,1-.511-.123,1.334,1.334,0,0,1-.255-.5l.053-.036" transform="translate(-352.849 -110.539)" fill="#fff"/>
              <path id="Trazado_180049" data-name="Trazado 180049" d="M605.122,212.993c-.042.223.251.367.474.332a2.529,2.529,0,0,1,.661-.135,1.759,1.759,0,0,1,.491.208,1.192,1.192,0,0,0,1.266-.2,1.3,1.3,0,0,0,.146.649.442.442,0,0,0,.575.182.906.906,0,0,0,.248-.366c.07-.131.2-.262.345-.231s.2.171.287.274a.848.848,0,0,0,1.237-.133,2.491,2.491,0,0,0,.424-1.339c.024-.208.028-.46-.145-.575a.387.387,0,0,0-.477.1,1.141,1.141,0,0,0-.218.482.939.939,0,0,0-.793-1.157.847.847,0,0,0-.8,1.09,1.641,1.641,0,0,0-.206-.561.549.549,0,0,0-.5-.263c-.31.044-.453.406-.527.712s-.191.67-.5.746c-.385.1-.675-.342-1.029-.524a.872.872,0,0,0-.907.083Z" transform="translate(-352.958 -122.58)" fill="#fff"/>
              <path id="Trazado_180050" data-name="Trazado 180050" d="M553.894,234.29s-.531,1.882-.556,1.882c0,0,.549-.328.783-.247s.459.259.7.2c.38-.1.46-.708.847-.773a.681.681,0,0,1,.473.16.932.932,0,0,0,.459.211c.17.007.358-.143.315-.31a.888.888,0,0,0,1.015.658,3.268,3.268,0,0,0,1.219-.54,1.809,1.809,0,0,1,1.271-.323,5.015,5.015,0,0,1,.777.351.736.736,0,0,0,.8-.068c.118-.12.169-.3.311-.4a.57.57,0,0,1,.595.076,1.447,1.447,0,0,0,.559.288.8.8,0,0,0,.739-.511c.141-.288.192-.615.336-.9a.785.785,0,0,1,.749-.493c.158.025.318.123.466.063.3-.123.121-.673.395-.847a.583.583,0,0,1,.476.018,2.768,2.768,0,0,0,2.06-.193,1.4,1.4,0,0,0-1.035-.607,4.124,4.124,0,0,0-1.232.086,2.08,2.08,0,0,0-1.02.369c-.132.112-.257.265-.429.266-.3,0-.482-.467-.774-.4-.264.063-.251.481-.476.635s-.523-.044-.73-.227-.527-.36-.73-.173-.15.614-.415.644-.3-.391-.485-.586a.507.507,0,0,0-.747.161,1.489,1.489,0,0,0-.133.861,2.087,2.087,0,0,0-.746-.851.715.715,0,0,0-.982.26c-.042.105-.055.231-.142.3-.124.1-.319.025-.422-.1s-.155-.285-.258-.408a.627.627,0,0,0-.79-.124.636.636,0,0,0-.231.77,1.6,1.6,0,0,0-2.8.712Z" transform="translate(-322.755 -134.709)" fill="#fff"/>
              <path id="Trazado_180051" data-name="Trazado 180051" d="M537.417,223.117c.794.366,1.543.749,2.054.037a1.174,1.174,0,0,0,2.11-.032c.183-.387.189-.909.557-1.122.437-.253.949.156,1.445.247a1.956,1.956,0,0,0,1.633-.71,5.954,5.954,0,0,1,1.371-1.237c.491-.25,1.2-.439,1.2-.992,0-.5-.68-.735-1.143-.553a5.475,5.475,0,0,0-1.183.9,1.109,1.109,0,0,1-1.368.134c-.209-.192-.343-.538-.625-.532-.31.006-.41.417-.426.729s-.146.722-.455.7c-.333-.028-.369-.511-.593-.76-.332-.369-1.006-.06-1.153.416a2.17,2.17,0,0,0,.245,1.441l-1.636-2.148q-.23.8-.46,1.6a3.172,3.172,0,0,0-1.2-1.07.97.97,0,0,0-1.316.39c-.113.143.472,2.34.946,2.557" transform="translate(-312.908 -127.001)" fill="#fff"/>
              <path id="Trazado_180052" data-name="Trazado 180052" d="M602.249,225.708c-.118.128.013.311.044.483a1.452,1.452,0,0,1,.054.518c-.032.172-.2.336-.363.29-.091-.025-.158-.1-.245-.143-.217-.1-.447.086-.671.165-.731.26-1.532-.6-2.25-.3-.4.165-.7.669-1.125.584a.613.613,0,0,1-.407-.724,1.371,1.371,0,0,1,.512-.745,4.465,4.465,0,0,0,.683-.614c.146-.187.295-.439.531-.425.314.018.509.515.805.41a.4.4,0,0,0,.2-.418,1.371,1.371,0,0,1-.005-.494.577.577,0,0,1,.838-.218,1.693,1.693,0,0,1,.677.721Z" transform="translate(-348.383 -130.073)" fill="#fff"/>
              <path id="Trazado_180053" data-name="Trazado 180053" d="M264.041,65.5H85.639a5.586,5.586,0,0,0-5.569,5.6V197.889a5.586,5.586,0,0,0,5.569,5.6h68.47s4.355,13.551-9.146,20.563h64.023s-15.244-5.259-11.325-20.563h66.38a5.586,5.586,0,0,0,5.569-5.6V71.105a5.586,5.586,0,0,0-5.569-5.6" transform="translate(-46.704 -38.039)" fill="#455a64"/>
              <path id="Trazado_180054" data-name="Trazado 180054" d="M302.793,361.333c2.427,3.49-1.371,7.311-4.841,4.87a1.245,1.245,0,0,1-.3-.3c-2.42-3.489,1.374-7.305,4.841-4.869a1.226,1.226,0,0,1,.3.3" transform="translate(-173.172 -209.213)" fill="#263238"/>
              <path id="Trazado_180055" data-name="Trazado 180055" d="M270.838,183.515H87.442V75.108a4.053,4.053,0,0,1,4.041-4.066H266.8a4.054,4.054,0,0,1,4.041,4.066Z" transform="translate(-51.004 -41.256)" fill="#e0e0e0"/>
              <path id="Trazado_180056" data-name="Trazado 180056" d="M286.285,394.511c0,.06-25.387.108-56.7.108s-56.7-.048-56.7-.108,25.382-.108,56.7-.108,56.7.048,56.7.108" transform="translate(-100.843 -229.04)" fill="#263238"/>
              <rect id="Rectángulo_38006" data-name="Rectángulo 38006" width="141.837" height="105.208" transform="translate(56.419 33.419)" fill="#fff"/>
              <path id="Trazado_180057" data-name="Trazado 180057" d="M277.143,184.833H134.889V79.206H277.143Zm-141.837-.419H276.727V79.625H135.306Z" transform="translate(-78.679 -45.997)" fill="#263238"/>
              <path id="Trazado_180058" data-name="Trazado 180058" d="M148.647,89.69a1,1,0,1,1-1-1,1,1,0,0,1,1,1" transform="translate(-85.541 -51.503)" fill="#263238"/>
              <path id="Trazado_180059" data-name="Trazado 180059" d="M155.775,89.69a1,1,0,1,1-1-1,1,1,0,0,1,1,1" transform="translate(-89.699 -51.503)" fill="#263238"/>
              <path id="Trazado_180060" data-name="Trazado 180060" d="M162.554,89.69a1,1,0,1,1-1-1,1,1,0,0,1,1,1" transform="translate(-93.653 -51.503)" fill="#263238"/>
              <path id="Trazado_180061" data-name="Trazado 180061" d="M301.987,103.349l-7.736-2.867-7.661,2.828c-.978.477-1.836.762-1.836,1.7v4.681a18.122,18.122,0,0,0,2.524,9.317,15.891,15.891,0,0,0,7.048,6.424c3.132-1.05,5.469-3.848,6.9-6.242a18.119,18.119,0,0,0,2.524-9.317v-4.21a2.195,2.195,0,0,0-1.761-2.318" transform="translate(-166.094 -58.352)" fill="#78dfde"/>
              <g id="Grupo_112539" data-name="Grupo 112539" transform="translate(118.662 42.13)" opacity="0.8">
                <g id="Grupo_112538" data-name="Grupo 112538">
                  <g id="Grupo_112537" data-name="Grupo 112537" clip-path="url(#clip-path-13)">
                    <path id="Trazado_180062" data-name="Trazado 180062" d="M301.987,103.349l-7.736-2.867-7.661,2.828c-.978.477-1.836.762-1.836,1.7v4.681a18.122,18.122,0,0,0,2.524,9.317,15.891,15.891,0,0,0,7.048,6.424c3.132-1.05,5.469-3.848,6.9-6.242a18.119,18.119,0,0,0,2.524-9.317v-4.21a2.195,2.195,0,0,0-1.761-2.318" transform="translate(-284.755 -100.482)" fill="#fff"/>
                  </g>
                </g>
              </g>
              <path id="Trazado_180063" data-name="Trazado 180063" d="M305.259,115.418h-1.72V106a4,4,0,1,0-7.993,0v9.42h-1.72V106a5.717,5.717,0,1,1,11.433,0Z" transform="translate(-171.385 -58.215)" fill="#78dfde"/>
              <g id="Grupo_112542" data-name="Grupo 112542" transform="translate(122.441 42.031)" opacity="0.4">
                <g id="Grupo_112541" data-name="Grupo 112541">
                  <g id="Grupo_112540" data-name="Grupo 112540" clip-path="url(#clip-path-14)">
                    <path id="Trazado_180064" data-name="Trazado 180064" d="M305.259,115.418h-1.72V106a4,4,0,1,0-7.993,0v9.42h-1.72V106a5.717,5.717,0,1,1,11.433,0Z" transform="translate(-293.826 -100.246)"/>
                  </g>
                </g>
              </g>
              <path id="Trazado_180065" data-name="Trazado 180065" d="M302.043,136.384H291.479a2.429,2.429,0,0,1-2.422-2.436v-5.073a2.429,2.429,0,0,1,2.422-2.436h10.565a2.429,2.429,0,0,1,2.422,2.436v5.073a2.429,2.429,0,0,1-2.422,2.436" transform="translate(-168.603 -73.426)" fill="#78dfde"/>
              <g id="Grupo_112545" data-name="Grupo 112545" transform="translate(126.87 55.394)" opacity="0.5">
                <g id="Grupo_112544" data-name="Grupo 112544">
                  <g id="Grupo_112543" data-name="Grupo 112543" clip-path="url(#clip-path-15)">
                    <path id="Trazado_180066" data-name="Trazado 180066" d="M307.03,133.414a1.288,1.288,0,1,0-1.639,1.241v1.937h.7v-1.937a1.29,1.29,0,0,0,.936-1.241" transform="translate(-304.454 -132.118)"/>
                  </g>
                </g>
              </g>
              <path id="Trazado_180067" data-name="Trazado 180067" d="M290.939,137.648c-.035,0-.064-1.659-.064-3.7s.029-3.7.064-3.7.064,1.658.064,3.7-.029,3.7-.064,3.7" transform="translate(-169.664 -75.633)" fill="#dedede"/>
              <path id="Trazado_180068" data-name="Trazado 180068" d="M303.941,134.571c0,.006-.06-.02-.151-.086a1.577,1.577,0,0,1-.332-.34,1.822,1.822,0,0,1,.641-2.725,1.58,1.58,0,0,1,.448-.154.394.394,0,0,1,.173-.009,4.008,4.008,0,0,0-.578.243,1.8,1.8,0,0,0-.61,2.593,4.039,4.039,0,0,0,.408.478" transform="translate(-176.791 -76.221)" fill="#dedede"/>
              <path id="Trazado_180069" data-name="Trazado 180069" d="M276.64,141.539a.6.6,0,0,1,0,.844.591.591,0,0,1-.839,0,.6.6,0,0,1,0-.844.591.591,0,0,1,.839,0" transform="translate(-160.77 -82.094)" fill="#78dfde"/>
              <path id="Trazado_180070" data-name="Trazado 180070" d="M339.592,104.658a.593.593,0,1,1-.593-.6.6.6,0,0,1,.593.6" transform="translate(-197.387 -60.431)" fill="#78dfde"/>
              <path id="Trazado_180071" data-name="Trazado 180071" d="M285.078,155.872a.151.151,0,1,1-.151-.152.151.151,0,0,1,.151.152" transform="translate(-166.106 -90.43)" fill="#78dfde"/>
              <path id="Trazado_180072" data-name="Trazado 180072" d="M285.078,115.6a.151.151,0,1,1-.151-.152.151.151,0,0,1,.151.152" transform="translate(-166.106 -67.046)" fill="#78dfde"/>
              <path id="Trazado_180073" data-name="Trazado 180073" d="M341.555,135a.151.151,0,1,1-.151-.152.151.151,0,0,1,.151.152" transform="translate(-199.048 -78.31)" fill="#78dfde"/>
              <path id="Trazado_180074" data-name="Trazado 180074" d="M346.584,118.129a.151.151,0,1,1-.151-.152.151.151,0,0,1,.151.152" transform="translate(-201.982 -68.512)" fill="#78dfde"/>
              <path id="Trazado_180075" data-name="Trazado 180075" d="M283.693,191.412c0,.06-24.5.109-54.724.109s-54.729-.049-54.729-.109,24.5-.109,54.729-.109,54.724.049,54.724.109" transform="translate(-101.632 -111.094)" fill="#263238"/>
              <path id="Trazado_180076" data-name="Trazado 180076" d="M293.2,204.925a.868.868,0,0,1-.16.011l-.469.011-1.8.02-6.63.035-21.873.032L240.39,205l-6.63-.035-1.8-.02-.469-.011a.08.08,0,1,1,0-.023l.469-.011,1.8-.02,6.63-.035,21.877-.032,21.873.032,6.63.035,1.8.02.469.011a.863.863,0,0,1,.16.011" transform="translate(-134.931 -118.942)" fill="#263238"/>
              <path id="Trazado_180077" data-name="Trazado 180077" d="M228.208,232.119h-5.941a2.649,2.649,0,0,1-2.64-2.657v-9.881a2.649,2.649,0,0,1,2.64-2.656h5.941a2.649,2.649,0,0,1,2.64,2.656v9.881a2.649,2.649,0,0,1-2.64,2.657" transform="translate(-128.106 -125.974)" fill="#e0e0e0"/>
              <path id="Trazado_180078" data-name="Trazado 180078" d="M264.446,232.119h-5.941a2.649,2.649,0,0,1-2.64-2.657v-9.881a2.649,2.649,0,0,1,2.64-2.656h5.941a2.648,2.648,0,0,1,2.64,2.656v9.881a2.648,2.648,0,0,1-2.64,2.657" transform="translate(-149.243 -125.974)" fill="#e0e0e0"/>
              <path id="Trazado_180079" data-name="Trazado 180079" d="M300.685,232.119h-5.941a2.649,2.649,0,0,1-2.64-2.657v-9.881a2.649,2.649,0,0,1,2.64-2.656h5.941a2.649,2.649,0,0,1,2.64,2.656v9.881a2.649,2.649,0,0,1-2.64,2.657" transform="translate(-170.381 -125.974)" fill="#e0e0e0"/>
              <path id="Trazado_180080" data-name="Trazado 180080" d="M336.923,232.119h-5.941a2.649,2.649,0,0,1-2.64-2.657v-9.881a2.649,2.649,0,0,1,2.64-2.656h5.941a2.649,2.649,0,0,1,2.64,2.656v9.881a2.649,2.649,0,0,1-2.64,2.657" transform="translate(-191.518 -125.974)" fill="#e0e0e0"/>
              <path id="Trazado_180081" data-name="Trazado 180081" d="M373.162,232.119h-5.941a2.649,2.649,0,0,1-2.64-2.657v-9.881a2.649,2.649,0,0,1,2.64-2.656h5.941a2.649,2.649,0,0,1,2.64,2.656v9.881a2.649,2.649,0,0,1-2.64,2.657" transform="translate(-212.655 -125.974)" fill="#e0e0e0"/>
              <path id="Trazado_180082" data-name="Trazado 180082" d="M232.8,231.8v.431h-4.481v-.337l2.757-2.756c.773-.778.923-1.237.923-1.734,0-.825-.568-1.34-1.649-1.34a2.313,2.313,0,0,0-1.873.759l-.335-.3a2.862,2.862,0,0,1,2.245-.9c1.276,0,2.1.665,2.1,1.734a2.707,2.707,0,0,1-1.062,2.034l-2.4,2.409Z" transform="translate(-133.073 -131.025)"/>
              <path id="Trazado_180083" data-name="Trazado 180083" d="M262.756,228.95c0-2.052,1.053-3.327,2.552-3.327s2.552,1.275,2.552,3.327-1.053,3.327-2.552,3.327-2.552-1.275-2.552-3.327m4.63,0c0-1.827-.848-2.887-2.077-2.887s-2.077,1.059-2.077,2.887.848,2.887,2.077,2.887,2.077-1.059,2.077-2.887" transform="translate(-153.262 -131.025)"/>
              <path id="Trazado_180084" data-name="Trazado 180084" d="M305.278,225.735v.338l-2.8,6.223h-.521l2.776-6.129h-3.661v1.256H300.6v-1.687Z" transform="translate(-175.337 -131.09)"/>
              <path id="Trazado_180085" data-name="Trazado 180085" d="M340.229,230.477H338.86V232.3h-.466v-1.818h-3.717v-.347l3.539-4.4h.531l-3.475,4.321h3.13v-1.6h.456v1.6h1.369Z" transform="translate(-195.213 -131.09)"/>
              <path id="Trazado_180086" data-name="Trazado 180086" d="M377.007,245.562a61.029,61.029,0,0,1-7.292,0,61.029,61.029,0,0,1,7.292,0" transform="translate(-215.65 -142.541)" fill="#ff4f5b"/>
              <path id="Trazado_180087" data-name="Trazado 180087" d="M289.541,286.544H259.863a6.752,6.752,0,0,1-6.731-6.772v-.4a6.752,6.752,0,0,1,6.731-6.772h29.678a6.752,6.752,0,0,1,6.731,6.772v.4a6.752,6.752,0,0,1-6.731,6.772" transform="translate(-147.649 -158.303)" fill="#79f5ed"/>
              <rect id="Rectángulo_38010" data-name="Rectángulo 38010" width="31.085" height="4.298" transform="translate(14.347 159.64)" fill="#263238"/>
              <path id="Trazado_180088" data-name="Trazado 180088" d="M65.492,385.029H34.3v-4.4H65.492Zm-31.084-.107H65.386v-4.191H34.408Z" transform="translate(-20.007 -221.038)" fill="#263238"/>
              <path id="Trazado_180089" data-name="Trazado 180089" d="M41.345,387.59,45.819,409.8H62.375L66.7,389.021Z" transform="translate(-24.116 -225.083)" fill="#263238"/>
              <path id="Trazado_180090" data-name="Trazado 180090" d="M41.345,435.55l2.387,3.3H63.854l2.846-3.3Z" transform="translate(-24.116 -252.935)" fill="#455a64"/>
              <path id="Trazado_180091" data-name="Trazado 180091" d="M68.656,325.48c-.061,0-.14-10.289-.175-22.978s-.015-22.981.047-22.981.139,10.287.175,22.981.015,22.979-.047,22.979" transform="translate(-39.934 -162.325)" fill="#263238"/>
              <path id="Trazado_180092" data-name="Trazado 180092" d="M81.535,327.726a1.083,1.083,0,0,1-.083.239l-.278.666-.2.48-.207.584-.24.67c-.083.237-.149.5-.23.764a31.263,31.263,0,0,0-.869,3.829,46.764,46.764,0,0,0-.481,4.789,64.963,64.963,0,0,0,.245,8.747c.1,1.117.2,2.019.275,2.642.032.292.058.53.078.719a1.1,1.1,0,0,1,.012.253,1.1,1.1,0,0,1-.057-.246l-.12-.713c-.1-.62-.225-1.521-.345-2.638a57.946,57.946,0,0,1-.311-8.773,43.812,43.812,0,0,1,.5-4.812,29.1,29.1,0,0,1,.921-3.842c.087-.268.158-.526.246-.764l.257-.668.225-.58c.077-.175.155-.332.222-.474l.316-.651a1.071,1.071,0,0,1,.123-.22" transform="translate(-45.889 -190.318)" fill="#263238"/>
              <path id="Trazado_180093" data-name="Trazado 180093" d="M77.986,307.878a2.113,2.113,0,0,1-.1.339l-.324.957-.238.689-.25.831c-.182.6-.393,1.272-.58,2.033l-.312,1.189q-.141.626-.291,1.3c-.218.9-.374,1.868-.574,2.885-.343,2.044-.644,4.3-.853,6.686s-.282,4.664-.312,6.736c-.006,2.073.02,3.941.1,5.508.028.784.078,1.492.118,2.114s.075,1.158.114,1.594q.048.632.076,1.008a2.036,2.036,0,0,1,.011.353,2.151,2.151,0,0,1-.056-.348l-.118-1c-.053-.436-.1-.971-.152-1.593s-.113-1.33-.15-2.114c-.1-1.568-.147-3.439-.152-5.517.019-2.078.1-4.363.3-6.754s.518-4.655.872-6.7c.206-1.018.37-1.992.6-2.889l.3-1.3.327-1.19c.2-.761.419-1.436.613-2.029l.268-.827.256-.685.363-.943a2.072,2.072,0,0,1,.14-.323" transform="translate(-43.134 -178.792)" fill="#263238"/>
              <path id="Trazado_180094" data-name="Trazado 180094" d="M55.917,329.227a.507.507,0,0,1-.018-.12c-.008-.092-.017-.209-.03-.354-.022-.328-.053-.784-.091-1.363-.075-1.2-.181-2.908-.312-5.012-.27-4.231-.66-10.076-1.368-16.5-.362-3.214-.781-6.267-1.217-9.034-.232-1.381-.442-2.7-.68-3.919-.218-1.226-.454-2.362-.671-3.4s-.432-1.971-.615-2.792-.355-1.526-.5-2.1l-.323-1.326-.078-.346a.488.488,0,0,1-.02-.12.5.5,0,0,1,.041.114l.1.341.363,1.316c.159.571.345,1.272.537,2.093s.434,1.749.648,2.787.472,2.172.7,3.4c.247,1.223.464,2.538.7,3.92.447,2.769.873,5.825,1.235,9.042.708,6.435,1.074,12.286,1.3,16.519.114,2.118.194,3.832.242,5.017.021.58.038,1.036.05,1.365,0,.146.005.262.008.355a.5.5,0,0,1,0,.122" transform="translate(-29.161 -164.252)" fill="#263238"/>
              <path id="Trazado_180095" data-name="Trazado 180095" d="M54.631,287.755a3.086,3.086,0,0,0-3.054-2.572,4.8,4.8,0,0,0-3.7,2.021,11.691,11.691,0,0,0-1.782,3.98,27.2,27.2,0,0,0-1.1,10.59,16.07,16.07,0,0,0,4.38,9.548,1.789,1.789,0,0,0,1.509.694,1.816,1.816,0,0,0,.8-.495A23.77,23.77,0,0,0,59.327,293.5a7.354,7.354,0,0,0-.958-3.877c-.743-1.124-2.473-2.317-3.737-1.866" transform="translate(-26.163 -165.612)" fill="#c9fbf8"/>
              <path id="Trazado_180096" data-name="Trazado 180096" d="M31.154,256.082,29.1,259.816c-.048.087-.111.185-.209.193s-.188-.094-.247-.184l-5.418-8.366,1.248-.712Z" transform="translate(-13.55 -145.615)" fill="#5bb8b2"/>
              <path id="Trazado_180097" data-name="Trazado 180097" d="M42.1,257.21,23.617,246.237a.865.865,0,0,1-.45-.457c-.074-.275.132-.54.329-.745a12.7,12.7,0,0,1,9.877-3.9,11.276,11.276,0,0,1,8.929,5.588,10.3,10.3,0,0,1-.2,10.491" transform="translate(-13.504 -140.014)" fill="#c9fbf8"/>
              <path id="Trazado_180098" data-name="Trazado 180098" d="M30.659,244.9a1,1,0,0,1,.242-.03c.159-.008.395-.037.7-.034a13.786,13.786,0,0,1,2.564.205,15.137,15.137,0,0,1,7.572,3.675,15.3,15.3,0,0,1,4.39,7.215,14.084,14.084,0,0,1,.458,2.547,5.273,5.273,0,0,1,.028.542.924.924,0,0,1-.143.406,3.146,3.146,0,0,0,.028-.939,15.916,15.916,0,0,0-.523-2.513A15.364,15.364,0,0,0,31.6,244.927c-.6-.013-.939,0-.94-.023" transform="translate(-17.883 -142.183)" fill="#263238"/>
              <path id="Trazado_180099" data-name="Trazado 180099" d="M53.3,261.451a4.462,4.462,0,0,1-.934.427c-.589.234-1.411.532-2.332.826s-1.764.528-2.379.679a4.451,4.451,0,0,1-1.008.194,5,5,0,0,1,.966-.345l2.354-.74,2.347-.762a5,5,0,0,1,.987-.279" transform="translate(-27.21 -151.828)" fill="#263238"/>
              <path id="Trazado_180100" data-name="Trazado 180100" d="M55.579,242.7a13.1,13.1,0,0,1,.1,4.157,39.164,39.164,0,0,1-.1-4.157" transform="translate(-32.398 -140.941)" fill="#263238"/>
              <path id="Trazado_180101" data-name="Trazado 180101" d="M23.88,249.68a8.269,8.269,0,0,1,1.343-.475c.84-.26,2.009-.59,3.312-.906s2.494-.558,3.36-.711a8.235,8.235,0,0,1,1.41-.192,9.828,9.828,0,0,1-1.379.346c-.856.192-2.038.458-3.339.773s-2.472.62-3.322.841a9.864,9.864,0,0,1-1.385.324" transform="translate(-13.929 -143.665)" fill="#263238"/>
              <path id="Trazado_180102" data-name="Trazado 180102" d="M20.8,281.854a7.548,7.548,0,0,0-5.264-1.372,16.008,16.008,0,0,0-5.76,1.5,17.774,17.774,0,0,0-7.908,6.262,10.508,10.508,0,0,0-1.116,9.78,1.392,1.392,0,0,0,.632.77,1.5,1.5,0,0,0,1.043-.08A58.138,58.138,0,0,0,12.8,294.551a19.626,19.626,0,0,0,7.974-7.667,6.619,6.619,0,0,0,.839-2.544,3.176,3.176,0,0,0-.813-2.485" transform="translate(0 -162.875)" fill="#c9fbf8"/>
              <path id="Trazado_180103" data-name="Trazado 180103" d="M22.543,282.875a1.275,1.275,0,0,1-.255.1l-.743.257-.538.181c-.2.07-.4.158-.628.246-.448.183-.969.365-1.517.633l-.869.4c-.3.14-.6.312-.921.475-.643.317-1.292.723-1.984,1.134a34.376,34.376,0,0,0-4.2,3.132,34.5,34.5,0,0,0-3.622,3.79c-.493.638-.976,1.236-1.371,1.836-.2.3-.41.575-.586.858l-.5.817c-.334.513-.58,1.009-.817,1.434-.115.214-.228.41-.323.6l-.246.514-.348.709a1.279,1.279,0,0,1-.135.241,1.321,1.321,0,0,1,.095-.259l.311-.727.23-.524c.089-.189.2-.389.308-.606.228-.431.465-.936.792-1.457l.494-.829c.174-.287.379-.569.579-.87.391-.609.871-1.214,1.363-1.86a33.22,33.22,0,0,1,3.635-3.828,33.093,33.093,0,0,1,4.236-3.139c.7-.409,1.357-.811,2.007-1.124.322-.161.627-.33.932-.467l.88-.387c.555-.26,1.083-.433,1.537-.605.229-.082.439-.165.637-.23l.545-.162.757-.218a1.244,1.244,0,0,1,.268-.061" transform="translate(-1.714 -164.272)" fill="#263238"/>
              <path id="Trazado_180104" data-name="Trazado 180104" d="M9.275,299.005a37.174,37.174,0,0,1-3.866,1.253A37.087,37.087,0,0,1,1.48,301.3a37.174,37.174,0,0,1,3.867-1.254,37.117,37.117,0,0,1,3.928-1.039" transform="translate(-0.863 -173.637)" fill="#263238"/>
              <path id="Trazado_180105" data-name="Trazado 180105" d="M19.663,308.031a6.262,6.262,0,0,1-.085-1.212c-.02-.749-.024-1.785.008-2.929s.093-2.178.155-2.925a6.245,6.245,0,0,1,.153-1.205,7.045,7.045,0,0,1,0,1.214c-.025.821-.056,1.819-.09,2.922s-.052,2.1-.073,2.922a6.954,6.954,0,0,1-.072,1.212" transform="translate(-11.411 -174.078)" fill="#263238"/>
              <path id="Trazado_180106" data-name="Trazado 180106" d="M36.412,297.508c-.061,0-.255-2.1-.434-4.7s-.274-4.713-.213-4.717.255,2.1.434,4.7.274,4.712.213,4.716" transform="translate(-20.85 -167.301)" fill="#263238"/>
              <path id="Trazado_180107" data-name="Trazado 180107" d="M15.511,287.549a6.893,6.893,0,0,1,1.239-.038c.764.005,1.819.028,2.984.067s2.219.086,2.982.132a6.8,6.8,0,0,1,1.234.12,6.831,6.831,0,0,1-1.238.037c-.764-.005-1.82-.028-2.986-.067s-2.22-.086-2.983-.132a6.83,6.83,0,0,1-1.232-.12" transform="translate(-9.047 -166.964)" fill="#263238"/>
              <path id="Trazado_180108" data-name="Trazado 180108" d="M57.494,315.445a1.059,1.059,0,0,1-.026-.249c-.009-.187-.02-.424-.033-.715-.028-.621-.034-1.522-.01-2.634s.1-2.435.228-3.9.352-3.069.65-4.742.673-3.249,1.052-4.672.782-2.688,1.153-3.739.689-1.894.933-2.467l.281-.66a1.077,1.077,0,0,1,.112-.224,1.081,1.081,0,0,1-.07.241l-.242.674c-.219.582-.517,1.431-.865,2.486s-.728,2.322-1.1,3.741-.726,2.994-1.031,4.66-.511,3.265-.665,4.723-.235,2.778-.275,3.886-.061,2.007-.06,2.627c0,.291-.007.528-.009.715a1.081,1.081,0,0,1-.018.25" transform="translate(-33.487 -169.247)" fill="#263238"/>
              <path id="Trazado_180109" data-name="Trazado 180109" d="M52.11,319.651a5.09,5.09,0,0,1-.737.814c-.478.48-1.157,1.124-1.931,1.807s-1.5,1.276-2.034,1.691a5.067,5.067,0,0,1-.9.629,5.711,5.711,0,0,1,.8-.751l1.987-1.736,1.971-1.754a5.7,5.7,0,0,1,.844-.7" transform="translate(-27.127 -185.629)" fill="#263238"/>
              <path id="Trazado_180110" data-name="Trazado 180110" d="M66.677,320.5a8.747,8.747,0,0,1-.786-1.094l-1.826-2.681L62.2,314.068a8.663,8.663,0,0,1-.747-1.121,7.559,7.559,0,0,1,.872,1.027c.513.655,1.2,1.578,1.921,2.623s1.344,2.012,1.776,2.723a7.567,7.567,0,0,1,.654,1.18" transform="translate(-35.844 -181.736)" fill="#263238"/>
              <path id="Trazado_180111" data-name="Trazado 180111" d="M54.318,295.4c.033.052-1.91,1.368-4.34,2.94s-4.427,2.8-4.46,2.753,1.909-1.368,4.34-2.94,4.426-2.8,4.459-2.753" transform="translate(-26.55 -171.543)" fill="#263238"/>
              <path id="Trazado_180112" data-name="Trazado 180112" d="M71.771,301.8a36.224,36.224,0,0,1-2.939-2.732,36.307,36.307,0,0,1-2.784-2.892,36.268,36.268,0,0,1,2.939,2.733,36.288,36.288,0,0,1,2.784,2.892" transform="translate(-38.524 -171.994)" fill="#263238"/>
              <path id="Trazado_180113" data-name="Trazado 180113" d="M83.09,292.292l1.668-.138a8.219,8.219,0,0,0,3.369-1.038,13.482,13.482,0,0,1,1.57-.793c2.062-.833,4.363-.684,6.583-.8a27.112,27.112,0,0,0,10.472-2.694,1.019,1.019,0,0,0,.456-.417c.343-.627-.294-1.187-.842-1.526a34.3,34.3,0,0,0-8.858-4.372c-3.187-.865-6.8-.719-9.524,1.164-3.192,2.211-4.355,6.75-4.895,10.611" transform="translate(-48.465 -162.608)" fill="#c9fbf8"/>
              <path id="Trazado_180114" data-name="Trazado 180114" d="M107.3,288.412a1.646,1.646,0,0,1-.283-.133l-.791-.417c-.686-.363-1.673-.9-2.92-1.5a27.157,27.157,0,0,0-4.52-1.753,14.831,14.831,0,0,0-5.859-.478,9.989,9.989,0,0,0-5.341,2.308,11.955,11.955,0,0,0-2.781,3.93c-.586,1.258-.947,2.328-1.21,3.06l-.3.847a1.68,1.68,0,0,1-.117.291,1.65,1.65,0,0,1,.074-.3l.258-.86a28,28,0,0,1,1.15-3.1,11.9,11.9,0,0,1,2.788-4.018,10.1,10.1,0,0,1,5.448-2.375,14.824,14.824,0,0,1,5.942.5,26.159,26.159,0,0,1,4.534,1.809c1.243.622,2.22,1.18,2.894,1.566l.771.453a1.632,1.632,0,0,1,.261.172" transform="translate(-48.515 -164.811)" fill="#263238"/>
              <path id="Trazado_180115" data-name="Trazado 180115" d="M117.976,290.919c-.034.051-2.216-1.369-4.872-3.171s-4.783-3.306-4.749-3.356,2.216,1.368,4.873,3.171,4.783,3.3,4.748,3.356" transform="translate(-63.201 -165.153)" fill="#263238"/>
              <path id="Trazado_180116" data-name="Trazado 180116" d="M121.368,284.1a5.267,5.267,0,0,1-1.588.287,5.335,5.335,0,0,1-1.62-.021,41.311,41.311,0,0,1,3.208-.266" transform="translate(-68.921 -164.972)" fill="#263238"/>
              <path id="Trazado_180117" data-name="Trazado 180117" d="M100.662,281.13a4.27,4.27,0,0,1-.715,1.125,4.794,4.794,0,0,1-.907,1.036,4.272,4.272,0,0,1,.716-1.125,4.809,4.809,0,0,1,.906-1.036" transform="translate(-57.766 -163.258)" fill="#263238"/>
              <path id="Trazado_180118" data-name="Trazado 180118" d="M98.341,296.5a5.762,5.762,0,0,1-1.05-.573c-.63-.385-1.482-.949-2.392-1.613s-1.712-1.294-2.289-1.754a6.465,6.465,0,0,1-.906-.782,6.3,6.3,0,0,1,1,.656l2.325,1.7c.907.663,1.741,1.244,2.347,1.662a7.113,7.113,0,0,1,.965.705" transform="translate(-53.489 -169.444)" fill="#263238"/>
              <path id="Trazado_180119" data-name="Trazado 180119" d="M83.515,325.263c-1.591-.423-3.487,1.134-3.815,2.757a7.815,7.815,0,0,0,.985,4.777,24.358,24.358,0,0,0,6.579,8.662,16.209,16.209,0,0,0,10.06,3.726c-.673-3.143.178-6.427-.2-9.621a12.655,12.655,0,0,0-3.6-7.425,12.518,12.518,0,0,0-7.415-3.549c-1.016-.11-2.191-.27-2.6.673" transform="translate(-46.434 -188.448)" fill="#c9fbf8"/>
              <path id="Trazado_180120" data-name="Trazado 180120" d="M102.791,346.234a1.052,1.052,0,0,1-.226-.106,4.092,4.092,0,0,1-.6-.4,6.236,6.236,0,0,1-1.571-2.114c-.254-.5-.537-1.033-.814-1.629l-.856-1.9a18.531,18.531,0,0,0-1.052-2.035,15.936,15.936,0,0,0-1.447-1.981c-1.089-1.288-2.258-2.4-3.272-3.465a22.6,22.6,0,0,1-2.494-3.011,11.108,11.108,0,0,1-1.219-2.342c-.1-.3-.176-.526-.213-.687a1.056,1.056,0,0,1-.05-.246c.02-.006.11.327.343.9a12.1,12.1,0,0,0,1.268,2.285,23.819,23.819,0,0,0,2.512,2.957c1.018,1.052,2.193,2.163,3.294,3.464a15.832,15.832,0,0,1,1.464,2.011,18.2,18.2,0,0,1,1.053,2.064l.837,1.911c.267.593.543,1.137.787,1.635a6.463,6.463,0,0,0,1.487,2.12c.465.4.779.553.766.574" transform="translate(-51.901 -189.498)" fill="#263238"/>
              <path id="Trazado_180121" data-name="Trazado 180121" d="M102.368,357.739a4.844,4.844,0,0,1,.146-1.077c.125-.66.329-1.564.6-2.551s.572-1.865.808-2.493a4.807,4.807,0,0,1,.434-1,5.814,5.814,0,0,1-.286,1.047c-.2.639-.467,1.521-.742,2.5s-.5,1.876-.665,2.524a5.826,5.826,0,0,1-.3,1.044" transform="translate(-59.705 -203.615)" fill="#263238"/>
              <path id="Trazado_180122" data-name="Trazado 180122" d="M110.706,346.78a6.536,6.536,0,0,1-1.121-.259c-.685-.181-1.632-.427-2.685-.666s-2.014-.424-2.71-.557a6.477,6.477,0,0,1-1.123-.249,5.379,5.379,0,0,1,1.148.094c.7.093,1.675.255,2.734.495s2,.512,2.68.732a5.383,5.383,0,0,1,1.077.41" transform="translate(-60.117 -200.372)" fill="#263238"/>
              <path id="Trazado_180123" data-name="Trazado 180123" d="M88.2,343.055a6.521,6.521,0,0,1,.172-1.247c.14-.764.363-1.815.66-2.963s.614-2.174.863-2.91a6.554,6.554,0,0,1,.455-1.173,7.676,7.676,0,0,1-.306,1.219c-.21.746-.5,1.776-.8,2.919s-.542,2.185-.721,2.939a7.727,7.727,0,0,1-.325,1.215" transform="translate(-51.442 -194.405)" fill="#263238"/>
              <path id="Trazado_180124" data-name="Trazado 180124" d="M100.254,331.83c-.007.061-1.993-.1-4.436-.361s-4.419-.522-4.413-.583a44.438,44.438,0,0,1,4.436.361c2.443.261,4.419.522,4.413.583" transform="translate(-53.315 -192.146)" fill="#263238"/>
              <path id="Trazado_180125" data-name="Trazado 180125" d="M65.493,390.8c0,.062-6.982.112-15.593.112s-15.6-.05-15.6-.112,6.981-.111,15.6-.111,15.593.05,15.593.111" transform="translate(-20.01 -226.885)" fill="#455a64"/>
              <path id="Trazado_180126" data-name="Trazado 180126" d="M68.077,412.366c0,.062-4.7.112-10.506.112s-10.507-.05-10.507-.112,4.7-.112,10.507-.112,10.506.05,10.506.112" transform="translate(-27.451 -239.406)" fill="#455a64"/>
              <path id="Trazado_180127" data-name="Trazado 180127" d="M68.151,415.449c0,.062-4.623.111-10.323.111s-10.324-.05-10.324-.111,4.621-.112,10.324-.112,10.323.05,10.323.112" transform="translate(-27.708 -241.196)" fill="#455a64"/>
              <path id="Trazado_180128" data-name="Trazado 180128" d="M67.507,409.825c0,.062-4.866.111-10.867.111s-10.868-.05-10.868-.111,4.865-.112,10.868-.112,10.867.05,10.867.112" transform="translate(-26.698 -237.93)" fill="#455a64"/>
              <path id="Trazado_180129" data-name="Trazado 180129" d="M594.86,94.774l2.439-5.332a13.562,13.562,0,1,1,12.067,5.5A13.445,13.445,0,0,1,600.85,92.8l.005.006Z" transform="translate(-346.85 -39.301)" fill="#fff"/>
              <path id="Trazado_180130" data-name="Trazado 180130" d="M594.774,94.65l5.979-2.024-.023.088-.005-.006-.284-.311.353.229a13.459,13.459,0,0,0,6.678,2.144,12.044,12.044,0,0,0,2.129-.082c.363-.053.733-.1,1.1-.16l1.115-.272a13.612,13.612,0,0,0,9.693-11.51,13.838,13.838,0,0,0-.666-5.958,13.514,13.514,0,0,0-8.776-8.528,13.6,13.6,0,0,0-6.058-.419,13.188,13.188,0,0,0-5.357,2.094,13.719,13.719,0,0,0-5.7,8.383,14.766,14.766,0,0,0-.229,4.43,13.62,13.62,0,0,0,2.531,6.538l.018.025-.013.028-2.487,5.31,2.392-5.354.005.053a13.654,13.654,0,0,1-2.6-6.583,14.869,14.869,0,0,1,.213-4.483,13.88,13.88,0,0,1,5.756-8.513,13.372,13.372,0,0,1,5.435-2.135,13.8,13.8,0,0,1,6.154.42,13.716,13.716,0,0,1,8.916,8.665,14.035,14.035,0,0,1,.671,6.052,13.758,13.758,0,0,1-9.854,11.652l-1.13.271c-.376.064-.751.1-1.118.157a12.147,12.147,0,0,1-2.154.073,13.507,13.507,0,0,1-6.729-2.206l.069-.082.006.005.056.063-.08.026-6.012,1.92" transform="translate(-346.763 -39.178)" fill="#263238"/>
              <path id="Trazado_180131" data-name="Trazado 180131" d="M622.091,92.637a3.635,3.635,0,0,0,.176-5.116,3.582,3.582,0,0,0-5.084-.177,3.637,3.637,0,0,0-.674,4.434l-.732.687.175,1.223-1.135-.32-.916.86.175,1.223-1.136-.32-.787.739.107.745-.693-.2-.458.43-.069,1.132,1.679.425,5.445-5.112a3.581,3.581,0,0,0,3.928-.656m-.532-4.451a1.043,1.043,0,0,1-.05,1.467,1.028,1.028,0,0,1-1.459-.051,1.043,1.043,0,0,1,.05-1.467,1.028,1.028,0,0,1,1.459.051" transform="translate(-356.412 -50.157)" fill="#263238"/>
              <path id="Trazado_180132" data-name="Trazado 180132" d="M633.723,90.2c-.007.007-.068-.063-.205-.148a1.023,1.023,0,0,0-.649-.143,1,1,0,1,0,1.085,1.17,1.042,1.042,0,0,0-.1-.662c-.075-.144-.14-.21-.133-.216s.019.013.05.045a.813.813,0,0,1,.114.154,1.04,1.04,0,0,1,.129.689,1.067,1.067,0,0,1-.627.813,1.053,1.053,0,0,1-.62.07,1.075,1.075,0,0,1-.588-.324,1.087,1.087,0,0,1-.28-.612,1.069,1.069,0,0,1,.961-1.191,1.021,1.021,0,0,1,.675.178.78.78,0,0,1,.145.125c.03.033.043.051.041.053" transform="translate(-368.575 -52.174)" fill="#263238"/>
              <path id="Trazado_180133" data-name="Trazado 180133" d="M622.03,92.591s-.017.018-.052.05l-.158.142a3.755,3.755,0,0,1-.7.446,3.6,3.6,0,0,1-3.033.044l.03-.005-5.436,5.121-.016.016-.021-.005-1.679-.424-.034-.008,0-.035c.021-.353.044-.74.068-1.132v-.018l.013-.011.458-.431.018-.017.023.007.693.195-.055.049-.107-.745,0-.022.017-.016.787-.739.018-.017.024.006,1.136.32-.056.05c-.055-.387-.115-.8-.175-1.222l0-.023.017-.016.243-.228.673-.632.018-.017.025.006,1.136.321-.056.049q-.088-.618-.175-1.223l0-.023.017-.016.732-.687-.008.055a3.711,3.711,0,0,1-.468-1.648,3.714,3.714,0,0,1,.3-1.625,3.625,3.625,0,0,1,6.939,1.748,3.6,3.6,0,0,1-.4,1.394l-.067.129-.074.115c-.049.073-.09.145-.136.205-.1.118-.172.224-.245.3l-.166.168c-.038.036-.058.054-.058.054s.017-.021.052-.06l.161-.172c.071-.075.143-.182.237-.3.045-.061.085-.133.132-.206l.072-.115.064-.129a3.6,3.6,0,0,0-1.608-4.883,3.553,3.553,0,0,0-4.823,1.789,3.5,3.5,0,0,0-.233.769,3.456,3.456,0,0,0-.057.818,3.626,3.626,0,0,0,.458,1.608l.017.031-.025.024-.732.687.014-.039.175,1.222.01.069-.066-.019-1.136-.32.043-.01-.673.631-.243.228.014-.039c.06.419.119.835.175,1.223l.01.069L614,95.447l-1.136-.32.042-.011-.787.739.013-.039c.037.257.073.512.106.745l.01.067-.065-.018-.692-.2.041-.01-.458.43.013-.029c-.024.392-.047.779-.069,1.132l-.032-.043,1.678.426-.038.009,5.455-5.1.013-.013.017.008a3.585,3.585,0,0,0,3-.021,3.96,3.96,0,0,0,.7-.43l.163-.136c.037-.031.057-.045.057-.045" transform="translate(-356.35 -50.112)" fill="#263238"/>
              <path id="Trazado_180134" data-name="Trazado 180134" d="M621.8,91.657a3.635,3.635,0,0,0,.176-5.116,3.582,3.582,0,0,0-5.084-.177,3.637,3.637,0,0,0-.674,4.434h0l-.731.686.174,1.223-1.135-.32-.916.86.175,1.223-1.136-.32-.787.739.107.745-.693-.2-.458.43L610.75,97l1.679.425,5.445-5.112a3.581,3.581,0,0,0,3.928-.656m-.532-4.451a1.043,1.043,0,0,1-.05,1.467,1.028,1.028,0,0,1-1.458-.051,1.042,1.042,0,0,1,.05-1.467,1.027,1.027,0,0,1,1.458.051" transform="translate(-356.242 -49.588)" fill="#c9fbf8"/>
              <path id="Trazado_180135" data-name="Trazado 180135" d="M633.433,89.222c-.007.007-.067-.063-.2-.148a1.023,1.023,0,0,0-.649-.143,1,1,0,1,0,1.084,1.17,1.04,1.04,0,0,0-.1-.662c-.075-.144-.14-.21-.133-.216s.019.013.05.045a.822.822,0,0,1,.114.154,1.041,1.041,0,0,1,.129.689,1.067,1.067,0,0,1-.627.813,1.053,1.053,0,0,1-.62.07,1.075,1.075,0,0,1-.588-.324,1.087,1.087,0,0,1-.28-.612,1.069,1.069,0,0,1,.961-1.191,1.021,1.021,0,0,1,.675.178.775.775,0,0,1,.145.125c.03.033.043.051.041.053" transform="translate(-368.406 -51.605)" fill="#263238"/>
              <path id="Trazado_180136" data-name="Trazado 180136" d="M621.74,91.612s-.017.018-.052.05l-.158.142a3.755,3.755,0,0,1-.7.445,3.6,3.6,0,0,1-3.032.044l.03-.005-5.436,5.121-.016.015-.021-.005L610.679,97l-.034-.008,0-.035c.021-.353.044-.74.068-1.132V95.8l.013-.012.458-.431.018-.016.023.006.693.195-.055.049-.107-.745,0-.023.017-.016.787-.739.018-.017.024.007,1.136.32-.056.05-.175-1.222,0-.023.017-.016.243-.228.673-.632.018-.017.025.007,1.135.321-.056.049-.175-1.223,0-.023.017-.016.732-.686-.008.054a3.715,3.715,0,0,1-.468-1.648,3.53,3.53,0,0,1,.06-.837,3.566,3.566,0,0,1,.24-.787,3.625,3.625,0,0,1,6.939,1.748,3.6,3.6,0,0,1-.4,1.394l-.067.129-.074.115c-.049.073-.09.145-.136.205-.1.118-.172.223-.245.3l-.166.167c-.038.037-.058.055-.058.055s.017-.021.052-.06l.16-.172c.071-.075.143-.182.238-.3.045-.061.085-.133.133-.206l.072-.115.065-.129a3.572,3.572,0,1,0-6.432-3.094,3.491,3.491,0,0,0-.232.769,3.452,3.452,0,0,0-.057.818,3.621,3.621,0,0,0,.458,1.608l.017.031-.025.024-.732.687.014-.039q.087.6.175,1.223l.01.068-.066-.019-1.136-.32.043-.01-.673.632-.243.228.014-.039.175,1.222.01.069-.066-.019-1.135-.32.042-.01-.787.739.013-.039c.037.257.073.512.106.745l.01.067-.065-.018-.692-.2.041-.01-.458.429.013-.029c-.024.392-.047.779-.069,1.132l-.032-.044,1.678.426-.038.01,5.455-5.1.013-.013.017.008a3.587,3.587,0,0,0,3-.021,3.978,3.978,0,0,0,.7-.431l.163-.136c.037-.03.057-.044.057-.044" transform="translate(-356.181 -49.543)" fill="#263238"/>
              <path id="Trazado_180137" data-name="Trazado 180137" d="M628.963,91.963a4.931,4.931,0,0,0,.483-.613,3.061,3.061,0,0,0,.37-.834,3.188,3.188,0,0,0,.1-1.2,3.145,3.145,0,0,0-1.7-2.483,2.924,2.924,0,0,0-.851-.289,2.83,2.83,0,0,0-.935-.03,3.128,3.128,0,0,0-1.764.82,3.163,3.163,0,0,0-.936,1.714,2.887,2.887,0,0,0-.035.941,2.958,2.958,0,0,0,.228.874,3.159,3.159,0,0,0,1.019,1.3,3.14,3.14,0,0,0,2.521.551,3.01,3.01,0,0,0,.852-.314,4.9,4.9,0,0,0,.641-.442s-.011.013-.036.037l-.113.1a1.429,1.429,0,0,1-.193.153,2.251,2.251,0,0,1-.282.182,2.985,2.985,0,0,1-.858.332,3.179,3.179,0,0,1-2.576-.54,3.227,3.227,0,0,1-1.051-1.331,3.051,3.051,0,0,1-.237-.9,2.955,2.955,0,0,1,.034-.967,3.2,3.2,0,0,1,2.775-2.6,3.654,3.654,0,0,1,.487-.023,3.617,3.617,0,0,1,.475.057,3,3,0,0,1,.873.3,3.219,3.219,0,0,1,1.6,3.77,3.031,3.031,0,0,1-.389.838,2.231,2.231,0,0,1-.2.271,1.444,1.444,0,0,1-.165.183l-.108.106a.208.208,0,0,1-.039.034" transform="translate(-363.734 -50.178)" fill="#263238"/>
              <path id="Trazado_180138" data-name="Trazado 180138" d="M633.219,90.557c-.007-.007.075-.078.176-.24a1.218,1.218,0,0,0,.17-.768,1.182,1.182,0,0,0-.64-.928,1.152,1.152,0,0,0-.668-.117,1.168,1.168,0,0,0-.658.306,1.182,1.182,0,0,0,.6,2.024,1.2,1.2,0,0,0,.773-.118c.168-.089.244-.167.25-.159s-.016.022-.053.057a.956.956,0,0,1-.18.133,1.2,1.2,0,0,1-.8.15,1.22,1.22,0,0,1-.53-.22,1.257,1.257,0,0,1-.492-1.244,1.265,1.265,0,0,1,.375-.689,1.25,1.25,0,0,1,.709-.328,1.227,1.227,0,0,1,.715.131,1.241,1.241,0,0,1,.666,1,1.22,1.22,0,0,1-.2.794.972.972,0,0,1-.145.171c-.038.035-.058.052-.06.049" transform="translate(-368.136 -51.34)" fill="#263238"/>
              <path id="Trazado_180139" data-name="Trazado 180139" d="M613.722,106.414c-.017-.018,1.209-1.2,2.739-2.633s2.783-2.585,2.8-2.566-1.209,1.2-2.739,2.633-2.783,2.585-2.8,2.566" transform="translate(-357.976 -58.778)" fill="#263238"/>
              <path id="Trazado_180140" data-name="Trazado 180140" d="M614.943,96.349l.05-.112.067.1a.515.515,0,0,0,.218.187l.111.05-.1.067a.512.512,0,0,0-.186.219l-.05.112-.067-.1a.506.506,0,0,0-.218-.187l-.111-.05.1-.068a.51.51,0,0,0,.186-.219" transform="translate(-358.52 -55.887)" fill="#79f5ed"/>
              <path id="Trazado_180141" data-name="Trazado 180141" d="M607.108,94.419l.029-.065.039.06a.3.3,0,0,0,.127.109l.065.029-.059.039a.3.3,0,0,0-.108.127l-.029.065-.039-.06a.3.3,0,0,0-.127-.109l-.065-.029.059-.039a.3.3,0,0,0,.108-.127" transform="translate(-354.021 -54.794)" fill="#79f5ed"/>
              <path id="Trazado_180142" data-name="Trazado 180142" d="M632.306,108.058l.029-.065.039.06a.3.3,0,0,0,.127.109l.065.029-.059.039a.3.3,0,0,0-.108.127l-.029.065-.039-.06a.293.293,0,0,0-.127-.109l-.065-.029.059-.039a.3.3,0,0,0,.108-.127" transform="translate(-368.718 -62.714)" fill="#79f5ed"/>
              <path id="Trazado_180143" data-name="Trazado 180143" d="M644.475,101l.05-.112.067.1a.515.515,0,0,0,.218.187l.111.05-.1.067a.516.516,0,0,0-.186.219l-.05.112-.067-.1a.507.507,0,0,0-.218-.187l-.111-.05.1-.068a.51.51,0,0,0,.186-.219" transform="translate(-375.746 -58.589)" fill="#79f5ed"/>
              <path id="Trazado_180144" data-name="Trazado 180144" d="M642.594,91.1l.083-.188.112.172a.861.861,0,0,0,.367.314l.187.084-.171.113a.866.866,0,0,0-.312.369l-.083.188-.112-.172a.857.857,0,0,0-.367-.314l-.186-.084.171-.112a.858.858,0,0,0,.312-.369" transform="translate(-374.535 -52.794)" fill="#79f5ed"/>
              <path id="Trazado_180145" data-name="Trazado 180145" d="M612.182,88.078l.083-.188.112.172a.861.861,0,0,0,.367.314l.187.084-.171.113a.863.863,0,0,0-.312.369l-.083.188-.112-.172a.857.857,0,0,0-.367-.314l-.186-.084.171-.113a.862.862,0,0,0,.312-.369" transform="translate(-356.796 -51.04)" fill="#79f5ed"/>
            </g>
          </g>
        </g>
      </g>
      <rect id="Rectángulo_38491" data-name="Rectángulo 38491" width="295" height="232" transform="translate(1627 -9941)" fill="none"/>
    </g>
  </g>
</svg>
