<svg xmlns="http://www.w3.org/2000/svg" xmlns:xlink="http://www.w3.org/1999/xlink" width="1127.111" height="460.6" viewBox="0 0 1127.111 460.6">
  <defs>
    <clipPath id="clip-path">
      <rect id="Rectángulo_38549" data-name="Rectángulo 38549" width="1127.111" height="460.6" fill="none"/>
    </clipPath>
  </defs>
  <g id="Grupo_143612" data-name="Grupo 143612" transform="translate(-945 4276.708)">
    <path id="Trazado_182564" data-name="Trazado 182564" d="M675.816,139.468l7.191,9.015v74.692h5.342V.644L675.816.472Z" transform="translate(945 -4276.708)" fill="#5c379b"/>
    <rect id="Rectángulo_38534" data-name="Rectángulo 38534" width="194.758" height="1.803" transform="translate(1414.965 -4276.708)" fill="#5c379b"/>
    <rect id="Rectángulo_38535" data-name="Rectángulo 38535" width="43.504" height="1.803" transform="translate(1408.651 -4276.708)" fill="#5c379b"/>
    <rect id="Rectángulo_38536" data-name="Rectángulo 38536" width="7.25" height="1.803" transform="translate(1396.568 -4276.708)" fill="#5c379b"/>
    <path id="Trazado_182565" data-name="Trazado 182565" d="M438.919,225.88V47.262h1.128V224.077H671.5v1.8Z" transform="translate(945 -4276.708)" fill="#5c379b"/>
    <rect id="Rectángulo_38537" data-name="Rectángulo 38537" width="1.128" height="16.999" transform="translate(1383.946 -4250.308)" fill="#5c379b"/>
    <rect id="Rectángulo_38538" data-name="Rectángulo 38538" width="1.128" height="3.606" transform="translate(1383.812 -4257.776)" fill="#5c379b"/>
    <path id="Trazado_182566" data-name="Trazado 182566" d="M670.432,30.521l-10.97-17.514H456.516l-9.357,14.938V209.783l2.9,4.636H664.947l7.582-12.106V163.422l-2.1-3.348Z" transform="translate(945 -4276.708)" fill="#e7defc"/>
    <path id="Trazado_182567" data-name="Trazado 182567" d="M38.729,237.424V459.955l12.532.172v-139l-7.191-9.015V237.424Z" transform="translate(945 -4276.708)" fill="#a7f"/>
    <rect id="Rectángulo_38539" data-name="Rectángulo 38539" width="194.758" height="1.803" transform="translate(1007.355 -3817.911)" fill="#a7f"/>
    <rect id="Rectángulo_38540" data-name="Rectángulo 38540" width="43.503" height="1.803" transform="translate(1164.922 -3817.911)" fill="#a7f"/>
    <rect id="Rectángulo_38541" data-name="Rectángulo 38541" width="7.25" height="1.803" transform="translate(1213.259 -3817.911)" fill="#a7f"/>
    <path id="Trazado_182568" data-name="Trazado 182568" d="M288.158,234.72V413.338H287.03V236.523H55.575v-1.8Z" transform="translate(945 -4276.708)" fill="#a7f"/>
    <rect id="Rectángulo_38542" data-name="Rectángulo 38542" width="1.128" height="16.999" transform="translate(1232.003 -3859.507)" fill="#a7f"/>
    <rect id="Rectángulo_38543" data-name="Rectángulo 38543" width="1.128" height="3.606" transform="translate(1232.138 -3838.645)" fill="#a7f"/>
    <path id="Trazado_182569" data-name="Trazado 182569" d="M56.645,430.079l10.97,17.514H270.561l9.357-14.938V250.817l-2.9-4.636H62.13l-7.582,12.106v38.891l2.1,3.348Z" transform="translate(945 -4276.708)" fill="#e7defc"/>
    <path id="Trazado_182570" data-name="Trazado 182570" d="M1048.349,235.364V457.9h-5.341V383.2l-7.191-9.014v-139Z" transform="translate(945 -4276.708)" fill="#5c379b"/>
    <rect id="Rectángulo_38544" data-name="Rectángulo 38544" width="194.758" height="1.803" transform="translate(1774.964 -4041.988)" fill="#5c379b"/>
    <rect id="Rectángulo_38545" data-name="Rectángulo 38545" width="43.504" height="1.803" transform="translate(1768.652 -4041.988)" fill="#5c379b"/>
    <rect id="Rectángulo_38546" data-name="Rectángulo 38546" width="7.251" height="1.803" transform="translate(1756.567 -4041.988)" fill="#5c379b"/>
    <path id="Trazado_182571" data-name="Trazado 182571" d="M798.919,281.982V460.6H1031.5v-1.8H800.047V281.982Z" transform="translate(945 -4276.708)" fill="#5c379b"/>
    <rect id="Rectángulo_38547" data-name="Rectángulo 38547" width="1.128" height="16.999" transform="translate(1743.946 -4015.587)" fill="#5c379b"/>
    <rect id="Rectángulo_38548" data-name="Rectángulo 38548" width="1.128" height="3.606" transform="translate(1743.812 -4023.057)" fill="#5c379b"/>
    <path id="Trazado_182572" data-name="Trazado 182572" d="M1030.432,265.241l-10.97-17.514H816.516l-9.357,14.938V444.5l2.9,4.636h214.884l7.582-12.106V398.142l-2.1-3.348Z" transform="translate(945 -4276.708)" fill="#e7defc"/>
    <line id="Línea_185" data-name="Línea 185" x1="6" transform="translate(1378.231 -4178.54)" fill="none" stroke="#7142c1" stroke-miterlimit="10" stroke-width="2"/>
    <g id="Grupo_112891" data-name="Grupo 112891" transform="translate(945 -4276.708)">
      <g id="Grupo_112890" data-name="Grupo 112890" clip-path="url(#clip-path)">
        <path id="Trazado_182573" data-name="Trazado 182573" d="M421.194,98.168H37.472A36.472,36.472,0,0,0,1,134.639V322.4a24.812,24.812,0,0,0,24.812,24.811h.361" fill="none" stroke="#7142c1" stroke-miterlimit="10" stroke-width="2" stroke-dasharray="12.037 12.037"/>
        <line id="Línea_186" data-name="Línea 186" x2="6" transform="translate(32.191 347.209)" fill="none" stroke="#7142c1" stroke-miterlimit="10" stroke-width="2"/>
      </g>
    </g>
    <text id="Usuario_del_PC" data-name="Usuario del PC" transform="translate(1056.618 -3989.726)" fill="#5c379b" font-size="16" font-family="Roboto-Regular, Roboto"><tspan x="0" y="0">Usuario del PC</tspan></text>
    <text id="Atacante." transform="translate(1830.602 -4007.726)" fill="#5c379b" font-size="16" font-family="Roboto-Regular, Roboto"><tspan x="0" y="0" letter-spacing="-0.008em">A</tspan><tspan y="0">tacante.</tspan></text>
    <g id="Grupo_112893" data-name="Grupo 112893" transform="translate(945 -4276.708)">
      <g id="Grupo_112892" data-name="Grupo 112892" clip-path="url(#clip-path)">
        <path id="Trazado_182574" data-name="Trazado 182574" d="M209.054,433.411c-.087-.437-5.388-27.07-5.447-27.344a10.322,10.322,0,0,0-4.894-6.966,11.765,11.765,0,0,0-3.364-1.364l-18.078-6.318a2.639,2.639,0,0,1-1.783-2.5v-5.536a22.711,22.711,0,0,1-20.631.1v5.438a2.64,2.64,0,0,1-1.784,2.5l-7.431,2.548h-.007v0h0L135,397.737l-1.4.413a10.7,10.7,0,0,0-5.952,5.24c-.851,1.725-.6,1.119-4.727,21.843-1.528,7.916-1.866,8.493-1.675,10.261.533,4.944,5.617,4.428,5.755,4.488h76.341c.054-.018,6.705.488,5.708-6.571" fill="#6c7d87"/>
        <path id="Trazado_182575" data-name="Trazado 182575" d="M127.507,433.411l5.447-29.828a10.392,10.392,0,0,1,4.5-6.714c-4.572,1.62-3.155.972-4.561,1.574a10.428,10.428,0,0,0-5.726,6.1c-.406,1.153-.143.14-4.239,20.686-1.529,7.916-1.866,8.493-1.675,10.261.532,4.944,5.616,4.428,5.754,4.488h6.21c-4.382,0-6.275-2.562-5.708-6.571" fill="#566a75"/>
        <path id="Trazado_182576" data-name="Trazado 182576" d="M138.244,439.982H127.006c-.144-.063-5.94.519-5.795-5.523.031-1.288.193-1.342,1.715-9.226l.088-.442h15.23Z" fill="#dd9a5e"/>
        <path id="Trazado_182577" data-name="Trazado 182577" d="M129.081,424.792h-6.067l-.088.442c-1.528,7.911-1.684,7.936-1.716,9.226-.144,6.022,5.681,5.473,5.795,5.523h6.21c-4.036,0-5.876-2.123-5.795-5.523.01-.395.157-1.22,1.661-9.668" fill="#d18c54"/>
        <path id="Trazado_182578" data-name="Trazado 182578" d="M154.857,382.529v10.4h.007v.371a5.749,5.749,0,0,0,3.921,5.452,20.93,20.93,0,0,0,12.775,0,5.749,5.749,0,0,0,3.921-5.452v-.371h.006v-10.4a21.626,21.626,0,0,1-20.63,0" fill="#dd9a5e"/>
        <path id="Trazado_182579" data-name="Trazado 182579" d="M161.075,395h-.008v-9.524a22.608,22.608,0,0,1-6.21-2.221v9.68h.007v.372a5.749,5.749,0,0,0,3.921,5.452,19.186,19.186,0,0,0,3.652.83A7.355,7.355,0,0,1,161.075,395" fill="#d18c54"/>
        <path id="Trazado_182580" data-name="Trazado 182580" d="M138.244,418.7a1.863,1.863,0,0,0-1.863,1.863v19.421h3.726V420.561a1.863,1.863,0,0,0-1.863-1.863" fill="#566a75"/>
        <path id="Trazado_182581" data-name="Trazado 182581" d="M225.483,439.982H165.172a4.556,4.556,0,0,1-4.556-4.556,2.612,2.612,0,0,1,2.611-2.612h64.2a2.612,2.612,0,0,1,2.611,2.612,4.556,4.556,0,0,1-4.556,4.556" fill="#c6c6c6"/>
        <path id="Trazado_182582" data-name="Trazado 182582" d="M172.352,435.426h0a2.611,2.611,0,0,1,2.611-2.611H163.227a2.611,2.611,0,0,0-2.611,2.611,4.556,4.556,0,0,0,4.556,4.557h11.736a4.558,4.558,0,0,1-4.556-4.557" fill="#b7b7b7"/>
        <path id="Trazado_182583" data-name="Trazado 182583" d="M221.533,392.933h-52.41a2.989,2.989,0,0,0-2.98,2.981v33.92a2.99,2.99,0,0,0,2.98,2.981h52.41a2.99,2.99,0,0,0,2.981-2.981v-33.92a2.99,2.99,0,0,0-2.981-2.981" fill="#ededed"/>
        <path id="Trazado_182584" data-name="Trazado 182584" d="M172.352,429.834v-33.92a2.989,2.989,0,0,1,2.981-2.981h-6.21a2.99,2.99,0,0,0-2.981,2.981v33.92a2.99,2.99,0,0,0,2.981,2.981h6.21a2.99,2.99,0,0,1-2.981-2.981" fill="#dadada"/>
        <path id="Trazado_182585" data-name="Trazado 182585" d="M195.329,408.568a4.305,4.305,0,1,1-4.3,4.3,4.305,4.305,0,0,1,4.3-4.3" fill="#dadada"/>
        <path id="Trazado_182586" data-name="Trazado 182586" d="M195.33,408.572a4.3,4.3,0,1,0,3.725,6.451,4.3,4.3,0,0,1-3.725-6.451" fill="#c6c6c6"/>
        <path id="Trazado_182587" data-name="Trazado 182587" d="M164.611,316.584a29.81,29.81,0,0,0-29.592,29.8V357.68h59.612v-16.9c0-11.541-7.1-14.2-7.1-14.2-8.83-10.887-22.908-10-22.908-10" fill="#4c4846"/>
        <path id="Trazado_182588" data-name="Trazado 182588" d="M168.638,316.762a29.9,29.9,0,0,0-33.594,28.45c-.047,1.207-.015.755-.025,12.468h7.1V346.386a29.809,29.809,0,0,1,26.519-29.624" fill="#3d3938"/>
        <path id="Trazado_182589" data-name="Trazado 182589" d="M142.36,354.133c-3.739-1.332-7.8,1.145-7.8,4.76s4.058,6.092,7.8,4.76Z" fill="#dd9a5e"/>
        <path id="Trazado_182590" data-name="Trazado 182590" d="M187.29,354.133c3.739-1.332,7.8,1.145,7.8,4.76s-4.058,6.092-7.8,4.76Z" fill="#dd9a5e"/>
        <path id="Trazado_182591" data-name="Trazado 182591" d="M135.109,356.7c-2.184,4.146,2.414,8.672,7.251,6.949v-4.378a5.964,5.964,0,0,1-7.251-2.571" fill="#d18c54"/>
        <path id="Trazado_182592" data-name="Trazado 182592" d="M187.29,359.276v4.378c4.837,1.723,9.435-2.8,7.251-6.949a6.694,6.694,0,0,1-7.251,2.571" fill="#d18c54"/>
        <path id="Trazado_182593" data-name="Trazado 182593" d="M186.506,344.7a1.127,1.127,0,0,1,1.025,1.118c0,19.117.012,17.674-.033,18.563a22.645,22.645,0,0,1-6.825,15.1C166.5,393.3,142.849,383.5,142.138,364.116c-.033-.855-.019-10.756-.019-10.728a7.3,7.3,0,0,1,8.357-7.213c6.94,1,17.07.613,25.908-6.942a1.876,1.876,0,0,1,2.867.519,9.175,9.175,0,0,0,7.255,4.949" fill="#edae6b"/>
        <path id="Trazado_182594" data-name="Trazado 182594" d="M148.351,364.116c-.028-.733-.022-14.146-.02-17.934a7.29,7.29,0,0,0-6.212,7.206c0-.028-.014,9.873.02,10.728.524,14.292,13.518,23.371,25.99,21.618a22.659,22.659,0,0,1-19.778-21.618" fill="#dd9a5e"/>
      </g>
    </g>
    <text id="Los_hashes_de_los_usuarios_logueados_" data-name="Los hashes de los usuarios logueados " transform="translate(1055.191 -4213.276)" fill="#5c379b" font-size="16" font-family="Roboto-BoldItalic, Roboto" font-weight="700" font-style="italic"><tspan x="0" y="0">Los hashes de los usuarios logueados </tspan></text>
    <text id="están_almacenados_en_el_archivo_SAM" data-name="están almacenados en el archivo SAM" transform="translate(1055.191 -4194.076)" fill="#5c379b" font-size="16" font-family="Roboto-BoldItalic, Roboto" font-weight="700" font-style="italic"><tspan x="0" y="0">están almacenados en el a</tspan><tspan y="0" letter-spacing="-0.007em">r</tspan><tspan y="0">chi</tspan><tspan y="0" letter-spacing="-0.007em">v</tspan><tspan y="0">o SAM</tspan></text>
    <text id="_4._inyecta_el_hash_compredido_en_a_sesión_local" data-name="4.  inyecta el hash compredido en a sesión local" transform="translate(1331 -3894.844)" fill="#5c379b" font-size="16" font-family="Roboto-Bold, Roboto" font-weight="700"><tspan x="0" y="0" xml:space="preserve">4.  in</tspan><tspan y="0" letter-spacing="-0.006em">y</tspan><tspan y="0">ecta el hash comp</tspan><tspan y="0" letter-spacing="-0.007em">r</tspan><tspan y="0">edido en a sesión local</tspan></text>
    <text id="_1._Inicio_de_sesión_del_usuario" data-name=" 1. Inicio de sesión del usuario" transform="translate(1052.855 -4143.436)" fill="#5c379b" font-size="16" font-family="Roboto-Bold, Roboto" font-weight="700"><tspan x="0" y="0" xml:space="preserve"> 1. Inicio de sesión del usuario</tspan></text>
    <line id="Línea_187" data-name="Línea 187" x2="6" transform="translate(1632.88 -4178.54)" fill="none" stroke="#7142c1" stroke-miterlimit="10" stroke-width="2"/>
    <path id="Trazado_182595" data-name="Trazado 182595" d="M705.917,98.168h383.722a36.471,36.471,0,0,1,36.471,36.471V322.4a24.811,24.811,0,0,1-24.811,24.811h-.361" transform="translate(945 -4276.708)" fill="none" stroke="#7142c1" stroke-miterlimit="10" stroke-width="2" stroke-dasharray="12.037 12.037"/>
    <line id="Línea_188" data-name="Línea 188" x1="6" transform="translate(2033.92 -3929.498)" fill="none" stroke="#7142c1" stroke-miterlimit="10" stroke-width="2"/>
    <text id="_2._Compromete_al_servidor_usando_un_" data-name="2. Compromete al servidor usando un " transform="translate(1707.041 -4213.276)" fill="#5c379b" font-size="16" font-family="Roboto-Bold, Roboto" font-weight="700"><tspan x="0" y="0">2. Comp</tspan><tspan y="0" letter-spacing="-0.008em">r</tspan><tspan y="0">omete al se</tspan><tspan y="0" letter-spacing="0.009em">r</tspan><tspan y="0">vidor usando un </tspan></text>
    <text id="exploit_local_o_remoto" data-name="exploit local o remoto" transform="translate(1707.041 -4194.076)" fill="#5c379b" font-size="16" font-family="Roboto-Bold, Roboto" font-weight="700"><tspan x="0" y="0">exploit local o </tspan><tspan y="0" letter-spacing="-0.007em">r</tspan><tspan y="0">emoto</tspan></text>
    <text id="_3._Extrae_un_hash_de_un_usuario_admin_" data-name="3. Extrae un hash de un usuario admin " transform="translate(1707.041 -4143.436)" fill="#5c379b" font-size="16" font-family="Roboto-Bold, Roboto" font-weight="700"><tspan x="0" y="0">3. Extrae un hash de un usuario admin </tspan></text>
    <text id="logueado" transform="translate(1707.041 -4124.236)" fill="#5c379b" font-size="16" font-family="Roboto-Bold, Roboto" font-weight="700"><tspan x="0" y="0">logueado</tspan></text>
    <g id="Grupo_112897" data-name="Grupo 112897" transform="translate(945 -4276.708)">
      <g id="Grupo_112896" data-name="Grupo 112896" clip-path="url(#clip-path)">
        <path id="Trazado_182596" data-name="Trazado 182596" d="M962.442,369.246v-.036c0-7.236-19.072-54.054-42.6-54.054s-42.6,46.818-42.6,54.054v.069c0,6.741,28.722,42.177,42.6,42.177,13.578,0,42.6-35.436,42.6-42.177v-.034Z" fill="#415e6f"/>
        <path id="Trazado_182597" data-name="Trazado 182597" d="M948.307,368.288h-4.838V354.257h4.838a4.514,4.514,0,0,1,4.514,4.514v5a4.514,4.514,0,0,1-4.514,4.514" fill="#f4c892"/>
        <path id="Trazado_182598" data-name="Trazado 182598" d="M891.382,368.288h4.838V354.257h-4.838a4.514,4.514,0,0,0-4.514,4.514v5a4.514,4.514,0,0,0,4.514,4.514" fill="#f4c892"/>
        <path id="Trazado_182599" data-name="Trazado 182599" d="M936.324,393.274l-3.052-.613a4.639,4.639,0,0,1-3.723-4.547v-4.4H909.587v4.509a4.637,4.637,0,0,1-3.724,4.546l-2.5.5v16.785h32.96Z" fill="#fed9a8"/>
        <path id="Trazado_182600" data-name="Trazado 182600" d="M919.845,387.027h0a26.1,26.1,0,0,1-26.095-26.1V353.6a26.1,26.1,0,1,1,52.19,0v7.333a26.1,26.1,0,0,1-26.1,26.1" fill="#fed9a8"/>
        <path id="Trazado_182601" data-name="Trazado 182601" d="M919.845,327.505h0a26.125,26.125,0,0,0-6.807.9,26.1,26.1,0,0,1,19.288,25.2v7.333a26.1,26.1,0,0,1-19.288,25.2,26.11,26.11,0,0,0,32.9-25.2V353.6a26.1,26.1,0,0,0-26.1-26.1" fill="#f4ce9f"/>
        <path id="Trazado_182602" data-name="Trazado 182602" d="M919.845,354.373c23.488,0,42.535,8.138,42.6,14.873,0-.012,0-.024,0-.036,0-7.236-19.072-54.054-42.6-54.054s-42.6,46.818-42.6,54.054c0,.012,0,.024,0,.036.062-6.735,19.109-14.873,42.6-14.873" fill="#5498c8"/>
        <path id="Trazado_182603" data-name="Trazado 182603" d="M919.845,315.156a19.181,19.181,0,0,0-6.1,1.031c15.194,5.086,27.8,27.848,33.391,42.135,9.327,2.974,15.272,7.167,15.307,10.924,0-.012,0-.024,0-.036,0-7.236-19.072-54.054-42.6-54.054" fill="#415e6f"/>
        <path id="Trazado_182604" data-name="Trazado 182604" d="M977.367,437.895c-1.134-8.342-5.745-32.532-21.583-38.887l-18.063-5.632H901.969l-18.064,5.632c-15.837,6.355-20.448,30.545-21.582,38.887a2.511,2.511,0,0,0,2.492,2.848h110.06a2.513,2.513,0,0,0,2.492-2.848" fill="#5498c8"/>
        <path id="Trazado_182605" data-name="Trazado 182605" d="M977.367,437.895c-1.134-8.342-5.745-32.532-21.583-38.887l-18.063-5.632H923.812l18.064,5.632c19.232,7.717,21.909,41.735,21.909,41.735h11.09a2.513,2.513,0,0,0,2.492-2.848" fill="#415e6f"/>
        <path id="Trazado_182606" data-name="Trazado 182606" d="M955.557,392.462H884.131a4.293,4.293,0,0,0-4.292,4.292v40.7h80.01v-40.7a4.293,4.293,0,0,0-4.292-4.292" fill="#cfcfcf"/>
        <path id="Trazado_182607" data-name="Trazado 182607" d="M955.558,392.462H941.945a4.293,4.293,0,0,1,4.292,4.292v40.7H959.85v-40.7a4.293,4.293,0,0,0-4.292-4.292" fill="#c2c4c6"/>
        <path id="Trazado_182608" data-name="Trazado 182608" d="M962.432,434.261H877.258a2.925,2.925,0,0,0-2.925,2.925v.632a2.926,2.926,0,0,0,2.925,2.925h85.174a2.926,2.926,0,0,0,2.925-2.925v-.632a2.925,2.925,0,0,0-2.925-2.925" fill="#9c9da0"/>
        <path id="Trazado_182609" data-name="Trazado 182609" d="M962.432,434.261H951.659v6.482h10.773a2.926,2.926,0,0,0,2.925-2.925v-.632a2.925,2.925,0,0,0-2.925-2.925" fill="#8d8f93"/>
        <path id="Trazado_182610" data-name="Trazado 182610" d="M919.845,409.064a6.005,6.005,0,1,1-6,6.005,6,6,0,0,1,6-6.005" fill="#fff"/>
        <path id="Trazado_182611" data-name="Trazado 182611" d="M926.345,361.265a16.692,16.692,0,0,0-13,0l.85,1.734c.1.2.2.386.314.572a14.2,14.2,0,0,1,10.7.014l1.136-2.32" fill="#4d4d4d"/>
        <path id="Trazado_182612" data-name="Trazado 182612" d="M945.939,360.932v-1.365H936.97V361.5c0,.218.012.435.029.651h8.911q.029-.6.029-1.218" fill="#4d4d4d"/>
        <path id="Trazado_182613" data-name="Trazado 182613" d="M893.75,359.568v1.365c0,.408.013.814.031,1.218h8.938v-2.583Z" fill="#4d4d4d"/>
        <path id="Trazado_182614" data-name="Trazado 182614" d="M912.36,367.966h-9.666a1.928,1.928,0,0,1-1.928-1.928v-5.5a1.928,1.928,0,0,1,1.928-1.928h12.048a1.928,1.928,0,0,1,1.928,1.928v3.12a4.31,4.31,0,0,1-4.31,4.31" fill="#4d4d4d"/>
        <path id="Trazado_182615" data-name="Trazado 182615" d="M927.33,367.966h9.665a1.929,1.929,0,0,0,1.929-1.928v-5.5a1.929,1.929,0,0,0-1.929-1.928H924.948a1.929,1.929,0,0,0-1.929,1.928v3.12a4.31,4.31,0,0,0,4.311,4.31" fill="#4d4d4d"/>
        <path id="Trazado_182616" data-name="Trazado 182616" d="M936.995,358.608h-11.7v8.847a4.288,4.288,0,0,0,2.037.512h9.666a1.928,1.928,0,0,0,1.928-1.928v-5.5a1.928,1.928,0,0,0-1.928-1.928" fill="#353535"/>
        <path id="Trazado_182617" data-name="Trazado 182617" d="M914.742,358.608h-11.71v9.359h9.328a4.311,4.311,0,0,0,4.31-4.311v-3.12a1.928,1.928,0,0,0-1.928-1.928" fill="#353535"/>
        <path id="Trazado_182618" data-name="Trazado 182618" d="M592.213,112.163V120.9a4.367,4.367,0,0,1-4.367,4.366H539.812a4.367,4.367,0,0,1-4.367-4.366v-8.734a4.367,4.367,0,0,1,4.367-4.367h48.034a4.367,4.367,0,0,1,4.367,4.367" fill="#4184a9"/>
        <path id="Trazado_182619" data-name="Trazado 182619" d="M539.811,90.329h48.034a4.367,4.367,0,0,1,4.367,4.367v8.733a4.367,4.367,0,0,1-4.367,4.367H539.811a4.367,4.367,0,0,1-4.367-4.367V94.7a4.367,4.367,0,0,1,4.367-4.367" fill="#4184a9"/>
        <path id="Trazado_182620" data-name="Trazado 182620" d="M539.811,72.862h48.034a4.367,4.367,0,0,1,4.367,4.367v8.733a4.367,4.367,0,0,1-4.367,4.367H539.811a4.367,4.367,0,0,1-4.367-4.367V77.229a4.367,4.367,0,0,1,4.367-4.367" fill="#4184a9"/>
        <path id="Trazado_182621" data-name="Trazado 182621" d="M555.095,125.263H539.811a4.367,4.367,0,0,1-4.366-4.367v-8.733a4.367,4.367,0,0,1,4.366-4.367h15.284a4.367,4.367,0,0,0-4.367,4.367V120.9a4.367,4.367,0,0,0,4.367,4.367" fill="#415e6f"/>
        <path id="Trazado_182622" data-name="Trazado 182622" d="M555.095,107.8H539.811a4.367,4.367,0,0,1-4.366-4.367V94.7a4.367,4.367,0,0,1,4.366-4.367h15.284a4.367,4.367,0,0,0-4.367,4.367v8.733a4.367,4.367,0,0,0,4.367,4.367" fill="#415e6f"/>
        <path id="Trazado_182623" data-name="Trazado 182623" d="M555.095,90.329H539.811a4.367,4.367,0,0,1-4.366-4.367V77.229a4.367,4.367,0,0,1,4.366-4.367h15.284a4.367,4.367,0,0,0-4.367,4.367v8.733a4.367,4.367,0,0,0,4.367,4.367" fill="#415e6f"/>
        <path id="Trazado_182624" data-name="Trazado 182624" d="M607.5,72.862a19.651,19.651,0,0,1,0,39.3H592.212a4.367,4.367,0,0,0-4.367-4.367,4.367,4.367,0,0,0,4.367-4.367V94.7a4.367,4.367,0,0,0-4.367-4.367,4.367,4.367,0,0,0,4.367-4.367V77.229a4.367,4.367,0,0,0-4.367-4.367H539.811a4.367,4.367,0,0,0-4.367,4.367v8.733a4.367,4.367,0,0,0,4.367,4.367,4.367,4.367,0,0,0-4.367,4.367v8.733a4.367,4.367,0,0,0,4.367,4.367,4.367,4.367,0,0,0-4.367,4.367H524.527a24.018,24.018,0,1,1,3.93-47.715,39.311,39.311,0,0,1,73.848,9.11,19.533,19.533,0,0,1,5.191-.7" fill="#79f5ed"/>
        <path id="Trazado_182625" data-name="Trazado 182625" d="M563.829,42.295a39.38,39.38,0,0,1,8.736.974,39.372,39.372,0,0,0-26.64,21.179,24.022,24.022,0,0,0-10.393,46.834,4.493,4.493,0,0,0-.087.881H524.528a24.017,24.017,0,1,1,3.93-47.715A39.3,39.3,0,0,1,563.829,42.295Z" fill="#62e8db"/>
        <path id="Trazado_182626" data-name="Trazado 182626" d="M598.763,90.329A4.367,4.367,0,0,1,603.13,94.7v8.733a4.367,4.367,0,0,1-4.367,4.367,4.365,4.365,0,0,1,4.364,4.247,19.857,19.857,0,0,1-2.181.12h-8.733a4.367,4.367,0,0,0-4.367-4.367,4.367,4.367,0,0,0,4.367-4.367V94.7a4.367,4.367,0,0,0-4.367-4.367,4.367,4.367,0,0,0,4.367-4.367V77.229a4.367,4.367,0,0,0-4.367-4.367s10.347.15,11.618.054a4.369,4.369,0,0,1,3.666,4.313v8.733a4.367,4.367,0,0,1-4.367,4.367" fill="#62e8db"/>
        <rect id="Rectángulo_38552" data-name="Rectángulo 38552" width="26.201" height="4.367" transform="translate(541.995 79.412)" fill="#e01650"/>
        <rect id="Rectángulo_38553" data-name="Rectángulo 38553" width="4.367" height="4.367" transform="translate(572.562 79.412)" fill="#e01650"/>
        <rect id="Rectángulo_38554" data-name="Rectángulo 38554" width="4.367" height="4.367" transform="translate(581.296 79.412)" fill="#e01650"/>
        <rect id="Rectángulo_38555" data-name="Rectángulo 38555" width="26.201" height="4.367" transform="translate(541.995 96.879)" fill="#e01650"/>
        <rect id="Rectángulo_38556" data-name="Rectángulo 38556" width="4.367" height="4.367" transform="translate(572.562 96.879)" fill="#e01650"/>
        <rect id="Rectángulo_38557" data-name="Rectángulo 38557" width="4.367" height="4.367" transform="translate(581.296 96.879)" fill="#e01650"/>
        <rect id="Rectángulo_38558" data-name="Rectángulo 38558" width="26.201" height="4.367" transform="translate(541.995 114.346)" fill="#e01650"/>
        <rect id="Rectángulo_38559" data-name="Rectángulo 38559" width="4.367" height="4.367" transform="translate(572.562 114.346)" fill="#e01650"/>
        <rect id="Rectángulo_38560" data-name="Rectángulo 38560" width="4.367" height="4.367" transform="translate(581.296 114.346)" fill="#e01650"/>
        <rect id="Rectángulo_38561" data-name="Rectángulo 38561" width="4.367" height="28.384" transform="translate(561.645 125.263)" fill="#4184a9"/>
        <path id="Trazado_182627" data-name="Trazado 182627" d="M541.995,140.547H511.428V136.18h28.384V125.263h4.366v13.1a2.183,2.183,0,0,1-2.183,2.183" fill="#4184a9"/>
        <path id="Trazado_182628" data-name="Trazado 182628" d="M533.261,158.014h-4.367V147.1a2.183,2.183,0,0,1,2.184-2.183h17.467V125.263h4.367V147.1a2.183,2.183,0,0,1-2.184,2.183H533.261Z" fill="#4184a9"/>
        <path id="Trazado_182629" data-name="Trazado 182629" d="M616.23,140.547H585.663a2.184,2.184,0,0,1-2.184-2.183v-13.1h4.367V136.18H616.23Z" fill="#4184a9"/>
        <path id="Trazado_182630" data-name="Trazado 182630" d="M598.763,158.014H594.4V149.28H576.929a2.183,2.183,0,0,1-2.183-2.183V125.263h4.367v19.651H596.58a2.183,2.183,0,0,1,2.183,2.183Z" fill="#4184a9"/>
        <path id="Trazado_182631" data-name="Trazado 182631" d="M620.6,131.814a6.55,6.55,0,1,1-6.55,6.55,6.55,6.55,0,0,1,6.55-6.55" fill="#79f5ed"/>
        <path id="Trazado_182632" data-name="Trazado 182632" d="M596.579,155.831a6.55,6.55,0,1,1-6.55,6.55,6.55,6.55,0,0,1,6.55-6.55" fill="#79f5ed"/>
        <path id="Trazado_182633" data-name="Trazado 182633" d="M563.829,151.464a6.55,6.55,0,1,1-6.55,6.55,6.55,6.55,0,0,1,6.55-6.55" fill="#79f5ed"/>
        <path id="Trazado_182634" data-name="Trazado 182634" d="M531.078,155.831a6.55,6.55,0,1,1-6.55,6.55,6.55,6.55,0,0,1,6.55-6.55" fill="#79f5ed"/>
        <path id="Trazado_182635" data-name="Trazado 182635" d="M507.06,131.814a6.55,6.55,0,1,1-6.55,6.55,6.55,6.55,0,0,1,6.55-6.55" fill="#79f5ed"/>
        <line id="Línea_189" data-name="Línea 189" x2="511.92" transform="translate(287.311 348.996)" fill="none" stroke="#7142c1" stroke-miterlimit="10" stroke-width="2" stroke-dasharray="12 12"/>
      </g>
    </g>
  </g>
</svg>
