<svg xmlns="http://www.w3.org/2000/svg" xmlns:xlink="http://www.w3.org/1999/xlink" width="505" height="284.4" viewBox="0 0 505 284.4">
  <defs>
    <clipPath id="clip-path">
      <rect id="Rectángulo_38457" data-name="Rectángulo 38457" width="505" height="284.4" fill="none"/>
    </clipPath>
    <clipPath id="clip-path-2">
      <path id="Trazado_181995" data-name="Trazado 181995" d="M131.007,234.269a16.943,16.943,0,1,0,0,33.886H365.913a16.943,16.943,0,1,0,0-33.886Z" transform="translate(-114.062 -234.269)" fill="none"/>
    </clipPath>
    <linearGradient id="linear-gradient" x1="-0.424" y1="1.479" x2="-0.421" y2="1.479" gradientUnits="objectBoundingBox">
      <stop offset="0" stop-color="#a7f"/>
      <stop offset="0.008" stop-color="#a7f"/>
      <stop offset="1" stop-color="#7142c1"/>
    </linearGradient>
  </defs>
  <g id="Grupo_143610" data-name="Grupo 143610" transform="translate(-915 -6166.012)">
    <g id="Grupo_112833" data-name="Grupo 112833" transform="translate(915 6166.012)">
      <g id="Grupo_112828" data-name="Grupo 112828">
        <g id="Grupo_112827" data-name="Grupo 112827" clip-path="url(#clip-path)">
          <path id="Trazado_181921" data-name="Trazado 181921" d="M493.293,284.4H11.707A11.615,11.615,0,0,1,0,272.88V11.52A11.615,11.615,0,0,1,11.707,0H493.293A11.615,11.615,0,0,1,505,11.52V272.88a11.615,11.615,0,0,1-11.707,11.52" fill="#e7defc"/>
          <path id="Trazado_181922" data-name="Trazado 181922" d="M358.234,117.485a17.337,17.337,0,1,0,0-34.67H145.428a17.337,17.337,0,1,0,0,34.67Z" transform="translate(2.078)" fill="#f2f3f7"/>
          <path id="Trazado_181923" data-name="Trazado 181923" d="M358.234,197.785a17.337,17.337,0,1,0,0-34.67H145.428a17.337,17.337,0,1,0,0,34.67Z" transform="translate(2.078)" fill="#f2f3f7"/>
          <path id="Trazado_181924" data-name="Trazado 181924" d="M118.491,66.82c0,.675.013,1.27.055,1.782h-1.071l-.068-1.066h-.027a2.507,2.507,0,0,1-2.2,1.215c-1.044,0-2.293-.568-2.293-2.863V62.066H114.1v3.619c0,1.242.384,2.08,1.482,2.08a1.745,1.745,0,0,0,1.592-1.081,1.719,1.719,0,0,0,.11-.607V62.066h1.207Z" transform="translate(1.836)" fill="#5f616e"/>
          <path id="Trazado_181925" data-name="Trazado 181925" d="M120.215,67.387a3.192,3.192,0,0,0,1.59.473c.88,0,1.292-.432,1.292-.972,0-.567-.345-.878-1.236-1.2-1.193-.419-1.756-1.067-1.756-1.85a2.037,2.037,0,0,1,2.291-1.918,3.356,3.356,0,0,1,1.634.406l-.3.864a2.611,2.611,0,0,0-1.359-.378c-.712,0-1.112.4-1.112.89,0,.541.4.784,1.264,1.108,1.152.433,1.742,1,1.742,1.972,0,1.148-.907,1.958-2.484,1.958a3.83,3.83,0,0,1-1.867-.446Z" transform="translate(1.95)" fill="#5f616e"/>
          <path id="Trazado_181926" data-name="Trazado 181926" d="M131.278,66.82c0,.675.013,1.27.055,1.782h-1.071l-.068-1.066h-.027a2.507,2.507,0,0,1-2.2,1.215c-1.044,0-2.293-.568-2.293-2.863V62.066h1.208v3.619c0,1.242.384,2.08,1.482,2.08a1.745,1.745,0,0,0,1.592-1.081,1.719,1.719,0,0,0,.11-.607V62.066h1.207Z" transform="translate(2.044)" fill="#5f616e"/>
          <path id="Trazado_181927" data-name="Trazado 181927" d="M136.845,68.6l-.1-.824h-.041a2.489,2.489,0,0,1-2.032.972,1.878,1.878,0,0,1-2.031-1.877c0-1.58,1.428-2.444,3.994-2.431v-.134A1.356,1.356,0,0,0,135.13,62.8a3.351,3.351,0,0,0-1.73.487l-.274-.784a4.173,4.173,0,0,1,2.182-.582c2.032,0,2.525,1.366,2.525,2.675v2.444a9.056,9.056,0,0,0,.11,1.567Zm-.179-3.337c-1.317-.025-2.813.2-2.813,1.474a1.06,1.06,0,0,0,1.139,1.132,1.649,1.649,0,0,0,1.606-1.093,1.225,1.225,0,0,0,.068-.377Z" transform="translate(2.157)" fill="#5f616e"/>
          <path id="Trazado_181928" data-name="Trazado 181928" d="M139.668,64.105c0-.77-.014-1.432-.055-2.039h1.057l.041,1.283h.055a1.988,1.988,0,0,1,1.839-1.432,1.285,1.285,0,0,1,.343.042v1.12a1.857,1.857,0,0,0-.413-.04,1.682,1.682,0,0,0-1.619,1.525,3.3,3.3,0,0,0-.055.554V68.6h-1.194Z" transform="translate(2.27)" fill="#5f616e"/>
          <path id="Trazado_181929" data-name="Trazado 181929" d="M145.484,60.23a.748.748,0,0,1-1.5,0,.73.73,0,0,1,.755-.743.711.711,0,0,1,.741.743m-1.346,1.836h1.207V68.6h-1.207Z" transform="translate(2.341)" fill="#5f616e"/>
          <path id="Trazado_181930" data-name="Trazado 181930" d="M153.315,65.281a3.219,3.219,0,0,1-3.308,3.47,3.131,3.131,0,0,1-3.184-3.363,3.216,3.216,0,0,1,3.294-3.471,3.119,3.119,0,0,1,3.2,3.364m-5.27.066c0,1.432.837,2.512,2.017,2.512,1.153,0,2.017-1.067,2.017-2.537,0-1.108-.562-2.513-1.99-2.513s-2.045,1.3-2.045,2.538" transform="translate(2.387)" fill="#5f616e"/>
          <path id="Trazado_181931" data-name="Trazado 181931" d="M163.59,65.281a3.219,3.219,0,0,1-3.308,3.47,3.131,3.131,0,0,1-3.184-3.363,3.216,3.216,0,0,1,3.294-3.471,3.119,3.119,0,0,1,3.2,3.364m-5.27.066c0,1.432.837,2.512,2.017,2.512,1.153,0,2.017-1.067,2.017-2.537,0-1.108-.562-2.513-1.99-2.513s-2.045,1.3-2.045,2.538" transform="translate(2.554)" fill="#5f616e"/>
          <path id="Trazado_181932" data-name="Trazado 181932" d="M168.527,65.551a2.112,2.112,0,0,0,2.278,2.268,4.41,4.41,0,0,0,1.838-.338l.206.851a5.457,5.457,0,0,1-2.209.4,3.058,3.058,0,0,1-3.266-3.295c0-1.971,1.18-3.524,3.115-3.524A2.783,2.783,0,0,1,173.235,65a4.313,4.313,0,0,1-.042.554Zm3.541-.851a1.7,1.7,0,0,0-1.674-1.932,1.983,1.983,0,0,0-1.853,1.932Z" transform="translate(2.722)" fill="#5f616e"/>
          <path id="Trazado_181933" data-name="Trazado 181933" d="M174.613,63.836c0-.676-.014-1.229-.055-1.77h1.057l.055,1.054h.041a2.3,2.3,0,0,1,2.086-1.2,1.962,1.962,0,0,1,1.88,1.31h.027a2.7,2.7,0,0,1,.741-.851,2.293,2.293,0,0,1,1.469-.459c.878,0,2.182.567,2.182,2.836V68.6h-1.18V64.9c0-1.255-.466-2.011-1.441-2.011a1.558,1.558,0,0,0-1.427,1.08,1.9,1.9,0,0,0-.1.594V68.6h-1.18V64.687c0-1.04-.467-1.8-1.386-1.8a1.643,1.643,0,0,0-1.5,1.188,1.6,1.6,0,0,0-.1.58V68.6h-1.18Z" transform="translate(2.838)" fill="#5f616e"/>
          <path id="Trazado_181934" data-name="Trazado 181934" d="M189.559,68.6l-.1-.824h-.041a2.489,2.489,0,0,1-2.031.972,1.879,1.879,0,0,1-2.032-1.877c0-1.58,1.428-2.444,3.994-2.431v-.134a1.356,1.356,0,0,0-1.509-1.513,3.351,3.351,0,0,0-1.73.487l-.274-.784a4.173,4.173,0,0,1,2.182-.582c2.031,0,2.525,1.366,2.525,2.675v2.444a9.054,9.054,0,0,0,.11,1.567Zm-.179-3.337c-1.317-.025-2.813.2-2.813,1.474a1.06,1.06,0,0,0,1.139,1.132,1.649,1.649,0,0,0,1.606-1.093,1.224,1.224,0,0,0,.068-.377Z" transform="translate(3.014)" fill="#5f616e"/>
          <path id="Trazado_181935" data-name="Trazado 181935" d="M193.729,60.23a.748.748,0,0,1-1.5,0,.73.73,0,0,1,.755-.743.711.711,0,0,1,.741.743m-1.346,1.836h1.207V68.6h-1.207Z" transform="translate(3.126)" fill="#5f616e"/>
          <rect id="Rectángulo_38453" data-name="Rectángulo 38453" width="1.207" height="9.588" transform="translate(198.721 59.015)" fill="#5f616e"/>
          <path id="Trazado_181936" data-name="Trazado 181936" d="M201.307,63.146a.817.817,0,1,1,1.633,0,.817.817,0,1,1-1.633,0m0,4.768a.817.817,0,1,1,1.633,0,.817.817,0,1,1-1.633,0" transform="translate(3.273)" fill="#5f616e"/>
          <path id="Trazado_181937" data-name="Trazado 181937" d="M157.536,103.4c0,.569.011,1.07.046,1.5h-.9l-.057-.9H156.6a2.111,2.111,0,0,1-1.851,1.024c-.878,0-1.932-.478-1.932-2.413V99.395h1.017v3.051c0,1.048.324,1.753,1.25,1.753a1.413,1.413,0,0,0,1.435-1.423V99.395h1.018Z" transform="translate(2.485)" fill="#5f616e"/>
          <path id="Trazado_181938" data-name="Trazado 181938" d="M158.988,103.881a2.7,2.7,0,0,0,1.34.4c.742,0,1.088-.364,1.088-.819,0-.478-.29-.74-1.041-1.014-1.007-.352-1.481-.9-1.481-1.559a1.716,1.716,0,0,1,1.932-1.616,2.831,2.831,0,0,1,1.376.341l-.255.729a2.195,2.195,0,0,0-1.145-.319c-.6,0-.937.341-.937.752,0,.455.335.66,1.065.933.972.364,1.468.842,1.468,1.661,0,.968-.763,1.652-2.093,1.652a3.232,3.232,0,0,1-1.572-.376Z" transform="translate(2.581)" fill="#5f616e"/>
          <path id="Trazado_181939" data-name="Trazado 181939" d="M164.2,102.333a1.781,1.781,0,0,0,1.921,1.912,3.737,3.737,0,0,0,1.55-.284l.174.717a4.611,4.611,0,0,1-1.863.341,2.579,2.579,0,0,1-2.753-2.778,2.691,2.691,0,0,1,2.626-2.971,2.346,2.346,0,0,1,2.313,2.6,3.621,3.621,0,0,1-.035.467Zm2.985-.718a1.433,1.433,0,0,0-1.412-1.628,1.672,1.672,0,0,0-1.562,1.628Z" transform="translate(2.654)" fill="#5f616e"/>
          <path id="Trazado_181940" data-name="Trazado 181940" d="M169.329,101.114c0-.648-.012-1.206-.046-1.719h.89l.035,1.082h.047a1.674,1.674,0,0,1,1.55-1.207,1.16,1.16,0,0,1,.29.034v.946a1.49,1.49,0,0,0-.348-.034,1.417,1.417,0,0,0-1.365,1.286,2.741,2.741,0,0,0-.047.466V104.9h-1.006Z" transform="translate(2.753)" fill="#5f616e"/>
          <path id="Trazado_181941" data-name="Trazado 181941" d="M173.095,100.887c0-.568-.012-1.035-.046-1.491h.9l.058.911h.023a2.064,2.064,0,0,1,1.851-1.036c.775,0,1.979.455,1.979,2.345v3.29h-1.018V101.73c0-.888-.335-1.628-1.3-1.628a1.443,1.443,0,0,0-1.365,1.024,1.406,1.406,0,0,0-.07.467v3.313h-1.017Z" transform="translate(2.814)" fill="#5f616e"/>
          <path id="Trazado_181942" data-name="Trazado 181942" d="M182.518,104.906l-.081-.695H182.4a2.1,2.1,0,0,1-1.712.82,1.583,1.583,0,0,1-1.711-1.583c0-1.332,1.2-2.06,3.366-2.048v-.115a1.142,1.142,0,0,0-1.272-1.274,2.824,2.824,0,0,0-1.457.409l-.232-.66a3.518,3.518,0,0,1,1.839-.489,1.966,1.966,0,0,1,2.128,2.254v2.06a7.57,7.57,0,0,0,.093,1.321Zm-.15-2.812c-1.111-.022-2.372.171-2.372,1.24a.894.894,0,0,0,.96.957,1.392,1.392,0,0,0,1.354-.923,1.02,1.02,0,0,0,.058-.318Z" transform="translate(2.91)" fill="#5f616e"/>
          <path id="Trazado_181943" data-name="Trazado 181943" d="M184.9,100.887c0-.568-.012-1.035-.046-1.491h.89l.046.888h.036a1.932,1.932,0,0,1,1.758-1.013,1.653,1.653,0,0,1,1.584,1.1h.023a2.275,2.275,0,0,1,.625-.717,1.933,1.933,0,0,1,1.238-.387c.74,0,1.839.478,1.839,2.39v3.245h-.995v-3.12c0-1.058-.393-1.7-1.215-1.7a1.314,1.314,0,0,0-1.2.911,1.615,1.615,0,0,0-.081.5v3.4H188.4v-3.3c0-.877-.393-1.515-1.169-1.515a1.385,1.385,0,0,0-1.26,1,1.341,1.341,0,0,0-.081.489v3.325H184.9Z" transform="translate(3.006)" fill="#5f616e"/>
          <path id="Trazado_181944" data-name="Trazado 181944" d="M194.96,102.333a1.78,1.78,0,0,0,1.921,1.912,3.737,3.737,0,0,0,1.55-.284l.174.717a4.611,4.611,0,0,1-1.863.341,2.579,2.579,0,0,1-2.753-2.778,2.691,2.691,0,0,1,2.626-2.971,2.346,2.346,0,0,1,2.313,2.6,3.62,3.62,0,0,1-.035.467Zm2.985-.718a1.433,1.433,0,0,0-1.412-1.628,1.672,1.672,0,0,0-1.562,1.628Z" transform="translate(3.154)" fill="#5f616e"/>
          <path id="Trazado_181945" data-name="Trazado 181945" d="M205.31,105.634a4.274,4.274,0,0,1-2.059.455,3.415,3.415,0,0,1-3.506-3.551,4.193,4.193,0,0,1,4.224-4.371,3.188,3.188,0,0,1,3.366,3.289c0,1.708-.972,2.709-2.059,2.709a.846.846,0,0,1-.856-1h-.047a1.821,1.821,0,0,1-1.631,1,1.3,1.3,0,0,1-1.249-1.433,2.71,2.71,0,0,1,2.741-2.7,3.083,3.083,0,0,1,1.238.24l-.393,2.06c-.173.865-.035,1.264.348,1.275.589.011,1.249-.763,1.249-2.083a2.628,2.628,0,0,0-2.8-2.834,3.518,3.518,0,0,0-3.471,3.779,2.866,2.866,0,0,0,2.974,3.073,3.667,3.667,0,0,0,1.747-.4Zm-.636-4.918a2.083,2.083,0,0,0-.578-.079,1.968,1.968,0,0,0-1.839,2.049c0,.5.254.865.763.865.671,0,1.285-.843,1.412-1.548Z" transform="translate(3.248)" fill="#5f616e"/>
          <path id="Trazado_181946" data-name="Trazado 181946" d="M209.048,102.333a1.78,1.78,0,0,0,1.921,1.912,3.737,3.737,0,0,0,1.55-.284l.174.717a4.611,4.611,0,0,1-1.863.341,2.579,2.579,0,0,1-2.753-2.778A2.691,2.691,0,0,1,210.7,99.27a2.346,2.346,0,0,1,2.313,2.6,3.617,3.617,0,0,1-.035.467Zm2.985-.718a1.433,1.433,0,0,0-1.412-1.628,1.672,1.672,0,0,0-1.562,1.628Z" transform="translate(3.383)" fill="#5f616e"/>
          <path id="Trazado_181947" data-name="Trazado 181947" d="M214.177,100.887c0-.568-.011-1.035-.046-1.491h.89l.046.888h.036a1.932,1.932,0,0,1,1.758-1.013,1.653,1.653,0,0,1,1.584,1.1h.023a2.275,2.275,0,0,1,.625-.717,1.933,1.933,0,0,1,1.238-.387c.74,0,1.839.478,1.839,2.39v3.245h-.995v-3.12c0-1.058-.393-1.7-1.215-1.7a1.314,1.314,0,0,0-1.2.911,1.615,1.615,0,0,0-.081.5v3.4h-.995v-3.3c0-.877-.393-1.515-1.169-1.515a1.385,1.385,0,0,0-1.26,1,1.341,1.341,0,0,0-.081.489v3.325h-.995Z" transform="translate(3.482)" fill="#5f616e"/>
          <path id="Trazado_181948" data-name="Trazado 181948" d="M226.774,104.906l-.081-.695h-.035a2.094,2.094,0,0,1-1.711.82,1.584,1.584,0,0,1-1.712-1.583c0-1.332,1.2-2.06,3.367-2.048v-.115a1.143,1.143,0,0,0-1.272-1.274,2.827,2.827,0,0,0-1.458.409l-.232-.66a3.521,3.521,0,0,1,1.84-.489,1.967,1.967,0,0,1,2.128,2.254v2.06a7.676,7.676,0,0,0,.092,1.321Zm-.15-2.812c-1.111-.022-2.371.171-2.371,1.24a.893.893,0,0,0,.959.957,1.391,1.391,0,0,0,1.354-.923.992.992,0,0,0,.058-.318Z" transform="translate(3.63)" fill="#5f616e"/>
          <path id="Trazado_181949" data-name="Trazado 181949" d="M230.287,97.848a.631.631,0,0,1-1.261,0,.616.616,0,0,1,.637-.626.6.6,0,0,1,.624.626m-1.133,1.547h1.017v5.51h-1.017Z" transform="translate(3.724)" fill="#5f616e"/>
          <rect id="Rectángulo_38454" data-name="Rectángulo 38454" width="1.017" height="8.082" transform="translate(235.584 96.823)" fill="#5f616e"/>
          <path id="Trazado_181950" data-name="Trazado 181950" d="M234.147,104.313a.678.678,0,0,1,.694-.717.718.718,0,0,1-.011,1.434.675.675,0,0,1-.683-.717" transform="translate(3.807)" fill="#5f616e"/>
          <path id="Trazado_181951" data-name="Trazado 181951" d="M240.739,104.7a3.8,3.8,0,0,1-1.609.319,2.638,2.638,0,0,1-2.788-2.812,2.823,2.823,0,0,1,3.008-2.925,3.435,3.435,0,0,1,1.411.284l-.231.775a2.388,2.388,0,0,0-1.18-.262,2.075,2.075,0,0,0-.035,4.143,2.935,2.935,0,0,0,1.249-.273Z" transform="translate(3.843)" fill="#5f616e"/>
          <path id="Trazado_181952" data-name="Trazado 181952" d="M246.846,102.105a2.714,2.714,0,0,1-2.789,2.925,2.638,2.638,0,0,1-2.683-2.834,2.71,2.71,0,0,1,2.776-2.926,2.628,2.628,0,0,1,2.7,2.835m-4.442.057c0,1.206.705,2.117,1.7,2.117.972,0,1.7-.9,1.7-2.139,0-.934-.475-2.119-1.678-2.119s-1.724,1.093-1.724,2.141" transform="translate(3.925)" fill="#5f616e"/>
          <path id="Trazado_181953" data-name="Trazado 181953" d="M248.021,100.887c0-.568-.011-1.035-.046-1.491h.89l.046.888h.036a1.932,1.932,0,0,1,1.758-1.013,1.653,1.653,0,0,1,1.584,1.1h.023a2.275,2.275,0,0,1,.625-.717,1.933,1.933,0,0,1,1.238-.387c.74,0,1.839.478,1.839,2.39v3.245h-.995v-3.12c0-1.058-.393-1.7-1.215-1.7a1.314,1.314,0,0,0-1.2.911,1.615,1.615,0,0,0-.081.5v3.4h-.995v-3.3c0-.877-.393-1.515-1.169-1.515a1.385,1.385,0,0,0-1.26,1,1.341,1.341,0,0,0-.081.489v3.325h-.995Z" transform="translate(4.032)" fill="#5f616e"/>
          <path id="Trazado_181954" data-name="Trazado 181954" d="M114.8,151.242a4.511,4.511,0,0,1-1.908.378,3.129,3.129,0,0,1-3.307-3.335,3.348,3.348,0,0,1,3.568-3.471,4.09,4.09,0,0,1,1.674.338l-.274.918a2.836,2.836,0,0,0-1.4-.31,2.461,2.461,0,0,0-.042,4.915,3.45,3.45,0,0,0,1.482-.325Z" transform="translate(1.782)" fill="#5f616e"/>
          <path id="Trazado_181955" data-name="Trazado 181955" d="M122.042,148.163a3.219,3.219,0,0,1-3.307,3.47,3.13,3.13,0,0,1-3.185-3.362,3.216,3.216,0,0,1,3.294-3.471,3.117,3.117,0,0,1,3.2,3.363m-5.269.067c0,1.432.836,2.512,2.016,2.512,1.153,0,2.017-1.067,2.017-2.538,0-1.108-.561-2.512-1.99-2.512s-2.044,1.3-2.044,2.538" transform="translate(1.879)" fill="#5f616e"/>
          <path id="Trazado_181956" data-name="Trazado 181956" d="M123.438,146.719c0-.676-.014-1.229-.055-1.77h1.07l.069,1.081h.027a2.447,2.447,0,0,1,2.2-1.229c.92,0,2.347.54,2.347,2.782v3.9h-1.207v-3.768c0-1.054-.4-1.931-1.537-1.931A1.71,1.71,0,0,0,124.729,147a1.663,1.663,0,0,0-.083.554v3.93h-1.207Z" transform="translate(2.006)" fill="#5f616e"/>
          <path id="Trazado_181957" data-name="Trazado 181957" d="M132.343,143.072v1.877h1.73v.9h-1.73v3.525c0,.809.234,1.269.906,1.269a2.745,2.745,0,0,0,.7-.081l.055.891a3.008,3.008,0,0,1-1.07.162,1.688,1.688,0,0,1-1.3-.5,2.4,2.4,0,0,1-.466-1.7v-3.565h-1.029v-.9h1.029v-1.566Z" transform="translate(2.116)" fill="#5f616e"/>
          <path id="Trazado_181958" data-name="Trazado 181958" d="M135.347,146.988c0-.77-.014-1.432-.055-2.039h1.057l.041,1.283h.055a1.988,1.988,0,0,1,1.839-1.432,1.285,1.285,0,0,1,.344.042v1.12a1.857,1.857,0,0,0-.413-.04,1.682,1.682,0,0,0-1.619,1.525,3.3,3.3,0,0,0-.055.554v3.484h-1.194Z" transform="translate(2.2)" fill="#5f616e"/>
          <path id="Trazado_181959" data-name="Trazado 181959" d="M143.38,151.485l-.1-.824h-.041a2.489,2.489,0,0,1-2.031.972,1.879,1.879,0,0,1-2.032-1.877c0-1.58,1.428-2.444,3.994-2.43v-.135a1.356,1.356,0,0,0-1.509-1.513,3.351,3.351,0,0,0-1.73.487l-.274-.784a4.172,4.172,0,0,1,2.182-.581c2.031,0,2.525,1.365,2.525,2.674v2.445a9.05,9.05,0,0,0,.11,1.566Zm-.179-3.336c-1.317-.026-2.813.2-2.813,1.473a1.06,1.06,0,0,0,1.139,1.133,1.651,1.651,0,0,0,1.606-1.093,1.237,1.237,0,0,0,.068-.378Z" transform="translate(2.263)" fill="#5f616e"/>
          <path id="Trazado_181960" data-name="Trazado 181960" d="M146.045,150.269a3.2,3.2,0,0,0,1.591.473c.879,0,1.291-.432,1.291-.972,0-.567-.344-.878-1.235-1.2-1.194-.419-1.757-1.067-1.757-1.85a2.038,2.038,0,0,1,2.292-1.918,3.355,3.355,0,0,1,1.633.406l-.3.864a2.614,2.614,0,0,0-1.359-.378c-.713,0-1.112.4-1.112.89,0,.541.4.784,1.263,1.108,1.152.433,1.743,1,1.743,1.972,0,1.148-.906,1.958-2.484,1.958a3.827,3.827,0,0,1-1.867-.446Z" transform="translate(2.37)" fill="#5f616e"/>
          <path id="Trazado_181961" data-name="Trazado 181961" d="M152.229,148.434a2.112,2.112,0,0,0,2.278,2.268,4.41,4.41,0,0,0,1.838-.338l.206.851a5.457,5.457,0,0,1-2.209.4,3.058,3.058,0,0,1-3.266-3.295c0-1.971,1.18-3.524,3.115-3.524a2.783,2.783,0,0,1,2.745,3.079,4.313,4.313,0,0,1-.042.554Zm3.541-.851a1.7,1.7,0,0,0-1.674-1.932,1.983,1.983,0,0,0-1.853,1.932Z" transform="translate(2.457)" fill="#5f616e"/>
          <path id="Trazado_181962" data-name="Trazado 181962" d="M158.315,146.719c0-.676-.014-1.23-.056-1.77h1.071l.068,1.08h.027a2.451,2.451,0,0,1,2.2-1.228c.92,0,2.347.54,2.347,2.782v3.9h-1.207v-3.767c0-1.054-.4-1.931-1.538-1.931A1.71,1.71,0,0,0,159.6,147a1.683,1.683,0,0,0-.082.554v3.929h-1.207Zm1.125-2.891c-.027-.877.342-1.4.933-1.4a1.7,1.7,0,0,1,.851.3,1.4,1.4,0,0,0,.577.229c.22,0,.357-.122.384-.581h.644c.014.9-.3,1.364-.946,1.364a1.852,1.852,0,0,1-.837-.27,1.233,1.233,0,0,0-.59-.243c-.22,0-.329.229-.357.607Z" transform="translate(2.573)" fill="#5f616e"/>
          <path id="Trazado_181963" data-name="Trazado 181963" d="M169.494,151.485l-.1-.824h-.041a2.489,2.489,0,0,1-2.032.972,1.878,1.878,0,0,1-2.031-1.877c0-1.58,1.428-2.444,3.994-2.43v-.135a1.356,1.356,0,0,0-1.509-1.513,3.351,3.351,0,0,0-1.73.487l-.274-.784a4.172,4.172,0,0,1,2.182-.581c2.031,0,2.525,1.365,2.525,2.674v2.445a9.051,9.051,0,0,0,.11,1.566Zm-.179-3.336c-1.317-.026-2.813.2-2.813,1.473a1.06,1.06,0,0,0,1.139,1.133,1.651,1.651,0,0,0,1.606-1.093,1.236,1.236,0,0,0,.068-.378Z" transform="translate(2.688)" fill="#5f616e"/>
          <path id="Trazado_181964" data-name="Trazado 181964" d="M174.895,146.029a.817.817,0,1,1,1.633,0,.817.817,0,1,1-1.633,0m0,4.768a.817.817,0,1,1,1.633,0,.817.817,0,1,1-1.633,0" transform="translate(2.844)" fill="#5f616e"/>
          <path id="Trazado_181965" data-name="Trazado 181965" d="M157.421,180.429l-1.562,2.021v.033l2.483-.324v1.1l-2.483-.291V183l1.578,1.942-1.036.582-.986-2.265h-.033l-1.069,2.281-.937-.583,1.562-1.972v-.033l-2.433.307v-1.1l2.417.308v-.032l-1.546-1.974,1-.566,1.019,2.248h.033l1-2.264Z" transform="translate(2.48)" fill="#5f616e"/>
          <path id="Trazado_181966" data-name="Trazado 181966" d="M167.562,180.429,166,182.45v.033l2.483-.324v1.1L166,182.968V183l1.578,1.942-1.036.582-.986-2.265h-.033l-1.069,2.281-.937-.583,1.562-1.972v-.033l-2.433.307v-1.1l2.417.308v-.032l-1.546-1.974,1-.566,1.019,2.248h.033l1-2.264Z" transform="translate(2.645)" fill="#5f616e"/>
          <path id="Trazado_181967" data-name="Trazado 181967" d="M177.7,180.429l-1.562,2.021v.033l2.483-.324v1.1l-2.483-.291V183l1.578,1.942-1.036.582-.986-2.265h-.033L174.6,185.54l-.937-.583,1.562-1.972v-.033l-2.433.307v-1.1l2.417.308v-.032l-1.546-1.974,1-.566,1.019,2.248h.033l1-2.264Z" transform="translate(2.81)" fill="#5f616e"/>
          <path id="Trazado_181968" data-name="Trazado 181968" d="M187.843,180.429l-1.562,2.021v.033l2.483-.324v1.1l-2.483-.291V183l1.578,1.942-1.036.582-.986-2.265h-.033l-1.069,2.281-.937-.583,1.562-1.972v-.033l-2.433.307v-1.1l2.417.308v-.032l-1.546-1.974,1-.566,1.019,2.248h.033l1-2.264Z" transform="translate(2.974)" fill="#5f616e"/>
          <path id="Trazado_181969" data-name="Trazado 181969" d="M197.984,180.429l-1.562,2.021v.033l2.483-.324v1.1l-2.483-.291V183L198,184.942l-1.036.582-.986-2.265h-.033l-1.069,2.281-.937-.583,1.562-1.972v-.033l-2.433.307v-1.1l2.417.308v-.032l-1.546-1.974,1-.566,1.019,2.248H196l1-2.264Z" transform="translate(3.139)" fill="#5f616e"/>
          <path id="Trazado_181970" data-name="Trazado 181970" d="M208.125,180.429l-1.562,2.021v.033l2.483-.324v1.1l-2.483-.291V183l1.578,1.942-1.036.582-.986-2.265h-.033l-1.069,2.281-.937-.583,1.562-1.972v-.033l-2.433.307v-1.1l2.417.308v-.032l-1.546-1.974,1-.566,1.019,2.248h.033l1-2.264Z" transform="translate(3.304)" fill="#5f616e"/>
          <path id="Trazado_181971" data-name="Trazado 181971" d="M218.266,180.429,216.7,182.45v.033l2.483-.324v1.1l-2.483-.291V183l1.578,1.942-1.036.582-.986-2.265h-.033l-1.069,2.281-.937-.583,1.562-1.972v-.033l-2.433.307v-1.1l2.417.308v-.032l-1.546-1.974,1-.566,1.019,2.248h.033l1-2.264Z" transform="translate(3.469)" fill="#5f616e"/>
          <path id="Trazado_181972" data-name="Trazado 181972" d="M228.407,180.429l-1.562,2.021v.033l2.483-.324v1.1l-2.483-.291V183l1.578,1.942-1.036.582-.986-2.265h-.033L225.3,185.54l-.937-.583,1.562-1.972v-.033l-2.433.307v-1.1l2.417.308v-.032l-1.546-1.974,1-.566,1.019,2.248h.033l1-2.264Z" transform="translate(3.634)" fill="#5f616e"/>
          <path id="Trazado_181973" data-name="Trazado 181973" d="M255.74,211.549a2.878,2.878,0,0,1-2.956,3.1,2.8,2.8,0,0,1-2.846-3.006,2.873,2.873,0,0,1,2.944-3.1,2.786,2.786,0,0,1,2.858,3m-4.71.06c0,1.279.748,2.245,1.8,2.245,1.03,0,1.8-.953,1.8-2.268,0-.991-.5-2.246-1.779-2.246s-1.827,1.159-1.827,2.269" transform="translate(4.064)" fill="#7652dc"/>
          <rect id="Rectángulo_38455" data-name="Rectángulo 38455" width="1.079" height="8.569" transform="translate(261.167 205.949)" fill="#7652dc"/>
          <path id="Trazado_181974" data-name="Trazado 181974" d="M260.266,208.677l1.165,3.283a14.5,14.5,0,0,1,.479,1.5h.037c.135-.482.307-.965.5-1.5l1.153-3.283h1.129l-2.331,5.842h-1.03l-2.257-5.842Z" transform="translate(4.213)" fill="#7652dc"/>
          <path id="Trazado_181975" data-name="Trazado 181975" d="M266.848,207.035a.668.668,0,0,1-1.336,0,.652.652,0,0,1,.674-.664.635.635,0,0,1,.663.664m-1.2,1.642h1.079v5.842h-1.079Z" transform="translate(4.317)" fill="#7652dc"/>
          <path id="Trazado_181976" data-name="Trazado 181976" d="M273.6,205.95v7.06c0,.52.012,1.11.049,1.509h-.969l-.05-1.014h-.024a2.2,2.2,0,0,1-2.023,1.147,2.679,2.679,0,0,1-2.54-2.969c-.011-1.943,1.214-3.139,2.662-3.139a2,2,0,0,1,1.792.894h.024V205.95Zm-1.079,5.1a1.852,1.852,0,0,0-.049-.446,1.583,1.583,0,0,0-1.559-1.232c-1.116,0-1.778.966-1.778,2.257,0,1.183.589,2.16,1.755,2.16a1.618,1.618,0,0,0,1.582-1.266,1.835,1.835,0,0,0,.049-.459Z" transform="translate(4.358)" fill="#7652dc"/>
          <path id="Trazado_181977" data-name="Trazado 181977" d="M278.573,214.518l-.086-.736h-.037a2.221,2.221,0,0,1-1.815.869,1.679,1.679,0,0,1-1.816-1.677c0-1.413,1.276-2.185,3.57-2.173v-.12a1.212,1.212,0,0,0-1.35-1.353,2.992,2.992,0,0,0-1.546.435l-.245-.7a3.729,3.729,0,0,1,1.95-.519,2.086,2.086,0,0,1,2.257,2.389v2.185a8.031,8.031,0,0,0,.1,1.4Zm-.16-2.981c-1.178-.023-2.515.182-2.515,1.315a.948.948,0,0,0,1.018,1.015,1.474,1.474,0,0,0,1.435-.978,1.071,1.071,0,0,0,.062-.338Z" transform="translate(4.469)" fill="#7652dc"/>
          <path id="Trazado_181978" data-name="Trazado 181978" d="M280.956,213.432a2.864,2.864,0,0,0,1.423.422c.785,0,1.153-.386,1.153-.869,0-.506-.307-.784-1.1-1.074-1.067-.375-1.57-.954-1.57-1.654a1.821,1.821,0,0,1,2.049-1.714,2.99,2.99,0,0,1,1.459.364l-.269.771a2.358,2.358,0,0,0-1.214-.338c-.638,0-.994.363-.994.8,0,.482.356.7,1.129.989,1.03.387,1.558.895,1.558,1.762,0,1.026-.81,1.751-2.221,1.751a3.448,3.448,0,0,1-1.669-.4Z" transform="translate(4.564)" fill="#7652dc"/>
          <path id="Trazado_181979" data-name="Trazado 181979" d="M287.189,207v1.678h1.546v.808h-1.546v3.151c0,.724.208,1.134.809,1.134a2.455,2.455,0,0,0,.626-.072l.049.8a2.664,2.664,0,0,1-.956.146,1.508,1.508,0,0,1-1.166-.448,2.135,2.135,0,0,1-.417-1.52v-3.187h-.92v-.808h.92v-1.4Z" transform="translate(4.638)" fill="#7652dc"/>
          <path id="Trazado_181980" data-name="Trazado 181980" d="M290.409,211.791a1.887,1.887,0,0,0,2.037,2.027,3.956,3.956,0,0,0,1.643-.3l.184.761a4.876,4.876,0,0,1-1.975.362,2.734,2.734,0,0,1-2.92-2.945,2.852,2.852,0,0,1,2.785-3.15,2.487,2.487,0,0,1,2.453,2.752,3.983,3.983,0,0,1-.037.495Zm3.165-.761a1.519,1.519,0,0,0-1.5-1.726,1.772,1.772,0,0,0-1.655,1.726Z" transform="translate(4.705)" fill="#7652dc"/>
          <rect id="Rectángulo_38456" data-name="Rectángulo 38456" width="1.079" height="8.569" transform="translate(303.261 205.949)" fill="#7652dc"/>
          <path id="Trazado_181981" data-name="Trazado 181981" d="M304.553,214.518l-.086-.736h-.037a2.221,2.221,0,0,1-1.815.869,1.679,1.679,0,0,1-1.816-1.677c0-1.413,1.276-2.185,3.57-2.173v-.12a1.212,1.212,0,0,0-1.35-1.353,2.992,2.992,0,0,0-1.546.435l-.245-.7a3.729,3.729,0,0,1,1.95-.519,2.086,2.086,0,0,1,2.257,2.389v2.185a8.028,8.028,0,0,0,.1,1.4Zm-.16-2.981c-1.178-.023-2.515.182-2.515,1.315a.948.948,0,0,0,1.018,1.015,1.474,1.474,0,0,0,1.435-.978,1.07,1.07,0,0,0,.062-.338Z" transform="translate(4.891)" fill="#7652dc"/>
          <path id="Trazado_181982" data-name="Trazado 181982" d="M313.875,214.3a4.023,4.023,0,0,1-1.7.338,2.8,2.8,0,0,1-2.956-2.982,2.993,2.993,0,0,1,3.189-3.1,3.648,3.648,0,0,1,1.5.3l-.245.821a2.537,2.537,0,0,0-1.251-.277,2.2,2.2,0,0,0-.037,4.392,3.1,3.1,0,0,0,1.324-.289Z" transform="translate(5.028)" fill="#7652dc"/>
          <path id="Trazado_181983" data-name="Trazado 181983" d="M320.352,211.549a2.878,2.878,0,0,1-2.956,3.1,2.8,2.8,0,0,1-2.846-3.006,2.873,2.873,0,0,1,2.944-3.1,2.786,2.786,0,0,1,2.858,3m-4.71.06c0,1.279.748,2.245,1.8,2.245,1.03,0,1.8-.953,1.8-2.268,0-.991-.5-2.246-1.779-2.246s-1.827,1.159-1.827,2.269" transform="translate(5.115)" fill="#7652dc"/>
          <path id="Trazado_181984" data-name="Trazado 181984" d="M321.6,210.258c0-.6-.012-1.1-.049-1.581h.957l.061.966h.024a2.187,2.187,0,0,1,1.962-1.1c.822,0,2.1.483,2.1,2.486v3.489h-1.079v-3.367c0-.942-.356-1.727-1.374-1.727a1.529,1.529,0,0,0-1.447,1.087,1.481,1.481,0,0,0-.074.494v3.513H321.6Z" transform="translate(5.228)" fill="#7652dc"/>
          <path id="Trazado_181985" data-name="Trazado 181985" d="M329.564,207v1.678h1.546v.808h-1.546v3.151c0,.724.208,1.134.809,1.134A2.455,2.455,0,0,0,331,213.7l.049.8a2.664,2.664,0,0,1-.956.146,1.508,1.508,0,0,1-1.166-.448,2.135,2.135,0,0,1-.417-1.52v-3.187h-.92v-.808h.92v-1.4Z" transform="translate(5.327)" fill="#7652dc"/>
          <path id="Trazado_181986" data-name="Trazado 181986" d="M332.249,210.5c0-.687-.012-1.279-.049-1.822h.944l.037,1.146h.05a1.776,1.776,0,0,1,1.643-1.279,1.2,1.2,0,0,1,.307.036v1a1.663,1.663,0,0,0-.368-.036,1.5,1.5,0,0,0-1.447,1.364,2.854,2.854,0,0,0-.05.494v3.115h-1.067Z" transform="translate(5.402)" fill="#7652dc"/>
          <path id="Trazado_181987" data-name="Trazado 181987" d="M339.43,214.518l-.086-.736h-.037a2.221,2.221,0,0,1-1.815.869,1.679,1.679,0,0,1-1.816-1.677c0-1.413,1.276-2.185,3.57-2.173v-.12a1.212,1.212,0,0,0-1.35-1.353,2.992,2.992,0,0,0-1.546.435l-.245-.7a3.729,3.729,0,0,1,1.95-.519,2.086,2.086,0,0,1,2.257,2.389v2.185a8.031,8.031,0,0,0,.1,1.4Zm-.16-2.981c-1.178-.023-2.515.182-2.515,1.315a.948.948,0,0,0,1.018,1.015,1.474,1.474,0,0,0,1.435-.978,1.071,1.071,0,0,0,.062-.338Z" transform="translate(5.458)" fill="#7652dc"/>
          <path id="Trazado_181988" data-name="Trazado 181988" d="M341.814,213.432a2.864,2.864,0,0,0,1.423.422c.785,0,1.153-.386,1.153-.869,0-.506-.307-.784-1.1-1.074-1.067-.375-1.57-.954-1.57-1.654a1.821,1.821,0,0,1,2.049-1.714,2.99,2.99,0,0,1,1.459.364l-.269.771a2.358,2.358,0,0,0-1.214-.338c-.638,0-.994.363-.994.8,0,.482.356.7,1.129.989,1.03.387,1.558.895,1.558,1.762,0,1.026-.81,1.751-2.221,1.751a3.448,3.448,0,0,1-1.669-.4Z" transform="translate(5.554)" fill="#7652dc"/>
          <path id="Trazado_181989" data-name="Trazado 181989" d="M347.342,211.791a1.887,1.887,0,0,0,2.037,2.027,3.956,3.956,0,0,0,1.643-.3l.184.761a4.875,4.875,0,0,1-1.975.362,2.734,2.734,0,0,1-2.92-2.945,2.852,2.852,0,0,1,2.785-3.15,2.487,2.487,0,0,1,2.453,2.752,3.982,3.982,0,0,1-.037.495Zm3.165-.761a1.519,1.519,0,0,0-1.5-1.726,1.772,1.772,0,0,0-1.655,1.726Z" transform="translate(5.631)" fill="#7652dc"/>
          <path id="Trazado_181990" data-name="Trazado 181990" d="M352.784,210.258c0-.6-.011-1.1-.049-1.581h.957l.061.966h.024a2.189,2.189,0,0,1,1.962-1.1c.822,0,2.1.483,2.1,2.486v3.489h-1.079v-3.367c0-.942-.356-1.727-1.374-1.727a1.529,1.529,0,0,0-1.447,1.087,1.508,1.508,0,0,0-.073.494v3.513h-1.08Zm1.006-2.583c-.024-.784.307-1.255.834-1.255a1.522,1.522,0,0,1,.76.266,1.245,1.245,0,0,0,.515.205c.2,0,.319-.109.344-.52h.576c.013.81-.269,1.22-.847,1.22a1.664,1.664,0,0,1-.748-.241,1.092,1.092,0,0,0-.526-.218c-.2,0-.295.205-.319.543Z" transform="translate(5.736)" fill="#7652dc"/>
          <path id="Trazado_181991" data-name="Trazado 181991" d="M362.779,214.518l-.086-.736h-.037a2.221,2.221,0,0,1-1.815.869,1.679,1.679,0,0,1-1.816-1.677c0-1.413,1.276-2.185,3.57-2.173v-.12a1.212,1.212,0,0,0-1.35-1.353,2.992,2.992,0,0,0-1.546.435l-.245-.7a3.729,3.729,0,0,1,1.95-.519,2.086,2.086,0,0,1,2.257,2.389v2.185a8.034,8.034,0,0,0,.1,1.4Zm-.16-2.981c-1.178-.023-2.515.182-2.515,1.315a.948.948,0,0,0,1.018,1.015,1.474,1.474,0,0,0,1.435-.978,1.072,1.072,0,0,0,.062-.338Z" transform="translate(5.838)" fill="#7652dc"/>
          <path id="Trazado_181992" data-name="Trazado 181992" d="M368.7,212.213l-.023-.314a2.742,2.742,0,0,1,.759-2.088,2.625,2.625,0,0,0,.859-1.653c0-.616-.391-1.026-1.166-1.038a2.2,2.2,0,0,0-1.237.374l-.3-.761a3.263,3.263,0,0,1,1.755-.482,1.8,1.8,0,0,1,2.047,1.774,3.252,3.252,0,0,1-1.053,2.1,2.37,2.37,0,0,0-.7,1.774l.012.314Zm-.268,1.69a.719.719,0,0,1,.736-.761.755.755,0,1,1-.736.761" transform="translate(5.977)" fill="#7652dc"/>
          <path id="Trazado_181993" data-name="Trazado 181993" d="M354.891,180.612a14.1,14.1,0,0,0-2.38-2.314l-1.277,1.256a13.8,13.8,0,0,1,1.779,1.591c-.953,1.027-3.256,3.176-5.854,3.176a4.772,4.772,0,0,1-.7-.069l-1.485,1.463a7.105,7.105,0,0,0,2.185.361c4.269,0,7.594-4.22,7.732-4.4a.864.864,0,0,0,0-1.065" transform="translate(5.609)" fill="#5f616e"/>
          <path id="Trazado_181994" data-name="Trazado 181994" d="M352.277,176.194a.9.9,0,0,0-1.258,0l-.731.718a7.451,7.451,0,0,0-3.038-.7c-4.273,0-7.6,4.22-7.736,4.4a.864.864,0,0,0,0,1.065,14.6,14.6,0,0,0,3.079,2.807l-.375.37a.867.867,0,0,0,0,1.241.9.9,0,0,0,1.259,0l8.8-8.66a.867.867,0,0,0,0-1.241m-10.884,4.949c.952-1.027,3.256-3.175,5.858-3.175a5.315,5.315,0,0,1,1.661.3l-.873.858a2.711,2.711,0,0,0-3.581,2.563,2.669,2.669,0,0,0,.146.818l-.712.7a12.977,12.977,0,0,1-2.5-2.066" transform="translate(5.518)" fill="#5f616e"/>
        </g>
      </g>
      <g id="Grupo_112830" data-name="Grupo 112830" transform="translate(118.102 234.269)">
        <g id="Grupo_112829" data-name="Grupo 112829" clip-path="url(#clip-path-2)">
          <rect id="Rectángulo_38458" data-name="Rectángulo 38458" width="268.795" height="33.886" fill="url(#linear-gradient)"/>
        </g>
      </g>
      <g id="Grupo_112832" data-name="Grupo 112832">
        <g id="Grupo_112831" data-name="Grupo 112831" clip-path="url(#clip-path)">
          <rect id="Rectángulo_38459" data-name="Rectángulo 38459" width="1.567" height="11.344" transform="translate(223.954 245.164)" fill="#fff"/>
          <path id="Trazado_181996" data-name="Trazado 181996" d="M225.908,248.078l.111,1.255a3.078,3.078,0,0,1,1.073-1.04,2.892,2.892,0,0,1,1.469-.37,2.817,2.817,0,0,1,2.145.8,3.466,3.466,0,0,1,.76,2.465v5.322h-1.56v-5.29a2.249,2.249,0,0,0-.447-1.581,1.808,1.808,0,0,0-1.366-.468,2.457,2.457,0,0,0-1.224.284,2.074,2.074,0,0,0-.795.8v6.256h-1.56v-8.43Z" transform="translate(3.651)" fill="#fff"/>
          <path id="Trazado_181997" data-name="Trazado 181997" d="M233.31,252.449a5.558,5.558,0,0,1,.883-3.28,2.85,2.85,0,0,1,2.466-1.246,3.04,3.04,0,0,1,1.433.323,2.857,2.857,0,0,1,1.037.93l.19-1.1h1.244v8.476a3.189,3.189,0,0,1-.958,2.49,3.977,3.977,0,0,1-2.763.868,5.921,5.921,0,0,1-1.334-.167,5.282,5.282,0,0,1-1.262-.456l.238-1.193a4.452,4.452,0,0,0,1.087.378,5.64,5.64,0,0,0,1.255.145,2.3,2.3,0,0,0,1.66-.511,2.093,2.093,0,0,0,.518-1.554V255.6a2.756,2.756,0,0,1-1.005.8,3.179,3.179,0,0,1-1.355.274,2.946,2.946,0,0,1-2.45-1.119,4.607,4.607,0,0,1-.883-2.941Zm1.56.163a3.536,3.536,0,0,0,.53,2.041,1.851,1.851,0,0,0,1.639.772,2.092,2.092,0,0,0,1.18-.316,2.415,2.415,0,0,0,.784-.892v-3.879a2.4,2.4,0,0,0-.784-.854,2.086,2.086,0,0,0-1.165-.315,1.78,1.78,0,0,0-1.65.911,4.641,4.641,0,0,0-.535,2.369Z" transform="translate(3.794)" fill="#fff"/>
          <path id="Trazado_181998" data-name="Trazado 181998" d="M246.7,249.433l-.8-.047a1.811,1.811,0,0,0-1.042.289,1.853,1.853,0,0,0-.652.81v6.022h-1.56v-8.429h1.393l.15,1.231a2.942,2.942,0,0,1,.9-1.021,2.124,2.124,0,0,1,1.231-.366,1.877,1.877,0,0,1,.332.028,2.155,2.155,0,0,1,.261.057Z" transform="translate(3.946)" fill="#fff"/>
          <path id="Trazado_181999" data-name="Trazado 181999" d="M251.643,256.672a3.654,3.654,0,0,1-2.878-1.161,4.424,4.424,0,0,1-1.034-3.054v-.343a4.329,4.329,0,0,1,1.065-3,3.359,3.359,0,0,1,2.6-1.187,3.134,3.134,0,0,1,2.577,1.052,4.282,4.282,0,0,1,.859,2.8v.809h-5.479l-.023.039a3.452,3.452,0,0,0,.569,2.061,2.006,2.006,0,0,0,1.743.791,3.982,3.982,0,0,0,1.389-.222,3.114,3.114,0,0,0,1.025-.612l.61,1a3.736,3.736,0,0,1-1.212.736,4.89,4.89,0,0,1-1.812.3m-.246-7.542a1.708,1.708,0,0,0-1.35.619,2.905,2.905,0,0,0-.653,1.586l.015.039h3.864v-.125a2.43,2.43,0,0,0-.458-1.519,1.674,1.674,0,0,0-1.418-.6" transform="translate(4.028)" fill="#fff"/>
          <path id="Trazado_182000" data-name="Trazado 182000" d="M261.425,254.24a1.016,1.016,0,0,0-.392-.825,3.813,3.813,0,0,0-1.485-.562,6.271,6.271,0,0,1-2.323-.9,1.8,1.8,0,0,1-.812-1.543,2.209,2.209,0,0,1,.891-1.761,3.521,3.521,0,0,1,2.308-.731,3.484,3.484,0,0,1,2.359.778,2.219,2.219,0,0,1,.864,1.815l-.016.047H261.33a1.317,1.317,0,0,0-.487-.989,1.756,1.756,0,0,0-1.231-.444,1.794,1.794,0,0,0-1.232.366,1.136,1.136,0,0,0-.408.873.916.916,0,0,0,.353.77,3.9,3.9,0,0,0,1.452.5,6.207,6.207,0,0,1,2.391.927,1.86,1.86,0,0,1,.816,1.567,2.209,2.209,0,0,1-.923,1.831,3.852,3.852,0,0,1-2.411.709,3.807,3.807,0,0,1-2.581-.819,2.321,2.321,0,0,1-.9-1.909l.016-.047h1.489a1.414,1.414,0,0,0,.617,1.2,2.429,2.429,0,0,0,1.355.377,2.158,2.158,0,0,0,1.3-.346,1.059,1.059,0,0,0,.472-.885" transform="translate(4.165)" fill="#fff"/>
          <path id="Trazado_182001" data-name="Trazado 182001" d="M270.054,256.508c-.053-.255-.094-.479-.122-.674a4.729,4.729,0,0,1-.052-.588,3.623,3.623,0,0,1-1.136,1.017,2.948,2.948,0,0,1-1.508.409A2.821,2.821,0,0,1,265.2,256a2.453,2.453,0,0,1-.7-1.857,2.168,2.168,0,0,1,.994-1.89,4.7,4.7,0,0,1,2.7-.681h1.7v-.833a1.533,1.533,0,0,0-.459-1.173,1.822,1.822,0,0,0-1.3-.433,1.905,1.905,0,0,0-1.227.374,1.115,1.115,0,0,0-.467.9l-1.481.015-.015-.046a2.005,2.005,0,0,1,.875-1.683,3.662,3.662,0,0,1,2.4-.763,3.568,3.568,0,0,1,2.343.729,2.557,2.557,0,0,1,.887,2.1v4.06a7.564,7.564,0,0,0,.048.872,4.392,4.392,0,0,0,.174.826Zm-2.588-1.122a2.8,2.8,0,0,0,1.527-.429,2.041,2.041,0,0,0,.887-.981V252.6h-1.75a2.294,2.294,0,0,0-1.508.468,1.389,1.389,0,0,0-.566,1.1,1.148,1.148,0,0,0,.356.888,1.5,1.5,0,0,0,1.054.327" transform="translate(4.301)" fill="#fff"/>
          <path id="Trazado_182002" data-name="Trazado 182002" d="M277.611,249.433l-.8-.047a1.811,1.811,0,0,0-1.042.289,1.853,1.853,0,0,0-.652.81v6.022h-1.56v-8.429h1.393l.15,1.231a2.942,2.942,0,0,1,.9-1.021,2.124,2.124,0,0,1,1.231-.366,1.877,1.877,0,0,1,.332.028,2.156,2.156,0,0,1,.261.057Z" transform="translate(4.448)" fill="#fff"/>
          <path id="Trazado_182003" data-name="Trazado 182003" d="M37.47,19.949h2.26V27.58h.05A4.174,4.174,0,0,1,41.4,26.013a4.715,4.715,0,0,1,2.311-.631c1.669,0,4.339,1.01,4.339,5.23v7.277H45.79V30.865c0-1.972-.745-3.639-2.877-3.639a3.239,3.239,0,0,0-3.029,2.224,2.659,2.659,0,0,0-.153,1.061v7.378H37.47Z" transform="translate(0.609)" fill="#7142c1"/>
          <path id="Trazado_182004" data-name="Trazado 182004" d="M62.754,31.674c0,4.522-3.185,6.494-6.189,6.494-3.364,0-5.957-2.426-5.957-6.292,0-4.094,2.723-6.494,6.163-6.494,3.57,0,5.984,2.552,5.984,6.292m-9.861.126c0,2.679,1.566,4.7,3.775,4.7,2.157,0,3.774-2,3.774-4.751,0-2.071-1.053-4.7-3.724-4.7s-3.826,2.426-3.826,4.75" transform="translate(0.823)" fill="#7142c1"/>
          <rect id="Rectángulo_38460" data-name="Rectángulo 38460" width="2.26" height="17.94" transform="translate(66.426 19.949)" fill="#7142c1"/>
          <path id="Trazado_182005" data-name="Trazado 182005" d="M78.223,37.889l-.18-1.541h-.077a4.653,4.653,0,0,1-3.8,1.82,3.515,3.515,0,0,1-3.8-3.513c0-2.956,2.671-4.573,7.473-4.549v-.252a2.537,2.537,0,0,0-2.824-2.83,6.263,6.263,0,0,0-3.236.909l-.514-1.466a7.82,7.82,0,0,1,4.083-1.086c3.8,0,4.725,2.552,4.725,5v4.574a16.906,16.906,0,0,0,.206,2.931Zm-.333-6.241c-2.465-.051-5.265.379-5.265,2.754a1.985,1.985,0,0,0,2.132,2.123,3.088,3.088,0,0,0,3-2.047,2.28,2.28,0,0,0,.129-.708Z" transform="translate(1.144)" fill="#7142c1"/>
          <path id="Trazado_182006" data-name="Trazado 182006" d="M82.063,41a35.88,35.88,0,0,0,1.542-6.04l2.516-.252a30.561,30.561,0,0,1-2.44,6.14Z" transform="translate(1.334)" fill="#7142c1"/>
          <path id="Trazado_182007" data-name="Trazado 182007" d="M93.988,37.889c.052-.834.1-2.072.1-3.158V19.949h2.234v7.682h.052a4.645,4.645,0,0,1,4.237-2.249c3.081,0,5.263,2.526,5.238,6.241,0,4.371-2.8,6.545-5.571,6.545a4.442,4.442,0,0,1-4.161-2.3h-.077l-.1,2.021Zm2.337-4.9a4.138,4.138,0,0,0,.1.809,3.475,3.475,0,0,0,3.39,2.6c2.362,0,3.773-1.894,3.773-4.7,0-2.451-1.283-4.549-3.7-4.549a3.591,3.591,0,0,0-3.441,2.73,4.272,4.272,0,0,0-.128.909Z" transform="translate(1.528)" fill="#7142c1"/>
          <path id="Trazado_182008" data-name="Trazado 182008" d="M110.986,22.224a1.4,1.4,0,0,1-2.8,0,1.366,1.366,0,0,1,1.413-1.391,1.33,1.33,0,0,1,1.386,1.391m-2.516,3.435h2.26v12.23h-2.26Z" transform="translate(1.759)" fill="#7142c1"/>
          <path id="Trazado_182009" data-name="Trazado 182009" d="M115.65,32.179a3.952,3.952,0,0,0,4.263,4.245,8.266,8.266,0,0,0,3.441-.632l.384,1.592a10.2,10.2,0,0,1-4.134.759c-3.826,0-6.112-2.477-6.112-6.166s2.208-6.595,5.83-6.595c4.057,0,5.135,3.512,5.135,5.761a8.112,8.112,0,0,1-.077,1.036Zm6.625-1.592c.025-1.415-.59-3.613-3.132-3.613-2.286,0-3.287,2.072-3.467,3.613Z" transform="translate(1.845)" fill="#7142c1"/>
          <path id="Trazado_182010" data-name="Trazado 182010" d="M127.037,28.97c0-1.264-.025-2.3-.1-3.311h2l.128,2.022h.052a4.582,4.582,0,0,1,4.109-2.3c1.721,0,4.391,1.011,4.391,5.2v7.3h-2.259V30.84c0-1.971-.746-3.613-2.877-3.613a3.2,3.2,0,0,0-3.03,2.274,3.147,3.147,0,0,0-.153,1.035V37.89h-2.26Z" transform="translate(2.064)" fill="#7142c1"/>
          <path id="Trazado_182011" data-name="Trazado 182011" d="M141.627,25.659l2.439,6.873a31,31,0,0,1,1,3.134h.077c.281-1.011.642-2.022,1.053-3.134l2.414-6.873h2.362l-4.879,12.23h-2.156l-4.725-12.23Z" transform="translate(2.264)" fill="#7142c1"/>
          <path id="Trazado_182012" data-name="Trazado 182012" d="M153.9,32.179a3.952,3.952,0,0,0,4.263,4.245,8.266,8.266,0,0,0,3.441-.632l.384,1.592a10.2,10.2,0,0,1-4.134.759c-3.826,0-6.112-2.477-6.112-6.166s2.208-6.595,5.83-6.595c4.057,0,5.135,3.512,5.135,5.761a8.112,8.112,0,0,1-.077,1.036Zm6.625-1.592c.025-1.415-.59-3.613-3.132-3.613-2.286,0-3.287,2.072-3.467,3.613Z" transform="translate(2.467)" fill="#7142c1"/>
          <path id="Trazado_182013" data-name="Trazado 182013" d="M165.289,28.97c0-1.264-.025-2.3-.1-3.311h2l.128,2.022h.052a4.582,4.582,0,0,1,4.109-2.3c1.721,0,4.391,1.011,4.391,5.2v7.3H173.61V30.84c0-1.971-.746-3.613-2.877-3.613A3.2,3.2,0,0,0,167.7,29.5a3.147,3.147,0,0,0-.153,1.035V37.89h-2.26Z" transform="translate(2.686)" fill="#7142c1"/>
          <path id="Trazado_182014" data-name="Trazado 182014" d="M181.831,22.224a1.4,1.4,0,0,1-2.8,0,1.366,1.366,0,0,1,1.412-1.391,1.331,1.331,0,0,1,1.387,1.391m-2.517,3.435h2.26v12.23h-2.26Z" transform="translate(2.911)" fill="#7142c1"/>
          <path id="Trazado_182015" data-name="Trazado 182015" d="M195.97,19.95V34.732c0,1.086.025,2.324.1,3.158h-2.028l-.1-2.123h-.052a4.609,4.609,0,0,1-4.237,2.4c-3.005,0-5.316-2.5-5.316-6.217-.025-4.067,2.542-6.569,5.572-6.569a4.173,4.173,0,0,1,3.749,1.87h.052v-7.3Zm-2.26,10.688a3.82,3.82,0,0,0-.1-.936,3.311,3.311,0,0,0-3.261-2.577c-2.335,0-3.724,2.022-3.724,4.726,0,2.476,1.233,4.523,3.674,4.523a3.385,3.385,0,0,0,3.311-2.653,3.751,3.751,0,0,0,.1-.961Z" transform="translate(2.997)" fill="#7142c1"/>
          <path id="Trazado_182016" data-name="Trazado 182016" d="M210.732,31.674c0,4.522-3.185,6.494-6.189,6.494-3.364,0-5.957-2.426-5.957-6.292,0-4.094,2.723-6.494,6.163-6.494,3.57,0,5.984,2.552,5.984,6.292m-9.861.126c0,2.679,1.566,4.7,3.775,4.7,2.156,0,3.774-2,3.774-4.751,0-2.071-1.053-4.7-3.724-4.7s-3.826,2.426-3.826,4.75" transform="translate(3.229)" fill="#7142c1"/>
          <path id="Trazado_182017" data-name="Trazado 182017" d="M212.2,36.575a1.506,1.506,0,0,1,1.542-1.592,1.594,1.594,0,1,1-1.542,1.592" transform="translate(3.45)" fill="#7142c1"/>
        </g>
      </g>
    </g>
  </g>
</svg>
