<svg xmlns="http://www.w3.org/2000/svg" xmlns:xlink="http://www.w3.org/1999/xlink" width="1211.6" height="439.194" viewBox="0 0 1211.6 439.194">
  <defs>
    <clipPath id="clip-path">
      <rect id="Rectángulo_38448" data-name="Rectángulo 38448" width="1211.6" height="439.194" fill="none"/>
    </clipPath>
  </defs>
  <g id="Grupo_143610" data-name="Grupo 143610" transform="translate(-927 5999)">
    <g id="Grupo_112825" data-name="Grupo 112825" transform="translate(927 -5999)">
      <path id="Trazado_181792" data-name="Trazado 181792" d="M93.681,189.657H316.213V195H241.52l-9.014,7.191h-139Z" fill="#a7f"/>
      <rect id="Rectángulo_38428" data-name="Rectángulo 38428" width="1.803" height="194.758" transform="translate(93.037 213.283)" fill="#a7f"/>
      <rect id="Rectángulo_38429" data-name="Rectángulo 38429" width="1.803" height="43.504" transform="translate(93.037 370.85)" fill="#a7f"/>
      <rect id="Rectángulo_38430" data-name="Rectángulo 38430" width="1.803" height="7.251" transform="translate(93.037 419.187)" fill="#a7f"/>
      <path id="Trazado_181793" data-name="Trazado 181793" d="M317.114,206.5V437.958H140.3v1.128H318.917V206.5Z" fill="#a7f"/>
      <rect id="Rectángulo_38431" data-name="Rectángulo 38431" width="16.998" height="1.128" transform="translate(119.437 437.932)" fill="#a7f"/>
      <rect id="Rectángulo_38432" data-name="Rectángulo 38432" width="3.605" height="1.128" transform="translate(111.968 438.066)" fill="#a7f"/>
      <path id="Trazado_181794" data-name="Trazado 181794" d="M123.558,207.573l-17.514,10.97V421.489l14.938,9.357H302.82l4.636-2.9V213.058l-12.106-7.582H256.459l-3.348,2.1Z" fill="#e7defc"/>
      <path id="Trazado_181795" data-name="Trazado 181795" d="M355.25,189.657H577.781V195H503.089l-9.014,7.191h-139Z" fill="#8f52f5"/>
      <rect id="Rectángulo_38433" data-name="Rectángulo 38433" width="1.803" height="194.758" transform="translate(354.606 213.283)" fill="#8f52f5"/>
      <rect id="Rectángulo_38434" data-name="Rectángulo 38434" width="1.803" height="43.504" transform="translate(354.606 370.85)" fill="#8f52f5"/>
      <rect id="Rectángulo_38435" data-name="Rectángulo 38435" width="1.803" height="7.251" transform="translate(354.606 419.187)" fill="#8f52f5"/>
      <path id="Trazado_181796" data-name="Trazado 181796" d="M578.683,206.5V437.958H401.868v1.128H580.486V206.5Z" fill="#8f52f5"/>
      <rect id="Rectángulo_38436" data-name="Rectángulo 38436" width="16.999" height="1.128" transform="translate(381.005 437.932)" fill="#8f52f5"/>
      <rect id="Rectángulo_38437" data-name="Rectángulo 38437" width="3.606" height="1.128" transform="translate(373.536 438.066)" fill="#8f52f5"/>
      <path id="Trazado_181797" data-name="Trazado 181797" d="M385.126,207.573l-17.514,10.97V421.489l14.938,9.357H564.388l4.636-2.9V213.058l-12.106-7.582H518.027l-3.348,2.1Z" fill="#e7defc"/>
      <path id="Trazado_181798" data-name="Trazado 181798" d="M612.644,189.657H835.176V195H760.483l-9.014,7.191h-139Z" fill="#7142c1"/>
      <rect id="Rectángulo_38438" data-name="Rectángulo 38438" width="1.803" height="194.758" transform="translate(612 213.283)" fill="#7142c1"/>
      <rect id="Rectángulo_38439" data-name="Rectángulo 38439" width="1.803" height="43.504" transform="translate(612 370.85)" fill="#7142c1"/>
      <rect id="Rectángulo_38440" data-name="Rectángulo 38440" width="1.803" height="7.251" transform="translate(612 419.187)" fill="#7142c1"/>
      <path id="Trazado_181799" data-name="Trazado 181799" d="M836.078,206.5V437.958H659.263v1.128H837.88V206.5Z" fill="#7142c1"/>
      <rect id="Rectángulo_38441" data-name="Rectángulo 38441" width="16.999" height="1.128" transform="translate(638.4 437.932)" fill="#7142c1"/>
      <rect id="Rectángulo_38442" data-name="Rectángulo 38442" width="3.606" height="1.128" transform="translate(630.931 438.066)" fill="#7142c1"/>
      <path id="Trazado_181800" data-name="Trazado 181800" d="M642.521,207.573l-17.514,10.97V421.489l14.938,9.357H821.783l4.636-2.9V213.058l-12.106-7.582H775.422l-3.348,2.1Z" fill="#e7defc"/>
      <path id="Trazado_181801" data-name="Trazado 181801" d="M875.6,189.657h222.532V195h-74.693l-9.014,7.191h-139Z" fill="#5c379b"/>
      <rect id="Rectángulo_38443" data-name="Rectángulo 38443" width="1.803" height="194.758" transform="translate(874.96 213.283)" fill="#5c379b"/>
      <rect id="Rectángulo_38444" data-name="Rectángulo 38444" width="1.803" height="43.504" transform="translate(874.96 370.85)" fill="#5c379b"/>
      <rect id="Rectángulo_38445" data-name="Rectángulo 38445" width="1.803" height="7.251" transform="translate(874.96 419.187)" fill="#5c379b"/>
      <path id="Trazado_181802" data-name="Trazado 181802" d="M1099.037,206.5V437.958H922.223v1.128h178.618V206.5Z" fill="#5c379b"/>
      <rect id="Rectángulo_38446" data-name="Rectángulo 38446" width="16.999" height="1.128" transform="translate(901.36 437.932)" fill="#5c379b"/>
      <rect id="Rectángulo_38447" data-name="Rectángulo 38447" width="3.605" height="1.128" transform="translate(893.891 438.066)" fill="#5c379b"/>
      <path id="Trazado_181803" data-name="Trazado 181803" d="M905.481,207.573l-17.514,10.97V421.489l14.938,9.357h181.838l4.636-2.9V213.058l-12.106-7.582h-38.891l-3.348,2.1Z" fill="#e7defc"/>
      <line id="Línea_176" data-name="Línea 176" x1="6" transform="translate(213.122 64.934)" fill="none" stroke="#7142c1" stroke-miterlimit="10" stroke-width="2"/>
      <g id="Grupo_112820" data-name="Grupo 112820">
        <g id="Grupo_112819" data-name="Grupo 112819" clip-path="url(#clip-path)">
          <path id="Trazado_181804" data-name="Trazado 181804" d="M201.063,64.934H37.471A36.471,36.471,0,0,0,1,101.406V289.164a24.81,24.81,0,0,0,24.81,24.811h52.9" fill="none" stroke="#7142c1" stroke-miterlimit="10" stroke-width="2" stroke-dasharray="12.06 12.06"/>
          <line id="Línea_177" data-name="Línea 177" x2="6" transform="translate(84.74 313.975)" fill="none" stroke="#7142c1" stroke-miterlimit="10" stroke-width="2"/>
          <line id="Línea_178" data-name="Línea 178" x2="6" transform="translate(1023.842 64.934)" fill="none" stroke="#7142c1" stroke-miterlimit="10" stroke-width="2"/>
          <path id="Trazado_181805" data-name="Trazado 181805" d="M1041.617,64.934h132.512a36.472,36.472,0,0,1,36.471,36.472V289.164a24.811,24.811,0,0,1-24.812,24.811h-72.133" fill="none" stroke="#7142c1" stroke-miterlimit="10" stroke-width="2" stroke-dasharray="11.774 11.774"/>
          <line id="Línea_179" data-name="Línea 179" x1="6" transform="translate(1101.768 313.975)" fill="none" stroke="#7142c1" stroke-miterlimit="10" stroke-width="2"/>
        </g>
      </g>
      <text id="Encontrar_un_usuario_" data-name="Encontrar un usuario " transform="translate(119.762 235.749)" fill="#5c379b" font-size="16" font-family="Roboto-Regular, Roboto"><tspan x="0" y="0">Encontrar un usuario </tspan></text>
      <text id="válido" transform="translate(119.762 254.948)" fill="#5c379b" font-size="16" font-family="Roboto-Regular, Roboto"><tspan x="0" y="0" letter-spacing="-0.007em">v</tspan><tspan y="0">álido</tspan></text>
      <text id="Crear_una_lista_de_" data-name="Crear una lista de " transform="translate(386.162 235.749)" fill="#5c379b" font-size="16" font-family="Roboto-Regular, Roboto"><tspan x="0" y="0">C</tspan><tspan y="0" letter-spacing="-0.008em">r</tspan><tspan y="0">ear una lista de </tspan></text>
      <text id="posibles_contraseñas" data-name="posibles contraseñas" transform="translate(386.162 254.948)" fill="#5c379b" font-size="16" font-family="Roboto-Regular, Roboto"><tspan x="0" y="0">posibles contraseñas</tspan></text>
      <text id="Clasi_car_contraseñas_" data-name="Clasiﬁcar contraseñas " transform="translate(638.594 235.749)" fill="#5c379b" font-size="16" font-family="Roboto-Regular, Roboto"><tspan x="0" y="0">Clasiﬁcar contraseñas </tspan></text>
      <text id="desde_alta_probabilidad_" data-name="desde alta probabilidad  " transform="translate(638.594 254.948)" fill="#5c379b" font-size="16" font-family="Roboto-Regular, Roboto"><tspan x="0" y="0">desde alta p</tspan><tspan y="0" letter-spacing="-0.009em">r</tspan><tspan y="0" xml:space="preserve">obabilidad  </tspan></text>
      <text id="a_baja" data-name="a baja" transform="translate(638.594 274.148)" fill="#5c379b" font-size="16" font-family="Roboto-Regular, Roboto"><tspan x="0" y="0">a baja</tspan></text>
      <text id="Teclear_cada_" data-name="Teclear cada " transform="translate(901.555 235.749)" fill="#5c379b" font-size="16" font-family="Roboto-Regular, Roboto"><tspan x="0" y="0" letter-spacing="-0.048em">T</tspan><tspan y="0">eclear cada </tspan></text>
      <text id="contraseña_hasta_que_la_" data-name="contraseña hasta que la " transform="translate(901.555 254.948)" fill="#5c379b" font-size="16" font-family="Roboto-Regular, Roboto"><tspan x="0" y="0">contraseña hasta que la </tspan></text>
      <text id="contraseña_correcta_sea_" data-name="contraseña correcta sea " transform="translate(901.555 274.148)" fill="#5c379b" font-size="16" font-family="Roboto-Regular, Roboto"><tspan x="0" y="0">contraseña cor</tspan><tspan y="0" letter-spacing="-0.007em">r</tspan><tspan y="0">ecta sea </tspan></text>
      <text id="descubierta." transform="translate(901.555 293.348)" fill="#5c379b" font-size="16" font-family="Roboto-Regular, Roboto"><tspan x="0" y="0">descubie</tspan><tspan y="0" letter-spacing="0.01em">r</tspan><tspan y="0">ta.</tspan></text>
      <g id="Grupo_112822" data-name="Grupo 112822">
        <g id="Grupo_112821" data-name="Grupo 112821" clip-path="url(#clip-path)">
          <path id="Trazado_181806" data-name="Trazado 181806" d="M783.55,3.946h218.813l12.8,12.8H796.239Z" fill="#5bb8b2"/>
          <path id="Trazado_181807" data-name="Trazado 181807" d="M988.063,146.089H514.416L499.7,131.373H418.871l-13.766-13.766V0H780.339l16.209,16.209H1023.9v94.04ZM515.034,144.6h472.41l34.965-34.965V17.7H795.93L779.721,1.493H406.6V116.988L419.49,129.88h80.829Z" fill="#5bb8b2"/>
          <path id="Trazado_181808" data-name="Trazado 181808" d="M496.464,136.225l8.424,8.424h-4.372l-8.371-8.371Z" fill="#5bb8b2"/>
          <path id="Trazado_181809" data-name="Trazado 181809" d="M487.791,136.225l8.424,8.424h-4.372l-8.371-8.371Z" fill="#5bb8b2"/>
          <path id="Trazado_181810" data-name="Trazado 181810" d="M479.118,136.225l8.424,8.424H483.17l-8.371-8.371Z" fill="#5bb8b2"/>
          <path id="Trazado_181811" data-name="Trazado 181811" d="M417.262,11.623v97.25l8.957,8.958h78.056l15.995,15.995H984.129l30.07-30.071V30.177H796.666L778.112,11.623Z" fill="#e4fdfc"/>
        </g>
      </g>
      <text id="El_atacante_crea_una_lista_con_todas_las_posibles_contraseñas_desde_la_" data-name="El atacante crea una lista con todas las posibles contraseñas desde la " transform="translate(444.017 44.228)" fill="#296660" font-size="16" font-family="Roboto-Regular, Roboto"><tspan x="0" y="0">El atacante c</tspan><tspan y="0" letter-spacing="-0.009em">r</tspan><tspan y="0">ea una lista con todas las posibles contraseñas desde la </tspan></text>
      <text id="información_recolectada_mediante_ingeniería_social_o_cualquier_otro_medio_" data-name="información recolectada mediante ingeniería social o cualquier otro medio " transform="translate(444.017 63.428)" fill="#296660" font-size="16" font-family="Roboto-Regular, Roboto"><tspan x="0" y="0">información </tspan><tspan y="0" letter-spacing="-0.007em">r</tspan><tspan y="0">ecolectada mediante ingeniería social o cualquier ot</tspan><tspan y="0" letter-spacing="-0.004em">r</tspan><tspan y="0">o medio </tspan></text>
      <text id="e_intenta_acceder_manualmente_a_la_máquina_de_la_víctima_para_crackear_" data-name="e intenta acceder manualmente a la máquina de la víctima para crackear " transform="translate(444.017 82.628)" fill="#296660" font-size="16" font-family="Roboto-Regular, Roboto"><tspan x="0" y="0">e intenta acceder manualmente a la máquina de la víctima para crac</tspan><tspan y="0" letter-spacing="-0.008em">k</tspan><tspan y="0">ear </tspan></text>
      <text id="las_contraseñas." data-name="las contraseñas." transform="translate(444.017 101.828)" fill="#296660" font-size="16" font-family="Roboto-Regular, Roboto"><tspan x="0" y="0">las contraseñas.</tspan></text>
      <g id="Grupo_112824" data-name="Grupo 112824">
        <g id="Grupo_112823" data-name="Grupo 112823" clip-path="url(#clip-path)">
          <path id="Trazado_181812" data-name="Trazado 181812" d="M314.708,123.644l58.191,1.637,18.017-51.625,1.047-.335-18.381,53.267-58.874-1.874Z" fill="#7f7f7f"/>
          <path id="Trazado_181813" data-name="Trazado 181813" d="M323.978,103.972l-9.27,19.672,58.191,1.637L360.6,103.972Z" fill="#aaa"/>
          <path id="Trazado_181814" data-name="Trazado 181814" d="M390.916,73.656,372.9,125.281l-12.294-21.309L372.9,63.492Z" fill="#969696"/>
          <path id="Trazado_181815" data-name="Trazado 181815" d="M315.594,96.838c1.1-2.427,13.981-9.53,14.915-9.53s17.976-1.052,18.417,2.184c.26,1.914-13.617.639-13.617,1.885s7.861.53,10.928,2.624c4.495,3.072,6.827,5.2,4.629,6.031-1.882.71-5.437-2.743-6.361-3.232-2.335-1.236-5.126-1-5.575-.394-.7.942,12.38,5.771,10.74,7.958s-27.791,2.339-27.791,2.339Z" fill="#db826a"/>
          <path id="Trazado_181816" data-name="Trazado 181816" d="M274.314,73.769c1.509,2.124,20.245,29.384,21.338,29.931s18.851-10.379,21.037-9.289,7.375,8.742,5.189,12.292-41.516,12.338-41.516,12.338Z" fill="#161515"/>
          <path id="Trazado_181817" data-name="Trazado 181817" d="M321.059,105.066c.832-2.166,12.932-8.266,15.937-7.447s14.661,5.807,16.573,9.084a8.989,8.989,0,0,1,.909,7.273c-.125.651-2.773,1.151-2.773-3.557,0-3.114-5.545-5.473-5.718-4.5-.1.539,1.267,1.356,3,4.183,1.574,2.576,1.864,7.26,1.58,7.254-3.641-.074-2.6-3.543-4.264-5.881-1.227-1.723-3.8-3.714-4.746-2.995-.308.233,2.1,2.541,3,4.118.471.828-.156,5.517-.438,5.745-.8.648-1.953-.361-2.248-1.372-.329-1.129.207-2.374-.75-3.684a8.288,8.288,0,0,0-4.371-2.872c-1.09-.273-7.053,1.435-10.483,1.2-.818-.056-5.2-6.555-5.2-6.555" fill="#ffb18f"/>
          <path id="Trazado_181818" data-name="Trazado 181818" d="M318.326,41.685c1.081,3.607-3.551,11.2-6.008,13.385s-2.919,10.435-4.01,11.8-4.06-2.7-5.152-2.155-1.776,2.937-2.7,3.62c-.66.483-2.616-.489-2.616-.489s1.1,1.293.636,2.021c-1.051,1.636-4.188,1.32-4.736,2.413s.508,4.474-3.825,3.826c-3.52-.526-5.456-4.319-7.643-12.515s36.055-21.907,36.055-21.907" fill="#ffb18f"/>
          <path id="Trazado_181819" data-name="Trazado 181819" d="M253.307,41.685c2.012-4.248,16.6-31.814,33.876-31.862,29.833-.084,40.135,33.634,39.078,35.959-1.255,2.763-10.12,3.825-25.521,15.847C290.536,69.591,278.591,78.3,279.2,81.3c3.005,14.752-2.646,36.228-4.039,41.8-.547,2.186-83.888,1.62-86.439-4.054-3.751-8.347,1.927-44.4,31.316-67.345,16.886-13.18,31.584-6.46,33.268-10.011" fill="#161515"/>
          <path id="Trazado_181820" data-name="Trazado 181820" d="M279.2,81.3c-.61-2.994,11.335-11.707,21.539-19.669,15.4-12.021,24.266-13.083,25.521-15.847.664-1.458-3.153-15.284-13.46-25.358-11.139,1.046-25.813,5.259-34.363,22.491-9.413,18.979-2.195,52.9-2.195,52.9l3.8-3.125A51.779,51.779,0,0,0,279.2,81.3" fill="#232222"/>
          <path id="Trazado_181821" data-name="Trazado 181821" d="M232.973,78.728s-2.257,15.427,5.1,29.32,26.83,9.3,26.83,9.3Z" fill="#111010"/>
          <path id="Trazado_181822" data-name="Trazado 181822" d="M238.008,60.527c2.489-3.02,16.138-4.9,22.7.019s31.3,40.2,31.941,49.71c.079,1.154,18.243-6.024,22.129-7.65,10.108-4.225,14.987,4.49,15.723,9.679s-31.43,24.206-44.282,21.57c-7.4-1.521-51.759-41.364-53.4-49.013s-.438-17.484,5.192-24.315" fill="#262626"/>
          <path id="Trazado_181823" data-name="Trazado 181823" d="M314.775,102.606c-3.886,1.626-22.05,8.8-22.13,7.649-.351-5.2-7.919-18.12-15.775-29.56-5.946,3.319-8.138,13.018-3.269,22.7,7.267,14.455,21.761,25.463,31.194,20.888A68.612,68.612,0,0,0,328,106.039c-2.474-3.557-6.786-6.126-13.229-3.433" fill="#2b2b2b"/>
          <path id="Trazado_181824" data-name="Trazado 181824" d="M263.2,82.886c2.372,1.623,18.1,12.862,20.727,19.354s1.249,10.363,1.249,10.363-1.366-7.679-5.244-12.61C275.81,94.749,263.2,82.886,263.2,82.886" fill="#353535"/>
          <path id="Trazado_181825" data-name="Trazado 181825" d="M282.182,117.349s4.7-.039,6.864-1.5a9.323,9.323,0,0,0,3.6-5.6C292,100.746,267.261,65.462,260.7,60.546a17.229,17.229,0,0,0-8.636-2.889c6.509,2.751,10.38,3.127,23.263,23.744,15.1,24.161,14.091,29.581,13.59,31.7s-6.739,4.244-6.739,4.244" fill="#90ced6"/>
          <path id="Trazado_181826" data-name="Trazado 181826" d="M294.122,111.793a9.312,9.312,0,0,1,2.494,4.9c.562,3.134-1.735,6.211-1.735,6.211s.065-4.672-.153-6.984a38.722,38.722,0,0,0-.606-4.128" fill="#191919"/>
          <path id="Trazado_181827" data-name="Trazado 181827" d="M300.74,61.628c15.4-12.021,24.266-13.083,25.522-15.847a4.361,4.361,0,0,0-.1-1.926,68.318,68.318,0,0,0-8.271,4.566,271.479,271.479,0,0,0-25.247,17.856,42.961,42.961,0,0,0-6.722,7.044c4.185-3.548,9.717-7.714,14.817-11.693" fill="#90ced6"/>
          <path id="Trazado_181828" data-name="Trazado 181828" d="M390.916,73.656l1.048-.335L374,63.217l-1.105.275Z" fill="#d1d1d1"/>
          <path id="Trazado_181829" data-name="Trazado 181829" d="M373.582,66.215l15.36,8.71L372.9,121.845l-10.555-17.873Z" fill="#55dbff"/>
          <path id="Trazado_181830" data-name="Trazado 181830" d="M269.829,35.16s1.557,15.473.109,18.4a8.164,8.164,0,0,1-8.237,4.557s4.19-3.543,4.985-8.474c1.188-7.361,3.143-14.484,3.143-14.484" fill="#111010"/>
          <path id="Trazado_181831" data-name="Trazado 181831" d="M261.7,37.772s3.323,5.58,2.135,9.854-7.6,5.7-7.6,5.7,4.036-7.124,4.63-10.566.832-4.986.832-4.986" fill="#111010"/>
          <path id="Trazado_181832" data-name="Trazado 181832" d="M292.645,110.784s2.693,8.216,0,12.12-10.463,5.209-10.463,5.209,8.485-8.234,9.2-10.764a61.521,61.521,0,0,0,1.267-6.565" fill="#111010"/>
          <path id="Trazado_181833" data-name="Trazado 181833" d="M220.039,51.7c-29.388,22.939-35.066,59-31.315,67.344.8,1.778,9.524,3.055,21.148,3.9-2.76-12.214-1.065-30.041,4.461-45.637,7.036-19.863,17.809-30.644,29.776-34.315a39.559,39.559,0,0,0-24.07,8.706" fill="#111010"/>
          <path id="Trazado_181834" data-name="Trazado 181834" d="M279.625,127.583c-8.118-6.475-31.814-37.219-33-49.868-.851-9.056.979-16.408,3.037-20.191-5.255-.049-10.244,1.292-11.653,3-5.63,6.83-6.83,16.665-5.192,24.315s46,47.492,53.4,49.013a18.305,18.305,0,0,0,6.337-.072c-4.435-1.361-9.375-3.368-12.927-6.2" fill="#1c1b1b"/>
          <path id="Trazado_181835" data-name="Trazado 181835" d="M251.534,400.177c-.087-.437-5.388-27.07-5.447-27.344a10.326,10.326,0,0,0-4.894-6.966,11.765,11.765,0,0,0-3.364-1.364l-18.078-6.318a2.639,2.639,0,0,1-1.783-2.5v-5.536a22.711,22.711,0,0,1-20.631.1v5.438a2.64,2.64,0,0,1-1.784,2.5l-7.431,2.548h-.007v0h0L177.483,364.5l-1.4.413a10.7,10.7,0,0,0-5.952,5.24c-.851,1.725-.6,1.119-4.727,21.843-1.528,7.916-1.866,8.493-1.675,10.261.533,4.944,5.617,4.428,5.755,4.488h76.341c.054-.018,6.705.488,5.708-6.571" fill="#6c7d87"/>
          <path id="Trazado_181836" data-name="Trazado 181836" d="M169.987,400.177l5.447-29.828a10.392,10.392,0,0,1,4.5-6.714c-4.572,1.62-3.155.972-4.561,1.574a10.427,10.427,0,0,0-5.726,6.1c-.406,1.153-.143.14-4.239,20.686-1.529,7.916-1.866,8.493-1.675,10.261.532,4.944,5.616,4.428,5.754,4.488h6.21c-4.382,0-6.275-2.562-5.708-6.571" fill="#566a75"/>
          <path id="Trazado_181837" data-name="Trazado 181837" d="M180.724,406.748H169.486c-.144-.063-5.94.519-5.795-5.523.031-1.288.193-1.342,1.715-9.226l.088-.442h15.23Z" fill="#dd9a5e"/>
          <path id="Trazado_181838" data-name="Trazado 181838" d="M171.561,391.557h-6.067l-.088.442c-1.528,7.911-1.684,7.936-1.716,9.226-.144,6.022,5.681,5.473,5.795,5.523h6.21c-4.036,0-5.876-2.123-5.8-5.523.01-.4.157-1.22,1.661-9.668" fill="#d18c54"/>
          <path id="Trazado_181839" data-name="Trazado 181839" d="M197.337,349.3v10.4h.007v.371a5.749,5.749,0,0,0,3.921,5.452,20.93,20.93,0,0,0,12.775,0,5.749,5.749,0,0,0,3.921-5.452V359.7h.006V349.3a21.626,21.626,0,0,1-20.63,0" fill="#dd9a5e"/>
          <path id="Trazado_181840" data-name="Trazado 181840" d="M203.555,361.763h-.008v-9.524a22.609,22.609,0,0,1-6.21-2.221v9.68h.007v.372a5.749,5.749,0,0,0,3.921,5.452,19.186,19.186,0,0,0,3.652.83,7.355,7.355,0,0,1-1.362-4.589" fill="#d18c54"/>
          <path id="Trazado_181841" data-name="Trazado 181841" d="M180.724,385.463a1.863,1.863,0,0,0-1.863,1.863v19.421h3.726V387.326a1.863,1.863,0,0,0-1.863-1.863" fill="#566a75"/>
          <path id="Trazado_181842" data-name="Trazado 181842" d="M267.963,406.748H207.652a4.556,4.556,0,0,1-4.556-4.556,2.612,2.612,0,0,1,2.611-2.612h64.2a2.612,2.612,0,0,1,2.611,2.612,4.556,4.556,0,0,1-4.556,4.556" fill="#c6c6c6"/>
          <path id="Trazado_181843" data-name="Trazado 181843" d="M214.832,402.191h0a2.611,2.611,0,0,1,2.611-2.611H205.707a2.611,2.611,0,0,0-2.611,2.611,4.556,4.556,0,0,0,4.556,4.557h11.736a4.558,4.558,0,0,1-4.556-4.557" fill="#b7b7b7"/>
          <path id="Trazado_181844" data-name="Trazado 181844" d="M264.013,359.7H211.6a2.989,2.989,0,0,0-2.98,2.981V396.6a2.99,2.99,0,0,0,2.98,2.981h52.41a2.99,2.99,0,0,0,2.981-2.981v-33.92a2.99,2.99,0,0,0-2.981-2.981" fill="#ededed"/>
          <path id="Trazado_181845" data-name="Trazado 181845" d="M214.832,396.6v-33.92a2.989,2.989,0,0,1,2.981-2.981H211.6a2.99,2.99,0,0,0-2.981,2.981V396.6a2.99,2.99,0,0,0,2.981,2.981h6.21a2.99,2.99,0,0,1-2.981-2.981" fill="#dadada"/>
          <path id="Trazado_181846" data-name="Trazado 181846" d="M237.809,375.333a4.305,4.305,0,1,1-4.305,4.3,4.305,4.305,0,0,1,4.305-4.3" fill="#dadada"/>
          <path id="Trazado_181847" data-name="Trazado 181847" d="M237.81,375.337a4.3,4.3,0,1,0,3.725,6.451,4.3,4.3,0,0,1-3.725-6.451" fill="#c6c6c6"/>
          <path id="Trazado_181848" data-name="Trazado 181848" d="M207.091,283.349a29.81,29.81,0,0,0-29.592,29.8v11.294h59.612v-16.9c0-11.541-7.1-14.2-7.1-14.2-8.83-10.887-22.908-10-22.908-10" fill="#4c4846"/>
          <path id="Trazado_181849" data-name="Trazado 181849" d="M211.118,283.527a29.9,29.9,0,0,0-33.594,28.45c-.047,1.207-.015.755-.025,12.468h7.1V313.151a29.809,29.809,0,0,1,26.519-29.624" fill="#3d3938"/>
          <path id="Trazado_181850" data-name="Trazado 181850" d="M184.84,320.9c-3.739-1.332-7.8,1.145-7.8,4.76s4.058,6.092,7.8,4.76Z" fill="#dd9a5e"/>
          <path id="Trazado_181851" data-name="Trazado 181851" d="M229.77,320.9c3.739-1.332,7.8,1.145,7.8,4.76s-4.058,6.092-7.8,4.76Z" fill="#dd9a5e"/>
          <path id="Trazado_181852" data-name="Trazado 181852" d="M177.589,323.47c-2.184,4.146,2.414,8.672,7.251,6.949v-4.378a5.964,5.964,0,0,1-7.251-2.571" fill="#d18c54"/>
          <path id="Trazado_181853" data-name="Trazado 181853" d="M229.77,326.042v4.378c4.837,1.723,9.435-2.8,7.251-6.949a6.694,6.694,0,0,1-7.251,2.571" fill="#d18c54"/>
          <path id="Trazado_181854" data-name="Trazado 181854" d="M228.986,311.467a1.127,1.127,0,0,1,1.025,1.118c0,19.117.012,17.674-.032,18.563a22.65,22.65,0,0,1-6.826,15.1c-14.173,13.819-37.824,4.019-38.535-15.365-.033-.855-.019-10.756-.019-10.728a7.3,7.3,0,0,1,8.357-7.213c6.94,1,17.07.613,25.908-6.942a1.876,1.876,0,0,1,2.867.519,9.175,9.175,0,0,0,7.255,4.949" fill="#edae6b"/>
          <path id="Trazado_181855" data-name="Trazado 181855" d="M190.831,330.882c-.028-.733-.022-14.146-.02-17.934a7.29,7.29,0,0,0-6.212,7.206c0-.028-.014,9.873.02,10.728.524,14.292,13.518,23.371,25.99,21.618a22.659,22.659,0,0,1-19.778-21.618" fill="#dd9a5e"/>
          <path id="Trazado_181856" data-name="Trazado 181856" d="M409.307,321.84l-1.206,2.172v62.8a7.5,7.5,0,0,0,7.5,7.5H521.031a7.5,7.5,0,0,0,7.5-7.5v-62.8l-1.206-2.172Z" fill="#fff"/>
          <path id="Trazado_181857" data-name="Trazado 181857" d="M516.248,321.84v52.686a7.5,7.5,0,0,1-7.5,7.5H408.1v4.783a7.5,7.5,0,0,0,7.5,7.5H521.031a7.5,7.5,0,0,0,7.5-7.5v-62.8l-1.206-2.172Z" fill="#f2f2f2"/>
          <path id="Trazado_181858" data-name="Trazado 181858" d="M521.032,303.3H415.605a7.5,7.5,0,0,0-7.5,7.5v13.2H528.536v-13.2a7.5,7.5,0,0,0-7.5-7.5" fill="#a7f"/>
          <path id="Trazado_181859" data-name="Trazado 181859" d="M521.032,303.3h-4.783v20.708h12.287v-13.2a7.5,7.5,0,0,0-7.5-7.5" fill="#8f52f5"/>
          <path id="Trazado_181860" data-name="Trazado 181860" d="M421.693,310.292a3.367,3.367,0,1,1-3.366,3.367,3.367,3.367,0,0,1,3.366-3.367" fill="#dd636e"/>
          <path id="Trazado_181861" data-name="Trazado 181861" d="M432.049,310.292a3.367,3.367,0,1,1-3.367,3.367,3.367,3.367,0,0,1,3.367-3.367" fill="#ffe07d"/>
          <path id="Trazado_181862" data-name="Trazado 181862" d="M442.4,310.292a3.367,3.367,0,1,1-3.367,3.367,3.367,3.367,0,0,1,3.367-3.367" fill="#86f1a7"/>
          <path id="Trazado_181863" data-name="Trazado 181863" d="M511.233,359.456a1.811,1.811,0,0,1-1.285-.532l-5.5-5.5a1.818,1.818,0,0,1,2.571-2.57l4.21,4.211,9.706-9.706a1.818,1.818,0,1,1,2.571,2.57l-10.992,10.991a1.811,1.811,0,0,1-1.285.532" fill="#78d0b1"/>
          <path id="Trazado_181864" data-name="Trazado 181864" d="M489.212,368.249H426.778a6.821,6.821,0,0,1-6.821-6.821V345.911a6.821,6.821,0,0,1,6.821-6.821h62.434a6.821,6.821,0,0,1,6.821,6.821v15.517a6.821,6.821,0,0,1-6.821,6.821" fill="#f6f1f1"/>
          <path id="Trazado_181865" data-name="Trazado 181865" d="M490.929,339.308a6.812,6.812,0,0,1,.253,1.84V359.93a3.556,3.556,0,0,1-3.556,3.556h-65.7a6.8,6.8,0,0,1-1.717-.219,6.821,6.821,0,0,0,6.568,4.982h62.434a6.822,6.822,0,0,0,6.822-6.822V345.911a6.824,6.824,0,0,0-5.105-6.6" fill="#efe7e4"/>
          <path id="Trazado_181866" data-name="Trazado 181866" d="M489.006,370.067H426.984a8.855,8.855,0,0,1-8.845-8.845v-15.1a8.855,8.855,0,0,1,8.845-8.845h62.022a8.855,8.855,0,0,1,8.845,8.845v15.1a8.855,8.855,0,0,1-8.845,8.845m-62.022-29.159a5.216,5.216,0,0,0-5.21,5.21v15.1a5.215,5.215,0,0,0,5.21,5.209h62.022a5.215,5.215,0,0,0,5.21-5.209v-15.1a5.216,5.216,0,0,0-5.21-5.21Z" fill="#8f52f5"/>
          <path id="Trazado_181867" data-name="Trazado 181867" d="M446.31,349.122a1.818,1.818,0,0,0-2.483-.665l-3.225,1.862V346.6a1.817,1.817,0,1,0-3.634,0v3.724l-3.225-1.862a1.817,1.817,0,1,0-1.818,3.147l3.225,1.862-3.225,1.862a1.818,1.818,0,1,0,1.818,3.148l3.225-1.862v3.724a1.817,1.817,0,0,0,3.634,0v-3.724l3.225,1.862a1.818,1.818,0,0,0,1.818-3.148l-3.225-1.862,3.225-1.862A1.817,1.817,0,0,0,446.31,349.122Z" fill="#595454"/>
          <path id="Trazado_181868" data-name="Trazado 181868" d="M465.494,349.122a1.818,1.818,0,0,0-2.483-.665l-3.225,1.862V346.6a1.817,1.817,0,1,0-3.634,0v3.724l-3.225-1.862a1.817,1.817,0,1,0-1.818,3.147l3.225,1.862-3.225,1.862a1.818,1.818,0,1,0,1.818,3.148l3.225-1.862v3.724a1.817,1.817,0,0,0,3.634,0v-3.724l3.225,1.862a1.818,1.818,0,0,0,1.818-3.148l-3.225-1.862,3.225-1.862A1.817,1.817,0,0,0,465.494,349.122Z" fill="#595454"/>
          <path id="Trazado_181869" data-name="Trazado 181869" d="M484.066,355.328l-3.225-1.862,3.225-1.862a1.817,1.817,0,0,0-1.817-3.147l-3.225,1.862V346.6a1.817,1.817,0,0,0-3.635,0v3.724l-3.225-1.862a1.817,1.817,0,1,0-1.818,3.147l3.226,1.862-3.226,1.862a1.818,1.818,0,0,0,1.818,3.149l3.225-1.863v3.725a1.817,1.817,0,0,0,3.635,0v-3.725l3.225,1.862a1.817,1.817,0,0,0,1.817-3.148Z" fill="#595454"/>
          <path id="Trazado_181870" data-name="Trazado 181870" d="M495.211,404.9l-8.417-8.416-4.409,4.588,8.416,8.417a1.213,1.213,0,0,0,1.714,0l2.7-2.875a1.213,1.213,0,0,0,0-1.714" fill="#f6f1f1"/>
          <path id="Trazado_181871" data-name="Trazado 181871" d="M494.194,403.884l-2.2,2.2a1.211,1.211,0,0,1-1.714,0l-6.543-6.543-2.522,2.522,9.065,9.065a1.213,1.213,0,0,0,1.714,0l3.862-3.862a1.213,1.213,0,0,0,0-1.714Z" fill="#efe7e4"/>
          <path id="Trazado_181872" data-name="Trazado 181872" d="M464.789,377.621l30.655,11.4c.642.239.233,1.017-.251,1.5L474.9,409.506c-.485.485-.925.5-1.164-.141L463.473,379.48C463.122,378.536,463.845,377.27,464.789,377.621Z" fill="#f6f1f1"/>
          <path id="Trazado_181873" data-name="Trazado 181873" d="M495.4,389.007l-4.171-1.552L477.59,401.1a.97.97,0,0,1-1.594-.348L467.8,378.736l-4.422-1.646a1.212,1.212,0,0,0-1.558,1.558l11.917,32.02a.969.969,0,0,0,1.594.348L495.749,390.6A.969.969,0,0,0,495.4,389.007Z" fill="#efe7e4"/>
          <path id="Trazado_181874" data-name="Trazado 181874" d="M747.094,324.954v21.585H734.876V324.954a9.163,9.163,0,0,0-18.327,0v21.585H704.332V324.954a21.381,21.381,0,1,1,42.762,0" fill="#62729a"/>
          <path id="Trazado_181875" data-name="Trazado 181875" d="M747.094,324.954v21.585H734.876V324.954a9.15,9.15,0,0,0-9.163-9.163V303.573a21.4,21.4,0,0,1,21.381,21.381" fill="#48568b"/>
          <path id="Trazado_181876" data-name="Trazado 181876" d="M701.277,364.866H688.856a3.055,3.055,0,1,1,0-6.109h12.421a3.055,3.055,0,0,1,0,6.109" fill="#79f5ed"/>
          <path id="Trazado_181877" data-name="Trazado 181877" d="M762.367,364.866H750.148a3.055,3.055,0,0,1,0-6.109h12.219a3.055,3.055,0,0,1,0,6.109" fill="#8cbcff"/>
          <path id="Trazado_181878" data-name="Trazado 181878" d="M728.767,380.138v24.639a3.055,3.055,0,1,1-6.109,0V380.138a3.055,3.055,0,0,1,6.109,0" fill="#79f5ed"/>
          <path id="Trazado_181879" data-name="Trazado 181879" d="M713.495,395.41a3.052,3.052,0,0,1-3.054-3.054V380.138a3.054,3.054,0,1,1,6.108,0v12.218a3.052,3.052,0,0,1-3.054,3.054" fill="#79f5ed"/>
          <path id="Trazado_181880" data-name="Trazado 181880" d="M737.931,395.41a3.052,3.052,0,0,1-3.054-3.054V380.138a3.054,3.054,0,1,1,6.108,0v12.218a3.052,3.052,0,0,1-3.054,3.054" fill="#8cbcff"/>
          <path id="Trazado_181881" data-name="Trazado 181881" d="M768.475,377.084H747.094l6.109,6.109h12.218v9.163a3.055,3.055,0,1,0,6.109,0V380.138a3.053,3.053,0,0,0-3.055-3.054" fill="#8cbcff"/>
          <path id="Trazado_181882" data-name="Trazado 181882" d="M768.475,328.212a3.052,3.052,0,0,0-3.054,3.054v9.164H753.2l-6.109,6.109h21.381a3.053,3.053,0,0,0,3.055-3.055V331.266a3.053,3.053,0,0,0-3.055-3.054" fill="#8cbcff"/>
          <path id="Trazado_181883" data-name="Trazado 181883" d="M698.223,340.43H685.8v-9.163a3.054,3.054,0,1,0-6.108,0v12.217a3.053,3.053,0,0,0,3.054,3.055h21.585Z" fill="#79f5ed"/>
          <path id="Trazado_181884" data-name="Trazado 181884" d="M704.332,377.084H682.747a3.052,3.052,0,0,0-3.054,3.054v12.218a3.055,3.055,0,1,0,6.109,0v-9.163h12.421Z" fill="#79f5ed"/>
          <path id="Trazado_181885" data-name="Trazado 181885" d="M728.767,380.138v24.639a3.025,3.025,0,0,1-3.054,3.055V377.084a3.024,3.024,0,0,1,3.054,3.054" fill="#8cbcff"/>
          <path id="Trazado_181886" data-name="Trazado 181886" d="M768.475,334.321a9.164,9.164,0,0,1,0-18.327,9.166,9.166,0,1,1,0,18.327" fill="#8cbcff"/>
          <path id="Trazado_181887" data-name="Trazado 181887" d="M768.475,370.975a9.163,9.163,0,0,1,0-18.327,9.166,9.166,0,1,1,0,18.327" fill="#8cbcff"/>
          <path id="Trazado_181888" data-name="Trazado 181888" d="M768.475,407.832a9.349,9.349,0,0,1-9.163-9.367,9.173,9.173,0,0,1,9.163-9.163,9.349,9.349,0,0,1,9.367,9.163,9.525,9.525,0,0,1-9.367,9.367" fill="#8cbcff"/>
          <path id="Trazado_181889" data-name="Trazado 181889" d="M682.747,407.832a9.349,9.349,0,0,1-9.163-9.367,9.163,9.163,0,1,1,18.326,0,9.349,9.349,0,0,1-9.163,9.367" fill="#79f5ed"/>
          <path id="Trazado_181890" data-name="Trazado 181890" d="M682.747,370.975a9.163,9.163,0,1,1,9.163-9.163,9.173,9.173,0,0,1-9.163,9.163" fill="#79f5ed"/>
          <path id="Trazado_181891" data-name="Trazado 181891" d="M682.747,334.321a9.164,9.164,0,1,1,9.163-9.163,9.173,9.173,0,0,1-9.163,9.163" fill="#79f5ed"/>
          <rect id="Rectángulo_38450" data-name="Rectángulo 38450" width="54.98" height="42.762" transform="translate(698.223 340.43)" fill="#ffe375"/>
          <rect id="Rectángulo_38451" data-name="Rectángulo 38451" width="27.49" height="42.762" transform="translate(725.713 340.43)" fill="#ffb725"/>
          <path id="Trazado_181892" data-name="Trazado 181892" d="M725.713,358.757a3.055,3.055,0,1,1-3.054,3.054,3.054,3.054,0,0,1,3.054-3.054" fill="#62729a"/>
          <path id="Trazado_181893" data-name="Trazado 181893" d="M713.495,358.757a3.055,3.055,0,1,1-3.054,3.054,3.054,3.054,0,0,1,3.054-3.054" fill="#62729a"/>
          <path id="Trazado_181894" data-name="Trazado 181894" d="M737.931,358.757a3.055,3.055,0,1,1-3.054,3.054,3.054,3.054,0,0,1,3.054-3.054" fill="#48568b"/>
          <path id="Trazado_181895" data-name="Trazado 181895" d="M728.767,361.811a3.025,3.025,0,0,1-3.054,3.054v-6.108a3.024,3.024,0,0,1,3.054,3.054" fill="#48568b"/>
          <path id="Trazado_181896" data-name="Trazado 181896" d="M978.253,365.828a.973.973,0,0,0,.477-.125,20.339,20.339,0,0,1,19.886,0,.973.973,0,0,0,.477.125h34.36a10.708,10.708,0,0,0,10.708-10.708V340.828a10.709,10.709,0,0,0-10.708-10.708h-89.56a10.708,10.708,0,0,0-10.708,10.708V355.12a10.708,10.708,0,0,0,10.708,10.708Z" fill="#33485b" fill-rule="evenodd"/>
          <path id="Trazado_181897" data-name="Trazado 181897" d="M991.619,337.189a.974.974,0,0,0-1.33.356l-1.617,2.8-1.616-2.8a.974.974,0,0,0-1.33-.356l-4.92,2.841a.973.973,0,0,0-.356,1.329l1.617,2.8h-3.234a.974.974,0,0,0-.974.973v5.681a.973.973,0,0,0,.974.973h3.234l-1.617,2.8a.974.974,0,0,0,.356,1.33l4.92,2.84a.974.974,0,0,0,1.33-.356l1.616-2.8,1.617,2.8a.974.974,0,0,0,1.33.356l4.92-2.84a.973.973,0,0,0,.356-1.33l-1.617-2.8h3.234a.972.972,0,0,0,.973-.973v-5.681a.973.973,0,0,0-.973-.973h-3.234l1.617-2.8a.972.972,0,0,0-.356-1.329Z" fill="#e4e9fb" fill-rule="evenodd"/>
          <path id="Trazado_181898" data-name="Trazado 181898" d="M961.88,337.189a.974.974,0,0,0-1.33.356l-1.617,2.8-1.616-2.8a.974.974,0,0,0-1.33-.356l-4.92,2.841a.973.973,0,0,0-.357,1.329l1.617,2.8h-3.233a.974.974,0,0,0-.974.973v5.681a.973.973,0,0,0,.974.973h3.233l-1.617,2.8a.974.974,0,0,0,.357,1.33l4.92,2.84a.974.974,0,0,0,1.33-.356l1.616-2.8,1.617,2.8a.974.974,0,0,0,1.33.356l4.92-2.84a.974.974,0,0,0,.356-1.33l-1.617-2.8h3.234a.973.973,0,0,0,.973-.973v-5.681a.973.973,0,0,0-.973-.973h-3.234l1.617-2.8a.973.973,0,0,0-.356-1.329Z" fill="#e4e9fb" fill-rule="evenodd"/>
          <path id="Trazado_181899" data-name="Trazado 181899" d="M1021.359,337.189a.974.974,0,0,0-1.33.356l-1.617,2.8-1.617-2.8a.974.974,0,0,0-1.33-.356l-4.919,2.841a.973.973,0,0,0-.357,1.329l1.617,2.8h-3.233a.974.974,0,0,0-.974.973v5.681a.973.973,0,0,0,.974.973h3.233l-1.617,2.8a.974.974,0,0,0,.357,1.33l4.919,2.84a.974.974,0,0,0,1.33-.356l1.617-2.8,1.617,2.8a.974.974,0,0,0,1.33.356l4.92-2.84a.974.974,0,0,0,.356-1.33l-1.617-2.8h3.234a.973.973,0,0,0,.973-.973v-5.681a.974.974,0,0,0-.973-.973h-3.234l1.617-2.8a.973.973,0,0,0-.356-1.329Z" fill="#e4e9fb" fill-rule="evenodd"/>
          <path id="Trazado_181900" data-name="Trazado 181900" d="M988.673,361.16a22.28,22.28,0,1,1-22.28,22.28,22.28,22.28,0,0,1,22.28-22.28" fill="#e4e9fb" fill-rule="evenodd"/>
          <path id="Trazado_181901" data-name="Trazado 181901" d="M976.578,385.761l6.516,6.516a3.894,3.894,0,0,0,5.506,0l12.167-12.168a3.894,3.894,0,1,0-5.506-5.507l-9.414,9.414-3.762-3.762a3.894,3.894,0,0,0-5.507,5.507" fill="#30bf44" fill-rule="evenodd"/>
        </g>
      </g>
      <text id="La_frecuencia_de_" data-name="La frecuencia de " transform="translate(44.502 31.637)" fill="#5c379b" font-size="16" font-family="Roboto-Bold, Roboto" font-weight="700"><tspan x="0" y="0">La f</tspan><tspan y="0" letter-spacing="-0.009em">r</tspan><tspan y="0">ecuencia de </tspan></text>
      <text id="ataques_es_menor" data-name="ataques es menor" transform="translate(44.502 50.838)" fill="#5c379b" font-size="16" font-family="Roboto-Bold, Roboto" font-weight="700"><tspan x="0" y="0">ataques es menor</tspan></text>
      <text id="La_posibilidad_de_" data-name="La posibilidad de " transform="translate(1049.622 31.637)" fill="#5c379b" font-size="16" font-family="Roboto-Bold, Roboto" font-weight="700"><tspan x="0" y="0">La posibilidad de </tspan></text>
      <text id="error_es_alta" data-name="error es alta" transform="translate(1049.622 50.838)" fill="#5c379b" font-size="16" font-family="Roboto-Bold, Roboto" font-weight="700"><tspan x="0" y="0">er</tspan><tspan y="0" letter-spacing="-0.009em">r</tspan><tspan y="0">or es alta</tspan></text>
    </g>
  </g>
</svg>
