<svg xmlns="http://www.w3.org/2000/svg" xmlns:xlink="http://www.w3.org/1999/xlink" width="232.5" height="147.016" viewBox="0 0 232.5 147.016">
  <defs>
    <clipPath id="clip-path">
      <rect id="Rectángulo_38490" data-name="Rectángulo 38490" width="232.5" height="147.016" fill="none"/>
    </clipPath>
    <clipPath id="clip-path-3">
      <rect id="Rectángulo_38471" data-name="Rectángulo 38471" width="37.087" height="24.927" fill="none"/>
    </clipPath>
    <clipPath id="clip-path-4">
      <rect id="Rectángulo_38475" data-name="Rectángulo 38475" width="221.25" height="145.743" fill="none"/>
    </clipPath>
    <clipPath id="clip-path-5">
      <rect id="Rectángulo_38476" data-name="Rectángulo 38476" width="8.43" height="2.7" fill="none"/>
    </clipPath>
    <clipPath id="clip-path-6">
      <rect id="Rectángulo_38477" data-name="Rectángulo 38477" width="0.898" height="0.887" fill="none"/>
    </clipPath>
    <clipPath id="clip-path-7">
      <rect id="Rectángulo_38478" data-name="Rectángulo 38478" width="0.852" height="0.84" fill="none"/>
    </clipPath>
    <clipPath id="clip-path-8">
      <rect id="Rectángulo_38479" data-name="Rectángulo 38479" width="10.57" height="3.372" fill="none"/>
    </clipPath>
    <clipPath id="clip-path-9">
      <rect id="Rectángulo_38480" data-name="Rectángulo 38480" width="5.436" height="2.407" fill="none"/>
    </clipPath>
    <clipPath id="clip-path-10">
      <rect id="Rectángulo_38481" data-name="Rectángulo 38481" width="16.843" height="9.401" fill="none"/>
    </clipPath>
    <clipPath id="clip-path-11">
      <rect id="Rectángulo_38482" data-name="Rectángulo 38482" width="3.183" height="1.988" fill="none"/>
    </clipPath>
    <clipPath id="clip-path-12">
      <rect id="Rectángulo_38483" data-name="Rectángulo 38483" width="3.28" height="1.149" fill="none"/>
    </clipPath>
    <clipPath id="clip-path-13">
      <rect id="Rectángulo_38485" data-name="Rectángulo 38485" width="14.969" height="19.546" fill="none"/>
    </clipPath>
    <clipPath id="clip-path-14">
      <rect id="Rectángulo_38486" data-name="Rectángulo 38486" width="9.011" height="11.884" fill="none"/>
    </clipPath>
    <clipPath id="clip-path-15">
      <rect id="Rectángulo_38487" data-name="Rectángulo 38487" width="2.03" height="3.504" fill="none"/>
    </clipPath>
  </defs>
  <g id="Grupo_143611" data-name="Grupo 143611" transform="translate(-1032.5 -6842.492)">
    <g id="Grupo_112877" data-name="Grupo 112877" transform="translate(1032.5 6842.492)">
      <g id="Grupo_112876" data-name="Grupo 112876" clip-path="url(#clip-path)">
        <g id="Grupo_112875" data-name="Grupo 112875">
          <g id="Grupo_112874" data-name="Grupo 112874" clip-path="url(#clip-path)">
            <g id="Grupo_112837" data-name="Grupo 112837" transform="translate(151.621 5.866)" opacity="0.67">
              <g id="Grupo_112836" data-name="Grupo 112836">
                <g id="Grupo_112835" data-name="Grupo 112835" clip-path="url(#clip-path-3)">
                  <path id="Trazado_182027" data-name="Trazado 182027" d="M499.091,17.862v24.81H463.456l-1.284-24.637Z" transform="translate(-462.004 -17.862)" fill="#e0e0e0"/>
                  <rect id="Rectángulo_38468" data-name="Rectángulo 38468" width="35.634" height="24.584" transform="translate(0.169 0.174)" fill="#fff"/>
                  <path id="Trazado_182028" data-name="Trazado 182028" d="M497.63,42.8H461.658V17.876H497.63ZM462,42.46h35.3V18.214H462Z" transform="translate(-461.658 -17.871)" fill="#e0e0e0"/>
                  <rect id="Rectángulo_38469" data-name="Rectángulo 38469" width="27.915" height="18.476" transform="translate(4.028 3.228)" fill="#fff"/>
                  <path id="Trazado_182029" data-name="Trazado 182029" d="M501.659,27.526s-.048,0-.138,0l-.4,0-1.533.01-5.752.022-20.1.04.081-.081c0,5.645,0,11.9.007,18.473v0l-.088-.088,27.915.018-.07.07c.015-5.623.028-10.232.037-13.442.008-1.6.013-2.858.018-3.717q0-.636.008-.977c0-.221.008-.339.008-.339s0,.108.008.324,0,.545.008.964c0,.856.01,2.1.018,3.7.009,3.221.022,7.845.037,13.486v.07h-.07l-27.915.018h-.088V46c0-6.574,0-12.828.007-18.473v-.081h.081l20.148.04,5.734.022,1.517.01.388,0c.086,0,.128,0,.128,0" transform="translate(-469.716 -24.298)" fill="#e0e0e0"/>
                  <path id="Trazado_182030" data-name="Trazado 182030" d="M462.171,18.177a3.017,3.017,0,0,1,.613.4c.365.263.861.637,1.4,1.065s1.008.835,1.339,1.139a2.9,2.9,0,0,1,.51.522c-.033.037-.89-.669-1.96-1.524a19.467,19.467,0,0,1-1.9-1.6" transform="translate(-462.002 -18.072)" fill="#e0e0e0"/>
                  <path id="Trazado_182031" data-name="Trazado 182031" d="M562.779,18.388a17.3,17.3,0,0,1-1.875,1.6,17.26,17.26,0,0,1-1.984,1.458,17.268,17.268,0,0,1,1.875-1.6,17.292,17.292,0,0,1,1.984-1.458" transform="translate(-526.976 -18.214)" fill="#e0e0e0"/>
                  <path id="Trazado_182032" data-name="Trazado 182032" d="M562.463,86.672l-3.973-3.22" transform="translate(-526.688 -61.911)" fill="#fff"/>
                  <path id="Trazado_182033" data-name="Trazado 182033" d="M558.487,83.449a37.163,37.163,0,0,1,3.973,3.22,18.685,18.685,0,0,1-2.042-1.542,18.633,18.633,0,0,1-1.931-1.678" transform="translate(-526.685 -61.907)" fill="#e0e0e0"/>
                  <path id="Trazado_182034" data-name="Trazado 182034" d="M462.171,87.065a33.684,33.684,0,0,1,3.82-3.021,16.926,16.926,0,0,1-1.855,1.58,16.922,16.922,0,0,1-1.965,1.441" transform="translate(-462.002 -62.307)" fill="#e0e0e0"/>
                  <rect id="Rectángulo_38470" data-name="Rectángulo 38470" width="17.565" height="6.186" transform="translate(9.696 8.984)" fill="#e0e0e0"/>
                </g>
              </g>
            </g>
            <g id="Grupo_112840" data-name="Grupo 112840" transform="translate(11.25)" opacity="0.65">
              <g id="Grupo_112839" data-name="Grupo 112839">
                <g id="Grupo_112838" data-name="Grupo 112838" clip-path="url(#clip-path-4)">
                  <rect id="Rectángulo_38472" data-name="Rectángulo 38472" width="20.44" height="21.307" transform="translate(197.214 38.404)" fill="#d6bae0"/>
                  <rect id="Rectángulo_38473" data-name="Rectángulo 38473" width="20.44" height="21.307" transform="translate(195.83 38.404)" fill="#e0c3eb"/>
                  <rect id="Rectángulo_38474" data-name="Rectángulo 38474" width="14.945" height="15.579" transform="translate(198.577 41.268)" fill="#efd0fa"/>
                  <path id="Trazado_182035" data-name="Trazado 182035" d="M633.308,173.4a2.882,2.882,0,0,1-.373.423c-.24.251-.576.591-.952.961s-.721.7-.974.937a2.826,2.826,0,0,1-.427.365,2.756,2.756,0,0,1,.372-.422c.24-.25.577-.591.954-.963s.722-.7.976-.938a2.758,2.758,0,0,1,.425-.363" transform="translate(-434.73 -116.453)" fill="#d6bae0"/>
                  <path id="Trazado_182036" data-name="Trazado 182036" d="M684.388,173.288a2.886,2.886,0,0,1,.423.373c.251.24.59.576.961.952s.7.721.937.974a2.81,2.81,0,0,1,.365.427,2.756,2.756,0,0,1-.422-.372c-.251-.24-.591-.577-.963-.954s-.7-.723-.938-.976a2.754,2.754,0,0,1-.363-.425" transform="translate(-470.866 -116.375)" fill="#d6bae0"/>
                  <path id="Trazado_182037" data-name="Trazado 182037" d="M684.264,120.288a2.879,2.879,0,0,1,.373-.423c.24-.251.576-.59.952-.961s.721-.7.974-.937a2.827,2.827,0,0,1,.427-.365,2.757,2.757,0,0,1-.371.422c-.24.25-.577.591-.954.963s-.723.7-.976.938a2.758,2.758,0,0,1-.425.363" transform="translate(-470.783 -78.978)" fill="#d6bae0"/>
                  <path id="Trazado_182038" data-name="Trazado 182038" d="M633.266,120.321a2.881,2.881,0,0,1-.423-.373c-.251-.24-.591-.576-.961-.952s-.7-.721-.937-.974a2.81,2.81,0,0,1-.365-.427,2.771,2.771,0,0,1,.422.372c.25.24.591.577.963.954s.7.723.938.976a2.746,2.746,0,0,1,.364.425" transform="translate(-434.73 -78.972)" fill="#d6bae0"/>
                  <path id="Trazado_182039" data-name="Trazado 182039" d="M653.674,141.12s0-.026,0-.075,0-.123,0-.217c0-.194,0-.475-.006-.84,0-.736-.007-1.81-.013-3.174-.006-2.728-.015-6.616-.025-11.272l.049.049-14.9.007h0l.056-.056c0,5.718-.006,11.068-.008,15.579l-.048-.048,10.794.025,3.03.013.8.005.207,0c.047,0,.072,0,.072,0l-.066,0-.2,0-.792.005-3.019.013-10.825.025h-.048v-.048c0-4.511,0-9.861-.008-15.579v-.056h.058l14.9.007h.049v.049c-.01,4.669-.019,8.568-.025,11.3-.005,1.359-.01,2.429-.013,3.163,0,.361,0,.639-.006.831,0,.091,0,.161,0,.212s0,.07,0,.07" transform="translate(-440.193 -84.272)" fill="#d6bae0"/>
                  <path id="Trazado_182040" data-name="Trazado 182040" d="M650.882,145.472a3.536,3.536,0,0,0,3.857,3.857,4,4,0,0,0-3.857-3.857" transform="translate(-448.361 -97.695)" fill="#e0c3eb"/>
                  <path id="Trazado_182041" data-name="Trazado 182041" d="M666.281,145.469a3.536,3.536,0,0,0-3.857,3.857,4,4,0,0,0,3.857-3.857" transform="translate(-456.116 -97.69)" fill="#e0c3eb"/>
                  <path id="Trazado_182042" data-name="Trazado 182042" d="M659.313,139.053a3.869,3.869,0,0,0,.172,5.966,4.38,4.38,0,0,0-.172-5.966" transform="translate(-453.12 -93.384)" fill="#d6bae0"/>
                  <path id="Trazado_182043" data-name="Trazado 182043" d="M68.64,15.961,57.454,11.917,46.377,15.906c-1.414.673-2.655,1.075-2.655,2.4v6.6a25.082,25.082,0,0,0,3.649,13.142,22.766,22.766,0,0,0,10.191,9.062c4.528-1.481,7.908-5.428,9.974-8.8a25.081,25.081,0,0,0,3.649-13.142V19.231a3.111,3.111,0,0,0-2.546-3.27" transform="translate(-40.612 -8.003)" fill="#eaccf5"/>
                  <path id="Trazado_182044" data-name="Trazado 182044" d="M57.563,43.282A18.1,18.1,0,0,1,49.5,36.054a19.843,19.843,0,0,1-2.887-10.4V21.024a2.92,2.92,0,0,1,1.877-2.619l8.966-3.375,0-3.114L46.377,15.905c-1.163.511-2.655,1.075-2.655,2.4v6.6a25.084,25.084,0,0,0,3.649,13.142,22.765,22.765,0,0,0,10.192,9.062Z" transform="translate(-40.612 -8.002)" fill="#e0c3eb"/>
                  <path id="Trazado_182045" data-name="Trazado 182045" d="M85.643,47.115a13.423,13.423,0,0,0,2.2-.949,19.735,19.735,0,0,0,4.651-3.683,25.217,25.217,0,0,0,3.235-4.375,24.149,24.149,0,0,0,3.54-13.268l.007-5.452c-.007-2.715-1.39-2.915-2.553-3.426L85.534,11.917l0,3.114,9.071,3.43a2.921,2.921,0,0,1,1.877,2.619v4.632a19.844,19.844,0,0,1-2.887,10.4,17.7,17.7,0,0,1-7.954,7.173Z" transform="translate(-68.692 -8.003)" fill="#d6bae0"/>
                  <path id="Trazado_182046" data-name="Trazado 182046" d="M79.858,45.047l.012-.891a2.9,2.9,0,1,0-5.809,0l-.012.908a1.632,1.632,0,0,0-1.386,1.617v5.256a1.631,1.631,0,0,0,1.625,1.636h5.421a1.631,1.631,0,0,0,1.625-1.636V46.676a1.632,1.632,0,0,0-1.477-1.629M77.74,50.624H76.322l.221-1.031a.864.864,0,1,1,.937-.016c.1.4.259,1.047.259,1.047m1.492-5.584H74.675l.012-.884a2.279,2.279,0,1,1,4.557,0Z" transform="translate(-60.048 -27.69)" fill="#d6bae0"/>
                  <path id="Trazado_182047" data-name="Trazado 182047" d="M57.5,40.5a3.585,3.585,0,0,1-.168-.915,15.8,15.8,0,0,1-.091-2.242c.012-.438.041-.856.08-1.234a2.651,2.651,0,0,1,.25-1,1.14,1.14,0,0,1,.49-.5c.152-.071.246-.068.248-.057a1.267,1.267,0,0,0-.614.615,2.758,2.758,0,0,0-.194.95c-.029.375-.053.789-.065,1.223-.026.868,0,1.655.033,2.224a5.591,5.591,0,0,1,.03.926" transform="translate(-49.686 -23.204)" fill="#fff"/>
                  <path id="Trazado_182048" data-name="Trazado 182048" d="M58.317,58.919c-.054,0-.1-.27-.11-.606s.032-.609.086-.61.1.27.11.606-.032.609-.086.61" transform="translate(-50.34 -38.752)" fill="#fff"/>
                  <path id="Trazado_182049" data-name="Trazado 182049" d="M601.47,344.54a11.226,11.226,0,0,0-4.8-1.653,3.2,3.2,0,0,0-2.272.418.467.467,0,0,0-.234.415.507.507,0,0,0,.222.284,6.866,6.866,0,0,0,7.086.537" transform="translate(-410.27 -230.25)" fill="#d6bae0"/>
                  <path id="Trazado_182050" data-name="Trazado 182050" d="M605.61,332.184a23.414,23.414,0,0,1-3.1-2.729,7.845,7.845,0,0,1-1.945-3.6,1.45,1.45,0,0,1,.154-1.2,12.07,12.07,0,0,1,4.893,7.529" transform="translate(-414.534 -218.03)" fill="#d6bae0"/>
                  <path id="Trazado_182051" data-name="Trazado 182051" d="M616.022,332.738a11.213,11.213,0,0,1,.057-4.072,5.506,5.506,0,0,1,2.169-3.36,4.807,4.807,0,0,1-.057,3.193,15.508,15.508,0,0,1-2.151,4.528" transform="translate(-424.848 -218.466)" fill="#d6bae0"/>
                  <path id="Trazado_182052" data-name="Trazado 182052" d="M611.344,361.16a7.094,7.094,0,0,0-3.851,1.949,7.287,7.287,0,0,0-2.2,3.782,5.2,5.2,0,0,0,3.556-2.248c.888-1.141,1.5-2.393,2.479-3.461" transform="translate(-417.746 -242.546)" fill="#d6bae0"/>
                  <path id="Trazado_182053" data-name="Trazado 182053" d="M623.973,344.9a9.5,9.5,0,0,1,1.1-8.985,11.436,11.436,0,0,1-1.1,8.985" transform="translate(-429.849 -225.594)" fill="#d6bae0"/>
                  <path id="Trazado_182054" data-name="Trazado 182054" d="M621.445,374.859a6.869,6.869,0,0,0-6.568,3.781c-.082.163-.153.369-.044.515a.488.488,0,0,0,.436.128,5.714,5.714,0,0,0,3.388-1.75,32.475,32.475,0,0,1,2.817-2.678" transform="translate(-424.118 -251.736)" fill="#d6bae0"/>
                  <path id="Trazado_182055" data-name="Trazado 182055" d="M633.643,355.645a12.232,12.232,0,0,1-.122-6.833,3.332,3.332,0,0,1,1.458-2.218.285.285,0,0,1,.223-.039.293.293,0,0,1,.141.163,4.115,4.115,0,0,1,.344,1.96,12.262,12.262,0,0,1-.307,1.984,10.556,10.556,0,0,1-1.057,3.562,7.253,7.253,0,0,0-.423.782c-.126.266-.127.36-.242.571" transform="translate(-436.418 -232.73)" fill="#d6bae0"/>
                  <path id="Trazado_182056" data-name="Trazado 182056" d="M660.1,362.708a8.81,8.81,0,0,1,1.544-7.243c.111-.144.258-.3.439-.282.277.026.349.4.337.673a13.09,13.09,0,0,1-2.32,6.852" transform="translate(-454.395 -238.53)" fill="#d6bae0"/>
                  <path id="Trazado_182057" data-name="Trazado 182057" d="M662.905,374.568a10.537,10.537,0,0,0,8.646-1.758,7,7,0,0,0-4.681-.574,6.678,6.678,0,0,0-3.965,2.333" transform="translate(-456.439 -249.868)" fill="#d6bae0"/>
                  <path id="Trazado_182058" data-name="Trazado 182058" d="M664.867,365.568a9.992,9.992,0,0,1,7.847-4.537,4.834,4.834,0,0,1-2.567,2.837,14.237,14.237,0,0,1-3.767,1.1,2.658,2.658,0,0,0-1.514.6" transform="translate(-457.757 -242.459)" fill="#d6bae0"/>
                  <path id="Trazado_182059" data-name="Trazado 182059" d="M658.765,332.651a22.808,22.808,0,0,0,1-4.6,7.656,7.656,0,0,0-.915-4.546,10.008,10.008,0,0,0-.134,9.3" transform="translate(-452.901 -217.261)" fill="#d6bae0"/>
                  <path id="Trazado_182060" data-name="Trazado 182060" d="M676.635,330.869A12.314,12.314,0,0,1,685.7,324.7a10.1,10.1,0,0,1-9.064,6.166" transform="translate(-465.66 -218.062)" fill="#d6bae0"/>
                  <path id="Trazado_182061" data-name="Trazado 182061" d="M673.233,344.32c2.648.4,4.9,2.095,7.379,3.12a3.308,3.308,0,0,0,1.668.32,1.306,1.306,0,0,0,.818-2.31,3.57,3.57,0,0,0-1.212-.735,13.466,13.466,0,0,0-8.425-.47" transform="translate(-463.375 -230.881)" fill="#d6bae0"/>
                  <path id="Trazado_182062" data-name="Trazado 182062" d="M668.567,350.8a3.13,3.13,0,0,1,1.279.886,13.8,13.8,0,0,0,5.6,2.874c.214.053.494.074.6-.119.092-.168-.025-.373-.145-.523a7.7,7.7,0,0,0-3.378-2.293,8.62,8.62,0,0,0-3.952-.936" transform="translate(-460.241 -235.499)" fill="#d6bae0"/>
                  <path id="Trazado_182063" data-name="Trazado 182063" d="M663.3,316.316a10.591,10.591,0,0,0,8.119,2.762.558.558,0,0,0,.37-.133c.2-.222-.041-.566-.279-.751a9.353,9.353,0,0,0-8.21-1.879" transform="translate(-456.706 -212.237)" fill="#d6bae0"/>
                  <path id="Trazado_182064" data-name="Trazado 182064" d="M669.545,310.11a11.316,11.316,0,0,1,10.131-1.672,8.043,8.043,0,0,1-4.828,2.119,15.277,15.277,0,0,1-5.3-.448" transform="translate(-460.898 -206.781)" fill="#d6bae0"/>
                  <path id="Trazado_182065" data-name="Trazado 182065" d="M664.266,284.27c-.235-2.382-.082-4.263-.248-6.657-.013-.191-.055-.421-.233-.49-.249-.1-.457.211-.539.464a7.631,7.631,0,0,0,1.016,6.63" transform="translate(-456.434 -186.097)" fill="#d6bae0"/>
                  <path id="Trazado_182066" data-name="Trazado 182066" d="M666.542,284.409a14.01,14.01,0,0,0,3.947-3.836,5.246,5.246,0,0,0,1.26-3.653,3.776,3.776,0,0,0-2.847,1.414,7.943,7.943,0,0,0-1.451,2.92c-.316,1.048-.537,2.126-.908,3.156" transform="translate(-458.882 -185.972)" fill="#d6bae0"/>
                  <path id="Trazado_182067" data-name="Trazado 182067" d="M678.245,284.241a31.812,31.812,0,0,0,9.713-5.727,4.961,4.961,0,0,0-3.648.28,11.506,11.506,0,0,0-6.115,5.421" transform="translate(-466.707 -186.882)" fill="#d6bae0"/>
                  <path id="Trazado_182068" data-name="Trazado 182068" d="M669.861,297.947a19.749,19.749,0,0,0,5.393.026,22.884,22.884,0,0,0,5.035-1.673.591.591,0,0,0,.342-.26.393.393,0,0,0-.123-.431,1.04,1.04,0,0,0-.429-.2,9.321,9.321,0,0,0-5.441.325,25.252,25.252,0,0,0-4.777,2.213" transform="translate(-461.111 -198.207)" fill="#d6bae0"/>
                  <path id="Trazado_182069" data-name="Trazado 182069" d="M636.852,301.005a9.54,9.54,0,0,1-.087-7.9,6.03,6.03,0,0,1,.7,3.926c-.136,1.349-.547,2.737-.573,4.093" transform="translate(-438.339 -196.845)" fill="#d6bae0"/>
                  <path id="Trazado_182070" data-name="Trazado 182070" d="M607.077,309.642a11.012,11.012,0,0,0-8.183,3.486,7.649,7.649,0,0,0,4.481-.831,22.8,22.8,0,0,0,3.84-2.57" transform="translate(-413.451 -207.946)" fill="#d6bae0"/>
                  <path id="Trazado_182071" data-name="Trazado 182071" d="M598.066,306.006a11.418,11.418,0,0,0-4.368.134,5.239,5.239,0,0,0-3.329,2.823,7.889,7.889,0,0,0,4.1-.773,23.549,23.549,0,0,0,3.6-2.184" transform="translate(-407.725 -205.409)" fill="#d6bae0"/>
                  <path id="Trazado_182072" data-name="Trazado 182072" d="M610.706,301.763a13.778,13.778,0,0,0-4.289-2.142,4.674,4.674,0,0,0-4.47,1.085,8.351,8.351,0,0,0,4.273.83,14.761,14.761,0,0,1,4.654.472" transform="translate(-415.501 -201.115)" fill="#d6bae0"/>
                  <path id="Trazado_182073" data-name="Trazado 182073" d="M623.309,287.459a9.971,9.971,0,0,1-2.245-9.395,14.315,14.315,0,0,1,2.245,9.395" transform="translate(-428.096 -186.74)" fill="#d6bae0"/>
                  <path id="Trazado_182074" data-name="Trazado 182074" d="M647.881,272.042c.434-1.007.738-2.065,1.127-3.09a8.881,8.881,0,0,1,1.607-2.849,4.231,4.231,0,0,1,2.846-1.475,11.462,11.462,0,0,1-5.523,7.43" transform="translate(-446.349 -177.717)" fill="#d6bae0"/>
                  <path id="Trazado_182075" data-name="Trazado 182075" d="M632.244,282.979a14.784,14.784,0,0,0-2.518-3.064,4.213,4.213,0,0,0-3.426-.9,7.98,7.98,0,0,0,5.944,3.963" transform="translate(-431.856 -187.321)" fill="#d6bae0"/>
                  <path id="Trazado_182076" data-name="Trazado 182076" d="M642.609,272.314a17.051,17.051,0,0,1-1.134-3.671,5.729,5.729,0,0,1,.575-3.733,8.468,8.468,0,0,1,.623,7.431" transform="translate(-441.992 -177.907)" fill="#d6bae0"/>
                  <path id="Trazado_182077" data-name="Trazado 182077" d="M647.916,254.577a8.007,8.007,0,0,1,5.215-4.9,1.947,1.947,0,0,1,.914-.137.793.793,0,0,1,.674.563c.085.4-.247.762-.559,1.029a17.75,17.75,0,0,1-6.244,3.448" transform="translate(-446.373 -167.573)" fill="#d6bae0"/>
                  <path id="Trazado_182078" data-name="Trazado 182078" d="M647.918,242.779a16.925,16.925,0,0,1,.681-4.514,5.706,5.706,0,0,1,2.841-3.43,6.692,6.692,0,0,1-1.261,4.395,20.16,20.16,0,0,0-2.3,4.052" transform="translate(-446.349 -157.708)" fill="#d6bae0"/>
                  <path id="Trazado_182079" data-name="Trazado 182079" d="M638.818,245.274c-.591-1.723-.652-3.911-1.683-5.411-.721-1.049-1.876-1.764-2.5-2.875a4.371,4.371,0,0,0,.145,3.264,9.445,9.445,0,0,0,1.908,2.732c.763.815,1.417,1.428,2.127,2.291" transform="translate(-437.286 -159.155)" fill="#d6bae0"/>
                  <path id="Trazado_182080" data-name="Trazado 182080" d="M647.734,311.72c-.046,0-.086-11.491-.089-25.664s.032-25.666.077-25.666.085,11.489.089,25.666-.031,25.664-.077,25.664" transform="translate(-446.19 -174.872)" fill="#d6bae0"/>
                  <path id="Trazado_182081" data-name="Trazado 182081" d="M657.927,311.866a2.427,2.427,0,0,1-.432.162l-1.189.4c-1,.342-2.38.836-3.875,1.449a15.707,15.707,0,0,0-3.671,1.839,2.691,2.691,0,0,0-.738.976c-.114.27-.134.435-.15.432a.343.343,0,0,1,0-.121,1.829,1.829,0,0,1,.084-.335,2.593,2.593,0,0,1,.72-1.04,6.459,6.459,0,0,1,1.593-.99c.637-.3,1.343-.608,2.093-.915,1.5-.615,2.887-1.093,3.9-1.407.507-.158.92-.274,1.207-.351a2.441,2.441,0,0,1,.451-.1" transform="translate(-446.342 -209.44)" fill="#d6bae0"/>
                  <path id="Trazado_182082" data-name="Trazado 182082" d="M662.836,287.251a.717.717,0,0,1-.121.129l-.369.346-1.377,1.251-4.582,4.08c-1.788,1.592-3.334,3.113-4.405,4.258-.536.572-.959,1.046-1.247,1.377l-.333.38a.7.7,0,0,1-.125.126.727.727,0,0,1,.1-.147c.07-.092.171-.23.309-.4.274-.344.683-.831,1.21-1.415a58.027,58.027,0,0,1,4.381-4.3c1.795-1.588,3.428-3.015,4.615-4.044l1.411-1.211.39-.323a.7.7,0,0,1,.143-.1" transform="translate(-447.959 -192.91)" fill="#d6bae0"/>
                  <path id="Trazado_182083" data-name="Trazado 182083" d="M662.994,301.724c-.047-.021.327-.883.7-1.975s.553-2.012.6-2a6.733,6.733,0,0,1-.443,2.057,13.4,13.4,0,0,1-.556,1.381,2.145,2.145,0,0,1-.3.54" transform="translate(-456.496 -199.958)" fill="#d6bae0"/>
                  <path id="Trazado_182084" data-name="Trazado 182084" d="M634.328,313.879a2.056,2.056,0,0,1-.276-.32l-.706-.905c-.593-.767-1.413-1.825-2.332-2.983s-1.764-2.2-2.376-2.949l-.722-.893a.212.212,0,1,1,.049-.042c.184.2.444.493.762.859.635.733,1.5,1.761,2.416,2.921s1.726,2.23,2.3,3.016c.285.392.512.713.664.937a2.069,2.069,0,0,1,.224.358" transform="translate(-432.774 -205.158)" fill="#d6bae0"/>
                  <path id="Trazado_182085" data-name="Trazado 182085" d="M638.907,315.327a4.045,4.045,0,0,1-.923-1.727,4.935,4.935,0,0,1-.209-1.741l.074.006c-.033.133-.057.2-.07.2s-.014-.076,0-.213l.073.006a7.955,7.955,0,0,0,.295,1.694,12.918,12.918,0,0,0,.763,1.774" transform="translate(-439.555 -209.432)" fill="#d6bae0"/>
                  <path id="Trazado_182086" data-name="Trazado 182086" d="M622.417,310.1a2.978,2.978,0,0,0-.644-.374,4.307,4.307,0,0,0-1.788-.142,11.046,11.046,0,0,0-1.8.291,5.431,5.431,0,0,1-.741.178,2.594,2.594,0,0,1,.709-.291,8.228,8.228,0,0,1,1.82-.343,3.9,3.9,0,0,1,1.844.2,1.141,1.141,0,0,1,.6.483" transform="translate(-425.908 -207.78)" fill="#d6bae0"/>
                  <path id="Trazado_182087" data-name="Trazado 182087" d="M616.245,306.744c-.013.026-.375-.15-.987-.359a9.929,9.929,0,0,0-4.972-.379c-.636.114-1.021.233-1.03.206a.929.929,0,0,1,.262-.112,6.11,6.11,0,0,1,.745-.209,8.777,8.777,0,0,1,5.035.384,6.122,6.122,0,0,1,.7.32.934.934,0,0,1,.242.15" transform="translate(-420.41 -205.292)" fill="#d6bae0"/>
                  <path id="Trazado_182088" data-name="Trazado 182088" d="M645.257,287.439a40.754,40.754,0,0,1-1.278-5.04,40.75,40.75,0,0,1,1.278,5.04" transform="translate(-443.725 -189.652)" fill="#d6bae0"/>
                  <path id="Trazado_182089" data-name="Trazado 182089" d="M643.987,292.2a12.011,12.011,0,0,0-.8-1.5,6.572,6.572,0,0,0-1.174-1.212,1.089,1.089,0,0,1,.453.233,3.661,3.661,0,0,1,.857.882,3.32,3.32,0,0,1,.661,1.592" transform="translate(-442.41 -194.415)" fill="#d6bae0"/>
                  <path id="Trazado_182090" data-name="Trazado 182090" d="M626.389,363.731c-.018,0-.052-.276-.181-.764a10.9,10.9,0,0,0-.768-1.99,27.527,27.527,0,0,0-4.074-5.74c-.909-1.039-1.792-2.02-2.541-2.958a20.8,20.8,0,0,1-1.817-2.621,12.616,12.616,0,0,1-.917-1.945c-.084-.24-.146-.427-.18-.556a.927.927,0,0,1-.047-.2c.015,0,.1.263.288.731a14.245,14.245,0,0,0,.958,1.909,21.977,21.977,0,0,0,1.835,2.584c.752.929,1.636,1.9,2.547,2.945a26.081,26.081,0,0,1,4.055,5.8,9.919,9.919,0,0,1,.725,2.025,5.668,5.668,0,0,1,.1.576.955.955,0,0,1,.017.2" transform="translate(-424.846 -233.008)" fill="#d6bae0"/>
                  <path id="Trazado_182091" data-name="Trazado 182091" d="M656.988,366.818a4.173,4.173,0,0,1-.476.267,10.387,10.387,0,0,0-1.234.815,14.161,14.161,0,0,0-1.62,1.478c-.569.6-1.154,1.3-1.752,2.046-1.2,1.5-2.313,2.826-2.982,3.886-.34.525-.587.969-.749,1.279a4.067,4.067,0,0,1-.262.479.464.464,0,0,1,.044-.135c.036-.086.083-.214.16-.373a12.1,12.1,0,0,1,.707-1.313,42.778,42.778,0,0,1,2.952-3.927c.6-.749,1.192-1.448,1.771-2.048a13.16,13.16,0,0,1,1.66-1.466,8.654,8.654,0,0,1,1.274-.778c.157-.079.286-.128.371-.165a.455.455,0,0,1,.134-.045" transform="translate(-446.371 -246.345)" fill="#d6bae0"/>
                  <path id="Trazado_182092" data-name="Trazado 182092" d="M663.263,376.919a6.906,6.906,0,0,1-1.005.146,13.228,13.228,0,0,0-2.384.469,7.161,7.161,0,0,0-2.134,1.12c-.492.38-.724.695-.747.677a.756.756,0,0,1,.149-.232,3.782,3.782,0,0,1,.524-.536,6.459,6.459,0,0,1,2.158-1.187,10.768,10.768,0,0,1,2.423-.428,5.544,5.544,0,0,1,1.017-.029" transform="translate(-452.468 -253.121)" fill="#d6bae0"/>
                  <path id="Trazado_182093" data-name="Trazado 182093" d="M657.878,376.213c-.052-.03.4-.722.752-1.652.33-.939.407-1.763.466-1.753a1.6,1.6,0,0,1-.017.539,5.772,5.772,0,0,1-.293,1.27,6.141,6.141,0,0,1-.583,1.165,1.624,1.624,0,0,1-.325.431" transform="translate(-453.061 -250.368)" fill="#d6bae0"/>
                  <path id="Trazado_182094" data-name="Trazado 182094" d="M659.935,339.637a.754.754,0,0,1-.161.085l-.472.215c-.207.089-.458.2-.741.35s-.615.3-.96.5l-.548.312c-.19.109-.378.239-.578.365-.4.245-.809.547-1.241.856a21.3,21.3,0,0,0-4.782,4.948c-.293.443-.582.858-.813,1.27-.118.2-.242.4-.345.591l-.293.559c-.2.352-.335.688-.472.977s-.243.543-.325.752l-.2.479a.736.736,0,0,1-.08.164.756.756,0,0,1,.049-.175l.17-.492c.073-.214.168-.474.3-.766s.262-.636.452-.993l.285-.567c.1-.2.222-.392.339-.6.228-.418.513-.839.805-1.287a20.519,20.519,0,0,1,4.816-4.984c.438-.307.849-.607,1.259-.849.2-.124.394-.252.587-.359l.557-.3c.35-.2.687-.346.976-.485s.544-.246.756-.326l.485-.186a.748.748,0,0,1,.173-.055" transform="translate(-446.378 -228.091)" fill="#d6bae0"/>
                  <path id="Trazado_182095" data-name="Trazado 182095" d="M662.624,351.837a1.154,1.154,0,0,1,.395-.588,2.5,2.5,0,0,1,1.591-.611,4.36,4.36,0,0,1,1.674.327,2.384,2.384,0,0,1,.633.308,3.865,3.865,0,0,1-.672-.2,5.061,5.061,0,0,0-1.631-.272,2.592,2.592,0,0,0-1.52.533,4.686,4.686,0,0,0-.471.5" transform="translate(-456.249 -235.479)" fill="#d6bae0"/>
                  <path id="Trazado_182096" data-name="Trazado 182096" d="M659.352,351.519a4.248,4.248,0,0,0,.35-3,.97.97,0,0,1,.187.428,3.037,3.037,0,0,1-.257,2.2c-.14.254-.264.385-.28.374" transform="translate(-454.05 -234.053)" fill="#d6bae0"/>
                  <path id="Trazado_182097" data-name="Trazado 182097" d="M623.75,403.041a38.04,38.04,0,0,0,3.606,13.374h8.852a38.461,38.461,0,0,0,3.392-13.374Z" transform="translate(-430.144 -270.672)" fill="#d6bae0"/>
                  <path id="Trazado_182098" data-name="Trazado 182098" d="M641.023,424.509c0,.046-2.914.083-6.509.083s-6.509-.037-6.509-.083,2.914-.083,6.509-.083,6.509.037,6.509.083" transform="translate(-433.001 -285.033)" fill="#efd0fa"/>
                  <path id="Trazado_182099" data-name="Trazado 182099" d="M642.086,429.353c0,.046-2.732.083-6.1.083s-6.1-.037-6.1-.083,2.732-.083,6.1-.083,6.1.037,6.1.083" transform="translate(-434.262 -288.286)" fill="#efd0fa"/>
                  <path id="Trazado_182100" data-name="Trazado 182100" d="M635,411.821a25.063,25.063,0,0,1,0,4.078,25.063,25.063,0,0,1,0-4.078" transform="translate(-437.64 -276.568)" fill="#efd0fa"/>
                  <path id="Trazado_182101" data-name="Trazado 182101" d="M649.436,411.821a26.876,26.876,0,0,1,0,4.223,26.856,26.856,0,0,1,0-4.223" transform="translate(-447.338 -276.568)" fill="#efd0fa"/>
                  <path id="Trazado_182102" data-name="Trazado 182102" d="M662.993,411.712a27.956,27.956,0,0,1,0,4.307,27.935,27.935,0,0,1,0-4.307" transform="translate(-456.442 -276.495)" fill="#efd0fa"/>
                  <path id="Trazado_182103" data-name="Trazado 182103" d="M639.934,411.651c0,.046-3.419.083-7.634.083s-7.635-.037-7.635-.083,3.418-.083,7.635-.083,7.634.037,7.634.083" transform="translate(-430.758 -276.398)" fill="#efd0fa"/>
                  <path id="Trazado_182104" data-name="Trazado 182104" d="M238.22,46.443c-2.634-15.106-11.02-29.374-23.7-38s-29.648-11.1-43.847-5.305c-21.4,8.732-33.54,33.628-55.64,40.41-11.789,3.618-24.445,1.405-36.745.521s-25.866.05-34.958,8.381C34.94,60.139,32.4,72.984,35.573,83.91s6.778,18.925,14.032,27.69c9.59,11.588,25.385,14.277,34.915,15a441.813,441.813,0,0,0,79.472,2.155c19.167.674,41.794-7.053,50.907-15.71A75.193,75.193,0,0,0,231.385,91.2c6.6-13.841,9.469-29.649,6.835-44.755" transform="translate(-34.253 0)" fill="#eaccf5"/>
                </g>
              </g>
            </g>
            <path id="Trazado_182105" data-name="Trazado 182105" d="M241.706,443.486c0,.047-48.345.086-107.968.086-59.644,0-107.978-.038-107.978-.086s48.335-.085,107.978-.085c59.623,0,107.968.038,107.968.085" transform="translate(-17.3 -297.776)" fill="#263238"/>
            <path id="Trazado_182106" data-name="Trazado 182106" d="M622.264,410.31l3.68,6.57,4.409,4.357a.771.771,0,0,1-.716,1.3c-1.55-.364-7.244-1.734-7.487-2.23-.281-.574-4.342-6.672-4.342-6.672Z" transform="translate(-414.904 -275.553)" fill="#a7f"/>
            <g id="Grupo_112843" data-name="Grupo 112843" transform="translate(206.988 144.316)" opacity="0.6">
              <g id="Grupo_112842" data-name="Grupo 112842">
                <g id="Grupo_112841" data-name="Grupo 112841" clip-path="url(#clip-path-5)">
                  <path id="Trazado_182107" data-name="Trazado 182107" d="M638.671,441.91l-8.43-2.494.162.275a1.159,1.159,0,0,0,.62.508c.7.241,2.638.863,6.944,1.9a.771.771,0,0,0,.7-.185" transform="translate(-630.241 -439.416)" fill="#fff"/>
                </g>
              </g>
            </g>
            <g id="Grupo_112846" data-name="Grupo 112846" transform="translate(206.606 141.432)" opacity="0.6">
              <g id="Grupo_112845" data-name="Grupo 112845">
                <g id="Grupo_112844" data-name="Grupo 112844" clip-path="url(#clip-path-6)">
                  <path id="Trazado_182108" data-name="Trazado 182108" d="M629.555,430.643a.467.467,0,0,1,.42.46.449.449,0,0,1-.452.42.492.492,0,0,1-.442-.489.465.465,0,0,1,.519-.385" transform="translate(-629.078 -430.636)" fill="#fff"/>
                </g>
              </g>
            </g>
            <path id="Trazado_182109" data-name="Trazado 182109" d="M646.162,438.115a2.356,2.356,0,0,1,.271-.84c.265-.419.678-.539.662-.584,0-.019-.116-.021-.28.047a1.23,1.23,0,0,0-.722,1.1c0,.178.05.28.069.276" transform="translate(-433.899 -293.262)" fill="#263238"/>
            <path id="Trazado_182110" data-name="Trazado 182110" d="M649.233,440.639c.047.01.131-.324.41-.618s.6-.409.585-.456a1.082,1.082,0,0,0-.995,1.074" transform="translate(-435.996 -295.191)" fill="#263238"/>
            <path id="Trazado_182111" data-name="Trazado 182111" d="M641.661,435.539a3.966,3.966,0,0,1,1.4-1.789,2.109,2.109,0,0,0-1.4,1.789" transform="translate(-430.915 -291.292)" fill="#263238"/>
            <path id="Trazado_182112" data-name="Trazado 182112" d="M637.761,431.19c.04.029.31-.333.766-.625s.892-.4.882-.447a1.914,1.914,0,0,0-1.648,1.071" transform="translate(-428.301 -288.846)" fill="#263238"/>
            <path id="Trazado_182113" data-name="Trazado 182113" d="M634.322,425.536a2.45,2.45,0,0,1,1.768-.963c0-.02-.116-.059-.317-.057a1.682,1.682,0,0,0-1.327.723c-.11.168-.142.289-.124.3" transform="translate(-425.991 -285.093)" fill="#263238"/>
            <path id="Trazado_182114" data-name="Trazado 182114" d="M632.91,421.331a.653.653,0,0,0-.136-.25,1.971,1.971,0,0,0-.574-.527.877.877,0,0,0-.537-.169.31.31,0,0,0-.266.237.5.5,0,0,0,.07.353,1.091,1.091,0,0,0,1.336.383,1.265,1.265,0,0,0,.733-1.2.439.439,0,0,0-.168-.325.3.3,0,0,0-.356.023,1.08,1.08,0,0,0-.3.474,2.209,2.209,0,0,0-.145.765.678.678,0,0,0,.032.283,3.514,3.514,0,0,1,.221-1,1.007,1.007,0,0,1,.268-.407.162.162,0,0,1,.194-.014.3.3,0,0,1,.1.22,1.128,1.128,0,0,1-.648,1.034.947.947,0,0,1-1.139-.308.367.367,0,0,1-.06-.245.169.169,0,0,1,.145-.133.8.8,0,0,1,.458.135,2.93,2.93,0,0,1,.769.677" transform="translate(-424.024 -281.916)" fill="#263238"/>
            <path id="Trazado_182115" data-name="Trazado 182115" d="M591.269,414.047l-1.5,5.385s4.971,3.328,4.792,4.35l-10.545-2.524,1.985-8.486Z" transform="translate(-392.213 -277.207)" fill="#a7f"/>
            <g id="Grupo_112849" data-name="Grupo 112849" transform="translate(193.994 140.983)" opacity="0.6">
              <g id="Grupo_112848" data-name="Grupo 112848">
                <g id="Grupo_112847" data-name="Grupo 112847" clip-path="url(#clip-path-7)">
                  <path id="Trazado_182116" data-name="Trazado 182116" d="M591.093,429.273a.443.443,0,0,0-.415.42.426.426,0,0,0,.413.415.467.467,0,0,0,.438-.447.442.442,0,0,0-.478-.384" transform="translate(-590.678 -429.268)" fill="#fff"/>
                </g>
              </g>
            </g>
            <g id="Grupo_112852" data-name="Grupo 112852" transform="translate(191.808 143.204)" opacity="0.6">
              <g id="Grupo_112851" data-name="Grupo 112851">
                <g id="Grupo_112850" data-name="Grupo 112850" clip-path="url(#clip-path-8)">
                  <path id="Trazado_182117" data-name="Trazado 182117" d="M584.021,436.878l.234-.848,10.023,2.737s.42.317.288.635Z" transform="translate(-584.021 -436.03)" fill="#fff"/>
                </g>
              </g>
            </g>
            <path id="Trazado_182118" data-name="Trazado 182118" d="M599.847,432.791c-.014.051-.277.013-.57.118s-.48.289-.522.257.105-.311.462-.432.652.012.63.056" transform="translate(-402.103 -290.579)" fill="#263238"/>
            <path id="Trazado_182119" data-name="Trazado 182119" d="M603.346,435.122c0,.053-.244.087-.471.263s-.333.394-.384.379-.014-.314.273-.527.592-.165.582-.116" transform="translate(-404.604 -292.187)" fill="#263238"/>
            <path id="Trazado_182120" data-name="Trazado 182120" d="M606.018,438.067c-.05,0-.059-.275.14-.525s.467-.3.479-.257-.173.163-.334.371-.232.418-.285.411" transform="translate(-406.966 -293.659)" fill="#263238"/>
            <path id="Trazado_182121" data-name="Trazado 182121" d="M600.45,428.478c-.033.042-.252-.086-.548-.136s-.545-.013-.561-.063.246-.182.593-.118.55.282.515.317" transform="translate(-402.501 -287.531)" fill="#263238"/>
            <g id="Grupo_112855" data-name="Grupo 112855" transform="translate(193.322 136.459)" opacity="0.3">
              <g id="Grupo_112854" data-name="Grupo 112854">
                <g id="Grupo_112853" data-name="Grupo 112853" clip-path="url(#clip-path-9)">
                  <path id="Trazado_182122" data-name="Trazado 182122" d="M594.068,416.942l-.265.96-5.171-1.288.259-1.119Z" transform="translate(-588.632 -415.494)"/>
                </g>
              </g>
            </g>
            <path id="Trazado_182123" data-name="Trazado 182123" d="M600.587,423.429a1.018,1.018,0,0,1-.527-.129,2.433,2.433,0,0,1-.512-.3,2.569,2.569,0,0,1-.265-.234.662.662,0,0,1-.13-.162.231.231,0,0,1,.042-.279.29.29,0,0,1,.254-.064.715.715,0,0,1,.192.075,1.968,1.968,0,0,1,.3.191,1.915,1.915,0,0,1,.411.436.9.9,0,0,1,.208.5c-.027.011-.108-.178-.312-.425a2.158,2.158,0,0,0-.408-.378,2.006,2.006,0,0,0-.281-.166c-.1-.056-.2-.079-.24-.037-.015.016-.018.024,0,.062a.539.539,0,0,0,.1.119,2.862,2.862,0,0,0,.241.226,2.988,2.988,0,0,0,.464.318,3.771,3.771,0,0,1,.47.246" transform="translate(-402.356 -283.573)" fill="#263238"/>
            <path id="Trazado_182124" data-name="Trazado 182124" d="M603.229,422.776a.866.866,0,0,1-.017-.544,1.765,1.765,0,0,1,.21-.561,1.792,1.792,0,0,1,.212-.288.448.448,0,0,1,.4-.186.254.254,0,0,1,.185.2.735.735,0,0,1,.008.207,1.212,1.212,0,0,1-.085.356,1.251,1.251,0,0,1-.356.492c-.272.224-.5.234-.5.215s.192-.086.413-.311a1.249,1.249,0,0,0,.286-.457,1.112,1.112,0,0,0,.063-.307c.01-.116-.01-.216-.055-.215s-.162.05-.226.129a1.81,1.81,0,0,0-.2.255,1.952,1.952,0,0,0-.228.5c-.089.306-.08.512-.11.513" transform="translate(-405.083 -282.863)" fill="#263238"/>
            <path id="Trazado_182125" data-name="Trazado 182125" d="M592.866,236.191a32.038,32.038,0,0,1,3.79,13.228c.2,6.953-4.884,50.081-4.884,50.081l-8.057-1.958c-.148,1.387,2.525-14.178,3.47-21.669.931-7.377-3.744-33.99-3.744-33.99l8.8-5.692" transform="translate(-391.824 -158.62)" fill="#263238"/>
            <path id="Trazado_182126" data-name="Trazado 182126" d="M555.741,252.2s-.875,7.464,1.33,12.467,19.708,46.392,19.708,46.392l7.171-3.654L566.4,252.217Z" transform="translate(-373.106 -169.367)" fill="#263238"/>
            <path id="Trazado_182127" data-name="Trazado 182127" d="M602.231,296.831c-.045.015-2.257-6.647-4.94-14.878s-4.823-14.918-4.778-14.933,2.256,6.646,4.94,14.88,4.822,14.916,4.777,14.931" transform="translate(-397.916 -179.324)" fill="#455a64"/>
            <path id="Trazado_182128" data-name="Trazado 182128" d="M588.534,356.828c-.044.018-3.54-8.132-7.809-18.2s-7.7-18.253-7.652-18.271,3.539,8.13,7.809,18.2,7.694,18.251,7.651,18.269" transform="translate(-384.86 -215.142)" fill="#455a64"/>
            <path id="Trazado_182129" data-name="Trazado 182129" d="M550.046,107.022c-1.049-2.187-4.366-3.44-7.111-2.79-2.309.546-4.819,2.793-5.048,5.164-.332,3.437,1.47,7.005.261,10.247-1.406,3.773-3.333,2.529-3.2,8,.041,1.646.68,5.683,1.48,7.128a2.967,2.967,0,0,0,1.909,1.6c1.061.2,2.52.41,3.38-.233,2.321-1.734,4.477-1.968,5.06-4.789.858-4.157-1.914-9.247-1.794-12.621a52.927,52.927,0,0,0-.931-10.073" transform="translate(-359.254 -69.884)" fill="#263238"/>
            <path id="Trazado_182130" data-name="Trazado 182130" d="M579.9,126.989a9,9,0,0,0-3.332-3.5,24.6,24.6,0,0,1-3.93-2.9,9.73,9.73,0,0,1-1.967-5.779h0c-.021-.537-.059-1.066-.13-1.591a13.555,13.555,0,0,0-1.712-5.5c-1.04-1.64-3.8-3.166-6.24-2.213l-1.231,1.583a45.426,45.426,0,0,1,1.266,15.819c-.148,1.537-.326,3.254.649,4.466a4.431,4.431,0,0,0,2.65,1.392,4,4,0,0,0,3.249-.509,1.04,1.04,0,0,1,.173-.108,5.16,5.16,0,0,0,.89,1.611,7.635,7.635,0,0,0,3.952,2.124c1.678.463,3.664.728,4.994-.394a3.894,3.894,0,0,0,.72-4.5" transform="translate(-376.993 -70.658)" fill="#263238"/>
            <path id="Trazado_182131" data-name="Trazado 182131" d="M544.189,156.768a51.017,51.017,0,0,0-4.838,2.326c-.93.651,3.814,13.769,3.814,13.769s2.233,5.4,1.675,7.815c-.314,1.362-.894,2.813-1.142,4.07a2.406,2.406,0,0,0,1.872,2.824c2.3.474,6.736,1.056,10.526-.382a27,27,0,0,0,6.4-3.379,2.4,2.4,0,0,0,.63-3.175,6.48,6.48,0,0,0-.98-1.26c-1.28-1.28-2.422-6.276-2.717-7.649a2.387,2.387,0,0,1-.046-.686c.1-1.305.4-6.093-.4-8.41a28.176,28.176,0,0,0-2.718-5.245,2.4,2.4,0,0,0-1.593-1.069l-3.118-.574a2.41,2.41,0,0,0-.813-.01Z" transform="translate(-362.133 -104.565)" fill="#a7f"/>
            <g id="Grupo_112858" data-name="Grupo 112858" transform="translate(182.2 68.502)" opacity="0.3">
              <g id="Grupo_112857" data-name="Grupo 112857">
                <g id="Grupo_112856" data-name="Grupo 112856" clip-path="url(#clip-path-10)">
                  <path id="Trazado_182132" data-name="Trazado 182132" d="M555.461,215.682l-.694,2.3s4.789-1.617,6.335-3.434,3.069-3.173,3.785-3.255,3.809-.081,4.351.353,2.371,1.6,2.371,1.6l-.841-2.413-2.055-1.612-6.12-.636Z" transform="translate(-554.767 -208.576)"/>
                </g>
              </g>
            </g>
            <path id="Trazado_182133" data-name="Trazado 182133" d="M536.421,166.031a4.77,4.77,0,0,0-1.554,3.9s.141,12.785.577,15.251a4.268,4.268,0,0,0,4.613,3.677c1.383,0,8.78-6.021,8.78-6.021l-2.274-3.419-5.4,1.407s-.222-5.267-.222-7.057-4.518-7.742-4.518-7.742" transform="translate(-359.203 -111.502)" fill="#a7f"/>
            <path id="Trazado_182134" data-name="Trazado 182134" d="M587.378,157.878a7.67,7.67,0,0,1,4.813,3.8c1.205,2.623,8.761,14.408,4.862,16.58-2.817,1.569-6.412-2.044-6.412-2.044Z" transform="translate(-394.467 -106.027)" fill="#a7f"/>
            <path id="Trazado_182135" data-name="Trazado 182135" d="M600.62,196.231a4.686,4.686,0,0,1-.326-1.7,3.123,3.123,0,0,0-.127-1.038.8.8,0,0,0-.828-.554l-.123,2.566Z" transform="translate(-402.418 -129.566)" fill="#a26752"/>
            <path id="Trazado_182136" data-name="Trazado 182136" d="M589.962,184.335l-.429,9.069-4.358.421-.1-8.888a.471.471,0,0,1,.4-.471l3.942-.619a.472.472,0,0,1,.544.488" transform="translate(-392.923 -123.463)" fill="#263238"/>
            <path id="Trazado_182137" data-name="Trazado 182137" d="M586.25,188.116a1.532,1.532,0,0,0,.025-.269c.008-.19.019-.436.032-.733.011-.315.023-.683.037-1.088a1.14,1.14,0,0,1,.008-.148.279.279,0,0,1,.059-.123.273.273,0,0,1,.112-.082.807.807,0,0,1,.152-.032l.681-.111c.933-.153,1.778-.3,2.388-.405l.722-.133a1.521,1.521,0,0,0,.262-.061,1.515,1.515,0,0,0-.268.026l-.726.1c-.613.092-1.459.226-2.392.379l-.681.113a.839.839,0,0,0-.171.038.361.361,0,0,0-.147.108.368.368,0,0,0-.076.162,1.186,1.186,0,0,0-.008.162c-.007.405-.013.773-.017,1.088,0,.3,0,.544,0,.734a1.555,1.555,0,0,0,.011.27" transform="translate(-393.703 -124.194)" fill="#455a64"/>
            <path id="Trazado_182138" data-name="Trazado 182138" d="M592.354,187.334a.216.216,0,0,1,.237-.169.214.214,0,0,1,.181.147.244.244,0,0,1-.084.238.224.224,0,0,1-.249.015.206.206,0,0,1-.084-.232" transform="translate(-397.803 -125.693)" fill="#fafafa"/>
            <path id="Trazado_182139" data-name="Trazado 182139" d="M588.352,195.667c.1.01,2.574.827,2.574.827l1.391,1.068a2.463,2.463,0,0,1,.376,1.849c-.169,1.19-.675,1.678-1.936,2.212h-2.543l-1.417-.83a.791.791,0,0,1-.382-.8l.009-.055-.18-.214a.436.436,0,0,1,.534-.669l1.578.81.993-.026.1-.342-1.543-.514-2.036-1.116a.539.539,0,0,1,.456-.975l1.841.724,1.882.5-.388-.655-2.31-1.2s-.279-.706,1.007-.586" transform="translate(-393.262 -131.396)" fill="#a26752"/>
            <path id="Trazado_182140" data-name="Trazado 182140" d="M578.134,192.047a1.521,1.521,0,0,0-1.258.256c-.739.453-1.668,1.106-1.668,1.106l-1.447.673.12-.4s1.519-.085,1.276-1.161l-.9.182-.837-.275-1.287,1.723-.343,1.908-.818.935,1.792,2.774,2.414-.921,2.173-.215.948-1.049-.056-1.135.892-1.252s.049-.564-.45-.539-1.494,1.385-1.494,1.385l-1.178.216s-.233-.154-.083-.285,3.367-2.4,3.46-2.807.214-.686-.15-.738a1.958,1.958,0,0,0-.91.235s.076-.572-.2-.614" transform="translate(-383.453 -128.945)" fill="#a26752"/>
            <path id="Trazado_182141" data-name="Trazado 182141" d="M585.021,195.923a32.894,32.894,0,0,0,2.826-2.016,32.927,32.927,0,0,0-2.826,2.016" transform="translate(-392.885 -130.222)" fill="#8a503f"/>
            <path id="Trazado_182142" data-name="Trazado 182142" d="M584.224,204.084a.727.727,0,0,0,.187.029c.12.012.3.028.514.031a3.35,3.35,0,0,0,.765-.067,2.245,2.245,0,0,0,.858-.391,3.957,3.957,0,0,0,1.078-1.31c.105-.19.183-.348.235-.457a.748.748,0,0,0,.072-.175c-.012-.007-.142.229-.363.6a4.251,4.251,0,0,1-1.076,1.269,2.243,2.243,0,0,1-.823.382,3.636,3.636,0,0,1-.747.085c-.431.005-.7-.011-.7,0" transform="translate(-392.349 -135.486)" fill="#8a503f"/>
            <path id="Trazado_182143" data-name="Trazado 182143" d="M570.977,196.9s.02-.019.056-.058l.16-.177.614-.689,0,0v0c.092-.5.21-1.14.352-1.907l-.005.011,1.292-1.719-.036.011.836.277.009,0,.009,0,.9-.18-.043-.028a.849.849,0,0,1-.017.452.779.779,0,0,1-.285.361,1.975,1.975,0,0,1-.939.3l-.028,0-.008.026c-.037.123-.078.263-.12.4l-.026.087.082-.038,1.447-.671,0,0,0,0c.431-.3.879-.6,1.346-.9a3.656,3.656,0,0,1,.728-.4,1.355,1.355,0,0,1,.812-.056l.008,0h0c.086.012.138.111.156.22a1.23,1.23,0,0,1,.006.344l-.009.084.075-.038a2.624,2.624,0,0,1,.493-.19.787.787,0,0,1,.508,0c.073.032.092.107.087.193a1.6,1.6,0,0,1-.05.268.809.809,0,0,1-.081.252,1.6,1.6,0,0,1-.183.206,21.387,21.387,0,0,1-1.756,1.423l-.884.655-.437.32-.108.081a.242.242,0,0,0-.1.124.194.194,0,0,0,.041.162.457.457,0,0,0,.107.1l.014.01.018,0,1.178-.217.016,0,.01-.014a7.311,7.311,0,0,1,.975-1.094c.178-.147.377-.31.594-.269a.315.315,0,0,1,.241.175.644.644,0,0,1,.058.312l.007-.019-.889,1.253-.008.011v.013q.031.588.059,1.135l.009-.025-.945,1.052.02-.01-2.172.222h-.006l-1.784.693-.465.184-.118.048a.225.225,0,0,0-.039.018.211.211,0,0,0,.041-.012l.12-.043.469-.172,1.792-.672-.006,0,2.174-.208h.012l.008-.009.951-1.047.009-.011v-.014q-.026-.547-.054-1.135l-.007.023.894-1.25.007-.009V195.1a.725.725,0,0,0-.066-.356.439.439,0,0,0-.121-.147.412.412,0,0,0-.177-.072.551.551,0,0,0-.365.072,1.818,1.818,0,0,0-.3.214,7.369,7.369,0,0,0-.99,1.106l.027-.017-1.179.215.033.007c-.062-.042-.126-.117-.111-.167s.11-.1.176-.156l.436-.32.886-.655a21.388,21.388,0,0,0,1.766-1.431,1.723,1.723,0,0,0,.194-.219.365.365,0,0,0,.06-.145l.033-.137a1.709,1.709,0,0,0,.052-.285.365.365,0,0,0-.022-.157.227.227,0,0,0-.115-.122.86.86,0,0,0-.573,0,2.728,2.728,0,0,0-.512.2l.066.046a1.3,1.3,0,0,0-.007-.372.486.486,0,0,0-.066-.179.244.244,0,0,0-.166-.113l.009,0a1.429,1.429,0,0,0-.874.056,3.746,3.746,0,0,0-.746.407c-.468.3-.916.6-1.347.907l.007,0-1.446.674.056.049.119-.4-.036.029a2.045,2.045,0,0,0,.979-.317.852.852,0,0,0,.312-.4.925.925,0,0,0,.018-.493l-.005-.036-.038.008-.895.184h.018l-.837-.273-.022-.008-.014.019-1.282,1.727,0,.005v.006l-.333,1.91,0-.008-.6.7-.154.182c-.034.041-.05.064-.05.064" transform="translate(-383.453 -128.853)" fill="#8a503f"/>
            <path id="Trazado_182144" data-name="Trazado 182144" d="M551.346,113.624a5.11,5.11,0,0,1,4.8-5.571,5.262,5.262,0,0,1,5.51,4.6,52.186,52.186,0,0,1,.514,5.626,4.138,4.138,0,0,1-2.323,3.871,3.484,3.484,0,0,1-.7.152.017.017,0,0,0-.015.02l.511,3.011a3.379,3.379,0,0,1-2.95,3.923,3.5,3.5,0,0,1-3.788-3.288Z" transform="translate(-370.252 -72.558)" fill="#a26752"/>
            <path id="Trazado_182145" data-name="Trazado 182145" d="M578.53,126.525a.416.416,0,0,1-.354.463.4.4,0,0,1-.478-.321.416.416,0,0,1,.354-.463.4.4,0,0,1,.478.322" transform="translate(-387.964 -84.751)" fill="#263238"/>
            <path id="Trazado_182146" data-name="Trazado 182146" d="M577.482,123.487c-.046.06-.392-.134-.843-.081s-.755.314-.811.265c-.027-.021.014-.124.146-.244a1.167,1.167,0,0,1,.641-.279,1.13,1.13,0,0,1,.679.131c.152.088.21.18.188.207" transform="translate(-386.706 -82.698)" fill="#263238"/>
            <path id="Trazado_182147" data-name="Trazado 182147" d="M565.709,128.248a.416.416,0,0,1-.354.463.4.4,0,0,1-.478-.321.416.416,0,0,1,.354-.463.4.4,0,0,1,.478.322" transform="translate(-379.354 -85.908)" fill="#263238"/>
            <path id="Trazado_182148" data-name="Trazado 182148" d="M564,125.309c-.046.06-.392-.134-.843-.08s-.755.314-.811.265c-.027-.021.014-.124.146-.244a1.167,1.167,0,0,1,.641-.279,1.13,1.13,0,0,1,.679.131c.151.089.21.18.188.207" transform="translate(-377.65 -83.922)" fill="#263238"/>
            <path id="Trazado_182149" data-name="Trazado 182149" d="M572.255,127.943a3.049,3.049,0,0,1,.718-.215c.114-.025.22-.06.23-.14a.572.572,0,0,0-.118-.326l-.446-.823a14.81,14.81,0,0,1-1.04-2.167,14.926,14.926,0,0,1,1.215,2.08l.432.829a.651.651,0,0,1,.114.437.288.288,0,0,1-.17.188.782.782,0,0,1-.192.05,3,3,0,0,1-.743.087" transform="translate(-383.869 -83.458)" fill="#263238"/>
            <path id="Trazado_182150" data-name="Trazado 182150" d="M566.789,150.063a7.364,7.364,0,0,1-4.063-.691s.963,2.184,4.2,1.5Z" transform="translate(-377.912 -100.314)" fill="#8a503f"/>
            <path id="Trazado_182151" data-name="Trazado 182151" d="M570.724,138.3a.831.831,0,0,0-.766-.212.749.749,0,0,0-.48.33.459.459,0,0,0,.029.533.558.558,0,0,0,.61.078,1.713,1.713,0,0,0,.536-.405.5.5,0,0,0,.113-.146.148.148,0,0,0-.021-.165" transform="translate(-382.399 -92.72)" fill="#8a503f"/>
            <path id="Trazado_182152" data-name="Trazado 182152" d="M569.568,136.853c.073-.013.132.469.593.762s.976.179.988.246c.011.03-.105.107-.325.139a1.249,1.249,0,0,1-.822-.178,1.052,1.052,0,0,1-.466-.642c-.043-.2,0-.324.031-.326" transform="translate(-382.473 -91.907)" fill="#263238"/>
            <path id="Trazado_182153" data-name="Trazado 182153" d="M563.561,123.081c-.03.126-.488.121-1.01.245s-.933.316-1.017.216c-.037-.048.023-.17.182-.307a1.834,1.834,0,0,1,1.544-.351c.2.054.313.138.3.2" transform="translate(-377.104 -82.494)" fill="#263238"/>
            <path id="Trazado_182154" data-name="Trazado 182154" d="M576.874,120.725c-.067.11-.391.042-.766.08s-.682.148-.768.051c-.038-.048,0-.154.126-.266a1.131,1.131,0,0,1,1.236-.106c.145.088.2.187.172.24" transform="translate(-386.374 -80.823)" fill="#263238"/>
            <path id="Trazado_182155" data-name="Trazado 182155" d="M558.433,106.71a5.421,5.421,0,0,1-3.909,4.214l.171-.736a7.676,7.676,0,0,1-4.29,3.547,5.319,5.319,0,0,1,1.228-6.531c1.871-1.542,4.9-1.907,6.8-.4" transform="translate(-369.216 -71.082)" fill="#263238"/>
            <path id="Trazado_182156" data-name="Trazado 182156" d="M550.428,123.277a3.729,3.729,0,0,0,.016,2.825,7.139,7.139,0,0,1,.558,2.825c-.1.893-.609,1.7-.722,2.592-.19,1.5.756,2.892,1.118,4.363a5.886,5.886,0,0,1-1.47,5.405.723.723,0,0,1-.513.281.535.535,0,0,1-.449-.46,2.306,2.306,0,0,1,.035-.684c.242-2.154-1.825-3.938-2.076-6.091-.163-1.4.461-2.765.586-4.167.157-1.765-.478-3.5-.651-5.263a4.022,4.022,0,0,1,.15-1.8,1.891,1.891,0,0,1,1.272-1.216,1.262,1.262,0,0,1,1.482.768" transform="translate(-367.234 -81.839)" fill="#263238"/>
            <path id="Trazado_182157" data-name="Trazado 182157" d="M549.8,210.437a5.372,5.372,0,0,1-.562.027A3.077,3.077,0,0,0,547,211.756a5.258,5.258,0,0,1-.3.473,1.177,1.177,0,0,1,.2-.538,2.779,2.779,0,0,1,2.329-1.348,1.174,1.174,0,0,1,.567.093" transform="translate(-367.147 -141.261)" fill="#263238"/>
            <path id="Trazado_182158" data-name="Trazado 182158" d="M553.717,189.168c.047,0,.11,1.568.141,3.5s.017,3.505-.03,3.506-.111-1.568-.141-3.5-.017-3.505.03-3.506" transform="translate(-371.831 -127.04)" fill="#263238"/>
            <path id="Trazado_182159" data-name="Trazado 182159" d="M593.333,182.562c-.029,0-.057-.416-.177-1.077a11.233,11.233,0,0,0-2.076-4.762c-.4-.538-.69-.843-.669-.863s.088.06.224.192a6.808,6.808,0,0,1,.54.6,9.814,9.814,0,0,1,2.1,4.817,6.76,6.76,0,0,1,.069.8.985.985,0,0,1-.011.3" transform="translate(-396.504 -118.102)" fill="#263238"/>
            <path id="Trazado_182160" data-name="Trazado 182160" d="M534.726,180.171a.482.482,0,0,1,.008.105c0,.079,0,.181.009.309.006.283.013.681.023,1.188.025,1.043.061,2.533.105,4.369s.131,4.04.286,6.473q.032.456.064.923l.035.469.064.466a6.079,6.079,0,0,0,.208.929,4.858,4.858,0,0,0,.4.878,3.877,3.877,0,0,0,1.389,1.38,4.542,4.542,0,0,0,1.937.6l.121.006h.01a2.964,2.964,0,0,0,1.472-.282,10.332,10.332,0,0,0,1.327-.726q1.281-.791,2.435-1.626a40.4,40.4,0,0,0,4.051-3.344l-.01.091L546.4,188.95l.059.023c-1.488.368-2.663.693-3.473.9l-.927.234-.24.056a.358.358,0,0,1-.083.014.341.341,0,0,1,.079-.03l.236-.071.92-.262c.805-.221,1.976-.562,3.461-.945l.037-.01.022.033,2.287,3.41.033.049-.043.041a39.618,39.618,0,0,1-4.052,3.374q-1.154.839-2.442,1.638a10.441,10.441,0,0,1-1.348.739,3.121,3.121,0,0,1-1.558.3h.01l-.133-.006a4.7,4.7,0,0,1-2.012-.622,4.042,4.042,0,0,1-1.447-1.441,5.009,5.009,0,0,1-.418-.911,6.182,6.182,0,0,1-.213-.957q-.032-.24-.064-.478t-.034-.47q-.031-.468-.062-.925c-.146-2.438-.207-4.635-.249-6.48s-.052-3.339-.051-4.371c0-.507.007-.905.009-1.189,0-.128.006-.23.009-.309a.475.475,0,0,1,.009-.105" transform="translate(-359.09 -120.998)" fill="#263238"/>
            <path id="Trazado_182161" data-name="Trazado 182161" d="M602.489,216.124c0,.012-.082.022-.231.03a3.874,3.874,0,0,1-.633-.023,5.261,5.261,0,0,1-.924-.186,6.444,6.444,0,0,1-1.067-.441,9.119,9.119,0,0,1-1.711-1.192,3.616,3.616,0,0,1-.612-.608,5.361,5.361,0,0,1,.689.514,11.845,11.845,0,0,0,1.713,1.134,7.318,7.318,0,0,0,1.035.442,6.3,6.3,0,0,0,.894.216c.518.084.848.082.848.112" transform="translate(-401.138 -143.518)" fill="#263238"/>
            <path id="Trazado_182162" data-name="Trazado 182162" d="M608.935,201.776a5.479,5.479,0,0,0-3.252-.824,3.457,3.457,0,0,1,3.252.824" transform="translate(-406.761 -134.87)" fill="#263238"/>
            <path id="Trazado_182163" data-name="Trazado 182163" d="M607.308,199.112c0,.051-.462.045-1,.2s-.927.39-.955.348a2.186,2.186,0,0,1,1.952-.546" transform="translate(-406.54 -133.677)" fill="#263238"/>
            <path id="Trazado_182164" data-name="Trazado 182164" d="M558.187,247.962c-.01.016-.15-.04-.321-.212a1.649,1.649,0,0,1-.318-1.755c.1-.22.211-.323.226-.311s-.049.14-.112.353a1.864,1.864,0,0,0,.3,1.635c.134.177.245.268.229.291" transform="translate(-374.35 -164.994)" fill="#263238"/>
            <path id="Trazado_182165" data-name="Trazado 182165" d="M567.553,249.1c-.009.017-.165-.035-.372-.2a2.062,2.062,0,0,1-.727-1.842c.039-.261.117-.407.136-.4s-.009.163-.015.411a2.392,2.392,0,0,0,.688,1.742c.174.177.305.266.291.289" transform="translate(-380.402 -165.647)" fill="#263238"/>
            <path id="Trazado_182166" data-name="Trazado 182166" d="M577.307,250.165c-.01.017-.15-.037-.329-.2a1.842,1.842,0,0,1-.551-1.706c.053-.234.134-.36.152-.352a2.388,2.388,0,0,0,.728,2.254" transform="translate(-387.089 -166.49)" fill="#263238"/>
            <path id="Trazado_182167" data-name="Trazado 182167" d="M587.279,248.271c-.05,0-.094-.456-.262-.988s-.389-.935-.346-.962a2.535,2.535,0,0,1,.609,1.95" transform="translate(-393.989 -165.422)" fill="#263238"/>
            <path id="Trazado_182168" data-name="Trazado 182168" d="M596.807,243.793a4.717,4.717,0,0,0-.766-2.362,2.453,2.453,0,0,1,.766,2.362" transform="translate(-400.283 -162.137)" fill="#263238"/>
            <path id="Trazado_182169" data-name="Trazado 182169" d="M603.694,239.933c-.052,0-.041-.546-.266-1.163s-.57-1.035-.53-1.068a2.406,2.406,0,0,1,.8,2.231" transform="translate(-404.888 -159.633)" fill="#263238"/>
            <path id="Trazado_182170" data-name="Trazado 182170" d="M609.1,236.1a3.751,3.751,0,0,0-1.058-2.083A2.086,2.086,0,0,1,609.1,236.1" transform="translate(-408.344 -157.161)" fill="#263238"/>
            <g id="Grupo_112861" data-name="Grupo 112861" transform="translate(178.815 68.685)" opacity="0.3">
              <g id="Grupo_112860" data-name="Grupo 112860">
                <g id="Grupo_112859" data-name="Grupo 112859" clip-path="url(#clip-path-11)">
                  <path id="Trazado_182171" data-name="Trazado 182171" d="M547.575,209.5a2.1,2.1,0,0,0-2.892.509,1.041,1.041,0,0,0-.224.584.526.526,0,0,0,.317.5.823.823,0,0,0,.8-.315,3.93,3.93,0,0,1,2.071-1.2" transform="translate(-544.459 -209.134)"/>
                </g>
              </g>
            </g>
            <g id="Grupo_112864" data-name="Grupo 112864" transform="translate(198.856 65.348)" opacity="0.3">
              <g id="Grupo_112863" data-name="Grupo 112863">
                <g id="Grupo_112862" data-name="Grupo 112862" clip-path="url(#clip-path-12)">
                  <path id="Trazado_182172" data-name="Trazado 182172" d="M605.54,199.712a9.759,9.759,0,0,1,2.618.4.617.617,0,0,0,.462-.068.392.392,0,0,0,.139-.337.6.6,0,0,0-.152-.341,1.424,1.424,0,0,0-1.085-.388,4.445,4.445,0,0,0-1.209.147,1.267,1.267,0,0,0-.832.531" transform="translate(-605.481 -198.973)"/>
                </g>
              </g>
            </g>
            <path id="Trazado_182173" data-name="Trazado 182173" d="M534.78,183.455a1.273,1.273,0,0,0,.365.684.5.5,0,0,0,.654.067c.112-.1.169-.271.313-.318.183-.059.368.129.559.1.292-.041.35-.523.642-.567s.494.366.766.291.239-.492.471-.633c.2-.124.458.04.627.208s.375.366.607.31c.386-.094.392-.781.786-.831.279-.036.549.306.8.176.118-.062.166-.205.264-.3.185-.172.478-.11.725-.054s.563.065.69-.154a4.48,4.48,0,0,0-1.878-.315,1.02,1.02,0,0,1-.651-.1c-.125-.089-.225-.249-.378-.243-.137,0-.23.144-.36.19-.207.074-.417-.11-.523-.3a1.424,1.424,0,0,0-.358-.544.648.648,0,0,0-.841.229,1.884,1.884,0,0,0-.26.918c-.343-.108-.335-.714-.688-.777-.222-.039-.4.18-.493.387s-.172.448-.377.542l-.487-.8a.986.986,0,0,1-.971.836" transform="translate(-359.144 -121.588)" fill="#fff"/>
            <path id="Trazado_182174" data-name="Trazado 182174" d="M575.865,169.024l.289-.561a.64.64,0,0,0,1.027-.192c.085-.233.033-.525.206-.7a.5.5,0,0,1,.6-.031,1.458,1.458,0,0,1,.426.48,1.62,1.62,0,0,1,.345-.63.553.553,0,0,1,.661-.115c.131.086.232.255.388.241.294-.026.186-.574.452-.7.245-.118.521.249.772.146.207-.084.208-.414.41-.511.3-.145.578.379.9.307.157-.034.249-.194.384-.28a.611.611,0,0,1,.693.092,1.793,1.793,0,0,1,.42.612,1.293,1.293,0,0,1,.173.525.442.442,0,0,1-.269.444c-.353.111-.684-.4-1.037-.284-.264.086-.355.48-.631.513s-.459-.348-.742-.383c-.342-.043-.507.4-.762.63a.777.777,0,0,1-1.161-.21l-.518.32a.657.657,0,0,0-.981.383c.033-.165-.176-.294-.34-.253a.76.76,0,0,0-.379.318.76.76,0,0,1-.38.318c-.257.065-.529-.149-.782-.069-.271.086-.426.48-.7.426-.235-.047-.266-.41-.1-.58a1.013,1.013,0,0,1,.672-.212" transform="translate(-386.239 -111.752)" fill="#fff"/>
            <path id="Trazado_182175" data-name="Trazado 182175" d="M560.74,195.879a.44.44,0,0,0-.794-.275c-.1.129-.133.319-.282.378-.255.1-.505-.3-.764-.207-.231.082-.216.475-.448.555-.175.061-.342-.107-.434-.268s-.188-.354-.37-.389c-.231-.044-.41.2-.5.415s-.176.478-.4.549c-.3.1-.561-.222-.718-.5s-.417-.592-.718-.5a.708.708,0,0,0-.351.367l-.87,1.533.018,1.7c.4.015.469-.391.5-.793a.763.763,0,0,0,.893.289,2.879,2.879,0,0,0,.861-.531,1.537,1.537,0,0,1,.921-.386c.242.006.5.111.717,0,.238-.124.285-.44.447-.654a1.188,1.188,0,0,1,.872-.377,3.087,3.087,0,0,0,.964-.146.689.689,0,0,0,.449-.771" transform="translate(-372.116 -131.244)" fill="#fff"/>
            <path id="Trazado_182176" data-name="Trazado 182176" d="M604.987,191.769a2.1,2.1,0,0,0-.052-.589c-.017-.2.059-.438.252-.482a.475.475,0,0,1,.415.191.819.819,0,0,0,.375.285c.145-.165.012-.436.1-.636a.418.418,0,0,1,.558-.144,1.217,1.217,0,0,1,.437.461c.065-.218.384-.26.57-.13a1.094,1.094,0,0,1,.346.574.372.372,0,0,1,.018.291.322.322,0,0,1-.209.136,1.226,1.226,0,0,1-.8-.05.474.474,0,0,0-.287-.066c-.2.05-.221.358-.411.431-.126.048-.273-.03-.4.014s-.189.2-.309.26a.355.355,0,0,1-.4-.1,1.045,1.045,0,0,1-.2-.392l.042-.028" transform="translate(-406.257 -127.832)" fill="#fff"/>
            <path id="Trazado_182177" data-name="Trazado 182177" d="M605.121,212.579c-.033.175.2.287.374.26a2,2,0,0,1,.521-.106,1.39,1.39,0,0,1,.387.163.944.944,0,0,0,1-.157,1.017,1.017,0,0,0,.115.509.35.35,0,0,0,.454.142.709.709,0,0,0,.2-.287c.055-.1.158-.2.272-.181s.158.134.227.215a.671.671,0,0,0,.975-.1,1.943,1.943,0,0,0,.334-1.049c.019-.163.022-.36-.114-.45a.306.306,0,0,0-.376.079.892.892,0,0,0-.172.377.736.736,0,0,0-.625-.906.664.664,0,0,0-.634.854,1.28,1.28,0,0,0-.162-.44.434.434,0,0,0-.4-.206c-.245.035-.357.318-.415.558s-.151.525-.391.585c-.3.076-.532-.268-.811-.41a.69.69,0,0,0-.715.065Z" transform="translate(-406.381 -141.757)" fill="#fff"/>
            <path id="Trazado_182178" data-name="Trazado 182178" d="M553.776,233.787s-.419,1.474-.438,1.474c0,0,.433-.257.617-.194s.362.2.551.156c.3-.075.363-.554.667-.606a.539.539,0,0,1,.373.125.737.737,0,0,0,.362.166c.134.006.282-.112.248-.243a.7.7,0,0,0,.8.516,2.582,2.582,0,0,0,.96-.423,1.432,1.432,0,0,1,1-.253,3.959,3.959,0,0,1,.612.275.583.583,0,0,0,.631-.054c.093-.094.133-.238.245-.311a.452.452,0,0,1,.469.06,1.143,1.143,0,0,0,.44.225.629.629,0,0,0,.583-.4c.111-.226.151-.481.265-.706a.619.619,0,0,1,.59-.386c.124.019.251.1.367.049.237-.1.1-.527.311-.664a.462.462,0,0,1,.375.014,2.194,2.194,0,0,0,1.623-.151,1.107,1.107,0,0,0-.816-.475,3.269,3.269,0,0,0-.971.068,1.646,1.646,0,0,0-.8.289c-.1.087-.2.208-.338.209-.237,0-.38-.366-.61-.311-.208.05-.2.377-.375.5s-.412-.035-.575-.178-.415-.282-.576-.136-.119.481-.327.5-.235-.306-.382-.459a.4.4,0,0,0-.589.126,1.161,1.161,0,0,0-.105.674,1.639,1.639,0,0,0-.588-.667.565.565,0,0,0-.774.2c-.033.082-.043.181-.112.238a.252.252,0,0,1-.332-.078c-.081-.1-.122-.223-.2-.32a.48.48,0,0,0-.8.506,1.263,1.263,0,0,0-2.2.558Z" transform="translate(-371.607 -155.782)" fill="#fff"/>
            <path id="Trazado_182179" data-name="Trazado 182179" d="M537.214,222.159c.626.286,1.216.587,1.619.029a.928.928,0,0,0,1.663-.025c.144-.3.149-.712.439-.879.344-.2.748.122,1.139.194a1.546,1.546,0,0,0,1.287-.556,4.683,4.683,0,0,1,1.081-.969c.387-.2.946-.344.945-.777,0-.392-.536-.576-.9-.433a4.315,4.315,0,0,0-.933.709.878.878,0,0,1-1.078.1c-.164-.151-.27-.421-.493-.417-.244,0-.323.327-.336.571s-.115.566-.358.546c-.262-.022-.291-.4-.467-.6-.262-.289-.793-.047-.909.326a1.691,1.691,0,0,0,.193,1.129l-1.289-1.683-.363,1.257a2.5,2.5,0,0,0-.948-.838.766.766,0,0,0-1.037.305c-.089.112.372,1.833.746,2" transform="translate(-360.27 -146.869)" fill="#fff"/>
            <path id="Trazado_182180" data-name="Trazado 182180" d="M601.2,225.334c-.093.1.01.244.034.379a1.129,1.129,0,0,1,.043.406c-.025.135-.154.263-.286.227-.072-.02-.124-.082-.193-.112-.171-.076-.352.067-.529.129-.576.2-1.207-.467-1.773-.236-.317.129-.551.524-.886.458a.48.48,0,0,1-.321-.567,1.074,1.074,0,0,1,.4-.583,3.517,3.517,0,0,0,.538-.481c.115-.147.232-.344.418-.333.247.014.4.4.635.321a.313.313,0,0,0,.157-.327,1.067,1.067,0,0,1,0-.387.456.456,0,0,1,.66-.17,1.33,1.33,0,0,1,.534.565Z" transform="translate(-401.114 -150.422)" fill="#fff"/>
            <path id="Trazado_182181" data-name="Trazado 182181" d="M225.064,65.5H84.459a4.389,4.389,0,0,0-4.389,4.389V169.2a4.389,4.389,0,0,0,4.389,4.389h53.964s3.433,10.615-7.209,16.107h50.459s-12.014-4.119-8.925-16.107h52.316a4.389,4.389,0,0,0,4.389-4.389V69.891a4.389,4.389,0,0,0-4.389-4.389" transform="translate(-53.773 -43.989)" fill="#455a64"/>
            <path id="Trazado_182182" data-name="Trazado 182182" d="M301.542,361.1a2.709,2.709,0,0,1-3.815,3.815.978.978,0,0,1-.235-.236,2.709,2.709,0,0,1,3.815-3.814.964.964,0,0,1,.235.235" transform="translate(-199.383 -241.943)" fill="#263238"/>
            <path id="Trazado_182183" data-name="Trazado 182183" d="M231.983,159.144H87.442V74.227a3.185,3.185,0,0,1,3.185-3.185H228.8a3.185,3.185,0,0,1,3.185,3.185Z" transform="translate(-58.724 -47.71)" fill="#e0e0e0"/>
            <path id="Trazado_182184" data-name="Trazado 182184" d="M262.26,394.487c0,.047-20.008.084-44.684.084s-44.688-.038-44.688-.084,20-.084,44.688-.084,44.684.038,44.684.084" transform="translate(-116.107 -264.871)" fill="#263238"/>
            <rect id="Rectángulo_38484" data-name="Rectángulo 38484" width="111.787" height="82.411" transform="translate(44.466 26.178)" fill="#fff"/>
            <path id="Trazado_182185" data-name="Trazado 182185" d="M247,161.945H134.889V79.206H247Zm-111.787-.328H246.676V79.534H135.218Z" transform="translate(-90.588 -53.193)" fill="#263238"/>
            <path id="Trazado_182186" data-name="Trazado 182186" d="M148.225,89.472a.785.785,0,1,1-.785-.785.785.785,0,0,1,.785.785" transform="translate(-98.489 -59.56)" fill="#263238"/>
            <path id="Trazado_182187" data-name="Trazado 182187" d="M155.353,89.472a.785.785,0,1,1-.785-.785.785.785,0,0,1,.785.785" transform="translate(-103.276 -59.56)" fill="#263238"/>
            <path id="Trazado_182188" data-name="Trazado 182188" d="M162.132,89.472a.785.785,0,1,1-.785-.785.785.785,0,0,1,.785.785" transform="translate(-107.829 -59.56)" fill="#263238"/>
            <path id="Trazado_182189" data-name="Trazado 182189" d="M298.336,102.728l-6.1-2.246L286.2,102.7c-.771.373-1.447.6-1.447,1.333V107.7a14.129,14.129,0,0,0,1.989,7.3,12.494,12.494,0,0,0,5.555,5.032,10.913,10.913,0,0,0,5.436-4.889,14.127,14.127,0,0,0,1.989-7.3v-3.3a1.721,1.721,0,0,0-1.388-1.816" transform="translate(-191.234 -67.481)" fill="#bf98df"/>
            <g id="Grupo_112867" data-name="Grupo 112867" transform="translate(93.521 33.001)" opacity="0.8">
              <g id="Grupo_112866" data-name="Grupo 112866">
                <g id="Grupo_112865" data-name="Grupo 112865" clip-path="url(#clip-path-13)">
                  <path id="Trazado_182190" data-name="Trazado 182190" d="M298.336,102.728l-6.1-2.246L286.2,102.7c-.771.373-1.447.6-1.447,1.333V107.7a14.129,14.129,0,0,0,1.989,7.3,12.494,12.494,0,0,0,5.555,5.032,10.913,10.913,0,0,0,5.436-4.889,14.127,14.127,0,0,0,1.989-7.3v-3.3a1.721,1.721,0,0,0-1.388-1.816" transform="translate(-284.755 -100.482)" fill="#fff"/>
                </g>
              </g>
            </g>
            <path id="Trazado_182191" data-name="Trazado 182191" d="M302.837,112.13h-1.356v-7.379a3.15,3.15,0,1,0-6.3,0v7.379h-1.356v-7.379a4.506,4.506,0,1,1,9.011,0Z" transform="translate(-197.326 -67.323)" fill="#bf98df"/>
            <g id="Grupo_112870" data-name="Grupo 112870" transform="translate(96.5 32.923)" opacity="0.4">
              <g id="Grupo_112869" data-name="Grupo 112869">
                <g id="Grupo_112868" data-name="Grupo 112868" clip-path="url(#clip-path-14)">
                  <path id="Trazado_182192" data-name="Trazado 182192" d="M302.837,112.13h-1.356v-7.379a3.15,3.15,0,1,0-6.3,0v7.379h-1.356v-7.379a4.506,4.506,0,1,1,9.011,0Z" transform="translate(-293.826 -100.246)"/>
                </g>
              </g>
            </g>
            <path id="Trazado_182193" data-name="Trazado 182193" d="M299.292,134.229h-8.327a1.909,1.909,0,0,1-1.908-1.908v-3.974a1.909,1.909,0,0,1,1.908-1.908h8.327a1.909,1.909,0,0,1,1.909,1.908v3.974a1.909,1.909,0,0,1-1.909,1.908" transform="translate(-194.123 -84.912)" fill="#bf98df"/>
            <g id="Grupo_112873" data-name="Grupo 112873" transform="translate(99.991 43.391)" opacity="0.5">
              <g id="Grupo_112872" data-name="Grupo 112872">
                <g id="Grupo_112871" data-name="Grupo 112871" clip-path="url(#clip-path-15)">
                  <path id="Trazado_182194" data-name="Trazado 182194" d="M306.484,133.133a1.015,1.015,0,1,0-1.292.972v1.518h.554V134.1a1.011,1.011,0,0,0,.738-.972" transform="translate(-304.454 -132.118)"/>
                </g>
              </g>
            </g>
            <path id="Trazado_182195" data-name="Trazado 182195" d="M290.926,136.043c-.028,0-.051-1.3-.051-2.9s.023-2.9.051-2.9.051,1.3.051,2.9-.023,2.9-.051,2.9" transform="translate(-195.344 -87.465)" fill="#dedede"/>
            <path id="Trazado_182196" data-name="Trazado 182196" d="M303.762,133.852s-.048-.016-.119-.068a1.238,1.238,0,0,1-.262-.266,1.423,1.423,0,0,1,.505-2.135,1.251,1.251,0,0,1,.353-.121.312.312,0,0,1,.137-.007,3.17,3.17,0,0,0-.456.19,1.407,1.407,0,0,0-.481,2.031,3.171,3.171,0,0,0,.322.375" transform="translate(-203.551 -88.145)" fill="#dedede"/>
            <path id="Trazado_182197" data-name="Trazado 182197" d="M276.425,141.5a.468.468,0,1,1-.661,0,.468.468,0,0,1,.661,0" transform="translate(-185.104 -94.936)" fill="#bf98df"/>
            <path id="Trazado_182198" data-name="Trazado 182198" d="M339.34,104.529a.468.468,0,1,1-.468-.468.468.468,0,0,1,.468.468" transform="translate(-227.264 -69.885)" fill="#bf98df"/>
            <path id="Trazado_182199" data-name="Trazado 182199" d="M285.014,155.839a.119.119,0,1,1-.119-.119.119.119,0,0,1,.119.119" transform="translate(-191.248 -104.577)" fill="#bf98df"/>
            <path id="Trazado_182200" data-name="Trazado 182200" d="M285.014,115.572a.119.119,0,1,1-.119-.119.119.119,0,0,1,.119.119" transform="translate(-191.248 -77.535)" fill="#bf98df"/>
            <path id="Trazado_182201" data-name="Trazado 182201" d="M341.491,134.968a.119.119,0,1,1-.119-.119.119.119,0,0,1,.119.119" transform="translate(-229.176 -90.561)" fill="#bf98df"/>
            <path id="Trazado_182202" data-name="Trazado 182202" d="M346.52,118.1a.119.119,0,1,1-.119-.119.119.119,0,0,1,.119.119" transform="translate(-232.554 -79.23)" fill="#bf98df"/>
            <path id="Trazado_182203" data-name="Trazado 182203" d="M260.5,191.388c0,.047-19.312.085-43.13.085s-43.134-.038-43.134-.085,19.308-.085,43.134-.085,43.13.038,43.13.085" transform="translate(-117.015 -128.474)" fill="#263238"/>
            <path id="Trazado_182204" data-name="Trazado 182204" d="M280.093,204.9a.694.694,0,0,1-.126.009l-.369.009-1.421.016-5.226.027-17.239.025-17.242-.025-5.225-.027-1.421-.016-.369-.009a.063.063,0,1,1,0-.018l.369-.009,1.421-.016,5.225-.027,17.242-.025,17.239.025,5.226.027,1.421.016.369.009a.688.688,0,0,1,.126.009" transform="translate(-155.354 -137.549)" fill="#263238"/>
            <path id="Trazado_182205" data-name="Trazado 182205" d="M226.39,228.827h-4.682a2.081,2.081,0,0,1-2.081-2.081v-7.74a2.081,2.081,0,0,1,2.081-2.081h4.682a2.081,2.081,0,0,1,2.081,2.081v7.74a2.081,2.081,0,0,1-2.081,2.081" transform="translate(-147.496 -145.681)" fill="#e0e0e0"/>
            <path id="Trazado_182206" data-name="Trazado 182206" d="M262.628,228.827h-4.682a2.081,2.081,0,0,1-2.081-2.081v-7.74a2.081,2.081,0,0,1,2.081-2.081h4.682a2.081,2.081,0,0,1,2.081,2.081v7.74a2.081,2.081,0,0,1-2.081,2.081" transform="translate(-171.832 -145.681)" fill="#e0e0e0"/>
            <path id="Trazado_182207" data-name="Trazado 182207" d="M298.867,228.827h-4.682a2.081,2.081,0,0,1-2.081-2.081v-7.74a2.081,2.081,0,0,1,2.081-2.081h4.682a2.081,2.081,0,0,1,2.081,2.081v7.74a2.081,2.081,0,0,1-2.081,2.081" transform="translate(-196.169 -145.681)" fill="#e0e0e0"/>
            <path id="Trazado_182208" data-name="Trazado 182208" d="M335.105,228.827h-4.682a2.081,2.081,0,0,1-2.081-2.081v-7.74a2.081,2.081,0,0,1,2.081-2.081h4.682a2.081,2.081,0,0,1,2.081,2.081v7.74a2.081,2.081,0,0,1-2.081,2.081" transform="translate(-220.506 -145.681)" fill="#e0e0e0"/>
            <path id="Trazado_182209" data-name="Trazado 182209" d="M371.344,228.827h-4.682a2.081,2.081,0,0,1-2.081-2.081v-7.74a2.081,2.081,0,0,1,2.081-2.081h4.682a2.081,2.081,0,0,1,2.081,2.081v7.74a2.081,2.081,0,0,1-2.081,2.081" transform="translate(-244.843 -145.681)" fill="#e0e0e0"/>
            <path id="Trazado_182210" data-name="Trazado 182210" d="M231.815,230.462v.338h-3.532v-.264l2.173-2.159c.61-.609.727-.969.727-1.358,0-.646-.448-1.05-1.3-1.05a1.829,1.829,0,0,0-1.476.595l-.264-.235a2.263,2.263,0,0,1,1.769-.7c1.006,0,1.652.521,1.652,1.358a2.116,2.116,0,0,1-.837,1.593l-1.894,1.887Z" transform="translate(-153.215 -151.523)"/>
            <path id="Trazado_182211" data-name="Trazado 182211" d="M262.756,228.229c0-1.608.83-2.606,2.012-2.606s2.012,1,2.012,2.606-.83,2.606-2.012,2.606-2.012-1-2.012-2.606m3.649,0c0-1.431-.668-2.261-1.637-2.261s-1.637.83-1.637,2.261.668,2.262,1.637,2.262,1.637-.83,1.637-2.262" transform="translate(-176.46 -151.522)"/>
            <path id="Trazado_182212" data-name="Trazado 182212" d="M304.287,225.735V226l-2.21,4.875h-.411l2.188-4.8h-2.885v.984H300.6v-1.321Z" transform="translate(-201.876 -151.598)"/>
            <path id="Trazado_182213" data-name="Trazado 182213" d="M339.053,229.45h-1.079v1.424h-.367V229.45h-2.929v-.272l2.79-3.443h.419l-2.738,3.384h2.467v-1.255h.36v1.255h1.079Z" transform="translate(-224.761 -151.598)"/>
            <path id="Trazado_182214" data-name="Trazado 182214" d="M375.462,245.538a48.386,48.386,0,0,1-5.747,0,48.395,48.395,0,0,1,5.747,0" transform="translate(-248.291 -164.84)" fill="#ff4f5b"/>
            <path id="Trazado_182215" data-name="Trazado 182215" d="M281.827,283.522H258.437a5.3,5.3,0,0,1-5.3-5.3V277.9a5.3,5.3,0,0,1,5.3-5.3h23.391a5.3,5.3,0,0,1,5.3,5.3v.316a5.3,5.3,0,0,1-5.3,5.3" transform="translate(-169.997 -183.068)" fill="#a7f"/>
            <rect id="Rectángulo_38488" data-name="Rectángulo 38488" width="24.499" height="3.366" transform="translate(11.307 125.049)" fill="#263238"/>
            <path id="Trazado_182216" data-name="Trazado 182216" d="M58.884,384.074H34.3v-3.45H58.884Zm-24.5-.084H58.8v-3.283H34.385Z" transform="translate(-23.036 -255.617)" fill="#263238"/>
            <path id="Trazado_182217" data-name="Trazado 182217" d="M41.345,387.59l3.526,17.4H57.919l3.409-16.276Z" transform="translate(-27.766 -260.295)" fill="#263238"/>
            <path id="Trazado_182218" data-name="Trazado 182218" d="M41.345,435.55l1.881,2.586H59.085l2.243-2.586Z" transform="translate(-27.766 -292.504)" fill="#455a64"/>
            <path id="Trazado_182219" data-name="Trazado 182219" d="M68.615,315.522c-.048,0-.11-8.06-.138-18s-.011-18,.037-18,.11,8.058.138,18,.011,18-.037,18" transform="translate(-45.978 -187.719)" fill="#263238"/>
            <path id="Trazado_182220" data-name="Trazado 182220" d="M80.929,327.726a.844.844,0,0,1-.066.188l-.219.522-.16.376-.163.457-.189.525c-.066.186-.117.389-.181.6a24.364,24.364,0,0,0-.685,3,36.414,36.414,0,0,0-.379,3.751,50.574,50.574,0,0,0,.193,6.852c.079.875.158,1.581.216,2.069.025.229.046.415.062.563a.86.86,0,0,1,.01.2.86.86,0,0,1-.045-.193l-.094-.559c-.079-.486-.177-1.191-.272-2.066a45.117,45.117,0,0,1-.245-6.872,34.12,34.12,0,0,1,.4-3.769,22.685,22.685,0,0,1,.726-3.009c.068-.21.124-.412.194-.6l.2-.524.177-.455c.06-.137.122-.26.175-.371l.249-.51a.839.839,0,0,1,.1-.172" transform="translate(-52.835 -220.092)" fill="#263238"/>
            <path id="Trazado_182221" data-name="Trazado 182221" d="M77.131,307.878a1.649,1.649,0,0,1-.078.266l-.255.749-.187.54-.2.651c-.143.466-.31,1-.457,1.593l-.246.932-.23,1.019c-.171.7-.295,1.463-.453,2.26-.27,1.6-.508,3.37-.672,5.237s-.222,3.653-.246,5.277c0,1.624.016,3.087.082,4.314.022.614.061,1.169.093,1.656s.059.907.09,1.249.045.593.06.789a1.583,1.583,0,0,1,.009.277,1.674,1.674,0,0,1-.044-.273l-.093-.787c-.041-.342-.082-.761-.12-1.248s-.089-1.042-.119-1.656c-.082-1.228-.116-2.694-.12-4.322.015-1.628.078-3.418.233-5.291s.408-3.647.687-5.251c.163-.8.292-1.561.47-2.263l.24-1.02.257-.932c.156-.6.33-1.125.483-1.59l.211-.648.2-.536.286-.739a1.613,1.613,0,0,1,.111-.253" transform="translate(-49.663 -206.763)" fill="#263238"/>
            <path id="Trazado_182222" data-name="Trazado 182222" d="M54.662,319.176a.394.394,0,0,1-.014-.094c-.006-.072-.014-.164-.023-.277-.017-.257-.041-.614-.072-1.067l-.246-3.926c-.213-3.314-.52-7.893-1.078-12.928-.285-2.518-.615-4.909-.959-7.076-.183-1.082-.348-2.112-.536-3.069-.172-.961-.358-1.85-.529-2.663s-.341-1.544-.485-2.187-.279-1.2-.394-1.645l-.255-1.038-.062-.271a.381.381,0,0,1-.015-.094.392.392,0,0,1,.033.089l.079.267.286,1.031c.125.447.272,1,.423,1.639s.342,1.37.511,2.183.372,1.7.55,2.662c.194.958.366,1.988.553,3.07.352,2.169.688,4.563.973,7.083.558,5.041.846,9.624,1.028,12.94.09,1.659.153,3,.19,3.93.016.454.03.812.039,1.069,0,.114,0,.206.006.278a.393.393,0,0,1,0,.1" transform="translate(-33.574 -189.947)" fill="#263238"/>
            <path id="Trazado_182223" data-name="Trazado 182223" d="M52.56,287.2a2.428,2.428,0,0,0-2.407-2.015,3.79,3.79,0,0,0-2.917,1.583,9.13,9.13,0,0,0-1.4,3.117,21.18,21.18,0,0,0-.864,8.3,12.554,12.554,0,0,0,3.452,7.479,1.413,1.413,0,0,0,1.189.544,1.432,1.432,0,0,0,.627-.388A18.565,18.565,0,0,0,56.261,291.7a5.732,5.732,0,0,0-.755-3.037c-.585-.881-1.949-1.815-2.946-1.462" transform="translate(-30.123 -191.521)" fill="#a7f"/>
            <path id="Trazado_182224" data-name="Trazado 182224" d="M29.476,254.926l-1.615,2.925c-.038.068-.087.144-.165.151s-.148-.073-.195-.145l-4.27-6.553.984-.557Z" transform="translate(-15.601 -168.395)" fill="#7142c1"/>
            <path id="Trazado_182225" data-name="Trazado 182225" d="M38.083,253.719l-14.565-8.595a.68.68,0,0,1-.355-.358c-.058-.215.1-.423.259-.584a10.039,10.039,0,0,1,7.784-3.058,8.893,8.893,0,0,1,7.037,4.377,8.023,8.023,0,0,1-.16,8.218" transform="translate(-15.548 -161.918)" fill="#a7f"/>
            <path id="Trazado_182226" data-name="Trazado 182226" d="M30.659,244.89a.8.8,0,0,1,.191-.024c.125-.007.311-.029.55-.027a10.937,10.937,0,0,1,2.021.161,11.814,11.814,0,0,1,9.428,8.531,10.972,10.972,0,0,1,.361,1.995,4.105,4.105,0,0,1,.022.425.721.721,0,0,1-.112.318,2.45,2.45,0,0,0,.022-.735,12.4,12.4,0,0,0-.412-1.968,11.9,11.9,0,0,0-9.331-8.443,12.407,12.407,0,0,0-2-.214c-.476-.011-.74,0-.741-.018" transform="translate(-20.59 -164.426)" fill="#263238"/>
            <path id="Trazado_182227" data-name="Trazado 182227" d="M51.892,261.45a3.527,3.527,0,0,1-.736.335c-.464.183-1.112.417-1.838.647s-1.39.413-1.875.532a3.529,3.529,0,0,1-.794.152,3.951,3.951,0,0,1,.761-.271l1.855-.579,1.849-.6a3.962,3.962,0,0,1,.778-.218" transform="translate(-31.328 -175.58)" fill="#263238"/>
            <path id="Trazado_182228" data-name="Trazado 182228" d="M55.572,242.7a10.2,10.2,0,0,1,.082,3.256,30.492,30.492,0,0,1-.082-3.256" transform="translate(-37.301 -162.99)" fill="#263238"/>
            <path id="Trazado_182229" data-name="Trazado 182229" d="M23.88,249.184a6.543,6.543,0,0,1,1.058-.372c.662-.2,1.583-.462,2.61-.71s1.966-.437,2.648-.557a6.532,6.532,0,0,1,1.111-.15,7.777,7.777,0,0,1-1.087.271c-.675.151-1.606.359-2.631.606s-1.949.486-2.618.659a7.817,7.817,0,0,1-1.092.254" transform="translate(-16.037 -166.14)" fill="#263238"/>
            <path id="Trazado_182230" data-name="Trazado 182230" d="M16.392,281.554a5.976,5.976,0,0,0-4.149-1.075,12.676,12.676,0,0,0-4.54,1.172,13.994,13.994,0,0,0-6.232,4.905,8.188,8.188,0,0,0-.88,7.661,1.092,1.092,0,0,0,.5.6,1.187,1.187,0,0,0,.822-.063,45.981,45.981,0,0,0,8.175-3.258,15.425,15.425,0,0,0,6.284-6.006,5.163,5.163,0,0,0,.661-1.993,2.478,2.478,0,0,0-.64-1.947" transform="translate(0 -188.355)" fill="#a7f"/>
            <path id="Trazado_182231" data-name="Trazado 182231" d="M18.389,282.875a1.009,1.009,0,0,1-.2.082l-.585.2-.424.142c-.154.055-.317.124-.5.193-.353.143-.764.286-1.2.5l-.685.312c-.237.11-.475.244-.726.372-.506.249-1.018.567-1.564.888a27.081,27.081,0,0,0-3.308,2.453,27.1,27.1,0,0,0-2.855,2.969c-.389.5-.77.968-1.081,1.439-.159.233-.323.451-.462.672l-.4.64c-.263.4-.457.791-.644,1.123-.091.168-.18.321-.255.466l-.194.4-.274.555a1,1,0,0,1-.107.189,1.032,1.032,0,0,1,.075-.2l.245-.57.181-.41c.07-.148.155-.3.242-.475.18-.338.367-.733.624-1.141l.389-.649c.137-.225.3-.446.456-.682.308-.477.686-.951,1.075-1.457a26.082,26.082,0,0,1,2.865-3,26.062,26.062,0,0,1,3.338-2.459c.551-.32,1.07-.635,1.582-.88.254-.126.494-.259.734-.366l.693-.3c.437-.2.853-.339,1.211-.474.18-.064.346-.129.5-.18l.43-.127.6-.17a.989.989,0,0,1,.211-.048" transform="translate(-1.973 -189.97)" fill="#263238"/>
            <path id="Trazado_182232" data-name="Trazado 182232" d="M7.623,299a29.419,29.419,0,0,1-3.047.982,29.373,29.373,0,0,1-3.1.814,29.419,29.419,0,0,1,3.047-.982,29.4,29.4,0,0,1,3.1-.814" transform="translate(-0.994 -200.8)" fill="#263238"/>
            <path id="Trazado_182233" data-name="Trazado 182233" d="M19.642,306.239a4.876,4.876,0,0,1-.067-.949c-.016-.587-.019-1.4.006-2.294s.073-1.706.122-2.291a4.863,4.863,0,0,1,.12-.944,5.485,5.485,0,0,1,0,.951c-.02.643-.044,1.425-.071,2.289s-.041,1.646-.057,2.289a5.414,5.414,0,0,1-.056.949" transform="translate(-13.138 -201.311)" fill="#263238"/>
            <path id="Trazado_182234" data-name="Trazado 182234" d="M36.271,295.467c-.048,0-.2-1.645-.342-3.682s-.216-3.692-.168-3.695.2,1.645.342,3.683.216,3.691.168,3.694" transform="translate(-24.006 -193.474)" fill="#263238"/>
            <path id="Trazado_182235" data-name="Trazado 182235" d="M15.511,287.541a5.451,5.451,0,0,1,.977-.03c.6,0,1.434.022,2.352.052s1.749.068,2.35.1a5.381,5.381,0,0,1,.973.094,5.414,5.414,0,0,1-.975.029c-.6,0-1.434-.022-2.353-.052s-1.75-.068-2.351-.1a5.416,5.416,0,0,1-.971-.094" transform="translate(-10.417 -193.084)" fill="#263238"/>
            <path id="Trazado_182236" data-name="Trazado 182236" d="M57.476,310.244a.826.826,0,0,1-.021-.195c-.007-.147-.015-.332-.026-.56-.022-.487-.027-1.192-.008-2.063s.075-1.908.18-3.055.278-2.4.513-3.714.531-2.545.829-3.66.616-2.106.909-2.929.543-1.484.735-1.933l.222-.517a.84.84,0,0,1,.088-.176.842.842,0,0,1-.056.189l-.191.528c-.172.456-.408,1.121-.681,1.947s-.574,1.819-.871,2.93-.572,2.346-.813,3.65-.4,2.557-.524,3.7-.185,2.176-.216,3.044S57.5,309,57.5,309.488c0,.228-.005.414-.007.56a.841.841,0,0,1-.014.2" transform="translate(-38.555 -195.725)" fill="#263238"/>
            <path id="Trazado_182237" data-name="Trazado 182237" d="M50.923,319.651a3.992,3.992,0,0,1-.581.638c-.377.376-.912.88-1.522,1.415s-1.181,1-1.6,1.324a3.99,3.99,0,0,1-.708.492,4.49,4.49,0,0,1,.63-.588l1.566-1.36,1.553-1.374a4.491,4.491,0,0,1,.665-.548" transform="translate(-31.233 -214.668)" fill="#263238"/>
            <path id="Trazado_182238" data-name="Trazado 182238" d="M65.57,318.863a6.854,6.854,0,0,1-.619-.857l-1.439-2.1-1.469-2.08a6.784,6.784,0,0,1-.589-.878,5.937,5.937,0,0,1,.687.8c.4.513.944,1.236,1.514,2.054s1.059,1.576,1.4,2.133a5.914,5.914,0,0,1,.515.924" transform="translate(-41.27 -210.167)" fill="#263238"/>
            <path id="Trazado_182239" data-name="Trazado 182239" d="M52.453,295.4c.026.041-1.506,1.072-3.42,2.3s-3.489,2.2-3.515,2.156,1.5-1.072,3.421-2.3,3.489-2.2,3.514-2.156" transform="translate(-30.569 -198.379)" fill="#263238"/>
            <path id="Trazado_182240" data-name="Trazado 182240" d="M70.558,300.579a28.491,28.491,0,0,1-2.316-2.14,28.515,28.515,0,0,1-2.195-2.265,28.523,28.523,0,0,1,2.316,2.141,28.5,28.5,0,0,1,2.195,2.265" transform="translate(-44.355 -198.901)" fill="#263238"/>
            <path id="Trazado_182241" data-name="Trazado 182241" d="M83.09,289.63l1.315-.108a6.507,6.507,0,0,0,2.655-.813,10.645,10.645,0,0,1,1.237-.621,15.928,15.928,0,0,1,5.188-.624,21.472,21.472,0,0,0,8.254-2.11.8.8,0,0,0,.36-.327c.27-.491-.232-.929-.663-1.2a27.1,27.1,0,0,0-6.981-3.425,9.146,9.146,0,0,0-7.506.912c-2.516,1.732-3.433,5.287-3.858,8.312" transform="translate(-55.801 -188.047)" fill="#a7f"/>
            <path id="Trazado_182242" data-name="Trazado 182242" d="M102.186,287.413a1.289,1.289,0,0,1-.223-.1l-.623-.326c-.541-.284-1.319-.7-2.3-1.175a21.481,21.481,0,0,0-3.563-1.373,11.759,11.759,0,0,0-4.617-.374,7.9,7.9,0,0,0-4.209,1.808,9.365,9.365,0,0,0-2.192,3.079,25.787,25.787,0,0,0-.954,2.4l-.234.663a1.313,1.313,0,0,1-.092.228,1.287,1.287,0,0,1,.058-.239l.2-.674a21.844,21.844,0,0,1,.906-2.427,9.319,9.319,0,0,1,2.2-3.148,7.985,7.985,0,0,1,4.294-1.86,11.752,11.752,0,0,1,4.683.392,20.7,20.7,0,0,1,3.574,1.417c.98.487,1.75.924,2.281,1.227l.607.355a1.293,1.293,0,0,1,.206.135" transform="translate(-55.859 -190.594)" fill="#263238"/>
            <path id="Trazado_182243" data-name="Trazado 182243" d="M115.937,289.5c-.027.04-1.746-1.072-3.84-2.484s-3.77-2.589-3.743-2.629,1.746,1.072,3.841,2.484,3.769,2.589,3.742,2.629" transform="translate(-72.768 -190.989)" fill="#263238"/>
            <path id="Trazado_182244" data-name="Trazado 182244" d="M120.689,284.092a4.175,4.175,0,0,1-1.252.225,4.231,4.231,0,0,1-1.277-.016,32.708,32.708,0,0,1,2.529-.209" transform="translate(-79.353 -190.78)" fill="#263238"/>
            <path id="Trazado_182245" data-name="Trazado 182245" d="M100.317,281.13a3.341,3.341,0,0,1-.564.881,3.762,3.762,0,0,1-.715.812,3.344,3.344,0,0,1,.564-.881,3.775,3.775,0,0,1,.714-.812" transform="translate(-66.509 -188.799)" fill="#263238"/>
            <path id="Trazado_182246" data-name="Trazado 182246" d="M96.935,295.48a4.556,4.556,0,0,1-.828-.449c-.5-.3-1.168-.743-1.885-1.264s-1.35-1.014-1.8-1.374a5.09,5.09,0,0,1-.714-.612,4.958,4.958,0,0,1,.788.514l1.832,1.331c.715.519,1.372.974,1.85,1.3a5.6,5.6,0,0,1,.761.552" transform="translate(-61.586 -195.952)" fill="#263238"/>
            <path id="Trazado_182247" data-name="Trazado 182247" d="M82.687,325.1a2.779,2.779,0,0,0-3.007,2.159A6.09,6.09,0,0,0,80.456,331a19.092,19.092,0,0,0,5.186,6.785,12.822,12.822,0,0,0,7.929,2.919c-.53-2.462.141-5.035-.155-7.536a9.8,9.8,0,0,0-8.682-8.6c-.8-.086-1.727-.212-2.046.527" transform="translate(-53.463 -217.929)" fill="#a7f"/>
            <path id="Trazado_182248" data-name="Trazado 182248" d="M99.865,341.918a.83.83,0,0,1-.178-.083,3.227,3.227,0,0,1-.469-.315,4.888,4.888,0,0,1-1.238-1.656c-.2-.388-.423-.81-.642-1.276l-.675-1.491a14.486,14.486,0,0,0-.829-1.594,12.483,12.483,0,0,0-1.141-1.551c-.858-1.009-1.78-1.881-2.578-2.714a17.725,17.725,0,0,1-1.966-2.358,8.685,8.685,0,0,1-.961-1.835,5.611,5.611,0,0,1-.168-.538.825.825,0,0,1-.039-.192c.016,0,.087.256.27.705a9.463,9.463,0,0,0,1,1.79,18.685,18.685,0,0,0,1.979,2.316c.8.824,1.728,1.695,2.6,2.713a12.4,12.4,0,0,1,1.154,1.575,14.224,14.224,0,0,1,.83,1.617l.659,1.5c.21.464.428.89.62,1.281a5.064,5.064,0,0,0,1.172,1.661c.366.316.614.433.6.45" transform="translate(-59.757 -219.143)" fill="#263238"/>
            <path id="Trazado_182249" data-name="Trazado 182249" d="M102.366,356.2a3.773,3.773,0,0,1,.115-.844c.1-.517.259-1.225.477-2s.451-1.461.636-1.953a3.756,3.756,0,0,1,.342-.78,4.53,4.53,0,0,1-.226.82c-.155.5-.368,1.192-.585,1.96s-.4,1.469-.524,1.977a4.543,4.543,0,0,1-.235.817" transform="translate(-68.742 -235.468)" fill="#263238"/>
            <path id="Trazado_182250" data-name="Trazado 182250" d="M109.087,346.4a5.185,5.185,0,0,1-.883-.2c-.54-.142-1.286-.334-2.116-.522s-1.587-.332-2.136-.436a5.131,5.131,0,0,1-.885-.2,4.267,4.267,0,0,1,.9.074c.555.073,1.32.2,2.155.388s1.579.4,2.112.573a4.257,4.257,0,0,1,.849.322" transform="translate(-69.216 -231.719)" fill="#263238"/>
            <path id="Trazado_182251" data-name="Trazado 182251" d="M88.2,341.258a5.078,5.078,0,0,1,.136-.977c.11-.6.286-1.422.52-2.321s.484-1.7.681-2.279a5.12,5.12,0,0,1,.359-.919,5.979,5.979,0,0,1-.241.955c-.166.584-.4,1.391-.63,2.287s-.427,1.711-.568,2.3a6.023,6.023,0,0,1-.257.951" transform="translate(-59.228 -224.818)" fill="#263238"/>
            <path id="Trazado_182252" data-name="Trazado 182252" d="M98.379,331.623c-.006.048-1.571-.079-3.5-.283s-3.483-.409-3.478-.457,1.57.078,3.5.283,3.483.409,3.478.457" transform="translate(-61.385 -222.206)" fill="#263238"/>
            <path id="Trazado_182253" data-name="Trazado 182253" d="M58.885,390.78c0,.049-5.5.088-12.289.088s-12.291-.039-12.291-.088,5.5-.087,12.291-.087,12.289.039,12.289.087" transform="translate(-23.038 -262.379)" fill="#455a64"/>
            <path id="Trazado_182254" data-name="Trazado 182254" d="M63.625,412.341c0,.048-3.708.087-8.28.087s-8.281-.039-8.281-.087,3.707-.087,8.281-.087,8.28.039,8.28.087" transform="translate(-31.606 -276.859)" fill="#455a64"/>
            <path id="Trazado_182255" data-name="Trazado 182255" d="M63.777,415.424c0,.048-3.643.087-8.136.087s-8.137-.039-8.137-.087,3.642-.087,8.137-.087,8.136.039,8.136.087" transform="translate(-31.902 -278.929)" fill="#455a64"/>
            <path id="Trazado_182256" data-name="Trazado 182256" d="M62.9,409.8c0,.048-3.835.087-8.565.087s-8.566-.039-8.566-.087,3.834-.087,8.566-.087,8.565.039,8.565.087" transform="translate(-30.739 -275.152)" fill="#455a64"/>
            <path id="Trazado_182257" data-name="Trazado 182257" d="M594.815,88.9l1.923-4.177a10.715,10.715,0,1,1,2.8,2.627l0,0Z" transform="translate(-399.349 -45.45)" fill="#fff"/>
            <path id="Trazado_182258" data-name="Trazado 182258" d="M594.716,88.759l4.712-1.585-.018.069,0,0L599.182,87l.278.179a10.653,10.653,0,0,0,5.263,1.679,9.551,9.551,0,0,0,1.678-.064c.286-.042.577-.075.87-.125l.879-.213a10.689,10.689,0,0,0,6.212-4.8,10.541,10.541,0,0,0,1.427-4.217,10.776,10.776,0,0,0-.525-4.667,10.422,10.422,0,0,0-2.621-4.131,10.608,10.608,0,0,0-4.3-2.549,10.784,10.784,0,0,0-4.775-.328,10.431,10.431,0,0,0-4.222,1.64,10.745,10.745,0,0,0-4.494,6.567,11.5,11.5,0,0,0-.18,3.47,10.632,10.632,0,0,0,1.995,5.121l.014.02-.01.022-1.96,4.159,1.885-4.194,0,.041a10.659,10.659,0,0,1-2.046-5.157,11.577,11.577,0,0,1,.168-3.512,10.869,10.869,0,0,1,4.537-6.668,10.576,10.576,0,0,1,4.284-1.673,10.937,10.937,0,0,1,4.85.329,10.765,10.765,0,0,1,4.365,2.589,10.575,10.575,0,0,1,2.662,4.2,10.929,10.929,0,0,1,.529,4.741,10.691,10.691,0,0,1-1.456,4.279,10.811,10.811,0,0,1-6.311,4.848l-.891.212c-.3.05-.592.082-.881.123a9.629,9.629,0,0,1-1.7.057,10.689,10.689,0,0,1-5.3-1.728l.055-.064,0,0,.044.049-.063.02-4.738,1.5" transform="translate(-399.25 -45.307)" fill="#263238"/>
            <path id="Trazado_182259" data-name="Trazado 182259" d="M619.75,91.279a2.835,2.835,0,1,0-4.4-.673l-.577.538.138.958-.9-.251-.722.673.138.958-.9-.251-.62.579.084.584-.546-.153-.361.337-.054.887,1.323.333,4.292-4a2.836,2.836,0,0,0,3.1-.514m-.419-3.487a.813.813,0,1,1-1.15-.04.813.813,0,0,1,1.15.04" transform="translate(-410.358 -58.004)" fill="#263238"/>
            <path id="Trazado_182260" data-name="Trazado 182260" d="M633.335,90.124c-.005.005-.053-.05-.162-.116a.81.81,0,0,0-.512-.112.783.783,0,1,0,.855.916.812.812,0,0,0-.077-.519c-.059-.113-.11-.164-.1-.169s.015.011.039.035a.642.642,0,0,1,.09.121.811.811,0,0,1,.1.54.839.839,0,0,1-.983.691.84.84,0,0,1-.684-.733.838.838,0,0,1,.757-.933.809.809,0,0,1,.532.139.612.612,0,0,1,.114.1c.023.026.034.04.033.041" transform="translate(-424.363 -60.336)" fill="#263238"/>
            <path id="Trazado_182261" data-name="Trazado 182261" d="M619.679,91.226s-.013.014-.041.039l-.125.111a2.959,2.959,0,0,1-.549.349,2.855,2.855,0,0,1-2.39.034l.024,0-4.285,4.012-.013.012-.017,0-1.323-.332-.027-.006,0-.028c.017-.277.035-.58.054-.887v-.014L611,94.5l.361-.337.014-.013.018.005.546.153-.044.038-.084-.584,0-.017.013-.012.62-.579.014-.013.019,0,.9.251-.044.039-.138-.957,0-.018.013-.013.191-.178.53-.495.014-.013.019,0,.895.252-.044.039q-.07-.484-.138-.958l0-.018.013-.012.577-.538-.006.043a2.894,2.894,0,0,1-.369-1.291,2.768,2.768,0,0,1,.047-.656,2.8,2.8,0,0,1,.189-.617,2.856,2.856,0,0,1,5.469,1.37,2.805,2.805,0,0,1-.318,1.092l-.052.1-.058.09c-.038.057-.071.114-.107.161-.077.092-.135.175-.193.233l-.131.131c-.03.029-.046.042-.046.042s.013-.017.041-.047l.126-.135c.056-.059.113-.143.187-.235.036-.048.067-.1.1-.161l.057-.09.051-.1a2.842,2.842,0,0,0,.021-2.549,2.809,2.809,0,0,0-5.09.125,2.722,2.722,0,0,0-.183.6,2.693,2.693,0,0,0-.045.641,2.825,2.825,0,0,0,.361,1.26l.013.024-.02.019-.577.538.011-.031q.068.474.138.957l.008.054-.052-.015-.9-.251.034-.008-.53.495-.191.178.011-.031c.047.328.094.654.138.958l.008.054-.052-.015-.895-.251.033-.009-.62.579.01-.03c.029.2.058.4.084.584l.008.053-.051-.014-.546-.153.033-.008-.361.337.01-.022c-.019.307-.037.61-.055.886l-.025-.034,1.322.334-.03.007,4.3-4,.01-.01.013.006a2.841,2.841,0,0,0,2.362-.016,3.121,3.121,0,0,0,.551-.337l.128-.106c.029-.024.045-.035.045-.035" transform="translate(-410.287 -57.952)" fill="#263238"/>
            <path id="Trazado_182262" data-name="Trazado 182262" d="M619.46,90.3a2.835,2.835,0,1,0-4.4-.673h0l-.576.537.138.958-.895-.251-.722.673.138.958-.9-.251-.62.579.084.584-.546-.153-.361.337-.054.887,1.323.333,4.292-4a2.836,2.836,0,0,0,3.1-.514m-.419-3.487a.813.813,0,1,1-1.149-.04.813.813,0,0,1,1.149.04" transform="translate(-410.164 -57.346)" fill="#c9fbf8"/>
            <path id="Trazado_182263" data-name="Trazado 182263" d="M633.045,89.144c-.005.005-.053-.05-.162-.116a.81.81,0,0,0-.512-.112.783.783,0,1,0,.855.916.81.81,0,0,0-.077-.519c-.059-.113-.11-.164-.1-.169s.015.011.039.035a.639.639,0,0,1,.09.121.811.811,0,0,1,.1.54.839.839,0,0,1-.983.691.84.84,0,0,1-.684-.733.838.838,0,0,1,.757-.933.808.808,0,0,1,.532.139.608.608,0,0,1,.114.1c.023.026.034.04.033.041" transform="translate(-424.168 -59.678)" fill="#263238"/>
            <path id="Trazado_182264" data-name="Trazado 182264" d="M619.39,90.247s-.013.014-.041.039l-.125.111a2.959,2.959,0,0,1-.549.349,2.854,2.854,0,0,1-2.39.034l.023,0-4.285,4.012-.013.012-.017,0-1.323-.332-.027-.007,0-.028c.017-.277.035-.58.054-.887V93.53l.01-.009.361-.337.014-.013.018,0,.546.153-.044.038-.084-.584,0-.018.013-.012.62-.579.014-.013.019.005.9.251-.044.039L612.9,91.5l0-.018.013-.013.191-.178.53-.495.014-.013.019.005.895.251-.044.039-.138-.958,0-.018.013-.012.577-.538-.007.042a2.9,2.9,0,0,1-.368-1.291,2.891,2.891,0,0,1,.236-1.273A2.856,2.856,0,0,1,620.3,88.4a2.808,2.808,0,0,1-.318,1.092l-.052.1-.058.09c-.038.057-.071.114-.107.161-.077.092-.135.175-.193.233l-.131.131c-.03.029-.046.043-.046.043s.013-.017.041-.047l.126-.135c.056-.059.113-.143.187-.235.036-.048.067-.1.1-.161l.057-.09.051-.1a2.811,2.811,0,1,0-5.069-2.424,2.723,2.723,0,0,0-.183.6,2.69,2.69,0,0,0-.045.641,2.825,2.825,0,0,0,.361,1.26l.013.024-.02.019-.577.538.011-.031q.068.473.138.958l.008.054-.052-.015-.9-.251.034-.008-.53.495-.192.178.011-.031.138.957.008.054-.052-.015-.895-.251.033-.008-.62.579.011-.031c.029.2.058.4.084.584l.008.053-.051-.014-.546-.153.033-.008-.361.336.01-.023c-.019.307-.037.611-.055.887l-.025-.034,1.322.334-.03.008,4.3-4,.01-.01.013.006a2.843,2.843,0,0,0,2.362-.016,3.139,3.139,0,0,0,.551-.337l.128-.106c.029-.024.045-.035.045-.035" transform="translate(-410.093 -57.294)" fill="#263238"/>
            <path id="Trazado_182265" data-name="Trazado 182265" d="M627.825,90.759a3.861,3.861,0,0,0,.381-.48,2.387,2.387,0,0,0,.292-.653,2.484,2.484,0,0,0,.081-.939,2.463,2.463,0,0,0-1.337-1.945,2.315,2.315,0,0,0-.67-.227,2.244,2.244,0,0,0-.737-.023,2.451,2.451,0,0,0-2.128,1.984,2.246,2.246,0,0,0-.028.737,2.3,2.3,0,0,0,.179.684,2.476,2.476,0,0,0,2.79,1.453,2.383,2.383,0,0,0,.671-.246,3.854,3.854,0,0,0,.505-.346s-.009.011-.029.029l-.089.079a1.13,1.13,0,0,1-.152.12,1.78,1.78,0,0,1-.223.143,2.36,2.36,0,0,1-.676.26,2.518,2.518,0,0,1-2.03-.423,2.531,2.531,0,0,1-.828-1.043,2.38,2.38,0,0,1-.187-.7,2.3,2.3,0,0,1,.027-.758,2.514,2.514,0,0,1,2.187-2.041,2.9,2.9,0,0,1,.384-.018,2.867,2.867,0,0,1,.374.044,2.374,2.374,0,0,1,.688.235,2.53,2.53,0,0,1,.983.9,2.517,2.517,0,0,1,.281,2.055,2.364,2.364,0,0,1-.306.657,1.755,1.755,0,0,1-.158.212,1.137,1.137,0,0,1-.13.144l-.085.083a.162.162,0,0,1-.031.027" transform="translate(-418.789 -58.027)" fill="#263238"/>
            <path id="Trazado_182266" data-name="Trazado 182266" d="M632.778,90.091c-.006-.006.059-.061.138-.188a.949.949,0,0,0,.134-.6.926.926,0,0,0-.5-.727.912.912,0,0,0-.526-.092.917.917,0,0,0-.794.741.912.912,0,0,0,.055.531.927.927,0,0,0,.69.554.95.95,0,0,0,.61-.092c.132-.07.192-.131.2-.125s-.013.017-.042.045a.752.752,0,0,1-.142.1.949.949,0,0,1-.631.117.965.965,0,0,1-.417-.172A.985.985,0,1,1,633.1,89.3a.951.951,0,0,1-.161.622.762.762,0,0,1-.114.134c-.03.027-.046.04-.048.039" transform="translate(-423.857 -59.372)" fill="#263238"/>
            <path id="Trazado_182267" data-name="Trazado 182267" d="M613.722,105.287c-.013-.014.953-.938,2.158-2.062s2.194-2.025,2.207-2.01-.953.937-2.158,2.062-2.193,2.025-2.207,2.01" transform="translate(-412.159 -67.973)" fill="#263238"/>
            <path id="Trazado_182268" data-name="Trazado 182268" d="M614.882,96.325l.039-.088.053.08a.405.405,0,0,0,.172.146l.087.039-.08.053a.4.4,0,0,0-.146.172l-.039.088-.053-.08a.4.4,0,0,0-.172-.146l-.087-.039.08-.053a.4.4,0,0,0,.146-.172" transform="translate(-412.786 -64.63)" fill="#79f5ed"/>
            <path id="Trazado_182269" data-name="Trazado 182269" d="M607.073,94.4l.023-.051.031.047a.233.233,0,0,0,.1.085l.051.023-.047.031a.235.235,0,0,0-.085.1l-.023.051-.031-.047a.235.235,0,0,0-.1-.085l-.051-.023.047-.031a.232.232,0,0,0,.085-.1" transform="translate(-407.605 -63.366)" fill="#79f5ed"/>
            <path id="Trazado_182270" data-name="Trazado 182270" d="M632.271,108.044l.023-.051.031.047a.235.235,0,0,0,.1.085l.051.023-.047.031a.233.233,0,0,0-.085.1l-.023.051-.031-.047a.23.23,0,0,0-.1-.085l-.051-.023.047-.031a.232.232,0,0,0,.085-.1" transform="translate(-424.528 -72.525)" fill="#79f5ed"/>
            <path id="Trazado_182271" data-name="Trazado 182271" d="M644.414,100.976l.039-.087.053.08a.405.405,0,0,0,.172.146l.087.039-.08.053a.405.405,0,0,0-.147.172l-.039.088-.053-.08a.4.4,0,0,0-.172-.146l-.087-.039.08-.053a.4.4,0,0,0,.146-.172" transform="translate(-432.619 -67.754)" fill="#79f5ed"/>
            <path id="Trazado_182272" data-name="Trazado 182272" d="M642.492,91.058l.066-.147.088.135a.676.676,0,0,0,.289.246l.147.066-.135.088a.679.679,0,0,0-.246.289l-.066.147-.088-.135a.674.674,0,0,0-.289-.246l-.147-.066.135-.088a.674.674,0,0,0,.246-.289" transform="translate(-431.225 -61.053)" fill="#79f5ed"/>
            <path id="Trazado_182273" data-name="Trazado 182273" d="M612.08,88.037l.066-.147.088.135a.677.677,0,0,0,.289.246l.147.066-.135.088a.677.677,0,0,0-.246.289l-.066.147-.088-.135a.674.674,0,0,0-.289-.246l-.147-.066.135-.088a.675.675,0,0,0,.246-.289" transform="translate(-410.801 -59.025)" fill="#79f5ed"/>
          </g>
        </g>
      </g>
    </g>
  </g>
</svg>
