<svg xmlns="http://www.w3.org/2000/svg" xmlns:xlink="http://www.w3.org/1999/xlink" width="229.108" height="195.662" viewBox="0 0 229.108 195.662">
  <defs>
    <clipPath id="clip-path">
      <rect id="Rect치ngulo_38572" data-name="Rect치ngulo 38572" width="229.108" height="195.662" fill="none"/>
    </clipPath>
  </defs>
  <g id="Grupo_143618" data-name="Grupo 143618" transform="translate(-1783.946 2178.831)">
    <g id="Grupo_112908" data-name="Grupo 112908" transform="translate(1783.946 -2178.831)">
      <g id="Grupo_112909" data-name="Grupo 112909" clip-path="url(#clip-path)">
        <path id="Trazado_182646" data-name="Trazado 182646" d="M206.354,43.014v100.98a10.692,10.692,0,0,1-10.71,10.71H33.464a10.691,10.691,0,0,1-10.71-10.71V43.014a10.691,10.691,0,0,1,10.71-10.709H196.026a10.616,10.616,0,0,1,10.328,10.709" fill="#444445"/>
        <rect id="Rect치ngulo_38571" data-name="Rect치ngulo 38571" width="158.737" height="97.155" transform="translate(35.377 44.927)" fill="#696967"/>
        <path id="Trazado_182647" data-name="Trazado 182647" d="M183.787,17v58.14a6.447,6.447,0,0,1-6.5,6.5H79.747L67.124,91.975A6.6,6.6,0,0,1,56.414,87V17a6.447,6.447,0,0,1,6.5-6.5H176.9A6.786,6.786,0,0,1,183.787,17Z" fill="#8dffff"/>
        <path id="Trazado_182648" data-name="Trazado 182648" d="M168.869,40.719V53.725a6.447,6.447,0,0,1-6.5,6.5H77.834a6.448,6.448,0,0,1-6.5-6.5V40.719a6.7,6.7,0,0,1,6.5-6.5h84.532c3.443.383,6.5,3.06,6.5,6.5" fill="#fff"/>
        <path id="Trazado_182649" data-name="Trazado 182649" d="M154.717,44.545l-1.53-2.295-3.06,2.295V40.72h-3.06v3.825l-3.06-2.295-1.912,2.295,3.825,2.677L142.095,49.9l1.912,2.295,3.06-2.295v4.208h3.06V49.9l3.06,2.295,1.53-2.295-3.825-2.678Z" fill="#7f17b7"/>
        <path id="Trazado_182650" data-name="Trazado 182650" d="M135.974,44.545l-1.912-2.295L131,44.545V40.72h-2.678v3.825l-3.442-2.295-1.53,2.295,3.825,2.677L123.352,49.9l1.53,2.295,3.442-2.295v4.208H131V49.9l3.06,2.295,1.912-2.295-3.825-2.678Z" fill="#7f17b7"/>
        <path id="Trazado_182651" data-name="Trazado 182651" d="M116.849,44.545l-1.53-2.295-3.06,2.295V40.72H109.2v3.825l-3.06-2.295-1.912,2.295,3.825,2.677L104.227,49.9l1.912,2.295L109.2,49.9v4.208h3.06V49.9l3.06,2.295,1.53-2.295-3.825-2.678Z" fill="#7f17b7"/>
        <path id="Trazado_182652" data-name="Trazado 182652" d="M98.107,44.545,96.194,42.25l-3.06,2.295V40.72H90.457v3.825L87.015,42.25l-1.53,2.295,3.824,2.677L85.485,49.9l1.53,2.295L90.457,49.9v4.208h2.677V49.9l3.06,2.295L98.107,49.9l-3.825-2.678Z" fill="#7f17b7"/>
        <path id="Trazado_182653" data-name="Trazado 182653" d="M141.712,173.829H87.4l4.973-19.508h44.369Z" fill="#e4e4e3"/>
        <path id="Trazado_182654" data-name="Trazado 182654" d="M145.537,173.83H83.572c-2.295,0-4.59,4.59-4.59,8.8h70.38c.382-4.207-1.53-8.8-3.825-8.8" fill="#c7c7c7"/>
        <path id="Trazado_182655" data-name="Trazado 182655" d="M169.634,106.51v13a38.959,38.959,0,0,1-6.885,22.185H127.942l-15.683-24.1a6.165,6.165,0,0,1-1.147-3.442,5.574,5.574,0,0,1,2.677-4.972,6.112,6.112,0,0,1,8.415,1.53l3.825,5.737V81.265a6.216,6.216,0,0,1,4.208-5.737,5.369,5.369,0,0,1,6.5,5.354v19.89a5.371,5.371,0,0,1,6.5-5.355,5.767,5.767,0,0,1,4.59,5.738v2.677a5.37,5.37,0,0,1,6.5-5.355,5.766,5.766,0,0,1,4.59,5.738v2.677a5.23,5.23,0,0,1,5.355-5.355A4.729,4.729,0,0,1,169.634,106.51Z" fill="#ffca67"/>
      </g>
    </g>
  </g>
</svg>
