<svg xmlns="http://www.w3.org/2000/svg" xmlns:xlink="http://www.w3.org/1999/xlink" width="229.108" height="195.662" viewBox="0 0 229.108 195.662">
  <defs>
    <clipPath id="clip-path">
      <rect id="Rect치ngulo_38596" data-name="Rect치ngulo 38596" width="229.108" height="195.662" fill="none"/>
    </clipPath>
  </defs>
  <g id="Grupo_143619" data-name="Grupo 143619" transform="translate(-1783.946 1736.831)">
    <g id="Grupo_112915" data-name="Grupo 112915" transform="translate(1783.946 -1736.831)">
      <g id="Grupo_112915-2" data-name="Grupo 112915" clip-path="url(#clip-path)">
        <path id="Trazado_182656" data-name="Trazado 182656" d="M36.521,24.48H192.587a12.486,12.486,0,0,1,12.486,12.485V157.136a14.046,14.046,0,0,1-14.046,14.046H38.082a14.045,14.045,0,0,1-14.046-14.046V36.965A12.485,12.485,0,0,1,36.521,24.48" fill="#e1f7ff"/>
        <path id="Trazado_182657" data-name="Trazado 182657" d="M192.587,24.48H36.521A12.486,12.486,0,0,0,24.035,36.965V57.93H205.072V36.965A12.485,12.485,0,0,0,192.587,24.48" fill="#0081d0"/>
        <path id="Trazado_182658" data-name="Trazado 182658" d="M48.335,34.963a6.243,6.243,0,1,1-6.243,6.243,6.243,6.243,0,0,1,6.243-6.243" fill="#f37249"/>
        <path id="Trazado_182659" data-name="Trazado 182659" d="M73.393,34.963a6.243,6.243,0,1,1-6.243,6.243,6.243,6.243,0,0,1,6.243-6.243" fill="#ffcc5b"/>
        <path id="Trazado_182660" data-name="Trazado 182660" d="M205.073,36.965A12.485,12.485,0,0,0,192.588,24.48H108.721L92.9,57.929H205.073Z" fill="#a4def7"/>
        <path id="Trazado_182661" data-name="Trazado 182661" d="M189.883,43.935h-69.83a2.731,2.731,0,1,1,0-5.462h69.83a2.731,2.731,0,1,1,0,5.462" fill="#59b7e8"/>
        <rect id="Rect치ngulo_38595" data-name="Rect치ngulo 38595" width="106.125" height="31.213" transform="translate(61.492 124.757)" fill="#a4def7"/>
        <path id="Trazado_182662" data-name="Trazado 182662" d="M125.26,93.835a2.733,2.733,0,0,1-2.731-2.731V84.331a7.975,7.975,0,1,0-15.95,0V91.1a2.731,2.731,0,1,1-5.462,0V84.331a13.437,13.437,0,1,1,26.874,0V91.1a2.733,2.733,0,0,1-2.731,2.731" fill="#59b7e8"/>
        <path id="Trazado_182663" data-name="Trazado 182663" d="M92.695,134.555a2.733,2.733,0,0,0-3.8-.713l-1.97,1.347v-1.068a2.731,2.731,0,1,0-5.462,0v1.068l-1.97-1.347a2.732,2.732,0,1,0-3.083,4.51l2.945,2.013-2.945,2.012a2.732,2.732,0,1,0,3.083,4.51l1.972-1.346v1.065a2.731,2.731,0,1,0,5.462,0v-1.065l1.969,1.346a2.732,2.732,0,1,0,3.084-4.51l-2.946-2.012,2.945-2.013a2.732,2.732,0,0,0,.714-3.8Z" fill="#7f17b7"/>
        <path id="Trazado_182664" data-name="Trazado 182664" d="M123.052,134.555a2.733,2.733,0,0,0-3.8-.713l-1.97,1.347v-1.068a2.731,2.731,0,0,0-5.462,0v1.068l-1.97-1.347a2.732,2.732,0,1,0-3.083,4.51l2.945,2.013-2.945,2.012a2.732,2.732,0,1,0,3.083,4.51l1.97-1.346v1.065a2.731,2.731,0,1,0,5.462,0v-1.065l1.97,1.346a2.732,2.732,0,1,0,3.084-4.51l-2.947-2.012,2.945-2.013a2.732,2.732,0,0,0,.715-3.8" fill="#7f17b7"/>
        <path id="Trazado_182665" data-name="Trazado 182665" d="M152.7,142.377l-2.945-2.012,2.945-2.013a2.732,2.732,0,1,0-3.084-4.51l-1.969,1.347v-1.068a2.731,2.731,0,0,0-5.463,0v1.068l-1.969-1.347a2.732,2.732,0,1,0-3.084,4.51l2.945,2.013-2.945,2.012a2.732,2.732,0,1,0,3.084,4.51l1.968-1.347v1.066a2.731,2.731,0,1,0,5.462,0V145.54l1.97,1.347a2.732,2.732,0,1,0,3.083-4.51Z" fill="#7f17b7"/>
        <path id="Trazado_182666" data-name="Trazado 182666" d="M97.783,91.111h33.542v11.206a10.109,10.109,0,0,1-10.109,10.108H107.891a10.109,10.109,0,0,1-10.108-10.108Z" fill="#0081d0"/>
      </g>
    </g>
  </g>
</svg>
