<svg xmlns="http://www.w3.org/2000/svg" xmlns:xlink="http://www.w3.org/1999/xlink" width="229.108" height="195.662" viewBox="0 0 229.108 195.662">
  <defs>
    <clipPath id="clip-path">
      <rect id="Rectángulo_38597" data-name="Rectángulo 38597" width="229.108" height="195.662" fill="none"/>
    </clipPath>
  </defs>
  <g id="Grupo_143620" data-name="Grupo 143620" transform="translate(-1783.946 1515.831)">
    <g id="Grupo_112916" data-name="Grupo 112916" transform="translate(1783.946 -1515.831)">
      <g id="Grupo_112916-2" data-name="Grupo 112916" clip-path="url(#clip-path)">
        <path id="Trazado_182667" data-name="Trazado 182667" d="M208.948,49.7V168.215a7.6,7.6,0,0,1-7.6,7.6H29.656a9.5,9.5,0,0,1-9.5-9.5V49.7Z" fill="#f3fcff"/>
        <path id="Trazado_182668" data-name="Trazado 182668" d="M104.1,44.837,20.16,49.7V166.315c0,.148,0,.311.011.49a9.5,9.5,0,0,0,7.586,8.816V59.575A2.281,2.281,0,0,1,30.036,57.3H208.948V49.7Z" fill="#e1f7ff"/>
        <path id="Trazado_182669" data-name="Trazado 182669" d="M208.948,24.249v25.64H20.16V24.249a9.5,9.5,0,0,1,9.5-9.5h169.8a9.5,9.5,0,0,1,9.5,9.5" fill="#a4def7"/>
        <path id="Trazado_182670" data-name="Trazado 182670" d="M112.373,43.622a5.7,5.7,0,0,1,0-11.4h70.773a5.7,5.7,0,0,1,0,11.4Z" fill="#64acdc"/>
        <path id="Trazado_182671" data-name="Trazado 182671" d="M82.786,31.846a5.7,5.7,0,1,1-5.678,5.7,5.688,5.688,0,0,1,5.678-5.7" fill="#64acdc"/>
        <path id="Trazado_182672" data-name="Trazado 182672" d="M86.772,41.6l4.89-4.888-4.991.447Z" fill="#64acdc"/>
        <path id="Trazado_182673" data-name="Trazado 182673" d="M78.883,33.407l4.772-4.754-1.023,3.953Z" fill="#64acdc"/>
        <path id="Trazado_182674" data-name="Trazado 182674" d="M59.678,31.846A5.7,5.7,0,1,1,54,37.544a5.688,5.688,0,0,1,5.678-5.7" fill="#64acdc"/>
        <path id="Trazado_182675" data-name="Trazado 182675" d="M63.674,41.592l4.7-4.748-4.814.318Z" fill="#64acdc"/>
        <path id="Trazado_182676" data-name="Trazado 182676" d="M55.774,33.407l4.7-4.733-.95,3.932Z" fill="#64acdc"/>
        <path id="Trazado_182677" data-name="Trazado 182677" d="M37.233,31.846a5.7,5.7,0,1,1-5.678,5.7,5.688,5.688,0,0,1,5.678-5.7" fill="#64acdc"/>
        <path id="Trazado_182678" data-name="Trazado 182678" d="M41.344,41.474l4.832-5.009-4.991.525Z" fill="#64acdc"/>
        <path id="Trazado_182679" data-name="Trazado 182679" d="M33.33,33.407l4.415-4.573-.666,3.772Z" fill="#64acdc"/>
        <path id="Trazado_182680" data-name="Trazado 182680" d="M87.717,26.908a5.7,5.7,0,1,1-5.678,5.7,5.688,5.688,0,0,1,5.678-5.7" fill="#80e29e"/>
        <path id="Trazado_182681" data-name="Trazado 182681" d="M108.634,33.636l4.952-4.885-1.149,5.423Z" fill="#64acdc"/>
        <path id="Trazado_182682" data-name="Trazado 182682" d="M187.232,41.88l4.995-5.006-3.869,1.284Z" fill="#64acdc"/>
        <path id="Trazado_182683" data-name="Trazado 182683" d="M64.583,26.908a5.7,5.7,0,1,1-5.678,5.7,5.688,5.688,0,0,1,5.678-5.7" fill="#ffe07d"/>
        <path id="Trazado_182684" data-name="Trazado 182684" d="M42,26.908a5.7,5.7,0,1,1-5.678,5.7A5.688,5.688,0,0,1,42,26.908" fill="#e15f78"/>
        <path id="Trazado_182685" data-name="Trazado 182685" d="M117.3,38.684a5.7,5.7,0,0,1,0-11.4h70.773a5.7,5.7,0,0,1,0,11.4Z" fill="#59b7e8"/>
        <path id="Trazado_182686" data-name="Trazado 182686" d="M141.144,89.964a26.593,26.593,0,0,0-23.733-26.438,27.151,27.151,0,0,0-2.857.07c-14.685,0-25.741,11.683-25.741,26.368a25.421,25.421,0,0,0,25.873,25.92c4.965,0,13.458-3.06,13.458-3.06a26.577,26.577,0,0,0,13-22.86" fill="#857e87"/>
        <path id="Trazado_182687" data-name="Trazado 182687" d="M107.474,114.2l-6.51-1.374a26.593,26.593,0,0,1,13.59-49.45,25.912,25.912,0,0,1,3.039.175,26.591,26.591,0,0,0-13.014,47.615Z" fill="#6f6571"/>
        <path id="Trazado_182688" data-name="Trazado 182688" d="M128.141,109.538v3.282a26.368,26.368,0,0,1-10.848,3.6c-.9.092-1.887-.156-2.812-.156a24.818,24.818,0,0,1-13.142-3.71l-.121-2.91a7.156,7.156,0,0,1-.071-1.583,6.127,6.127,0,0,1,5.942-4.642h14.928A6.126,6.126,0,0,1,128.141,109.538Z" fill="#ffa95f"/>
        <path id="Trazado_182689" data-name="Trazado 182689" d="M117.593,116.379c-.243.03-.49.053-.737.076a26.52,26.52,0,0,1-15.889-3.635v-3.282a6.15,6.15,0,0,1,.182-1.482,26.517,26.517,0,0,0,16.444,8.323" fill="#ff9161"/>
        <path id="Trazado_182690" data-name="Trazado 182690" d="M123.1,83.317a7.625,7.625,0,0,0-8.547-8.276,8.268,8.268,0,1,0,0,16.536,7.554,7.554,0,0,0,8.547-8.26" fill="#f2d1a5"/>
        <path id="Trazado_182691" data-name="Trazado 182691" d="M117.023,91.5a8.418,8.418,0,0,1-2.469.365,8.547,8.547,0,0,1,0-17.094,8.418,8.418,0,0,1,2.469.365,8.546,8.546,0,0,0,0,16.364Z" fill="#f2bb88"/>
        <path id="Trazado_182692" data-name="Trazado 182692" d="M138.675,162.517H90.433a3.8,3.8,0,0,1-3.8-3.8V154.54a3.8,3.8,0,0,1,3.8-3.8h48.242a3.8,3.8,0,0,1,3.8,3.8v4.178a3.8,3.8,0,0,1-3.8,3.8" fill="#e8e8e8"/>
        <path id="Trazado_182693" data-name="Trazado 182693" d="M101.829,168.522a2.849,2.849,0,0,1-2.849-2.849V147.586a2.849,2.849,0,0,1,5.7,0v18.087a2.849,2.849,0,0,1-2.849,2.849" fill="#f9f8f9"/>
        <path id="Trazado_182694" data-name="Trazado 182694" d="M138.675,139.725H90.433a3.8,3.8,0,0,1-3.8-3.8v-4.178a3.8,3.8,0,0,1,3.8-3.8h48.242a3.8,3.8,0,0,1,3.8,3.8v4.178a3.8,3.8,0,0,1-3.8,3.8" fill="#e8e8e8"/>
        <path id="Trazado_182695" data-name="Trazado 182695" d="M101.829,145.73a2.849,2.849,0,0,1-2.849-2.849V124.794a2.849,2.849,0,0,1,5.7,0v18.087a2.849,2.849,0,0,1-2.849,2.849" fill="#f9f8f9"/>
      </g>
    </g>
  </g>
</svg>
