<svg xmlns="http://www.w3.org/2000/svg" width="229.108" height="195.662" viewBox="0 0 229.108 195.662">
  <g id="Grupo_112914" data-name="Grupo 112914" transform="translate(-1783.946 1957.831)">
    <rect id="Rectángulo_38572" data-name="Rectángulo 38572" width="229.108" height="195.662" transform="translate(1783.946 -1957.831)" fill="none"/>
    <g id="Grupo_112913" data-name="Grupo 112913" transform="translate(1783.946 -1957.831)">
      <rect id="Rectángulo_38573" data-name="Rectángulo 38573" width="145.677" height="19.424" transform="translate(41.716 59.307)" fill="#384949"/>
      <rect id="Rectángulo_38574" data-name="Rectángulo 38574" width="72.839" height="19.424" transform="translate(114.554 59.307)" fill="#293939"/>
      <rect id="Rectángulo_38575" data-name="Rectángulo 38575" width="145.677" height="19.424" transform="translate(41.716 117.578)" fill="#384949"/>
      <rect id="Rectángulo_38576" data-name="Rectángulo 38576" width="72.839" height="19.424" transform="translate(114.554 117.578)" fill="#293939"/>
      <rect id="Rectángulo_38577" data-name="Rectángulo 38577" width="165.748" height="49.207" transform="translate(31.68 14.956)" fill="#4a696f"/>
      <rect id="Rectángulo_38578" data-name="Rectángulo 38578" width="82.874" height="49.207" transform="translate(114.554 14.957)" fill="#384949"/>
      <rect id="Rectángulo_38579" data-name="Rectángulo 38579" width="9.712" height="9.712" transform="translate(51.427 35.028)" fill="#9bfcff"/>
      <rect id="Rectángulo_38580" data-name="Rectángulo 38580" width="9.712" height="9.712" transform="translate(70.851 35.028)" fill="#9bfcff"/>
      <rect id="Rectángulo_38581" data-name="Rectángulo 38581" width="9.712" height="9.712" transform="translate(90.275 35.028)" fill="#9bfcff"/>
      <rect id="Rectángulo_38582" data-name="Rectángulo 38582" width="48.559" height="9.712" transform="translate(129.122 35.028)" fill="#293939"/>
      <rect id="Rectángulo_38583" data-name="Rectángulo 38583" width="165.748" height="48.559" transform="translate(31.68 73.875)" fill="#4a696f"/>
      <rect id="Rectángulo_38584" data-name="Rectángulo 38584" width="82.874" height="48.559" transform="translate(114.554 73.875)" fill="#384949"/>
      <rect id="Rectángulo_38585" data-name="Rectángulo 38585" width="9.712" height="9.712" transform="translate(51.427 93.299)" fill="#9bfcff"/>
      <rect id="Rectángulo_38586" data-name="Rectángulo 38586" width="9.712" height="9.712" transform="translate(70.851 93.299)" fill="#9bfcff"/>
      <rect id="Rectángulo_38587" data-name="Rectángulo 38587" width="9.712" height="9.712" transform="translate(90.275 93.299)" fill="#9bfcff"/>
      <rect id="Rectángulo_38588" data-name="Rectángulo 38588" width="48.559" height="9.712" transform="translate(129.122 93.299)" fill="#293939"/>
      <rect id="Rectángulo_38589" data-name="Rectángulo 38589" width="165.748" height="48.559" transform="translate(31.68 132.146)" fill="#4a696f"/>
      <rect id="Rectángulo_38590" data-name="Rectángulo 38590" width="82.874" height="48.559" transform="translate(114.554 132.146)" fill="#384949"/>
      <rect id="Rectángulo_38591" data-name="Rectángulo 38591" width="9.712" height="9.712" transform="translate(51.427 151.569)" fill="#9bfcff"/>
      <rect id="Rectángulo_38592" data-name="Rectángulo 38592" width="9.712" height="9.712" transform="translate(70.851 151.569)" fill="#9bfcff"/>
      <rect id="Rectángulo_38593" data-name="Rectángulo 38593" width="9.712" height="9.712" transform="translate(90.275 151.569)" fill="#9bfcff"/>
      <rect id="Rectángulo_38594" data-name="Rectángulo 38594" width="48.559" height="9.712" transform="translate(129.122 151.569)" fill="#293939"/>
    </g>
  </g>
</svg>
