<svg xmlns="http://www.w3.org/2000/svg" xmlns:xlink="http://www.w3.org/1999/xlink" width="195" height="170.662" viewBox="0 0 195 170.662">
  <defs>
    <clipPath id="clip-path">
      <rect id="Rectángulo_38726" data-name="Rectángulo 38726" width="195" height="170.662" transform="translate(19.108 12)" fill="none"/>
    </clipPath>
  </defs>
  <g id="Grupo_143634" data-name="Grupo 143634" transform="translate(-580 -13140)">
    <g id="Grupo_113021" data-name="Grupo 113021" transform="translate(560.892 13128)">
      <g id="Grupo_113020" data-name="Grupo 113020" clip-path="url(#clip-path)">
        <path id="Trazado_183516" data-name="Trazado 183516" d="M38.988,52.305l-1.544,2.782v80.418a9.609,9.609,0,0,0,9.608,9.609h135a9.609,9.609,0,0,0,9.609-9.609V55.087l-1.545-2.782Z" fill="#fff"/>
        <path id="Trazado_183517" data-name="Trazado 183517" d="M175.931,52.305v67.467a9.609,9.609,0,0,1-9.609,9.608H37.444v6.125a9.609,9.609,0,0,0,9.609,9.609h135a9.609,9.609,0,0,0,9.609-9.609V55.087l-1.544-2.782Z" fill="#f2f2f2"/>
        <path id="Trazado_183518" data-name="Trazado 183518" d="M182.056,28.569h-135a9.609,9.609,0,0,0-9.608,9.609V55.087H191.665V38.178a9.609,9.609,0,0,0-9.609-9.609" fill="#ff93b2"/>
        <path id="Trazado_183519" data-name="Trazado 183519" d="M182.056,28.569h-6.125V55.087h15.734V38.178a9.609,9.609,0,0,0-9.609-9.609" fill="#ff5082"/>
        <path id="Trazado_183520" data-name="Trazado 183520" d="M54.849,37.517a4.311,4.311,0,1,1-4.311,4.311,4.311,4.311,0,0,1,4.311-4.311" fill="#dd636e"/>
        <path id="Trazado_183521" data-name="Trazado 183521" d="M68.11,37.517A4.311,4.311,0,1,1,63.8,41.828a4.311,4.311,0,0,1,4.311-4.311" fill="#ffe07d"/>
        <path id="Trazado_183522" data-name="Trazado 183522" d="M81.371,37.517a4.311,4.311,0,1,1-4.311,4.311,4.311,4.311,0,0,1,4.311-4.311" fill="#86f1a7"/>
        <path id="Trazado_183523" data-name="Trazado 183523" d="M169.508,100.474a2.321,2.321,0,0,1-1.646-.682l-7.037-7.037a2.328,2.328,0,0,1,3.292-3.292l5.391,5.392,12.43-12.429a2.327,2.327,0,0,1,3.291,3.292L171.154,99.792a2.319,2.319,0,0,1-1.646.682" fill="#78d0b1"/>
        <path id="Trazado_183524" data-name="Trazado 183524" d="M141.31,111.734H61.361A8.735,8.735,0,0,1,52.625,103V83.13a8.736,8.736,0,0,1,8.736-8.736H141.31a8.735,8.735,0,0,1,8.735,8.736V103a8.735,8.735,0,0,1-8.735,8.735" fill="#f6f1f1"/>
        <path id="Trazado_183525" data-name="Trazado 183525" d="M143.508,74.673a8.72,8.72,0,0,1,.324,2.356V101.08a4.553,4.553,0,0,1-4.553,4.553H55.147a8.75,8.75,0,0,1-2.2-.279,8.737,8.737,0,0,0,8.411,6.379h79.95A8.735,8.735,0,0,0,150.045,103V83.129A8.739,8.739,0,0,0,143.508,74.673Z" fill="#efe7e4"/>
        <path id="Trazado_183526" data-name="Trazado 183526" d="M141.046,114.061H61.624A11.339,11.339,0,0,1,50.3,102.734V83.392A11.339,11.339,0,0,1,61.624,72.066h79.422a11.34,11.34,0,0,1,11.327,11.326v19.342a11.339,11.339,0,0,1-11.327,11.327M61.624,76.721a6.679,6.679,0,0,0-6.672,6.672v19.342a6.679,6.679,0,0,0,6.672,6.671h79.422a6.679,6.679,0,0,0,6.672-6.671V83.393a6.679,6.679,0,0,0-6.672-6.672Z" fill="#e01650"/>
        <path id="Trazado_183527" data-name="Trazado 183527" d="M86.371,87.24a2.328,2.328,0,0,0-3.179-.852l-4.13,2.385V84a2.327,2.327,0,0,0-4.654,0v4.769l-4.13-2.384a2.327,2.327,0,1,0-2.327,4.031l4.13,2.384-4.13,2.384a2.327,2.327,0,1,0,2.327,4.031l4.13-2.384V101.6a2.327,2.327,0,1,0,4.654,0V96.834l4.13,2.384a2.327,2.327,0,0,0,2.327-4.031L81.389,92.8l4.13-2.385A2.326,2.326,0,0,0,86.371,87.24Z" fill="#595454"/>
        <path id="Trazado_183528" data-name="Trazado 183528" d="M110.938,87.24a2.328,2.328,0,0,0-3.179-.852l-4.13,2.385V84a2.327,2.327,0,0,0-4.654,0v4.769l-4.13-2.384a2.327,2.327,0,1,0-2.327,4.031l4.13,2.384-4.13,2.384a2.327,2.327,0,1,0,2.327,4.031l4.13-2.384V101.6a2.327,2.327,0,1,0,4.654,0V96.834l4.13,2.384a2.327,2.327,0,0,0,2.327-4.031l-4.13-2.384,4.13-2.385A2.326,2.326,0,0,0,110.938,87.24Z" fill="#595454"/>
        <path id="Trazado_183529" data-name="Trazado 183529" d="M134.72,95.188,130.59,92.8l4.13-2.385a2.327,2.327,0,1,0-2.327-4.031l-4.13,2.385V84a2.327,2.327,0,1,0-4.654,0v4.768l-4.13-2.384a2.327,2.327,0,0,0-2.328,4.031l4.13,2.384-4.13,2.385a2.327,2.327,0,1,0,2.328,4.031l4.13-2.385V101.6a2.327,2.327,0,1,0,4.654,0V96.834l4.13,2.384a2.327,2.327,0,1,0,2.327-4.03Z" fill="#595454"/>
        <path id="Trazado_183530" data-name="Trazado 183530" d="M148.991,158.667,138.213,147.89l-5.647,5.876,10.778,10.777a1.551,1.551,0,0,0,2.194,0l3.453-3.682a1.551,1.551,0,0,0,0-2.194" fill="#f6f1f1"/>
        <path id="Trazado_183531" data-name="Trazado 183531" d="M147.69,157.366l-2.814,2.814a1.551,1.551,0,0,1-2.194,0L134.3,151.8l-3.229,3.229,11.608,11.608a1.551,1.551,0,0,0,2.194,0l4.946-4.946a1.551,1.551,0,0,0,0-2.194Z" fill="#efe7e4"/>
        <path id="Trazado_183532" data-name="Trazado 183532" d="M110.034,123.734l39.255,14.6c.822.306.3,1.3-.322,1.922l-25.979,24.308c-.621.621-1.185.642-1.491-.18l-13.148-38.27C107.9,124.906,108.826,123.284,110.034,123.734Z" fill="#f6f1f1"/>
        <path id="Trazado_183533" data-name="Trazado 183533" d="M149.236,138.314l-5.341-1.988-17.468,17.468a1.242,1.242,0,0,1-2.041-.445L113.9,125.162l-5.663-2.108a1.552,1.552,0,0,0-2,2l15.26,41a1.241,1.241,0,0,0,2.041.445l26.142-26.142A1.242,1.242,0,0,0,149.236,138.314Z" fill="#efe7e4"/>
      </g>
    </g>
  </g>
</svg>
