<svg xmlns="http://www.w3.org/2000/svg" xmlns:xlink="http://www.w3.org/1999/xlink" width="154.047" height="131.559" viewBox="0 0 154.047 131.559">
  <defs>
    <clipPath id="clip-path">
      <rect id="Rectángulo_38716" data-name="Rectángulo 38716" width="154.047" height="131.559" fill="none"/>
    </clipPath>
  </defs>
  <g id="Grupo_143631" data-name="Grupo 143631" transform="translate(-619.95 -12612.516)">
    <g id="Grupo_113009" data-name="Grupo 113009" transform="translate(619.95 12612.516)">
      <g id="Grupo_113008" data-name="Grupo 113008" clip-path="url(#clip-path)">
        <path id="Trazado_183501" data-name="Trazado 183501" d="M141.082,72.621A51.739,51.739,0,1,1,89.344,20.882a51.74,51.74,0,0,1,51.739,51.739" transform="translate(-12.32 -6.841)" fill="#8b77e8"/>
        <path id="Trazado_183502" data-name="Trazado 183502" d="M138.281,109.079a11.248,11.248,0,0,1-11.248,11.248H60.3a11.248,11.248,0,1,1,0-22.5h66.737a11.248,11.248,0,0,1,11.248,11.248" transform="translate(-16.069 -32.052)" fill="#3f327a"/>
        <path id="Trazado_183503" data-name="Trazado 183503" d="M62.848,112.209l3.06,1.723-.8,1.414L62,113.521l.025,3.5H60.483l.025-3.5-3.11,1.826-.8-1.414,3.086-1.723-3.086-1.7.8-1.44,3.11,1.826-.025-3.472h1.542L62,110.9l3.11-1.826.8,1.44Z" transform="translate(-18.543 -35.195)" fill="#fff"/>
        <path id="Trazado_183504" data-name="Trazado 183504" d="M89.169,112.209l3.06,1.723-.8,1.414-3.11-1.826.025,3.5H86.8l.025-3.5-3.11,1.826-.8-1.414,3.086-1.723-3.086-1.7.8-1.44,3.11,1.826-.025-3.472h1.542l-.025,3.472,3.11-1.826.8,1.44Z" transform="translate(-27.167 -35.195)" fill="#fff"/>
        <path id="Trazado_183505" data-name="Trazado 183505" d="M115.489,112.209l3.06,1.723-.8,1.414-3.11-1.826.025,3.5h-1.542l.025-3.5-3.11,1.826-.8-1.414,3.086-1.723-3.086-1.7.8-1.44,3.11,1.826-.025-3.472h1.542l-.025,3.472,3.11-1.826.8,1.44Z" transform="translate(-35.79 -35.195)" fill="#fff"/>
        <path id="Trazado_183506" data-name="Trazado 183506" d="M141.81,112.209l3.06,1.723-.8,1.414-3.11-1.826.025,3.5h-1.542l.025-3.5-3.11,1.826-.8-1.414,3.086-1.723-3.086-1.7.8-1.44,3.11,1.826-.025-3.472h1.542l-.025,3.472,3.11-1.826.8,1.44Z" transform="translate(-44.413 -35.195)" fill="#fff"/>
        <path id="Trazado_183507" data-name="Trazado 183507" d="M168.13,112.209l3.06,1.723-.8,1.414-3.11-1.826.026,3.5h-1.542l.025-3.5-3.11,1.826-.8-1.414,3.086-1.723-3.086-1.7.8-1.44,3.11,1.826-.025-3.472h1.542l-.026,3.472,3.11-1.826.8,1.44Z" transform="translate(-53.036 -35.195)" fill="#fff"/>
        <path id="Trazado_183508" data-name="Trazado 183508" d="M119.584,52.655a10.824,10.824,0,0,0-10.569,8.559H71.933V74.992h4.5v-9.28h3.656v4.376h4.5V65.713h24.428a10.807,10.807,0,1,0,10.569-13.058m0,17.117a6.309,6.309,0,1,1,6.309-6.309,6.316,6.316,0,0,1-6.309,6.309" transform="translate(-23.567 -17.251)" fill="#ffe25a"/>
      </g>
    </g>
  </g>
</svg>
