<svg xmlns="http://www.w3.org/2000/svg" xmlns:xlink="http://www.w3.org/1999/xlink" width="1240" height="556" viewBox="0 0 1240 556">
  <defs>
    <clipPath id="clip-path">
      <rect id="Rectángulo_38767" data-name="Rectángulo 38767" width="38.58" height="8.614" fill="none"/>
    </clipPath>
    <clipPath id="clip-path-2">
      <rect id="Rectángulo_38768" data-name="Rectángulo 38768" width="35.838" height="5.208" fill="none"/>
    </clipPath>
  </defs>
  <g id="Grupo_143637" data-name="Grupo 143637" transform="translate(-922 -2821)">
    <rect id="Rectángulo_39063" data-name="Rectángulo 39063" width="263" height="181" rx="20" transform="translate(1883 3196)" fill="#ffecf2"/>
    <rect id="Rectángulo_39072" data-name="Rectángulo 39072" width="263" height="154" rx="20" transform="translate(938 3213)" fill="#ffecf2"/>
    <text id="Si_después_de_unos_días_el_hacker_no_ha_podido_descifrar_tu_contraseña_mediante_un_ataque_de_fuerza_bruta_es_muy_probable_que_se_dé_por_vencido." data-name="Si después de unos días el hacker no ha podido descifrar tu contraseña mediante un ataque de fuerza bruta, es muy probable que se dé por vencido." transform="translate(1908 3208)" fill="#12263f" font-size="16" font-family="Roboto-Bold, Roboto" font-weight="700"><tspan x="0" y="17">Si después de unos días el </tspan><tspan x="0" y="41">hacker no ha podido descifrar </tspan><tspan x="0" y="65">tu contraseña mediante un </tspan><tspan x="0" y="89">ataque de fuerza bruta, es </tspan><tspan x="0" y="113">muy probable que se dé por </tspan><tspan x="0" y="137">vencido.</tspan></text>
    <text id="Hay_1337_diccionarios_de_palabras_por_ahí._Básicamente_1337_speak_por_ejemplo:_una_palabra_como_animal_por_4n1m41." data-name="Hay 1337 diccionarios de palabras por ahí. Básicamente 1337 speak , por ejemplo: una palabra como &quot;animal&quot; por 4n1m41." transform="translate(962 3227)" fill="#12263f" font-size="16" font-family="Roboto-Bold, Roboto" font-weight="700"><tspan x="0" y="17">Hay 1337 diccionarios de </tspan><tspan x="0" y="41">palabras por ahí. </tspan><tspan x="0" y="65">Básicamente 1337 speak , </tspan><tspan x="0" y="89">por ejemplo: una palabra </tspan><tspan x="0" y="113">como &quot;animal&quot; por 4n1m41.</tspan></text>
    <path id="Trazado_185797" data-name="Trazado 185797" d="M251.507,0,171.439,138.681l80.068,138.682H411.642l80.069-138.682L411.642,0Z" transform="translate(1056.311 2945.327)" fill="#fff"/>
    <path id="Trazado_185798" data-name="Trazado 185798" d="M623.6,27.892,542.711,168,623.6,308.1H785.382L866.273,168,785.382,27.892Z" transform="translate(990.323 2940.37)" fill="#fff"/>
    <path id="Trazado_185799" data-name="Trazado 185799" d="M624.286,27.892l-33.8,58.539,2.038,1.176,33.116-57.362H769.821L841.91,155.106,769.821,279.969H625.644L553.215,154.521l-2.038,1.176,72.771,126.037.34.59H771.179l73.108-126.629.339-.588L771.52,28.48l-.34-.588Z" transform="translate(988.818 2940.37)" fill="#8f52f5"/>
    <path id="Trazado_185800" data-name="Trazado 185800" d="M270.222,27.892,196.774,155.107l73.108,126.629.34.59H417.116l33.8-58.539-2.03-1.182-33.118,57.361H271.581L199.488,155.107,271.581,30.245H415.759L488.186,155.7l2.038-1.176L417.457,28.48l-.341-.588Z" transform="translate(1051.808 2940.37)" fill="#8f52f5"/>
    <ellipse id="Elipse_4100" data-name="Elipse 4100" cx="4.934" cy="4.934" rx="4.934" ry="4.934" transform="translate(1498.595 3162.945) rotate(-80.783)" fill="none" stroke="#8f52f5" stroke-width="2"/>
    <ellipse id="Elipse_4101" data-name="Elipse 4101" cx="4.934" cy="4.934" rx="4.934" ry="4.934" transform="translate(1572.503 3026.481)" fill="none" stroke="#8f52f5" stroke-width="2"/>
    <g id="Grupo_143162" data-name="Grupo 143162" transform="translate(719.063 -11436.578)">
      <path id="Trazado_183769" data-name="Trazado 183769" d="M968.772,301.683l8.353-9.522-8.386-9.467,13.156,9.35Zm-15.361-1.195h5.11l12.375-8.327-11.552-8.327h-5.933l11.827,8.327Z" transform="translate(175.328 14367.083)" fill="#500c75" fill-rule="evenodd"/>
      <path id="Trazado_183770" data-name="Trazado 183770" d="M946.4,300.218l11.988-7.677L946.4,284.859Z" transform="translate(176.574 14366.698)" fill="#e01650" fill-rule="evenodd"/>
      <line id="Línea_201" data-name="Línea 201" x1="67.919" transform="translate(1046.223 14659.271)" fill="none" stroke="#e01650" stroke-width="2"/>
      <path id="Trazado_183771" data-name="Trazado 183771" d="M934.353,290.7a3.289,3.289,0,1,0,3.289,3.289,3.289,3.289,0,0,0-3.289-3.289" transform="translate(179.299 14365.66)" fill="#e01650"/>
      <path id="Trazado_183772" data-name="Trazado 183772" d="M852.353,290.7a3.289,3.289,0,1,0,3.289,3.289,3.289,3.289,0,0,0-3.289-3.289" transform="translate(193.874 14365.66)" fill="#e01650"/>
    </g>
    <g id="Grupo_143163" data-name="Grupo 143163" transform="translate(1200 3213.199)">
      <path id="Trazado_183769-2" data-name="Trazado 183769" d="M966.534,301.683l-8.353-9.522,8.386-9.467-13.156,9.35Zm15.361-1.195h-5.11l-12.375-8.327,11.552-8.327H981.9l-11.827,8.327Z" transform="translate(-953.411 -282.694)" fill="#500c75" fill-rule="evenodd"/>
      <path id="Trazado_183770-2" data-name="Trazado 183770" d="M958.387,300.218,946.4,292.541l11.988-7.682Z" transform="translate(-924.138 -283.079)" fill="#e01650" fill-rule="evenodd"/>
      <line id="Línea_201-2" data-name="Línea 201" x2="67.919" transform="translate(43.08 9.493)" fill="none" stroke="#e01650" stroke-width="2"/>
      <path id="Trazado_183771-2" data-name="Trazado 183771" d="M934.353,290.7a3.289,3.289,0,1,1-3.289,3.289,3.289,3.289,0,0,1,3.289-3.289" transform="translate(-890.783 -284.117)" fill="#e01650"/>
      <path id="Trazado_183772-2" data-name="Trazado 183772" d="M852.353,290.7a3.289,3.289,0,1,1-3.289,3.289,3.289,3.289,0,0,1,3.289-3.289" transform="translate(-741.357 -284.117)" fill="#e01650"/>
    </g>
    <g id="Grupo_143167" data-name="Grupo 143167" transform="translate(719.063 -11705.578)">
      <path id="Trazado_183769-3" data-name="Trazado 183769" d="M968.772,301.683l8.353-9.522-8.386-9.467,13.156,9.35Zm-15.361-1.195h5.11l12.375-8.327-11.552-8.327h-5.933l11.827,8.327Z" transform="translate(175.328 14367.083)" fill="#500c75" fill-rule="evenodd"/>
      <path id="Trazado_183770-3" data-name="Trazado 183770" d="M946.4,300.218l11.988-7.677L946.4,284.859Z" transform="translate(176.574 14366.698)" fill="#e01650" fill-rule="evenodd"/>
      <line id="Línea_201-3" data-name="Línea 201" x1="67.919" transform="translate(1046.223 14659.271)" fill="none" stroke="#e01650" stroke-width="2"/>
      <path id="Trazado_183771-3" data-name="Trazado 183771" d="M934.353,290.7a3.289,3.289,0,1,0,3.289,3.289,3.289,3.289,0,0,0-3.289-3.289" transform="translate(179.299 14365.66)" fill="#e01650"/>
      <path id="Trazado_183772-3" data-name="Trazado 183772" d="M852.353,290.7a3.289,3.289,0,1,0,3.289,3.289,3.289,3.289,0,0,0-3.289-3.289" transform="translate(193.874 14365.66)" fill="#e01650"/>
    </g>
    <g id="Grupo_143168" data-name="Grupo 143168" transform="translate(1200 2944.199)">
      <path id="Trazado_183769-4" data-name="Trazado 183769" d="M966.534,301.683l-8.353-9.522,8.386-9.467-13.156,9.35Zm15.361-1.195h-5.11l-12.375-8.327,11.552-8.327H981.9l-11.827,8.327Z" transform="translate(-953.411 -282.694)" fill="#500c75" fill-rule="evenodd"/>
      <path id="Trazado_183770-4" data-name="Trazado 183770" d="M958.387,300.218,946.4,292.541l11.988-7.682Z" transform="translate(-924.138 -283.079)" fill="#e01650" fill-rule="evenodd"/>
      <line id="Línea_201-4" data-name="Línea 201" x2="67.919" transform="translate(43.08 9.493)" fill="none" stroke="#e01650" stroke-width="2"/>
      <path id="Trazado_183771-4" data-name="Trazado 183771" d="M934.353,290.7a3.289,3.289,0,1,1-3.289,3.289,3.289,3.289,0,0,1,3.289-3.289" transform="translate(-890.783 -284.117)" fill="#e01650"/>
      <path id="Trazado_183772-4" data-name="Trazado 183772" d="M852.353,290.7a3.289,3.289,0,1,1-3.289,3.289,3.289,3.289,0,0,1,3.289-3.289" transform="translate(-741.357 -284.117)" fill="#e01650"/>
    </g>
    <g id="Grupo_143164" data-name="Grupo 143164" transform="translate(787.063 -11563.794)">
      <path id="Trazado_183769-5" data-name="Trazado 183769" d="M968.772,301.683l8.353-9.522-8.386-9.467,13.156,9.35Zm-15.361-1.195h5.11l12.375-8.327-11.552-8.327h-5.933l11.827,8.327Z" transform="translate(175.328 14367.083)" fill="#500c75" fill-rule="evenodd"/>
      <path id="Trazado_183770-5" data-name="Trazado 183770" d="M946.4,300.218l11.988-7.677L946.4,284.859Z" transform="translate(176.574 14366.698)" fill="#e01650" fill-rule="evenodd"/>
      <line id="Línea_201-5" data-name="Línea 201" x1="67.919" transform="translate(1046.223 14659.271)" fill="none" stroke="#e01650" stroke-width="2"/>
      <path id="Trazado_183771-5" data-name="Trazado 183771" d="M934.353,290.7a3.289,3.289,0,1,0,3.289,3.289,3.289,3.289,0,0,0-3.289-3.289" transform="translate(179.299 14365.66)" fill="#e01650"/>
      <path id="Trazado_183772-5" data-name="Trazado 183772" d="M852.353,290.7a3.289,3.289,0,1,0,3.289,3.289,3.289,3.289,0,0,0-3.289-3.289" transform="translate(193.874 14365.66)" fill="#e01650"/>
    </g>
    <g id="Grupo_143169" data-name="Grupo 143169" transform="translate(1132 3085.983)">
      <path id="Trazado_183769-6" data-name="Trazado 183769" d="M966.534,301.683l-8.353-9.522,8.386-9.467-13.156,9.35Zm15.361-1.195h-5.11l-12.375-8.327,11.552-8.327H981.9l-11.827,8.327Z" transform="translate(-953.411 -282.694)" fill="#500c75" fill-rule="evenodd"/>
      <path id="Trazado_183770-6" data-name="Trazado 183770" d="M958.387,300.218,946.4,292.541l11.988-7.682Z" transform="translate(-924.138 -283.079)" fill="#e01650" fill-rule="evenodd"/>
      <line id="Línea_201-6" data-name="Línea 201" x2="67.919" transform="translate(43.08 9.493)" fill="none" stroke="#e01650" stroke-width="2"/>
      <path id="Trazado_183771-6" data-name="Trazado 183771" d="M934.353,290.7a3.289,3.289,0,1,1-3.289,3.289,3.289,3.289,0,0,1,3.289-3.289" transform="translate(-890.783 -284.117)" fill="#e01650"/>
      <path id="Trazado_183772-6" data-name="Trazado 183772" d="M852.353,290.7a3.289,3.289,0,1,1-3.289,3.289,3.289,3.289,0,0,1,3.289-3.289" transform="translate(-741.357 -284.117)" fill="#e01650"/>
    </g>
    <path id="Trazado_185801" data-name="Trazado 185801" d="M772.438,330.169h37.453l14.676-25.336" transform="translate(949.493 2891.147)" fill="none" stroke="#8f52f5" stroke-width="8"/>
    <path id="Trazado_185802" data-name="Trazado 185802" d="M321.171,28.833H283.718L269.042,54.169" transform="translate(1038.963 2940.202)" fill="none" stroke="#8f52f5" stroke-width="8"/>
    <path id="Trazado_185803" data-name="Trazado 185803" d="M365.431,173.294H290.713a8.367,8.367,0,0,1-8.367-8.367V103.7a8.367,8.367,0,0,1,8.367-8.367h74.718A8.366,8.366,0,0,1,373.8,103.7v61.225a8.367,8.367,0,0,1-8.367,8.367" transform="translate(1036.599 2928.383)" fill="#f6f2db"/>
    <path id="Trazado_185804" data-name="Trazado 185804" d="M373.8,103.987H282.346v-.675a7.975,7.975,0,0,1,7.976-7.975h75.5a7.975,7.975,0,0,1,7.975,7.975Z" transform="translate(1036.599 2928.383)" fill="#905aba"/>
    <path id="Trazado_185805" data-name="Trazado 185805" d="M286.844,100.31a1.034,1.034,0,1,1,1.034,1.034,1.034,1.034,0,0,1-1.034-1.034" transform="translate(1035.799 2927.682)" fill="#f1beff"/>
    <path id="Trazado_185806" data-name="Trazado 185806" d="M292.123,100.31a1.034,1.034,0,1,1,1.034,1.034,1.034,1.034,0,0,1-1.034-1.034" transform="translate(1034.861 2927.682)" fill="#f1beff"/>
    <path id="Trazado_185807" data-name="Trazado 185807" d="M297.4,100.31a1.034,1.034,0,1,1,1.034,1.034,1.034,1.034,0,0,1-1.034-1.034" transform="translate(1033.923 2927.682)" fill="#f1beff"/>
    <rect id="Rectángulo_39064" data-name="Rectángulo 39064" width="25.924" height="25.924" transform="translate(1326.192 3039.234)" fill="#d8bbd8"/>
    <path id="Trazado_185808" data-name="Trazado 185808" d="M351.667,116.131h-20.62a.98.98,0,0,1,0-1.959h20.62a.98.98,0,0,1,0,1.959" transform="translate(1028.117 2925.034)" fill="#b59fc7"/>
    <path id="Trazado_185809" data-name="Trazado 185809" d="M381.655,115.959h-20.62a.98.98,0,0,1,0-1.959h20.62a.98.98,0,0,1,0,1.959" transform="translate(1022.787 2925.065)" fill="#b59fc7"/>
    <g id="Grupo_143165" data-name="Grupo 143165" transform="translate(1358.185 3047.438)" opacity="0.3">
      <g id="Grupo_142745" data-name="Grupo 142745" transform="translate(0 0)">
        <g id="Grupo_142744" data-name="Grupo 142744" clip-path="url(#clip-path)">
          <path id="Trazado_183782" data-name="Trazado 183782" d="M355.749,125.453H330.7a.635.635,0,1,1,0-1.27h25.046a.635.635,0,0,1,0,1.27" transform="translate(-330.068 -124.182)" fill="#b59fc7"/>
          <path id="Trazado_183783" data-name="Trazado 183783" d="M371.314,125.453H364.7a.635.635,0,1,1,0-1.27h6.612a.635.635,0,1,1,0,1.27" transform="translate(-336.111 -124.182)" fill="#b59fc7"/>
          <path id="Trazado_183784" data-name="Trazado 183784" d="M340.153,130.243H330.7a.635.635,0,1,1,0-1.27h9.45a.635.635,0,0,1,0,1.27" transform="translate(-330.068 -125.034)" fill="#b59fc7"/>
          <path id="Trazado_183785" data-name="Trazado 183785" d="M358.012,130.243H345.063a.635.635,0,1,1,0-1.27h12.949a.635.635,0,1,1,0,1.27" transform="translate(-332.62 -125.034)" fill="#b59fc7"/>
          <path id="Trazado_183786" data-name="Trazado 183786" d="M371.314,130.243H364.7a.635.635,0,1,1,0-1.27h6.612a.635.635,0,1,1,0,1.27" transform="translate(-336.111 -125.034)" fill="#b59fc7"/>
          <path id="Trazado_183787" data-name="Trazado 183787" d="M343.526,134.383H330.7a.635.635,0,0,1,0-1.27h12.823a.635.635,0,0,1,0,1.27" transform="translate(-330.068 -125.769)" fill="#b59fc7"/>
          <path id="Trazado_183788" data-name="Trazado 183788" d="M371.544,134.383H350.572a.635.635,0,1,1,0-1.27h20.972a.635.635,0,0,1,0,1.27" transform="translate(-333.599 -125.769)" fill="#b59fc7"/>
        </g>
      </g>
    </g>
    <g id="Grupo_143166" data-name="Grupo 143166" transform="translate(1358.185 3059.949)" opacity="0.3">
      <g id="Grupo_142748" data-name="Grupo 142748" transform="translate(0 0)">
        <g id="Grupo_142747" data-name="Grupo 142747" clip-path="url(#clip-path-2)">
          <path id="Trazado_183789" data-name="Trazado 183789" d="M355.749,140.668H330.7a.635.635,0,0,1,0-1.27h25.046a.635.635,0,0,1,0,1.27" transform="translate(-330.068 -139.398)" fill="#b59fc7"/>
          <path id="Trazado_183790" data-name="Trazado 183790" d="M371.314,140.668H364.7a.635.635,0,1,1,0-1.27h6.612a.635.635,0,1,1,0,1.27" transform="translate(-336.111 -139.398)" fill="#b59fc7"/>
          <path id="Trazado_183791" data-name="Trazado 183791" d="M340.153,145.457H330.7a.635.635,0,0,1,0-1.27h9.45a.635.635,0,0,1,0,1.27" transform="translate(-330.068 -140.249)" fill="#b59fc7"/>
          <path id="Trazado_183792" data-name="Trazado 183792" d="M358.012,145.457H345.063a.635.635,0,1,1,0-1.27h12.949a.635.635,0,0,1,0,1.27" transform="translate(-332.62 -140.249)" fill="#b59fc7"/>
        </g>
      </g>
    </g>
    <path id="Trazado_185810" data-name="Trazado 185810" d="M303.732,118.905h2.677l7.233,16.556h-3.053l-1.668-3.969h-7.773l-1.691,3.969H296.5Zm4.134,10.028-2.842-6.576-2.818,6.576Z" transform="translate(1034.083 2924.193)" fill="#e8e4ce"/>
    <rect id="Rectángulo_39065" data-name="Rectángulo 39065" width="14.481" height="2.796" transform="translate(1326.193 3070.379)" fill="#9e77d9"/>
    <rect id="Rectángulo_39066" data-name="Rectángulo 39066" width="14.481" height="2.796" transform="translate(1326.193 3073.175)" fill="#6501b7"/>
    <rect id="Rectángulo_39067" data-name="Rectángulo 39067" width="14.481" height="2.796" transform="translate(1326.193 3075.971)" fill="#4c0275"/>
    <path id="Trazado_185811" data-name="Trazado 185811" d="M319.894,153.746h-7.968a.6.6,0,0,1,0-1.207h7.968a.6.6,0,0,1,0,1.207" transform="translate(1031.448 2918.216)" fill="#b59fc7"/>
    <path id="Trazado_185812" data-name="Trazado 185812" d="M317.21,156.334h-5.283a.6.6,0,1,1,0-1.207h5.283a.6.6,0,1,1,0,1.207" transform="translate(1031.448 2917.756)" fill="#b59fc7"/>
    <rect id="Rectángulo_39068" data-name="Rectángulo 39068" width="14.481" height="5.712" transform="translate(1326.193 3084.834)" fill="#8455cc"/>
    <rect id="Rectángulo_39069" data-name="Rectángulo 39069" width="14.481" height="4.085" transform="translate(1326.193 3089.136)" fill="#4a2f54"/>
    <path id="Trazado_185813" data-name="Trazado 185813" d="M291.16,169.661l5.2,4.364-5.2,4.023Z" transform="translate(1035.032 2915.173)" fill="#351a60"/>
    <path id="Trazado_185814" data-name="Trazado 185814" d="M319.894,171.325h-7.968a.6.6,0,0,1,0-1.207h7.968a.6.6,0,0,1,0,1.207" transform="translate(1031.448 2915.092)" fill="#b59fc7"/>
    <path id="Trazado_185815" data-name="Trazado 185815" d="M317.21,173.913h-5.283a.6.6,0,1,1,0-1.207h5.283a.6.6,0,1,1,0,1.207" transform="translate(1031.448 2914.631)" fill="#b59fc7"/>
    <path id="Trazado_185816" data-name="Trazado 185816" d="M406.52,213.18H362.568V196.018H406.7a7.822,7.822,0,0,1,7.822,7.822v1.339a8,8,0,0,1-8,8" transform="translate(1022.34 2910.488)" fill="#e8e4ce"/>
    <path id="Trazado_185817" data-name="Trazado 185817" d="M452.745,203.079v2.582a7.866,7.866,0,0,1-.953,3.782,6.95,6.95,0,0,1-6.072,3.736H360.656a1.056,1.056,0,0,1-1.019-1.09V211.7a1.056,1.056,0,0,1,1.019-1.09H412.51a7.012,7.012,0,0,0,.728-1.171,7.365,7.365,0,0,0,.761-3.281V202.88a7.293,7.293,0,0,0-.21-1.746,7.028,7.028,0,0,0-1.2-2.548h-51.93a1.057,1.057,0,0,1-1.019-1.091v-.386a1.057,1.057,0,0,1,1.019-1.09h85.493a6.682,6.682,0,0,1,6.343,5.115,7.529,7.529,0,0,1,.254,1.945" transform="translate(1022.861 2910.488)" fill="#e01650"/>
    <path id="Trazado_185818" data-name="Trazado 185818" d="M452.491,201.133h-38.7a7.043,7.043,0,0,0-1.2-2.548H360.657a1.057,1.057,0,0,1-1.02-1.09v-.386a1.057,1.057,0,0,1,1.02-1.091h85.493a6.681,6.681,0,0,1,6.342,5.115" transform="translate(1022.861 2910.488)" fill="#bc1445"/>
    <path id="Trazado_185819" data-name="Trazado 185819" d="M362.568,206.454l6.3.289-6.3.174Z" transform="translate(1022.34 2908.634)" fill="#b59fc7"/>
    <path id="Trazado_185820" data-name="Trazado 185820" d="M362.568,209.728l14.984.289-14.984.174Z" transform="translate(1022.34 2908.052)" fill="#b59fc7"/>
    <path id="Trazado_185821" data-name="Trazado 185821" d="M353.1,230.194h44.4V216.845H352.711a5.96,5.96,0,0,0-5.96,5.96v1.042a6.347,6.347,0,0,0,6.347,6.347" transform="translate(1025.152 2906.786)" fill="#755883"/>
    <path id="Trazado_185822" data-name="Trazado 185822" d="M404.484,230.194h50.567V216.845h-50.7a6.085,6.085,0,0,0-6.084,6.085v1.042a6.222,6.222,0,0,0,6.222,6.222" transform="translate(1015.996 2906.786)" fill="#e8e4ce"/>
    <path id="Trazado_185823" data-name="Trazado 185823" d="M393.991,232.647h61.851a.92.92,0,0,0,.92-.92v-.156a.92.92,0,0,0-.92-.92H393.991a.92.92,0,0,0-.92.92v.156a.92.92,0,0,0,.92.92" transform="translate(1016.919 2904.332)" fill="#755883"/>
    <path id="Trazado_185824" data-name="Trazado 185824" d="M393.991,218.841h61.851a.92.92,0,0,0,.92-.92v-.156a.92.92,0,0,0-.92-.92H393.991a.92.92,0,0,0-.92.92v.156a.92.92,0,0,0,.92.92" transform="translate(1016.919 2906.786)" fill="#755883"/>
    <path id="Trazado_185825" data-name="Trazado 185825" d="M465.838,224.962l-6.885.224,6.885.135Z" transform="translate(1005.21 2905.343)" fill="#b59fc7"/>
    <path id="Trazado_185826" data-name="Trazado 185826" d="M463.785,221.226l-16.38.224,16.38.135Z" transform="translate(1007.262 2906.008)" fill="#b59fc7"/>
    <path id="Trazado_185827" data-name="Trazado 185827" d="M447.61,221.445a3.1,3.1,0,0,1,.934,1.516,2.493,2.493,0,0,1,.073.527c.039,1.253,0,4.088,0,4.088l2.072-1.417,2.067,1.417v-3.842a3.386,3.386,0,0,0-.506-1.9.771.771,0,0,0-.572-.393Z" transform="translate(1007.226 2905.969)" fill="#e01650"/>
    <path id="Trazado_185828" data-name="Trazado 185828" d="M447.61,221.445a3.1,3.1,0,0,1,.934,1.516l4.153.056s-.163-1.349-1.02-1.572Z" transform="translate(1007.226 2905.969)" fill="#e01650"/>
    <path id="Trazado_185829" data-name="Trazado 185829" d="M390.378,191.823h-41.67V172.211H390.58a8.939,8.939,0,0,1,8.94,8.939v1.531a9.142,9.142,0,0,1-9.142,9.142" transform="translate(1024.804 2914.72)" fill="#e8e4ce"/>
    <path id="Trazado_185830" data-name="Trazado 185830" d="M399.035,179.82v4.221a5.093,5.093,0,0,1-2.075,4.2,3.628,3.628,0,0,1-2.045.645H346.861a1.132,1.132,0,0,0-1.02,1.218v.5a1.132,1.132,0,0,0,1.02,1.218h83.015a6.774,6.774,0,0,0,5.759-3.578,9.514,9.514,0,0,0,1.272-4.818V180.1a9.126,9.126,0,0,0-.655-3.429,6.619,6.619,0,0,0-5.946-4.456H346.861a1.132,1.132,0,0,0-1.02,1.217v.5a1.132,1.132,0,0,0,1.02,1.218h48.2a3.718,3.718,0,0,1,2.923,1.523,5.187,5.187,0,0,1,1.049,3.153" transform="translate(1025.313 2914.72)" fill="#b59fc7"/>
    <path id="Trazado_185831" data-name="Trazado 185831" d="M345.841,193.572v.5a1.132,1.132,0,0,0,1.02,1.218h83.015a6.77,6.77,0,0,0,5.758-3.579H396.96a3.622,3.622,0,0,1-2.045.645H346.861a1.132,1.132,0,0,0-1.02,1.218" transform="translate(1025.313 2911.254)" fill="#755883"/>
    <path id="Trazado_185832" data-name="Trazado 185832" d="M348.708,184.136l6.16.33-6.16.2Z" transform="translate(1024.804 2912.6)" fill="#b59fc7"/>
    <path id="Trazado_185833" data-name="Trazado 185833" d="M348.708,178.647l14.656.33-14.656.2Z" transform="translate(1024.804 2913.576)" fill="#b59fc7"/>
    <path id="Trazado_185834" data-name="Trazado 185834" d="M364.815,178.969a3.439,3.439,0,0,0-1.288,1.644,2.156,2.156,0,0,0-.1.572c-.053,1.358,0,4.432,0,4.432l-2.856-1.537-2.848,1.537v-4.166a3.108,3.108,0,0,1,.7-2.056,1.11,1.11,0,0,1,.789-.426Z" transform="translate(1023.202 2913.518)" fill="#e01650"/>
    <path id="Trazado_185835" data-name="Trazado 185835" d="M364.833,178.969a3.439,3.439,0,0,0-1.288,1.644l-5.722.061s.225-1.464,1.405-1.7Z" transform="translate(1023.184 2913.518)" fill="#e01650"/>
    <path id="Trazado_185836" data-name="Trazado 185836" d="M408.606,191.788a9.416,9.416,0,0,0,3.252,3.524l7.594.053s-11.94-5.512-10.847-3.578" transform="translate(1014.171 2911.313)" fill="#23102d"/>
    <path id="Trazado_185837" data-name="Trazado 185837" d="M414.187,214.33a.7.7,0,0,1,.12.752l0,0a4.656,4.656,0,0,1-1.486,1.607c-.089.072-.169.137-.238.2l-.053.048-.042.036c-.652.594-.409.732-1.582,1.936-1.338,1.372-2.252,1.39-2.511,1.263-.22-.109.233-.839.734-1.659l.072-.12c.067-.109.133-.22.2-.329.587-.988.442-1.454.314-2.93-.1-1.2-1.817-6.71-1.817-6.71l2.547-.42s.736,4.383,1.576,5.064c.449.363.954.371,1.386.64.03.019.06.038.09.058a3.3,3.3,0,0,1,.692.564" transform="translate(1014.284 2908.357)" fill="#ffc6b5"/>
    <path id="Trazado_185838" data-name="Trazado 185838" d="M414.282,215.562a.7.7,0,0,1,.12.752l0,0a5.406,5.406,0,0,1-1.488,1.6c-.088.072-.166.139-.235.2l-.053.048-.042.036c-.652.594-.409.732-1.582,1.936-1.338,1.372-2.252,1.39-2.511,1.263-.22-.109.233-.839.734-1.659a5.661,5.661,0,0,0,2.379-1.728c.807-1.015,1.349-2.322,1.9-3.078.03.019.06.038.09.058a3.3,3.3,0,0,1,.692.564" transform="translate(1014.189 2907.125)" fill="#23102d"/>
    <path id="Trazado_185839" data-name="Trazado 185839" d="M388.958,212.4c-.163.784-1.281.645-2.53.331s-.954.051-2.732-.159-2.314-.877-2.366-1.142c-.047-.235.834-.312,1.778-.414.118-.012.238-.026.358-.04a7.71,7.71,0,0,0,2.823-1.366,11.3,11.3,0,0,0,2.3-2.7l2.44.211s-1.3,1.936-1.8,2.779a2.947,2.947,0,0,0-.252,1.662,3.126,3.126,0,0,1-.025.835" transform="translate(1019.006 2908.551)" fill="#ffc6b5"/>
    <path id="Trazado_185840" data-name="Trazado 185840" d="M386.427,213.619c-1.249-.314-.954.051-2.733-.159s-2.313-.877-2.366-1.142c-.047-.235.833-.312,1.778-.414l.008.019a5.023,5.023,0,0,0,2.544.81c1.208.038,2.49-.3,3.324-.28a3.127,3.127,0,0,1-.025.835c-.163.784-1.281.645-2.53.331" transform="translate(1019.006 2907.664)" fill="#23102d"/>
    <path id="Trazado_185841" data-name="Trazado 185841" d="M402.12,193.841,404.359,200l2.923,8.04a4.84,4.84,0,0,0,1.584-.134,6.853,6.853,0,0,0,1.537-.734s-.767-8.616-2.275-13.57a8.808,8.808,0,0,0-1.308-2.881c-2.372-2.845-4.7,3.121-4.7,3.121" transform="translate(1015.311 2911.566)" fill="#23102d"/>
    <path id="Trazado_185842" data-name="Trazado 185842" d="M402.076,182.606c1.5-.472,5.759.178,10.037,1.047l.907-1.474,9.259-.657s3.005,6.793,1.3,11.1a1.631,1.631,0,0,1-1.692.9h0s-5.522.1-7.311.084c-4.6-.033-9.716-3.232-10.38-3.37-1.086-.225-1.536,1.947-2.64,4.223s-10.3,10.044-10.3,10.044a8.051,8.051,0,0,1-1.982-.217,1.953,1.953,0,0,1-.849-.544s10.267-20.072,13.646-21.136" transform="translate(1017.744 2913.064)" fill="#4a2f54"/>
    <path id="Trazado_185843" data-name="Trazado 185843" d="M418,163.593c3.283,1.838,9.94,5.646,9.975,5.622,0,0,2.45.943,3.851.027,2.334-1.526,3.609-5.67-.614-9.273-2.107-1.8-3.609-2.242-3.818-5.089-.113-1.544-2.187-6.655-5.7-6.208a5.3,5.3,0,0,1-.884.052,3.283,3.283,0,0,0-1.783.447c-1.992,1.168-5.965,13.686-1.03,14.423" transform="translate(1012.911 2918.908)" fill="#23102d"/>
    <path id="Trazado_185844" data-name="Trazado 185844" d="M421.8,163.855a4.361,4.361,0,0,0,2.714.1,4.839,4.839,0,0,0,1.808-2.136c-.468-.025-.978-.437-1.355-3.125l-.2.07-3.36,1.182s.235,1.077.385,2.1c.126.861.192,1.685.007,1.8" transform="translate(1011.883 2917.121)" fill="#ffc6b5"/>
    <path id="Trazado_185845" data-name="Trazado 185845" d="M421.406,159.962s.143.755.342,1.834a3.914,3.914,0,0,0,3.018-3.016Z" transform="translate(1011.883 2917.106)" fill="#efaa9a"/>
    <path id="Trazado_185846" data-name="Trazado 185846" d="M420.29,159.771s4.589-.583,4.182-3.435-.089-4.849-3.036-4.6-3.361,1.421-3.456,2.406,1.105,5.7,2.31,5.627" transform="translate(1012.493 2918.362)" fill="#ffc6b5"/>
    <path id="Trazado_185847" data-name="Trazado 185847" d="M418.2,152.529s2.917,2.551,4.912,2.769a3.826,3.826,0,0,0,2.755-.418A7.8,7.8,0,0,1,424,152.313a1.406,1.406,0,0,0-1.152-.836c-1.424-.133-4.127-.208-4.649,1.052" transform="translate(1012.453 2918.417)" fill="#23102d"/>
    <path id="Trazado_185848" data-name="Trazado 185848" d="M419.916,152.392a7.224,7.224,0,0,0-1.3,1.645,5.553,5.553,0,0,0-.172,2.949s-1.509-2.986-.632-4.425a1.223,1.223,0,0,1,2.107-.169" transform="translate(1012.571 2918.341)" fill="#23102d"/>
    <path id="Trazado_185849" data-name="Trazado 185849" d="M417.13,171.234c.073,9.283-.014,7.342.995,8.23a3.9,3.9,0,0,0,1.835.411c2.844.209,7.851-.224,8.045-.749.669-1.816.21-2.384.777-5.166.059-.3.132-.616.217-.965.47-1.911.919-2.559-.679-5.644a23.985,23.985,0,0,0-3.1-4.986c-3.893,2.274-4.191.338-4.191.338s-3.938,4-3.9,8.531" transform="translate(1012.643 2916.47)" fill="#e01650"/>
    <path id="Trazado_185850" data-name="Trazado 185850" d="M404.843,200.788l2.923,8.04a4.827,4.827,0,0,0,1.584-.133,6.878,6.878,0,0,0,1.537-.735s-.767-8.616-2.275-13.569Z" transform="translate(1014.827 2910.776)" fill="#4a2f54"/>
    <path id="Trazado_185851" data-name="Trazado 185851" d="M420.193,162.775s-3.994.648-4.474,2.362l-3.309,11.79s2.026.378,2.969-.552,3.321-8.668,3.321-8.668Z" transform="translate(1013.482 2916.396)" fill="#e01650"/>
    <path id="Trazado_185852" data-name="Trazado 185852" d="M420.572,181.544c2.845.209,7.851-.224,8.045-.749.669-1.816.21-2.384.777-5.166l-1.345-3.875s.2,4.306-1.081,5.429-5.212,2.149-5.836,3.09a3.47,3.47,0,0,0-.559,1.271" transform="translate(1012.031 2914.801)" fill="#bc1445"/>
    <path id="Trazado_185853" data-name="Trazado 185853" d="M423.477,181.388s-2.8-.645-3.258-.4a6.576,6.576,0,0,0-1.709,1.46c-.141.315,1.011-.233,1.384-.331a3.339,3.339,0,0,1,1.191.27,3.967,3.967,0,0,0,2.136.23Z" transform="translate(1012.4 2913.169)" fill="#ffc6b5"/>
    <path id="Trazado_185854" data-name="Trazado 185854" d="M426.445,162.363s3.768.259,5.061,2.089c1.819,2.575,5.386,13.521,3.287,14.963-2.364,1.624-10.708.354-10.708.354a3.4,3.4,0,0,1,.122-1.927c.391-.626,6.684-1.6,6.976-1.885s-3.586-5.682-3.58-6.552-1.158-7.041-1.158-7.041" transform="translate(1011.423 2916.47)" fill="#e01650"/>
    <path id="Trazado_185855" data-name="Trazado 185855" d="M420.18,181.95a5.424,5.424,0,0,1-.787.844.573.573,0,0,1-.318.066l.4-.71Z" transform="translate(1012.297 2912.988)" fill="#efaa9a"/>
    <path id="Trazado_185856" data-name="Trazado 185856" d="M420.22,181l-1.716.818a.3.3,0,0,0,.282.112,4.065,4.065,0,0,0,.743-.2Z" transform="translate(1012.399 2913.157)" fill="#efaa9a"/>
    <path id="Trazado_185857" data-name="Trazado 185857" d="M416.118,182.252l-13.53-.1-4-10.15,13.51.1Z" transform="translate(1015.938 2914.756)" fill="#23102d"/>
    <path id="Trazado_185858" data-name="Trazado 185858" d="M403.262,183.869l17.866.126,0,.395-17.708-.125Z" transform="translate(1015.108 2912.648)" fill="#23102d"/>
    <path id="Trazado_185859" data-name="Trazado 185859" d="M407.644,178.087a.468.468,0,0,1,.464-.641.923.923,0,0,1,.825.65.469.469,0,0,1-.464.641.923.923,0,0,1-.825-.65" transform="translate(1014.333 2913.788)" fill="#fff"/>
    <path id="Trazado_185860" data-name="Trazado 185860" d="M442.353,233.823H288.624a.338.338,0,0,1-.337-.337v-.057a.338.338,0,0,1,.337-.337H442.353a.338.338,0,0,1,.337.337v.057a.338.338,0,0,1-.337.337" transform="translate(1035.543 2903.899)" fill="#2d4f54"/>
    <text id="Ataques_de_diccionario" data-name="Ataques de diccionario" transform="translate(1331.295 3148.423)" fill="#500c75" font-size="18" font-family="Roboto-Black, Roboto" font-weight="800"><tspan x="16.001" y="19">Ataques de </tspan><tspan x="16.564" y="44">diccionario</tspan></text>
    <text id="Ataques_de_Fuerza_Bruta" data-name="Ataques de Fuerza Bruta" transform="translate(1618.773 3148.423)" fill="#500c75" font-size="18" font-family="Roboto-Black, Roboto" font-weight="800"><tspan x="22.177" y="19">Ataques de </tspan></text>
    <path id="Trazado_185861" data-name="Trazado 185861" d="M759.821,152.821v-.03c0-5.95-15.682-44.447-35.027-44.447s-35.028,38.5-35.028,44.447c0,.01,0,.02,0,.03s0,.018,0,.027c0,5.543,23.617,34.681,35.028,34.681,11.165,0,35.027-29.138,35.027-34.681v-.028Z" transform="translate(964.186 2926.07)" fill="#415e6f"/>
    <path id="Trazado_185862" data-name="Trazado 185862" d="M759.968,158.983H755.99V147.446h3.978a3.712,3.712,0,0,1,3.712,3.712v4.114a3.712,3.712,0,0,1-3.712,3.712" transform="translate(952.416 2919.121)" fill="#f4c892"/>
    <path id="Trazado_185863" data-name="Trazado 185863" d="M703.1,158.983h3.978V147.446H703.1a3.712,3.712,0,0,0-3.712,3.712v4.114a3.712,3.712,0,0,0,3.712,3.712" transform="translate(962.476 2919.121)" fill="#f4c892"/>
    <path id="Trazado_185864" data-name="Trazado 185864" d="M742.988,184.764l-2.51-.5a3.814,3.814,0,0,1-3.062-3.739v-3.615H721v3.708a3.814,3.814,0,0,1-3.063,3.738l-2.055.413v13.8h27.1Z" transform="translate(959.544 2913.885)" fill="#fed9a8"/>
    <path id="Trazado_185865" data-name="Trazado 185865" d="M727.728,169.637h0a21.457,21.457,0,0,1-21.457-21.457v-6.03a21.457,21.457,0,1,1,42.914,0v6.03a21.457,21.457,0,0,1-21.457,21.457" transform="translate(961.253 2923.876)" fill="#fed9a8"/>
    <path id="Trazado_185866" data-name="Trazado 185866" d="M731.156,120.694h0a21.481,21.481,0,0,0-5.6.739,21.464,21.464,0,0,1,15.86,20.718v6.03a21.465,21.465,0,0,1-15.86,20.718,21.469,21.469,0,0,0,27.054-20.718v-6.03a21.457,21.457,0,0,0-21.457-21.457" transform="translate(957.824 2923.875)" fill="#f4ce9f"/>
    <path id="Trazado_185867" data-name="Trazado 185867" d="M724.795,140.593c19.313,0,34.975,6.692,35.026,12.23,0-.01,0-.02,0-.03,0-5.95-15.682-44.447-35.028-44.447s-35.028,38.5-35.028,44.447c0,.01,0,.02,0,.03.051-5.538,15.713-12.23,35.026-12.23" transform="translate(964.186 2926.07)" fill="#5498c8"/>
    <path id="Trazado_185868" data-name="Trazado 185868" d="M731.282,108.345a15.8,15.8,0,0,0-5.017.848c12.493,4.182,22.858,22.9,27.456,34.646,7.669,2.445,12.558,5.893,12.586,8.983,0-.011,0-.021,0-.03,0-5.95-15.682-44.447-35.028-44.447" transform="translate(957.699 2926.07)" fill="#415e6f"/>
    <path id="Trazado_185869" data-name="Trazado 185869" d="M769.437,223.171c-.932-6.859-4.724-26.75-17.747-31.975l-14.853-4.631h-29.4L692.586,191.2c-13.022,5.226-16.814,25.116-17.746,31.975a2.065,2.065,0,0,0,2.049,2.342h90.5a2.066,2.066,0,0,0,2.049-2.342" transform="translate(966.843 2912.168)" fill="#5498c8"/>
    <path id="Trazado_185870" data-name="Trazado 185870" d="M780.37,223.171c-.932-6.859-4.724-26.75-17.747-31.975l-14.853-4.631H736.333l14.853,4.631C767,197.541,769.2,225.513,769.2,225.513h9.119a2.066,2.066,0,0,0,2.049-2.342" transform="translate(955.91 2912.168)" fill="#415e6f"/>
    <path id="Trazado_185871" data-name="Trazado 185871" d="M754.62,185.651H695.889a3.53,3.53,0,0,0-3.529,3.529v33.466H758.15V189.18a3.53,3.53,0,0,0-3.529-3.529" transform="translate(963.725 2912.331)" fill="#cfcfcf"/>
    <path id="Trazado_185872" data-name="Trazado 185872" d="M765.659,185.651H754.466A3.53,3.53,0,0,1,758,189.18v33.466h11.194V189.18a3.53,3.53,0,0,0-3.529-3.529" transform="translate(952.687 2912.331)" fill="#c2c4c6"/>
    <path id="Trazado_185873" data-name="Trazado 185873" d="M759.295,227.451H689.259a2.4,2.4,0,0,0-2.405,2.405v.52a2.406,2.406,0,0,0,2.405,2.405h70.036a2.406,2.406,0,0,0,2.405-2.405v-.52a2.4,2.4,0,0,0-2.405-2.405" transform="translate(964.704 2904.901)" fill="#9c9da0"/>
    <path id="Trazado_185874" data-name="Trazado 185874" d="M773.038,227.451H764.18v5.33h8.858a2.406,2.406,0,0,0,2.405-2.405v-.52a2.4,2.4,0,0,0-2.405-2.405" transform="translate(950.96 2904.901)" fill="#8d8f93"/>
    <path id="Trazado_185875" data-name="Trazado 185875" d="M731.3,202.253a4.938,4.938,0,1,1-4.938,4.938,4.938,4.938,0,0,1,4.938-4.938" transform="translate(957.682 2909.381)" fill="#fff"/>
    <path id="Trazado_185876" data-name="Trazado 185876" d="M736.555,154.22a13.726,13.726,0,0,0-10.69,0l.7,1.426c.079.161.167.317.258.47a11.672,11.672,0,0,1,8.8.012c.373-.763.56-1.145.934-1.908" transform="translate(957.77 2918.109)" fill="#4d4d4d"/>
    <path id="Trazado_185877" data-name="Trazado 185877" d="M756.866,153.879v-1.122h-7.375v1.589c0,.179.01.358.024.535h7.328c.015-.331.023-.665.023-1" transform="translate(953.571 2918.177)" fill="#4d4d4d"/>
    <path id="Trazado_185878" data-name="Trazado 185878" d="M706.271,152.757v1.122c0,.335.011.669.025,1h7.349v-2.124Z" transform="translate(961.253 2918.177)" fill="#4d4d4d"/>
    <path id="Trazado_185879" data-name="Trazado 185879" d="M722.82,159.493h-7.948a1.585,1.585,0,0,1-1.585-1.585v-4.524a1.585,1.585,0,0,1,1.585-1.585h9.907a1.585,1.585,0,0,1,1.585,1.585v2.565a3.544,3.544,0,0,1-3.544,3.544" transform="translate(960.006 2918.348)" fill="#4d4d4d"/>
    <path id="Trazado_185880" data-name="Trazado 185880" d="M739.085,159.493h7.947a1.586,1.586,0,0,0,1.586-1.585v-4.524a1.586,1.586,0,0,0-1.586-1.585h-9.906a1.586,1.586,0,0,0-1.586,1.585v2.565a3.545,3.545,0,0,0,3.545,3.544" transform="translate(956.051 2918.348)" fill="#4d4d4d"/>
    <path id="Trazado_185881" data-name="Trazado 185881" d="M747.436,151.8h-9.623v7.275a3.526,3.526,0,0,0,1.675.421h7.948a1.585,1.585,0,0,0,1.585-1.585v-4.525a1.585,1.585,0,0,0-1.585-1.585" transform="translate(955.647 2918.348)" fill="#353535"/>
    <path id="Trazado_185882" data-name="Trazado 185882" d="M725.182,151.8h-9.629v7.7h7.67a3.544,3.544,0,0,0,3.544-3.545v-2.565a1.585,1.585,0,0,0-1.585-1.585" transform="translate(959.603 2918.348)" fill="#353535"/>
    <rect id="Rectángulo_39070" data-name="Rectángulo 39070" width="204" height="166" rx="20" transform="translate(1958 3007)" fill="#ffecf2"/>
    <rect id="Rectángulo_39074" data-name="Rectángulo 39074" width="204" height="213" rx="20" transform="translate(922 2982)" fill="#ffecf2"/>
    <rect id="Rectángulo_39071" data-name="Rectángulo 39071" width="269" height="148" rx="20" transform="translate(1893 2832)" fill="#ffecf2"/>
    <rect id="Rectángulo_39073" data-name="Rectángulo 39073" width="269" height="148" rx="20" transform="translate(922 2821)" fill="#ffecf2"/>
    <text id="Cuanto_más_larga_sea_la_contraseña_más_tiempo_tardará_el_hacker_en_descifrarla." data-name="Cuanto más larga sea la contraseña, más tiempo tardará el hacker en descifrarla." transform="translate(1983 3026)" fill="#12263f" font-size="16" font-family="Roboto-Bold, Roboto" font-weight="700"><tspan x="0" y="17">Cuanto más larga </tspan><tspan x="0" y="41">sea la contraseña, </tspan><tspan x="0" y="65">más tiempo tardará </tspan><tspan x="0" y="89">el hacker en </tspan><tspan x="0" y="113">descifrarla.</tspan></text>
    <text id="Algunas_personas_pueden_pensar_que_si_usan_una_palabra_del_diccionario_pero_reemplazan_la_mayoría_de_las_letras_por_un_número_entonces_están_a_salvo." data-name="Algunas personas pueden pensar que, si usan una palabra del diccionario, pero reemplazan la mayoría de las letras por un número, entonces están a salvo." transform="translate(946 2994)" fill="#12263f" font-size="16" font-family="Roboto-Bold, Roboto" font-weight="700"><tspan x="0" y="17">Algunas personas </tspan><tspan x="0" y="41">pueden pensar que, si </tspan><tspan x="0" y="65">usan una palabra del </tspan><tspan x="0" y="89">diccionario, pero </tspan><tspan x="0" y="113">reemplazan la mayoría </tspan><tspan x="0" y="137">de las letras por un </tspan><tspan x="0" y="161">número, entonces </tspan></text>
    <text id="Los_ataques_de_diccionario_son_muy_simples_de_prevenir_no_uses_una_contraseña_que_esté_en_el_diccionario." data-name="Los ataques de diccionario son muy simples de prevenir, no uses una contraseña que esté en el diccionario." transform="translate(1918 2855)" fill="#12263f" font-size="16" font-family="Roboto-Bold, Roboto" font-weight="700"><tspan x="0" y="17">Los ataques de diccionario </tspan><tspan x="0" y="41">son muy simples de prevenir, </tspan><tspan x="0" y="65">no uses una contraseña que </tspan><tspan x="0" y="89">esté en el diccionario.</tspan></text>
    <text id="Los_ataques_de_diccionario_son_muy_simples_de_prevenir_no_uses_una_contraseña_que_esté_en_el_diccionario.-2" data-name="Los ataques de diccionario son muy simples de prevenir, no uses una contraseña que esté en el diccionario." transform="translate(946 2844)" fill="#12263f" font-size="16" font-family="Roboto-Bold, Roboto" font-weight="700"><tspan x="0" y="17">Los ataques de diccionario </tspan><tspan x="0" y="41">son muy simples de prevenir, </tspan><tspan x="0" y="65">no uses una contraseña que </tspan><tspan x="0" y="89">esté en el diccionario.</tspan></text>
  </g>
</svg>
