<svg xmlns="http://www.w3.org/2000/svg" xmlns:xlink="http://www.w3.org/1999/xlink" width="103.68" height="103.68" viewBox="0 0 103.68 103.68">
  <defs>
    <clipPath id="clip-path">
      <rect id="Rectángulo_37553" data-name="Rectángulo 37553" width="103.68" height="103.68" fill="none"/>
    </clipPath>
  </defs>
  <g id="Grupo_143581" data-name="Grupo 143581" transform="translate(-475 -5073.869)">
    <g id="Grupo_112118" data-name="Grupo 112118" transform="translate(475 5073.869)">
      <path id="Trazado_169490" data-name="Trazado 169490" d="M63.971,102.163H39.708L43.7,89.152H59.983Z" transform="translate(0 0)" fill="#5498c8"/>
      <g id="Grupo_112122" data-name="Grupo 112122" transform="translate(0)">
        <g id="Grupo_112121" data-name="Grupo 112121" clip-path="url(#clip-path)">
          <path id="Trazado_169491" data-name="Trazado 169491" d="M103.68,21.9V79.85A10.827,10.827,0,0,1,92.871,90.669H10.809A10.827,10.827,0,0,1,0,79.85V21.9A10.827,10.827,0,0,1,10.809,11.083H92.871A10.827,10.827,0,0,1,103.68,21.9" transform="translate(0 0)" fill="#4184a9"/>
          <path id="Trazado_169492" data-name="Trazado 169492" d="M103.68,21.9V79.85A10.827,10.827,0,0,1,92.871,90.669h-4.05A10.827,10.827,0,0,0,99.63,79.85V21.9A10.827,10.827,0,0,0,88.821,11.083h4.05A10.827,10.827,0,0,1,103.68,21.9" transform="translate(0 0)" fill="#415e6f"/>
          <path id="Trazado_169493" data-name="Trazado 169493" d="M97.621,21.652V73.833a4.81,4.81,0,0,1-4.8,4.805H10.862a4.809,4.809,0,0,1-4.8-4.805V21.652a4.809,4.809,0,0,1,4.8-4.805H92.818a4.81,4.81,0,0,1,4.8,4.805" transform="translate(0 0)" fill="#d9f0f4"/>
          <path id="Trazado_169494" data-name="Trazado 169494" d="M97.621,21.652V73.833a4.81,4.81,0,0,1-4.8,4.805h-4.05a4.81,4.81,0,0,0,4.8-4.805V21.652a4.81,4.81,0,0,0-4.8-4.805h4.05a4.81,4.81,0,0,1,4.8,4.805" transform="translate(0 0)" fill="#bae1e5"/>
          <path id="Trazado_169495" data-name="Trazado 169495" d="M71.83,100.647H31.85a1.517,1.517,0,1,0,0,3.033H71.83a1.517,1.517,0,1,0,0-3.033" transform="translate(0 0)" fill="#4184a9"/>
          <path id="Trazado_169496" data-name="Trazado 169496" d="M19.176,83.243h-6.2a1.517,1.517,0,1,0,0,3.033h6.2a1.517,1.517,0,1,0,0-3.033" transform="translate(0 0)" fill="#415e6f"/>
          <path id="Trazado_169497" data-name="Trazado 169497" d="M31.326,83.243h-6.2a1.517,1.517,0,1,0,0,3.033h6.2a1.517,1.517,0,1,0,0-3.033" transform="translate(0 0)" fill="#415e6f"/>
          <path id="Trazado_169498" data-name="Trazado 169498" d="M19.241,63.449H12.732a1.518,1.518,0,0,0,0,3.037h6.509a1.518,1.518,0,1,0,0-3.037" transform="translate(0 0)" fill="#90abbd"/>
          <path id="Trazado_169499" data-name="Trazado 169499" d="M11.213,72.056a1.519,1.519,0,0,0,1.519,1.519H23.285a1.519,1.519,0,0,0,0-3.038H12.732a1.519,1.519,0,0,0-1.519,1.519" transform="translate(0 0)" fill="#90abbd"/>
          <path id="Trazado_169500" data-name="Trazado 169500" d="M85.061,34.836A33.188,33.188,0,1,1,60.278,2.7,33.235,33.235,0,0,1,85.061,34.836Z" transform="translate(0 0)" fill="#d9f0f4"/>
          <path id="Trazado_169501" data-name="Trazado 169501" d="M85.061,34.836A33.235,33.235,0,0,1,60.278,66.974a34.864,34.864,0,0,0,0-64.278A33.235,33.235,0,0,1,85.061,34.836Z" transform="translate(0 0)" fill="#bae1e5"/>
          <path id="Trazado_169502" data-name="Trazado 169502" d="M51.84,0c-.81,0-1.617.029-2.413.083a34.834,34.834,0,0,0,0,69.5c.8.055,1.6.083,2.413.083A34.835,34.835,0,1,0,51.84,0M72.219,10.436a31.745,31.745,0,0,1,11.4,22.881h-9.96a47.8,47.8,0,0,0-5.311-21.37q1.792-.6,3.48-1.339c.132-.057.261-.114.391-.172M66.732,60.391q1.363.435,2.665.95a31.765,31.765,0,0,1-5.991,3.117A26.639,26.639,0,0,0,66.732,60.391ZM53.359,66.529V58.212a50.4,50.4,0,0,1,10.268,1.319c-2.956,4.054-6.513,6.481-10.268,7m12.006-9.694a52.923,52.923,0,0,0-12.006-1.661V48.9H50.321v6.275a52.923,52.923,0,0,0-12.006,1.661,44.246,44.246,0,0,1-5.256-20.48H50.321V41.81h3.038V36.355H70.621a44.246,44.246,0,0,1-5.256,20.48M33.059,33.317a44.235,44.235,0,0,1,5.256-20.481A52.866,52.866,0,0,0,50.32,14.5V33.317Zm20.3,0V14.5a52.867,52.867,0,0,0,12.006-1.662,44.247,44.247,0,0,1,5.256,20.481ZM63.627,10.14a50.188,50.188,0,0,1-10.268,1.318V3.142c3.755.516,7.312,2.943,10.268,7m-.221-4.926A31.64,31.64,0,0,1,69.4,8.329c-.867.344-1.756.663-2.665.95a26.717,26.717,0,0,0-3.326-4.065M50.321,3.142v8.316A50.188,50.188,0,0,1,40.053,10.14c2.955-4.055,6.512-6.482,10.268-7M40.274,5.214a26.717,26.717,0,0,0-3.326,4.065q-1.365-.435-2.666-.95a31.679,31.679,0,0,1,5.992-3.115m-8.813,5.222c1.245.559,2.538,1.063,3.87,1.511a47.823,47.823,0,0,0-5.311,21.37H20.061a31.742,31.742,0,0,1,11.4-22.881m-11.4,25.919h9.96a47.8,47.8,0,0,0,5.311,21.369q-2,.671-3.871,1.513a31.751,31.751,0,0,1-11.4-22.882M34.282,61.341q1.3-.516,2.666-.95a26.7,26.7,0,0,0,3.326,4.068A31.866,31.866,0,0,1,34.282,61.341Zm5.771-1.81a50.4,50.4,0,0,1,10.268-1.319v8.316c-3.756-.516-7.313-2.942-10.268-7m32.166-.3c-.13-.059-.257-.115-.389-.172q-1.686-.735-3.482-1.339a47.8,47.8,0,0,0,5.311-21.368h9.96A31.746,31.746,0,0,1,72.219,59.235Z" transform="translate(0 0)" fill="#79f5ed"/>
          <path id="Trazado_169503" data-name="Trazado 169503" d="M86.694,34.836A34.883,34.883,0,0,1,51.84,69.67c-.81,0-1.616-.029-2.412-.083a34.753,34.753,0,0,0,22.4-10.524c.131.056.259.113.389.172a31.748,31.748,0,0,0,11.4-22.88H81.6c.022-.5.032-1.011.032-1.519s-.01-1.017-.032-1.519h2.021a31.746,31.746,0,0,0-11.4-22.882c-.13.059-.26.115-.391.172A34.753,34.753,0,0,0,49.428.083C50.224.028,51.03,0,51.84,0A34.884,34.884,0,0,1,86.694,34.836Z" transform="translate(0 0)" fill="#62e8db"/>
          <path id="Trazado_169504" data-name="Trazado 169504" d="M23.261,12.647a5.064,5.064,0,1,1-5.066,5.064,5.065,5.065,0,0,1,5.066-5.064" transform="translate(0 0)" fill="#e01650"/>
          <path id="Trazado_169505" data-name="Trazado 169505" d="M51.84,40.289a5.064,5.064,0,1,0,5.066,5.064A5.071,5.071,0,0,0,51.84,40.289Z" transform="translate(0 0)" fill="#e01650"/>
          <path id="Trazado_169506" data-name="Trazado 169506" d="M71.127,18.992a5.064,5.064,0,1,1-5.066,5.064,5.065,5.065,0,0,1,5.066-5.064" transform="translate(0 0)" fill="#e01650"/>
        </g>
      </g>
    </g>
  </g>
</svg>
