<svg xmlns="http://www.w3.org/2000/svg" width="1235.452" height="310.42" viewBox="0 0 1235.452 310.42">
  <g id="Grupo_143592" data-name="Grupo 143592" transform="translate(9233.452 3444.102)">
    <line id="Línea_256" data-name="Línea 256" y2="62.446" transform="translate(-9099.242 -3203.5)" fill="none" stroke="#8f52f5" stroke-width="10"/>
    <line id="Línea_257" data-name="Línea 257" y2="62.446" transform="translate(-8784.288 -3203.5)" fill="none" stroke="#7142c1" stroke-width="10"/>
    <line id="Línea_258" data-name="Línea 258" y2="62.446" transform="translate(-8458.834 -3203.5)" fill="none" stroke="#7f17b7" stroke-width="10"/>
    <line id="Línea_259" data-name="Línea 259" y2="62.446" transform="translate(-8132.21 -3203.5)" fill="none" stroke="#b734fd" stroke-width="10"/>
    <path id="Trazado_181639" data-name="Trazado 181639" d="M327.493,277.064H569.406v6.284h-81.2l-9.8,8.46h-151.1Z" transform="translate(-9233.452 -3425.49)" fill="#7142c1"/>
    <path id="Trazado_181642" data-name="Trazado 181642" d="M652.542,277.064H894.455v6.284h-81.2l-9.8,8.46h-151.1Z" transform="translate(-9233.452 -3425.49)" fill="#7f17b7"/>
    <path id="Trazado_181645" data-name="Trazado 181645" d="M979.166,277.064h241.913v6.284h-81.2l-9.8,8.46h-151.1Z" transform="translate(-9233.452 -3425.49)" fill="#b734fd"/>
    <line id="Línea_175" data-name="Línea 175" x2="976.32" transform="translate(-9094.92 -3328.163)" fill="none" stroke="#7142c1" stroke-miterlimit="10" stroke-width="11"/>
    <path id="Trazado_181648" data-name="Trazado 181648" d="M67.1,0,0,116.229,67.1,232.458h134.21l67.1-116.229L201.315,0Z" transform="translate(-9233.452 -3444.102)" fill="#a7f"/>
    <path id="Trazado_181649" data-name="Trazado 181649" d="M75.845,15.138H192.574l58.365,101.091-58.365,101.09H75.845L17.48,116.229Z" transform="translate(-9233.452 -3444.102)" fill="#8f52f5"/>
    <path id="Trazado_181650" data-name="Trazado 181650" d="M81.679,25.242H186.741l52.531,90.986-52.531,90.987H81.679L29.148,116.229Z" transform="translate(-9233.452 -3444.102)" fill="#fff"/>
    <path id="Trazado_181651" data-name="Trazado 181651" d="M380.891,0,313.786,116.229l67.105,116.229H515.1l67.106-116.229L515.1,0Z" transform="translate(-9233.452 -3444.102)" fill="#8f52f5"/>
    <path id="Trazado_181652" data-name="Trazado 181652" d="M389.631,15.138H506.36l58.365,101.091L506.36,217.319H389.631l-58.365-101.09Z" transform="translate(-9233.452 -3444.102)" fill="#7142c1"/>
    <path id="Trazado_181653" data-name="Trazado 181653" d="M395.465,25.242H500.527l52.531,90.986-52.531,90.987H395.465l-52.531-90.987Z" transform="translate(-9233.452 -3444.102)" fill="#fff"/>
    <path id="Trazado_181654" data-name="Trazado 181654" d="M707.514,0,640.409,116.229l67.105,116.229h134.21l67.105-116.229L841.724,0Z" transform="translate(-9233.452 -3444.102)" fill="#b734fd"/>
    <path id="Trazado_181655" data-name="Trazado 181655" d="M716.254,15.138H832.983l58.365,101.091-58.365,101.09H716.254l-58.365-101.09Z" transform="translate(-9233.452 -3444.102)" fill="#7f17b7"/>
    <path id="Trazado_181656" data-name="Trazado 181656" d="M722.088,25.242H827.15l52.531,90.986L827.15,207.216H722.088l-52.531-90.987Z" transform="translate(-9233.452 -3444.102)" fill="#fff"/>
    <path id="Trazado_181657" data-name="Trazado 181657" d="M1034.137,0,967.032,116.229l67.105,116.229h134.21l67.1-116.229L1168.347,0Z" transform="translate(-9233.452 -3444.102)" fill="#7f17b7"/>
    <path id="Trazado_181658" data-name="Trazado 181658" d="M1042.877,15.138h116.729l58.365,101.091-58.365,101.09H1042.877l-58.365-101.09Z" transform="translate(-9233.452 -3444.102)" fill="#b734fd"/>
    <path id="Trazado_181659" data-name="Trazado 181659" d="M1048.711,25.242h105.062l52.531,90.986-52.531,90.987H1048.711L996.18,116.229Z" transform="translate(-9233.452 -3444.102)" fill="#fff"/>
    <path id="Trazado_181660" data-name="Trazado 181660" d="M160.67,240.8a26.46,26.46,0,1,1-26.46-26.46,26.461,26.461,0,0,1,26.46,26.46" transform="translate(-9233.452 -3444.102)" fill="#8f52f5"/>
    <path id="Trazado_181661" data-name="Trazado 181661" d="M153.11,240.8a18.9,18.9,0,1,1-18.9-18.9,18.9,18.9,0,0,1,18.9,18.9" transform="translate(-9233.452 -3444.102)" fill="#fff"/>
    <path id="Trazado_181662" data-name="Trazado 181662" d="M474.456,240.8A26.46,26.46,0,1,1,448,214.339a26.461,26.461,0,0,1,26.46,26.46" transform="translate(-9233.452 -3444.102)" fill="#7142c1"/>
    <path id="Trazado_181663" data-name="Trazado 181663" d="M466.9,240.8A18.9,18.9,0,1,1,448,221.9a18.9,18.9,0,0,1,18.9,18.9" transform="translate(-9233.452 -3444.102)" fill="#fff"/>
    <path id="Trazado_181664" data-name="Trazado 181664" d="M801.079,240.8a26.46,26.46,0,1,1-26.46-26.46,26.461,26.461,0,0,1,26.46,26.46" transform="translate(-9233.452 -3444.102)" fill="#7f17b7"/>
    <path id="Trazado_181665" data-name="Trazado 181665" d="M793.519,240.8a18.9,18.9,0,1,1-18.9-18.9,18.9,18.9,0,0,1,18.9,18.9" transform="translate(-9233.452 -3444.102)" fill="#fff"/>
    <path id="Trazado_181666" data-name="Trazado 181666" d="M1127.7,240.8a26.46,26.46,0,1,1-26.46-26.46,26.461,26.461,0,0,1,26.46,26.46" transform="translate(-9233.452 -3444.102)" fill="#b734fd"/>
    <path id="Trazado_181667" data-name="Trazado 181667" d="M1120.142,240.8a18.9,18.9,0,1,1-18.9-18.9,18.9,18.9,0,0,1,18.9,18.9" transform="translate(-9233.452 -3444.102)" fill="#fff"/>
    <path id="Trazado_181668" data-name="Trazado 181668" d="M111.271,90.435a1.506,1.506,0,0,1-1.076-.451L93.522,73.034a1.51,1.51,0,0,1,2.153-2.119l16.673,16.95a1.51,1.51,0,0,1-1.077,2.57" transform="translate(-9233.452 -3444.102)" fill="#c1c7d3"/>
    <path id="Trazado_181669" data-name="Trazado 181669" d="M157.141,90.435a1.51,1.51,0,0,1-1.077-2.57l16.673-16.95a1.51,1.51,0,0,1,2.153,2.119l-16.672,16.95a1.51,1.51,0,0,1-1.077.451" transform="translate(-9233.452 -3444.102)" fill="#c1c7d3"/>
    <path id="Trazado_181670" data-name="Trazado 181670" d="M94.6,151.6a1.51,1.51,0,0,1-1.077-2.57l16.673-16.95a1.511,1.511,0,0,1,2.154,2.119l-16.673,16.95a1.51,1.51,0,0,1-1.077.451" transform="translate(-9233.452 -3444.102)" fill="#c1c7d3"/>
    <path id="Trazado_181671" data-name="Trazado 181671" d="M173.814,151.6a1.508,1.508,0,0,1-1.077-.451L156.064,134.2a1.511,1.511,0,0,1,2.154-2.119l16.672,16.95a1.51,1.51,0,0,1-1.076,2.57" transform="translate(-9233.452 -3444.102)" fill="#c1c7d3"/>
    <path id="Trazado_181672" data-name="Trazado 181672" d="M166.02,110.994A31.821,31.821,0,1,0,134.2,142.822a31.826,31.826,0,0,0,31.821-31.828" transform="translate(-9233.452 -3444.102)" fill="#79f5ed"/>
    <path id="Trazado_181673" data-name="Trazado 181673" d="M134.2,79.164a31.793,31.793,0,0,0-3.9.24,31.83,31.83,0,0,1,0,63.179,31.829,31.829,0,1,0,3.9-63.419" transform="translate(-9233.452 -3444.102)" fill="#62e8db"/>
    <path id="Trazado_181674" data-name="Trazado 181674" d="M167.531,110.993a33.332,33.332,0,1,0-33.353,33.339h.041a33.373,33.373,0,0,0,33.312-33.339m-43.841,21.8a35.437,35.437,0,0,1-2.228-5.3,59.566,59.566,0,0,0,11.226,1.3v12.355c-3.334-.678-6.485-3.586-9-8.362m12.019,8.362V128.8a59.608,59.608,0,0,0,11.229-1.3,35.544,35.544,0,0,1-2.229,5.3c-2.513,4.777-5.664,7.685-9,8.362M134.2,125.8a56.19,56.19,0,0,1-13.707-1.631,57.272,57.272,0,0,1,0-26.35,58.408,58.408,0,0,1,27.413,0,57.272,57.272,0,0,1,0,26.35A56.188,56.188,0,0,1,134.2,125.8m-18.245-16.317h-11.9c.695-3.212,3.591-6.251,8.334-8.683a35.626,35.626,0,0,1,4.787-2.006,58.585,58.585,0,0,0-1.219,10.689m0,3.022a58.585,58.585,0,0,0,1.219,10.688,35.557,35.557,0,0,1-4.786-2.006c-4.743-2.432-7.64-5.47-8.334-8.682Zm19.754-31.676c3.336.678,6.487,3.587,9,8.363a35.532,35.532,0,0,1,2.229,5.295,59.692,59.692,0,0,0-11.229-1.3Zm-3.021,0V93.184a59.742,59.742,0,0,0-11.226,1.3,35.425,35.425,0,0,1,2.228-5.295c2.513-4.776,5.664-7.684,9-8.362m19.756,28.653a58.675,58.675,0,0,0-1.219-10.689,35.571,35.571,0,0,1,4.787,2.006c4.743,2.432,7.639,5.471,8.334,8.683Zm0,3.022h11.9c-.695,3.212-3.591,6.25-8.334,8.682a35.571,35.571,0,0,1-4.787,2.006,58.675,58.675,0,0,0,1.219-10.688m10.725-10.437a25.376,25.376,0,0,0-5.779-3.956,40.113,40.113,0,0,0-7.019-2.753,40.065,40.065,0,0,0-2.989-7.575,25.561,25.561,0,0,0-3.951-5.668,30.448,30.448,0,0,1,19.738,19.952m-38.2-19.952a25.525,25.525,0,0,0-3.95,5.668,40,40,0,0,0-2.99,7.575,40.176,40.176,0,0,0-7.019,2.753,25.343,25.343,0,0,0-5.779,3.956,30.448,30.448,0,0,1,19.738-19.952m-19.738,37.8a25.375,25.375,0,0,0,5.779,3.956,40.256,40.256,0,0,0,7.019,2.754,40.042,40.042,0,0,0,2.99,7.574,25.532,25.532,0,0,0,3.95,5.669,30.451,30.451,0,0,1-19.738-19.953m38.2,19.953a25.592,25.592,0,0,0,3.951-5.669,40.108,40.108,0,0,0,2.989-7.574,40.193,40.193,0,0,0,7.019-2.754,25.376,25.376,0,0,0,5.779-3.956,30.451,30.451,0,0,1-19.738,19.953" transform="translate(-9233.452 -3444.102)" fill="#7cc6c1"/>
    <path id="Trazado_181675" data-name="Trazado 181675" d="M135.527,118.5a1.511,1.511,0,1,1-1.511-1.51,1.511,1.511,0,0,1,1.511,1.51" transform="translate(-9233.452 -3444.102)" fill="#fff"/>
    <path id="Trazado_181676" data-name="Trazado 181676" d="M138.132,116.292a1.505,1.505,0,0,1-1.094-.469,4.03,4.03,0,0,0-5.755-.09,1.511,1.511,0,1,1-2.121-2.152,7.049,7.049,0,0,1,10.064.16,1.509,1.509,0,0,1-1.094,2.551" transform="translate(-9233.452 -3444.102)" fill="#fff"/>
    <path id="Trazado_181677" data-name="Trazado 181677" d="M141.977,112.448a1.5,1.5,0,0,1-1.082-.457,9.462,9.462,0,0,0-13.432-.125,1.51,1.51,0,0,1-2.125-2.147,12.479,12.479,0,0,1,17.72.164,1.51,1.51,0,0,1-1.081,2.565" transform="translate(-9233.452 -3444.102)" fill="#fff"/>
    <path id="Trazado_181678" data-name="Trazado 181678" d="M145.963,108.46a1.507,1.507,0,0,1-1.077-.452,15.1,15.1,0,0,0-21.389-.151,1.511,1.511,0,0,1-2.123-2.15,18.12,18.12,0,0,1,25.667.183,1.512,1.512,0,0,1-1.078,2.57" transform="translate(-9233.452 -3444.102)" fill="#fff"/>
    <path id="Trazado_181679" data-name="Trazado 181679" d="M96.465,67.646A5.955,5.955,0,1,0,90.51,73.6a5.956,5.956,0,0,0,5.955-5.956" transform="translate(-9233.452 -3444.102)" fill="#e01650"/>
    <path id="Trazado_181680" data-name="Trazado 181680" d="M183.865,67.646a5.955,5.955,0,1,0-5.954,5.956,5.956,5.956,0,0,0,5.954-5.956" transform="translate(-9233.452 -3444.102)" fill="#e01650"/>
    <path id="Trazado_181681" data-name="Trazado 181681" d="M96.465,154.616a5.955,5.955,0,1,0-5.955,5.956,5.956,5.956,0,0,0,5.955-5.956" transform="translate(-9233.452 -3444.102)" fill="#e01650"/>
    <path id="Trazado_181682" data-name="Trazado 181682" d="M96.465,111.032a5.955,5.955,0,1,0-5.955,5.956,5.955,5.955,0,0,0,5.955-5.956" transform="translate(-9233.452 -3444.102)" fill="#d2b7ff"/>
    <path id="Trazado_181683" data-name="Trazado 181683" d="M183.865,111.032a5.955,5.955,0,1,0-5.954,5.956,5.955,5.955,0,0,0,5.954-5.956" transform="translate(-9233.452 -3444.102)" fill="#d2b7ff"/>
    <path id="Trazado_181684" data-name="Trazado 181684" d="M140.154,67.322a5.955,5.955,0,1,0-5.954,5.957,5.955,5.955,0,0,0,5.954-5.957" transform="translate(-9233.452 -3444.102)" fill="#d2b7ff"/>
    <path id="Trazado_181685" data-name="Trazado 181685" d="M140.154,154.743A5.955,5.955,0,1,0,134.2,160.7a5.956,5.956,0,0,0,5.954-5.956" transform="translate(-9233.452 -3444.102)" fill="#d2b7ff"/>
    <path id="Trazado_181686" data-name="Trazado 181686" d="M183.865,154.616a5.955,5.955,0,1,0-5.954,5.956,5.956,5.956,0,0,0,5.954-5.956" transform="translate(-9233.452 -3444.102)" fill="#e01650"/>
    <path id="Trazado_181687" data-name="Trazado 181687" d="M96.465,67.646A5.955,5.955,0,0,1,90.509,73.6a5.886,5.886,0,0,1-1.913-.316,5.955,5.955,0,0,0,0-11.279,5.955,5.955,0,0,1,7.869,5.64" transform="translate(-9233.452 -3444.102)" fill="#bc1445"/>
    <path id="Trazado_181688" data-name="Trazado 181688" d="M183.865,67.646a5.955,5.955,0,0,1-5.954,5.955A5.883,5.883,0,0,1,176,73.285a5.955,5.955,0,0,0,0-11.279,5.954,5.954,0,0,1,7.868,5.64" transform="translate(-9233.452 -3444.102)" fill="#bc1445"/>
    <path id="Trazado_181689" data-name="Trazado 181689" d="M96.465,154.616a5.955,5.955,0,0,1-7.869,5.64,5.955,5.955,0,0,0,0-11.279,5.886,5.886,0,0,1,1.913-.317,5.956,5.956,0,0,1,5.956,5.956" transform="translate(-9233.452 -3444.102)" fill="#bc1445"/>
    <path id="Trazado_181690" data-name="Trazado 181690" d="M96.465,111.032a5.955,5.955,0,0,1-5.956,5.955,5.886,5.886,0,0,1-1.913-.316,5.955,5.955,0,0,0,0-11.279,5.955,5.955,0,0,1,7.869,5.64" transform="translate(-9233.452 -3444.102)" fill="#a7f"/>
    <path id="Trazado_181691" data-name="Trazado 181691" d="M183.865,111.032a5.955,5.955,0,0,1-5.954,5.955,5.883,5.883,0,0,1-1.914-.316,5.955,5.955,0,0,0,0-11.279,5.954,5.954,0,0,1,7.868,5.64" transform="translate(-9233.452 -3444.102)" fill="#a7f"/>
    <path id="Trazado_181692" data-name="Trazado 181692" d="M140.154,67.322a5.955,5.955,0,0,1-5.954,5.957,5.882,5.882,0,0,1-1.913-.316,5.957,5.957,0,0,0,0-11.281,5.953,5.953,0,0,1,7.867,5.64" transform="translate(-9233.452 -3444.102)" fill="#a7f"/>
    <path id="Trazado_181693" data-name="Trazado 181693" d="M140.154,154.743A5.955,5.955,0,0,1,134.2,160.7a5.882,5.882,0,0,1-1.913-.316,5.956,5.956,0,0,0,0-11.279,5.953,5.953,0,0,1,7.867,5.64" transform="translate(-9233.452 -3444.102)" fill="#a7f"/>
    <path id="Trazado_181694" data-name="Trazado 181694" d="M183.865,154.616a5.954,5.954,0,0,1-7.868,5.64,5.955,5.955,0,0,0,0-11.279,5.883,5.883,0,0,1,1.914-.317,5.955,5.955,0,0,1,5.954,5.956" transform="translate(-9233.452 -3444.102)" fill="#bc1445"/>
    <path id="Trazado_181695" data-name="Trazado 181695" d="M134.2,77.654a33.2,33.2,0,0,0-10.207,1.6q1.193-.09,2.408-.091a31.688,31.688,0,0,1,20.21,7.243,24.19,24.19,0,0,0-3.18-4.292,30.451,30.451,0,0,1,19.739,19.952,25.406,25.406,0,0,0-5.78-3.956q-1.158-.594-2.406-1.119a31.567,31.567,0,0,1,1.684,4.155c4.353,2.371,7.016,5.274,7.679,8.335h-6.161q.036.751.036,1.511t-.036,1.511h6.161c-.663,3.061-3.326,5.964-7.679,8.335A31.636,31.636,0,0,1,154.983,125c.831-.351,1.635-.724,2.406-1.12a25.374,25.374,0,0,0,5.78-3.956,30.453,30.453,0,0,1-19.739,19.953,24.189,24.189,0,0,0,3.18-4.292,31.692,31.692,0,0,1-20.21,7.242q-1.213,0-2.407-.09a33.179,33.179,0,0,0,10.185,1.6h.041a33.339,33.339,0,0,0-.02-66.678" transform="translate(-9233.452 -3444.102)" fill="#5bb8b2"/>
    <path id="Trazado_181696" data-name="Trazado 181696" d="M448,136.115h-11.81a2.94,2.94,0,1,1,0-5.881H448c1.624,0,1.314,1.3,1.314,2.928s.31,2.953-1.314,2.953" transform="translate(-9233.452 -3444.102)" fill="#ff5082"/>
    <path id="Trazado_181697" data-name="Trazado 181697" d="M474.554,78.557v39.856c0,1.623-1.317,1.775-2.941,1.775s-2.94-.152-2.94-1.775V81.5H448c-1.624,0-1.589-1.305-1.589-2.93s-.035-2.952,1.589-2.952h23.617a2.942,2.942,0,0,1,2.941,2.941" transform="translate(-9233.452 -3444.102)" fill="#ff5082"/>
    <path id="Trazado_181698" data-name="Trazado 181698" d="M474.554,78.557v39.856c0,1.623-1.317,1.958-2.941,1.958V75.616a2.942,2.942,0,0,1,2.941,2.941" transform="translate(-9233.452 -3444.102)" fill="#e01650"/>
    <path id="Trazado_181699" data-name="Trazado 181699" d="M483.412,147.492v9.744a2.721,2.721,0,0,1-2.941,2.427H462.757a2.721,2.721,0,0,1-2.941-2.427v-9.744a2.721,2.721,0,0,1,2.941-2.427h17.714A2.721,2.721,0,0,1,483.412,147.492Z" transform="translate(-9233.452 -3444.102)" fill="#143d66"/>
    <path id="Trazado_181700" data-name="Trazado 181700" d="M483.412,147.714v9.3c0,1.28-1.317,2.316-2.941,2.316h-8.857V145.4h8.857c1.624,0,2.941,1.036,2.941,2.316" transform="translate(-9233.452 -3444.102)" fill="#102840"/>
    <path id="Trazado_181701" data-name="Trazado 181701" d="M492.267,158.267a2.939,2.939,0,0,1-2.941,2.941H453.9a2.94,2.94,0,1,1,0-5.881h35.425a2.941,2.941,0,0,1,2.941,2.94" transform="translate(-9233.452 -3444.102)" fill="#195d80"/>
    <path id="Trazado_181702" data-name="Trazado 181702" d="M492.267,158.267a2.939,2.939,0,0,1-2.941,2.941H471.614v-5.881h17.712a2.941,2.941,0,0,1,2.941,2.94" transform="translate(-9233.452 -3444.102)" fill="#143d66"/>
    <rect id="Rectángulo_38415" data-name="Rectángulo 38415" width="47.235" height="27.954" transform="translate(-8785.456 -3325.688)" fill="#9ee2f8"/>
    <rect id="Rectángulo_38416" data-name="Rectángulo 38416" width="23.618" height="27.954" transform="translate(-8761.838 -3325.688)" fill="#8cbcff"/>
    <path id="Trazado_181703" data-name="Trazado 181703" d="M497.059,146.38a2.941,2.941,0,0,1-3.98,1.208l-21.463-11.473-20.963,11.208a2.941,2.941,0,0,1-2.776-5.185l17.487-9.364L448.6,123.811a2.941,2.941,0,1,1,2.772-5.187l20.249,10.8,21.744-11.643a2.941,2.941,0,0,1,2.776,5.185l-18.3,9.8,18.018,9.631a2.939,2.939,0,0,1,1.208,3.98" transform="translate(-9233.452 -3444.102)" fill="#ff5082"/>
    <path id="Trazado_181704" data-name="Trazado 181704" d="M497.059,146.38a2.941,2.941,0,0,1-3.98,1.208l-21.463-11.473v-6.689l21.744-11.643a2.941,2.941,0,0,1,2.776,5.185l-18.3,9.8,18.018,9.631a2.939,2.939,0,0,1,1.208,3.98" transform="translate(-9233.452 -3444.102)" fill="#e01650"/>
    <path id="Trazado_181705" data-name="Trazado 181705" d="M495.231,115.473H448a2.94,2.94,0,0,0-2.941,2.94v27.955a2.942,2.942,0,0,0,2.941,2.94h47.235a2.941,2.941,0,0,0,2.941-2.94V118.413a2.939,2.939,0,0,0-2.941-2.94m-2.94,27.954H450.937V121.354h41.354Z" transform="translate(-9233.452 -3444.102)" fill="#195d80"/>
    <path id="Trazado_181706" data-name="Trazado 181706" d="M498.172,118.413v27.954a2.941,2.941,0,0,1-2.941,2.941H471.614v-5.882h20.677V121.354H471.614v-5.882h23.617a2.939,2.939,0,0,1,2.941,2.941" transform="translate(-9233.452 -3444.102)" fill="#143d66"/>
    <path id="Trazado_181707" data-name="Trazado 181707" d="M436.176,92.668v10.158a2.758,2.758,0,0,1-2.941,2.529H415.521a2.758,2.758,0,0,1-2.941-2.529V92.668a2.759,2.759,0,0,1,2.941-2.53h17.714a2.758,2.758,0,0,1,2.941,2.53" transform="translate(-9233.452 -3444.102)" fill="#143d66"/>
    <path id="Trazado_181708" data-name="Trazado 181708" d="M436.176,92.713v10.068a2.75,2.75,0,0,1-2.941,2.508h-8.859V90.205h8.859a2.751,2.751,0,0,1,2.941,2.508" transform="translate(-9233.452 -3444.102)" fill="#102840"/>
    <path id="Trazado_181709" data-name="Trazado 181709" d="M445.032,103.651a2.939,2.939,0,0,1-2.941,2.941H406.666a2.941,2.941,0,0,1,0-5.882h35.425a2.941,2.941,0,0,1,2.941,2.941" transform="translate(-9233.452 -3444.102)" fill="#195d80"/>
    <path id="Trazado_181710" data-name="Trazado 181710" d="M445.032,103.651a2.939,2.939,0,0,1-2.941,2.941H424.377V100.71h17.714a2.941,2.941,0,0,1,2.941,2.941" transform="translate(-9233.452 -3444.102)" fill="#143d66"/>
    <rect id="Rectángulo_38417" data-name="Rectángulo 38417" width="47.235" height="27.954" transform="translate(-8832.691 -3380.305)" fill="#9ee2f8"/>
    <rect id="Rectángulo_38418" data-name="Rectángulo 38418" width="23.62" height="27.954" transform="translate(-8809.076 -3380.305)" fill="#8cbcff"/>
    <path id="Trazado_181711" data-name="Trazado 181711" d="M449.819,91.357a2.941,2.941,0,0,1-3.98,1.208L424.376,81.092,403.413,92.3a2.941,2.941,0,0,1-2.776-5.185l17.487-9.364-16.769-8.963a2.941,2.941,0,1,1,2.772-5.187l20.249,10.8L446.12,62.76a2.941,2.941,0,0,1,2.776,5.185l-18.3,9.8,18.018,9.631A2.939,2.939,0,0,1,449.819,91.357Z" transform="translate(-9233.452 -3444.102)" fill="#ff5082"/>
    <path id="Trazado_181712" data-name="Trazado 181712" d="M449.819,91.357a2.941,2.941,0,0,1-3.98,1.208L424.376,81.092V74.4L446.12,62.76a2.941,2.941,0,0,1,2.776,5.185l-18.3,9.8,18.018,9.631A2.939,2.939,0,0,1,449.819,91.357Z" transform="translate(-9233.452 -3444.102)" fill="#e01650"/>
    <path id="Trazado_181713" data-name="Trazado 181713" d="M448,60.856H400.761A2.94,2.94,0,0,0,397.82,63.8V91.751a2.941,2.941,0,0,0,2.941,2.941H448a2.943,2.943,0,0,0,2.941-2.941V63.8A2.941,2.941,0,0,0,448,60.856M445.055,88.81H403.7V66.737h41.354Z" transform="translate(-9233.452 -3444.102)" fill="#195d80"/>
    <path id="Trazado_181714" data-name="Trazado 181714" d="M450.937,63.8V91.751A2.942,2.942,0,0,1,448,94.692H424.377V88.81h20.679V66.738H424.377V60.856H448a2.941,2.941,0,0,1,2.941,2.941" transform="translate(-9233.452 -3444.102)" fill="#143d66"/>
    <path id="Trazado_181715" data-name="Trazado 181715" d="M439.127,133.174v7.381a2.942,2.942,0,0,1-2.941,2.941h-2.962v5.915a2.941,2.941,0,0,1-2.941,2.94H406.664a2.941,2.941,0,0,1-2.941-2.94V143.5h-2.962a2.941,2.941,0,0,1-2.941-2.941v-7.381a20.654,20.654,0,0,1,41.307,0" transform="translate(-9233.452 -3444.102)" fill="#c9fbf8"/>
    <path id="Trazado_181716" data-name="Trazado 181716" d="M439.127,133.174v7.381a2.942,2.942,0,0,1-2.941,2.941h-2.962v5.915a2.941,2.941,0,0,1-2.941,2.94H418.474v-39.83a20.677,20.677,0,0,1,20.653,20.653" transform="translate(-9233.452 -3444.102)" fill="#8beae1"/>
    <path id="Trazado_181717" data-name="Trazado 181717" d="M421.414,142.031v10.32h-5.881v-10.32a2.941,2.941,0,1,1,5.881,0" transform="translate(-9233.452 -3444.102)" fill="#5bb8b2"/>
    <path id="Trazado_181718" data-name="Trazado 181718" d="M421.414,142.031v10.32h-2.941V139.09a2.941,2.941,0,0,1,2.941,2.941" transform="translate(-9233.452 -3444.102)" fill="#7cc6c1"/>
    <path id="Trazado_181719" data-name="Trazado 181719" d="M412.57,133.162a2.942,2.942,0,1,1,2.942-2.942,2.943,2.943,0,0,1-2.942,2.942" transform="translate(-9233.452 -3444.102)" fill="#5bb8b2"/>
    <path id="Trazado_181720" data-name="Trazado 181720" d="M424.377,127.279a2.942,2.942,0,1,1-2.942,2.942,2.942,2.942,0,0,1,2.942-2.942" transform="translate(-9233.452 -3444.102)" fill="#5bb8b2"/>
    <path id="Trazado_181721" data-name="Trazado 181721" d="M779.73,77.21v45.985a1.027,1.027,0,0,0,1.027,1.027H827.9a1.027,1.027,0,0,0,1.027-1.027V77.21l-24.6-1.994Z" transform="translate(-9233.452 -3444.102)" fill="#f9f9f9"/>
    <path id="Trazado_181722" data-name="Trazado 181722" d="M823.176,76.612v46.583a1.027,1.027,0,0,1-1.027,1.027H827.9a1.026,1.026,0,0,0,1.026-1.027V77.21Z" transform="translate(-9233.452 -3444.102)" fill="#e6e6e6"/>
    <path id="Trazado_181723" data-name="Trazado 181723" d="M779.73,65.733V77.21h49.2V65.733a1.026,1.026,0,0,0-1.026-1.027H780.757a1.027,1.027,0,0,0-1.027,1.027" transform="translate(-9233.452 -3444.102)" fill="#79f5ed"/>
    <path id="Trazado_181724" data-name="Trazado 181724" d="M827.9,64.706h-5.75a1.026,1.026,0,0,1,1.026,1.027V77.21h5.751V65.733a1.027,1.027,0,0,0-1.027-1.027" transform="translate(-9233.452 -3444.102)" fill="#8cbcff"/>
    <path id="Trazado_181725" data-name="Trazado 181725" d="M768.331,117.279H756.067a29.209,29.209,0,0,0-29.21,29.209V157.4a1,1,0,0,0,1,1h68.689a1,1,0,0,0,1-1V146.488a29.209,29.209,0,0,0-29.209-29.209" transform="translate(-9233.452 -3444.102)" fill="#017297"/>
    <path id="Trazado_181726" data-name="Trazado 181726" d="M768.331,117.279h-5.75a29.209,29.209,0,0,1,29.209,29.209V158.4h4.753a1,1,0,0,0,1-1V146.488a29.209,29.209,0,0,0-29.209-29.209" transform="translate(-9233.452 -3444.102)" fill="#025f80"/>
    <path id="Trazado_181727" data-name="Trazado 181727" d="M752.315,110.4v7.5a9.883,9.883,0,0,0,19.767,0v-7.5Z" transform="translate(-9233.452 -3444.102)" fill="#fed2a4"/>
    <path id="Trazado_181728" data-name="Trazado 181728" d="M762.2,63.039a21.271,21.271,0,0,0-21.271,21.272V98.38a16,16,0,0,0,16,16h10.55a16,16,0,0,0,16-16V84.311A21.271,21.271,0,0,0,762.2,63.039" transform="translate(-9233.452 -3444.102)" fill="#017297"/>
    <path id="Trazado_181729" data-name="Trazado 181729" d="M762.2,63.039a21.4,21.4,0,0,0-2.67.167,21.274,21.274,0,0,1,18.6,21.1V98.38a16,16,0,0,1-16,16h5.34a16,16,0,0,0,16-16V84.311A21.271,21.271,0,0,0,762.2,63.039" transform="translate(-9233.452 -3444.102)" fill="#025f80"/>
    <path id="Trazado_181730" data-name="Trazado 181730" d="M770.009,79.431H754.388a5.806,5.806,0,1,0,0,11.611h15.621a5.806,5.806,0,1,0,0-11.611" transform="translate(-9233.452 -3444.102)" fill="#fed2a4"/>
    <path id="Trazado_181731" data-name="Trazado 181731" d="M762.2,96.53c4.778,0,8.651,2.626,8.651,5.867s-3.873,5.865-8.651,5.865-8.651-2.627-8.651-5.865,3.873-5.867,8.651-5.867" transform="translate(-9233.452 -3444.102)" fill="#fed2a4"/>
    <path id="Trazado_181732" data-name="Trazado 181732" d="M738.132,155.646l-3.784-19.515a1.66,1.66,0,0,1,1.629-1.975h52.442a1.66,1.66,0,0,1,1.629,1.975l-3.784,19.515L762.2,157.64Z" transform="translate(-9233.452 -3444.102)" fill="#e5eef9"/>
    <path id="Trazado_181733" data-name="Trazado 181733" d="M788.419,134.156h-5.545a1.66,1.66,0,0,1,1.629,1.975l-3.784,19.515,2.252,1,3.293-1,3.784-19.515a1.66,1.66,0,0,0-1.629-1.975" transform="translate(-9233.452 -3444.102)" fill="#c0d6f2"/>
    <path id="Trazado_181734" data-name="Trazado 181734" d="M762.2,141.464a3.438,3.438,0,1,1-3.438,3.437,3.438,3.438,0,0,1,3.438-3.437" transform="translate(-9233.452 -3444.102)" fill="#528fd8"/>
    <path id="Trazado_181735" data-name="Trazado 181735" d="M815,94.586a10.671,10.671,0,0,0-21.335,0c0,3.5,1.768,4.638,4.478,5a.861.861,0,0,1,.746.854v3.78a.863.863,0,0,0,.863.863h9.162a.863.863,0,0,0,.863-.863v-3.78a.86.86,0,0,1,.746-.854c2.71-.359,4.477-1.5,4.477-5" transform="translate(-9233.452 -3444.102)" fill="#e5eef9"/>
    <path id="Trazado_181736" data-name="Trazado 181736" d="M756.308,86.732h-.417a1.5,1.5,0,0,1,0-2.99h.417a1.5,1.5,0,0,1,0,2.99" transform="translate(-9233.452 -3444.102)" fill="#d77f4a"/>
    <path id="Trazado_181737" data-name="Trazado 181737" d="M768.505,86.732h-.417a1.5,1.5,0,0,1,0-2.99h.417a1.5,1.5,0,0,1,0,2.99" transform="translate(-9233.452 -3444.102)" fill="#d77f4a"/>
    <path id="Trazado_181738" data-name="Trazado 181738" d="M762.2,104.169a14.114,14.114,0,0,1-2.78-.277A1.495,1.495,0,1,1,760,100.96a11.137,11.137,0,0,0,4.388,0,1.495,1.495,0,0,1,.586,2.932,14.114,14.114,0,0,1-2.78.277" transform="translate(-9233.452 -3444.102)" fill="#d77f4a"/>
    <path id="Trazado_181739" data-name="Trazado 181739" d="M801.026,95.558a1.5,1.5,0,0,1-1.495-1.495V92.584a1.495,1.495,0,1,1,2.99,0v1.479a1.5,1.5,0,0,1-1.495,1.495" transform="translate(-9233.452 -3444.102)" fill="#017297"/>
    <path id="Trazado_181740" data-name="Trazado 181740" d="M807.631,95.558a1.5,1.5,0,0,1-1.495-1.495V92.584a1.495,1.495,0,1,1,2.99,0v1.479a1.5,1.5,0,0,1-1.495,1.495" transform="translate(-9233.452 -3444.102)" fill="#017297"/>
    <path id="Trazado_181741" data-name="Trazado 181741" d="M814.1,118.75a1.478,1.478,0,0,1-.578-.117l-19.549-8.207a1.5,1.5,0,0,1,1.158-2.757l19.549,8.207a1.5,1.5,0,0,1-.58,2.874" transform="translate(-9233.452 -3444.102)" fill="#025f80"/>
    <path id="Trazado_181742" data-name="Trazado 181742" d="M794.555,118.75a1.5,1.5,0,0,1-.58-2.874l19.549-8.207a1.5,1.5,0,0,1,1.158,2.757l-19.549,8.207a1.5,1.5,0,0,1-.578.117" transform="translate(-9233.452 -3444.102)" fill="#017297"/>
    <path id="Trazado_181743" data-name="Trazado 181743" d="M804.328,99.835a1.5,1.5,0,0,0-1.495,1.5v3.75h2.99v-3.75a1.5,1.5,0,0,0-1.495-1.5" transform="translate(-9233.452 -3444.102)" fill="#017297"/>
    <path id="Trazado_181744" data-name="Trazado 181744" d="M787.633,72.453h-.226a1.5,1.5,0,0,1,0-2.99h.226a1.5,1.5,0,0,1,0,2.99" transform="translate(-9233.452 -3444.102)" fill="#fe7d43"/>
    <path id="Trazado_181745" data-name="Trazado 181745" d="M794.025,72.453H793.8a1.5,1.5,0,1,1,0-2.99h.225a1.5,1.5,0,0,1,0,2.99" transform="translate(-9233.452 -3444.102)" fill="#ffd15b"/>
    <path id="Trazado_181746" data-name="Trazado 181746" d="M800.416,72.453h-.225a1.5,1.5,0,1,1,0-2.99h.225a1.5,1.5,0,0,1,0,2.99" transform="translate(-9233.452 -3444.102)" fill="#0573ce"/>
    <path id="Trazado_181747" data-name="Trazado 181747" d="M738.132,155.646v6.171a1.041,1.041,0,0,0,1.042,1.041h46.048a1.041,1.041,0,0,0,1.042-1.041v-6.171Z" transform="translate(-9233.452 -3444.102)" fill="#528fd8"/>
    <path id="Trazado_181748" data-name="Trazado 181748" d="M780.719,155.646v6.171a1.041,1.041,0,0,1-1.042,1.041h5.545a1.041,1.041,0,0,0,1.042-1.041v-6.171Z" transform="translate(-9233.452 -3444.102)" fill="#0573ce"/>
    <path id="Trazado_181749" data-name="Trazado 181749" d="M1121,78.646V98.591h-11.29V78.646a8.467,8.467,0,1,0-16.934,0V98.591h-11.29V78.646a19.757,19.757,0,0,1,39.514,0" transform="translate(-9233.452 -3444.102)" fill="#62729a"/>
    <path id="Trazado_181750" data-name="Trazado 181750" d="M1121,78.646V98.591h-11.29V78.646a8.456,8.456,0,0,0-8.467-8.467V58.889A19.778,19.778,0,0,1,1121,78.646" transform="translate(-9233.452 -3444.102)" fill="#48568b"/>
    <path id="Trazado_181751" data-name="Trazado 181751" d="M1078.662,115.526h-11.478a2.823,2.823,0,1,1,0-5.645h11.478a2.823,2.823,0,0,1,0,5.645" transform="translate(-9233.452 -3444.102)" fill="#79f5ed"/>
    <path id="Trazado_181752" data-name="Trazado 181752" d="M1135.111,115.526h-11.29a2.823,2.823,0,0,1,0-5.645h11.29a2.823,2.823,0,1,1,0,5.645" transform="translate(-9233.452 -3444.102)" fill="#8cbcff"/>
    <path id="Trazado_181753" data-name="Trazado 181753" d="M1104.064,129.638v22.768a2.823,2.823,0,1,1-5.645,0V129.638a2.823,2.823,0,0,1,5.645,0" transform="translate(-9233.452 -3444.102)" fill="#79f5ed"/>
    <path id="Trazado_181754" data-name="Trazado 181754" d="M1089.952,143.751a2.821,2.821,0,0,1-2.823-2.822v-11.29a2.823,2.823,0,1,1,5.646,0v11.29a2.821,2.821,0,0,1-2.823,2.822" transform="translate(-9233.452 -3444.102)" fill="#79f5ed"/>
    <path id="Trazado_181755" data-name="Trazado 181755" d="M1112.532,143.751a2.821,2.821,0,0,1-2.823-2.822v-11.29a2.823,2.823,0,1,1,5.645,0v11.29a2.82,2.82,0,0,1-2.822,2.822" transform="translate(-9233.452 -3444.102)" fill="#8cbcff"/>
    <path id="Trazado_181756" data-name="Trazado 181756" d="M1140.756,126.816H1121l5.645,5.645h11.289v8.467a2.823,2.823,0,1,0,5.645,0v-11.29a2.82,2.82,0,0,0-2.822-2.822" transform="translate(-9233.452 -3444.102)" fill="#8cbcff"/>
    <path id="Trazado_181757" data-name="Trazado 181757" d="M1140.756,81.657a2.821,2.821,0,0,0-2.823,2.822v8.468h-11.289L1121,98.592h19.757a2.821,2.821,0,0,0,2.822-2.823V84.479a2.82,2.82,0,0,0-2.822-2.822" transform="translate(-9233.452 -3444.102)" fill="#8cbcff"/>
    <path id="Trazado_181758" data-name="Trazado 181758" d="M1075.84,92.947h-11.478V84.48a2.823,2.823,0,1,0-5.645,0V95.769a2.821,2.821,0,0,0,2.823,2.823h19.945Z" transform="translate(-9233.452 -3444.102)" fill="#79f5ed"/>
    <path id="Trazado_181759" data-name="Trazado 181759" d="M1081.485,126.816H1061.54a2.821,2.821,0,0,0-2.823,2.822v11.29a2.823,2.823,0,1,0,5.645,0v-8.467h11.478Z" transform="translate(-9233.452 -3444.102)" fill="#79f5ed"/>
    <path id="Trazado_181760" data-name="Trazado 181760" d="M1104.064,129.638v22.768a2.8,2.8,0,0,1-2.823,2.823V126.816a2.8,2.8,0,0,1,2.823,2.822" transform="translate(-9233.452 -3444.102)" fill="#8cbcff"/>
    <path id="Trazado_181761" data-name="Trazado 181761" d="M1140.756,87.3a8.468,8.468,0,0,1,0-16.935,8.47,8.47,0,1,1,0,16.935" transform="translate(-9233.452 -3444.102)" fill="#8cbcff"/>
    <path id="Trazado_181762" data-name="Trazado 181762" d="M1140.756,121.171a8.467,8.467,0,0,1,0-16.935,8.47,8.47,0,1,1,0,16.935" transform="translate(-9233.452 -3444.102)" fill="#8cbcff"/>
    <path id="Trazado_181763" data-name="Trazado 181763" d="M1140.756,155.229a8.639,8.639,0,0,1-8.467-8.656,8.476,8.476,0,0,1,8.467-8.467,8.64,8.64,0,0,1,8.656,8.467,8.8,8.8,0,0,1-8.656,8.656" transform="translate(-9233.452 -3444.102)" fill="#8cbcff"/>
    <path id="Trazado_181764" data-name="Trazado 181764" d="M1061.539,155.229a8.639,8.639,0,0,1-8.467-8.656,8.467,8.467,0,1,1,16.934,0,8.639,8.639,0,0,1-8.467,8.656" transform="translate(-9233.452 -3444.102)" fill="#79f5ed"/>
    <path id="Trazado_181765" data-name="Trazado 181765" d="M1061.539,121.171a8.467,8.467,0,1,1,8.467-8.467,8.476,8.476,0,0,1-8.467,8.467" transform="translate(-9233.452 -3444.102)" fill="#79f5ed"/>
    <path id="Trazado_181766" data-name="Trazado 181766" d="M1061.539,87.3a8.468,8.468,0,1,1,8.467-8.467,8.476,8.476,0,0,1-8.467,8.467" transform="translate(-9233.452 -3444.102)" fill="#79f5ed"/>
    <rect id="Rectángulo_38419" data-name="Rectángulo 38419" width="50.804" height="39.514" transform="translate(-8157.612 -3351.155)" fill="#ffe375"/>
    <rect id="Rectángulo_38420" data-name="Rectángulo 38420" width="25.402" height="39.514" transform="translate(-8132.21 -3351.155)" fill="#ffb725"/>
    <path id="Trazado_181767" data-name="Trazado 181767" d="M1101.242,109.881a2.823,2.823,0,1,1-2.822,2.822,2.823,2.823,0,0,1,2.822-2.822" transform="translate(-9233.452 -3444.102)" fill="#62729a"/>
    <path id="Trazado_181768" data-name="Trazado 181768" d="M1089.952,109.881a2.823,2.823,0,1,1-2.823,2.822,2.823,2.823,0,0,1,2.823-2.822" transform="translate(-9233.452 -3444.102)" fill="#62729a"/>
    <path id="Trazado_181769" data-name="Trazado 181769" d="M1112.532,109.881a2.823,2.823,0,1,1-2.823,2.822,2.822,2.822,0,0,1,2.823-2.822" transform="translate(-9233.452 -3444.102)" fill="#48568b"/>
    <path id="Trazado_181770" data-name="Trazado 181770" d="M1104.064,112.7a2.8,2.8,0,0,1-2.823,2.822v-5.644a2.8,2.8,0,0,1,2.823,2.822" transform="translate(-9233.452 -3444.102)" fill="#48568b"/>
    <path id="Trazado_181771" data-name="Trazado 181771" d="M12.133,277.064H254.046v6.284h-81.2l-9.8,8.46H11.946Z" transform="translate(-9233.452 -3425.49)" fill="#8f52f5"/>
  </g>
</svg>
