<svg xmlns="http://www.w3.org/2000/svg" xmlns:xlink="http://www.w3.org/1999/xlink" width="1197.395" height="645.64" viewBox="0 0 1197.395 645.64">
  <defs>
    <clipPath id="clip-path">
      <rect id="Rectángulo_37758" data-name="Rectángulo 37758" width="1197.395" height="645.64" fill="none"/>
    </clipPath>
  </defs>
  <g id="Grupo_143598" data-name="Grupo 143598" transform="translate(2270 10552)">
    <g id="Grupo_112285" data-name="Grupo 112285" transform="translate(-2270 -10552)">
      <g id="Grupo_112240" data-name="Grupo 112240">
        <g id="Grupo_112239" data-name="Grupo 112239" clip-path="url(#clip-path)">
          <path id="Trazado_176899" data-name="Trazado 176899" d="M440.839,187.6H245.585a8.184,8.184,0,0,1-8.16-8.16V128.682a8.184,8.184,0,0,1,8.16-8.16H440.839a8.184,8.184,0,0,1,8.16,8.16v50.763a8.184,8.184,0,0,1-8.16,8.16" fill="#7142c1"/>
          <path id="Trazado_176900" data-name="Trazado 176900" d="M440.044,182.054h-189.7a8.183,8.183,0,0,1-8.159-8.16V129.468a8.183,8.183,0,0,1,8.159-8.16h189.7a8.184,8.184,0,0,1,8.16,8.16v44.426a8.184,8.184,0,0,1-8.16,8.16" fill="#fff"/>
        </g>
      </g>
      <text id="para_acceder_a_algo_que_" data-name="para acceder a algo que " transform="translate(259.798 145.195)" fill="#5c379b" font-size="14.768" font-family="Roboto-Regular, Roboto"><tspan x="0" y="0">pa</tspan><tspan y="0" letter-spacing="-0.019em">r</tspan><tspan y="0">a acceder a algo que </tspan></text>
      <text id="no_debería_ser_accesible._" data-name="no debería ser accesible. " transform="translate(259.798 162.916)" fill="#5c379b" font-size="14.768" font-family="Roboto-Regular, Roboto"><tspan x="0" y="0">no debería ser accesible. </tspan></text>
      <g id="Grupo_112242" data-name="Grupo 112242">
        <g id="Grupo_112241" data-name="Grupo 112241" clip-path="url(#clip-path)">
          <path id="Trazado_176901" data-name="Trazado 176901" d="M370.354,465.371H199.3a8.184,8.184,0,0,1-8.16-8.16V406.346a8.184,8.184,0,0,1,8.16-8.16H370.354a8.184,8.184,0,0,1,8.16,8.16v50.865a8.184,8.184,0,0,1-8.16,8.16" fill="#7142c1"/>
          <path id="Trazado_176902" data-name="Trazado 176902" d="M369.424,459.82H203.512a8.184,8.184,0,0,1-8.16-8.16V407.234a8.184,8.184,0,0,1,8.16-8.16H369.424a8.184,8.184,0,0,1,8.16,8.16V451.66a8.184,8.184,0,0,1-8.16,8.16" fill="#fff"/>
        </g>
      </g>
      <text id="utilizan_diversas_técnicas_" data-name="utilizan diversas técnicas " transform="translate(200.521 424.537)" fill="#5c379b" font-size="14.768" font-family="Roboto-Regular, Roboto"><tspan x="0" y="0">utilizan di</tspan><tspan y="0" letter-spacing="-0.006em">v</tspan><tspan y="0">ersas técnicas </tspan></text>
      <text id="de_escalada_de_privilegios._" data-name="de escalada de privilegios. " transform="translate(200.521 442.259)" fill="#5c379b" font-size="14.768" font-family="Roboto-Regular, Roboto"><tspan x="0" y="0">de escalada de privilegios. </tspan></text>
      <g id="Grupo_112244" data-name="Grupo 112244">
        <g id="Grupo_112243" data-name="Grupo 112243" clip-path="url(#clip-path)">
          <path id="Trazado_176903" data-name="Trazado 176903" d="M307.85,476.72l-7.129-14.257h14.258Z" fill="#7142c1"/>
          <path id="Trazado_176904" data-name="Trazado 176904" d="M326.991,199.843l-7.129-14.257H334.12Z" fill="#7142c1"/>
          <path id="Trazado_176905" data-name="Trazado 176905" d="M167.771,566.186a9.98,9.98,0,1,1-9.98-9.98,9.98,9.98,0,0,1,9.98,9.98" fill="#5c379b"/>
          <path id="Trazado_176906" data-name="Trazado 176906" d="M147.811,489.944a9.98,9.98,0,1,1-9.98-9.98,9.98,9.98,0,0,1,9.98,9.98" fill="#5c379b"/>
          <path id="Trazado_176907" data-name="Trazado 176907" d="M319.256,486.7a9.98,9.98,0,1,1-9.98-9.98,9.98,9.98,0,0,1,9.98,9.98" fill="#5c379b"/>
          <path id="Trazado_176908" data-name="Trazado 176908" d="M332.088,212.839a9.98,9.98,0,1,1-9.98-9.98,9.98,9.98,0,0,1,9.98,9.98" fill="#5c379b"/>
          <path id="Trazado_176909" data-name="Trazado 176909" d="M988.6,92.943a11.049,11.049,0,1,1-11.049-11.049A11.049,11.049,0,0,1,988.6,92.943" fill="#5bb8b2"/>
          <path id="Trazado_176910" data-name="Trazado 176910" d="M1069.869,175.057a11.05,11.05,0,1,1-11.051-11.049,11.05,11.05,0,0,1,11.051,11.049" fill="#5bb8b2"/>
          <path id="Trazado_176911" data-name="Trazado 176911" d="M876.841,169.829A11.05,11.05,0,1,1,865.79,158.78a11.05,11.05,0,0,1,11.051,11.049" fill="#efbe45"/>
          <path id="Trazado_176912" data-name="Trazado 176912" d="M896.8,277.622a11.049,11.049,0,1,1-11.049-11.049A11.049,11.049,0,0,1,896.8,277.622" fill="#efbe45"/>
          <path id="Trazado_176913" data-name="Trazado 176913" d="M304.286,487.033s-62.816,6.392-103.765,0-60.552,2.841-60.552,2.841" fill="none" stroke="#5c379b" stroke-miterlimit="10" stroke-width="4"/>
          <path id="Trazado_176914" data-name="Trazado 176914" d="M309.276,487.327s-31.25-1.262-76.459,43.689a95.389,95.389,0,0,1-11.99,10.169c-12.391,8.8-37.623,24.238-63.036,25" fill="none" stroke="#5c379b" stroke-miterlimit="10" stroke-width="4"/>
          <path id="Trazado_176915" data-name="Trazado 176915" d="M260.444,542.661H220.557a6.535,6.535,0,0,1-6.535-6.535V523.413a6.534,6.534,0,0,1,6.535-6.534h39.887a6.534,6.534,0,0,1,6.535,6.534v12.713a6.535,6.535,0,0,1-6.535,6.535" fill="#dbcdf9"/>
        </g>
      </g>
      <text id="Para_" data-name="Para  " transform="translate(223.651 534.133)" fill="#5c379b" font-size="14.768" font-family="Roboto-Regular, Roboto"><tspan x="0" y="0" letter-spacing="-0.005em">P</tspan><tspan y="0">a</tspan><tspan y="0" letter-spacing="-0.019em">r</tspan><tspan y="0" xml:space="preserve">a  </tspan></text>
      <g id="Grupo_112246" data-name="Grupo 112246">
        <g id="Grupo_112245" data-name="Grupo 112245" clip-path="url(#clip-path)">
          <path id="Trazado_176916" data-name="Trazado 176916" d="M222.187,499.925H182.3a6.535,6.535,0,0,1-6.535-6.535V480.677a6.534,6.534,0,0,1,6.535-6.534h39.887a6.534,6.534,0,0,1,6.535,6.534V493.39a6.535,6.535,0,0,1-6.535,6.535" fill="#dbcdf9"/>
        </g>
      </g>
      <text id="Para_2" data-name="Para  " transform="translate(185.394 491.397)" fill="#5c379b" font-size="14.768" font-family="Roboto-Regular, Roboto"><tspan x="0" y="0" letter-spacing="-0.005em">P</tspan><tspan y="0">a</tspan><tspan y="0" letter-spacing="-0.019em">r</tspan><tspan y="0" xml:space="preserve">a  </tspan></text>
      <g id="Grupo_112248" data-name="Grupo 112248">
        <g id="Grupo_112247" data-name="Grupo 112247" clip-path="url(#clip-path)">
          <path id="Trazado_176917" data-name="Trazado 176917" d="M539.771,361.073s-52.752-20.63-133.545,83.449c0,0-37.069,51.736-99.445,39.65" fill="none" stroke="#5c379b" stroke-miterlimit="10" stroke-width="4"/>
          <path id="Trazado_176918" data-name="Trazado 176918" d="M492.722,438.7h-100.6a6.535,6.535,0,0,1-6.535-6.535v-18.3a6.534,6.534,0,0,1,6.535-6.534h100.6a6.534,6.534,0,0,1,6.535,6.534v18.3a6.535,6.535,0,0,1-6.535,6.535" fill="#dbcdf9"/>
        </g>
      </g>
      <text id="Los_atacantes_" data-name="Los atacantes  " transform="translate(394.574 427.3)" fill="#5c379b" font-size="14.768" font-family="Roboto-Regular, Roboto"><tspan x="0" y="0" xml:space="preserve">Los atacantes  </tspan></text>
      <g id="Grupo_112250" data-name="Grupo 112250">
        <g id="Grupo_112249" data-name="Grupo 112249" clip-path="url(#clip-path)">
          <path id="Trazado_176919" data-name="Trazado 176919" d="M319.863,210.7S381.8,199.295,431.8,284.84s69.48,69.776,116.055,74.571" fill="none" stroke="#5c379b" stroke-miterlimit="10" stroke-width="4"/>
          <path id="Trazado_176920" data-name="Trazado 176920" d="M486.425,288.641H356.682a6.534,6.534,0,0,1-6.534-6.535v-18.3a6.534,6.534,0,0,1,6.534-6.534H486.425a6.534,6.534,0,0,1,6.535,6.534v18.3a6.535,6.535,0,0,1-6.535,6.535" fill="#dbcdf9"/>
        </g>
      </g>
      <text id="Obtener_privilegios_" data-name="Obtener privilegios " transform="translate(361.145 276.527)" fill="#5c379b" font-size="14.768" font-family="Roboto-Regular, Roboto"><tspan x="0" y="0">Obtener privilegios </tspan></text>
      <g id="Grupo_112252" data-name="Grupo 112252">
        <g id="Grupo_112251" data-name="Grupo 112251" clip-path="url(#clip-path)">
          <rect id="Rectángulo_37764" data-name="Rectángulo 37764" width="175.765" height="57.502" transform="translate(0 414.291)" fill="#7142c1"/>
          <rect id="Rectángulo_37765" data-name="Rectángulo 37765" width="162.753" height="44.808" transform="translate(6.953 420.639)" fill="#fff"/>
        </g>
      </g>
      <text id="acceder_a_recursos_" data-name="acceder a recursos " transform="translate(23.969 437.341)" fill="#5c379b" font-size="14.768" font-family="Roboto-Regular, Roboto"><tspan x="0" y="0">acceder a </tspan><tspan y="0" letter-spacing="-0.009em">r</tspan><tspan y="0">ecursos </tspan></text>
      <text id="no_autorizados_" data-name="no autorizados,   " transform="translate(23.969 455.063)" fill="#5c379b" font-size="14.768" font-family="Roboto-Regular, Roboto"><tspan x="0" y="0">no au</tspan><tspan y="0" letter-spacing="-0.009em">t</tspan><tspan y="0" xml:space="preserve">orizados,   </tspan></text>
      <g id="Grupo_112254" data-name="Grupo 112254">
        <g id="Grupo_112253" data-name="Grupo 112253" clip-path="url(#clip-path)">
          <rect id="Rectángulo_37767" data-name="Rectángulo 37767" width="175.765" height="57.502" transform="translate(69.909 588.138)" fill="#7142c1"/>
          <rect id="Rectángulo_37768" data-name="Rectángulo 37768" width="162.753" height="44.808" transform="translate(76.861 594.485)" fill="#fff"/>
        </g>
      </g>
      <text id="la_seguridad_de_las_" data-name="la seguridad de las " transform="translate(93.877 611.187)" fill="#5c379b" font-size="14.768" font-family="Roboto-Regular, Roboto"><tspan x="0" y="0">la seguridad de las </tspan></text>
      <text id="aplicaciones_web_" data-name="aplicaciones web, " transform="translate(93.877 628.909)" fill="#5c379b" font-size="14.768" font-family="Roboto-Regular, Roboto"><tspan x="0" y="0">aplicaciones </tspan><tspan y="0" font-family="Roboto-Italic, Roboto" font-style="italic">web</tspan><tspan y="0">, </tspan></text>
      <g id="Grupo_112256" data-name="Grupo 112256">
        <g id="Grupo_112255" data-name="Grupo 112255" clip-path="url(#clip-path)">
          <path id="Trazado_176921" data-name="Trazado 176921" d="M659.058,96.92S698.5,118.027,739.85,116.6s105.03,28.991,125.941,53.228" fill="none" stroke="#efbe45" stroke-miterlimit="10" stroke-width="5"/>
          <path id="Trazado_176922" data-name="Trazado 176922" d="M845.474,150.267H680.021a6.535,6.535,0,0,1-6.535-6.535V114.5a6.535,6.535,0,0,1,6.535-6.535H845.474a6.535,6.535,0,0,1,6.535,6.535v29.227a6.535,6.535,0,0,1-6.535,6.535" fill="#f9e39b"/>
        </g>
      </g>
      <text id="malintencionadas_suelen_" data-name="malintencionadas suelen " transform="translate(681.565 123.067)" fill="#1a1a1a" font-size="14.768" font-family="Roboto-Regular, Roboto"><tspan x="0" y="0">malintencionadas suelen </tspan></text>
      <text id="utilizar_los_ataques_web_" data-name="utilizar los ataques web " transform="translate(681.565 140.788)" fill="#1a1a1a" font-size="14.768" font-family="Roboto-Regular, Roboto"><tspan x="0" y="0">utilizar los ataques web </tspan></text>
      <g id="Grupo_112258" data-name="Grupo 112258">
        <g id="Grupo_112257" data-name="Grupo 112257" clip-path="url(#clip-path)">
          <path id="Trazado_176923" data-name="Trazado 176923" d="M862.464,175.057s-49.37,37.382-7.723,47.443,49.545,9.587,49.545,9.587" fill="none" stroke="#efbe45" stroke-miterlimit="10" stroke-width="5"/>
          <path id="Trazado_176924" data-name="Trazado 176924" d="M629.593,364.681s36.119-3.327,63.683-66.059c0,0,28.515-50.625,63.208-45.748" fill="none" stroke="#efbe45" stroke-miterlimit="10" stroke-width="5"/>
          <path id="Trazado_176925" data-name="Trazado 176925" d="M633.039,386.542H534.424a6.534,6.534,0,0,1-6.533-6.535V342.7a6.533,6.533,0,0,1,6.533-6.534h98.615a6.534,6.534,0,0,1,6.534,6.534v37.307a6.535,6.535,0,0,1-6.534,6.535" fill="#5c379b"/>
        </g>
      </g>
      <text id="La_escalada_de_" data-name="La escalada de " transform="translate(533.481 356.99)" fill="#fff" font-size="14.768" font-family="Roboto-Regular, Roboto"><tspan x="0" y="0">La escalada de </tspan></text>
      <text id="privilegios_" data-name="privilegios  " transform="translate(533.481 374.711)" fill="#fff" font-size="14.768" font-family="Roboto-Regular, Roboto"><tspan x="0" y="0" xml:space="preserve">privilegios  </tspan></text>
      <g id="Grupo_112260" data-name="Grupo 112260">
        <g id="Grupo_112259" data-name="Grupo 112259" clip-path="url(#clip-path)">
          <path id="Trazado_176926" data-name="Trazado 176926" d="M881.593,213.154H757.962a6.535,6.535,0,0,1-6.535-6.535v-10.77a6.535,6.535,0,0,1,6.535-6.535H881.593a6.535,6.535,0,0,1,6.535,6.535v10.77a6.535,6.535,0,0,1-6.535,6.535" fill="#f9e39b"/>
        </g>
      </g>
      <text id="_porque_las_partes_" data-name=" porque las partes  " transform="translate(759.506 204.412)" fill="#1a1a1a" font-size="14.768" font-family="Roboto-Regular, Roboto"><tspan x="0" y="0" xml:space="preserve"> po</tspan><tspan y="0" letter-spacing="-0.009em">r</tspan><tspan y="0">que las pa</tspan><tspan y="0" letter-spacing="0.024em">r</tspan><tspan y="0" xml:space="preserve">tes  </tspan></text>
      <g id="Grupo_112262" data-name="Grupo 112262">
        <g id="Grupo_112261" data-name="Grupo 112261" clip-path="url(#clip-path)">
          <path id="Trazado_176927" data-name="Trazado 176927" d="M622.94,364.681s37.544-16.158,139.484,47.525c0,0,58.693,30.375,148.04,24.455" fill="none" stroke="#efbe45" stroke-miterlimit="10" stroke-width="5"/>
          <path id="Trazado_176928" data-name="Trazado 176928" d="M784.754,405.077H672.443a6.534,6.534,0,0,1-6.534-6.535v-10.77a6.534,6.534,0,0,1,6.534-6.535H784.754a6.535,6.535,0,0,1,6.535,6.535v10.77a6.535,6.535,0,0,1-6.535,6.535" fill="#f9e39b"/>
        </g>
      </g>
      <text id="_el_objetivo_final_" data-name=" el objetivo final  " transform="translate(673.987 396.335)" fill="#1a1a1a" font-size="14.768" font-family="Roboto-Regular, Roboto"><tspan x="0" y="0" xml:space="preserve"> el objeti</tspan><tspan y="0" letter-spacing="-0.007em">v</tspan><tspan y="0" xml:space="preserve">o final  </tspan></text>
      <g id="Grupo_112264" data-name="Grupo 112264">
        <g id="Grupo_112263" data-name="Grupo 112263" clip-path="url(#clip-path)">
          <path id="Trazado_176929" data-name="Trazado 176929" d="M879.844,446.918H814.668a6.535,6.535,0,0,1-6.535-6.535v-10.77a6.535,6.535,0,0,1,6.535-6.535h65.176a6.535,6.535,0,0,1,6.535,6.535v10.77a6.535,6.535,0,0,1-6.535,6.535" fill="#f9e39b"/>
        </g>
      </g>
      <text id="puede_ser_" data-name="puede ser  " transform="translate(815.213 438.175)" fill="#1a1a1a" font-size="14.768" font-family="Roboto-Regular, Roboto"><tspan x="0" y="0" xml:space="preserve">puede ser  </tspan></text>
      <g id="Grupo_112266" data-name="Grupo 112266">
        <g id="Grupo_112265" data-name="Grupo 112265" clip-path="url(#clip-path)">
          <path id="Trazado_176930" data-name="Trazado 176930" d="M752.971,315.9H610.159a6.535,6.535,0,0,1-6.535-6.535V280.136a6.535,6.535,0,0,1,6.535-6.535H752.971a6.535,6.535,0,0,1,6.535,6.535v29.227a6.535,6.535,0,0,1-6.535,6.535" fill="#f9e39b"/>
        </g>
      </g>
      <text id="es_una_preocupación_" data-name="es una preocupación " transform="translate(611.704 288.698)" fill="#1a1a1a" font-size="14.768" font-family="Roboto-Regular, Roboto"><tspan x="0" y="0">es una p</tspan><tspan y="0" letter-spacing="-0.009em">r</tspan><tspan y="0">eocupación </tspan></text>
      <text id="importante_" data-name="importante " transform="translate(611.704 306.419)" fill="#1a1a1a" font-size="14.768" font-family="Roboto-Regular, Roboto"><tspan x="0" y="0">impo</tspan><tspan y="0" letter-spacing="0.024em">r</tspan><tspan y="0">tante </tspan></text>
      <g id="Grupo_112268" data-name="Grupo 112268">
        <g id="Grupo_112267" data-name="Grupo 112267" clip-path="url(#clip-path)">
          <path id="Trazado_176931" data-name="Trazado 176931" d="M756.484,258.424s38.02-24.674,88.4,13.464c0,0,21.386,12.774,40.871,5.734" fill="none" stroke="#efbe45" stroke-miterlimit="10" stroke-width="5"/>
          <path id="Trazado_176932" data-name="Trazado 176932" d="M767.534,252.873a11.049,11.049,0,1,1-11.049-11.049,11.049,11.049,0,0,1,11.049,11.049" fill="#efbe45"/>
          <path id="Trazado_176933" data-name="Trazado 176933" d="M857.754,281.75H806.427a4.71,4.71,0,0,1-4.71-4.71v-12.2a4.71,4.71,0,0,1,4.71-4.71h51.327a4.71,4.71,0,0,1,4.71,4.71v12.2a4.71,4.71,0,0,1-4.71,4.71" fill="#f9e39b"/>
        </g>
      </g>
      <text id="porque_" data-name="porque  " transform="translate(809.407 274.401)" fill="#1a1a1a" font-size="14.768" font-family="Roboto-Regular, Roboto"><tspan x="0" y="0">po</tspan><tspan y="0" letter-spacing="-0.009em">r</tspan><tspan y="0" xml:space="preserve">que  </tspan></text>
      <g id="Grupo_112270" data-name="Grupo 112270">
        <g id="Grupo_112269" data-name="Grupo 112269" clip-path="url(#clip-path)">
          <path id="Trazado_176934" data-name="Trazado 176934" d="M652.088,92.943s67.5-64.262,149.629-64.262c0,0,42.026-8.681,109.219,41.158A112.7,112.7,0,0,0,937.479,84.5c18.4,7.1,48.5,16.3,74.109,12.8a22.24,22.24,0,0,1,11.6,1.463c8.8,3.689,19.377,14.7,8.941,47.48,0,0-15.208,37.366,24.238,28.812" fill="none" stroke="#5bb8b2" stroke-miterlimit="10" stroke-width="6"/>
          <path id="Trazado_176935" data-name="Trazado 176935" d="M665.908,96.92a11.049,11.049,0,1,1-11.049-11.049A11.049,11.049,0,0,1,665.908,96.92" fill="#efbe45"/>
          <path id="Trazado_176936" data-name="Trazado 176936" d="M652.088,81.893l-13.1-12.651,13.075-5.685Z" fill="#5bb8b2"/>
          <path id="Trazado_176937" data-name="Trazado 176937" d="M705.206,72.02H509.952a8.184,8.184,0,0,1-8.16-8.16V13.1a8.184,8.184,0,0,1,8.16-8.16H705.206a8.184,8.184,0,0,1,8.16,8.16V63.86a8.184,8.184,0,0,1-8.16,8.16" fill="#5bb8b2"/>
          <path id="Trazado_176938" data-name="Trazado 176938" d="M704.412,66.469h-189.7a8.184,8.184,0,0,1-8.16-8.16V13.883a8.184,8.184,0,0,1,8.16-8.16h189.7a8.184,8.184,0,0,1,8.16,8.16V58.309a8.184,8.184,0,0,1-8.16,8.16" fill="#fff"/>
        </g>
      </g>
      <text id="los_ataques_web_para_obtener_" data-name="los ataques web para obtener " transform="translate(511.544 21.667)" fill="#39726d" font-size="14.768" font-family="Roboto-Regular, Roboto"><tspan x="0" y="0">los ataques </tspan><tspan y="0" font-family="Roboto-Italic, Roboto" font-style="italic">web </tspan><tspan y="0">pa</tspan><tspan y="0" letter-spacing="-0.019em">r</tspan><tspan y="0">a obtener </tspan></text>
      <text id="un_acceso_básico_a_" data-name="un acceso básico a " transform="translate(511.544 39.389)" fill="#39726d" font-size="14.768" font-family="Roboto-Regular, Roboto"><tspan x="0" y="0">un acceso básico a </tspan></text>
      <text id="determinados_recursos" data-name="determinados recursos" transform="translate(511.544 57.111)" fill="#39726d" font-size="14.768" font-family="Roboto-Regular, Roboto"><tspan x="0" y="0">determinados </tspan><tspan y="0" letter-spacing="-0.009em">r</tspan><tspan y="0">ecursos</tspan></text>
      <g id="Grupo_112272" data-name="Grupo 112272">
        <g id="Grupo_112271" data-name="Grupo 112271" clip-path="url(#clip-path)">
          <path id="Trazado_176939" data-name="Trazado 176939" d="M893.871,271.107l1.3-18.162,12.749,6.384Z" fill="#5bb8b2"/>
          <path id="Trazado_176940" data-name="Trazado 176940" d="M1097.285,262.026H902.031a8.184,8.184,0,0,1-8.16-8.16V203.1a8.184,8.184,0,0,1,8.16-8.16h195.254a8.184,8.184,0,0,1,8.16,8.16v50.763a8.184,8.184,0,0,1-8.16,8.16" fill="#5bb8b2"/>
          <path id="Trazado_176941" data-name="Trazado 176941" d="M1096.491,256.475H906.79a8.184,8.184,0,0,1-8.16-8.16V203.889a8.184,8.184,0,0,1,8.16-8.16h189.7a8.184,8.184,0,0,1,8.16,8.16v44.426a8.184,8.184,0,0,1-8.16,8.16" fill="#fff"/>
        </g>
      </g>
      <text id="las_intrusiones_en_la_web_son_" data-name="las intrusiones en la web son " transform="translate(903.623 211.673)" fill="#39726d" font-size="14.768" font-family="Roboto-Regular, Roboto"><tspan x="0" y="0">las intrusiones en la web son </tspan></text>
      <text id="normalmente_solo_la_primera_" data-name="normalmente solo la primera " transform="translate(903.623 229.395)" fill="#39726d" font-size="14.768" font-family="Roboto-Regular, Roboto"><tspan x="0" y="0">normalmente solo la prime</tspan><tspan y="0" letter-spacing="-0.019em">r</tspan><tspan y="0">a </tspan></text>
      <text id="etapa_de_un_ataque_complejo_" data-name="etapa de un ataque complejo," transform="translate(903.623 247.117)" fill="#39726d" font-size="14.768" font-family="Roboto-Regular, Roboto"><tspan x="0" y="0">etapa de un ataque complejo,</tspan></text>
      <g id="Grupo_112274" data-name="Grupo 112274">
        <g id="Grupo_112273" data-name="Grupo 112273" clip-path="url(#clip-path)">
          <path id="Trazado_176942" data-name="Trazado 176942" d="M981.866,80.814l.429-18.2,13.041,5.763Z" fill="#5bb8b2"/>
          <path id="Trazado_176943" data-name="Trazado 176943" d="M1128.116,67.083H974.662a8.184,8.184,0,0,1-8.16-8.16V8.16A8.184,8.184,0,0,1,974.662,0h153.454a8.184,8.184,0,0,1,8.16,8.16V58.923a8.184,8.184,0,0,1-8.16,8.16" fill="#5bb8b2"/>
          <path id="Trazado_176944" data-name="Trazado 176944" d="M1127.479,61.532h-149a8.184,8.184,0,0,1-8.16-8.16V8.946a8.184,8.184,0,0,1,8.16-8.16h149a8.184,8.184,0,0,1,8.16,8.16V53.372a8.184,8.184,0,0,1-8.16,8.16" fill="#fff"/>
        </g>
      </g>
      <text id="Con_los_ataques_de_" data-name="Con los ataques de " transform="translate(976.254 29.644)" fill="#39726d" font-size="14.768" font-family="Roboto-Regular, Roboto"><tspan x="0" y="0">Con los ataques de </tspan></text>
      <text id="escalada_de_privilegios" data-name="escalada de privilegios" transform="translate(976.254 47.366)" fill="#39726d" font-size="14.768" font-family="Roboto-Regular, Roboto"><tspan x="0" y="0">escalada de privilegios</tspan></text>
      <g id="Grupo_112276" data-name="Grupo 112276">
        <g id="Grupo_112275" data-name="Grupo 112275" clip-path="url(#clip-path)">
          <path id="Trazado_176945" data-name="Trazado 176945" d="M1057.631,167.781l.429-18.2,13.041,5.763Z" fill="#5bb8b2"/>
          <path id="Trazado_176946" data-name="Trazado 176946" d="M1184.245,157.079H1065.791a8.184,8.184,0,0,1-8.16-8.16V98.156a8.184,8.184,0,0,1,8.16-8.16h118.454a8.184,8.184,0,0,1,8.16,8.16v50.763a8.184,8.184,0,0,1-8.16,8.16" fill="#5bb8b2"/>
          <path id="Trazado_176947" data-name="Trazado 176947" d="M1183.5,151.528H1068.817a8.184,8.184,0,0,1-8.16-8.16V98.942a8.184,8.184,0,0,1,8.16-8.16H1183.5a8.184,8.184,0,0,1,8.16,8.16v44.426a8.184,8.184,0,0,1-8.16,8.16" fill="#fff"/>
        </g>
      </g>
      <text id="obtener_un_mayor_" data-name="obtener un mayor " transform="translate(1067.383 119.642)" fill="#39726d" font-size="14.768" font-family="Roboto-Regular, Roboto"><tspan x="0" y="0">obtener un m</tspan><tspan y="0" letter-spacing="-0.007em">ay</tspan><tspan y="0">or </tspan></text>
      <text id="control" transform="translate(1067.383 137.364)" fill="#39726d" font-size="14.768" font-family="Roboto-Regular, Roboto"><tspan x="0" y="0">cont</tspan><tspan y="0" letter-spacing="-0.009em">r</tspan><tspan y="0">ol</tspan></text>
      <g id="Grupo_112278" data-name="Grupo 112278">
        <g id="Grupo_112277" data-name="Grupo 112277" clip-path="url(#clip-path)">
          <path id="Trazado_176948" data-name="Trazado 176948" d="M933.963,73.044H826.312a6.534,6.534,0,0,1-6.534-6.535v-9.82a6.534,6.534,0,0,1,6.534-6.534H933.963a6.534,6.534,0,0,1,6.535,6.534v9.82a6.535,6.535,0,0,1-6.535,6.535" fill="#7cc6c1"/>
        </g>
      </g>
      <text id="luego_continúan_" data-name="luego continúan " transform="translate(827.856 65.252)" fill="#1a1a1a" font-size="14.768" font-family="Roboto-Regular, Roboto"><tspan x="0" y="0">luego continúan </tspan></text>
      <g id="Grupo_112280" data-name="Grupo 112280">
        <g id="Grupo_112279" data-name="Grupo 112279" clip-path="url(#clip-path)">
          <path id="Trazado_176949" data-name="Trazado 176949" d="M912.432,432.879s18.468-16.871,34.627-25.663S964.405,378.7,964.405,378.7" fill="none" stroke="#4d4d4d" stroke-miterlimit="10" stroke-width="5"/>
          <path id="Trazado_176950" data-name="Trazado 176950" d="M856.541,491.6s18.468-16.871,34.627-25.663,17.346-28.515,17.346-28.515" fill="none" stroke="#4d4d4d" stroke-miterlimit="10" stroke-width="5"/>
          <path id="Trazado_176951" data-name="Trazado 176951" d="M923.481,436.66a11.049,11.049,0,1,1-11.05-11.049,11.05,11.05,0,0,1,11.05,11.049" fill="#efbe45"/>
          <path id="Trazado_176952" data-name="Trazado 176952" d="M959.736,397.755l-4.255-19.964,15.551,2.795Z" fill="#79f5ed"/>
          <path id="Trazado_176953" data-name="Trazado 176953" d="M1080.047,381.957H961.664a8.184,8.184,0,0,1-8.16-8.16V339.766a8.184,8.184,0,0,1,8.16-8.16h118.383a8.184,8.184,0,0,1,8.16,8.16V373.8a8.184,8.184,0,0,1-8.16,8.16" fill="#79f5ed"/>
          <path id="Trazado_176954" data-name="Trazado 176954" d="M1079.541,377.791H964.694a8.184,8.184,0,0,1-8.16-8.16V340.357a8.184,8.184,0,0,1,8.16-8.16h114.847a8.184,8.184,0,0,1,8.16,8.16v29.274a8.184,8.184,0,0,1-8.16,8.16" fill="#fff"/>
        </g>
      </g>
      <text id="el_acceso_a_datos_" data-name="el acceso a datos " transform="translate(963.256 348.338)" fill="#39726d" font-size="14.768" font-family="Roboto-Regular, Roboto"><tspan x="0" y="0">el acceso a da</tspan><tspan y="0" letter-spacing="-0.009em">t</tspan><tspan y="0">os </tspan></text>
      <text id="confidenciales" transform="translate(963.256 366.06)" fill="#39726d" font-size="14.768" font-family="Roboto-Regular, Roboto"><tspan x="0" y="0">confidenciales</tspan></text>
      <g id="Grupo_112282" data-name="Grupo 112282">
        <g id="Grupo_112281" data-name="Grupo 112281" clip-path="url(#clip-path)">
          <path id="Trazado_176955" data-name="Trazado 176955" d="M909.181,449.888l4.077,20-15.525-2.933Z" fill="#79f5ed"/>
          <path id="Trazado_176956" data-name="Trazado 176956" d="M914.527,516.693H796.144a8.184,8.184,0,0,1-8.16-8.16V474.5a8.184,8.184,0,0,1,8.16-8.16H914.527a8.184,8.184,0,0,1,8.16,8.16v34.031a8.184,8.184,0,0,1-8.16,8.16" fill="#79f5ed"/>
          <path id="Trazado_176957" data-name="Trazado 176957" d="M914.021,512.527H799.174a8.184,8.184,0,0,1-8.16-8.16V475.093a8.184,8.184,0,0,1,8.16-8.16H914.021a8.184,8.184,0,0,1,8.16,8.16v29.274a8.184,8.184,0,0,1-8.16,8.16" fill="#fff"/>
        </g>
      </g>
      <text id="la_introducción_de_" data-name="la introducción de " transform="translate(797.736 483.075)" fill="#39726d" font-size="14.768" font-family="Roboto-Regular, Roboto"><tspan x="0" y="0">la int</tspan><tspan y="0" letter-spacing="-0.009em">r</tspan><tspan y="0">oducción de </tspan></text>
      <text id="código_malicioso" data-name="código malicioso" transform="translate(797.736 500.796)" fill="#39726d" font-size="14.768" font-family="Roboto-Regular, Roboto"><tspan x="0" y="0">código malicioso</tspan></text>
      <g id="Grupo_112284" data-name="Grupo 112284">
        <g id="Grupo_112283" data-name="Grupo 112283" clip-path="url(#clip-path)">
          <path id="Trazado_176958" data-name="Trazado 176958" d="M981.157,491.067s-32.079-26.938-40.277-46.84-13.115-24.084-13.115-24.084" fill="none" stroke="#4d4d4d" stroke-miterlimit="10" stroke-width="5"/>
          <path id="Trazado_176959" data-name="Trazado 176959" d="M965.9,455.6l20.238,2.658-7.828,13.724Z" fill="#79f5ed"/>
          <path id="Trazado_176960" data-name="Trazado 176960" d="M1115.928,505.956H984.182a8.184,8.184,0,0,1-8.16-8.16V463.765a8.184,8.184,0,0,1,8.16-8.16h131.746a8.184,8.184,0,0,1,8.16,8.16V497.8a8.184,8.184,0,0,1-8.16,8.16" fill="#79f5ed"/>
          <path id="Trazado_176961" data-name="Trazado 176961" d="M1115.372,501.789H987.512a8.184,8.184,0,0,1-8.16-8.16V464.355a8.184,8.184,0,0,1,8.16-8.16h127.86a8.184,8.184,0,0,1,8.16,8.16v29.274a8.184,8.184,0,0,1-8.16,8.16" fill="#fff"/>
        </g>
      </g>
      <text id="la_instalación_de_" data-name="la instalación de " transform="translate(985.774 472.336)" fill="#39726d" font-size="14.768" font-family="Roboto-Regular, Roboto"><tspan x="0" y="0">la instalación de </tspan></text>
      <text id="programas_malignos" data-name="programas malignos" transform="translate(985.774 490.058)" fill="#39726d" font-size="14.768" font-family="Roboto-Regular, Roboto"><tspan x="0" y="0">p</tspan><tspan y="0" letter-spacing="-0.009em">r</tspan><tspan y="0">og</tspan><tspan y="0" letter-spacing="-0.019em">r</tspan><tspan y="0">amas malignos</tspan></text>
    </g>
  </g>
</svg>
