<svg id="Grupo_112287" data-name="Grupo 112287" xmlns="http://www.w3.org/2000/svg" xmlns:xlink="http://www.w3.org/1999/xlink" width="146.417" height="173.063" viewBox="0 0 146.417 173.063">
  <defs>
    <clipPath id="clip-path">
      <rect id="Rectángulo_37793" data-name="Rectángulo 37793" width="146.417" height="173.063" fill="none"/>
    </clipPath>
  </defs>
  <g id="Grupo_112286" data-name="Grupo 112286" transform="translate(0 0)" clip-path="url(#clip-path)">
    <path id="Trazado_176962" data-name="Trazado 176962" d="M146.417,92.421A73.209,73.209,0,1,1,73.208,19.212a73.209,73.209,0,0,1,73.209,73.209" transform="translate(0 7.434)" fill="#a7f"/>
    <path id="Trazado_176963" data-name="Trazado 176963" d="M100.685,118.6c-1.678-9.487-1.753-19.806-5.4-24.286-7.836-9.625-56.621,6.11-56.621,6.11s-9.387,14.316-11.65,17.552c-.748,1.069-2.34,3.77-4.135,6.9a72.838,72.838,0,0,0,26.584,11.372c1.308-2.182,3.264-5.394,5.749-9.327,2.291-3.626,9.144-11.25,9.144-11.25s3.6,7.516,4.716,10.624c2.132,5.94,3.291,9.176,3.925,10.947a72.771,72.771,0,0,0,28.815-9.782c-.227-2.739-.576-5.755-1.126-8.863" transform="translate(8.853 35.291)"/>
    <path id="Trazado_176964" data-name="Trazado 176964" d="M15.741,51.623C17.1,46.038,28.15,26.3,46.329,26.3S78.1,24.532,91.015,39.422,98.4,84.4,98.057,96.162s9.684,29.745,3.8,32.165-60.6,6.226-61.947,0,3.5-21.1-1.692-32.165S10.9,71.509,15.741,51.623" transform="translate(5.825 10.151)" fill="#161515"/>
    <path id="Trazado_176965" data-name="Trazado 176965" d="M76.1,80.88c.436,4.373,2.648,21.537,1.521,22.695-1.212,1.247-32.711,1.193-35.571.811s-2.542-20.06-1.4-21.211S75.93,79.184,76.1,80.88" transform="translate(15.409 31.093)" fill="#1c1b1b"/>
    <path id="Trazado_176966" data-name="Trazado 176966" d="M19.727,40.024c-6.485,8.435-10.377,19.191-5.882,33.614S35.98,98.781,35.98,98.781s8.227-9.338,5.151-15.564-21.4-43.193-21.4-43.193" transform="translate(4.608 15.488)" fill="#353535"/>
    <path id="Trazado_176967" data-name="Trazado 176967" d="M28.2,68.694S22.88,55.082,21.131,52.053a18.512,18.512,0,0,0-4.653-5.108l2.331,8.007c2.067,7.1,6.967,12.613,9.39,13.742" transform="translate(6.376 18.166)" fill="#262626"/>
    <path id="Trazado_176968" data-name="Trazado 176968" d="M18.3,38.454s-2.863-2.881-.018-9.433S40.769,11.752,53.908,16.669s14.552,4.7,14.623,7.424S55.395,42.388,55.581,47.5s-3.033,14.825-3.4,14.938-7.631-8.021-12.7-11.928S18.3,38.454,18.3,38.454" transform="translate(6.588 5.966)" fill="#161515"/>
    <path id="Trazado_176969" data-name="Trazado 176969" d="M21.018,24.127c.674,3.251,6.993,13.306,11.76,17.046S43.453,46.41,46.514,45.79s6.766-5.467,8.164-12.625.6-19.469.6-19.469Z" transform="translate(8.133 5.3)" fill="#ffb18f"/>
    <path id="Trazado_176970" data-name="Trazado 176970" d="M16.478,32.882s.368-2.008,1.455-1.882c7.619.882,26.434,10.417,30.853,17.245C54.5,57.069,54.837,63.11,54.837,63.11s-8.172-11.183-17.5-17.953c-7.444-5.4-20.854-12.276-20.854-12.276" transform="translate(6.376 11.993)" fill="#353535"/>
    <path id="Trazado_176971" data-name="Trazado 176971" d="M60.757,22.131S58.823,20.067,58.18,20.7c-5.369,5.257-16.6,22.872-16.746,30.981-.183,10.51,3.749,15.462,3.749,15.462s0-13.032,4.34-23.711c3.466-8.52,11.234-21.3,11.234-21.3" transform="translate(16.031 7.963)" fill="#353535"/>
    <path id="Trazado_176972" data-name="Trazado 176972" d="M51.561,60.144a38.758,38.758,0,0,0-15.537-18.29,53.339,53.339,0,0,0-13.29-6.112A137.956,137.956,0,0,1,34.913,43.32c7.541,5.47,14.32,13.818,16.648,16.824" transform="translate(8.797 13.831)" fill="#7c7c7c"/>
    <path id="Trazado_176973" data-name="Trazado 176973" d="M48.583,40.343a126.205,126.205,0,0,1,5.782-11.788A57.679,57.679,0,0,0,47.912,38.9,38.678,38.678,0,0,0,44.3,62.068c.183-4.047.964-13.569,4.282-21.725" transform="translate(16.97 11.05)" fill="#474747"/>
    <rect id="Rectángulo_37786" data-name="Rectángulo 37786" width="92.95" height="50.833" transform="translate(27.507 79.678) rotate(-10.804)" fill="#91ebf2"/>
    <rect id="Rectángulo_37787" data-name="Rectángulo 37787" width="73.747" height="40.332" transform="translate(38.938 82.374) rotate(-10.805)" fill="#2ecaef"/>
    <rect id="Rectángulo_37788" data-name="Rectángulo 37788" width="32.122" height="5.2" transform="matrix(0.982, -0.187, 0.187, 0.982, 65.086, 82.947)" fill="#fff"/>
    <rect id="Rectángulo_37789" data-name="Rectángulo 37789" width="13.894" height="5.2" transform="translate(45.207 86.804) rotate(-10.8)" fill="#9ee9ef"/>
    <rect id="Rectángulo_37790" data-name="Rectángulo 37790" width="13.893" height="5.202" transform="translate(47.159 96.922) rotate(-10.802)" fill="#9ee9ef"/>
    <rect id="Rectángulo_37791" data-name="Rectángulo 37791" width="18.65" height="8.759" transform="matrix(0.982, -0.187, 0.187, 0.982, 68.614, 102.616)" fill="#0097ba"/>
    <rect id="Rectángulo_37792" data-name="Rectángulo 37792" width="32.125" height="5.201" transform="translate(67.035 93.067) rotate(-10.804)" fill="#fff"/>
    <path id="Trazado_176974" data-name="Trazado 176974" d="M46.189,88.295A54.842,54.842,0,0,0,35.3,86.558c-2.774-.033-4.1.935-4.073,2.212.021,1.208.81,1.621,3.336,1.573,2.279-.043,4.214,1.085,4,1.667-.874,2.4-10.6,2.929-10.6,3.77,0,2.4,5.34,5.655,14.208,3.925A26.846,26.846,0,0,0,56.3,91.843Z" transform="translate(10.823 33.494)"/>
    <path id="Trazado_176975" data-name="Trazado 176975" d="M68.618,28.555c12.044,4.521,21.06,12.975,24.051,21.2S98.078,82.271,94.5,90.917s-45.008,30.112-48.521,30.112-9.251-12.338-6.29-13.721S74.7,83.7,73.991,80.911,65.224,62.068,62.883,48c-1.275-7.655,5.735-19.441,5.735-19.441" transform="translate(15.039 11.05)" fill="#353535"/>
    <path id="Trazado_176976" data-name="Trazado 176976" d="M78.48,80.643c-3.558-3.2,1.48-7.96-3.5-21.387-3.689-9.932-7.653-21.327-9.184-26.644-1.779,4.071-3.616,9.571-2.908,13.813,2.34,14.072,10.4,30.128,11.108,32.915s-31.345,25.012-34.305,26.4c-1.563.731-.7,4.515.978,7.924a20.872,20.872,0,0,0,3.9-.979c6.283-2.33,26.89-20.2,29.365-24.508s14.269,2,15.169-.426c.318-.859-7.061-3.908-10.617-7.105" transform="translate(15.04 12.62)" fill="#3d3b3b"/>
    <path id="Trazado_176977" data-name="Trazado 176977" d="M21.292,76.391c.481-2.51,3.431-3.736,5.813-4.5,3.469-1.117,6.408-2.024,6.748.144.194,1.245-3.154,1.861-4.7,2.614-.8.39-2.62.76-2.669,1.768-.094,1.953,1.447.584,4.384-.513,1.656-.617,6.14-2.067,6.717-1.085,1.43,2.431-2.286,2.936-5.044,4.017-1.81.709-3.881,1.447-3.723,2.234.239,1.184,1.926.4,3.813,0,2.691-.577,5.125-1.893,5.613.2.413,1.767-2.287,1.888-4.613,2.434-2.868.675-5.573,1.442-5.194,2.811.312,1.126,1.552,1.175,2.621,1.1,2.258-.169,6.241-2.716,6.7.293.132.86-1.834,1.538-4.343,2.406-2.842.981-6.287,1.583-7.768.223-2.928-2.689-5.1-10.27-4.358-14.143" transform="translate(8.183 27.363)"/>
    <path id="Trazado_176978" data-name="Trazado 176978" d="M25.13,30.326c4.883-.5,29.291-7.409,29.287-6.6-.011,3.384-.8,10.072-3.239,14.388-2.954,5.241-13.627,6.191-20.2.191-2.564-2.343-7.051-7.857-5.846-7.981" transform="translate(9.646 9.156)"/>
    <path id="Trazado_176979" data-name="Trazado 176979" d="M24.594,30.455s9.979-2.5,12.552-3.488c1.1-.423,1.637-2.859,2.779-3.24s2.763,1.965,4.478,1.936,10.365-1.978,10.365-1.978l.071-5.2s-12.452.852-20.155,2.9a27.036,27.036,0,0,0-11.95,6.57Z" transform="translate(8.797 7.154)" fill="#db826a"/>
    <path id="Trazado_176980" data-name="Trazado 176980" d="M16.512,44.875c-.441.006-.072-27.911,8.082-37.936C29.263,1.2,40.154-1.8,46.741,1.161c8.628,3.881,23.821,28.007,23.7,28.933s-11.087-4.237-29.254.456C22.663,35.337,17.91,44.857,16.512,44.875" transform="translate(6.343 0)" fill="#353535"/>
    <path id="Trazado_176981" data-name="Trazado 176981" d="M31.393,2.506c-6.374,1.821-5.953,24.191-5.32,31.42a55.806,55.806,0,0,1,11.5-4.268A61.363,61.363,0,0,1,50.6,27.7C47.407,20.729,39.945.059,31.393,2.506" transform="translate(9.959 0.892)" fill="#444"/>
    <path id="Trazado_176982" data-name="Trazado 176982" d="M70.973,54.616s5.427,6.53,3.5,10.634-8.5,5.211-8.5,5.211A21.386,21.386,0,0,0,68.5,66.594c1.925-3.316,2.47-11.978,2.47-11.978" transform="translate(25.53 21.134)" fill="#2d2d2d"/>
    <path id="Trazado_176983" data-name="Trazado 176983" d="M68.02,47.686s1.173,8.888.028,15.184a37.611,37.611,0,0,1-2.885,9.667s-1.429-10.7,0-14.857,2.857-9.994,2.857-9.994" transform="translate(24.97 18.453)" fill="#2d2d2d"/>
    <path id="Trazado_176984" data-name="Trazado 176984" d="M64.9,68.292s2.635-2.374,7.924-.154,6.2,6.232,6.2,6.232-4.136-2.086-7.061-3.908A14.792,14.792,0,0,0,64.9,68.292" transform="translate(25.114 25.999)" fill="#262626"/>
    <path id="Trazado_176985" data-name="Trazado 176985" d="M50.8,61.591a1.232,1.232,0,1,1-1.233-1.233A1.232,1.232,0,0,1,50.8,61.591" transform="translate(18.703 23.356)" fill="#353535"/>
    <path id="Trazado_176986" data-name="Trazado 176986" d="M54.282,60.893a1.231,1.231,0,1,1-1.232-1.232,1.23,1.23,0,0,1,1.232,1.232" transform="translate(20.052 23.086)" fill="#353535"/>
    <path id="Trazado_176987" data-name="Trazado 176987" d="M57.8,60.35a1.23,1.23,0,1,1-1.232-1.234A1.231,1.231,0,0,1,57.8,60.35" transform="translate(21.414 22.876)" fill="#353535"/>
    <path id="Trazado_176988" data-name="Trazado 176988" d="M52.171,68.953a1.231,1.231,0,1,1-1.23-1.233,1.232,1.232,0,0,1,1.23,1.233" transform="translate(19.235 26.205)" fill="#353535"/>
    <path id="Trazado_176989" data-name="Trazado 176989" d="M55.431,68.347a1.232,1.232,0,1,1-1.232-1.23,1.232,1.232,0,0,1,1.232,1.23" transform="translate(20.496 25.972)" fill="#353535"/>
    <path id="Trazado_176990" data-name="Trazado 176990" d="M58.687,67.77a1.231,1.231,0,1,1-1.232-1.233,1.231,1.231,0,0,1,1.232,1.233" transform="translate(21.757 25.747)" fill="#353535"/>
    <path id="Trazado_176991" data-name="Trazado 176991" d="M61.287,59.675a1.231,1.231,0,1,1-1.232-1.23,1.232,1.232,0,0,1,1.232,1.23" transform="translate(22.763 22.616)" fill="#353535"/>
    <path id="Trazado_176992" data-name="Trazado 176992" d="M64.55,59.115a1.231,1.231,0,1,1-1.232-1.23,1.233,1.233,0,0,1,1.232,1.23" transform="translate(24.026 22.399)" fill="#353535"/>
    <path id="Trazado_176993" data-name="Trazado 176993" d="M67.388,28.555s-.53.9-1.264,2.327c5.3,4.591,18.239,13.594,20.648,29.944,2.914,19.764,5.485,27.345,3.953,29.563-4.784,6.92-35.187,21.2-40.79,24.842a61.315,61.315,0,0,1-7.889,4.054,4.2,4.2,0,0,0,2.7,1.743c3.513,0,44.94-21.466,48.521-30.112s1.161-32.942-1.828-41.165-12.007-16.675-24.051-21.2" transform="translate(16.27 11.05)" fill="#282727"/>
  </g>
</svg>
