<svg id="Grupo_112290" data-name="Grupo 112290" xmlns="http://www.w3.org/2000/svg" xmlns:xlink="http://www.w3.org/1999/xlink" width="204.138" height="175.619" viewBox="0 0 204.138 175.619">
  <defs>
    <clipPath id="clip-path">
      <rect id="Rectángulo_37830" data-name="Rectángulo 37830" width="204.138" height="175.62" fill="none"/>
    </clipPath>
  </defs>
  <g id="Grupo_112290-2" data-name="Grupo 112290" transform="translate(0 0)" clip-path="url(#clip-path)">
    <path id="Trazado_176995" data-name="Trazado 176995" d="M169.791,84.9A84.9,84.9,0,1,1,84.895,0a84.9,84.9,0,0,1,84.9,84.9" transform="translate(0 0)" fill="#a7f"/>
    <rect id="Rectángulo_37794" data-name="Rectángulo 37794" width="98.566" height="2.491" transform="translate(14.913 127.742)" fill="#8c8c8c"/>
    <path id="Trazado_176996" data-name="Trazado 176996" d="M20.749,70.433H93.379l14.459,14.458H9.272Z" transform="translate(5.641 42.85)" fill="#aaa"/>
    <rect id="Rectángulo_37795" data-name="Rectángulo 37795" width="55.074" height="7.715" transform="translate(59.14 95.645)" fill="#8c8c8c"/>
    <rect id="Rectángulo_37796" data-name="Rectángulo 37796" width="84.468" height="5.88" transform="translate(44.444 101.524)" fill="#aaa"/>
    <path id="Trazado_176997" data-name="Trazado 176997" d="M67.413,63.415l4.614,42.606S58.546,134.172,52.3,133.862s-.634-73.3-1.724-76.412,9.986-1.005,16.84,5.965" transform="translate(29.989 34.097)" fill="#2b2b2b"/>
    <path id="Trazado_176998" data-name="Trazado 176998" d="M68.608,104.691,63.994,62.086a25.579,25.579,0,0,0-4.922-3.854c-2.548,1.192-4.159,1.988-4.159,1.988s2.821,25.533,4.449,42.837c.59,6.277-.1,13.412-1.02,20.082a187.53,187.53,0,0,0,10.266-18.448" transform="translate(33.407 35.427)" fill="#111010"/>
    <path id="Trazado_176999" data-name="Trazado 176999" d="M83.795,64.268c-4.479-.241-7.776,3.714-14.705,13.605C60.67,89.9,50.188,111.152,50.144,115.4c-.179,16.77-2.1,20.516,15.768,14.9,6.236-1.962,22.315-21.974,37.876-51.312,5.329-10.049-16.69-14.535-19.994-14.713" transform="translate(30.419 39.092)" fill="#2b2b2b"/>
    <rect id="Rectángulo_37797" data-name="Rectángulo 37797" width="115.771" height="67.124" transform="translate(28.791 29.814)" fill="#aaa"/>
    <rect id="Rectángulo_37798" data-name="Rectángulo 37798" width="108.629" height="59.563" transform="translate(32.687 33.682)" fill="#8e8e8e"/>
    <rect id="Rectángulo_37799" data-name="Rectángulo 37799" width="106.3" height="58.133" transform="translate(33.526 34.31)" fill="#91ebf2"/>
    <rect id="Rectángulo_37800" data-name="Rectángulo 37800" width="82.768" height="50.485" transform="translate(56.993 38.715)" fill="#707070"/>
    <path id="Trazado_177000" data-name="Trazado 177000" d="M84.124,45.842A17.017,17.017,0,1,1,67.107,28.825,17.017,17.017,0,0,1,84.124,45.842" transform="translate(30.473 17.536)" fill="#262626"/>
    <path id="Trazado_177001" data-name="Trazado 177001" d="M75.808,43.56A10.984,10.984,0,1,1,64.825,32.576,10.984,10.984,0,0,1,75.808,43.56" transform="translate(32.755 19.818)" fill="#515151"/>
    <path id="Trazado_177002" data-name="Trazado 177002" d="M66.73,41.068a4.4,4.4,0,1,1-4.4-4.4,4.4,4.4,0,0,1,4.4,4.4" transform="translate(35.247 22.31)" fill="#777"/>
    <path id="Trazado_177003" data-name="Trazado 177003" d="M63.848,40.277a2.306,2.306,0,1,1-2.306-2.306,2.306,2.306,0,0,1,2.306,2.306" transform="translate(36.038 23.1)" fill="#515151"/>
    <path id="Trazado_177004" data-name="Trazado 177004" d="M79.316,32.7c-2.636,1.724-4.713,6.546-3.693,9.1,1.568,3.918-1.817,11.579-1.854,13.042s4.159-.624,4.565.314-1.367,2.924-.917,3.831c.3.616,2.528.815,2.528.815s-1.372.764-1.584,1.456c-.642,2.1,1.785,1.969,1.544,2.963s-2.1,2.52.553,5.05,7.537.28,13.354-3.784S79.316,32.7,79.316,32.7" transform="translate(44.879 19.893)" fill="#ffb18f"/>
    <path id="Trazado_177005" data-name="Trazado 177005" d="M148.508,96.765C147.2,95,138.265,88.51,136.3,87.7c-4.146-2.043-5.769-8.22-5.769-8.22s-2.837-16.713.714-25.861c5.221-13.44-3.209-29.884-16.317-30.34-15.892-.558-38.205,9.789-39.437,14.059-1.127,3.9,15.8,24.428,15.2,37.488-.5,10.893-10.314,9.961-11.556,11.838-6.733.907-8.536,4.04-12.907,7.117-4.4,3.094,28.885,59.778,27.926,64.121-.367,1.674,35.5,3.965,39.227,3.5,28.505-3.5,30.564-7.932,30.564-8.909,0-1.586,2.691-31.239-15.44-55.735" transform="translate(40.05 14.151)" fill="#2b2b2b"/>
    <rect id="Rectángulo_37801" data-name="Rectángulo 37801" width="0.418" height="3.448" transform="translate(97.58 52.393)" fill="#707070"/>
    <rect id="Rectángulo_37802" data-name="Rectángulo 37802" width="0.418" height="1.723" transform="translate(97.58 46.361)" fill="#707070"/>
    <rect id="Rectángulo_37803" data-name="Rectángulo 37803" width="0.418" height="1.724" transform="translate(89.072 48.639) rotate(-30.019)" fill="#707070"/>
    <rect id="Rectángulo_37804" data-name="Rectángulo 37804" width="0.418" height="1.724" transform="matrix(0.497, -0.868, 0.868, 0.497, 82.842, 54.871)" fill="#707070"/>
    <rect id="Rectángulo_37805" data-name="Rectángulo 37805" width="1.724" height="0.418" transform="translate(80.563 62.958)" fill="#707070"/>
    <rect id="Rectángulo_37806" data-name="Rectángulo 37806" width="1.724" height="0.418" transform="matrix(0.866, -0.5, 0.5, 0.866, 82.634, 71.523)" fill="#707070"/>
    <rect id="Rectángulo_37807" data-name="Rectángulo 37807" width="1.724" height="0.418" transform="matrix(0.5, -0.866, 0.866, 0.5, 88.71, 77.905)" fill="#707070"/>
    <rect id="Rectángulo_37808" data-name="Rectángulo 37808" width="0.418" height="1.724" transform="translate(97.162 78.669)" fill="#707070"/>
    <rect id="Rectángulo_37809" data-name="Rectángulo 37809" width="0.418" height="1.723" transform="matrix(0.866, -0.5, 0.5, 0.866, 104.866, 76.831)" fill="#707070"/>
    <rect id="Rectángulo_37810" data-name="Rectángulo 37810" width="0.418" height="1.724" transform="translate(110.615 71.388) rotate(-60.173)" fill="#707070"/>
    <rect id="Rectángulo_37811" data-name="Rectángulo 37811" width="1.724" height="0.418" transform="translate(112.872 63.376)" fill="#707070"/>
    <rect id="Rectángulo_37812" data-name="Rectángulo 37812" width="1.726" height="0.418" transform="translate(110.824 55.732) rotate(-30.019)" fill="#707070"/>
    <rect id="Rectángulo_37813" data-name="Rectángulo 37813" width="1.725" height="0.417" transform="matrix(0.5, -0.866, 0.866, 0.5, 105.227, 50.133)" fill="#707070"/>
    <rect id="Rectángulo_37814" data-name="Rectángulo 37814" width="0.417" height="3.448" transform="translate(92.091 53.864) rotate(-29.938)" fill="#707070"/>
    <rect id="Rectángulo_37815" data-name="Rectángulo 37815" width="0.418" height="3.449" transform="matrix(0.5, -0.866, 0.866, 0.5, 88.068, 57.885)" fill="#707070"/>
    <rect id="Rectángulo_37816" data-name="Rectángulo 37816" width="3.45" height="0.418" transform="translate(86.596 62.958)" fill="#707070"/>
    <rect id="Rectángulo_37817" data-name="Rectángulo 37817" width="3.449" height="0.418" transform="matrix(0.866, -0.5, 0.5, 0.866, 87.859, 68.507)" fill="#707070"/>
    <rect id="Rectángulo_37818" data-name="Rectángulo 37818" width="3.449" height="0.418" transform="translate(91.726 72.679) rotate(-59.981)" fill="#707070"/>
    <rect id="Rectángulo_37819" data-name="Rectángulo 37819" width="0.418" height="3.447" transform="translate(97.162 70.913)" fill="#707070"/>
    <rect id="Rectángulo_37820" data-name="Rectángulo 37820" width="0.419" height="3.448" transform="matrix(0.866, -0.5, 0.5, 0.866, 100.986, 70.112)" fill="#707070"/>
    <rect id="Rectángulo_37821" data-name="Rectángulo 37821" width="0.418" height="3.45" transform="matrix(0.5, -0.866, 0.866, 0.5, 103.896, 67.505)" fill="#707070"/>
    <rect id="Rectángulo_37822" data-name="Rectángulo 37822" width="3.45" height="0.418" transform="translate(105.115 63.376)" fill="#707070"/>
    <path id="Trazado_177006" data-name="Trazado 177006" d="M64.937,38.076l-.211-.362,2.99-1.724.207.362Z" transform="translate(39.378 21.895)" fill="#707070"/>
    <rect id="Rectángulo_37823" data-name="Rectángulo 37823" width="3.448" height="0.418" transform="translate(101.351 56.853) rotate(-60.092)" fill="#707070"/>
    <path id="Trazado_177007" data-name="Trazado 177007" d="M44.576,40.49c1.161,0,2.63,10.131,4.487,10.442S48.714,36.913,51.5,35.676s1.449,15.206,2.725,15.162S56.155,34.4,58.995,33.844s-1.724,16.063-.333,16.372,1.594-6.839,4.417-8.957c2.347-1.763,4.666-2.638,5.071-1.589s-2.205,2.647-3.905,5.431-1.834,11.818,1.525,11.707c.693-.023,2.718-8.462,6.269-9.932,1.311-.544,2.266-.341,1.507,2.662-1.073,4.241-4.695,11.757-4.611,13.3s2.348,14.808,2.306,15.736-15.571.309-17.018,0c-.7-.151.183-5.174-2.392-10.914-2.914-6.5-5.618-14.377-6.58-15.661C43.4,49.529,42.3,40.49,44.576,40.49" transform="translate(26.34 20.581)" fill="#2b2b2b"/>
    <rect id="Rectángulo_37824" data-name="Rectángulo 37824" width="8.96" height="5.752" transform="translate(38.056 38.715)" fill="#ffc931"/>
    <rect id="Rectángulo_37825" data-name="Rectángulo 37825" width="3.296" height="7.035" transform="translate(38.054 37.432)" fill="#ffc931"/>
    <rect id="Rectángulo_37826" data-name="Rectángulo 37826" width="8.96" height="5.753" transform="translate(38.056 52.33)" fill="#ffc931"/>
    <rect id="Rectángulo_37827" data-name="Rectángulo 37827" width="3.296" height="7.037" transform="translate(38.054 51.046)" fill="#ffc931"/>
    <rect id="Rectángulo_37828" data-name="Rectángulo 37828" width="8.96" height="1.891" transform="translate(38.056 45.414)" fill="#69afb5"/>
    <rect id="Rectángulo_37829" data-name="Rectángulo 37829" width="8.96" height="1.893" transform="translate(38.056 58.989)" fill="#69afb5"/>
    <path id="Trazado_177008" data-name="Trazado 177008" d="M104.712,73.843s-3.31-7.793-9.24-9.005A90.165,90.165,0,0,0,81.561,63.53s12.336-4.741,17.07-1.394,6.081,11.707,6.081,11.707" transform="translate(49.619 37.074)" fill="#232222"/>
    <path id="Trazado_177009" data-name="Trazado 177009" d="M84.942,85.927s1.43,19.77,6.538,24.658a27.253,27.253,0,0,0,11.109,6.35s-10.663.983-15.55-7.016-2.1-23.992-2.1-23.992" transform="translate(51.194 52.275)" fill="#232222"/>
    <path id="Trazado_177010" data-name="Trazado 177010" d="M63.109,103.366s7.384-7.279,11.148-13.655,1.92-19.965,1.92-19.965,5.9,9.386,4.026,18.5-17.094,15.115-17.094,15.115" transform="translate(38.394 42.431)" fill="#232222"/>
    <path id="Trazado_177011" data-name="Trazado 177011" d="M62.272,105.076s1.743-3.68,3.173-7.288S77.6,88.034,77.6,88.034A45.469,45.469,0,0,0,71.61,99.167c-2.771,7.132-9.338,5.909-9.338,5.909" transform="translate(37.884 53.557)" fill="#232222"/>
    <path id="Trazado_177012" data-name="Trazado 177012" d="M105.283,48.565c-.592-9.01-6.292-18.064-13.707-23.262C81.3,28.576,72.613,33.478,71.857,36.1c-1.126,3.9,15.8,24.428,15.2,37.488C86.72,80.977,82.1,82.921,78.77,84A68.914,68.914,0,0,0,87.5,82.619c11.99-2.808,18.736-19.608,17.785-34.054" transform="translate(43.683 15.394)" fill="#232222"/>
    <path id="Trazado_177013" data-name="Trazado 177013" d="M109.38,72.443s-6.5-8.827-12.758-11.376a15.287,15.287,0,0,0-11.733.177s7.458-7.328,15.76-3.68,8.73,14.879,8.73,14.879" transform="translate(51.644 34.401)" fill="#232222"/>
    <path id="Trazado_177014" data-name="Trazado 177014" d="M78.363,65.569c-2.5,2.092-5.285,5.809-9.274,11.506-8.42,12.023-18.9,33.28-18.945,37.523-.076,7.017-.45,11.748.442,14.472,1.118.931,1.991,1.446,2.479,1.383,3.645-.463,21.062-31.6,26.747-42.6,4.5-8.695,1.3-18.123-1.449-22.282" transform="translate(30.419 39.89)" fill="#1e1e1e"/>
    <path id="Trazado_177015" data-name="Trazado 177015" d="M67.909,46.877c-3.551,1.47-5.576,9.909-6.268,9.932-3.36.111-3.228-8.922-1.526-11.707s4.31-4.381,3.907-5.431S61.3,39.5,58.949,41.258c-2.821,2.12-3.022,9.267-4.415,8.959s3.173-16.926.333-16.373-3.5,16.951-4.774,16.994l-.011,0c.154,1.98,1.425,8.327,2.327,9.866,4.124,7.043,5.842,7.661,7.772,12.245a28.148,28.148,0,0,1,1.446,6.125c3.029,0,5.467-.122,5.485-.489.042-.928-2.223-14.189-2.306-15.738s3.538-9.062,4.611-13.3c.759-3-.2-3.205-1.507-2.662" transform="translate(30.468 20.581)" fill="#111010"/>
    <path id="Trazado_177016" data-name="Trazado 177016" d="M84.186,140.953c-.368,1.674,35.5,3.965,39.227,3.506,28.505-3.506,30.564-7.934,30.564-8.909,0-1.587,2.691-31.241-15.44-55.736-1.306-1.763-10.242-8.254-12.206-9.06-4.146-2.044-5.769-8.222-5.769-8.222a90.187,90.187,0,0,1-1.047-11.41S116.286,64.2,121.75,76.3s14.268,25.756,13.369,38.4-9.567,28.216-26.672,26.257a156.565,156.565,0,0,1-26.226-5.866c1.354,3.038,2.123,5.16,1.965,5.866" transform="translate(50.021 31.101)" fill="#232222"/>
    <path id="Trazado_177017" data-name="Trazado 177017" d="M104.951,72.508S113.147,86.179,116,96.36s3.923,23.365,3.923,23.365,4.275-18.627-2.141-31.228-12.827-15.989-12.827-15.989" transform="translate(63.849 44.112)" fill="#232222"/>
    <path id="Trazado_177018" data-name="Trazado 177018" d="M74.728,90.769s1.337-7.241,7.754-6.585c7.4.754,4.959,20.113,4.959,20.113s-2.8-9.771-5.552-12.708a5.115,5.115,0,0,0-7.16-.82" transform="translate(45.462 51.189)" fill="#232222"/>
    <path id="Trazado_177019" data-name="Trazado 177019" d="M115.253,79.484s-2.839-16.713.713-25.861c5.221-13.44-3.207-29.884-16.315-30.34a46.237,46.237,0,0,0-8.7.61c5.129,1.579,16.436,6.625,16.806,20.524.482,18,2.4,37.351,10.366,40.822a17.952,17.952,0,0,1-2.866-5.755" transform="translate(55.329 14.151)" fill="#232222"/>
    <path id="Trazado_177020" data-name="Trazado 177020" d="M72.63,31.255a3.4,3.4,0,0,0-.772,1.222c-1.127,3.9,15.8,24.428,15.2,37.488-.169,3.667-1.4,5.973-3,7.521.011-.01.026-.01.037-.018,8.6-4.333,3.7-18.231-2.335-30.141-3.521-6.951-6.911-12.579-9.134-16.072" transform="translate(43.684 19.015)" fill="#5c7e7f"/>
  </g>
</svg>
