<svg id="Grupo_112467" data-name="Grupo 112467" xmlns="http://www.w3.org/2000/svg" xmlns:xlink="http://www.w3.org/1999/xlink" width="159.409" height="175.5" viewBox="0 0 159.409 175.5">
  <defs>
    <clipPath id="clip-path">
      <rect id="Rectángulo_37937" data-name="Rectángulo 37937" width="159.409" height="175.5" fill="none"/>
    </clipPath>
    <clipPath id="clip-path-3">
      <rect id="Rectángulo_37921" data-name="Rectángulo 37921" width="56.193" height="148.4" fill="none"/>
    </clipPath>
    <clipPath id="clip-path-4">
      <rect id="Rectángulo_37922" data-name="Rectángulo 37922" width="38.212" height="111.211" fill="none"/>
    </clipPath>
    <clipPath id="clip-path-5">
      <rect id="Rectángulo_37923" data-name="Rectángulo 37923" width="0.906" height="5.251" fill="none"/>
    </clipPath>
    <clipPath id="clip-path-10">
      <rect id="Rectángulo_37928" data-name="Rectángulo 37928" width="2.356" height="3.043" fill="none"/>
    </clipPath>
    <clipPath id="clip-path-11">
      <rect id="Rectángulo_37929" data-name="Rectángulo 37929" width="25.512" height="23.533" fill="none"/>
    </clipPath>
    <clipPath id="clip-path-12">
      <rect id="Rectángulo_37930" data-name="Rectángulo 37930" width="12.463" height="10.655" fill="none"/>
    </clipPath>
    <clipPath id="clip-path-13">
      <rect id="Rectángulo_37932" data-name="Rectángulo 37932" width="26.792" height="66.489" fill="none"/>
    </clipPath>
    <clipPath id="clip-path-14">
      <rect id="Rectángulo_37933" data-name="Rectángulo 37933" width="16.768" height="57.343" fill="none"/>
    </clipPath>
    <clipPath id="clip-path-15">
      <path id="Trazado_179746" data-name="Trazado 179746" d="M45.551,26.352,17.786,42.379V160.614l48.621-28.036,4.831-2.821.61-.34,4.107-2.37V8.791Z" transform="translate(-17.786 -8.791)" fill="none"/>
    </clipPath>
  </defs>
  <g id="Grupo_112463" data-name="Grupo 112463" clip-path="url(#clip-path)">
    <g id="Grupo_112460" data-name="Grupo 112460">
      <g id="Grupo_112459" data-name="Grupo 112459" clip-path="url(#clip-path)">
        <path id="Trazado_179652" data-name="Trazado 179652" d="M73.611.36,14.177,34.673a5.824,5.824,0,0,0-2.634,4.564v131.43a1.849,1.849,0,0,0,.772,1.705,1.852,1.852,0,0,0,1.864-.184l59.432-34.313a5.826,5.826,0,0,0,2.636-4.565V1.881C76.247.2,75.067-.481,73.611.36" transform="translate(3.956 0)" fill="#878787"/>
        <path id="Trazado_179653" data-name="Trazado 179653" d="M17.233,175.291l-5.114-2.953L75.206.1,80.3,3.048Z" transform="translate(4.153 0.034)" fill="#878787"/>
        <path id="Trazado_179654" data-name="Trazado 179654" d="M77.42,2.559,17.987,36.872a5.826,5.826,0,0,0-2.636,4.564l0,131.43a1.851,1.851,0,0,0,.769,1.705,1.852,1.852,0,0,0,1.864-.184l59.434-34.313a5.826,5.826,0,0,0,2.636-4.565V4.08c0-1.681-1.18-2.362-2.636-1.521" transform="translate(5.261 0.754)" fill="#3c3c3b"/>
        <path id="Trazado_179655" data-name="Trazado 179655" d="M75.955,8.791V127.048l-4.109,2.37-.608.338-4.831,2.821L17.786,160.613V42.379L45.551,26.352Z" transform="translate(6.096 3.013)" fill="#007a96"/>
        <g id="Grupo_112425" data-name="Grupo 112425" transform="translate(24.869 13.516)" opacity="0.2">
          <g id="Grupo_112424" data-name="Grupo 112424">
            <g id="Grupo_112423" data-name="Grupo 112423" clip-path="url(#clip-path-3)">
              <path id="Trazado_179656" data-name="Trazado 179656" d="M74.715,10.066,64.782,15.8,18.521,143.174v15.292l13.014-7.5L74.715,27.141Z" transform="translate(-18.522 -10.066)" fill="#fff"/>
            </g>
          </g>
        </g>
        <g id="Grupo_112428" data-name="Grupo 112428" transform="translate(42.851 40.336)" opacity="0.2">
          <g id="Grupo_112427" data-name="Grupo 112427">
            <g id="Grupo_112426" data-name="Grupo 112426" clip-path="url(#clip-path-4)">
              <path id="Trazado_179657" data-name="Trazado 179657" d="M70.126,30.041,31.913,141.252l5.775-3.33L70.126,42.249Z" transform="translate(-31.914 -30.041)" fill="#fff"/>
            </g>
          </g>
        </g>
        <path id="Trazado_179658" data-name="Trazado 179658" d="M48.939,107.795,34.257,116.27a2.412,2.412,0,0,0-1.088,1.884v4.395c0,.694.489.975,1.088.628L48.939,114.7a2.407,2.407,0,0,0,1.086-1.884v-4.395c0-.694-.486-.975-1.086-.628" transform="translate(11.367 36.891)" fill="#878787"/>
        <path id="Trazado_179659" data-name="Trazado 179659" d="M34.119,116.719a1.2,1.2,0,0,0-.544.943v4.395c0,.346.244.486.544.313L48.8,113.894a1.2,1.2,0,0,0,.544-.941v-4.4c0-.346-.244-.486-.544-.313Z" transform="translate(11.506 37.071)" fill="#1d1d1b"/>
        <path id="Trazado_179660" data-name="Trazado 179660" d="M37.182,18.633c0-.289-.2-.407-.454-.262a1,1,0,0,0-.452.784v4.082c0,.289.2.406.454.262a1,1,0,0,0,.452-.785Z" transform="translate(12.432 6.275)" fill="#273340"/>
        <path id="Trazado_179661" data-name="Trazado 179661" d="M38.6,17.815c0-.289-.2-.405-.454-.262a1,1,0,0,0-.452.785v4.08c0,.289.2.405.452.262a1,1,0,0,0,.454-.785Z" transform="translate(12.918 5.994)" fill="#273340"/>
        <path id="Trazado_179662" data-name="Trazado 179662" d="M40.016,17c0-.289-.2-.407-.452-.262a1,1,0,0,0-.454.784V21.6c0,.289.2.405.454.262a1,1,0,0,0,.452-.785Z" transform="translate(13.403 5.714)" fill="#273340"/>
        <path id="Trazado_179663" data-name="Trazado 179663" d="M41.433,16.178c0-.289-.2-.405-.452-.262a1,1,0,0,0-.454.785v4.08c0,.289.2.405.454.262a1,1,0,0,0,.452-.785Z" transform="translate(13.889 5.433)" fill="#273340"/>
        <path id="Trazado_179664" data-name="Trazado 179664" d="M42.851,15.36c0-.289-.2-.405-.452-.262a1,1,0,0,0-.454.785v4.08c0,.289.2.407.454.262a1,1,0,0,0,.452-.785Z" transform="translate(14.375 5.153)" fill="#273340"/>
        <g id="Grupo_112431" data-name="Grupo 112431" transform="translate(48.708 24.584)" opacity="0.5">
          <g id="Grupo_112430" data-name="Grupo 112430">
            <g id="Grupo_112429" data-name="Grupo 112429" clip-path="url(#clip-path-5)">
              <path id="Trazado_179665" data-name="Trazado 179665" d="M37.182,18.633c0-.289-.2-.407-.454-.262a1,1,0,0,0-.452.784v4.082c0,.289.2.406.454.262a1,1,0,0,0,.452-.785Z" transform="translate(-36.275 -18.309)"/>
            </g>
          </g>
        </g>
        <g id="Grupo_112434" data-name="Grupo 112434" transform="translate(50.611 23.485)" opacity="0.5">
          <g id="Grupo_112433" data-name="Grupo 112433">
            <g id="Grupo_112432" data-name="Grupo 112432" clip-path="url(#clip-path-5)">
              <path id="Trazado_179666" data-name="Trazado 179666" d="M38.6,17.815c0-.289-.2-.405-.454-.262a1,1,0,0,0-.452.785v4.08c0,.289.2.405.452.262a1,1,0,0,0,.454-.785Z" transform="translate(-37.693 -17.491)"/>
            </g>
          </g>
        </g>
        <g id="Grupo_112437" data-name="Grupo 112437" transform="translate(52.514 22.386)" opacity="0.5">
          <g id="Grupo_112436" data-name="Grupo 112436">
            <g id="Grupo_112435" data-name="Grupo 112435" clip-path="url(#clip-path-5)">
              <path id="Trazado_179667" data-name="Trazado 179667" d="M40.016,17c0-.289-.2-.407-.452-.262a1,1,0,0,0-.454.784V21.6c0,.289.2.405.454.262a1,1,0,0,0,.452-.785Z" transform="translate(-39.11 -16.672)"/>
            </g>
          </g>
        </g>
        <g id="Grupo_112440" data-name="Grupo 112440" transform="translate(54.417 21.287)" opacity="0.5">
          <g id="Grupo_112439" data-name="Grupo 112439">
            <g id="Grupo_112438" data-name="Grupo 112438" clip-path="url(#clip-path-5)">
              <path id="Trazado_179668" data-name="Trazado 179668" d="M41.433,16.178c0-.289-.2-.405-.452-.262a1,1,0,0,0-.454.785v4.08c0,.289.2.405.454.262a1,1,0,0,0,.452-.785Z" transform="translate(-40.528 -15.854)"/>
            </g>
          </g>
        </g>
        <g id="Grupo_112443" data-name="Grupo 112443" transform="translate(56.32 20.189)" opacity="0.5">
          <g id="Grupo_112442" data-name="Grupo 112442">
            <g id="Grupo_112441" data-name="Grupo 112441" clip-path="url(#clip-path-5)">
              <path id="Trazado_179669" data-name="Trazado 179669" d="M42.851,15.36c0-.289-.2-.405-.452-.262a1,1,0,0,0-.454.785v4.08c0,.289.2.407.454.262a1,1,0,0,0,.452-.785Z" transform="translate(-41.945 -15.036)"/>
            </g>
          </g>
        </g>
        <path id="Trazado_179670" data-name="Trazado 179670" d="M24.863,27.61c0-.751-.528-1.055-1.178-.681a2.606,2.606,0,0,0-1.179,2.041c0,.752.528,1.055,1.179.681a2.606,2.606,0,0,0,1.178-2.041" transform="translate(7.713 9.174)" fill="#878787"/>
        <g id="Grupo_112446" data-name="Grupo 112446" transform="translate(38.83 30.972)" opacity="0.5">
          <g id="Grupo_112445" data-name="Grupo 112445">
            <g id="Grupo_112444" data-name="Grupo 112444" clip-path="url(#clip-path-10)">
              <path id="Trazado_179671" data-name="Trazado 179671" d="M31.275,23.908c0-.751-.528-1.055-1.178-.681a2.606,2.606,0,0,0-1.179,2.041c0,.752.528,1.055,1.179.681a2.606,2.606,0,0,0,1.178-2.041" transform="translate(-28.919 -23.067)"/>
            </g>
          </g>
        </g>
        <path id="Trazado_179672" data-name="Trazado 179672" d="M111.278,96.585l1.392,4.234.837,6.129v5.627c.013.988.3,1.709,1,2a6.31,6.31,0,0,0,5.627-1.114c1.447-1.838,1.19-4.62.947-7.186l-1.92-6.24-1.089-2.062L116.18,94.8l-4.568,1.783Z" transform="translate(38.136 32.489)" fill="#3a144a"/>
        <path id="Trazado_179673" data-name="Trazado 179673" d="M80.858,95.964l-.514,3.683-3.3,3-8.5,3.014a2.026,2.026,0,0,0,0,3.008c3.256,1.339,8.346.757,13.816-.222a8.849,8.849,0,0,0,6.688-.557,12.918,12.918,0,0,0-.725-6.129l-.5-5.014Z" transform="translate(23.261 32.888)" fill="#3a144a"/>
        <path id="Trazado_179674" data-name="Trazado 179674" d="M130.049,116.892c-1.952,2.514-6.358,2.581-7.682.422-1.779-6.573-5.034-12.843-7.909-20.165l-3.678-6.244c-4.706-8.792-8.6-16.64-11.2-24.624l-1.966.04c-2.608,8.3-5.549,15.7-10.015,22.8.087,11.727.9,25.326-2.006,29.3a8.35,8.35,0,0,1-2.781.516c-2.146.007-4.172-1.023-6.017-3.523L77.574,94.7a25.38,25.38,0,0,1-.074-10.47A103.169,103.169,0,0,1,87.6,55.364c5.128,1.972,13.986,1.3,20.966-4.96,1.41,1.317,3.256,5.308,3.884,8.858,4.332,8.07,6.518,18.145,7.909,28.969,4.8,5.309,7.461,15.2,10.59,25.185a4.757,4.757,0,0,1-.9,3.476" transform="translate(26.32 17.274)" fill="#007a96"/>
        <path id="Trazado_179675" data-name="Trazado 179675" d="M108.628,56.479a6.875,6.875,0,0,1-1.419,2.119c-4.051,4.286-13.992,6.379-19.548,2.843l-2.052-4.961a10.491,10.491,0,0,1-.9-.763,19.029,19.029,0,0,1-1.431-1.47,44.849,44.849,0,0,1-5.582-8.076L76.625,35.252C82.02,32.858,86.76,32.692,92.7,33.968a13.505,13.505,0,0,1,10.73-.334l1.418,3.658,2.535,6.538a35.851,35.851,0,0,1,1.243,12.65" transform="translate(26.26 11.199)" fill="#662483"/>
        <g id="Grupo_112449" data-name="Grupo 112449" transform="translate(109.536 48.49)" opacity="0.5" style="mix-blend-mode: multiply;isolation: isolate">
          <g id="Grupo_112448" data-name="Grupo 112448">
            <g id="Grupo_112447" data-name="Grupo 112447" clip-path="url(#clip-path-11)">
              <path id="Trazado_179676" data-name="Trazado 179676" d="M106.931,55.3a9.24,9.24,0,0,1-4.377,4.346,61.243,61.243,0,0,0-6.226-12.536L83.009,54.539l-1.431-1.47,20.157-16.46,1.418-.494,2.535,6.538a35.851,35.851,0,0,1,1.243,12.65" transform="translate(-81.578 -36.114)" fill="#662483"/>
            </g>
          </g>
        </g>
        <path id="Trazado_179677" data-name="Trazado 179677" d="M79.594,34.343c-2.015.761-3.942,2.585-5.77,5.6L70.269,43.7l4.968,5.77c2.526-1.3,4.648-3.709,6.793-5.661Z" transform="translate(24.082 11.77)" fill="#662483"/>
        <path id="Trazado_179678" data-name="Trazado 179678" d="M75.7,31.572c-.09,5.177,1.8,10.8,5.378,11.511,1.472.293,4.5,3.949,7.455,6.207-.373-3.225,1.055-6.209,3.1-9.11L86.365,28.786Z" transform="translate(25.944 9.865)" fill="#3a144a"/>
        <path id="Trazado_179679" data-name="Trazado 179679" d="M85.4,24.823c-5.347-.015-8.341,3.449-8.55,8.286a6.222,6.222,0,0,0,.9,3.44l.753,1.269-.316,1.657c-.269,1.435.837.955,1.277,1.184a9.336,9.336,0,0,0,1.63,2.8c1.677.716,3.333-.094,5.665-1.3a2.138,2.138,0,0,0,1.121-1.513l.651-3.582,2.3-1.17c.82-1.165,1-2.931.752-5.1-.612-3.186-2.51-5.966-6.185-5.975" transform="translate(26.336 8.507)" fill="#ffbb7d"/>
        <path id="Trazado_179680" data-name="Trazado 179680" d="M82.373,36.219c1.037,1.449,1.281,3.962,3.844,5.724,4.514,1.576,7.612-5.976,5.549-7.9l-3.008-2.563Z" transform="translate(28.23 10.789)" fill="#ffbb7d"/>
        <path id="Trazado_179681" data-name="Trazado 179681" d="M111.074,54.062c-.494-3.343-2.093-7.432-4.456-12.035-.76-4.487-4.215-7.3-10.029-8.635l4.122,13.594-1.156-.939L98,52.338a38.076,38.076,0,0,0,7.331,6.46,5.741,5.741,0,0,0,4.9.334c1.535-.732,1.572-2.606.835-5.07" transform="translate(33.102 11.444)" fill="#662483"/>
        <path id="Trazado_179682" data-name="Trazado 179682" d="M77.7,34.544s7.643-.388,10.206-2.681l.471.957A17.221,17.221,0,0,1,82.559,34.9c-.542,1.786-1.335,2.324-2.2,2.322a1.825,1.825,0,0,1-1.414-.659l-.771-.932Z" transform="translate(26.629 10.92)" fill="#3a144a"/>
        <path id="Trazado_179683" data-name="Trazado 179683" d="M78.619,34.45l1.411-.107c.361,1.335-1.23,1.3-1.411.107" transform="translate(26.943 11.77)" fill="#ffbb7d"/>
        <g id="Grupo_112452" data-name="Grupo 112452" transform="translate(102.546 37.342)" opacity="0.5" style="mix-blend-mode: multiply;isolation: isolate">
          <g id="Grupo_112451" data-name="Grupo 112451">
            <g id="Grupo_112450" data-name="Grupo 112450" clip-path="url(#clip-path-12)">
              <path id="Trazado_179684" data-name="Trazado 179684" d="M77.472,34.632c3.7-.638,7.3,1.386,11.363,3.833L80.424,27.811l-3.718,1c-.422,2.261-.691,4.448.765,5.819" transform="translate(-76.373 -27.811)" fill="#ffbb7d"/>
            </g>
          </g>
        </g>
        <path id="Trazado_179685" data-name="Trazado 179685" d="M75.727,33.242c7.057-.5,9.792,6.08,14.727,12.364,4.554-2.593,7.318-5.927,8.481-9.923l-2.476-1.516A6.5,6.5,0,0,1,93.624,30.3a8.415,8.415,0,0,0-7.516-6.338c-6.142-.749-11.216,6.936-10.38,9.277" transform="translate(25.921 8.195)" fill="#662483"/>
        <rect id="Rectángulo_37931" data-name="Rectángulo 37931" width="79.668" height="2.674" transform="translate(73.43 92.021) rotate(-38.067)" fill="#9d9d9c"/>
        <path id="Trazado_179686" data-name="Trazado 179686" d="M67.03,53.763l-.337,4.263L67.5,60.84,68.784,62.2c.528.4,1.227.36,1.447.035a1.36,1.36,0,0,0,1.449-.5,1.267,1.267,0,0,0,1.476-.892c.642-.111,1.414-.592,1.686-2.242l-.882.649-1-1.109.042-1.4,1.151-.955-1.164-1.741-1.866-.667.055-1.059-3.788-.334Z" transform="translate(22.856 17.814)" fill="#3a144a"/>
        <path id="Trazado_179687" data-name="Trazado 179687" d="M68.948,43.909c-1.622,3.71-1.994,9.126-2.006,13.956.573-1.006,2.053-1.179,4.1-.835a20.986,20.986,0,0,0,3.927-9.36,8.884,8.884,0,0,0,1.414-.589c-.377-3.369-1.755-5.606-4.969-5.77Z" transform="translate(22.942 14.158)" fill="#662483"/>
        <path id="Trazado_179688" data-name="Trazado 179688" d="M96.7,46.369a13.287,13.287,0,0,1-4.537-3.243L91.19,41.3c-.373-.9-.162-1.665.487-1.564.028-1.16.863-1.551,1.254-1.216a1.025,1.025,0,0,1,1.5-1.114,1.248,1.248,0,0,1,2.144-.473L96,37.347a2.515,2.515,0,0,0,1.858,1.967,10.239,10.239,0,0,1,.983-.8c.776.6.795.485,1.1,1.269a14.423,14.423,0,0,1-.43,3.876l.661,1.188-2.285,2.594Z" transform="translate(31.188 12.502)" fill="#3a144a"/>
        <path id="Trazado_179689" data-name="Trazado 179689" d="M98.271,41.669c-1.265-.461-2.966,1.9-3.549,3.227,1.317,1.677,2.636,3.228,3.923,4.626,2.126-1.3,2.467-3.486,1.551-6.291Z" transform="translate(32.462 14.26)" fill="#662483"/>
        <g id="Grupo_112455" data-name="Grupo 112455" transform="translate(130.509 67.678)" opacity="0.4" style="mix-blend-mode: multiply;isolation: isolate">
          <g id="Grupo_112454" data-name="Grupo 112454">
            <g id="Grupo_112453" data-name="Grupo 112453" clip-path="url(#clip-path-13)">
              <path id="Trazado_179690" data-name="Trazado 179690" d="M123.059,116.892c-2.334-11.62-6.3-21.106-12.7-27.432,1.317-8.7-2.352-18.559-8.243-28.915a7.618,7.618,0,0,0-4.921-5.8,9.512,9.512,0,0,0,4.38-4.345c1.41,1.317,3.256,5.308,3.884,8.858,4.332,8.07,6.518,18.145,7.909,28.969,4.8,5.309,7.461,15.2,10.59,25.185a4.757,4.757,0,0,1-.9,3.476" transform="translate(-97.198 -50.404)" fill="#2d759c"/>
            </g>
          </g>
        </g>
        <g id="Grupo_112458" data-name="Grupo 112458" transform="translate(109.135 78.876)" opacity="0.4" style="mix-blend-mode: multiply;isolation: isolate">
          <g id="Grupo_112457" data-name="Grupo 112457">
            <g id="Grupo_112456" data-name="Grupo 112456" clip-path="url(#clip-path-14)">
              <path id="Trazado_179691" data-name="Trazado 179691" d="M96.082,63.465c-2.608,8.3-5.549,15.7-10.015,22.8.087,11.727.9,25.325-2.006,29.3a8.347,8.347,0,0,1-2.781.514c2.828-5.508,2.861-18.485,2.895-31.489,4.98-9.386,8.517-18.359,6.932-25.853,2.154,1.658,4.3,2.514,6.438,1.892l.5,2.787Z" transform="translate(-81.279 -58.744)" fill="#2d759c"/>
            </g>
          </g>
        </g>
      </g>
    </g>
    <g id="Grupo_112462" data-name="Grupo 112462" transform="translate(23.881 11.804)">
      <g id="Grupo_112461" data-name="Grupo 112461" clip-path="url(#clip-path-15)">
        <path id="Trazado_179692" data-name="Trazado 179692" d="M24.6,97.627l.016,5.48a1.277,1.277,0,0,0,.748,1.049,4.015,4.015,0,0,0,3.645,0,1.292,1.292,0,0,0,.763-1.065l-.015-5.48a1.3,1.3,0,0,1-.763,1.065,4.024,4.024,0,0,1-3.645,0,1.279,1.279,0,0,1-.749-1.049" transform="translate(-15.452 21.648)" fill="#1d1d1b"/>
        <path id="Trazado_179693" data-name="Trazado 179693" d="M25.357,96.943a1.116,1.116,0,0,0-.012,2.112,4.024,4.024,0,0,0,3.645,0A1.117,1.117,0,0,0,29,96.942a4.014,4.014,0,0,0-3.647,0" transform="translate(-15.452 21.269)" fill="#1d1d1b"/>
        <path id="Trazado_179694" data-name="Trazado 179694" d="M52.593,81.62l.016,5.481a1.277,1.277,0,0,0,.748,1.047,4.015,4.015,0,0,0,3.645,0,1.292,1.292,0,0,0,.763-1.065L57.75,81.6a1.3,1.3,0,0,1-.763,1.065,4.023,4.023,0,0,1-3.645,0,1.279,1.279,0,0,1-.749-1.049" transform="translate(-5.857 16.163)" fill="#1d1d1b"/>
        <path id="Trazado_179695" data-name="Trazado 179695" d="M53.353,80.936a1.116,1.116,0,0,0-.012,2.112,4.024,4.024,0,0,0,3.645,0A1.117,1.117,0,0,0,57,80.934a4.018,4.018,0,0,0-3.647,0" transform="translate(-5.858 15.783)" fill="#1d1d1b"/>
        <path id="Trazado_179696" data-name="Trazado 179696" d="M26.523,119.222,67.637,95.485V48.179L26.522,71.915Z" transform="translate(-14.792 4.708)" fill="#dadada"/>
        <path id="Trazado_179697" data-name="Trazado 179697" d="M0,50.545,35.611,71.1v47.306L0,97.851Z" transform="translate(-23.881 5.518)" fill="#b2b2b2"/>
        <path id="Trazado_179698" data-name="Trazado 179698" d="M4.365,58.1V91.878l23.891,13.795-2.6-32.5L5.8,58.928Z" transform="translate(-22.385 8.108)" fill="#706f6f"/>
        <path id="Trazado_179699" data-name="Trazado 179699" d="M5.434,58.717V90.876L27.89,103.844V71.685Z" transform="translate(-22.019 8.319)" fill="#9d9d9c"/>
        <path id="Trazado_179700" data-name="Trazado 179700" d="M0,56.6l35.611,20.56L76.726,53.426,41.115,32.867Z" transform="translate(-23.881 -0.54)" fill="#fff"/>
        <path id="Trazado_179701" data-name="Trazado 179701" d="M32.866,96.195c0,.533.375.749.837.482a1.848,1.848,0,0,0,.835-1.447c0-.533-.375-.749-.835-.482a1.846,1.846,0,0,0-.837,1.447" transform="translate(-12.618 20.628)" fill="#9d9d9c"/>
        <path id="Trazado_179702" data-name="Trazado 179702" d="M38.406,93.009c0,.533.375.749.837.482a1.848,1.848,0,0,0,.835-1.447c0-.533-.375-.749-.837-.482a1.848,1.848,0,0,0-.835,1.447" transform="translate(-10.719 19.536)" fill="#9d9d9c"/>
        <path id="Trazado_179703" data-name="Trazado 179703" d="M43.945,89.822c0,.533.375.749.837.482a1.848,1.848,0,0,0,.835-1.447c0-.533-.375-.749-.835-.482a1.846,1.846,0,0,0-.837,1.447" transform="translate(-8.821 18.444)" fill="#9d9d9c"/>
        <path id="Trazado_179704" data-name="Trazado 179704" d="M49.485,86.635c0,.533.375.749.837.482a1.848,1.848,0,0,0,.835-1.447c0-.533-.375-.749-.837-.482a1.848,1.848,0,0,0-.835,1.447" transform="translate(-6.922 17.351)" fill="#9d9d9c"/>
        <path id="Trazado_179705" data-name="Trazado 179705" d="M55.025,83.449c0,.533.375.749.837.482a1.845,1.845,0,0,0,.835-1.447c0-.533-.375-.749-.835-.482a1.846,1.846,0,0,0-.837,1.447" transform="translate(-5.024 16.259)" fill="#9d9d9c"/>
        <path id="Trazado_179706" data-name="Trazado 179706" d="M55.06,77.064c0,.533.375.749.837.482a1.848,1.848,0,0,0,.835-1.447c0-.533-.375-.749-.837-.482a1.848,1.848,0,0,0-.835,1.447" transform="translate(-5.012 14.071)" fill="#9d9d9c"/>
        <path id="Trazado_179707" data-name="Trazado 179707" d="M55.095,70.68c0,.533.375.749.837.483a1.853,1.853,0,0,0,.835-1.449c0-.533-.375-.749-.835-.482a1.846,1.846,0,0,0-.837,1.447" transform="translate(-5 11.883)" fill="#9d9d9c"/>
        <path id="Trazado_179708" data-name="Trazado 179708" d="M55.13,64.295c0,.533.375.749.835.483a1.85,1.85,0,0,0,.837-1.449c0-.533-.375-.749-.837-.482a1.848,1.848,0,0,0-.835,1.447" transform="translate(-4.988 9.695)" fill="#9d9d9c"/>
        <path id="Trazado_179709" data-name="Trazado 179709" d="M55.165,57.911c0,.533.375.749.837.482a1.848,1.848,0,0,0,.835-1.447c0-.533-.375-.749-.837-.482a1.848,1.848,0,0,0-.835,1.447" transform="translate(-4.976 7.507)" fill="#9d9d9c"/>
        <path id="Trazado_179710" data-name="Trazado 179710" d="M55.2,51.527c0,.533.375.749.835.482a1.846,1.846,0,0,0,.837-1.447c0-.533-.375-.749-.837-.482a1.848,1.848,0,0,0-.835,1.447" transform="translate(-4.964 5.32)" fill="#9d9d9c"/>
        <path id="Trazado_179711" data-name="Trazado 179711" d="M49.625,54.738c0,.533.375.749.835.482a1.846,1.846,0,0,0,.837-1.447c0-.533-.375-.749-.837-.482a1.848,1.848,0,0,0-.835,1.447" transform="translate(-6.875 6.42)" fill="#9d9d9c"/>
        <path id="Trazado_179712" data-name="Trazado 179712" d="M44.05,57.949c0,.533.375.749.835.482a1.846,1.846,0,0,0,.837-1.447c0-.533-.375-.749-.837-.482a1.848,1.848,0,0,0-.835,1.447" transform="translate(-8.785 7.52)" fill="#9d9d9c"/>
        <path id="Trazado_179713" data-name="Trazado 179713" d="M38.476,61.16c0,.533.375.749.835.482a1.846,1.846,0,0,0,.837-1.447c0-.533-.375-.749-.837-.482a1.848,1.848,0,0,0-.835,1.447" transform="translate(-10.695 8.621)" fill="#9d9d9c"/>
        <path id="Trazado_179714" data-name="Trazado 179714" d="M32.9,64.371c0,.533.375.749.835.482a1.846,1.846,0,0,0,.837-1.447c0-.533-.375-.749-.837-.482a1.848,1.848,0,0,0-.835,1.447" transform="translate(-12.606 9.721)" fill="#9d9d9c"/>
        <path id="Trazado_179715" data-name="Trazado 179715" d="M27.326,67.582c0,.533.375.749.837.482A1.848,1.848,0,0,0,29,66.616c0-.533-.375-.749-.835-.482a1.846,1.846,0,0,0-.837,1.447" transform="translate(-14.517 10.822)" fill="#9d9d9c"/>
        <path id="Trazado_179716" data-name="Trazado 179716" d="M27.326,73.942c0,.533.375.749.837.482A1.848,1.848,0,0,0,29,72.976c0-.533-.375-.749-.835-.482a1.846,1.846,0,0,0-.837,1.447" transform="translate(-14.517 13.001)" fill="#9d9d9c"/>
        <path id="Trazado_179717" data-name="Trazado 179717" d="M27.326,80.3c0,.533.375.749.837.482A1.848,1.848,0,0,0,29,79.336c0-.533-.375-.749-.835-.482a1.846,1.846,0,0,0-.837,1.447" transform="translate(-14.517 15.181)" fill="#9d9d9c"/>
        <path id="Trazado_179718" data-name="Trazado 179718" d="M27.326,86.662c0,.533.375.749.837.482A1.848,1.848,0,0,0,29,85.7c0-.533-.375-.749-.835-.482a1.846,1.846,0,0,0-.837,1.447" transform="translate(-14.517 17.361)" fill="#9d9d9c"/>
        <path id="Trazado_179719" data-name="Trazado 179719" d="M27.326,93.022c0,.533.375.749.837.483A1.853,1.853,0,0,0,29,92.056c0-.533-.375-.749-.835-.482a1.846,1.846,0,0,0-.837,1.447" transform="translate(-14.517 19.54)" fill="#9d9d9c"/>
        <path id="Trazado_179720" data-name="Trazado 179720" d="M27.326,99.382c0,.533.375.749.837.483A1.853,1.853,0,0,0,29,98.416c0-.533-.375-.749-.835-.482a1.846,1.846,0,0,0-.837,1.447" transform="translate(-14.517 21.72)" fill="#9d9d9c"/>
        <path id="Trazado_179721" data-name="Trazado 179721" d="M19.612,95.618c.068-.436.391-.6.8-.361a1.586,1.586,0,0,1,.459.436,1.927,1.927,0,0,1,.29.592,1.237,1.237,0,0,1,.031.529c-.067.436-.391.6-.8.361a1.582,1.582,0,0,1-.458-.436,1.916,1.916,0,0,1-.291-.592,1.259,1.259,0,0,1-.031-.529" transform="translate(-17.165 20.803)" fill="#9d9d9c"/>
        <path id="Trazado_179722" data-name="Trazado 179722" d="M15,92.819c.115-.34.408-.455.768-.239a1.6,1.6,0,0,1,.478.475,1.828,1.828,0,0,1,.279.635,1.052,1.052,0,0,1-.032.556c-.115.34-.408.455-.768.239a1.58,1.58,0,0,1-.478-.475,1.828,1.828,0,0,1-.279-.635A1.039,1.039,0,0,1,15,92.819" transform="translate(-18.762 19.887)" fill="#9d9d9c"/>
        <path id="Trazado_179723" data-name="Trazado 179723" d="M15.123,60.549a.623.623,0,0,1,.62.086,1.73,1.73,0,0,1,.571.611,1.757,1.757,0,0,1,.243.761c0,.021,0,.044,0,.067a.648.648,0,0,1-.236.552.67.67,0,0,1-.62-.086,1.718,1.718,0,0,1-.571-.611,1.757,1.757,0,0,1-.243-.761c0-.021,0-.044,0-.067a.6.6,0,0,1,.236-.552" transform="translate(-18.78 8.929)" fill="#9d9d9c"/>
        <path id="Trazado_179724" data-name="Trazado 179724" d="M19.8,63.313a.6.6,0,0,1,.606.073,1.721,1.721,0,0,1,.581.618,1.782,1.782,0,0,1,.243.76v.066a.618.618,0,0,1-.24.546.63.63,0,0,1-.607-.073,1.73,1.73,0,0,1-.58-.618,1.751,1.751,0,0,1-.243-.76c0-.021,0-.044,0-.066a.6.6,0,0,1,.24-.546" transform="translate(-17.177 9.876)" fill="#9d9d9c"/>
        <path id="Trazado_179725" data-name="Trazado 179725" d="M25.909,67.582a.51.51,0,0,1-.838.482,1.842,1.842,0,0,1-.835-1.447.509.509,0,0,1,.835-.482,1.688,1.688,0,0,1,.592.623,1.719,1.719,0,0,1,.246.824" transform="translate(-15.576 10.822)" fill="#9d9d9c"/>
        <path id="Trazado_179726" data-name="Trazado 179726" d="M25.909,73.942c0,.533-.376.749-.838.482a1.845,1.845,0,0,1-.835-1.447c0-.533.375-.749.835-.482a1.847,1.847,0,0,1,.838,1.447" transform="translate(-15.576 13.001)" fill="#9d9d9c"/>
        <path id="Trazado_179727" data-name="Trazado 179727" d="M25.909,80.3c0,.533-.376.749-.838.482a1.844,1.844,0,0,1-.835-1.447c0-.533.375-.749.835-.482a1.847,1.847,0,0,1,.838,1.447" transform="translate(-15.576 15.181)" fill="#9d9d9c"/>
        <path id="Trazado_179728" data-name="Trazado 179728" d="M25.909,86.662c0,.533-.376.749-.838.482a1.845,1.845,0,0,1-.835-1.447c0-.533.375-.749.835-.482a1.847,1.847,0,0,1,.838,1.447" transform="translate(-15.576 17.361)" fill="#9d9d9c"/>
        <path id="Trazado_179729" data-name="Trazado 179729" d="M25.909,93.022c0,.533-.376.749-.838.483a1.849,1.849,0,0,1-.835-1.449c0-.533.375-.749.835-.482a1.847,1.847,0,0,1,.838,1.447" transform="translate(-15.576 19.54)" fill="#9d9d9c"/>
        <path id="Trazado_179730" data-name="Trazado 179730" d="M25.909,99.382c0,.533-.376.749-.838.483a1.849,1.849,0,0,1-.835-1.449c0-.533.375-.749.835-.482a1.847,1.847,0,0,1,.838,1.447" transform="translate(-15.576 21.72)" fill="#9d9d9c"/>
        <path id="Trazado_179731" data-name="Trazado 179731" d="M57.676,62.786l-3.652-2.095c-2.624-1.505-6.233-1.293-10.217.991-8.019,4.6-14.521,15.861-14.521,25.152,0,4.675,1.646,7.961,4.3,9.485l3.651,2.095c-2.657-1.524-4.3-4.81-4.3-9.485,0-9.29,6.5-20.551,14.521-25.152,3.984-2.285,7.593-2.5,10.217-.991" transform="translate(-13.845 8.666)" fill="#3c3c3b"/>
        <path id="Trazado_179732" data-name="Trazado 179732" d="M59.535,63.881l-3.652-2.095c-2.624-1.505-6.233-1.293-10.217.991-8.02,4.6-14.521,15.861-14.521,25.152,0,4.675,1.646,7.961,4.3,9.485L39.1,99.508c-2.657-1.524-4.3-4.81-4.3-9.485,0-9.29,6.5-20.551,14.521-25.152,3.984-2.285,7.593-2.5,10.217-.991" transform="translate(-13.208 9.041)" fill="#706f6f"/>
        <path id="Trazado_179733" data-name="Trazado 179733" d="M62.908,72.83c0-9.29-6.5-13.093-14.521-8.491S33.865,80.2,33.865,89.488s6.5,13.094,14.521,8.494S62.908,82.12,62.908,72.83" transform="translate(-12.276 9.576)" fill="#fff"/>
        <path id="Trazado_179734" data-name="Trazado 179734" d="M39.433,75.682A27.4,27.4,0,0,0,35.468,88.94c0,3.709,1.139,6.411,3.205,7.609,2.048,1.186,4.922.837,8.094-.982A27.188,27.188,0,0,0,56.242,85.54a27.4,27.4,0,0,0,3.965-13.258c0-3.709-1.139-6.411-3.206-7.608-2.048-1.187-4.921-.838-8.093.982a27.173,27.173,0,0,0-9.475,10.026" transform="translate(-11.726 10.124)" fill="#706f6f"/>
        <path id="Trazado_179735" data-name="Trazado 179735" d="M38.785,75.308A27.4,27.4,0,0,0,34.82,88.566c0,3.709,1.139,6.411,3.205,7.609,2.048,1.186,4.922.837,8.094-.982a27.188,27.188,0,0,0,9.475-10.027,27.4,27.4,0,0,0,3.965-13.258c0-3.709-1.139-6.411-3.205-7.608-2.049-1.186-4.922-.838-8.094.982a27.173,27.173,0,0,0-9.475,10.026" transform="translate(-11.948 9.996)" fill="#dadada"/>
        <path id="Trazado_179736" data-name="Trazado 179736" d="M52.946,70.9c0-.636-.447-.894-1-.576a2.2,2.2,0,0,0-1,1.728.7.7,0,0,0,.294.647.706.706,0,0,0,.706-.07,2.209,2.209,0,0,0,1-1.729" transform="translate(-6.421 12.25)" fill="#3c3c3b"/>
        <rect id="Rectángulo_37935" data-name="Rectángulo 37935" width="2.823" height="1.63" transform="matrix(0.5, -0.866, 0.866, 0.5, 44.82, 84.949)" fill="#3c3c3b"/>
        <path id="Trazado_179737" data-name="Trazado 179737" d="M54,71.507c0-.636-.447-.894-1-.576a2.206,2.206,0,0,0-1,1.728.609.609,0,0,0,1,.577,2.209,2.209,0,0,0,1-1.729" transform="translate(-6.061 12.458)" fill="#dadada"/>
        <path id="Trazado_179738" data-name="Trazado 179738" d="M54.9,71.6c0-.924-.649-1.3-1.449-.836A3.2,3.2,0,0,0,52,73.277a.883.883,0,0,0,1.449.835A3.2,3.2,0,0,0,54.9,71.6" transform="translate(-6.061 12.381)" fill="#3c3c3b"/>
        <rect id="Rectángulo_37936" data-name="Rectángulo 37936" width="4.097" height="2.366" transform="translate(46.364 86.596) rotate(-60.001)" fill="#3c3c3b"/>
        <path id="Trazado_179739" data-name="Trazado 179739" d="M52.494,78.747a2.4,2.4,0,0,0,2.379-.291,8.658,8.658,0,0,0,3.887-6.731,2.515,2.515,0,0,0-.814-2.119l.557-1a3.522,3.522,0,0,1,1.4,3.122,9.793,9.793,0,0,1-4.456,7.717,3.466,3.466,0,0,1-3.519.291c-.032-.019-.063-.04-.1-.06l.549-1.007c.039.027.075.058.118.082" transform="translate(-6.12 11.707)" fill="#706f6f"/>
        <path id="Trazado_179740" data-name="Trazado 179740" d="M55.044,72.411a.427.427,0,0,0,.583.584l2.5-1.446a.427.427,0,1,0-.427-.74l-2.5,1.446a.423.423,0,0,0-.156.156" transform="translate(-5.037 12.443)" fill="#706f6f"/>
        <path id="Trazado_179741" data-name="Trazado 179741" d="M51.194,74.564a.427.427,0,0,0,.576.588l2.121-1.172a.427.427,0,0,0-.412-.748L51.356,74.4a.432.432,0,0,0-.162.16" transform="translate(-6.357 13.275)" fill="#706f6f"/>
        <path id="Trazado_179742" data-name="Trazado 179742" d="M54.05,69.337a.426.426,0,0,0-.056.213v2.4a.427.427,0,0,0,.854,0v-2.4a.427.427,0,0,0-.8-.213" transform="translate(-5.377 11.886)" fill="#706f6f"/>
        <path id="Trazado_179743" data-name="Trazado 179743" d="M54.05,73.175a.426.426,0,0,0-.056.213v3.53a.427.427,0,0,0,.854,0V73.389a.427.427,0,0,0-.8-.213" transform="translate(-5.377 13.201)" fill="#706f6f"/>
        <path id="Trazado_179744" data-name="Trazado 179744" d="M56.423,72.485c0-.924-.649-1.3-1.449-.837a3.2,3.2,0,0,0-1.449,2.51.883.883,0,0,0,1.449.835,3.2,3.2,0,0,0,1.449-2.508" transform="translate(-5.538 12.683)" fill="#fff"/>
        <path id="Trazado_179745" data-name="Trazado 179745" d="M58.308,69.715a1.339,1.339,0,0,0-.126-.089,2.4,2.4,0,0,0-2.379.291,8.662,8.662,0,0,0-3.886,6.731,2.506,2.506,0,0,0,.82,2.124,1.162,1.162,0,0,1-.551,1.008,3.514,3.514,0,0,1-1.409-3.133,9.777,9.777,0,0,1,4.455-7.717,3.467,3.467,0,0,1,3.518-.293c.039.023.077.047.113.071a1.146,1.146,0,0,1-.556,1" transform="translate(-6.479 11.598)" fill="#706f6f"/>
      </g>
    </g>
  </g>
</svg>
