<svg xmlns="http://www.w3.org/2000/svg" xmlns:xlink="http://www.w3.org/1999/xlink" width="189.108" height="161.501" viewBox="0 0 189.108 161.501">
  <defs>
    <clipPath id="clip-path">
      <rect id="Rectángulo_38865" data-name="Rectángulo 38865" width="189.108" height="161.501" fill="none"/>
    </clipPath>
  </defs>
  <g id="Grupo_143647" data-name="Grupo 143647" transform="translate(-1020.892 -4904.75)">
    <g id="Grupo_142935" data-name="Grupo 142935" transform="translate(1020.892 4904.75)">
      <path id="Trazado_184420" data-name="Trazado 184420" d="M127.339,175.641H94.91l5.33-17.391h21.769Z" transform="translate(-16.57 -27.629)" fill="#90abbd"/>
      <g id="Grupo_142934" data-name="Grupo 142934">
        <g id="Grupo_142933" data-name="Grupo 142933" clip-path="url(#clip-path)">
          <path id="Trazado_184421" data-name="Trazado 184421" d="M169.187,46.293v77.453a14.471,14.471,0,0,1-14.448,14.46H45.057a14.471,14.471,0,0,1-14.448-14.46V46.293a14.471,14.471,0,0,1,14.448-14.46H154.739a14.471,14.471,0,0,1,14.448,14.46" transform="translate(-5.344 -5.558)" fill="#56788b"/>
          <path id="Trazado_184422" data-name="Trazado 184422" d="M194.3,46.293v77.453a14.471,14.471,0,0,1-14.448,14.46h-5.413a14.471,14.471,0,0,0,14.448-14.46V46.293a14.471,14.471,0,0,0-14.448-14.46h5.413A14.471,14.471,0,0,1,194.3,46.293" transform="translate(-30.455 -5.558)" fill="#415e6f"/>
          <path id="Trazado_184423" data-name="Trazado 184423" d="M162.8,47.588v69.745a6.428,6.428,0,0,1-6.42,6.422H46.84a6.428,6.428,0,0,1-6.42-6.422V47.588a6.428,6.428,0,0,1,6.42-6.422H156.382a6.428,6.428,0,0,1,6.42,6.422" transform="translate(-7.057 -7.187)" fill="#d9f0f4"/>
          <path id="Trazado_184424" data-name="Trazado 184424" d="M186.185,47.588v69.745a6.428,6.428,0,0,1-6.42,6.422h-5.413a6.428,6.428,0,0,0,6.42-6.422V47.588a6.428,6.428,0,0,0-6.42-6.422h5.413a6.428,6.428,0,0,1,6.42,6.422" transform="translate(-30.44 -7.187)" fill="#bae1e5"/>
          <path id="Trazado_184425" data-name="Trazado 184425" d="M135.191,176.864H81.754a2.027,2.027,0,1,0,0,4.054h53.438a2.027,2.027,0,1,0,0-4.054" transform="translate(-13.919 -30.879)" fill="#56788b"/>
          <path id="Trazado_184426" data-name="Trazado 184426" d="M59.477,148.682H51.184a2.027,2.027,0,1,0,0,4.054h8.293a2.027,2.027,0,1,0,0-4.054" transform="translate(-8.582 -25.959)" fill="#415e6f"/>
          <path id="Trazado_184427" data-name="Trazado 184427" d="M79.152,148.682H70.859a2.027,2.027,0,1,0,0,4.054h8.293a2.027,2.027,0,1,0,0-4.054" transform="translate(-12.017 -25.959)" fill="#415e6f"/>
          <path id="Trazado_184428" data-name="Trazado 184428" d="M59.5,116.63H50.8a2.03,2.03,0,0,0,0,4.06h8.7a2.03,2.03,0,1,0,0-4.06" transform="translate(-8.514 -20.363)" fill="#90abbd"/>
          <path id="Trazado_184429" data-name="Trazado 184429" d="M48.767,130.137a2.03,2.03,0,0,0,2.03,2.03H64.9a2.03,2.03,0,0,0,0-4.059H50.8a2.03,2.03,0,0,0-2.03,2.03" transform="translate(-8.514 -22.366)" fill="#90abbd"/>
          <path id="Trazado_184430" data-name="Trazado 184430" d="M149.565,60.9A44.355,44.355,0,1,1,116.44,17.945,44.421,44.421,0,0,1,149.565,60.9Z" transform="translate(-10.608 -2.881)" fill="#d9f0f4"/>
          <path id="Trazado_184431" data-name="Trazado 184431" d="M161.342,61.209a44.42,44.42,0,0,1-33.124,42.955,46.6,46.6,0,0,0,0-85.914A44.423,44.423,0,0,1,161.342,61.209Z" transform="translate(-22.386 -3.186)" fill="#bae1e5"/>
          <path id="Trazado_184432" data-name="Trazado 184432" d="M104.7,13.886c-1.083,0-2.161.038-3.225.111a46.559,46.559,0,0,0,0,92.9c1.064.073,2.142.111,3.225.111a46.56,46.56,0,1,0,0-93.12m27.239,13.948a42.432,42.432,0,0,1,15.237,30.583H133.864c-.281-10.617-2.767-20.607-7.1-28.564q2.4-.8,4.651-1.789c.176-.077.349-.152.522-.23M124.6,94.6q1.824.581,3.563,1.269a42.581,42.581,0,0,1-8.008,4.166A35.694,35.694,0,0,0,124.6,94.6Zm-17.873,8.2V91.692a67.357,67.357,0,0,1,13.723,1.762c-3.95,5.42-8.7,8.663-13.723,9.354M122.778,89.85a70.823,70.823,0,0,0-16.047-2.22V79.244H102.67v8.387a70.823,70.823,0,0,0-16.047,2.22c-4.275-7.482-6.739-17.088-7.025-27.372H102.67v7.29h4.061v-7.29H129.8c-.287,10.285-2.75,19.89-7.025,27.372M79.6,58.417c.287-10.285,2.751-19.893,7.026-27.376a70.636,70.636,0,0,0,16.046,2.223V58.417Zm27.134,0V33.264a70.644,70.644,0,0,0,16.047-2.223c4.275,7.482,6.739,17.091,7.025,27.376Zm13.723-30.979A67.012,67.012,0,0,1,106.731,29.2V18.085c5.019.69,9.774,3.933,13.723,9.353m-.295-6.583a42.357,42.357,0,0,1,8.008,4.164q-1.738.69-3.563,1.269a35.678,35.678,0,0,0-4.445-5.434m-17.49-2.769V29.2a67.07,67.07,0,0,1-13.724-1.762c3.95-5.42,8.7-8.663,13.724-9.354M89.241,20.854A35.681,35.681,0,0,0,84.8,26.288q-1.824-.581-3.563-1.269a42.364,42.364,0,0,1,8.009-4.164m-11.779,6.98q2.5,1.12,5.174,2.019C78.3,37.81,75.818,47.8,75.536,58.417H62.225A42.429,42.429,0,0,1,77.462,27.834M62.225,62.478H75.537c.281,10.615,2.767,20.6,7.1,28.561q-2.672.9-5.174,2.022A42.441,42.441,0,0,1,62.225,62.478Zm19.008,33.4Q82.97,95.183,84.8,94.6a35.745,35.745,0,0,0,4.446,5.436A42.582,42.582,0,0,1,81.233,95.874Zm7.713-2.42a67.415,67.415,0,0,1,13.724-1.763v11.116c-5.019-.69-9.774-3.933-13.724-9.353m42.993-.4c-.173-.078-.343-.154-.52-.23q-2.253-.983-4.654-1.789c4.332-7.956,6.817-17.946,7.1-28.561h13.312A42.434,42.434,0,0,1,131.939,93.058Z" transform="translate(-10.146 -2.424)" fill="#4dd4f7"/>
          <path id="Trazado_184433" data-name="Trazado 184433" d="M160.457,60.447a46.625,46.625,0,0,1-46.585,46.559c-1.083,0-2.16-.038-3.224-.111a46.441,46.441,0,0,0,29.943-14.067c.176.076.346.152.519.23a42.43,42.43,0,0,0,15.237-30.581h-2.7c.03-.672.043-1.351.043-2.031s-.013-1.359-.043-2.031h2.7a42.432,42.432,0,0,0-15.237-30.584c-.173.078-.346.154-.522.23A46.442,46.442,0,0,0,110.648,14c1.064-.073,2.141-.111,3.224-.111A46.625,46.625,0,0,1,160.457,60.447Z" transform="translate(-19.318 -2.424)" fill="#00c2f3"/>
          <path id="Trazado_184434" data-name="Trazado 184434" d="M66.844,34.365a6.768,6.768,0,1,1-6.771,6.768,6.77,6.77,0,0,1,6.771-6.768" transform="translate(-10.488 -6)" fill="#ff6b81"/>
          <path id="Trazado_184435" data-name="Trazado 184435" d="M113.122,79.127a6.768,6.768,0,1,0,6.771,6.768A6.777,6.777,0,0,0,113.122,79.127Z" transform="translate(-18.568 -13.815)" fill="#ff6b81"/>
          <path id="Trazado_184436" data-name="Trazado 184436" d="M144.354,44.639a6.768,6.768,0,1,1-6.771,6.768,6.77,6.77,0,0,1,6.771-6.768" transform="translate(-24.021 -7.794)" fill="#ff6b81"/>
        </g>
      </g>
    </g>
  </g>
</svg>
