<svg xmlns="http://www.w3.org/2000/svg" xmlns:xlink="http://www.w3.org/1999/xlink" width="218.387" height="197.118" viewBox="0 0 218.387 197.118">
  <defs>
    <clipPath id="clip-path">
      <rect id="Rectángulo_38816" data-name="Rectángulo 38816" width="218.387" height="197.118" fill="none"/>
    </clipPath>
    <clipPath id="clip-path-3">
      <rect id="Rectángulo_38792" data-name="Rectángulo 38792" width="2.16" height="1.247" fill="none"/>
    </clipPath>
    <clipPath id="clip-path-4">
      <rect id="Rectángulo_38793" data-name="Rectángulo 38793" width="20.387" height="8.469" fill="none"/>
    </clipPath>
    <clipPath id="clip-path-5">
      <rect id="Rectángulo_38794" data-name="Rectángulo 38794" width="22.544" height="19.514" fill="none"/>
    </clipPath>
    <clipPath id="clip-path-6">
      <rect id="Rectángulo_38795" data-name="Rectángulo 38795" width="10.039" height="14.071" fill="none"/>
    </clipPath>
    <clipPath id="clip-path-7">
      <rect id="Rectángulo_38796" data-name="Rectángulo 38796" width="12.535" height="43.317" fill="none"/>
    </clipPath>
    <clipPath id="clip-path-9">
      <rect id="Rectángulo_38798" data-name="Rectángulo 38798" width="41.593" height="72.164" fill="none"/>
    </clipPath>
    <clipPath id="clip-path-10">
      <rect id="Rectángulo_38799" data-name="Rectángulo 38799" width="36.297" height="65.6" fill="none"/>
    </clipPath>
    <clipPath id="clip-path-13">
      <rect id="Rectángulo_38802" data-name="Rectángulo 38802" width="13.363" height="3.684" fill="none"/>
    </clipPath>
    <clipPath id="clip-path-14">
      <rect id="Rectángulo_38803" data-name="Rectángulo 38803" width="2.465" height="2.431" fill="none"/>
    </clipPath>
    <clipPath id="clip-path-15">
      <rect id="Rectángulo_38804" data-name="Rectángulo 38804" width="19.395" height="11.198" fill="none"/>
    </clipPath>
    <clipPath id="clip-path-16">
      <rect id="Rectángulo_38805" data-name="Rectángulo 38805" width="3.921" height="19.417" fill="none"/>
    </clipPath>
    <clipPath id="clip-path-17">
      <rect id="Rectángulo_38806" data-name="Rectángulo 38806" width="2.639" height="1.999" fill="none"/>
    </clipPath>
    <clipPath id="clip-path-18">
      <rect id="Rectángulo_38807" data-name="Rectángulo 38807" width="3.47" height="2.489" fill="none"/>
    </clipPath>
    <clipPath id="clip-path-19">
      <rect id="Rectángulo_38808" data-name="Rectángulo 38808" width="2.702" height="4.441" fill="none"/>
    </clipPath>
    <clipPath id="clip-path-20">
      <rect id="Rectángulo_38809" data-name="Rectángulo 38809" width="11.238" height="20.068" fill="none"/>
    </clipPath>
    <clipPath id="clip-path-21">
      <rect id="Rectángulo_38810" data-name="Rectángulo 38810" width="4.15" height="7.273" fill="none"/>
    </clipPath>
    <clipPath id="clip-path-22">
      <rect id="Rectángulo_38811" data-name="Rectángulo 38811" width="16.902" height="10.193" fill="none"/>
    </clipPath>
    <clipPath id="clip-path-23">
      <rect id="Rectángulo_38812" data-name="Rectángulo 38812" width="16.902" height="9.942" fill="none"/>
    </clipPath>
    <clipPath id="clip-path-24">
      <rect id="Rectángulo_38813" data-name="Rectángulo 38813" width="10.341" height="16.685" fill="none"/>
    </clipPath>
    <clipPath id="clip-path-25">
      <rect id="Rectángulo_38814" data-name="Rectángulo 38814" width="17.432" height="10.81" fill="none"/>
    </clipPath>
  </defs>
  <g id="Grupo_143641" data-name="Grupo 143641" transform="translate(-1007 -2209.861)">
    <g id="Grupo_143640" data-name="Grupo 143640">
      <g id="Grupo_142870" data-name="Grupo 142870" transform="translate(1007 2209.861)">
        <g id="Grupo_142869" data-name="Grupo 142869" clip-path="url(#clip-path)">
          <g id="Grupo_142868" data-name="Grupo 142868">
            <g id="Grupo_142867" data-name="Grupo 142867" clip-path="url(#clip-path)">
              <path id="Trazado_183918" data-name="Trazado 183918" d="M183.864,124.069c38.6,22.284,38.6,58.412,0,80.7s-101.189,22.284-139.792,0-38.6-58.412,0-80.7,101.189-22.284,139.792,0" transform="translate(-4.775 -33.901)" fill="#f5f5f5"/>
              <path id="Trazado_183919" data-name="Trazado 183919" d="M116.793,213.624l-61.307-35.4a1.111,1.111,0,0,1,0-2.1l88.631-51.171a4.026,4.026,0,0,1,3.643,0l61.291,35.386a1.111,1.111,0,0,1,0,2.1l-88.616,51.18a4.025,4.025,0,0,1-3.643,0" transform="translate(-17.283 -39.321)" fill="#e0e0e0"/>
              <path id="Trazado_183920" data-name="Trazado 183920" d="M61.364,172.2a4.256,4.256,0,0,0,1.986,3.3l55.623,32.114a4.389,4.389,0,0,0,3.971,0l82.434-47.589a3.73,3.73,0,0,0,0-6.593L149.754,121.31a4.389,4.389,0,0,0-3.971,0L63.349,168.9a4.257,4.257,0,0,0-1.985,3.3" transform="translate(-19.378 -38.158)" fill="#2b454e"/>
              <path id="Trazado_183921" data-name="Trazado 183921" d="M120.958,226.025v4.3a4.041,4.041,0,0,1-1.985-.472L63.349,197.734a3.717,3.717,0,0,1-.2-6.464c-.889.637-.821,1.572.2,2.163l55.625,32.115a4.043,4.043,0,0,0,1.985.477" transform="translate(-19.377 -60.4)" fill="#263238"/>
              <path id="Trazado_183922" data-name="Trazado 183922" d="M57.783,135.216a4.255,4.255,0,0,1-1.862-3.368V65.471a4.389,4.389,0,0,1,1.984-3.439l82.436-47.589a4.255,4.255,0,0,1,3.847-.071,4.254,4.254,0,0,1,1.863,3.368V84.118a4.385,4.385,0,0,1-1.986,3.438L61.63,135.145a4.255,4.255,0,0,1-3.847.071" transform="translate(-17.659 -4.404)" fill="#455a64"/>
              <path id="Trazado_183923" data-name="Trazado 183923" d="M61.4,158.142a3.716,3.716,0,0,1-5.474-3.416V88.346a4,4,0,0,1,.582-1.953l3.722,2.146v0a4.072,4.072,0,0,0-.582,1.953v66.381c0,1.173.766,1.7,1.752,1.265" transform="translate(-17.66 -27.282)" fill="#263238"/>
              <path id="Trazado_183924" data-name="Trazado 183924" d="M61.364,68.718V135.1c0,1.266.889,1.779,1.985,1.146l82.436-47.589a4.388,4.388,0,0,0,1.985-3.439V18.837c0-1.266-.889-1.779-1.985-1.147L63.349,65.279a4.39,4.39,0,0,0-1.985,3.438" transform="translate(-19.378 -5.501)" fill="#2b454e"/>
              <path id="Trazado_183925" data-name="Trazado 183925" d="M63.886,171.191l55.623,32.114a4.389,4.389,0,0,0,3.971,0l82.435-47.589a1.21,1.21,0,0,0,0-2.293L150.291,121.31a4.389,4.389,0,0,0-3.971,0L63.886,168.9a1.21,1.21,0,0,0,0,2.292" transform="translate(-19.914 -38.158)" fill="#455a64"/>
              <path id="Trazado_183926" data-name="Trazado 183926" d="M65.276,69.788l79.705-46c.658-.38,1.191-.072,1.191.688V85.716a2.634,2.634,0,0,1-1.191,2.064l-79.705,46c-.658.38-1.191.072-1.191-.688V71.851a2.633,2.633,0,0,1,1.191-2.063" transform="translate(-20.237 -7.46)" fill="#7cc6c1"/>
              <path id="Trazado_183927" data-name="Trazado 183927" d="M73.512,171.3l76.972-44.434a2.2,2.2,0,0,1,1.986,0l3.613,2.086a.6.6,0,0,1,0,1.146L79.1,174.527a2.193,2.193,0,0,1-1.986,0l-3.6-2.079a.6.6,0,0,1,0-1.146" transform="translate(-23.084 -39.988)" fill="#2b454e"/>
              <path id="Trazado_183928" data-name="Trazado 183928" d="M87.123,179.16l76.971-44.435a2.2,2.2,0,0,1,1.985,0L188.3,147.556a.6.6,0,0,1,0,1.146l-76.89,44.379a2.2,2.2,0,0,1-1.987,0L87.125,180.3a.6.6,0,0,1,0-1.143" transform="translate(-27.382 -42.469)" fill="#263238"/>
              <path id="Trazado_183929" data-name="Trazado 183929" d="M155.413,154.179l2.423-1.4c.1-.06.1-.155,0-.214l-2.558-1.477a.409.409,0,0,0-.369,0l-2.423,1.4c-.1.06-.1.155,0,.213l2.557,1.477a.411.411,0,0,0,.369,0m-4.153-5.2-2.423,1.4c-.1.06-.1.155,0,.213l2.558,1.477a.411.411,0,0,0,.369,0l2.423-1.4c.1-.06.1-.155,0-.213l-2.558-1.477a.407.407,0,0,0-.369,0M143.43,153.5l-4.1,2.368c-.1.059-.1.155,0,.213l2.558,1.477a.411.411,0,0,0,.369,0l4.1-2.368c.1-.059.1-.155,0-.213L143.8,153.5a.41.41,0,0,0-.369,0m4.287-2.475-2.423,1.4c-.1.06-.1.155,0,.213l2.558,1.477a.407.407,0,0,0,.369,0l2.424-1.4c.1-.06.1-.155,0-.213l-2.558-1.477a.405.405,0,0,0-.369,0m-9.507,5.489-2.424,1.4c-.1.06-.1.155,0,.213l2.558,1.477a.409.409,0,0,0,.369,0l2.423-1.4c.1-.06.1-.155,0-.213l-2.557-1.477a.409.409,0,0,0-.369,0m-3.542,2.045-2.423,1.4c-.1.06-.1.155,0,.213l2.558,1.477a.407.407,0,0,0,.369,0l2.423-1.4c.1-.06.1-.155,0-.213l-2.558-1.477a.409.409,0,0,0-.369,0m10.044,6.014,2.423-1.4c.1-.06.1-.155,0-.213l-2.557-1.477a.409.409,0,0,0-.369,0l-2.423,1.4c-.1.06-.1.155,0,.213l2.558,1.477a.407.407,0,0,0,.369,0m-3.542,2.044,2.423-1.4c.1-.06.1-.155,0-.214l-2.558-1.477a.409.409,0,0,0-.369,0l-2.423,1.4c-.1.06-.1.155,0,.213l2.558,1.477a.409.409,0,0,0,.369,0m-3.542,2.045,2.423-1.4c.1-.06.1-.155,0-.213l-2.558-1.477a.405.405,0,0,0-.369,0l-2.423,1.4c-.1.06-.1.155,0,.213l2.558,1.477a.405.405,0,0,0,.369,0m-3.542,2.045,2.423-1.4c.1-.06.1-.155,0-.213l-2.558-1.477a.409.409,0,0,0-.369,0l-2.423,1.4c-.1.06-.1.155,0,.213l2.558,1.477a.407.407,0,0,0,.369,0m17.785-14.487,2.423-1.4c.1-.059.1-.155,0-.213l-2.558-1.477a.407.407,0,0,0-.369,0l-2.423,1.4c-.1.06-.105.155,0,.213l2.558,1.477a.409.409,0,0,0,.369,0m-3.617,6.307,5.406-3.121c.1-.06.1-.155,0-.213l-6.211-3.586a.407.407,0,0,0-.369,0l-2.8,1.614c-.1.06-.1.155,0,.213l3.289,1.9c.1.058.1.153,0,.213l-2.237,1.292c-.1.06-.1.155,0,.213l2.558,1.477a.409.409,0,0,0,.369,0m-17.128-1.925-2.423,1.4c-.1.059-.1.155,0,.213l2.558,1.477a.407.407,0,0,0,.369,0l2.423-1.4c.1-.06.1-.155,0-.213L131.5,160.6a.409.409,0,0,0-.369,0m-3.542,2.045-2.424,1.4c-.1.06-.1.155,0,.213l2.558,1.477a.407.407,0,0,0,.369,0l2.423-1.4c.1-.06.1-.155,0-.213l-2.558-1.477a.411.411,0,0,0-.369,0m-18.66,22.376a.407.407,0,0,0,.369,0l2.423-1.4c.1-.06.1-.155,0-.213l-2.558-1.477a.409.409,0,0,0-.369,0l-2.424,1.4c-.1.06-.1.155,0,.213ZM99.25,179.01l-2.423,1.4c-.1.06-.1.155,0,.213L99.38,182.1a.407.407,0,0,0,.369,0l2.423-1.4c.1-.059.1-.155,0-.213l-2.558-1.477a.407.407,0,0,0-.369,0m5.089,4.445a.411.411,0,0,0,.369,0l2.423-1.4c.1-.059.1-.155,0-.213l-2.558-1.477a.407.407,0,0,0-.369,0l-2.423,1.4c-.1.06-.1.155,0,.213Zm10.473,2.6,2.423-1.4c.1-.06.1-.155,0-.213l-2.558-1.477a.409.409,0,0,0-.369,0l-2.423,1.4c-.1.059-.1.155,0,.213l2.558,1.477a.409.409,0,0,0,.369,0M110.9,188.1a.407.407,0,0,0,.369,0l2.423-1.4c.1-.06.1-.155,0-.213l-2.558-1.477a.407.407,0,0,0-.369,0l-2.423,1.4c-.1.06-.1.155,0,.213Zm-8.109-11.14-2.424,1.4c-.1.06-.1.155,0,.213l2.558,1.477a.409.409,0,0,0,.369,0l2.423-1.4c.1-.06.1-.155,0-.213l-2.558-1.477a.409.409,0,0,0-.369,0m17.71-10.224-2.423,1.4c-.1.06-.1.155,0,.213l2.558,1.477a.407.407,0,0,0,.369,0l2.424-1.4c.1-.06.1-.155,0-.213l-2.558-1.477a.405.405,0,0,0-.369,0m-14.167,8.18-2.423,1.4c-.1.059-.1.155,0,.213l2.557,1.477a.409.409,0,0,0,.369,0l2.424-1.4c.1-.06.1-.155,0-.213l-2.558-1.477a.407.407,0,0,0-.369,0m17.71-10.225-2.424,1.4c-.1.06-.1.155,0,.213l2.558,1.477a.407.407,0,0,0,.369,0l2.423-1.4c.1-.06.1-.155,0-.213l-2.558-1.477a.407.407,0,0,0-.369,0m-7.084,4.09-2.423,1.4c-.1.06-.1.155,0,.213l2.558,1.477a.409.409,0,0,0,.369,0l2.423-1.4c.1-.06.1-.155,0-.213l-2.558-1.477a.405.405,0,0,0-.369,0m-3.542,2.044-2.423,1.4c-.1.06-.1.155,0,.213l2.558,1.477a.407.407,0,0,0,.369,0l2.423-1.4c.1-.06.1-.155,0-.213l-2.557-1.477a.409.409,0,0,0-.369,0m-3.542,2.045-2.423,1.4c-.1.06-.1.155,0,.213l2.558,1.477a.407.407,0,0,0,.369,0l2.423-1.4c.1-.06.1-.155,0-.213l-2.558-1.477a.409.409,0,0,0-.369,0M127,174.8l2.424-1.4c.1-.059.1-.155,0-.213l-2.558-1.477a.407.407,0,0,0-.369,0l-2.423,1.4c-.1.06-.1.155,0,.213l2.558,1.477a.407.407,0,0,0,.369,0m32.086-30.337-2.424,1.4c-.1.059-.1.155,0,.213l2.558,1.477a.409.409,0,0,0,.369,0l2.423-1.4c.1-.06.1-.155,0-.213l-2.558-1.477a.407.407,0,0,0-.369,0m-4.288,2.475-2.424,1.4c-.1.06-.1.155,0,.213l2.558,1.477a.407.407,0,0,0,.369,0l2.423-1.4c.1-.06.1-.155,0-.213l-2.558-1.477a.411.411,0,0,0-.369,0m7.829-4.52-2.423,1.4c-.1.06-.1.155,0,.213l2.558,1.477a.407.407,0,0,0,.369,0l2.423-1.4c.1-.06.1-.155,0-.213L163,142.415a.409.409,0,0,0-.369,0m-18.962,18.542,2.423-1.4c.1-.06.1-.155,0-.213l-2.558-1.477a.409.409,0,0,0-.369,0l-2.423,1.4c-.1.06-.1.155,0,.213l2.558,1.477a.411.411,0,0,0,.369,0m22.873-20.589a.407.407,0,0,0-.369,0l-2.423,1.4c-.1.06-.1.155,0,.213l2.558,1.477a.409.409,0,0,0,.369,0l2.423-1.4c.1-.06.1-.155,0-.213Zm-36,32.385,2.424-1.4c.1-.06.1-.155,0-.213l-2.558-1.477a.407.407,0,0,0-.369,0l-2.423,1.4c-.1.06-.1.155,0,.213l2.558,1.477a.411.411,0,0,0,.369,0m43.435-25.078,2.423-1.4c.1-.06.1-.155,0-.213l-2.558-1.477a.407.407,0,0,0-.369,0l-2.423,1.4c-.1.06-.1.155,0,.213l2.558,1.477a.405.405,0,0,0,.369,0m-7.2-.064,2.423-1.4c.1-.059.1-.155,0-.213l-2.558-1.477a.407.407,0,0,0-.369,0l-2.423,1.4c-.1.06-.105.155,0,.213l2.558,1.477a.407.407,0,0,0,.369,0m3.411-5.134a.407.407,0,0,0-.369,0l-2.423,1.4c-.1.06-.1.155,0,.213l2.558,1.477a.409.409,0,0,0,.369,0l2.423-1.4c.1-.06.1-.155,0-.213Zm.746-.43,6.211,3.586a.409.409,0,0,0,.369,0l2.423-1.4c.1-.06.1-.155,0-.213l-6.211-3.587a.409.409,0,0,0-.369,0l-2.423,1.4c-.1.06-.1.155,0,.213m-8.2,4.523-2.423,1.4c-.1.059-.1.155,0,.213l2.558,1.477a.407.407,0,0,0,.369,0l2.423-1.4c.1-.06.1-.155,0-.213l-2.558-1.477a.407.407,0,0,0-.369,0m-26.658,15.39-2.423,1.4c-.1.059-.1.155,0,.213l2.558,1.477a.407.407,0,0,0,.369,0l2.424-1.4c.1-.06.1-.155,0-.213l-2.557-1.477a.411.411,0,0,0-.369,0m33.984-12.237a.409.409,0,0,0,.369,0l2.423-1.4c.1-.06.1-.155,0-.213l-2.558-1.477a.407.407,0,0,0-.369,0l-2.423,1.4c-.1.06-.105.155,0,.213Zm-30.441,10.192-2.423,1.4c-.1.06-.1.155,0,.213l2.557,1.477a.409.409,0,0,0,.369,0l2.423-1.4c.1-.059.1-.155,0-.213L140,159.915a.407.407,0,0,0-.369,0m-27.161,23.064a.407.407,0,0,0,.369,0l2.423-1.4c.1-.06.1-.155,0-.213l-2.558-1.477a.407.407,0,0,0-.369,0l-2.423,1.4c-.1.06-.1.155,0,.213Zm-4.716-4.66-2.423,1.4c-.1.06-.1.155,0,.213l2.558,1.477a.411.411,0,0,0,.369,0l2.423-1.4c.1-.06.1-.155,0-.213l-2.558-1.477a.409.409,0,0,0-.369,0m8.627,2.613,2.424-1.4c.1-.06.1-.155,0-.213l-2.558-1.477a.409.409,0,0,0-.369,0l-2.423,1.4c-.1.06-.1.155,0,.213l2.558,1.477a.405.405,0,0,0,.369,0m3.542-2.044,2.424-1.4c.1-.06.1-.155,0-.213l-2.558-1.477a.409.409,0,0,0-.369,0L117,177.2c-.1.06-.1.155,0,.213l2.558,1.477a.407.407,0,0,0,.369,0m3.542-2.045,2.423-1.4c.1-.06.1-.155,0-.213l-2.558-1.477a.409.409,0,0,0-.369,0l-2.423,1.4c-.1.059-.1.155,0,.213l2.558,1.477a.407.407,0,0,0,.369,0m-12.169-.568-2.423,1.4c-.1.06-.1.155,0,.213l2.558,1.477a.407.407,0,0,0,.369,0l2.423-1.4c.1-.06.1-.155,0-.213l-2.558-1.477a.407.407,0,0,0-.369,0m3.542-2.045-2.424,1.4c-.1.06-.1.155,0,.213l2.558,1.477a.407.407,0,0,0,.369,0l2.423-1.4c.1-.06.1-.155,0-.213L115.2,174.23a.407.407,0,0,0-.369,0M129,166.052l-2.424,1.4c-.1.06-.1.155,0,.213l2.558,1.476a.405.405,0,0,0,.369,0l2.423-1.4c.1-.06.1-.155,0-.213l-2.558-1.477a.407.407,0,0,0-.369,0M125.46,168.1l-2.423,1.4c-.1.059-.1.155,0,.213l2.558,1.477a.407.407,0,0,0,.369,0l2.423-1.4c.1-.06.1-.155,0-.213l-2.558-1.477a.409.409,0,0,0-.369,0m7.084-4.09-2.423,1.4c-.1.06-.1.155,0,.213l2.558,1.477a.409.409,0,0,0,.369,0l2.423-1.4c.1-.06.1-.155,0-.213L132.913,164a.411.411,0,0,0-.369,0m-14.167,8.18-2.423,1.4c-.1.06-.105.155,0,.213l2.558,1.477a.407.407,0,0,0,.369,0l2.424-1.4c.1-.06.1-.155,0-.214l-2.558-1.477a.407.407,0,0,0-.369,0m3.542-2.045-2.424,1.4c-.1.06-.1.155,0,.213l2.558,1.477a.407.407,0,0,0,.369,0l2.424-1.4c.1-.06.1-.155,0-.213l-2.558-1.477a.409.409,0,0,0-.369,0m-3.565,13.871,2.424-1.4c.1-.059.1-.155,0-.213l-2.558-1.477a.409.409,0,0,0-.369,0l-2.423,1.4c-.1.06-.1.155,0,.213l2.558,1.477a.409.409,0,0,0,.369,0M98.635,182.53l-2.558-1.477a.408.408,0,0,0-.369,0l-2.423,1.4c-.1.059-.1.155,0,.213l2.557,1.477a.409.409,0,0,0,.369,0l2.423-1.4c.1-.06.1-.155,0-.213m4.959,1.356-2.558-1.477a.407.407,0,0,0-.369,0l-3.728,2.153c-.1.06-.1.155,0,.213l2.558,1.477a.407.407,0,0,0,.369,0l3.728-2.153c.1-.06.1-.155,0-.213m-8.834-4.239L92.2,178.17a.409.409,0,0,0-.369,0l-2.982,1.722c-.1.06-.1.155,0,.213l2.558,1.477a.405.405,0,0,0,.369,0l2.983-1.722c.1-.059.1-.155,0-.213m2.287-1.321a.405.405,0,0,0,.369,0l2.423-1.4c.1-.06.1-.155,0-.213l-2.558-1.477a.409.409,0,0,0-.369,0l-2.423,1.4c-.1.06-.1.155,0,.213Zm11.133,7.131-2.558-1.477a.407.407,0,0,0-.369,0l-4.661,2.691c-.1.06-.1.155,0,.213l2.558,1.477a.405.405,0,0,0,.369,0l4.66-2.69c.1-.06.1-.155,0-.213m1.976,3.078-2.558-1.477a.407.407,0,0,0-.369,0l-2.983,1.722c-.1.06-.1.155,0,.213l2.558,1.477a.405.405,0,0,0,.369,0l2.983-1.722c.1-.059.1-.155,0-.213m13.225-25.413a.409.409,0,0,0,.369,0l2.423-1.4c.1-.06.105-.155,0-.213l-2.558-1.477a.407.407,0,0,0-.369,0l-2.423,1.4c-.1.06-.1.155,0,.213Zm-7.084,4.09a.409.409,0,0,0,.369,0l2.424-1.4c.1-.059.1-.155,0-.213l-2.558-1.477a.409.409,0,0,0-.369,0l-2.423,1.4c-.1.06-.1.155,0,.213Zm-15.709,9.069a.409.409,0,0,0,.369,0l2.423-1.4c.1-.06.1-.155,0-.213l-2.558-1.477a.407.407,0,0,0-.369,0l-2.424,1.4c-.1.06-.1.155,0,.213Zm19.251-11.114a.407.407,0,0,0,.369,0l2.423-1.4c.1-.06.1-.155,0-.213l-2.557-1.477a.409.409,0,0,0-.369,0l-2.423,1.4c-.1.06-.1.155,0,.213Zm-7.084,4.09a.407.407,0,0,0,.369,0l2.423-1.4c.1-.06.1-.155,0-.213l-2.558-1.477a.407.407,0,0,0-.369,0l-2.423,1.4c-.1.06-.1.155,0,.213ZM112,188.738a.409.409,0,0,0-.369,0l-3.728,2.153c-.1.06-.1.155,0,.213l2.558,1.477a.405.405,0,0,0,.369,0l3.728-2.153c.1-.059.1-.155,0-.213Zm-4.325-16.546a.407.407,0,0,0,.369,0l2.423-1.4c.1-.06.1-.155,0-.213L107.91,169.1a.405.405,0,0,0-.369,0l-2.423,1.4c-.1.06-.1.155,0,.213Zm-3.542,2.045a.407.407,0,0,0,.369,0l2.423-1.4c.1-.06.1-.155,0-.213l-2.558-1.477a.409.409,0,0,0-.369,0l-2.423,1.4c-.1.06-.1.155,0,.213Zm73.485-23.384a.409.409,0,0,0-.369,0l-5.965,3.444c-.1.06-.1.155,0,.213l2.558,1.477a.407.407,0,0,0,.369,0l5.966-3.444c.1-.059.1-.155,0-.213Zm-7.829,4.521a.409.409,0,0,0-.369,0l-2.423,1.4c-.1.06-.1.155,0,.213l2.558,1.477a.411.411,0,0,0,.369,0l2.423-1.4c.1-.059.1-.155,0-.213ZM121.9,181.968l2.424-1.4c.1-.06.1-.155,0-.214l-2.558-1.477a.407.407,0,0,0-.369,0l-2.424,1.4c-.1.06-.1.155,0,.213l2.557,1.477a.411.411,0,0,0,.369,0M162.7,159.463a.409.409,0,0,0-.369,0l-2.423,1.4c-.1.06-.1.155,0,.213l2.558,1.477a.409.409,0,0,0,.369,0l2.424-1.4c.1-.06.1-.155,0-.213Zm18.455-10.655a.409.409,0,0,0-.369,0l-2.423,1.4c-.1.06-.1.155,0,.213l2.558,1.477a.407.407,0,0,0,.369,0l2.423-1.4c.1-.06.1-.155,0-.213Zm6.1-.568-6.211-3.587a.41.41,0,0,0-.369,0l-2.423,1.4c-.1.06-.1.155,0,.213l6.211,3.586a.407.407,0,0,0,.369,0l2.423-1.4c.1-.06.1-.155,0-.213M149.467,167.1a.409.409,0,0,0-.369,0l-2.982,1.721c-.1.06-.1.155,0,.213l2.558,1.477a.407.407,0,0,0,.369,0l2.982-1.722c.1-.06.1-.155,0-.213Zm8.948-5.166a.409.409,0,0,0-.369,0l-3.728,2.153c-.1.06-.1.155,0,.213l2.558,1.477a.409.409,0,0,0,.369,0l3.728-2.153c.1-.06.1-.155,0-.213Zm-17.151,9.9a.409.409,0,0,0-.369,0l-19.946,11.516c-.1.06-.1.155,0,.213l2.558,1.477a.405.405,0,0,0,.369,0l19.946-11.516c.1-.06.1-.155,0-.213ZM120.2,184a.407.407,0,0,0-.369,0l-2.983,1.721c-.1.06-.1.155,0,.213l2.557,1.477a.409.409,0,0,0,.369,0l2.983-1.722c.1-.06.1-.155,0-.213Zm25.166-14.53a.409.409,0,0,0-.369,0l-2.982,1.722c-.1.06-.1.155,0,.213l2.558,1.477a.407.407,0,0,0,.369,0l2.982-1.723c.1-.059.1-.155,0-.213ZM116.1,186.37a.409.409,0,0,0-.369,0l-2.982,1.722c-.1.06-.1.155,0,.213l2.558,1.477a.409.409,0,0,0,.369,0l2.983-1.722c.1-.06.1-.155,0-.213Zm37.47-21.633a.409.409,0,0,0-.369,0l-2.982,1.722c-.1.06-.1.155,0,.213l2.558,1.477a.407.407,0,0,0,.369,0l2.983-1.722c.1-.059.1-.155,0-.213Zm12.676-7.319a.409.409,0,0,0-.369,0l-2.423,1.4c-.1.06-.1.155,0,.213l2.558,1.477a.407.407,0,0,0,.369,0l2.423-1.4c.1-.06.1-.155,0-.213Zm7.848-5.586,2.424-1.4c.1-.06.105-.155,0-.213l-2.558-1.477a.409.409,0,0,0-.369,0l-2.423,1.4c-.1.06-.1.155,0,.213l2.558,1.477a.407.407,0,0,0,.369,0m-15.136.3,2.423-1.4c.1-.06.1-.155,0-.213l-2.558-1.476a.407.407,0,0,0-.369,0l-2.423,1.4c-.1.06-.1.155,0,.213l2.558,1.477a.409.409,0,0,0,.369,0m-8.724,13.475,7.084-4.09c.1-.059.1-.155,0-.213l-2.558-1.477a.407.407,0,0,0-.369,0l-7.084,4.09c-.1.059-.1.155,0,.213l2.558,1.477a.409.409,0,0,0,.369,0m19.95-11.73a.407.407,0,0,0,.369,0l2.423-1.4c.1-.06.1-.155,0-.213l-2.558-1.477a.407.407,0,0,0-.369,0l-2.423,1.4c-.1.059-.1.155,0,.213Zm-3.285-2.112,2.423-1.4c.1-.06.1-.155,0-.213l-2.558-1.477a.405.405,0,0,0-.369,0l-2.423,1.4c-.1.06-.1.155,0,.213l2.558,1.477a.405.405,0,0,0,.369,0m-20.208,15.886,2.423-1.4c.1-.06.1-.155,0-.213l-2.558-1.477a.407.407,0,0,0-.369,0l-2.423,1.4c-.1.06-.1.155,0,.213l2.558,1.477a.407.407,0,0,0,.369,0m15.662-9.254a.409.409,0,0,0,.369,0l2.423-1.4c.1-.06.1-.155,0-.213l-2.558-1.477a.41.41,0,0,0-.369,0l-2.423,1.4c-.1.06-.1.155,0,.213Zm-33.372,19.478,2.424-1.4c.1-.06.1-.155,0-.213l-2.558-1.477a.405.405,0,0,0-.369,0l-2.423,1.4c-.1.06-.1.155,0,.213l2.558,1.477a.407.407,0,0,0,.369,0m3.542-2.045,2.424-1.4c.1-.06.1-.155,0-.213l-2.558-1.477a.407.407,0,0,0-.369,0l-2.423,1.4c-.1.06-.1.155,0,.213l2.558,1.476a.4.4,0,0,0,.369,0m-7.084,4.09,2.423-1.4c.1-.06.1-.155,0-.213l-2.558-1.477a.409.409,0,0,0-.369,0l-2.423,1.4c-.1.06-.1.155,0,.213l2.558,1.477a.409.409,0,0,0,.369,0m14.167-8.18,2.423-1.4c.1-.06.1-.155,0-.213l-2.558-1.477a.407.407,0,0,0-.369,0l-2.423,1.4c-.1.059-.1.155,0,.213l2.558,1.477a.409.409,0,0,0,.369,0m-3.542,2.045,2.423-1.4c.1-.06.1-.155,0-.213l-2.558-1.477a.407.407,0,0,0-.369,0l-2.423,1.4c-.1.06-.1.155,0,.213l2.558,1.477a.407.407,0,0,0,.369,0m7.084-4.09,2.423-1.4c.1-.059.1-.155,0-.213l-2.558-1.477a.409.409,0,0,0-.369,0l-2.423,1.4c-.1.06-.1.155,0,.213l2.558,1.477a.407.407,0,0,0,.369,0m17.784-29.339a.409.409,0,0,0,.369,0l2.423-1.4c.1-.06.1-.155,0-.213l-.681-.393a.409.409,0,0,0-.369,0l-2.423,1.4c-.1.06-.1.155,0,.213Zm-17.517,11.2a.405.405,0,0,0,.369,0l2.423-1.4c.1-.059.1-.155,0-.213l-2.558-1.477a.407.407,0,0,0-.369,0l-2.424,1.4c-.1.06-.1.155,0,.213Zm7.084-4.09a.407.407,0,0,0,.369,0l2.424-1.4c.1-.06.1-.155,0-.213l-2.558-1.477a.409.409,0,0,0-.369,0l-2.423,1.4c-.1.059-.1.155,0,.213Zm-11.409,6.587a.407.407,0,0,0,.369,0l2.424-1.4c.1-.06.1-.155,0-.213l-2.558-1.477a.409.409,0,0,0-.369,0l-2.423,1.4c-.1.06-.1.155,0,.213Zm7.866-4.542a.409.409,0,0,0,.369,0l2.423-1.4c.1-.06.1-.155,0-.213l-2.558-1.477a.409.409,0,0,0-.369,0l-2.424,1.4c-.1.06-.1.155,0,.213Zm-14.95,8.632a.41.41,0,0,0,.369,0l2.423-1.4c.1-.059.1-.155,0-.213l-2.558-1.477a.407.407,0,0,0-.369,0l-2.424,1.4c-.1.06-.1.155,0,.213Zm3.542-2.045a.411.411,0,0,0,.369,0l2.423-1.4c.1-.06.1-.155,0-.213l-2.558-1.477a.407.407,0,0,0-.369,0l-2.424,1.4c-.1.06-.1.155,0,.213Zm18.3-11.649a.405.405,0,0,0,.369,0l2.423-1.4c.1-.059.1-.155,0-.213l-.682-.393a.409.409,0,0,0-.369,0l-2.423,1.4c-.1.059-.1.155,0,.213Zm10.626-6.135a.407.407,0,0,0,.369,0l2.424-1.4c.1-.06.1-.155,0-.213l-.681-.393a.407.407,0,0,0-.369,0l-2.423,1.4c-.1.06-.1.155,0,.213Zm5.372,3.1a.409.409,0,0,0,.369,0l2.423-1.4c.1-.06.1-.155,0-.213l-2.558-1.477a.411.411,0,0,0-.369,0l-2.423,1.4c-.1.06-.1.155,0,.213Zm7.788,8.371,2.423-1.4c.1-.06.1-.155,0-.213L177.5,146.7a.41.41,0,0,0-.369,0l-2.423,1.4c-.1.06-.1.155,0,.213l2.558,1.477a.407.407,0,0,0,.369,0M157.389,142.4a.407.407,0,0,0,.369,0l2.423-1.4c.1-.06.1-.155,0-.213l-.681-.393a.407.407,0,0,0-.369,0l-2.424,1.4c-.1.06-.1.155,0,.213Zm-28.926,17.783a.407.407,0,0,0,.369,0l2.424-1.4c.1-.06.105-.155,0-.213L128.7,157.1a.411.411,0,0,0-.369,0l-2.423,1.4c-.1.059-.1.155,0,.213Z" transform="translate(-28.033 -43.03)" fill="#455a64"/>
              <path id="Trazado_183930" data-name="Trazado 183930" d="M165.514,195.714l21.827-12.6a2.634,2.634,0,0,1,2.382,0l12.516,7.226a.726.726,0,0,1,0,1.375l-21.828,12.6a2.634,2.634,0,0,1-2.382,0l-12.516-7.226a.726.726,0,0,1,0-1.375" transform="translate(-52.111 -57.734)" fill="#263238"/>
              <path id="Trazado_183931" data-name="Trazado 183931" d="M140.34,60.385c-6.824,6.128-12.717,5.806-16.4,2.969-3.68,7.092-9.574,14.215-16.4,15.966l-3.9,10.523s2.088,2.406,2.088,8.163a28.654,28.654,0,0,1-.964,7.141,37.921,37.921,0,0,0-1.626,10.685,18.633,18.633,0,0,0,2.122,9.505,11.723,11.723,0,0,0,4.267,4.274c-1.26-.726-4.967-2.867-5.923-3.419a11.821,11.821,0,0,1-4.49-4.4A18.644,18.644,0,0,1,97,112.285a37.976,37.976,0,0,1,1.626-10.69,28.566,28.566,0,0,0,.969-7.138C99.591,88.7,97.5,86.3,97.5,86.3L101.4,75.773c6.824-1.752,12.716-8.874,16.4-15.966,3.685,2.837,9.578,3.158,16.4-2.969Z" transform="translate(-30.63 -17.948)" fill="#5cdec1"/>
              <g id="Grupo_142800" data-name="Grupo 142800" transform="translate(87.163 41.858)" opacity="0.8">
                <g id="Grupo_142799" data-name="Grupo 142799">
                  <g id="Grupo_142798" data-name="Grupo 142798" clip-path="url(#clip-path-3)">
                    <path id="Trazado_183932" data-name="Trazado 183932" d="M129.551,62.424l-2.16-1.247a9.426,9.426,0,0,0,2.16,1.247" transform="translate(-127.391 -61.177)" fill="#fff"/>
                  </g>
                </g>
              </g>
              <g id="Grupo_142803" data-name="Grupo 142803" transform="translate(89.323 38.889)" opacity="0.85">
                <g id="Grupo_142802" data-name="Grupo 142802">
                  <g id="Grupo_142801" data-name="Grupo 142801" clip-path="url(#clip-path-4)">
                    <path id="Trazado_183933" data-name="Trazado 183933" d="M144.789,56.837c-5.615,5.042-10.6,5.715-14.241,4.216l3.986,2.3c3.685,2.837,9.577,3.158,16.4-2.969Z" transform="translate(-130.548 -56.837)" fill="#fff"/>
                  </g>
                </g>
              </g>
              <g id="Grupo_142806" data-name="Grupo 142806" transform="translate(70.766 41.858)" opacity="0.65">
                <g id="Grupo_142805" data-name="Grupo 142805">
                  <g id="Grupo_142804" data-name="Grupo 142804" clip-path="url(#clip-path-5)">
                    <path id="Trazado_183934" data-name="Trazado 183934" d="M119.823,61.177c-3.681,7.092-9.574,14.215-16.4,15.966l6.147,3.548c6.824-1.752,12.716-8.874,16.4-15.966Z" transform="translate(-103.426 -61.177)" fill="#fff"/>
                  </g>
                </g>
              </g>
              <g id="Grupo_142809" data-name="Grupo 142809" transform="translate(66.873 57.824)" opacity="0.55">
                <g id="Grupo_142808" data-name="Grupo 142808">
                  <g id="Grupo_142807" data-name="Grupo 142807" clip-path="url(#clip-path-6)">
                    <path id="Trazado_183935" data-name="Trazado 183935" d="M101.629,84.512,97.737,95.034l6.143,3.548,3.9-10.523Z" transform="translate(-97.737 -84.512)" fill="#fff"/>
                  </g>
                </g>
              </g>
              <g id="Grupo_142812" data-name="Grupo 142812" transform="translate(66.366 68.347)" opacity="0.4">
                <g id="Grupo_142811" data-name="Grupo 142811">
                  <g id="Grupo_142810" data-name="Grupo 142810" clip-path="url(#clip-path-7)">
                    <path id="Trazado_183936" data-name="Trazado 183936" d="M105.265,138.934a18.634,18.634,0,0,1-2.122-9.505,37.927,37.927,0,0,1,1.626-10.686,28.65,28.65,0,0,0,.964-7.141c0-5.757-2.088-8.163-2.088-8.163L97.5,99.891s2.088,2.406,2.088,8.163a28.555,28.555,0,0,1-.969,7.137A37.984,37.984,0,0,0,97,125.88a18.641,18.641,0,0,0,2.122,9.505,11.821,11.821,0,0,0,4.49,4.4l5.923,3.42a11.723,11.723,0,0,1-4.267-4.274" transform="translate(-96.996 -99.891)" fill="#fff"/>
                  </g>
                </g>
              </g>
              <g id="Grupo_142815" data-name="Grupo 142815" transform="translate(66.366 68.347)" opacity="0.05">
                <g id="Grupo_142814" data-name="Grupo 142814">
                  <g id="Grupo_142813" data-name="Grupo 142813" clip-path="url(#clip-path-7)">
                    <path id="Trazado_183937" data-name="Trazado 183937" d="M105.265,138.934a18.634,18.634,0,0,1-2.122-9.505,37.927,37.927,0,0,1,1.626-10.686,28.65,28.65,0,0,0,.964-7.141c0-5.757-2.088-8.163-2.088-8.163L97.5,99.891s2.088,2.406,2.088,8.163a28.555,28.555,0,0,1-.969,7.137A37.984,37.984,0,0,0,97,125.88a18.641,18.641,0,0,0,2.122,9.505,11.821,11.821,0,0,0,4.49,4.4l5.923,3.42a11.723,11.723,0,0,1-4.267-4.274" transform="translate(-96.996 -99.891)"/>
                  </g>
                </g>
              </g>
              <path id="Trazado_183938" data-name="Trazado 183938" d="M126.777,134.183c-10.192.113-16.03-2.575-18.677-7.208a18.649,18.649,0,0,1-2.12-9.505,37.916,37.916,0,0,1,1.625-10.687,28.58,28.58,0,0,0,.968-7.138c0-5.757-2.089-8.163-2.089-8.163l3.895-10.525c6.823-1.752,12.715-8.875,16.4-15.967,3.682,2.839,9.575,3.159,16.4-2.969l3.894,6.029a29.639,29.639,0,0,0-2.088,10.574,17.241,17.241,0,0,0,.967,6.021,21,21,0,0,1,1.625,8.81,35.331,35.331,0,0,1-2.12,11.954c-2.647,7.689-8.485,17.118-18.676,28.773" transform="translate(-33.467 -19.586)" fill="#5cdec1"/>
              <g id="Grupo_142818" data-name="Grupo 142818" transform="translate(72.514 42.436)" opacity="0.75">
                <g id="Grupo_142817" data-name="Grupo 142817">
                  <g id="Grupo_142816" data-name="Grupo 142816" clip-path="url(#clip-path-9)">
                    <path id="Trazado_183939" data-name="Trazado 183939" d="M126.777,134.183c-10.192.113-16.03-2.575-18.677-7.208a18.649,18.649,0,0,1-2.12-9.505,37.916,37.916,0,0,1,1.625-10.687,28.58,28.58,0,0,0,.968-7.138c0-5.757-2.089-8.163-2.089-8.163l3.895-10.525c6.823-1.752,12.715-8.875,16.4-15.967,3.682,2.839,9.575,3.159,16.4-2.969l3.894,6.029a29.639,29.639,0,0,0-2.088,10.574,17.241,17.241,0,0,0,.967,6.021,21,21,0,0,1,1.625,8.81,35.331,35.331,0,0,1-2.12,11.954c-2.647,7.689-8.485,17.118-18.676,28.773" transform="translate(-105.981 -62.022)" fill="#fff"/>
                  </g>
                </g>
              </g>
              <g id="Grupo_142821" data-name="Grupo 142821" transform="translate(75.162 46.349)" opacity="0.75">
                <g id="Grupo_142820" data-name="Grupo 142820">
                  <g id="Grupo_142819" data-name="Grupo 142819" clip-path="url(#clip-path-10)">
                    <path id="Trazado_183940" data-name="Trazado 183940" d="M126.793,133.341c-7.894-.094-13-2.068-15.17-5.873a15.875,15.875,0,0,1-1.771-8.192,32.658,32.658,0,0,1,1.3-9.079c.083-.324.166-.645.246-.964a30.971,30.971,0,0,0,1.046-7.782,18.089,18.089,0,0,0-1.8-8.46l2.988-8.076c7.3-2.539,12.582-9.75,15.378-14.48a12.089,12.089,0,0,0,4.765.963,17.059,17.059,0,0,0,10-3.657l1.57,2.431a32.5,32.5,0,0,0-1.787,10.258,19.9,19.9,0,0,0,1.117,6.9c.083.233.167.465.252.7a17.648,17.648,0,0,1,1.222,7.232,32.8,32.8,0,0,1-1.975,11.092c-2.6,7.568-8.45,16.644-17.38,26.988" transform="translate(-109.851 -67.741)" fill="#5cdec1"/>
                  </g>
                </g>
              </g>
              <g id="Grupo_142824" data-name="Grupo 142824" transform="translate(75.162 46.349)" opacity="0.4">
                <g id="Grupo_142823" data-name="Grupo 142823">
                  <g id="Grupo_142822" data-name="Grupo 142822" clip-path="url(#clip-path-10)">
                    <path id="Trazado_183941" data-name="Trazado 183941" d="M126.793,133.341c-7.894-.094-13-2.068-15.17-5.873a15.875,15.875,0,0,1-1.771-8.192,32.658,32.658,0,0,1,1.3-9.079c.083-.324.166-.645.246-.964a30.971,30.971,0,0,0,1.046-7.782,18.089,18.089,0,0,0-1.8-8.46l2.988-8.076c7.3-2.539,12.582-9.75,15.378-14.48a12.089,12.089,0,0,0,4.765.963,17.059,17.059,0,0,0,10-3.657l1.57,2.431a32.5,32.5,0,0,0-1.787,10.258,19.9,19.9,0,0,0,1.117,6.9c.083.233.167.465.252.7a17.648,17.648,0,0,1,1.222,7.232,32.8,32.8,0,0,1-1.975,11.092c-2.6,7.568-8.45,16.644-17.38,26.988" transform="translate(-109.851 -67.741)" fill="#fff"/>
                  </g>
                </g>
              </g>
              <g id="Grupo_142827" data-name="Grupo 142827" transform="translate(75.162 46.349)" opacity="0.15">
                <g id="Grupo_142826" data-name="Grupo 142826">
                  <g id="Grupo_142825" data-name="Grupo 142825" clip-path="url(#clip-path-10)">
                    <path id="Trazado_183942" data-name="Trazado 183942" d="M126.793,133.341c-7.894-.094-13-2.068-15.17-5.873a15.875,15.875,0,0,1-1.771-8.192,32.658,32.658,0,0,1,1.3-9.079c.083-.324.166-.645.246-.964a30.971,30.971,0,0,0,1.046-7.782,18.089,18.089,0,0,0-1.8-8.46l2.988-8.076c7.3-2.539,12.582-9.75,15.378-14.48a12.089,12.089,0,0,0,4.765.963,17.059,17.059,0,0,0,10-3.657l1.57,2.431a32.5,32.5,0,0,0-1.787,10.258,19.9,19.9,0,0,0,1.117,6.9c.083.233.167.465.252.7a17.648,17.648,0,0,1,1.222,7.232,32.8,32.8,0,0,1-1.975,11.092c-2.6,7.568-8.45,16.644-17.38,26.988" transform="translate(-109.851 -67.741)"/>
                  </g>
                </g>
              </g>
              <g id="Grupo_142830" data-name="Grupo 142830" transform="translate(78.741 108.265)" opacity="0.8">
                <g id="Grupo_142829" data-name="Grupo 142829">
                  <g id="Grupo_142828" data-name="Grupo 142828" clip-path="url(#clip-path-13)">
                    <path id="Trazado_183943" data-name="Trazado 183943" d="M115.082,158.232c2.689,2.371,7.16,3.611,13.362,3.685l-3.958-2.254a29.038,29.038,0,0,1-9.4-1.43" transform="translate(-115.082 -158.232)" fill="#fff"/>
                  </g>
                </g>
              </g>
              <g id="Grupo_142833" data-name="Grupo 142833" transform="translate(108.19 46.349)" opacity="0.15">
                <g id="Grupo_142832" data-name="Grupo 142832">
                  <g id="Grupo_142831" data-name="Grupo 142831" clip-path="url(#clip-path-14)">
                    <path id="Trazado_183944" data-name="Trazado 183944" d="M158.526,68.983l2.062,1.189-1.57-2.431-.895.617Z" transform="translate(-158.122 -67.741)"/>
                  </g>
                </g>
              </g>
              <path id="Trazado_183945" data-name="Trazado 183945" d="M142.612,86.427a19.9,19.9,0,0,1-1.117-6.9,32.474,32.474,0,0,1,1.788-10.258l-.4-.625a16.483,16.483,0,0,1-9.107,3.04,12.092,12.092,0,0,1-4.766-.963c-2.8,4.73-8.075,11.941-15.378,14.48l-2.988,8.076a18.079,18.079,0,0,1,1.8,8.46,30.973,30.973,0,0,1-1.047,7.782c-.079.319-.162.64-.246.964a32.632,32.632,0,0,0-1.3,9.079,15.876,15.876,0,0,0,1.771,8.192,8.879,8.879,0,0,0,2.57,2.8,26.51,26.51,0,0,0,10.54,1.888c8.929-10.343,14.775-19.419,17.379-26.988a32.806,32.806,0,0,0,1.976-11.092,17.645,17.645,0,0,0-1.222-7.232c-.086-.233-.17-.465-.252-.7" transform="translate(-34.689 -21.676)" fill="#62767d"/>
              <path id="Trazado_183946" data-name="Trazado 183946" d="M113.628,86.158l-2.988,8.076a18.075,18.075,0,0,1,1.8,8.46,30.969,30.969,0,0,1-1.047,7.782c-.079.319-.162.64-.246.964a32.629,32.629,0,0,0-1.3,9.079,15.874,15.874,0,0,0,1.771,8.192,8.871,8.871,0,0,0,2.57,2.8,26.51,26.51,0,0,0,10.54,1.888V103.636l4.275-1.293V71.678a47.33,47.33,0,0,1-4.275,6.118c-2.858,3.446-6.594,6.795-11.1,8.362" transform="translate(-34.689 -22.635)" fill="#476167"/>
              <path id="Trazado_183947" data-name="Trazado 183947" d="M137.777,97.145a1.2,1.2,0,0,0-.162-.234l-.02-.025a1.87,1.87,0,0,0-.444-.348l-1.433-.827a3.044,3.044,0,0,0-.823-.315,3.976,3.976,0,0,0-.525-.082V91.076a5.073,5.073,0,0,0-2.2-4.614,4.543,4.543,0,0,0-4.653.294,12.24,12.24,0,0,0-5.452,9.8v5l-2.849,1.646a2.024,2.024,0,0,0-.242.165c-.026.021-.053.04-.077.061-.006,0-.011.011-.017.016a1.051,1.051,0,0,0-.392.775v17.151a.846.846,0,0,0,.031.221,1.267,1.267,0,0,0,.538.7c.05.035.1.068.159.1l.7.4.737.426a3.074,3.074,0,0,0,.92.33,3.889,3.889,0,0,0,2.6-.332l12.986-7.5a1.236,1.236,0,0,0,.729-1.015V97.555a.893.893,0,0,0-.1-.41m-12.907-.584a9.468,9.468,0,0,1,4.049-7.374,1.954,1.954,0,0,1,1.846-.294,2.5,2.5,0,0,1,.8,2.183v5l-3.693,2.132-3,1.732Z" transform="translate(-37.416 -27.142)" fill="#3f4c51"/>
              <path id="Trazado_183948" data-name="Trazado 183948" d="M140.091,102.97a1.235,1.235,0,0,0-.729-1.015l-1.433-.827a3.889,3.889,0,0,0-3.519,0l-12.985,7.5a1.236,1.236,0,0,0-.729,1.017v17.151a1.233,1.233,0,0,0,.729,1.018l1.432.827a3.889,3.889,0,0,0,3.519,0l12.986-7.5a1.237,1.237,0,0,0,.729-1.016Z" transform="translate(-38.114 -31.802)" fill="#5cdec1"/>
              <g id="Grupo_142836" data-name="Grupo 142836" transform="translate(82.582 68.905)" opacity="0.4">
                <g id="Grupo_142835" data-name="Grupo 142835">
                  <g id="Grupo_142834" data-name="Grupo 142834" clip-path="url(#clip-path-15)">
                    <path id="Trazado_183949" data-name="Trazado 183949" d="M122.858,111.483l-1.432-.827a1.072,1.072,0,0,1,0-2.031l12.985-7.5a3.889,3.889,0,0,1,3.519,0l1.433.827a1.072,1.072,0,0,1,0,2.031l-12.986,7.5a3.889,3.889,0,0,1-3.519,0" transform="translate(-120.696 -100.706)" fill="#fff"/>
                  </g>
                </g>
              </g>
              <g id="Grupo_142839" data-name="Grupo 142839" transform="translate(82.584 77.838)" opacity="0.1">
                <g id="Grupo_142838" data-name="Grupo 142838">
                  <g id="Grupo_142837" data-name="Grupo 142837" clip-path="url(#clip-path-16)">
                    <path id="Trazado_183950" data-name="Trazado 183950" d="M124.619,116.026v17.155a3.584,3.584,0,0,1-1.759-.419l-1.435-.829a1.227,1.227,0,0,1-.727-1.02V113.763a1.229,1.229,0,0,0,.727,1.016l1.435.829a3.584,3.584,0,0,0,1.759.419" transform="translate(-120.698 -113.763)"/>
                  </g>
                </g>
              </g>
              <path id="Trazado_183951" data-name="Trazado 183951" d="M138.75,125.5l-3.1,1.79.481-5.609a1.462,1.462,0,0,1-.608-1.371,4.019,4.019,0,0,1,1.677-3.2c.926-.534,1.677.033,1.677,1.268a4.212,4.212,0,0,1-.607,2.072Z" transform="translate(-42.796 -36.918)" fill="#62767d"/>
              <path id="Trazado_183952" data-name="Trazado 183952" d="M138.809,128.724,136,127.1l-.293,3.411Z" transform="translate(-42.854 -40.137)" fill="#476167"/>
              <path id="Trazado_183953" data-name="Trazado 183953" d="M137.314,117.11a3.659,3.659,0,0,0-1.43,1.9l2.5,1.443h0a4.213,4.213,0,0,0,.608-2.072c0-1.235-.751-1.8-1.677-1.268" transform="translate(-42.91 -36.918)" fill="#476167"/>
              <path id="Trazado_183954" data-name="Trazado 183954" d="M138.233,99.042v0h0V92.182a5.073,5.073,0,0,0-2.2-4.614,4.543,4.543,0,0,0-4.653.294,12.242,12.242,0,0,0-5.452,9.806v6.9h0a.7.7,0,0,0,.412.573,2.193,2.193,0,0,0,1.984,0,.7.7,0,0,0,.412-.573v-6.9a9.467,9.467,0,0,1,4.049-7.374A1.954,1.954,0,0,1,134.627,90a2.5,2.5,0,0,1,.8,2.183V99.04h0v0h0a.7.7,0,0,0,.411.567,2.187,2.187,0,0,0,1.983,0,.7.7,0,0,0,.411-.567h0Z" transform="translate(-39.765 -27.491)" fill="#ededed"/>
              <path id="Trazado_183955" data-name="Trazado 183955" d="M168.308,147.714l1.89-1.091.749-.907-1.89,1.091Z" transform="translate(-53.149 -46.015)" fill="#50e1d6"/>
              <g id="Grupo_142842" data-name="Grupo 142842" transform="translate(115.159 99.701)" opacity="0.4">
                <g id="Grupo_142841" data-name="Grupo 142841">
                  <g id="Grupo_142840" data-name="Grupo 142840" clip-path="url(#clip-path-17)">
                    <path id="Trazado_183956" data-name="Trazado 183956" d="M168.308,147.714l1.89-1.091.749-.907-1.89,1.091Z" transform="translate(-168.308 -145.715)"/>
                  </g>
                </g>
              </g>
              <path id="Trazado_183957" data-name="Trazado 183957" d="M175.825,151.827l1.89-1.091,1.58-1.4-1.89,1.091Z" transform="translate(-55.523 -47.159)" fill="#50e1d6"/>
              <g id="Grupo_142845" data-name="Grupo 142845" transform="translate(120.302 102.179)" opacity="0.4">
                <g id="Grupo_142844" data-name="Grupo 142844">
                  <g id="Grupo_142843" data-name="Grupo 142843" clip-path="url(#clip-path-18)">
                    <path id="Trazado_183958" data-name="Trazado 183958" d="M175.825,151.827l1.89-1.091,1.58-1.4-1.89,1.091Z" transform="translate(-175.825 -149.338)"/>
                  </g>
                </g>
              </g>
              <path id="Trazado_183959" data-name="Trazado 183959" d="M187.426,150.878a4.032,4.032,0,0,1,.781,2.057,4.033,4.033,0,0,1-.781-2.057m4.394.057c-.636-4.33-2.963-8.614-5.735-10.215a3.414,3.414,0,0,0-3.549-.22c-.288.168-1.358.785-1.78,1.027a.943.943,0,0,0-.1.059,2.629,2.629,0,0,0-.229.146,3.253,3.253,0,0,0-.41.338c-.018.016-.037.038-.059.056-.056.056-.112.118-.164.18s-.131.152-.19.233a4.482,4.482,0,0,0-.348.534c-.053.093-.105.192-.155.294l-15.543-8.973-1.889,1.089v1.2l.161.093.149.087v.255l-.31.18v.7l2.283,4.833,2.259,1.305.751-.909,1.991,1.191,1.145,1.96,1.26.726,1.578-1.4,1.939,1.12.651,2.686,3.247,1.873a17.915,17.915,0,0,0,.614,2.019c.022.068.047.137.075.211,1.079,2.839,2.8,5.267,4.733,6.387a5,5,0,0,0,.729.35,3.738,3.738,0,0,0,.406.137,3.158,3.158,0,0,0,.363.08,3.111,3.111,0,0,0,1.151,0l.159-.038a1.319,1.319,0,0,0,.22-.065l.168-.065a1.248,1.248,0,0,0,.174-.081,1.566,1.566,0,0,0,.161-.083l.081-.047a.117.117,0,0,0,.037-.022c.431-.248,1.5-.862,1.784-1.026,1.436-.831,2.367-2.938,2.367-5.916a15.484,15.484,0,0,0-.174-2.292" transform="translate(-51.053 -42.439)" fill="#50e1d6"/>
              <path id="Trazado_183960" data-name="Trazado 183960" d="M186.872,155.034a3.562,3.562,0,0,1-1.35-2.859c0-1.147.6-1.73,1.35-1.3a3.56,3.56,0,0,1,1.35,2.858c0,1.148-.6,1.73-1.35,1.3m3.059-2.507c-.636-4.327-2.962-8.611-5.735-10.211a3.454,3.454,0,0,0-3.44-.285.946.946,0,0,0-.1.059,2.587,2.587,0,0,0-.23.146,3.193,3.193,0,0,0-.409.338c-.018.016-.037.038-.059.056-.056.055-.112.118-.164.18s-.131.152-.19.233a4.473,4.473,0,0,0-.348.533c-.053.093-.105.193-.155.295a7.457,7.457,0,0,0-.6,1.836l-16.834-9.721v1.2l.161.093.149.087v.255l-.31.18v.7l2.283,4.833,2.259,1.306.751-.909,1.991,1.191,1.145,1.96,1.26.725,1.578-1.4,1.939,1.119.651,2.686,3.247,1.874a17.917,17.917,0,0,0,.614,2.019c.022.068.047.136.075.211,1.079,2.838,2.8,5.267,4.733,6.387a5.071,5.071,0,0,0,.729.35,3.731,3.731,0,0,0,.406.136,3.023,3.023,0,0,0,.363.081,3.11,3.11,0,0,0,1.151,0l.159-.038a1.322,1.322,0,0,0,.22-.065l.168-.065a1.331,1.331,0,0,0,.174-.081,1.56,1.56,0,0,0,.161-.083l.081-.047a.131.131,0,0,0,.037-.022c1.377-.868,2.261-2.943,2.261-5.85a16.039,16.039,0,0,0-.174-2.3" transform="translate(-51.053 -42.942)" fill="#50e1d6"/>
              <g id="Grupo_142848" data-name="Grupo 142848" transform="translate(134.467 107.793)" opacity="0.4">
                <g id="Grupo_142847" data-name="Grupo 142847">
                  <g id="Grupo_142846" data-name="Grupo 142846" clip-path="url(#clip-path-19)">
                    <path id="Trazado_183961" data-name="Trazado 183961" d="M199.229,160.541c0,1.147-.6,1.731-1.349,1.3a3.557,3.557,0,0,1-1.353-2.857c0-1.147.6-1.73,1.353-1.3a1.9,1.9,0,0,1,.552.506,4.051,4.051,0,0,0,.781,2.056,2.4,2.4,0,0,1,.016.295" transform="translate(-196.527 -157.542)"/>
                  </g>
                </g>
              </g>
              <g id="Grupo_142851" data-name="Grupo 142851" transform="translate(129.703 97.663)" opacity="0.4">
                <g id="Grupo_142850" data-name="Grupo 142850">
                  <g id="Grupo_142849" data-name="Grupo 142849" clip-path="url(#clip-path-20)">
                    <path id="Trazado_183962" data-name="Trazado 183962" d="M200.8,155.863c0,2.978-.931,5.084-2.367,5.915-.289.165-1.353.779-1.784,1.027,1.377-.868,2.261-2.943,2.261-5.85a16.039,16.039,0,0,0-.174-2.3c-.636-4.327-2.962-8.611-5.735-10.211a3.454,3.454,0,0,0-3.44-.285c.422-.242,1.492-.859,1.78-1.027a3.414,3.414,0,0,1,3.549.22c2.773,1.6,5.1,5.884,5.735,10.215a15.486,15.486,0,0,1,.174,2.292" transform="translate(-189.564 -142.737)" fill="#fff"/>
                  </g>
                </g>
              </g>
              <path id="Trazado_183963" data-name="Trazado 183963" d="M202.183,162.859c0,2.907-.884,4.982-2.261,5.85.431-.248,1.5-.862,1.784-1.026,1.436-.831,2.367-2.938,2.367-5.916,0-.109,0-.22-.006-.33l-1.89,1.091c0,.111.007.222.007.332" transform="translate(-63.132 -50.979)" fill="#50e1d6"/>
              <g id="Grupo_142854" data-name="Grupo 142854" transform="translate(136.791 110.458)" opacity="0.1">
                <g id="Grupo_142853" data-name="Grupo 142853">
                  <g id="Grupo_142852" data-name="Grupo 142852" clip-path="url(#clip-path-21)">
                    <path id="Trazado_183964" data-name="Trazado 183964" d="M202.183,162.859c0,2.907-.884,4.982-2.261,5.85.431-.248,1.5-.862,1.784-1.026,1.436-.831,2.367-2.938,2.367-5.916,0-.109,0-.22-.006-.33l-1.89,1.091c0,.111.007.222.007.332" transform="translate(-199.923 -161.437)"/>
                  </g>
                </g>
              </g>
              <g id="Grupo_142857" data-name="Grupo 142857" transform="translate(110.617 94.427)" opacity="0.15">
                <g id="Grupo_142856" data-name="Grupo 142856">
                  <g id="Grupo_142855" data-name="Grupo 142855" clip-path="url(#clip-path-22)">
                    <path id="Trazado_183965" data-name="Trazado 183965" d="M178.571,147.585v.614l-16.9-9.759.311-.18v-.254Z" transform="translate(-161.669 -138.007)"/>
                  </g>
                </g>
              </g>
              <g id="Grupo_142860" data-name="Grupo 142860" transform="translate(110.617 94.678)" opacity="0.15">
                <g id="Grupo_142859" data-name="Grupo 142859">
                  <g id="Grupo_142858" data-name="Grupo 142858" clip-path="url(#clip-path-23)">
                    <path id="Trazado_183966" data-name="Trazado 183966" d="M178.571,147.956v.36l-16.9-9.758.311-.18v0Z" transform="translate(-161.669 -138.374)"/>
                  </g>
                </g>
              </g>
              <g id="Grupo_142863" data-name="Grupo 142863" transform="translate(127.972 100.125)" opacity="0.15">
                <g id="Grupo_142862" data-name="Grupo 142862">
                  <g id="Grupo_142861" data-name="Grupo 142861" clip-path="url(#clip-path-24)">
                    <path id="Trazado_183967" data-name="Trazado 183967" d="M187.4,151.953c0,4.183,2.2,8.847,4.92,10.416s4.92-.551,4.92-4.735-2.2-8.847-4.92-10.415S187.4,147.77,187.4,151.953Z" transform="translate(-187.15 -146.452)" fill="none" stroke="#000" stroke-miterlimit="10" stroke-width="0.732"/>
                  </g>
                </g>
              </g>
              <g id="Grupo_142866" data-name="Grupo 142866" transform="translate(110.617 91.955)" opacity="0.5">
                <g id="Grupo_142865" data-name="Grupo 142865">
                  <g id="Grupo_142864" data-name="Grupo 142864" clip-path="url(#clip-path-25)">
                    <path id="Trazado_183968" data-name="Trazado 183968" d="M179.1,143.367a7.486,7.486,0,0,0-.6,1.836l-16.834-9.721,1.889-1.089Z" transform="translate(-161.669 -134.394)" fill="#fff"/>
                  </g>
                </g>
              </g>
            </g>
          </g>
        </g>
      </g>
    </g>
  </g>
</svg>
