<svg xmlns="http://www.w3.org/2000/svg" xmlns:xlink="http://www.w3.org/1999/xlink" width="393.978" height="235.116" viewBox="0 0 393.978 235.116">
  <defs>
    <clipPath id="clip-path">
      <rect id="Rectángulo_39481" data-name="Rectángulo 39481" width="222.48" height="213.861" fill="none"/>
    </clipPath>
  </defs>
  <g id="Grupo_143648" data-name="Grupo 143648" transform="translate(-186 -5869)">
    <g id="Image_Place_Holder" data-name="Image Place Holder" transform="translate(186 5905.025)">
      <rect id="Image_Place_Holder-2" data-name="Image Place Holder" width="393.978" height="199.091" rx="10" fill="#ffd8e3"/>
    </g>
    <g id="Grupo_143546" data-name="Grupo 143546" transform="translate(276.52 5869)">
      <g id="Grupo_143546-2" data-name="Grupo 143546" clip-path="url(#clip-path)">
        <path id="Trazado_189054" data-name="Trazado 189054" d="M116.967,154.7v23.671a5.727,5.727,0,1,1-11.454,0V154.7a5.727,5.727,0,1,1,11.454,0" fill="#5c5f66"/>
        <path id="Trazado_189055" data-name="Trazado 189055" d="M99.786,195.549H19.227a5.727,5.727,0,1,1,0-11.454H99.786a5.727,5.727,0,1,1,0,11.454" fill="#5c5f66"/>
        <path id="Trazado_189056" data-name="Trazado 189056" d="M203.253,195.549H122.694a5.727,5.727,0,1,1,0-11.454h80.559a5.727,5.727,0,0,1,0,11.454" fill="#53565c"/>
        <path id="Trazado_189057" data-name="Trazado 189057" d="M122.694,172.641H99.786a5.671,5.671,0,0,0-5.727,5.727v22.908A5.672,5.672,0,0,0,99.786,207h22.908a5.672,5.672,0,0,0,5.727-5.727V178.368a5.671,5.671,0,0,0-5.727-5.727" fill="#7b8089"/>
        <path id="Trazado_189058" data-name="Trazado 189058" d="M116.967,154.7v23.671a5.671,5.671,0,0,1-5.727,5.727V148.97a5.671,5.671,0,0,1,5.727,5.727" fill="#53565c"/>
        <path id="Trazado_189059" data-name="Trazado 189059" d="M128.421,178.368v22.908A5.671,5.671,0,0,1,122.694,207H111.24V172.641h11.454a5.671,5.671,0,0,1,5.727,5.727" fill="#6f747f"/>
        <path id="Trazado_189060" data-name="Trazado 189060" d="M185.461,80.246a72.2,72.2,0,0,0-5.5-22.908,68.416,68.416,0,0,0-6.071-11.454,74.236,74.236,0,0,0-60.019-34.247,30.487,30.487,0,0,0-5.268,0A74.23,74.23,0,0,0,48.588,45.884a68.269,68.269,0,0,0-6.071,11.454,72.171,72.171,0,0,0-5.5,22.908c-.115,1.832-.229,3.779-.229,5.727s.114,3.894.229,5.727a72.178,72.178,0,0,0,5.5,22.908,68.307,68.307,0,0,0,6.071,11.454,74.235,74.235,0,0,0,60.018,34.247,30.487,30.487,0,0,0,5.268,0,74.239,74.239,0,0,0,60.019-34.247,68.454,68.454,0,0,0,6.071-11.454,72.176,72.176,0,0,0,5.5-22.908c.115-1.833.229-3.78.229-5.727s-.114-3.895-.229-5.727" fill="#50b9ff"/>
        <path id="Trazado_189061" data-name="Trazado 189061" d="M185.69,85.973c0,1.947-.115,3.894-.229,5.727a72.2,72.2,0,0,1-5.5,22.908,68.307,68.307,0,0,1-6.071,11.454,74.235,74.235,0,0,1-60.018,34.247,19.5,19.5,0,0,1-2.634.114V11.523a19.5,19.5,0,0,1,2.634.114,74.234,74.234,0,0,1,60.018,34.247,68.268,68.268,0,0,1,6.071,11.454,72.2,72.2,0,0,1,5.5,22.908c.114,1.832.229,3.779.229,5.727" fill="#48a7e6"/>
        <path id="Trazado_189062" data-name="Trazado 189062" d="M111.24,22.977a63,63,0,1,0,63,63,63.107,63.107,0,0,0-63-63" fill="#79f5ed"/>
        <path id="Trazado_189063" data-name="Trazado 189063" d="M174.236,85.973a63.107,63.107,0,0,1-63,63V22.977a63.107,63.107,0,0,1,63,63" fill="#c9fbf8"/>
        <path id="Trazado_189064" data-name="Trazado 189064" d="M185.461,91.7c.115-1.833.229-3.78.229-5.727s-.114-3.895-.229-5.727H151.214a128.975,128.975,0,0,0-2.864-22.908h31.613a68.337,68.337,0,0,0-6.07-11.454H145.144c-6.529-19.471-17.983-32.644-31.27-34.247a30.487,30.487,0,0,0-5.268,0c-13.287,1.6-24.741,14.776-31.27,34.247H48.588a68.269,68.269,0,0,0-6.071,11.454H74.129a129.069,129.069,0,0,0-2.863,22.908H37.019c-.115,1.832-.229,3.779-.229,5.727s.114,3.894.229,5.727H71.266a129.079,129.079,0,0,0,2.864,22.908H42.517a68.307,68.307,0,0,0,6.071,11.454H77.336c6.529,19.471,17.983,32.643,31.27,34.247a30.487,30.487,0,0,0,5.268,0c13.287-1.6,24.741-14.776,31.27-34.247h28.749a68.376,68.376,0,0,0,6.07-11.454H148.351A129.081,129.081,0,0,0,151.214,91.7Zm-79.948,55.666c-5.956-2.978-11.568-10.537-15.806-21.3h15.806Zm0-32.758H86.041A114.29,114.29,0,0,1,82.949,91.7h22.564Zm0-34.362H82.949a114.27,114.27,0,0,1,3.092-22.908h19.472Zm0-34.362H89.707c4.238-10.766,9.85-18.326,15.806-21.3Zm11.454-21.3c5.956,2.977,11.568,10.537,15.806,21.3H116.967Zm0,122.786V125.985h15.806c-4.238,10.767-9.85,18.4-15.806,21.381m19.472-32.758H116.967V91.662h22.564a114.61,114.61,0,0,1-3.092,22.946M116.967,80.246V57.338h19.472a114.2,114.2,0,0,1,3.092,22.908Z" fill="#50b9ff"/>
        <path id="Trazado_189065" data-name="Trazado 189065" d="M185.461,91.7c.115-1.833.229-3.78.229-5.727s-.114-3.895-.229-5.727H151.214a128.975,128.975,0,0,0-2.864-22.908h31.613a68.337,68.337,0,0,0-6.07-11.454H145.144c-6.529-19.471-17.983-32.644-31.27-34.247a19.5,19.5,0,0,0-2.634-.114v148.9a19.5,19.5,0,0,0,2.634-.114c13.287-1.6,24.741-14.776,31.27-34.247h28.749a68.376,68.376,0,0,0,6.07-11.454H148.351A129.081,129.081,0,0,0,151.214,91.7ZM116.967,24.58c5.956,2.977,11.568,10.537,15.806,21.3H116.967Zm0,122.786V125.985h15.806c-4.238,10.767-9.85,18.4-15.806,21.381m19.472-32.758H116.967V91.662h22.564a114.61,114.61,0,0,1-3.092,22.946M116.967,80.246V57.338h19.472a114.2,114.2,0,0,1,3.092,22.908Z" fill="#48a7e6"/>
      </g>
    </g>
  </g>
</svg>
