<svg xmlns="http://www.w3.org/2000/svg" xmlns:xlink="http://www.w3.org/1999/xlink" width="393.978" height="235.116" viewBox="0 0 393.978 235.116">
  <defs>
    <clipPath id="clip-path">
      <rect id="Rectángulo_39482" data-name="Rectángulo 39482" width="222.48" height="213.861" fill="none"/>
    </clipPath>
  </defs>
  <g id="Grupo_143649" data-name="Grupo 143649" transform="translate(-603 -5869)">
    <g id="Image_Place_Holder" data-name="Image Place Holder" transform="translate(603 5905.025)">
      <rect id="Image_Place_Holder-2" data-name="Image Place Holder" width="393.978" height="199.091" rx="10" fill="#ffd8e3"/>
    </g>
    <g id="Grupo_143547" data-name="Grupo 143547" transform="translate(692.52 5869)">
      <g id="Grupo_143547-2" data-name="Grupo 143547" clip-path="url(#clip-path)">
        <path id="Trazado_189066" data-name="Trazado 189066" d="M206.083,29.288H16.4a3.977,3.977,0,0,0-3.976,3.977V52.323l.9.4H209.463l.6-.4V33.265A3.976,3.976,0,0,0,206.083,29.288Z" fill="#d2b7ff"/>
        <path id="Trazado_189067" data-name="Trazado 189067" d="M36.479,52.323V33.265a3.976,3.976,0,0,1,3.977-3.977H16.4a3.977,3.977,0,0,0-3.977,3.977V52.323Z" fill="#a7f"/>
        <path id="Trazado_189068" data-name="Trazado 189068" d="M206.083,180.4H16.4a3.977,3.977,0,0,1-3.976-3.977V52.323H210.06v124.1a3.978,3.978,0,0,1-3.977,3.977" fill="#e8edf2"/>
        <path id="Trazado_189069" data-name="Trazado 189069" d="M36.479,176.421V52.323H12.42v124.1A3.977,3.977,0,0,0,16.4,180.4H40.456a3.977,3.977,0,0,1-3.977-3.977" fill="#d9e7ec"/>
        <path id="Trazado_189070" data-name="Trazado 189070" d="M24.255,37.707a2.9,2.9,0,1,1-2.895,2.9,2.895,2.895,0,0,1,2.895-2.9" fill="#fe646f"/>
        <path id="Trazado_189071" data-name="Trazado 189071" d="M34.292,37.707a2.9,2.9,0,1,1-2.9,2.9,2.895,2.895,0,0,1,2.9-2.9" fill="#fed402"/>
        <path id="Trazado_189072" data-name="Trazado 189072" d="M44.328,37.707a2.9,2.9,0,1,1-2.9,2.9,2.895,2.895,0,0,1,2.9-2.9" fill="#00c27a"/>
        <path id="Trazado_189073" data-name="Trazado 189073" d="M185.007,162.5H37.473a3.976,3.976,0,0,1-3.977-3.977v-5.965a3.977,3.977,0,0,1,3.977-3.977H185.007a3.977,3.977,0,0,1,3.976,3.977v5.965a3.976,3.976,0,0,1-3.976,3.977" fill="#00c27a"/>
        <path id="Trazado_189074" data-name="Trazado 189074" d="M158.96,158.527v-5.965a3.976,3.976,0,0,1,3.977-3.977H147.428V162.5h15.509a3.975,3.975,0,0,1-3.977-3.976" fill="#08b865"/>
        <path id="Trazado_189075" data-name="Trazado 189075" d="M147.427,148.586H37.472a3.976,3.976,0,0,0-3.976,3.977v5.965a3.977,3.977,0,0,0,3.976,3.977H147.427Z" fill="#d2b7ff"/>
        <path id="Trazado_189076" data-name="Trazado 189076" d="M51.988,158.527v-5.965a3.976,3.976,0,0,1,3.977-3.977H37.473a3.977,3.977,0,0,0-3.977,3.977v5.965a3.978,3.978,0,0,0,3.977,3.977H55.964a3.977,3.977,0,0,1-3.976-3.977" fill="#8f52f5"/>
        <path id="Trazado_189077" data-name="Trazado 189077" d="M43.438,87.059H33.5a2.9,2.9,0,1,1,0-5.79h9.941a2.9,2.9,0,1,1,0,5.79" fill="#c5d3dd"/>
        <path id="Trazado_189078" data-name="Trazado 189078" d="M188.984,87.059H167.311a2.9,2.9,0,1,1,0-5.79h21.673a2.9,2.9,0,1,1,0,5.79" fill="#c5d3dd"/>
        <path id="Trazado_189079" data-name="Trazado 189079" d="M81.379,83.927c0-.882.026-1.77.065-2.658H53.181a2.9,2.9,0,1,0,0,5.79H81.465C81.413,86.02,81.379,84.976,81.379,83.927Z" fill="#c5d3dd"/>
        <path id="Trazado_189080" data-name="Trazado 189080" d="M156.972,81.269H141.036c.039.889.065,1.777.065,2.658,0,1.05-.034,2.093-.086,3.132h15.957a2.9,2.9,0,1,0,0-5.79" fill="#c5d3dd"/>
        <path id="Trazado_189081" data-name="Trazado 189081" d="M55.766,100.182H33.5a2.9,2.9,0,1,1,0-5.79H55.766a2.9,2.9,0,1,1,0,5.79" fill="#8f52f5"/>
        <path id="Trazado_189082" data-name="Trazado 189082" d="M188.984,100.182H161.346a2.9,2.9,0,0,1,0-5.79h27.638a2.9,2.9,0,1,1,0,5.79" fill="#c5d3dd"/>
        <path id="Trazado_189083" data-name="Trazado 189083" d="M82.271,94.392H65.509a2.9,2.9,0,1,0,0,5.79H83.553q-.777-2.85-1.282-5.79" fill="#8f52f5"/>
        <path id="Trazado_189084" data-name="Trazado 189084" d="M138.927,100.182h12.08a2.9,2.9,0,0,0,0-5.79h-10.8q-.5,2.937-1.282,5.79" fill="#8f52f5"/>
        <path id="Trazado_189085" data-name="Trazado 189085" d="M43.438,113.305H33.5a2.9,2.9,0,1,1,0-5.79h9.941a2.9,2.9,0,1,1,0,5.79" fill="#8f52f5"/>
        <path id="Trazado_189086" data-name="Trazado 189086" d="M188.984,113.305h-9.743a2.9,2.9,0,1,1,0-5.79h9.743a2.9,2.9,0,1,1,0,5.79" fill="#8f52f5"/>
        <path id="Trazado_189087" data-name="Trazado 189087" d="M86.066,107.515H53.181a2.9,2.9,0,1,0,0,5.79h33.8a2.883,2.883,0,0,0,1.6-.482q-1.385-2.589-2.515-5.308" fill="#8f52f5"/>
        <path id="Trazado_189088" data-name="Trazado 189088" d="M168.9,107.515H150.988a16.92,16.92,0,0,1,3.7,5.79H168.9a2.9,2.9,0,0,0,0-5.79" fill="#8f52f5"/>
        <path id="Trazado_189089" data-name="Trazado 189089" d="M61.929,126.428H33.5a2.9,2.9,0,0,1,0-5.79H61.929a2.9,2.9,0,0,1,0,5.79Z" fill="#8f52f5"/>
        <path id="Trazado_189090" data-name="Trazado 189090" d="M188.984,126.428H173.276a2.9,2.9,0,1,1,0-5.79h15.708a2.9,2.9,0,1,1,0,5.79" fill="#8f52f5"/>
        <path id="Trazado_189091" data-name="Trazado 189091" d="M93.562,120.638H71.672a2.9,2.9,0,0,0,0,5.79H98.5A61.07,61.07,0,0,1,93.562,120.638Z" fill="#8f52f5"/>
        <path id="Trazado_189092" data-name="Trazado 189092" d="M162.937,120.638h-7.205a16.762,16.762,0,0,1-1.525,5.79h8.73a2.9,2.9,0,1,0,0-5.79" fill="#8f52f5"/>
        <path id="Trazado_189093" data-name="Trazado 189093" d="M121.994,119.3a16.914,16.914,0,0,1,16.666-16.892,61.709,61.709,0,0,0,2.425-25.5,2.275,2.275,0,0,0-2.262-2.011h-6.462a2.271,2.271,0,0,1-1.207-.347L112.447,62.834a2.275,2.275,0,0,0-2.414,0L91.326,74.552a2.281,2.281,0,0,1-1.208.347H83.657a2.274,2.274,0,0,0-2.262,2.011,61.622,61.622,0,0,0,28.622,59.321,2.306,2.306,0,0,0,2.446,0,61.962,61.962,0,0,0,11.418-9.189,16.785,16.785,0,0,1-1.887-7.744" fill="#fed402"/>
        <path id="Trazado_189094" data-name="Trazado 189094" d="M93.3,80.422a62.039,62.039,0,0,1,.4-7.017,2.379,2.379,0,0,1,.082-.391l-2.454,1.537a2.273,2.273,0,0,1-1.208.348H83.656a2.273,2.273,0,0,0-2.261,2.011,61.621,61.621,0,0,0,28.623,59.321,2.3,2.3,0,0,0,2.445,0,61.982,61.982,0,0,0,7.2-5.269A61.547,61.547,0,0,1,93.3,80.422" fill="#fac600"/>
        <path id="Trazado_189095" data-name="Trazado 189095" d="M111.24,109.137a2.9,2.9,0,0,1-2.895-2.9V82.382a2.9,2.9,0,1,1,5.79,0v23.86a2.9,2.9,0,0,1-2.9,2.9" fill="#465a61"/>
        <path id="Trazado_189096" data-name="Trazado 189096" d="M111.24,112.011a2.9,2.9,0,1,1-2.895,2.895,2.895,2.895,0,0,1,2.895-2.895" fill="#465a61"/>
        <path id="Trazado_189097" data-name="Trazado 189097" d="M138.892,102.014A17.284,17.284,0,1,1,121.608,119.3a17.284,17.284,0,0,1,17.284-17.284" fill="#00c27a"/>
        <path id="Trazado_189098" data-name="Trazado 189098" d="M133.936,119.3a17.286,17.286,0,0,1,11.12-16.148,17.283,17.283,0,1,0,0,32.3,17.285,17.285,0,0,1-11.12-16.147" fill="#08b865"/>
        <path id="Trazado_189099" data-name="Trazado 189099" d="M137.931,127.248a2.886,2.886,0,0,1-2.047-.848l-6.316-6.316a2.895,2.895,0,1,1,4.093-4.1l4.27,4.27,6.191-6.192a2.9,2.9,0,0,1,4.1,4.094l-8.239,8.239A2.888,2.888,0,0,1,137.931,127.248Z" fill="#fff"/>
        <path id="Trazado_189100" data-name="Trazado 189100" d="M185.007,165.4H37.473a6.88,6.88,0,0,1-6.872-6.872v-5.965a6.88,6.88,0,0,1,6.872-6.872H185.007a6.88,6.88,0,0,1,6.872,6.872v5.965a6.879,6.879,0,0,1-6.872,6.872M37.473,151.481a1.083,1.083,0,0,0-1.082,1.082v5.965a1.083,1.083,0,0,0,1.082,1.081H185.007a1.083,1.083,0,0,0,1.082-1.081v-5.965a1.083,1.083,0,0,0-1.082-1.082Z" fill="#7a8c98"/>
      </g>
    </g>
  </g>
</svg>
