<svg xmlns="http://www.w3.org/2000/svg" xmlns:xlink="http://www.w3.org/1999/xlink" width="229.108" height="195.662" viewBox="0 0 229.108 195.662">
  <defs>
    <clipPath id="clip-path">
      <rect id="Rect치ngulo_39204" data-name="Rect치ngulo 39204" width="229.108" height="195.662" fill="none"/>
    </clipPath>
  </defs>
  <g id="Grupo_143640" data-name="Grupo 143640" transform="translate(-915 -3593.696)">
    <g id="Grupo_143496" data-name="Grupo 143496" transform="translate(915 3593.696)">
      <g id="Grupo_143224" data-name="Grupo 143224" transform="translate(0)" clip-path="url(#clip-path)">
        <path id="Trazado_186614" data-name="Trazado 186614" d="M180.344,57.428H48.763a7.593,7.593,0,0,0-7.591,7.591v78.4a7.593,7.593,0,0,0,7.591,7.593H180.344a7.593,7.593,0,0,0,7.591-7.591V65.019a7.59,7.59,0,0,0-7.591-7.591" fill="#79f5ed" fill-rule="evenodd"/>
        <path id="Trazado_186615" data-name="Trazado 186615" d="M58.992,57.428H48.764a7.593,7.593,0,0,0-7.591,7.591v78.4a7.593,7.593,0,0,0,7.591,7.593H58.992a7.593,7.593,0,0,1-7.591-7.593v-78.4a7.593,7.593,0,0,1,7.591-7.591" fill="#7cc6c1" fill-rule="evenodd"/>
        <path id="Rect치ngulo_39203" data-name="Rect치ngulo 39203" d="M2.53,0h25.3a2.531,2.531,0,0,1,2.531,2.531V22.773A2.531,2.531,0,0,1,27.834,25.3H2.53A2.53,2.53,0,0,1,0,22.774V2.53A2.53,2.53,0,0,1,2.53,0Z" transform="translate(99.371 145.992)" fill="#5b5c6c"/>
        <path id="Trazado_186616" data-name="Trazado 186616" d="M94.311,171.3H134.8a2.531,2.531,0,1,0,0-5.061H94.311a2.531,2.531,0,0,0,0,5.061" fill="#4f505e" fill-rule="evenodd"/>
        <path id="Trazado_186617" data-name="Trazado 186617" d="M187.936,128.279H41.173v11.038a8.723,8.723,0,0,0,2.224,5.875,7.267,7.267,0,0,0,5.367,2.434H180.345c4.193,0,7.591-3.719,7.591-8.309Z" fill="#aaa" fill-rule="evenodd"/>
        <path id="Trazado_186618" data-name="Trazado 186618" d="M187.936,133.34H41.173v10.084a7.593,7.593,0,0,0,7.591,7.593H180.345a7.593,7.593,0,0,0,7.591-7.591Z" fill="#d7d7d7" fill-rule="evenodd"/>
        <path id="Trazado_186619" data-name="Trazado 186619" d="M53.825,143.461h2.53a2.531,2.531,0,1,0,0-5.061h-2.53a2.531,2.531,0,0,0,0,5.061" fill="#4f505e" fill-rule="evenodd"/>
        <path id="Trazado_186620" data-name="Trazado 186620" d="M152.915,35.565a7.595,7.595,0,1,1,3.758,3.4l-3.492,3.492a50.573,50.573,0,0,1-.863,66.362l4.355,4.358a7.585,7.585,0,1,1-3.758,3.4l-4.152-4.152a50.57,50.57,0,0,1-68.592-.16l-4.312,4.312a7.592,7.592,0,1,1-3.757-3.4l4.532-4.535a50.567,50.567,0,0,1-.858-66L72.1,38.963a7.586,7.586,0,1,1,3.757-3.4l3.361,3.36a50.568,50.568,0,0,1,70.5-.164Z" fill="#5b5c6c" fill-rule="evenodd"/>
        <path id="Trazado_186621" data-name="Trazado 186621" d="M159.6,117.651a2.53,2.53,0,1,1-2.53,2.53,2.53,2.53,0,0,1,2.53-2.53" fill="#2e2e36" fill-rule="evenodd"/>
        <path id="Trazado_186622" data-name="Trazado 186622" d="M69.179,117.651a2.53,2.53,0,1,1-2.53,2.53,2.53,2.53,0,0,1,2.53-2.53" fill="#2e2e36" fill-rule="evenodd"/>
        <path id="Trazado_186623" data-name="Trazado 186623" d="M159.6,34.487a2.53,2.53,0,1,1,2.53-2.53,2.531,2.531,0,0,1-2.53,2.53" fill="#2e2e36" fill-rule="evenodd"/>
        <path id="Trazado_186624" data-name="Trazado 186624" d="M69.179,34.487a2.53,2.53,0,1,1,2.53-2.53,2.531,2.531,0,0,1-2.53,2.53" fill="#2e2e36" fill-rule="evenodd"/>
        <path id="Trazado_186625" data-name="Trazado 186625" d="M111.546,42.261a32.861,32.861,0,0,0-18.108,7.51l-5.049-5.048a3.008,3.008,0,1,0-4.253,4.254l5.049,5.048a32.847,32.847,0,0,0-7.511,18.107H74.547a3.009,3.009,0,1,0,0,6.018h7.127a32.863,32.863,0,0,0,7.511,18.107l-5.049,5.048a3.008,3.008,0,0,0,4.253,4.254l5.049-5.048a32.846,32.846,0,0,0,18.108,7.51v7.128a3.009,3.009,0,1,0,6.017,0v-7.128a32.871,32.871,0,0,0,18.108-7.51l5.047,5.048a3.008,3.008,0,1,0,4.254-4.254l-5.049-5.048a32.85,32.85,0,0,0,7.511-18.107h7.129a3.009,3.009,0,0,0,0-6.018h-7.129a32.863,32.863,0,0,0-7.511-18.107l5.049-5.048a3.008,3.008,0,1,0-4.254-4.254l-5.047,5.048a32.852,32.852,0,0,0-18.108-7.51V35.133a3.009,3.009,0,1,0-6.017,0Z" fill="#2e2e36" fill-rule="evenodd"/>
        <path id="Trazado_186626" data-name="Trazado 186626" d="M114.554,48.141a27,27,0,1,1-27,27,27,27,0,0,1,27-27" fill="#a7f" fill-rule="evenodd"/>
        <path id="Trazado_186627" data-name="Trazado 186627" d="M120.66,70.379a5.716,5.716,0,0,0,9.9-5.716Z" fill="#2e2e36" fill-rule="evenodd"/>
        <path id="Trazado_186628" data-name="Trazado 186628" d="M103.124,84.668c0,4.208,5.116,7.619,11.43,7.619s11.43-3.411,11.43-7.619Z" fill="#2e2e36" fill-rule="evenodd"/>
        <path id="Trazado_186629" data-name="Trazado 186629" d="M108.276,70.379a5.716,5.716,0,0,1-9.9-5.716Z" fill="#2e2e36" fill-rule="evenodd"/>
      </g>
    </g>
  </g>
</svg>
