<svg xmlns="http://www.w3.org/2000/svg" xmlns:xlink="http://www.w3.org/1999/xlink" width="152.689" height="154.532" viewBox="0 0 152.689 154.532">
  <defs>
    <clipPath id="clip-path">
      <rect id="Rectángulo_37836" data-name="Rectángulo 37836" width="152.689" height="154.532" fill="none"/>
    </clipPath>
    <clipPath id="clip-path-3">
      <rect id="Rectángulo_37831" data-name="Rectángulo 37831" width="36.718" height="51.731" fill="none"/>
    </clipPath>
    <clipPath id="clip-path-4">
      <rect id="Rectángulo_37832" data-name="Rectángulo 37832" width="15.64" height="10.378" fill="none"/>
    </clipPath>
    <clipPath id="clip-path-5">
      <rect id="Rectángulo_37833" data-name="Rectángulo 37833" width="42.697" height="42.913" fill="none"/>
    </clipPath>
    <clipPath id="clip-path-6">
      <rect id="Rectángulo_37834" data-name="Rectángulo 37834" width="50.618" height="40.676" fill="none"/>
    </clipPath>
  </defs>
  <g id="Grupo_143599" data-name="Grupo 143599" transform="translate(-1125 -2623)">
    <g id="Grupo_112306" data-name="Grupo 112306" transform="translate(1125 2623)">
      <g id="Grupo_112305" data-name="Grupo 112305" clip-path="url(#clip-path)">
        <path id="Trazado_177021" data-name="Trazado 177021" d="M141.174,80.707,16.429,96.869v2.962L141.174,83.668Z" transform="translate(2.028 9.961)" fill="#3c3c3b"/>
        <g id="Grupo_112304" data-name="Grupo 112304">
          <g id="Grupo_112303" data-name="Grupo 112303" clip-path="url(#clip-path)">
            <path id="Trazado_177022" data-name="Trazado 177022" d="M140.806,86.94,65.707,130.3a1.963,1.963,0,0,1-1.776,0L16.8,103.085a.541.541,0,0,1,0-1.026L91.9,58.7a1.963,1.963,0,0,1,1.776,0l47.134,27.214a.541.541,0,0,1,0,1.026" transform="translate(2.028 7.219)" fill="#3c3c3b"/>
            <path id="Trazado_177023" data-name="Trazado 177023" d="M140.806,84.306l-75.1,43.359a1.963,1.963,0,0,1-1.776,0L16.8,100.451a.541.541,0,0,1,0-1.026L91.9,56.066a1.963,1.963,0,0,1,1.776,0L140.806,83.28a.541.541,0,0,1,0,1.026" transform="translate(2.028 6.893)" fill="#878787"/>
            <path id="Trazado_177024" data-name="Trazado 177024" d="M80.755,65.011l-1.337.772-3.9,2.251-1.338.773-3.9,2.25-1.338.773-3.9,2.251-1.337.772-3.9,2.251-1.338.772-3.9,2.251-1.337.772-3.9,2.251L48,83.923l-3.9,2.251-1.337.773-3.9,2.251-1.338.772-3.9,2.251-1.337.772-3.9,2.251-1.337.772L21.817,99.04l5.069,2.928,1.338.772,3.732,2.155,1.337.772,3.733,2.155,1.336.773,3.733,2.155,1.336.772,3.733,2.155,1.337.772,5.069,2.927,5.237-3.023,1.337-.772,9.136-5.274,1.337-.772L100.7,90.163l1.337-.771,3.9-2.252,1.338-.771,3.9-2.252,1.338-.772,3.9-2.251,1.338-.772,5.236-3.023-5.07-2.928-1.337-.772-3.732-2.155-1.337-.772-8.8-5.082-1.337-.772-3.732-2.155L96.3,61.892l-5.07-2.927Z" transform="translate(2.693 7.277)" fill="#3c3c3b"/>
            <path id="Trazado_177025" data-name="Trazado 177025" d="M28.17,92.29,23.6,94.927,28,97.468l4.568-2.637Z" transform="translate(2.913 11.39)" fill="#706f6f"/>
            <path id="Trazado_177026" data-name="Trazado 177026" d="M32.831,89.6l-4.569,2.638,4.4,2.541,4.568-2.638Z" transform="translate(3.488 11.058)" fill="#dadada"/>
            <path id="Trazado_177027" data-name="Trazado 177027" d="M37.325,92.086l4.568-2.637-4.4-2.541-4.568,2.637Z" transform="translate(4.063 10.726)" fill="#dadada"/>
            <path id="Trazado_177028" data-name="Trazado 177028" d="M42.154,84.216l-4.568,2.638,4.4,2.541,4.568-2.638Z" transform="translate(4.639 10.394)" fill="#dadada"/>
            <path id="Trazado_177029" data-name="Trazado 177029" d="M46.815,81.525l-4.568,2.637,4.4,2.541,4.568-2.637Z" transform="translate(5.214 10.062)" fill="#dadada"/>
            <path id="Trazado_177030" data-name="Trazado 177030" d="M51.476,78.834l-4.568,2.638,4.4,2.54,4.568-2.637Z" transform="translate(5.789 9.73)" fill="#dadada"/>
            <path id="Trazado_177031" data-name="Trazado 177031" d="M56.137,76.143l-4.568,2.638,4.4,2.54,4.568-2.637Z" transform="translate(6.365 9.397)" fill="#dadada"/>
            <path id="Trazado_177032" data-name="Trazado 177032" d="M60.8,73.452,56.23,76.09l4.4,2.54L65.2,75.993Z" transform="translate(6.94 9.065)" fill="#dadada"/>
            <path id="Trazado_177033" data-name="Trazado 177033" d="M65.292,75.939,69.86,73.3l-4.4-2.541L60.891,73.4Z" transform="translate(7.515 8.733)" fill="#dadada"/>
            <path id="Trazado_177034" data-name="Trazado 177034" d="M69.953,73.248l4.568-2.638-4.4-2.54-4.568,2.637Z" transform="translate(8.09 8.401)" fill="#dadada"/>
            <path id="Trazado_177035" data-name="Trazado 177035" d="M74.614,70.557l4.568-2.638-4.4-2.541-4.569,2.638Z" transform="translate(8.666 8.069)" fill="#dadada"/>
            <path id="Trazado_177036" data-name="Trazado 177036" d="M74.875,65.656l4.4,2.541,9.805-5.661L84.679,60Z" transform="translate(9.241 7.405)" fill="#706f6f"/>
            <path id="Trazado_177037" data-name="Trazado 177037" d="M32.682,94.9l-4.568,2.638,4.4,2.54,4.568-2.637Z" transform="translate(3.47 11.712)" fill="#dadada"/>
            <path id="Trazado_177038" data-name="Trazado 177038" d="M37.343,92.2l-4.568,2.638,4.4,2.541,4.568-2.638Z" transform="translate(4.045 11.38)" fill="#dadada"/>
            <path id="Trazado_177039" data-name="Trazado 177039" d="M41.838,94.691l4.568-2.638-4.4-2.54L37.436,92.15Z" transform="translate(4.62 11.048)" fill="#dadada"/>
            <path id="Trazado_177040" data-name="Trazado 177040" d="M46.666,86.821,42.1,89.459,46.5,92l4.568-2.638Z" transform="translate(5.196 10.715)" fill="#dadada"/>
            <path id="Trazado_177041" data-name="Trazado 177041" d="M51.327,84.131l-4.568,2.638,4.4,2.54,4.568-2.638Z" transform="translate(5.771 10.383)" fill="#dadada"/>
            <path id="Trazado_177042" data-name="Trazado 177042" d="M55.988,81.439,51.42,84.077l4.4,2.541,4.568-2.638Z" transform="translate(6.346 10.051)" fill="#dadada"/>
            <path id="Trazado_177043" data-name="Trazado 177043" d="M60.649,78.748l-4.568,2.638,4.4,2.541,4.568-2.638Z" transform="translate(6.922 9.719)" fill="#dadada"/>
            <path id="Trazado_177044" data-name="Trazado 177044" d="M65.31,76.057l-4.568,2.638,4.4,2.541L69.711,78.6Z" transform="translate(7.497 9.387)" fill="#dadada"/>
            <path id="Trazado_177045" data-name="Trazado 177045" d="M69.8,78.544l4.568-2.638-4.4-2.541L65.4,76Z" transform="translate(8.072 9.055)" fill="#dadada"/>
            <path id="Trazado_177046" data-name="Trazado 177046" d="M74.466,75.853l4.568-2.638-4.4-2.541-4.568,2.638Z" transform="translate(8.647 8.723)" fill="#dadada"/>
            <path id="Trazado_177047" data-name="Trazado 177047" d="M79.127,73.162l4.568-2.638-4.4-2.541-4.569,2.638Z" transform="translate(9.223 8.39)" fill="#dadada"/>
            <path id="Trazado_177048" data-name="Trazado 177048" d="M83.955,65.292,79.387,67.93l4.4,2.54,4.568-2.638Z" transform="translate(9.798 8.058)" fill="#dadada"/>
            <path id="Trazado_177049" data-name="Trazado 177049" d="M88.449,67.779l4.568-2.638-4.4-2.541-4.569,2.639Z" transform="translate(10.373 7.726)" fill="#dadada"/>
            <path id="Trazado_177050" data-name="Trazado 177050" d="M37.195,97.5l-4.568,2.637,4.4,2.541,4.568-2.638Z" transform="translate(4.027 12.033)" fill="#dadada"/>
            <path id="Trazado_177051" data-name="Trazado 177051" d="M41.856,94.809l-4.568,2.638,4.4,2.54,4.568-2.637Z" transform="translate(4.602 11.701)" fill="#dadada"/>
            <path id="Trazado_177052" data-name="Trazado 177052" d="M46.35,97.3l4.568-2.638-4.4-2.541-4.568,2.638Z" transform="translate(5.177 11.369)" fill="#dadada"/>
            <path id="Trazado_177053" data-name="Trazado 177053" d="M51.178,89.427l-4.568,2.637,4.4,2.541,4.568-2.637Z" transform="translate(5.753 11.037)" fill="#dadada"/>
            <path id="Trazado_177054" data-name="Trazado 177054" d="M55.839,86.736l-4.568,2.638,4.4,2.541,4.568-2.638Z" transform="translate(6.328 10.705)" fill="#dadada"/>
            <path id="Trazado_177055" data-name="Trazado 177055" d="M60.5,84.045l-4.568,2.637,4.4,2.541L64.9,86.586Z" transform="translate(6.903 10.373)" fill="#dadada"/>
            <path id="Trazado_177056" data-name="Trazado 177056" d="M65.162,81.353l-4.568,2.638,4.4,2.541,4.568-2.638Z" transform="translate(7.478 10.041)" fill="#dadada"/>
            <path id="Trazado_177057" data-name="Trazado 177057" d="M69.823,78.662,65.255,81.3l4.4,2.541L74.223,81.2Z" transform="translate(8.054 9.708)" fill="#dadada"/>
            <path id="Trazado_177058" data-name="Trazado 177058" d="M74.317,81.149l4.568-2.638-4.4-2.54-4.568,2.637Z" transform="translate(8.629 9.376)" fill="#dadada"/>
            <path id="Trazado_177059" data-name="Trazado 177059" d="M78.978,78.458l4.568-2.638-4.4-2.54-4.569,2.637Z" transform="translate(9.204 9.044)" fill="#dadada"/>
            <path id="Trazado_177060" data-name="Trazado 177060" d="M83.639,75.767l4.568-2.637-4.4-2.541-4.568,2.638Z" transform="translate(9.78 8.712)" fill="#dadada"/>
            <path id="Trazado_177061" data-name="Trazado 177061" d="M88.468,67.9,83.9,70.535l4.4,2.541,4.568-2.638Z" transform="translate(10.355 8.38)" fill="#dadada"/>
            <path id="Trazado_177062" data-name="Trazado 177062" d="M93.648,70.77l-5.236,3.023,4.4,2.541,9.8-5.661-9.469-5.468-4.568,2.638Z" transform="translate(10.912 8.048)" fill="#706f6f"/>
            <path id="Trazado_177063" data-name="Trazado 177063" d="M46.943,97.415l-9.8,5.661,4.4,2.541,9.8-5.661Z" transform="translate(4.584 12.023)" fill="#706f6f"/>
            <path id="Trazado_177064" data-name="Trazado 177064" d="M50.862,99.9l4.568-2.638-4.4-2.54-4.569,2.637Z" transform="translate(5.734 11.691)" fill="#dadada"/>
            <path id="Trazado_177065" data-name="Trazado 177065" d="M55.691,92.032,51.123,94.67l4.4,2.54,4.568-2.637Z" transform="translate(6.31 11.359)" fill="#dadada"/>
            <path id="Trazado_177066" data-name="Trazado 177066" d="M60.352,89.341l-4.568,2.638,4.4,2.54,4.568-2.637Z" transform="translate(6.885 11.026)" fill="#dadada"/>
            <path id="Trazado_177067" data-name="Trazado 177067" d="M65.013,86.65l-4.568,2.637,4.4,2.541,4.568-2.638Z" transform="translate(7.46 10.694)" fill="#dadada"/>
            <path id="Trazado_177068" data-name="Trazado 177068" d="M69.674,83.959,65.106,86.6l4.4,2.54L74.074,86.5Z" transform="translate(8.035 10.362)" fill="#dadada"/>
            <path id="Trazado_177069" data-name="Trazado 177069" d="M74.335,81.267l-4.568,2.638,4.4,2.541,4.568-2.638Z" transform="translate(8.611 10.03)" fill="#dadada"/>
            <path id="Trazado_177070" data-name="Trazado 177070" d="M78.829,83.754,83.4,81.118,79,78.576l-4.568,2.637Z" transform="translate(9.186 9.698)" fill="#dadada"/>
            <path id="Trazado_177071" data-name="Trazado 177071" d="M83.49,81.064l4.568-2.638-4.4-2.541L79.09,78.522Z" transform="translate(9.761 9.366)" fill="#dadada"/>
            <path id="Trazado_177072" data-name="Trazado 177072" d="M88.152,78.372l4.568-2.637-4.4-2.541-4.568,2.637Z" transform="translate(10.336 9.034)" fill="#dadada"/>
            <path id="Trazado_177073" data-name="Trazado 177073" d="M53.072,104.169l2.785-1.609-4.4-2.54-9.8,5.661,4.4,2.54,5.236-3.023Z" transform="translate(5.141 12.344)" fill="#706f6f"/>
            <path id="Trazado_177074" data-name="Trazado 177074" d="M55.375,102.507l4.568-2.637-4.4-2.541-4.568,2.637Z" transform="translate(6.291 12.012)" fill="#dadada"/>
            <path id="Trazado_177075" data-name="Trazado 177075" d="M60.2,94.637l-4.568,2.638,4.4,2.541L64.6,97.179Z" transform="translate(6.866 11.68)" fill="#dadada"/>
            <path id="Trazado_177076" data-name="Trazado 177076" d="M64.864,91.947,60.3,94.584l4.4,2.54,4.568-2.637Z" transform="translate(7.442 11.348)" fill="#dadada"/>
            <path id="Trazado_177077" data-name="Trazado 177077" d="M69.525,89.255l-4.568,2.638,4.4,2.541L73.926,91.8Z" transform="translate(8.017 11.016)" fill="#dadada"/>
            <path id="Trazado_177078" data-name="Trazado 177078" d="M74.186,86.564,69.618,89.2l4.4,2.541,4.569-2.637Z" transform="translate(8.592 10.684)" fill="#dadada"/>
            <path id="Trazado_177079" data-name="Trazado 177079" d="M78.848,83.873,74.28,86.511l4.4,2.541,4.568-2.638Z" transform="translate(9.168 10.351)" fill="#dadada"/>
            <path id="Trazado_177080" data-name="Trazado 177080" d="M83.342,86.36l4.568-2.637-4.4-2.541-4.568,2.637Z" transform="translate(9.743 10.019)" fill="#dadada"/>
            <path id="Trazado_177081" data-name="Trazado 177081" d="M88,83.669l4.568-2.637-4.4-2.541L83.6,81.128Z" transform="translate(10.318 9.687)" fill="#dadada"/>
            <path id="Trazado_177082" data-name="Trazado 177082" d="M92.664,80.978l4.568-2.638-4.4-2.54-4.568,2.637Z" transform="translate(10.893 9.355)" fill="#dadada"/>
            <path id="Trazado_177083" data-name="Trazado 177083" d="M97.325,78.618l9.8-5.661-4.4-2.541-9.8,5.661Z" transform="translate(11.469 8.691)" fill="#706f6f"/>
            <path id="Trazado_177084" data-name="Trazado 177084" d="M50.565,110.495l4.568-2.638-4.4-2.54-4.568,2.637Z" transform="translate(5.698 12.998)" fill="#dadada"/>
            <path id="Trazado_177085" data-name="Trazado 177085" d="M56.061,102.572l-5.236,3.023,4.4,2.541,5.236-3.023,1.672-.965,2.9-1.673-4.4-2.54-2.9,1.672Z" transform="translate(6.273 12.334)" fill="#dadada"/>
            <path id="Trazado_177086" data-name="Trazado 177086" d="M64.548,104.083,95.3,86.328l-4.4-2.54-30.75,17.753Z" transform="translate(7.423 10.341)" fill="#706f6f"/>
            <path id="Trazado_177087" data-name="Trazado 177087" d="M92.515,86.274l4.568-2.637-4.4-2.541-4.568,2.637Z" transform="translate(10.875 10.009)" fill="#dadada"/>
            <path id="Trazado_177088" data-name="Trazado 177088" d="M97.176,83.583l4.568-2.638-4.4-2.54-4.568,2.637Z" transform="translate(11.45 9.677)" fill="#dadada"/>
            <path id="Trazado_177089" data-name="Trazado 177089" d="M101.837,80.892l4.568-2.638-4.4-2.54-4.568,2.637Z" transform="translate(12.026 9.345)" fill="#dadada"/>
            <path id="Trazado_177090" data-name="Trazado 177090" d="M106.5,78.2l4.568-2.638-4.4-2.541L102.1,75.66Z" transform="translate(12.601 9.012)" fill="#dadada"/>
            <path id="Trazado_177091" data-name="Trazado 177091" d="M97.513,93.213l-5.289-3.053a1.963,1.963,0,0,0-1.776,0l-14.6,8.43a.541.541,0,0,0,0,1.026l5.289,3.053Z" transform="translate(9.315 11.101)" fill="#706f6f"/>
            <path id="Trazado_177092" data-name="Trazado 177092" d="M80.91,102l2.058,1.189a1.963,1.963,0,0,0,1.776,0l7.051-4.071-2.947-1.7Z" transform="translate(9.986 12.023)" fill="#dadada"/>
            <path id="Trazado_177093" data-name="Trazado 177093" d="M88.422,97.667l2.947,1.7,7.049-4.07a.541.541,0,0,0,0-1.026L96.36,93.083Z" transform="translate(10.913 11.488)" fill="#706f6f"/>
            <path id="Trazado_177094" data-name="Trazado 177094" d="M78.1.367,77.09.016a.907.907,0,0,0-.675.128S.484,44.019.484,44.019c-.437.269-.61.948-.386,1.808l15.227,58.412c.363,1.392,2.247,2.638,3.425,2.2l.466-.271L7.545,56.732,79.8,14.954l-.913-5.076L91.945,59.964A3.325,3.325,0,0,0,94.1,62.4l.433-.764Z" transform="translate(0 0)" fill="#3c3c3b"/>
            <path id="Trazado_177095" data-name="Trazado 177095" d="M78.541,1.079,94.318,61.6a1.185,1.185,0,0,1-.554,1.326L18.531,106.4a.533.533,0,0,1-.782-.327L1.815,44.948A1.3,1.3,0,0,1,2.421,43.5L76.962.42a1.074,1.074,0,0,1,1.578.659" transform="translate(0.219 0.034)" fill="#3c3c3b"/>
            <path id="Trazado_177096" data-name="Trazado 177096" d="M90.592,60.514l-71.067,41.1-.2-.748L4.777,45.042,75.227,4.306l.618-.358Z" transform="translate(0.59 0.487)" fill="#fff"/>
            <path id="Trazado_177097" data-name="Trazado 177097" d="M89.777,60.085l-70.45,40.739L4.777,45,75.227,4.268Z" transform="translate(0.59 0.527)" fill="#64d2d6"/>
            <g id="Grupo_112293" data-name="Grupo 112293" transform="translate(30.467 26.923)" style="mix-blend-mode: multiply;isolation: isolate">
              <g id="Grupo_112292" data-name="Grupo 112292">
                <g id="Grupo_112291" data-name="Grupo 112291" clip-path="url(#clip-path-3)">
                  <path id="Trazado_177098" data-name="Trazado 177098" d="M62.685,38.266c3.526,12.774-1.319,28.308-10.822,34.695S31.8,74.169,28.271,61.4,29.589,33.088,39.092,26.7s20.067-1.209,23.593,11.566" transform="translate(-27.12 -23.965)" fill="#64d2d6"/>
                </g>
              </g>
            </g>
            <path id="Trazado_177099" data-name="Trazado 177099" d="M45.171,33.605c-2.434-2.7-6.124-1.909-8.225,1.768l-.636,1.112c-2.1,3.677-1.83,8.865.6,11.567l2,2.388,2.734-1.59L38.42,45.417c-1.472-1.633-1.636-4.771-.365-6.994l.636-1.112c1.271-2.223,3.5-2.7,4.973-1.069l2.588,2.873,1.507-2.636Z" transform="translate(4.307 3.95)" fill="#fff"/>
            <path id="Trazado_177100" data-name="Trazado 177100" d="M36.922,49.921l1.938,8.03c1.338,5.545,5.7,8.148,9.72,5.808l1.52-.884c4.025-2.34,6.2-8.74,4.86-14.284l-1.938-8.03Zm7.926,1.835a2.747,2.747,0,0,1,.993-2.914,1.219,1.219,0,0,1,1.76.627,1.805,1.805,0,0,1,.221.557,2.969,2.969,0,0,1-.384,2.285l1.222,5.063-1.335.775L46.1,53.087a1.561,1.561,0,0,1-1.257-1.331" transform="translate(4.557 5.006)" fill="#fff"/>
            <path id="Trazado_177101" data-name="Trazado 177101" d="M130.215,111.485l-2.258,5.279c-1.271,1.586-4.185,2.388-4.427-1.569-.146-1.875-.248-3.337-.321-4.478-.526-8,.424-.372-.808-8.13a11.018,11.018,0,0,0,1.621.277c2.348.185,3.861-.729,4.471-2.852a63.654,63.654,0,0,0-.638,7.8c.864-.124,1.638.7,2.36,1.412a2.387,2.387,0,0,1,0,2.258" transform="translate(15.106 12.343)" fill="#3a144a"/>
            <path id="Trazado_177102" data-name="Trazado 177102" d="M87.977,139.682c-3.529.028-7.244-.3-10.728,0a6.452,6.452,0,0,1-3.952-.847L71.18,137a2.212,2.212,0,0,1,0-2.4l4.658-.565,4.8-.989c1.4-1.021,1.791-2.828,1.412-5.222-.632-2.248-1.209-4.562-1.75-6.923,2.642,1.208,5.42.836,8.289-.526.181-.084.366-.174.547-.271-.073,1.045-.152,2.1-.215,3.174-.073,1.31-.124,2.637-.124,3.98a36.461,36.461,0,0,0,.31,4.941c1.569,3.415,2.614,7.13-1.129,7.481" transform="translate(8.741 14.823)" fill="#3a144a"/>
            <path id="Trazado_177103" data-name="Trazado 177103" d="M123.461,59.417a9.232,9.232,0,0,1,2.682.987,8.721,8.721,0,0,1,3.717.447l3.388-1.2c-.418-1.447.276-3.223-.189-4.329l.658-2.4c.207-.718-.57-.9-.853-.311l-.776,1.429-.353-.089-.135-3.1c-.13-.747-1.065-.764-1.083,0l-.14,3.047-.689.053-.857-2.878c-.257-.887-1.232-.623-1.138.071l.472,3.049-.417.235-2.237-2.117c-.693-.618-1.451-.054-.922.564a9.313,9.313,0,0,1,1.929,2.976A2.785,2.785,0,0,1,126,58.488l-2.165-.107c-1.135.071-.976.989-.376,1.036" transform="translate(15.18 6.206)" fill="#3a144a"/>
            <path id="Trazado_177104" data-name="Trazado 177104" d="M138.172,64.44a3.859,3.859,0,0,1-3.7,3.98,9.692,9.692,0,0,1-8.305,1.1l-2.891,2.614-.746-1.389-4.9-9.13,2.117-1.694c3.112-.3,5.409.057,7.5,1.694a5.481,5.481,0,0,1,3.45-.525l-.554-1.169c-.237-1.857,2.586-2.771,3.789-1.62a11.063,11.063,0,0,1,3.314,3.456,7.406,7.406,0,0,1,.92,2.682" transform="translate(14.518 7.133)" fill="#662483"/>
            <g id="Grupo_112296" data-name="Grupo 112296" transform="translate(137.049 68.891)" opacity="0.5" style="mix-blend-mode: multiply;isolation: isolate">
              <g id="Grupo_112295" data-name="Grupo 112295">
                <g id="Grupo_112294" data-name="Grupo 112294" clip-path="url(#clip-path-4)">
                  <path id="Trazado_177105" data-name="Trazado 177105" d="M137.633,64a3.859,3.859,0,0,1-3.7,3.98,9.692,9.692,0,0,1-8.305,1.1L122.739,71.7l-.746-1.389.457-4.822a13.772,13.772,0,0,0,12.71,0l1.553-4.167a7.406,7.406,0,0,1,.92,2.682" transform="translate(-121.993 -61.323)" fill="#662483"/>
                </g>
              </g>
            </g>
            <path id="Trazado_177106" data-name="Trazado 177106" d="M126.534,98.774a17.108,17.108,0,0,1-.708,2.293,4.1,4.1,0,0,1-.308.57c-2.093,3.524-7.9,5.525-13.866,4.555-10.3,1.97-17.1,3.94-25.563,2.17,3.062,3.986,4.171,10.5,3.756,16.421-.17.154.17,7.556,0,7.694A6.972,6.972,0,0,1,86.027,134a7.768,7.768,0,0,1-5.755-1.939c-1.277-5.571-2.986-19.053-3.848-25.117-.308-3.077,3.294-5.863,8.387-8.08,8.511-3.694,19.191-8.049,24.47-7.386.17.015,2.724-.031,2.878,0l.954,2.139,8.665-.816,2.509-.231,1.677-.169.416,4.678Z" transform="translate(9.43 11.282)" fill="#007a96"/>
            <path id="Trazado_177107" data-name="Trazado 177107" d="M129.774,108.7a4.93,4.93,0,0,1-1.693,2.77c-.016.03-.03.046-.062.046a6.215,6.215,0,0,1-1.954,1.093,3.793,3.793,0,0,1-2.71.184c-.092-.554-1.246-8.987-1.354-9.711l-.893-.031-.57-.03-.338-.016c-.016,0-.739-1.815-1.523-3.786-.923-2.323-1.939-4.863-1.939-4.863l.061-.169,5.464-14.036c3.816.154,5.032,3.662,5.971,11,1.677,4.062,2,13.728,1.539,17.544" transform="translate(14.408 9.893)" fill="#007a96"/>
            <path id="Trazado_177108" data-name="Trazado 177108" d="M126.478,89.407c0,2.6-1.877,5.247-4.663,7.08a13.864,13.864,0,0,1-10.726,1.939,9.534,9.534,0,0,1-1.063-.308.514.514,0,0,0-.107-.046,8.4,8.4,0,0,1-1.155-.477c-.184-.108-.354-.216-.523-.324-5.6-3.754-6.187-12.7-8.11-16.051a43.609,43.609,0,0,1-2.678-5.109,11.355,11.355,0,0,1-1.016-3.956,3.82,3.82,0,0,1,1.369-3.216c.508-2.093,3.048-3.294,6.2-4.232.078-.047.154-.078.216-.124,4.124-2.217,8.2-4.186,11.788-3.97l6.356-.923a14.8,14.8,0,0,1,6.418,9.6c.138,8.326-3.54,14.636-2.309,20.115" transform="translate(11.902 7.367)" fill="#662483"/>
            <path id="Trazado_177109" data-name="Trazado 177109" d="M98.658,51.647a5.986,5.986,0,0,1,6.634-5.923c4.5.345,6.166,2.891,6.68,5.923a20.247,20.247,0,0,0,2.829,7.246c1.155,1.765,2.658,1.744,4.2,2.969s-8.953,8-16.615,5.144c-3.7.144-3.648-13.818-3.732-15.359" transform="translate(12.176 5.641)" fill="#662483"/>
            <path id="Trazado_177110" data-name="Trazado 177110" d="M71.79,45.72l.306-1.152c.376-.99,1.318-.99,1.059.21l-1.134,5.535Z" transform="translate(8.86 5.412)" fill="#3a144a"/>
            <path id="Trazado_177111" data-name="Trazado 177111" d="M70.269,56.571c-.34.135-2.222-2.482-2.811-3.949a12.052,12.052,0,0,1-.339-6.507L65.329,41.98c-.329-.753.353-1.318.847-.565l1.576,3.059-.871-4.706c-.329-1.223.659-1.622.965-.706L69.658,44.1l-.565-5.269c-.094-.989.941-1.247,1.223-.283L71.4,44.238l.306-4.047c.047-1.105,1.036-1.035,1.107,0L73,50.4a3.9,3.9,0,0,1-1.176,2.258l2.023,1.6Z" transform="translate(8.052 4.682)" fill="#3a144a"/>
            <path id="Trazado_177112" data-name="Trazado 177112" d="M106.108,76.943c-.881.931-2.366,1.491-4.681,1.418-5.86-.638-14.234-4.619-17.328-9.587-5.522-2.965-9.063-7.053-13.077-11.981l-2.315-2.84c-.7-1.627.752-2.767,2.711-2.909L88.261,62.206c4.206,1.293,7.16,2.349,9.525,4.941,3.738-.728,5.85-.254,7.131,1.2,1.874,2.405,3.2,6.453,1.191,8.593" transform="translate(8.458 6.3)" fill="#662483"/>
            <g id="Grupo_112299" data-name="Grupo 112299" transform="translate(79.215 62.556)" opacity="0.5" style="mix-blend-mode: multiply;isolation: isolate">
              <g id="Grupo_112298" data-name="Grupo 112298">
                <g id="Grupo_112297" data-name="Grupo 112297" clip-path="url(#clip-path-5)">
                  <path id="Trazado_177113" data-name="Trazado 177113" d="M105.868,76.374c-8.909-2.006-16.723-5.027-21.24-11.148-4.472-.949-9.255-4.873-14.116-9.542l.265.536c4.015,4.93,7.555,9.018,13.077,11.981,3.094,4.969,11.468,8.949,17.329,9.587.6,1.239,1.333,2.556,2.147,3.926,1.923,3.355,2.509,12.3,8.08,16.036.03.016,1.708.816,1.708.816l.093.031a38.03,38.03,0,0,1-7.342-22.223" transform="translate(-70.513 -55.684)" fill="#662483"/>
                </g>
              </g>
            </g>
            <g id="Grupo_112302" data-name="Grupo 112302" transform="translate(91.871 104.607)" opacity="0.3" style="mix-blend-mode: multiply;isolation: isolate">
              <g id="Grupo_112301" data-name="Grupo 112301">
                <g id="Grupo_112300" data-name="Grupo 112300" clip-path="url(#clip-path-6)">
                  <path id="Trazado_177114" data-name="Trazado 177114" d="M132.4,109.875c0,.016-.062.046-.062.046l-1.955,1.093a3.79,3.79,0,0,1-2.709.184c-.092-.554-1.246-8.987-1.354-9.711l-.893-.03-.57-.031c-2.093,3.524-7.9,5.525-13.866,4.555-10.3,1.97-17.1,3.94-25.562,2.17,3.062,3.986,4.17,10.5,3.754,16.421-.169.154.17,7.556,0,7.694a6.965,6.965,0,0,1-3.816,1.524c1.477-9.342-.092-18.884-3.586-28.564,10.9,1.016,21.069,1.154,27.825-2.94,6.064-.262,11.358-1.123,13.39-4.663a5.584,5.584,0,0,0,.338-.676,6.474,6.474,0,0,0,2.385-.078,8.221,8.221,0,0,0,4.879-3.756,37.424,37.424,0,0,0,1.8,16.76" transform="translate(-81.778 -93.115)" fill="#662483"/>
                </g>
              </g>
            </g>
          </g>
        </g>
      </g>
    </g>
  </g>
</svg>
