<svg xmlns="http://www.w3.org/2000/svg" xmlns:xlink="http://www.w3.org/1999/xlink" width="941.589" height="476.391" viewBox="0 0 941.589 476.391">
  <defs>
    <clipPath id="clip-path">
      <rect id="Rectángulo_38853" data-name="Rectángulo 38853" width="941.589" height="476.391" fill="none"/>
    </clipPath>
  </defs>
  <g id="Grupo_143645" data-name="Grupo 143645" transform="translate(-4298 8558)">
    <g id="Grupo_143644" data-name="Grupo 143644">
      <g id="Grupo_142923" data-name="Grupo 142923" transform="translate(4298 -8558)">
        <line id="Línea_207" data-name="Línea 207" x2="302.391" transform="translate(97.53 295.067)" fill="none" stroke="#7142c1" stroke-miterlimit="10" stroke-width="2" stroke-dasharray="12 12"/>
        <path id="Trazado_184245" data-name="Trazado 184245" d="M393.293,303.246l-1.364-1.465,7.223-6.713-7.223-6.715,1.364-1.464,8.8,8.179Z" fill="#7142c1"/>
        <g id="Grupo_142920" data-name="Grupo 142920">
          <g id="Grupo_142919" data-name="Grupo 142919" clip-path="url(#clip-path)">
            <path id="Trazado_184246" data-name="Trazado 184246" d="M108.33,161.867h115.2c22.268,0,40.32,17.35,40.32,38.753V390.234c0,21.4-18.052,38.753-40.32,38.753H108.33" fill="none" stroke="#7142c1" stroke-miterlimit="10" stroke-width="2" stroke-dasharray="12 12"/>
            <path id="Trazado_184247" data-name="Trazado 184247" d="M840.227,253.869a2.105,2.105,0,0,1-1.5-.63l-23.28-23.667a2.109,2.109,0,0,1,3.007-2.959l23.28,23.668a2.109,2.109,0,0,1-1.5,3.588" fill="#c1c7d3"/>
            <path id="Trazado_184248" data-name="Trazado 184248" d="M904.275,253.869a2.109,2.109,0,0,1-1.5-3.588l23.28-23.668a2.109,2.109,0,0,1,3.007,2.959l-23.279,23.667a2.109,2.109,0,0,1-1.5.63" fill="#c1c7d3"/>
            <path id="Trazado_184249" data-name="Trazado 184249" d="M816.948,339.273a2.109,2.109,0,0,1-1.5-3.588l23.28-23.668a2.11,2.11,0,0,1,3.008,2.959l-23.28,23.667a2.109,2.109,0,0,1-1.5.63" fill="#c1c7d3"/>
            <path id="Trazado_184250" data-name="Trazado 184250" d="M927.555,339.273a2.106,2.106,0,0,1-1.5-.63l-23.28-23.667a2.11,2.11,0,0,1,3.008-2.959l23.279,23.668a2.109,2.109,0,0,1-1.5,3.588" fill="#c1c7d3"/>
            <path id="Trazado_184251" data-name="Trazado 184251" d="M916.673,282.574a44.431,44.431,0,1,0-44.431,44.442,44.437,44.437,0,0,0,44.431-44.442" fill="#79f5ed"/>
            <path id="Trazado_184252" data-name="Trazado 184252" d="M872.242,238.132a44.7,44.7,0,0,0-5.445.333,44.446,44.446,0,0,1,0,88.219,44.894,44.894,0,0,0,5.445.332,44.442,44.442,0,0,0,0-88.884" fill="#62e8db"/>
            <path id="Trazado_184253" data-name="Trazado 184253" d="M918.782,282.574a46.54,46.54,0,1,0-46.57,46.55h.058a46.6,46.6,0,0,0,46.512-46.55m-61.215,30.442a49.712,49.712,0,0,1-3.111-7.395,83.218,83.218,0,0,0,15.676,1.819v17.251c-4.656-.946-9.055-5.007-12.565-11.675m16.783,11.676V307.44a83.24,83.24,0,0,0,15.678-1.819,49.509,49.509,0,0,1-3.112,7.395c-3.509,6.669-7.909,10.73-12.566,11.676m-2.108-21.444a78.455,78.455,0,0,1-19.138-2.279,79.956,79.956,0,0,1,0-36.792,81.569,81.569,0,0,1,38.277,0,80.029,80.029,0,0,1,0,36.792,78.469,78.469,0,0,1-19.139,2.279m-25.474-22.784H830.149c.97-4.486,5.015-8.728,11.637-12.124a49.724,49.724,0,0,1,6.684-2.8,81.647,81.647,0,0,0-1.7,14.925m0,4.219a81.626,81.626,0,0,0,1.7,14.924,49.4,49.4,0,0,1-6.683-2.8c-6.622-3.395-10.668-7.638-11.637-12.123Zm27.582-44.228c4.657.946,9.057,5.007,12.567,11.676a49.61,49.61,0,0,1,3.111,7.4,83.24,83.24,0,0,0-15.678-1.819Zm-4.218,0v17.251a83.39,83.39,0,0,0-15.676,1.819,49.721,49.721,0,0,1,3.112-7.4c3.509-6.668,7.908-10.729,12.564-11.675m27.585,40.008a81.812,81.812,0,0,0-1.7-14.925,49.732,49.732,0,0,1,6.685,2.8c6.622,3.4,10.666,7.638,11.637,12.124Zm0,4.219h16.619c-.971,4.485-5.015,8.728-11.637,12.123a49.472,49.472,0,0,1-6.685,2.8,81.791,81.791,0,0,0,1.7-14.924m14.975-14.573a35.411,35.411,0,0,0-8.069-5.523,55.943,55.943,0,0,0-9.8-3.844,55.911,55.911,0,0,0-4.175-10.577,35.653,35.653,0,0,0-5.516-7.915,42.512,42.512,0,0,1,27.56,27.859m-53.339-27.859a35.655,35.655,0,0,0-5.517,7.915,55.844,55.844,0,0,0-4.174,10.577,55.913,55.913,0,0,0-9.8,3.844,35.387,35.387,0,0,0-8.07,5.523,42.516,42.516,0,0,1,27.561-27.859m-27.561,52.786a35.452,35.452,0,0,0,8.07,5.524,56.15,56.15,0,0,0,9.8,3.844,55.871,55.871,0,0,0,4.174,10.577,35.688,35.688,0,0,0,5.517,7.915,42.517,42.517,0,0,1-27.561-27.86m53.34,27.86a35.677,35.677,0,0,0,5.516-7.915,55.938,55.938,0,0,0,4.175-10.577,56.18,56.18,0,0,0,9.8-3.844,35.445,35.445,0,0,0,8.069-5.524,42.514,42.514,0,0,1-27.56,27.86" fill="#7cc6c1"/>
            <path id="Trazado_184254" data-name="Trazado 184254" d="M819.553,222.048a8.314,8.314,0,1,0-8.314,8.316,8.315,8.315,0,0,0,8.314-8.316" fill="#e01650"/>
            <path id="Trazado_184255" data-name="Trazado 184255" d="M941.589,222.048a8.314,8.314,0,1,0-8.314,8.316,8.315,8.315,0,0,0,8.314-8.316" fill="#e01650"/>
            <path id="Trazado_184256" data-name="Trazado 184256" d="M819.553,343.483a8.314,8.314,0,1,0-8.314,8.316,8.316,8.316,0,0,0,8.314-8.316" fill="#e01650"/>
            <path id="Trazado_184257" data-name="Trazado 184257" d="M819.553,282.628a8.314,8.314,0,1,0-8.314,8.316,8.315,8.315,0,0,0,8.314-8.316" fill="#d2b7ff"/>
            <path id="Trazado_184258" data-name="Trazado 184258" d="M941.589,282.628a8.314,8.314,0,1,0-8.314,8.316,8.315,8.315,0,0,0,8.314-8.316" fill="#d2b7ff"/>
            <path id="Trazado_184259" data-name="Trazado 184259" d="M880.556,221.6a8.315,8.315,0,1,0-8.314,8.317,8.316,8.316,0,0,0,8.314-8.317" fill="#d2b7ff"/>
            <path id="Trazado_184260" data-name="Trazado 184260" d="M880.556,343.661a8.315,8.315,0,1,0-8.314,8.316,8.316,8.316,0,0,0,8.314-8.316" fill="#d2b7ff"/>
            <path id="Trazado_184261" data-name="Trazado 184261" d="M941.589,343.483a8.314,8.314,0,1,0-8.314,8.316,8.316,8.316,0,0,0,8.314-8.316" fill="#e01650"/>
            <path id="Trazado_184262" data-name="Trazado 184262" d="M819.554,222.048a8.316,8.316,0,0,1-8.316,8.315,8.23,8.23,0,0,1-2.671-.441,8.315,8.315,0,0,0,0-15.749,8.23,8.23,0,0,1,2.671-.441,8.316,8.316,0,0,1,8.316,8.316" fill="#bc1445"/>
            <path id="Trazado_184263" data-name="Trazado 184263" d="M941.589,222.048a8.314,8.314,0,0,1-10.986,7.874,8.316,8.316,0,0,0,0-15.749,8.314,8.314,0,0,1,10.986,7.875" fill="#bc1445"/>
            <path id="Trazado_184264" data-name="Trazado 184264" d="M819.554,343.483a8.316,8.316,0,0,1-8.316,8.316,8.231,8.231,0,0,1-2.671-.441,8.315,8.315,0,0,0,0-15.749,8.23,8.23,0,0,1,2.671-.442,8.316,8.316,0,0,1,8.316,8.316" fill="#bc1445"/>
            <path id="Trazado_184265" data-name="Trazado 184265" d="M819.554,282.628a8.315,8.315,0,0,1-8.316,8.315,8.231,8.231,0,0,1-2.671-.441,8.315,8.315,0,0,0,0-15.749,8.231,8.231,0,0,1,2.671-.441,8.316,8.316,0,0,1,8.316,8.316" fill="#a7f"/>
            <path id="Trazado_184266" data-name="Trazado 184266" d="M941.589,282.628A8.314,8.314,0,0,1,930.6,290.5a8.316,8.316,0,0,0,0-15.749,8.314,8.314,0,0,1,10.986,7.875" fill="#a7f"/>
            <path id="Trazado_184267" data-name="Trazado 184267" d="M880.556,221.6a8.316,8.316,0,0,1-10.985,7.878,8.319,8.319,0,0,0,0-15.753,8.316,8.316,0,0,1,10.985,7.875" fill="#a7f"/>
            <path id="Trazado_184268" data-name="Trazado 184268" d="M880.556,343.661a8.313,8.313,0,0,1-10.985,7.874,8.316,8.316,0,0,0,0-15.749,8.313,8.313,0,0,1,10.985,7.875" fill="#a7f"/>
            <path id="Trazado_184269" data-name="Trazado 184269" d="M941.589,343.483a8.314,8.314,0,0,1-10.986,7.875,8.316,8.316,0,0,0,0-15.749,8.312,8.312,0,0,1,10.986,7.874" fill="#bc1445"/>
            <path id="Trazado_184270" data-name="Trazado 184270" d="M872.242,236.023a46.367,46.367,0,0,0-14.252,2.235q1.665-.124,3.362-.126a44.246,44.246,0,0,1,28.219,10.113,33.8,33.8,0,0,0-4.439-5.994,42.518,42.518,0,0,1,27.56,27.859,35.4,35.4,0,0,0-8.07-5.522q-1.617-.831-3.359-1.563a44.23,44.23,0,0,1,2.351,5.8c6.078,3.31,9.8,7.364,10.721,11.638h-8.6c.032.7.05,1.4.05,2.11s-.018,1.409-.05,2.109h8.6c-.924,4.274-4.643,8.327-10.721,11.637a44.241,44.241,0,0,1-2.351,5.8c1.159-.489,2.282-1.01,3.359-1.562a35.431,35.431,0,0,0,8.07-5.524,42.52,42.52,0,0,1-27.56,27.86,33.8,33.8,0,0,0,4.439-5.994,44.251,44.251,0,0,1-28.219,10.112q-1.7,0-3.361-.126a46.328,46.328,0,0,0,14.221,2.235h.058a46.551,46.551,0,0,0-.028-93.1" fill="#5bb8b2"/>
            <path id="Trazado_184271" data-name="Trazado 184271" d="M242.132,122.015a5.591,5.591,0,0,0-5.512-4.763H202.3a5.589,5.589,0,0,0-5.512,4.763l22.673,14.672Z" fill="#a7f"/>
            <path id="Trazado_184272" data-name="Trazado 184272" d="M220.282,139.768a1.519,1.519,0,0,1-1.648,0L196.7,125.576v22.493a5.6,5.6,0,0,0,5.6,5.6H236.62a5.6,5.6,0,0,0,5.6-5.6v-22.5Z" fill="#a7f"/>
            <path id="Trazado_184273" data-name="Trazado 184273" d="M177.194,122.015a5.591,5.591,0,0,0-5.512-4.763H137.359a5.589,5.589,0,0,0-5.512,4.763l22.673,14.672Z" fill="#a7f"/>
            <path id="Trazado_184274" data-name="Trazado 184274" d="M155.344,139.768a1.519,1.519,0,0,1-1.648,0l-21.934-14.192v22.493a5.6,5.6,0,0,0,5.6,5.6h34.323a5.6,5.6,0,0,0,5.6-5.6v-22.5Z" fill="#a7f"/>
            <path id="Trazado_184275" data-name="Trazado 184275" d="M242.132,251.89a5.591,5.591,0,0,0-5.512-4.763H202.3a5.589,5.589,0,0,0-5.512,4.763l22.673,14.672Z" fill="#a7f"/>
            <path id="Trazado_184276" data-name="Trazado 184276" d="M220.282,269.643a1.519,1.519,0,0,1-1.648,0L196.7,255.452v22.493a5.6,5.6,0,0,0,5.6,5.6H236.62a5.6,5.6,0,0,0,5.6-5.6v-22.5Z" fill="#a7f"/>
            <path id="Trazado_184277" data-name="Trazado 184277" d="M177.194,251.89a5.591,5.591,0,0,0-5.512-4.763H137.359a5.589,5.589,0,0,0-5.512,4.763l22.673,14.672Z" fill="#a7f"/>
            <path id="Trazado_184278" data-name="Trazado 184278" d="M155.344,269.643a1.519,1.519,0,0,1-1.648,0l-21.934-14.191v22.493a5.6,5.6,0,0,0,5.6,5.6h34.323a5.6,5.6,0,0,0,5.6-5.6v-22.5Z" fill="#a7f"/>
            <path id="Trazado_184279" data-name="Trazado 184279" d="M242.132,384.8a5.591,5.591,0,0,0-5.512-4.763H202.3a5.589,5.589,0,0,0-5.512,4.763l22.673,14.672Z" fill="#a7f"/>
            <path id="Trazado_184280" data-name="Trazado 184280" d="M220.282,402.554a1.519,1.519,0,0,1-1.648,0L196.7,388.362v22.493a5.6,5.6,0,0,0,5.6,5.6H236.62a5.6,5.6,0,0,0,5.6-5.6v-22.5Z" fill="#a7f"/>
            <path id="Trazado_184281" data-name="Trazado 184281" d="M177.194,384.8a5.591,5.591,0,0,0-5.512-4.763H137.359a5.589,5.589,0,0,0-5.512,4.763l22.673,14.672Z" fill="#a7f"/>
            <path id="Trazado_184282" data-name="Trazado 184282" d="M155.344,402.554a1.519,1.519,0,0,1-1.648,0l-21.934-14.192v22.493a5.6,5.6,0,0,0,5.6,5.6h34.323a5.6,5.6,0,0,0,5.6-5.6v-22.5Z" fill="#a7f"/>
            <path id="Trazado_184283" data-name="Trazado 184283" d="M114.876,111.646H5.858a4.039,4.039,0,0,0-4.038,4.038v64.6H118.914v-64.6a4.038,4.038,0,0,0-4.038-4.038m-2.019,18.17v44.415H7.877V117.7h104.98Z" fill="#464655"/>
            <path id="Trazado_184284" data-name="Trazado 184284" d="M7.877,174.231h104.98V129.816H7.877ZM90.65,139.91v-2.019a2.019,2.019,0,0,1,2.019-2.019h12.114a2.019,2.019,0,0,1,2.018,2.019v28.264a2.019,2.019,0,0,1-2.018,2.019H92.669a2.019,2.019,0,0,1-2.019-2.019Zm-22.207,0v-2.019a2.019,2.019,0,0,1,2.019-2.019H82.575a2.019,2.019,0,0,1,2.019,2.019v28.264a2.019,2.019,0,0,1-2.019,2.019H70.462a2.019,2.019,0,0,1-2.019-2.019Zm-22.207,0v-2.019a2.019,2.019,0,0,1,2.018-2.019H60.368a2.019,2.019,0,0,1,2.018,2.019v28.264a2.019,2.019,0,0,1-2.018,2.019H48.254a2.019,2.019,0,0,1-2.019-2.019V139.91Zm-32.3,0v-2.019a2.019,2.019,0,0,1,2.019-2.019H38.16a2.019,2.019,0,0,1,2.019,2.019v28.264a2.019,2.019,0,0,1-2.019,2.019H15.953a2.019,2.019,0,0,1-2.019-2.019Z" fill="#fff"/>
            <path id="Trazado_184285" data-name="Trazado 184285" d="M1.82,188.363A4.038,4.038,0,0,0,5.858,192.4H114.876a4.037,4.037,0,0,0,4.037-4.038v-8.075H1.82Zm58.547-5.047a3.028,3.028,0,1,1-3.028,3.028,3.028,3.028,0,0,1,3.028-3.028" fill="#bec8dc"/>
            <path id="Trazado_184286" data-name="Trazado 184286" d="M42.45,206.533H78.285l-1.262-10.094H43.712Z" fill="#afbbd0"/>
            <path id="Trazado_184287" data-name="Trazado 184287" d="M42.2,206.533a2.019,2.019,0,1,0,0,4.038H78.537a2.019,2.019,0,0,0,0-4.038H42.2Z" fill="#bec8dc"/>
            <path id="Trazado_184288" data-name="Trazado 184288" d="M43.712,196.438H77.023l-.5-4.038h-32.3Z" fill="#96a5b9"/>
            <path id="Trazado_184289" data-name="Trazado 184289" d="M7.877,129.816h104.98V117.7H7.877Zm90.849-8.075H106.8a2.019,2.019,0,0,1,0,4.038H98.726a2.019,2.019,0,0,1,0-4.038m-16.151,0H90.65a2.019,2.019,0,0,1,0,4.038H82.575a2.019,2.019,0,0,1,0-4.038m-16.151,0H74.5a2.019,2.019,0,0,1,0,4.038H66.424a2.019,2.019,0,1,1,0-4.038m-16.151,0h8.076a2.019,2.019,0,1,1,0,4.038H50.273a2.019,2.019,0,0,1,0-4.038m-16.151,0H42.2a2.019,2.019,0,0,1,0,4.038H34.122a2.019,2.019,0,1,1,0-4.038m-20.188,0H26.047a2.019,2.019,0,0,1,0,4.038H13.934a2.019,2.019,0,0,1,0-4.038" fill="#ff6469"/>
            <path id="Trazado_184290" data-name="Trazado 184290" d="M13.934,125.778H26.047a2.019,2.019,0,0,0,0-4.038H13.934a2.019,2.019,0,0,0,0,4.038" fill="#ffdc69"/>
            <path id="Trazado_184291" data-name="Trazado 184291" d="M34.122,125.778H42.2a2.019,2.019,0,1,0,0-4.038H34.122a2.019,2.019,0,1,0,0,4.038" fill="#d2555f"/>
            <path id="Trazado_184292" data-name="Trazado 184292" d="M50.273,125.778h8.075a2.019,2.019,0,1,0,0-4.038H50.273a2.019,2.019,0,0,0,0,4.038" fill="#d2555f"/>
            <path id="Trazado_184293" data-name="Trazado 184293" d="M66.424,125.778H74.5a2.019,2.019,0,0,0,0-4.038H66.424a2.019,2.019,0,1,0,0,4.038" fill="#d2555f"/>
            <path id="Trazado_184294" data-name="Trazado 184294" d="M82.575,125.778H90.65a2.019,2.019,0,0,0,0-4.038H82.575a2.019,2.019,0,0,0,0,4.038" fill="#d2555f"/>
            <path id="Trazado_184295" data-name="Trazado 184295" d="M98.726,125.778H106.8a2.019,2.019,0,0,0,0-4.038H98.726a2.019,2.019,0,0,0,0,4.038" fill="#d2555f"/>
            <path id="Trazado_184296" data-name="Trazado 184296" d="M15.953,168.174H38.16a2.019,2.019,0,0,0,2.019-2.019V139.91a2.019,2.019,0,0,1-2.019,2.019H15.953a2.019,2.019,0,0,1-2.019-2.019v26.245a2.019,2.019,0,0,0,2.019,2.019" fill="#dee3ed"/>
            <path id="Trazado_184297" data-name="Trazado 184297" d="M48.254,168.174H60.367a2.019,2.019,0,0,0,2.019-2.019V139.91a2.019,2.019,0,0,1-2.019,2.019H48.254a2.019,2.019,0,0,1-2.019-2.019v26.245a2.019,2.019,0,0,0,2.019,2.019" fill="#dee3ed"/>
            <path id="Trazado_184298" data-name="Trazado 184298" d="M70.462,168.174H82.575a2.019,2.019,0,0,0,2.019-2.019V139.91a2.019,2.019,0,0,1-2.019,2.019H70.462a2.019,2.019,0,0,1-2.019-2.019v26.245a2.019,2.019,0,0,0,2.019,2.019" fill="#dee3ed"/>
            <path id="Trazado_184299" data-name="Trazado 184299" d="M92.669,168.174h12.113a2.019,2.019,0,0,0,2.019-2.019V139.91a2.019,2.019,0,0,1-2.019,2.019H92.669a2.019,2.019,0,0,1-2.019-2.019v26.245a2.019,2.019,0,0,0,2.019,2.019" fill="#dee3ed"/>
            <path id="Trazado_184300" data-name="Trazado 184300" d="M15.953,141.929H38.16a2.019,2.019,0,0,0,2.019-2.019v-2.019a2.019,2.019,0,0,0-2.019-2.019H15.953a2.019,2.019,0,0,0-2.019,2.019v2.019a2.019,2.019,0,0,0,2.019,2.019" fill="#ffdc69"/>
            <path id="Trazado_184301" data-name="Trazado 184301" d="M48.254,141.929H60.367a2.019,2.019,0,0,0,2.019-2.019v-2.019a2.019,2.019,0,0,0-2.019-2.019H48.254a2.019,2.019,0,0,0-2.019,2.019v2.019a2.019,2.019,0,0,0,2.019,2.019" fill="#b4e173"/>
            <path id="Trazado_184302" data-name="Trazado 184302" d="M70.462,141.929H82.575a2.019,2.019,0,0,0,2.019-2.019v-2.019a2.019,2.019,0,0,0-2.019-2.019H70.462a2.019,2.019,0,0,0-2.019,2.019v2.019a2.019,2.019,0,0,0,2.019,2.019" fill="#ff969b"/>
            <path id="Trazado_184303" data-name="Trazado 184303" d="M92.669,141.929h12.113a2.019,2.019,0,0,0,2.019-2.019v-2.019a2.019,2.019,0,0,0-2.019-2.019H92.669a2.019,2.019,0,0,0-2.019,2.019v2.019a2.019,2.019,0,0,0,2.019,2.019" fill="#a0dcf0"/>
            <path id="Trazado_184304" data-name="Trazado 184304" d="M60.367,183.316a3.028,3.028,0,1,1-3.028,3.028,3.028,3.028,0,0,1,3.028-3.028" fill="#96a5b9"/>
            <path id="Trazado_184305" data-name="Trazado 184305" d="M113.056,111.646H4.038A4.038,4.038,0,0,0,0,115.684v64.6H117.094v-64.6a4.038,4.038,0,0,0-4.038-4.038m-2.019,18.17v44.415H6.057V117.7h104.98Z" fill="#464655"/>
            <path id="Trazado_184306" data-name="Trazado 184306" d="M6.056,174.231h104.98V129.816H6.056ZM88.829,139.91v-2.019a2.019,2.019,0,0,1,2.019-2.019h12.114a2.019,2.019,0,0,1,2.018,2.019v28.264a2.019,2.019,0,0,1-2.018,2.019H90.848a2.019,2.019,0,0,1-2.019-2.019Zm-22.207,0v-2.019a2.019,2.019,0,0,1,2.019-2.019H80.754a2.019,2.019,0,0,1,2.019,2.019v28.264a2.019,2.019,0,0,1-2.019,2.019H68.641a2.019,2.019,0,0,1-2.019-2.019Zm-22.207,0v-2.019a2.019,2.019,0,0,1,2.019-2.019H58.547a2.019,2.019,0,0,1,2.018,2.019v28.264a2.019,2.019,0,0,1-2.018,2.019H46.433a2.019,2.019,0,0,1-2.019-2.019V139.91Zm-32.3,0v-2.019a2.019,2.019,0,0,1,2.019-2.019H36.339a2.019,2.019,0,0,1,2.019,2.019v28.264a2.019,2.019,0,0,1-2.019,2.019H14.132a2.019,2.019,0,0,1-2.019-2.019Z" fill="#fff"/>
            <path id="Trazado_184307" data-name="Trazado 184307" d="M0,188.363A4.038,4.038,0,0,0,4.038,192.4H113.056a4.037,4.037,0,0,0,4.037-4.038v-8.075H0Zm58.547-5.047a3.028,3.028,0,1,1-3.028,3.028,3.028,3.028,0,0,1,3.028-3.028" fill="#bec8dc"/>
            <path id="Trazado_184308" data-name="Trazado 184308" d="M40.629,206.533H76.464L75.2,196.439H41.891Z" fill="#afbbd0"/>
            <path id="Trazado_184309" data-name="Trazado 184309" d="M40.377,206.533a2.019,2.019,0,1,0,0,4.038H76.716a2.019,2.019,0,0,0,0-4.038H40.377Z" fill="#bec8dc"/>
            <path id="Trazado_184310" data-name="Trazado 184310" d="M41.891,196.438H75.2l-.5-4.038H42.4Z" fill="#96a5b9"/>
            <path id="Trazado_184311" data-name="Trazado 184311" d="M6.056,129.816h104.98V117.7H6.056ZM96.9,121.741h8.075a2.019,2.019,0,0,1,0,4.038H96.9a2.019,2.019,0,0,1,0-4.038m-16.151,0h8.075a2.019,2.019,0,0,1,0,4.038H80.754a2.019,2.019,0,0,1,0-4.038m-16.151,0h8.075a2.019,2.019,0,0,1,0,4.038H64.6a2.019,2.019,0,0,1,0-4.038m-16.151,0h8.076a2.019,2.019,0,1,1,0,4.038H48.452a2.019,2.019,0,1,1,0-4.038m-16.151,0h8.076a2.019,2.019,0,1,1,0,4.038H32.3a2.019,2.019,0,0,1,0-4.038m-20.188,0H24.226a2.019,2.019,0,1,1,0,4.038H12.113a2.019,2.019,0,0,1,0-4.038" fill="#d2b7ff"/>
            <path id="Trazado_184312" data-name="Trazado 184312" d="M12.113,125.778H24.226a2.019,2.019,0,1,0,0-4.038H12.113a2.019,2.019,0,0,0,0,4.038" fill="#8f52f5"/>
            <path id="Trazado_184313" data-name="Trazado 184313" d="M32.3,125.778h8.075a2.019,2.019,0,1,0,0-4.038H32.3a2.019,2.019,0,0,0,0,4.038" fill="#5c379b"/>
            <path id="Trazado_184314" data-name="Trazado 184314" d="M48.452,125.778h8.075a2.019,2.019,0,1,0,0-4.038H48.452a2.019,2.019,0,1,0,0,4.038" fill="#5c379b"/>
            <path id="Trazado_184315" data-name="Trazado 184315" d="M64.6,125.778h8.075a2.019,2.019,0,0,0,0-4.038H64.6a2.019,2.019,0,0,0,0,4.038" fill="#5c379b"/>
            <path id="Trazado_184316" data-name="Trazado 184316" d="M80.754,125.778h8.075a2.019,2.019,0,0,0,0-4.038H80.754a2.019,2.019,0,0,0,0,4.038" fill="#5c379b"/>
            <path id="Trazado_184317" data-name="Trazado 184317" d="M96.9,125.778h8.075a2.019,2.019,0,0,0,0-4.038H96.9a2.019,2.019,0,0,0,0,4.038" fill="#5c379b"/>
            <path id="Trazado_184318" data-name="Trazado 184318" d="M14.132,168.174H36.339a2.019,2.019,0,0,0,2.019-2.019V139.91a2.019,2.019,0,0,1-2.019,2.019H14.132a2.019,2.019,0,0,1-2.019-2.019v26.245a2.019,2.019,0,0,0,2.019,2.019" fill="#dee3ed"/>
            <path id="Trazado_184319" data-name="Trazado 184319" d="M46.433,168.174H58.546a2.019,2.019,0,0,0,2.019-2.019V139.91a2.019,2.019,0,0,1-2.019,2.019H46.433a2.019,2.019,0,0,1-2.019-2.019v26.245a2.019,2.019,0,0,0,2.019,2.019" fill="#dee3ed"/>
            <path id="Trazado_184320" data-name="Trazado 184320" d="M68.641,168.174H80.754a2.019,2.019,0,0,0,2.019-2.019V139.91a2.019,2.019,0,0,1-2.019,2.019H68.641a2.019,2.019,0,0,1-2.019-2.019v26.245a2.019,2.019,0,0,0,2.019,2.019" fill="#dee3ed"/>
            <path id="Trazado_184321" data-name="Trazado 184321" d="M90.848,168.174h12.113a2.019,2.019,0,0,0,2.019-2.019V139.91a2.019,2.019,0,0,1-2.019,2.019H90.848a2.019,2.019,0,0,1-2.019-2.019v26.245a2.019,2.019,0,0,0,2.019,2.019" fill="#dee3ed"/>
            <path id="Trazado_184322" data-name="Trazado 184322" d="M14.132,141.929H36.339a2.019,2.019,0,0,0,2.019-2.019v-2.019a2.019,2.019,0,0,0-2.019-2.019H14.132a2.019,2.019,0,0,0-2.019,2.019v2.019a2.019,2.019,0,0,0,2.019,2.019" fill="#ff5082"/>
            <path id="Trazado_184323" data-name="Trazado 184323" d="M46.433,141.929H58.546a2.019,2.019,0,0,0,2.019-2.019v-2.019a2.019,2.019,0,0,0-2.019-2.019H46.433a2.019,2.019,0,0,0-2.019,2.019v2.019a2.019,2.019,0,0,0,2.019,2.019" fill="#ff5082"/>
            <path id="Trazado_184324" data-name="Trazado 184324" d="M68.641,141.929H80.754a2.019,2.019,0,0,0,2.019-2.019v-2.019a2.019,2.019,0,0,0-2.019-2.019H68.641a2.019,2.019,0,0,0-2.019,2.019v2.019a2.019,2.019,0,0,0,2.019,2.019" fill="#ff5082"/>
            <path id="Trazado_184325" data-name="Trazado 184325" d="M90.848,141.929h12.113a2.019,2.019,0,0,0,2.019-2.019v-2.019a2.019,2.019,0,0,0-2.019-2.019H90.848a2.019,2.019,0,0,0-2.019,2.019v2.019a2.019,2.019,0,0,0,2.019,2.019" fill="#ff5082"/>
            <path id="Trazado_184326" data-name="Trazado 184326" d="M58.547,183.316a3.028,3.028,0,1,1-3.028,3.028,3.028,3.028,0,0,1,3.028-3.028" fill="#96a5b9"/>
            <path id="Trazado_184327" data-name="Trazado 184327" d="M113.056,240.308H4.038A4.038,4.038,0,0,0,0,244.346v64.6H117.094v-64.6a4.038,4.038,0,0,0-4.038-4.038m-2.019,18.17v44.415H6.057V246.365h104.98Z" fill="#464655"/>
            <path id="Trazado_184328" data-name="Trazado 184328" d="M6.056,302.892h104.98V258.477H6.056Zm82.773-34.32v-2.019a2.019,2.019,0,0,1,2.019-2.019h12.114a2.019,2.019,0,0,1,2.018,2.019v28.264a2.019,2.019,0,0,1-2.018,2.019H90.848a2.019,2.019,0,0,1-2.019-2.019Zm-22.207,0v-2.019a2.019,2.019,0,0,1,2.019-2.019H80.754a2.019,2.019,0,0,1,2.019,2.019v28.264a2.019,2.019,0,0,1-2.019,2.019H68.641a2.019,2.019,0,0,1-2.019-2.019Zm-22.207,0v-2.019a2.019,2.019,0,0,1,2.019-2.019H58.547a2.019,2.019,0,0,1,2.018,2.019v28.264a2.019,2.019,0,0,1-2.018,2.019H46.433a2.019,2.019,0,0,1-2.019-2.019V268.572Zm-32.3,0v-2.019a2.019,2.019,0,0,1,2.019-2.019H36.339a2.019,2.019,0,0,1,2.019,2.019v28.264a2.019,2.019,0,0,1-2.019,2.019H14.132a2.019,2.019,0,0,1-2.019-2.019Z" fill="#fff"/>
            <path id="Trazado_184329" data-name="Trazado 184329" d="M0,317.025a4.038,4.038,0,0,0,4.038,4.038H113.056a4.037,4.037,0,0,0,4.037-4.038V308.95H0Zm58.547-5.047a3.028,3.028,0,1,1-3.028,3.028,3.028,3.028,0,0,1,3.028-3.028" fill="#bec8dc"/>
            <path id="Trazado_184330" data-name="Trazado 184330" d="M40.629,335.195H76.464L75.2,325.1H41.891Z" fill="#afbbd0"/>
            <path id="Trazado_184331" data-name="Trazado 184331" d="M40.377,335.2a2.019,2.019,0,1,0,0,4.038H76.716a2.019,2.019,0,1,0,0-4.038H40.377Z" fill="#bec8dc"/>
            <path id="Trazado_184332" data-name="Trazado 184332" d="M41.891,325.1H75.2l-.5-4.038H42.4Z" fill="#96a5b9"/>
            <path id="Trazado_184333" data-name="Trazado 184333" d="M6.056,258.478h104.98V246.365H6.056ZM96.9,250.4h8.075a2.019,2.019,0,0,1,0,4.038H96.9a2.019,2.019,0,0,1,0-4.038m-16.151,0h8.075a2.019,2.019,0,0,1,0,4.038H80.754a2.019,2.019,0,0,1,0-4.038m-16.151,0h8.075a2.019,2.019,0,0,1,0,4.038H64.6a2.019,2.019,0,0,1,0-4.038m-16.151,0h8.076a2.019,2.019,0,1,1,0,4.038H48.452a2.019,2.019,0,1,1,0-4.038m-16.151,0h8.076a2.019,2.019,0,1,1,0,4.038H32.3a2.019,2.019,0,1,1,0-4.038m-20.188,0H24.226a2.019,2.019,0,1,1,0,4.038H12.113a2.019,2.019,0,1,1,0-4.038" fill="#d2b7ff"/>
            <path id="Trazado_184334" data-name="Trazado 184334" d="M12.113,254.44H24.226a2.019,2.019,0,0,0,0-4.038H12.113a2.019,2.019,0,0,0,0,4.038" fill="#8f52f5"/>
            <path id="Trazado_184335" data-name="Trazado 184335" d="M32.3,254.44h8.075a2.019,2.019,0,0,0,0-4.038H32.3a2.019,2.019,0,0,0,0,4.038" fill="#5c379b"/>
            <path id="Trazado_184336" data-name="Trazado 184336" d="M48.452,254.44h8.075a2.019,2.019,0,0,0,0-4.038H48.452a2.019,2.019,0,0,0,0,4.038" fill="#5c379b"/>
            <path id="Trazado_184337" data-name="Trazado 184337" d="M64.6,254.44h8.075a2.019,2.019,0,0,0,0-4.038H64.6a2.019,2.019,0,0,0,0,4.038" fill="#5c379b"/>
            <path id="Trazado_184338" data-name="Trazado 184338" d="M80.754,254.44h8.075a2.019,2.019,0,0,0,0-4.038H80.754a2.019,2.019,0,0,0,0,4.038" fill="#5c379b"/>
            <path id="Trazado_184339" data-name="Trazado 184339" d="M96.9,254.44h8.075a2.019,2.019,0,0,0,0-4.038H96.9a2.019,2.019,0,0,0,0,4.038" fill="#5c379b"/>
            <path id="Trazado_184340" data-name="Trazado 184340" d="M14.132,296.836H36.339a2.019,2.019,0,0,0,2.019-2.019V268.572a2.019,2.019,0,0,1-2.019,2.019H14.132a2.019,2.019,0,0,1-2.019-2.019v26.245a2.019,2.019,0,0,0,2.019,2.019" fill="#dee3ed"/>
            <path id="Trazado_184341" data-name="Trazado 184341" d="M46.433,296.836H58.546a2.019,2.019,0,0,0,2.019-2.019V268.572a2.019,2.019,0,0,1-2.019,2.019H46.433a2.019,2.019,0,0,1-2.019-2.019v26.245a2.019,2.019,0,0,0,2.019,2.019" fill="#dee3ed"/>
            <path id="Trazado_184342" data-name="Trazado 184342" d="M68.641,296.836H80.754a2.019,2.019,0,0,0,2.019-2.019V268.572a2.019,2.019,0,0,1-2.019,2.019H68.641a2.019,2.019,0,0,1-2.019-2.019v26.245a2.019,2.019,0,0,0,2.019,2.019" fill="#dee3ed"/>
            <path id="Trazado_184343" data-name="Trazado 184343" d="M90.848,296.836h12.113a2.019,2.019,0,0,0,2.019-2.019V268.572a2.019,2.019,0,0,1-2.019,2.019H90.848a2.019,2.019,0,0,1-2.019-2.019v26.245a2.019,2.019,0,0,0,2.019,2.019" fill="#dee3ed"/>
            <path id="Trazado_184344" data-name="Trazado 184344" d="M14.132,270.591H36.339a2.019,2.019,0,0,0,2.019-2.019v-2.019a2.019,2.019,0,0,0-2.019-2.019H14.132a2.019,2.019,0,0,0-2.019,2.019v2.019a2.019,2.019,0,0,0,2.019,2.019" fill="#ff5082"/>
            <path id="Trazado_184345" data-name="Trazado 184345" d="M46.433,270.591H58.546a2.019,2.019,0,0,0,2.019-2.019v-2.019a2.019,2.019,0,0,0-2.019-2.019H46.433a2.019,2.019,0,0,0-2.019,2.019v2.019a2.019,2.019,0,0,0,2.019,2.019" fill="#ff5082"/>
            <path id="Trazado_184346" data-name="Trazado 184346" d="M68.641,270.591H80.754a2.019,2.019,0,0,0,2.019-2.019v-2.019a2.019,2.019,0,0,0-2.019-2.019H68.641a2.019,2.019,0,0,0-2.019,2.019v2.019a2.019,2.019,0,0,0,2.019,2.019" fill="#ff5082"/>
            <path id="Trazado_184347" data-name="Trazado 184347" d="M90.848,270.591h12.113a2.019,2.019,0,0,0,2.019-2.019v-2.019a2.019,2.019,0,0,0-2.019-2.019H90.848a2.019,2.019,0,0,0-2.019,2.019v2.019a2.019,2.019,0,0,0,2.019,2.019" fill="#ff5082"/>
            <path id="Trazado_184348" data-name="Trazado 184348" d="M58.547,311.978a3.028,3.028,0,1,1-3.028,3.028,3.028,3.028,0,0,1,3.028-3.028" fill="#96a5b9"/>
            <path id="Trazado_184349" data-name="Trazado 184349" d="M113.056,377.466H4.038A4.038,4.038,0,0,0,0,381.5v64.6H117.094V381.5a4.038,4.038,0,0,0-4.038-4.038m-2.019,18.17v44.415H6.057V383.523h104.98Z" fill="#464655"/>
            <path id="Trazado_184350" data-name="Trazado 184350" d="M6.056,440.052h104.98V395.637H6.056Zm82.773-34.321v-2.019a2.019,2.019,0,0,1,2.019-2.019h12.114a2.019,2.019,0,0,1,2.018,2.019v28.264a2.019,2.019,0,0,1-2.018,2.019H90.848a2.019,2.019,0,0,1-2.019-2.019Zm-22.207,0v-2.019a2.019,2.019,0,0,1,2.019-2.019H80.754a2.019,2.019,0,0,1,2.019,2.019v28.264a2.019,2.019,0,0,1-2.019,2.019H68.641a2.019,2.019,0,0,1-2.019-2.019Zm-22.207,0v-2.019a2.019,2.019,0,0,1,2.019-2.019H58.547a2.019,2.019,0,0,1,2.018,2.019v28.264a2.019,2.019,0,0,1-2.018,2.019H46.433a2.019,2.019,0,0,1-2.019-2.019V405.731Zm-32.3,0v-2.019a2.019,2.019,0,0,1,2.019-2.019H36.339a2.019,2.019,0,0,1,2.019,2.019v28.264a2.019,2.019,0,0,1-2.019,2.019H14.132a2.019,2.019,0,0,1-2.019-2.019Z" fill="#fff"/>
            <path id="Trazado_184351" data-name="Trazado 184351" d="M0,454.183a4.038,4.038,0,0,0,4.038,4.038H113.056a4.037,4.037,0,0,0,4.037-4.038v-8.075H0Zm58.547-5.047a3.028,3.028,0,1,1-3.028,3.028,3.028,3.028,0,0,1,3.028-3.028" fill="#bec8dc"/>
            <path id="Trazado_184352" data-name="Trazado 184352" d="M40.629,472.353H76.464L75.2,462.259H41.891Z" fill="#afbbd0"/>
            <path id="Trazado_184353" data-name="Trazado 184353" d="M40.377,472.353a2.019,2.019,0,1,0,0,4.038H76.716a2.019,2.019,0,1,0,0-4.038H40.377Z" fill="#bec8dc"/>
            <path id="Trazado_184354" data-name="Trazado 184354" d="M41.891,462.259H75.2l-.5-4.038H42.4Z" fill="#96a5b9"/>
            <path id="Trazado_184355" data-name="Trazado 184355" d="M6.056,395.636h104.98V383.523H6.056ZM96.9,387.561h8.075a2.019,2.019,0,1,1,0,4.038H96.9a2.019,2.019,0,1,1,0-4.038m-16.151,0h8.075a2.019,2.019,0,1,1,0,4.038H80.754a2.019,2.019,0,1,1,0-4.038m-16.151,0h8.075a2.019,2.019,0,1,1,0,4.038H64.6a2.019,2.019,0,1,1,0-4.038m-16.151,0h8.076a2.019,2.019,0,1,1,0,4.038H48.452a2.019,2.019,0,1,1,0-4.038m-16.151,0h8.076a2.019,2.019,0,1,1,0,4.038H32.3a2.019,2.019,0,1,1,0-4.038m-20.188,0H24.226a2.019,2.019,0,1,1,0,4.038H12.113a2.019,2.019,0,1,1,0-4.038" fill="#d2b7ff"/>
            <path id="Trazado_184356" data-name="Trazado 184356" d="M12.113,391.6H24.226a2.019,2.019,0,1,0,0-4.038H12.113a2.019,2.019,0,1,0,0,4.038" fill="#8f52f5"/>
            <path id="Trazado_184357" data-name="Trazado 184357" d="M32.3,391.6h8.075a2.019,2.019,0,1,0,0-4.038H32.3a2.019,2.019,0,1,0,0,4.038" fill="#5c379b"/>
            <path id="Trazado_184358" data-name="Trazado 184358" d="M48.452,391.6h8.075a2.019,2.019,0,1,0,0-4.038H48.452a2.019,2.019,0,1,0,0,4.038" fill="#5c379b"/>
            <path id="Trazado_184359" data-name="Trazado 184359" d="M64.6,391.6h8.075a2.019,2.019,0,1,0,0-4.038H64.6a2.019,2.019,0,1,0,0,4.038" fill="#5c379b"/>
            <path id="Trazado_184360" data-name="Trazado 184360" d="M80.754,391.6h8.075a2.019,2.019,0,1,0,0-4.038H80.754a2.019,2.019,0,1,0,0,4.038" fill="#5c379b"/>
            <path id="Trazado_184361" data-name="Trazado 184361" d="M96.9,391.6h8.075a2.019,2.019,0,1,0,0-4.038H96.9a2.019,2.019,0,1,0,0,4.038" fill="#5c379b"/>
            <path id="Trazado_184362" data-name="Trazado 184362" d="M14.132,433.995H36.339a2.019,2.019,0,0,0,2.019-2.019V405.731a2.019,2.019,0,0,1-2.019,2.019H14.132a2.019,2.019,0,0,1-2.019-2.019v26.245a2.019,2.019,0,0,0,2.019,2.019" fill="#dee3ed"/>
            <path id="Trazado_184363" data-name="Trazado 184363" d="M46.433,433.995H58.546a2.019,2.019,0,0,0,2.019-2.019V405.731a2.019,2.019,0,0,1-2.019,2.019H46.433a2.019,2.019,0,0,1-2.019-2.019v26.245a2.019,2.019,0,0,0,2.019,2.019" fill="#dee3ed"/>
            <path id="Trazado_184364" data-name="Trazado 184364" d="M68.641,433.995H80.754a2.019,2.019,0,0,0,2.019-2.019V405.731a2.019,2.019,0,0,1-2.019,2.019H68.641a2.019,2.019,0,0,1-2.019-2.019v26.245a2.019,2.019,0,0,0,2.019,2.019" fill="#dee3ed"/>
            <path id="Trazado_184365" data-name="Trazado 184365" d="M90.848,433.995h12.113a2.019,2.019,0,0,0,2.019-2.019V405.731a2.019,2.019,0,0,1-2.019,2.019H90.848a2.019,2.019,0,0,1-2.019-2.019v26.245a2.019,2.019,0,0,0,2.019,2.019" fill="#dee3ed"/>
            <path id="Trazado_184366" data-name="Trazado 184366" d="M14.132,407.75H36.339a2.019,2.019,0,0,0,2.019-2.019v-2.019a2.019,2.019,0,0,0-2.019-2.019H14.132a2.019,2.019,0,0,0-2.019,2.019v2.019a2.019,2.019,0,0,0,2.019,2.019" fill="#ff5082"/>
            <path id="Trazado_184367" data-name="Trazado 184367" d="M46.433,407.75H58.546a2.019,2.019,0,0,0,2.019-2.019v-2.019a2.019,2.019,0,0,0-2.019-2.019H46.433a2.019,2.019,0,0,0-2.019,2.019v2.019a2.019,2.019,0,0,0,2.019,2.019" fill="#ff5082"/>
            <path id="Trazado_184368" data-name="Trazado 184368" d="M68.641,407.75H80.754a2.019,2.019,0,0,0,2.019-2.019v-2.019a2.019,2.019,0,0,0-2.019-2.019H68.641a2.019,2.019,0,0,0-2.019,2.019v2.019a2.019,2.019,0,0,0,2.019,2.019" fill="#ff5082"/>
            <path id="Trazado_184369" data-name="Trazado 184369" d="M90.848,407.75h12.113a2.019,2.019,0,0,0,2.019-2.019v-2.019a2.019,2.019,0,0,0-2.019-2.019H90.848a2.019,2.019,0,0,0-2.019,2.019v2.019a2.019,2.019,0,0,0,2.019,2.019" fill="#ff5082"/>
            <path id="Trazado_184370" data-name="Trazado 184370" d="M58.547,449.136a3.028,3.028,0,1,1-3.028,3.028,3.028,3.028,0,0,1,3.028-3.028" fill="#96a5b9"/>
            <line id="Línea_208" data-name="Línea 208" y2="58.542" transform="translate(489.21 182.516)" fill="none" stroke="#7142c1" stroke-miterlimit="10" stroke-width="2" stroke-dasharray="12 12"/>
            <path id="Trazado_184371" data-name="Trazado 184371" d="M481.03,189.143l1.465,1.364,6.713-7.223,6.715,7.223,1.464-1.364-8.179-8.8Z" fill="#7142c1"/>
            <path id="Trazado_184372" data-name="Trazado 184372" d="M481.03,234.431l1.465-1.364,6.713,7.223,6.715-7.223,1.464,1.364-8.179,8.8Z" fill="#7142c1"/>
            <rect id="Rectángulo_38849" data-name="Rectángulo 38849" width="168.274" height="49.322" transform="translate(405.931 303.262)" fill="#607d8b"/>
            <path id="Trazado_184373" data-name="Trazado 184373" d="M574.206,303.262H405.932l1.74-8.7,3.482-17.408,1.161-5.8L415.8,253.94l1.741-8.7H562.6l1.741,8.7,3.481,17.408,1.161,5.8,3.481,17.408Z" fill="#7496a6"/>
            <path id="Trazado_184374" data-name="Trazado 184374" d="M539.39,314.867v20.309h5.8v5.8h11.6v-5.8h5.8V314.867Z" fill="#3d5966"/>
            <path id="Trazado_184375" data-name="Trazado 184375" d="M504.575,314.867v20.309h5.8v5.8h11.6v-5.8h5.8V314.867Z" fill="#3d5966"/>
            <path id="Trazado_184376" data-name="Trazado 184376" d="M469.76,314.867v20.309h5.8v5.8h11.605v-5.8h5.8V314.867Z" fill="#3d5966"/>
            <path id="Trazado_184377" data-name="Trazado 184377" d="M434.944,314.867v20.309h5.8v5.8h11.605v-5.8h5.8V314.867Z" fill="#3d5966"/>
            <rect id="Rectángulo_38850" data-name="Rectángulo 38850" width="5.803" height="5.803" transform="translate(417.537 311.966)" fill="#f5be41"/>
            <rect id="Rectángulo_38851" data-name="Rectángulo 38851" width="5.803" height="5.803" transform="translate(417.537 323.571)" fill="#f5be41"/>
            <rect id="Rectángulo_38852" data-name="Rectángulo 38852" width="5.803" height="5.803" transform="translate(417.537 335.177)" fill="#f5be41"/>
            <path id="Trazado_184378" data-name="Trazado 184378" d="M423.339,277.151v5.8H409.993l1.161-5.8Z" fill="#607d8b"/>
            <path id="Trazado_184379" data-name="Trazado 184379" d="M420.438,288.756v5.8H407.672l1.161-5.8Z" fill="#607d8b"/>
            <path id="Trazado_184380" data-name="Trazado 184380" d="M572.465,294.559H559.7v-5.8H571.3Z" fill="#607d8b"/>
            <path id="Trazado_184381" data-name="Trazado 184381" d="M426.24,265.546v5.8H412.314l1.16-5.8Z" fill="#607d8b"/>
            <path id="Trazado_184382" data-name="Trazado 184382" d="M429.142,253.941v5.8H414.636l1.16-5.8Z" fill="#607d8b"/>
            <path id="Trazado_184383" data-name="Trazado 184383" d="M570.144,282.953H556.8v-5.8h12.185Z" fill="#607d8b"/>
            <path id="Trazado_184384" data-name="Trazado 184384" d="M567.823,271.348H553.9v-5.8h12.766Z" fill="#607d8b"/>
            <path id="Trazado_184385" data-name="Trazado 184385" d="M565.5,259.743H551v-5.8h13.345Z" fill="#607d8b"/>
            <path id="Trazado_184386" data-name="Trazado 184386" d="M548.577,75.909c0-.017,0-.033,0-.05C548.579,65.7,521.814,0,488.8,0s-59.783,65.7-59.783,75.859c0,.017,0,.033,0,.05s0,.031,0,.047c0,9.46,40.309,59.19,59.783,59.19,19.055,0,59.782-49.73,59.782-59.19,0-.016,0-.033,0-.048Z" fill="#415e6f"/>
            <path id="Trazado_184387" data-name="Trazado 184387" d="M528.741,74.565h-6.79V54.874h6.79a6.335,6.335,0,0,1,6.335,6.335V68.23a6.335,6.335,0,0,1-6.335,6.335" fill="#f4c892"/>
            <path id="Trazado_184388" data-name="Trazado 184388" d="M448.852,74.565h6.79V54.874h-6.79a6.335,6.335,0,0,0-6.335,6.335V68.23a6.335,6.335,0,0,0,6.335,6.335" fill="#f4c892"/>
            <path id="Trazado_184389" data-name="Trazado 184389" d="M511.924,109.63l-4.283-.861a6.507,6.507,0,0,1-5.225-6.38V96.218H474.4v6.327a6.507,6.507,0,0,1-5.225,6.38l-3.507.7v23.556h46.255Z" fill="#fed9a8"/>
            <path id="Trazado_184390" data-name="Trazado 184390" d="M488.8,100.863h0a36.621,36.621,0,0,1-36.621-36.621V53.951a36.621,36.621,0,0,1,73.242,0V64.242A36.621,36.621,0,0,1,488.8,100.863" fill="#fed9a8"/>
            <path id="Trazado_184391" data-name="Trazado 184391" d="M488.8,17.33h0a36.646,36.646,0,0,0-9.552,1.261,36.635,36.635,0,0,1,27.068,35.36V64.242A36.636,36.636,0,0,1,479.244,99.6a36.643,36.643,0,0,0,46.173-35.36V53.951A36.621,36.621,0,0,0,488.8,17.33" fill="#f4ce9f"/>
            <path id="Trazado_184392" data-name="Trazado 184392" d="M488.8,55.037c32.963,0,59.693,11.421,59.78,20.872,0-.016,0-.033,0-.05C548.579,65.7,521.813,0,488.8,0s-59.782,65.7-59.782,75.859c0,.017,0,.033,0,.05.087-9.451,26.817-20.872,59.78-20.872" fill="#5498c8"/>
            <path id="Trazado_184393" data-name="Trazado 184393" d="M488.8,0a26.875,26.875,0,0,0-8.562,1.448c21.323,7.137,39.013,39.08,46.861,59.13,13.089,4.174,21.433,10.059,21.481,15.331,0-.016,0-.033,0-.05C548.579,65.7,521.813,0,488.8,0" fill="#415e6f"/>
            <path id="Trazado_184394" data-name="Trazado 184394" d="M569.522,172.25c-1.592-11.707-8.063-45.656-30.289-54.574l-25.35-7.9H463.709l-25.35,7.9c-22.226,8.918-28.7,42.866-30.289,54.574a3.526,3.526,0,0,0,3.5,4H566.025a3.526,3.526,0,0,0,3.5-4" fill="#5498c8"/>
            <path id="Trazado_184395" data-name="Trazado 184395" d="M569.522,172.25c-1.592-11.707-8.063-45.656-30.289-54.574l-25.35-7.9H494.364l25.35,7.9c26.99,10.83,30.748,58.571,30.748,58.571h15.563a3.526,3.526,0,0,0,3.5-4" fill="#415e6f"/>
            <path id="Trazado_184396" data-name="Trazado 184396" d="M538.915,108.49H438.677a6.024,6.024,0,0,0-6.023,6.023v57.118H544.939V114.513a6.024,6.024,0,0,0-6.024-6.023" fill="#cfcfcf"/>
            <path id="Trazado_184397" data-name="Trazado 184397" d="M538.916,108.49H519.81a6.023,6.023,0,0,1,6.024,6.023v57.118h19.1V114.513a6.023,6.023,0,0,0-6.022-6.023" fill="#c2c4c6"/>
            <path id="Trazado_184398" data-name="Trazado 184398" d="M548.562,167.151H429.03a4.1,4.1,0,0,0-4.1,4.1v.888a4.1,4.1,0,0,0,4.1,4.1H548.562a4.1,4.1,0,0,0,4.1-4.1v-.888a4.1,4.1,0,0,0-4.1-4.1" fill="#9c9da0"/>
            <path id="Trazado_184399" data-name="Trazado 184399" d="M548.562,167.151H533.443v9.1h15.119a4.1,4.1,0,0,0,4.1-4.1v-.888a4.1,4.1,0,0,0-4.1-4.1" fill="#8d8f93"/>
            <path id="Trazado_184400" data-name="Trazado 184400" d="M488.8,131.789a8.427,8.427,0,1,1-8.427,8.427,8.427,8.427,0,0,1,8.427-8.427" fill="#fff"/>
            <path id="Trazado_184401" data-name="Trazado 184401" d="M497.919,64.708c-6.623-2.455-11.565-2.476-18.245,0l1.192,2.434c.135.275.285.541.441.8,5.693-1.951,9.33-1.947,15.018.019l1.594-3.255" fill="#4d4d4d"/>
            <path id="Trazado_184402" data-name="Trazado 184402" d="M525.417,64.242V62.327H512.83v2.71c0,.307.017.611.041.915h12.506q.039-.851.04-1.71" fill="#4d4d4d"/>
            <path id="Trazado_184403" data-name="Trazado 184403" d="M452.176,62.327v1.915c0,.574.017,1.143.043,1.71h12.543V62.327Z" fill="#4d4d4d"/>
            <path id="Trazado_184404" data-name="Trazado 184404" d="M478.292,74.113H464.727a2.705,2.705,0,0,1-2.7-2.706V63.685a2.706,2.706,0,0,1,2.7-2.706h16.908a2.707,2.707,0,0,1,2.706,2.706v4.379a6.049,6.049,0,0,1-6.049,6.049" fill="#4d4d4d"/>
            <path id="Trazado_184405" data-name="Trazado 184405" d="M499.3,74.113h13.565a2.705,2.705,0,0,0,2.7-2.706V63.685a2.706,2.706,0,0,0-2.7-2.706H495.958a2.707,2.707,0,0,0-2.706,2.706v4.379a6.049,6.049,0,0,0,6.049,6.049" fill="#4d4d4d"/>
            <path id="Trazado_184406" data-name="Trazado 184406" d="M512.865,60.979H496.441V73.394a6.014,6.014,0,0,0,2.859.719h13.565a2.707,2.707,0,0,0,2.706-2.706V63.685a2.707,2.707,0,0,0-2.706-2.706" fill="#353535"/>
            <path id="Trazado_184407" data-name="Trazado 184407" d="M481.635,60.979H465.2V74.113h13.09a6.049,6.049,0,0,0,6.049-6.049V63.685a2.707,2.707,0,0,0-2.706-2.706" fill="#353535"/>
            <line id="Línea_209" data-name="Línea 209" x2="236.511" transform="translate(561.209 295.067)" fill="none" stroke="#7142c1" stroke-miterlimit="10" stroke-width="2" stroke-dasharray="12 12"/>
            <path id="Trazado_184408" data-name="Trazado 184408" d="M791.094,303.246l-1.364-1.465,7.223-6.713-7.223-6.715,1.364-1.464,8.8,8.179Z" fill="#7142c1"/>
          </g>
        </g>
        <text id="El_atacante_obliga_Switch_para_" data-name="El atacante obliga Switch para " transform="translate(182.109 79.662)" fill="#5c379b" font-size="16" font-family="Roboto-Regular, Roboto"><tspan x="0" y="0">El atacante obliga Switch para </tspan></text>
        <text id="comportarse_como_un_Hub" data-name="comportarse como un Hub" transform="translate(182.109 98.863)" fill="#5c379b" font-size="16" font-family="Roboto-Regular, Roboto"><tspan x="0" y="0">compo</tspan><tspan y="0" letter-spacing="0.009em">r</tspan><tspan y="0">tarse como un Hub</tspan></text>
        <text id="Switch" transform="translate(467.87 374.863)" fill="#5c379b" font-size="16" font-family="Roboto-Bold, Roboto" font-weight="700"><tspan x="0" y="0">Switch</tspan></text>
        <text id="Internet" transform="translate(846.445 374.863)" fill="#5c379b" font-size="16" font-family="Roboto-Bold, Roboto" font-weight="700"><tspan x="0" y="0">Internet</tspan></text>
        <text id="El_atacante_de_la_PC_ejecuta_la_" data-name="El atacante de la PC ejecuta la " transform="translate(575.229 79.662)" fill="#5c379b" font-size="16" font-family="Roboto-Regular, Roboto"><tspan x="0" y="0">El atacante de la PC ejecuta la </tspan></text>
        <text id="tarjeta_NIC_en_modo_promiscuo" data-name="tarjeta NIC en modo promiscuo" transform="translate(575.229 98.863)" fill="#5c379b" font-size="16" font-family="Roboto-Regular, Roboto"><tspan x="0" y="0">tarjeta NIC en modo p</tspan><tspan y="0" letter-spacing="-0.009em">r</tspan><tspan y="0">omiscuo</tspan></text>
        <g id="Grupo_142922" data-name="Grupo 142922">
          <g id="Grupo_142921" data-name="Grupo 142921" clip-path="url(#clip-path)">
            <path id="Trazado_184409" data-name="Trazado 184409" d="M775.528,251.718a5.59,5.59,0,0,0-5.512-4.763H735.693a5.589,5.589,0,0,0-5.512,4.763l22.673,14.672Z" fill="#a7f"/>
            <path id="Trazado_184410" data-name="Trazado 184410" d="M753.679,269.471a1.519,1.519,0,0,1-1.648,0L730.1,255.279v22.493a5.6,5.6,0,0,0,5.6,5.6h34.323a5.605,5.605,0,0,0,5.6-5.6v-22.5Z" fill="#a7f"/>
            <path id="Trazado_184411" data-name="Trazado 184411" d="M710.59,251.718a5.591,5.591,0,0,0-5.512-4.763H670.755a5.589,5.589,0,0,0-5.512,4.763l22.673,14.672Z" fill="#a7f"/>
            <path id="Trazado_184412" data-name="Trazado 184412" d="M688.741,269.471a1.519,1.519,0,0,1-1.648,0l-21.934-14.192v22.493a5.6,5.6,0,0,0,5.6,5.6h34.323a5.6,5.6,0,0,0,5.6-5.6v-22.5Z" fill="#a7f"/>
            <path id="Trazado_184413" data-name="Trazado 184413" d="M644.439,251.718a5.591,5.591,0,0,0-5.512-4.763H604.6a5.589,5.589,0,0,0-5.512,4.763l22.673,14.672Z" fill="#a7f"/>
            <path id="Trazado_184414" data-name="Trazado 184414" d="M622.589,269.471a1.519,1.519,0,0,1-1.648,0l-21.934-14.192v22.493a5.6,5.6,0,0,0,5.6,5.6h34.323a5.6,5.6,0,0,0,5.6-5.6v-22.5Z" fill="#a7f"/>
          </g>
        </g>
      </g>
    </g>
  </g>
</svg>
