<svg xmlns="http://www.w3.org/2000/svg" xmlns:xlink="http://www.w3.org/1999/xlink" width="295" height="232" viewBox="0 0 295 232">
  <defs>
    <clipPath id="clip-path">
      <rect id="Rectángulo_38058" data-name="Rectángulo 38058" width="230.172" height="232" fill="none"/>
    </clipPath>
    <clipPath id="clip-path-5">
      <rect id="Rectángulo_38045" data-name="Rectángulo 38045" width="4.979" height="2.144" fill="none"/>
    </clipPath>
    <clipPath id="clip-path-6">
      <rect id="Rectángulo_38047" data-name="Rectángulo 38047" width="5.667" height="4.001" fill="none"/>
    </clipPath>
    <clipPath id="clip-path-7">
      <rect id="Rectángulo_38048" data-name="Rectángulo 38048" width="5.759" height="2.092" fill="none"/>
    </clipPath>
    <clipPath id="clip-path-8">
      <rect id="Rectángulo_38049" data-name="Rectángulo 38049" width="2.028" height="4.063" fill="none"/>
    </clipPath>
    <clipPath id="clip-path-9">
      <rect id="Rectángulo_38050" data-name="Rectángulo 38050" width="45.511" height="33.121" fill="none"/>
    </clipPath>
    <clipPath id="clip-path-10">
      <rect id="Rectángulo_38051" data-name="Rectángulo 38051" width="19.796" height="4.281" fill="none"/>
    </clipPath>
    <clipPath id="clip-path-11">
      <rect id="Rectángulo_38052" data-name="Rectángulo 38052" width="2.057" height="2.023" fill="none"/>
    </clipPath>
    <clipPath id="clip-path-12">
      <rect id="Rectángulo_38053" data-name="Rectángulo 38053" width="14.393" height="14.141" fill="none"/>
    </clipPath>
    <clipPath id="clip-path-13">
      <rect id="Rectángulo_38054" data-name="Rectángulo 38054" width="2" height="2.019" fill="none"/>
    </clipPath>
    <clipPath id="clip-path-14">
      <rect id="Rectángulo_38055" data-name="Rectángulo 38055" width="25.429" height="18.138" fill="none"/>
    </clipPath>
    <clipPath id="clip-path-15">
      <rect id="Rectángulo_38056" data-name="Rectángulo 38056" width="13.086" height="25.509" fill="none"/>
    </clipPath>
  </defs>
  <g id="Grupo_143606" data-name="Grupo 143606" transform="translate(-1654 9041)">
    <g id="Grupo_112884" data-name="Grupo 112884" transform="translate(-64 -17)">
      <g id="Grupo_112612" data-name="Grupo 112612" transform="translate(1749.75 -9024)">
        <g id="Grupo_112611" data-name="Grupo 112611" clip-path="url(#clip-path)">
          <g id="Grupo_112573" data-name="Grupo 112573">
            <g id="Grupo_112572" data-name="Grupo 112572" clip-path="url(#clip-path)">
              <path id="Trazado_180374" data-name="Trazado 180374" d="M256.585,440.1c0,4.674-20.772,8.462-46.4,8.462s-46.4-3.788-46.4-8.462,20.772-8.462,46.4-8.462,46.4,3.788,46.4,8.462" transform="translate(-83.953 -221.238)" fill="#d6f5ee"/>
              <path id="Trazado_180375" data-name="Trazado 180375" d="M256.09,442.082a1.234,1.234,0,0,0-.1-.379,2.164,2.164,0,0,0-.812-.808,14.756,14.756,0,0,0-4.191-1.549,101.838,101.838,0,0,0-16.369-2.174,244.492,244.492,0,0,0-24.512-.355c-4.611.166-9.45.458-14.438,1.027-2.492.291-5.024.646-7.56,1.169a32.962,32.962,0,0,0-3.774.989,11.347,11.347,0,0,0-1.8.762,4.04,4.04,0,0,0-.788.549.921.921,0,0,0,0,1.534,4,4,0,0,0,.787.55,11.229,11.229,0,0,0,1.8.763,32.863,32.863,0,0,0,3.775.99c2.536.523,5.068.879,7.561,1.17,4.989.569,9.829.861,14.441,1.027a244.511,244.511,0,0,0,24.513-.355,101.812,101.812,0,0,0,16.368-2.174,14.752,14.752,0,0,0,4.191-1.549,2.168,2.168,0,0,0,.812-.808,1.235,1.235,0,0,0,.1-.379.761.761,0,0,1-.08.39,2.145,2.145,0,0,1-.807.84,14.454,14.454,0,0,1-4.195,1.6,99.378,99.378,0,0,1-16.38,2.257,240.308,240.308,0,0,1-24.533.41c-4.617-.16-9.463-.447-14.461-1.014-2.5-.29-5.036-.645-7.585-1.17a32.948,32.948,0,0,1-3.805-1,11.451,11.451,0,0,1-1.842-.781,4.237,4.237,0,0,1-.838-.588,1.168,1.168,0,0,1,.006-1.9,4.237,4.237,0,0,1,.839-.586,11.526,11.526,0,0,1,1.841-.78,33.032,33.032,0,0,1,3.8-1c2.547-.525,5.085-.879,7.583-1.169,5-.567,9.842-.854,14.459-1.014a240.287,240.287,0,0,1,24.531.41,99.41,99.41,0,0,1,16.38,2.257,14.471,14.471,0,0,1,4.2,1.6,2.149,2.149,0,0,1,.807.84.761.761,0,0,1,.08.39" transform="translate(-92.812 -223.703)" fill="#cdebe4"/>
              <path id="Trazado_180376" data-name="Trazado 180376" d="M257.621,443.418a1.51,1.51,0,0,0-.075-.237,1.326,1.326,0,0,0-.513-.506,9.315,9.315,0,0,0-2.652-.971,64.77,64.77,0,0,0-10.362-1.362c-4.408-.291-9.676-.417-15.515-.214-2.918.107-5.982.29-9.138.653-1.577.184-3.179.408-4.782.741a21.077,21.077,0,0,0-2.384.624,7.079,7.079,0,0,0-1.132.479c-.344.189-.717.459-.738.792.019.333.39.6.735.794a7.193,7.193,0,0,0,1.132.48,21.221,21.221,0,0,0,2.385.624c1.6.333,3.206.557,4.783.741,3.157.363,6.221.546,9.14.653,5.84.2,11.108.077,15.516-.214a64.722,64.722,0,0,0,10.361-1.362,9.312,9.312,0,0,0,2.652-.971,1.326,1.326,0,0,0,.513-.506,1.512,1.512,0,0,0,.075-.236.594.594,0,0,1-.051.247,1.309,1.309,0,0,1-.508.538,9.04,9.04,0,0,1-2.656,1.025,62.348,62.348,0,0,1-10.373,1.445,151.456,151.456,0,0,1-15.537.269c-2.924-.1-5.993-.279-9.16-.64-1.583-.183-3.191-.407-4.806-.741a21.3,21.3,0,0,1-2.415-.632,7.378,7.378,0,0,1-1.174-.5,3,3,0,0,1-.541-.378.784.784,0,0,1,0-1.273,3.011,3.011,0,0,1,.541-.378,7.431,7.431,0,0,1,1.173-.5,21.43,21.43,0,0,1,2.414-.631c1.615-.334,3.223-.558,4.805-.74,3.165-.361,6.234-.538,9.158-.639a151.3,151.3,0,0,1,15.536.269,62.3,62.3,0,0,1,10.373,1.445,9.026,9.026,0,0,1,2.657,1.025,1.311,1.311,0,0,1,.508.538.6.6,0,0,1,.051.248" transform="translate(-107.677 -225.427)" fill="#cdebe4"/>
              <path id="Trazado_180377" data-name="Trazado 180377" d="M260.458,445.25a.559.559,0,0,0-.3-.361,4.747,4.747,0,0,0-1.325-.472,33,33,0,0,0-5.178-.66c-2.2-.14-4.835-.2-7.752-.094-1.458.055-2.988.148-4.563.329-.787.092-1.587.2-2.385.37a10.478,10.478,0,0,0-1.185.31,3.5,3.5,0,0,0-.555.235c-.17.089-.335.229-.337.341s.165.252.335.341a3.544,3.544,0,0,0,.556.235,10.471,10.471,0,0,0,1.184.311c.8.166,1.6.278,2.386.371,1.576.182,3.106.274,4.564.33,2.917.1,5.55.046,7.753-.094a33.005,33.005,0,0,0,5.178-.66,4.742,4.742,0,0,0,1.325-.472.558.558,0,0,0,.3-.361.222.222,0,0,1-.019.126.652.652,0,0,1-.253.277,4.442,4.442,0,0,1-1.329.526,30.645,30.645,0,0,1-5.189.743,74.7,74.7,0,0,1-7.773.148c-1.463-.049-3-.137-4.585-.317-.793-.091-1.6-.2-2.408-.37a10.7,10.7,0,0,1-1.215-.317,3.7,3.7,0,0,1-.6-.254c-.178-.111-.428-.232-.466-.563.039-.331.29-.45.467-.562a3.79,3.79,0,0,1,.6-.253,10.7,10.7,0,0,1,1.215-.317c.81-.168,1.616-.279,2.408-.37,1.586-.179,3.121-.267,4.584-.316a74.571,74.571,0,0,1,7.773.148,30.587,30.587,0,0,1,5.189.743,4.444,4.444,0,0,1,1.329.526.649.649,0,0,1,.253.277.221.221,0,0,1,.019.126" transform="translate(-121.283 -227.263)" fill="#cdebe4"/>
              <rect id="Rectángulo_38034" data-name="Rectángulo 38034" width="14.719" height="5.82" transform="translate(9.414 56.558)" fill="#d6f5ee"/>
              <path id="Trazado_180378" data-name="Trazado 180378" d="M18.253,133.483a.819.819,0,0,1-.006-.106c0-.078,0-.176-.006-.3q0-.411-.014-1.145c-.007-1-.018-2.449-.031-4.27l.056.068-18.16.044c.041-.05-.093.112.092-.112h0v.744q0,.373,0,.742v1.469q0,1.457,0,2.863l-.09-.11,12.942.05,3.82.031,1.033.015.271.007a.506.506,0,0,1,.1.007.334.334,0,0,1-.084.007l-.259.007-1.013.015-3.8.031-13,.05H0v-.11q0-1.4,0-2.863,0-.728,0-1.469v-1.487H0c.185-.224.052-.062.094-.112l18.16.044h.057v.068c-.013,1.838-.023,3.3-.031,4.31q-.009.725-.014,1.13c0,.117,0,.212-.005.286a.492.492,0,0,1-.006.093" transform="translate(0 -65.372)" fill="#c4e0da"/>
              <rect id="Rectángulo_38035" data-name="Rectángulo 38035" width="23.716" height="6.274" transform="translate(204.732 88.092)" fill="#d6f5ee"/>
              <path id="Trazado_180379" data-name="Trazado 180379" d="M430.547,200.414a.751.751,0,0,1-.007-.114c0-.084,0-.19-.008-.322q-.007-.443-.018-1.235c-.01-1.083-.023-2.64-.041-4.6l.074.074-23.714.047c.054-.054-.122.12.119-.121v1.6q0,.8,0,1.583,0,1.571,0,3.086l-.118-.118,16.9.054,4.988.034,1.349.016.353.007a.945.945,0,0,1,.125.008.586.586,0,0,1-.11.008l-.338.007-1.323.016-4.961.034-16.983.054h-.118v-.118q0-1.514,0-3.086,0-.785,0-1.583,0-.4,0-.8v-.8c.242-.242.068-.067.122-.121l23.714.047h.074v.073c-.018,1.982-.031,3.553-.041,4.647q-.011.781-.018,1.218c0,.127-.006.228-.008.309a.465.465,0,0,1-.007.1" transform="translate(-208.463 -99.44)" fill="#c4e0da"/>
              <rect id="Rectángulo_38036" data-name="Rectángulo 38036" width="44.247" height="73.241" transform="translate(33.955 22.847)" fill="#c4e0da"/>
              <rect id="Rectángulo_38037" data-name="Rectángulo 38037" width="44.247" height="73.241" transform="translate(32.484 22.847)" fill="#cdebe4"/>
              <rect id="Rectángulo_38038" data-name="Rectángulo 38038" width="40.479" height="70.271" transform="translate(34.367 24.333)" fill="#fff"/>
              <rect id="Rectángulo_38039" data-name="Rectángulo 38039" width="24.891" height="52.008" transform="translate(42.074 33.464)" fill="#cdebe4"/>
              <path id="Trazado_180380" data-name="Trazado 180380" d="M86.314,117.417c-.058-4.858,4.31-9.6,9.122-10.279,2.294-.324,4.732.132,6.875-.747,3.826-1.569,5.044-6.653,8.894-8.16l.176,37.591H86.314Z" transform="translate(-44.241 -50.349)" fill="#c4e0da"/>
              <rect id="Rectángulo_38040" data-name="Rectángulo 38040" width="23.716" height="6.274" transform="translate(137.586 184.383)" fill="#d6f5ee"/>
              <path id="Trazado_180381" data-name="Trazado 180381" d="M285.276,397.958a.745.745,0,0,1-.007-.114c0-.084,0-.19-.008-.322q-.007-.443-.018-1.235c-.01-1.083-.023-2.64-.041-4.6l.074.074-23.714.047c.054-.054-.122.12.119-.121v1.6q0,.8,0,1.583,0,1.571,0,3.086l-.118-.118,16.9.054,4.988.034,1.349.016.353.007a.929.929,0,0,1,.125.008.583.583,0,0,1-.11.008l-.338.007-1.323.016-4.961.034-16.983.054h-.118v-.118q0-1.514,0-3.086,0-.785,0-1.583,0-.4,0-.8v-.8c.242-.242.068-.067.122-.121l23.714.047h.074v.073c-.018,1.982-.031,3.554-.041,4.647q-.011.781-.018,1.218c0,.127-.006.228-.008.309a.465.465,0,0,1-.007.1" transform="translate(-134.003 -200.693)" fill="#d6f5ee"/>
              <rect id="Rectángulo_38041" data-name="Rectángulo 38041" width="23.716" height="6.274" transform="translate(93.576 58.761)" fill="#d6f5ee"/>
              <path id="Trazado_180382" data-name="Trazado 180382" d="M194.989,140.241a.76.76,0,0,1-.007-.114c0-.084,0-.19-.008-.322q-.007-.443-.018-1.235c-.01-1.083-.023-2.64-.041-4.6l.074.074-23.714.047c.054-.054-.122.12.119-.121h0v1.6q0,.8,0,1.583,0,1.571,0,3.086l-.118-.118,16.9.054,4.988.034,1.349.016.353.007a.941.941,0,0,1,.125.008.581.581,0,0,1-.11.008l-.338.007-1.323.016-4.961.034-16.983.054h-.118v-.118q0-1.514,0-3.086,0-.785,0-1.583,0-.4,0-.8v-.8h0c.242-.242.068-.067.122-.121l23.714.047h.074v.074c-.018,1.982-.031,3.553-.041,4.647q-.011.781-.018,1.218c0,.127-.006.228-.008.309a.46.46,0,0,1-.007.1" transform="translate(-87.726 -68.598)" fill="#d6f5ee"/>
              <path id="Trazado_180383" data-name="Trazado 180383" d="M310.259,26.218a.764.764,0,0,1-.007-.114c0-.084,0-.19-.008-.322q-.007-.443-.018-1.235c-.01-1.083-.023-2.64-.041-4.6l.074.074-23.714.047c.054-.054-.122.12.119-.121h0v1.6q0,.8,0,1.583,0,1.571,0,3.086l-.118-.118,16.9.054,4.988.034,1.349.016.353.007a.942.942,0,0,1,.125.008.582.582,0,0,1-.11.008l-.338.007-1.323.016-4.961.034-16.983.054h-.118v-.118q0-1.514,0-3.086,0-.785,0-1.583,0-.4,0-.8v-.8h0c.242-.242.068-.067.122-.121l23.714.047h.074v.074c-.018,1.982-.031,3.553-.041,4.647q-.011.781-.018,1.218c0,.127-.006.228-.008.309a.459.459,0,0,1-.007.1" transform="translate(-146.808 -10.155)" fill="#d6f5ee"/>
              <path id="Trazado_180384" data-name="Trazado 180384" d="M110.753,19.309a.763.763,0,0,1-.007-.114c0-.084,0-.19-.008-.322q-.007-.443-.018-1.235c-.01-1.083-.023-2.64-.041-4.6l.074.074-23.714.047c.054-.054-.122.12.119-.121v1.6q0,.8,0,1.583,0,1.571,0,3.086l-.118-.118,16.9.054,4.988.034,1.349.016.353.007a.941.941,0,0,1,.125.008.582.582,0,0,1-.11.008l-.338.007-1.323.016-4.961.034-16.983.054H86.92v-.118q0-1.514,0-3.086,0-.785,0-1.583v-1.6c.242-.242.068-.067.122-.121l23.714.047h.074v.073c-.018,1.982-.031,3.554-.04,4.647q-.012.781-.018,1.218c0,.127-.006.228-.008.309a.46.46,0,0,1-.007.1" transform="translate(-44.55 -6.614)" fill="#d6f5ee"/>
              <path id="Trazado_180385" data-name="Trazado 180385" d="M127.3,6.422a.734.734,0,0,1-.009-.119c0-.09-.005-.2-.009-.332q-.008-.463-.021-1.258c-.011-1.1-.027-2.654-.047-4.564l.087.087L113.055.269c-.109.108.146-.147.12-.12V1.783q0,.809,0,1.6c0,1.049,0,2.067,0,3.042l-.115-.115,10.193.055,2.969.032.8.015a2.424,2.424,0,0,1,.286.014,1.67,1.67,0,0,1-.259.014l-.776.015-2.943.032-10.27.055h-.115V6.422c0-.975,0-1.993,0-3.042q0-.787,0-1.6,0-.4,0-.814V.148l.122-.121L127.3.061h.088V.148c-.02,1.933-.036,3.5-.047,4.617q-.014.782-.021,1.238a3.7,3.7,0,0,1-.019.419" transform="translate(-57.884 0)" fill="#d6f5ee"/>
              <path id="Trazado_180386" data-name="Trazado 180386" d="M436.85,97.511a.836.836,0,0,1-.008-.127c0-.093,0-.211-.008-.357q-.007-.491-.02-1.371c-.011-1.2-.026-2.931-.045-5.111l.081.081-26.331.053c.059-.06-.136.134.133-.134h0v.892q0,.446,0,.889,0,.885,0,1.758,0,1.745,0,3.427l-.131-.131,18.766.059,5.539.038,1.5.017.391.009a.9.9,0,0,1,.139.008.568.568,0,0,1-.122.008l-.376.009-1.469.017-5.508.038-18.857.059h-.131v-.132q0-1.68,0-3.427,0-.872,0-1.758v-1.78h0c.269-.269.076-.075.136-.135l26.331.053h.082v.081c-.019,2.2-.035,3.946-.045,5.16q-.013.868-.02,1.353c0,.141-.006.253-.008.343a.5.5,0,0,1-.008.111" transform="translate(-210.345 -46.334)" fill="#d6f5ee"/>
              <path id="Trazado_180387" data-name="Trazado 180387" d="M455.224,83.2a.749.749,0,0,1-.01-.133c0-.1-.006-.221-.01-.369q-.009-.515-.024-1.4c-.013-1.222-.03-2.946-.052-5.067l.1.1-15.82.038.133-.134v.912q0,.454,0,.9,0,.9,0,1.773c0,1.165,0,2.295,0,3.377l-.128-.128,11.318.061,3.3.035.889.016a2.723,2.723,0,0,1,.318.016,1.779,1.779,0,0,1-.287.016l-.863.016-3.268.036-11.4.06h-.128V83.2c0-1.083,0-2.212,0-3.377q0-.874,0-1.773V76.235l.136-.135,15.82.038h.1v.1c-.022,2.146-.039,3.891-.052,5.126q-.015.868-.024,1.375a3.929,3.929,0,0,1-.02.465" transform="translate(-225.149 -38.99)" fill="#d6f5ee"/>
              <path id="Trazado_180388" data-name="Trazado 180388" d="M234.171,421.544c0,.07-47.26.127-105.544.127-58.3,0-105.554-.057-105.554-.127s47.249-.127,105.554-.127c58.284,0,105.544.057,105.544.127" transform="translate(-11.826 -216.001)" fill="#263238"/>
              <path id="Trazado_180389" data-name="Trazado 180389" d="M302.243,189.289H197.872a5.115,5.115,0,0,1-5.115-5.115V29.941a5.114,5.114,0,0,1,5.115-5.114H302.243a5.114,5.114,0,0,1,5.115,5.115V184.175a5.115,5.115,0,0,1-5.115,5.115" transform="translate(-98.799 -12.725)" fill="#263238"/>
              <path id="Trazado_180390" data-name="Trazado 180390" d="M302.122,189.168s.12-.01.356-.024a3.019,3.019,0,0,0,.439-.053,4.173,4.173,0,0,0,.6-.133,5.12,5.12,0,0,0,3.119-2.557,5.316,5.316,0,0,0,.476-1.36,8.08,8.08,0,0,0,.095-1.6q0-1.693-.005-3.7c0-2.676-.006-5.762-.011-9.237-.008-13.9-.021-34.013-.037-58.865,0-12.426-.009-26.037-.014-40.649q0-10.959-.006-22.646,0-5.837,0-11.842,0-3,0-6.043a8.012,8.012,0,0,0-.08-1.5,4.858,4.858,0,0,0-.473-1.413,5.078,5.078,0,0,0-2.066-2.123,5.471,5.471,0,0,0-1.416-.509,7.631,7.631,0,0,0-1.521-.1H279.432l-26.32,0-55.348,0a4.995,4.995,0,0,0-4.923,4.072,8.975,8.975,0,0,0-.09,1.739v5.28q0,7.024,0,13.951,0,13.853,0,27.276c0,17.883,0,35.132-.007,51.564s-.007,32.046-.011,46.659q0,2.74,0,5.433,0,1.346,0,2.68a8.313,8.313,0,0,0,.06,1.314,4.982,4.982,0,0,0,4.261,4.233,8.561,8.561,0,0,0,1.279.055h3.844l19.505.008,58.861.037,16,.021,4.162.012c.937,0,1.418.012,1.418.012s-.481.008-1.418.012l-4.162.012-16,.021-58.861.037-19.505.008h-3.844a8.837,8.837,0,0,1-1.3-.056,5.167,5.167,0,0,1-4.42-4.386,8.434,8.434,0,0,1-.062-1.341q0-1.334,0-2.68,0-2.693,0-5.433c0-14.613-.007-30.228-.011-46.659s0-33.681-.007-51.564q0-13.412,0-27.276,0-6.926,0-13.951v-5.28a9.121,9.121,0,0,1,.093-1.782,5.226,5.226,0,0,1,5.15-4.26l55.348,0,26.32,0h22.144a7.888,7.888,0,0,1,1.562.1,5.683,5.683,0,0,1,1.476.532,5.3,5.3,0,0,1,2.153,2.213,5.065,5.065,0,0,1,.492,1.473,8.174,8.174,0,0,1,.083,1.537q0,3.041,0,6.043,0,6,0,11.842,0,11.675-.005,22.646c-.005,14.612-.01,28.223-.014,40.649-.016,24.852-.028,44.964-.037,58.865,0,3.474-.008,6.561-.011,9.237q0,2.006-.005,3.7a8.142,8.142,0,0,1-.1,1.613,5.363,5.363,0,0,1-.486,1.372,5.132,5.132,0,0,1-3.154,2.559,4.138,4.138,0,0,1-.6.128,2.929,2.929,0,0,1-.441.047c-.237.01-.357.012-.357.012" transform="translate(-98.678 -12.604)" fill="#263238"/>
              <path id="Trazado_180391" data-name="Trazado 180391" d="M310.084,340.647a4.4,4.4,0,1,1-4.4-4.4,4.4,4.4,0,0,1,4.4,4.4" transform="translate(-154.429 -172.348)" fill="#455a64"/>
              <path id="Trazado_180392" data-name="Trazado 180392" d="M308.072,39.223H284.666a1.632,1.632,0,1,1,0-3.264h23.405a1.632,1.632,0,1,1,0,3.264" transform="translate(-145.071 -18.431)" fill="#455a64"/>
              <rect id="Rectángulo_38042" data-name="Rectángulo 38042" width="107.374" height="137.346" transform="translate(97.473 23.835)" fill="#fff"/>
              <path id="Trazado_180393" data-name="Trazado 180393" d="M307.567,194.552H236.443a.709.709,0,0,1-.709-.709V182.73a.709.709,0,0,1,.709-.709h71.124a.709.709,0,0,1,.709.709v11.114a.709.709,0,0,1-.709.709" transform="translate(-120.827 -93.296)" fill="#f5f5f5"/>
              <path id="Trazado_180394" data-name="Trazado 180394" d="M307.433,194.418a.8.8,0,0,0,.4-.141.7.7,0,0,0,.274-.433c.025-.2,0-.459.007-.738-.005-1.132-.014-2.789-.024-4.922,0-1.069-.007-2.257-.011-3.557q0-.975-.005-2.034a.644.644,0,0,0-.613-.637h-1.115l-10.314.019-59.72.037a.585.585,0,0,0-.585.561v3.251q0,2.16,0,4.29,0,1.065,0,2.122v1.055c0,.167-.008.371.008.506a.584.584,0,0,0,.211.365.6.6,0,0,0,.409.129h3.636l15.856.007,26.849.027,18.1.04,4.921.024,1.28.012c.289,0,.436.013.436.013s-.148.009-.436.013l-1.28.012-4.921.024-18.1.04-26.849.027-15.856.007h-3.636a.847.847,0,0,1-.566-.183.834.834,0,0,1-.3-.523c-.021-.213-.006-.361-.011-.545v-3.177q0-2.13,0-4.29,0-1.08,0-2.167v-1.093a.839.839,0,0,1,.838-.806l59.72.038,10.314.019,1.122,0a.779.779,0,0,1,.739.774q0,1.058-.005,2.034c0,1.3-.007,2.487-.011,3.557-.01,2.133-.019,3.79-.024,4.922-.008.283.01.526-.02.746a.721.721,0,0,1-.3.446.693.693,0,0,1-.306.117.421.421,0,0,1-.111,0" transform="translate(-120.694 -93.162)" fill="#263238"/>
              <path id="Trazado_180395" data-name="Trazado 180395" d="M307.713,229.86H236.589a.709.709,0,0,1-.709-.709V218.038a.709.709,0,0,1,.709-.709h71.124a.709.709,0,0,1,.709.709v11.114a.709.709,0,0,1-.709.709" transform="translate(-120.902 -111.394)" fill="#f5f5f5"/>
              <path id="Trazado_180396" data-name="Trazado 180396" d="M307.579,229.726a.8.8,0,0,0,.4-.141.7.7,0,0,0,.275-.433c.025-.2,0-.459.007-.738-.005-1.132-.014-2.789-.024-4.922,0-1.069-.007-2.257-.011-3.557q0-.975-.005-2.034a.644.644,0,0,0-.613-.637h-1.115l-10.314.019-59.72.037a.585.585,0,0,0-.585.561v3.251q0,2.16,0,4.29,0,1.065,0,2.122V228.6c0,.167-.008.37.007.506a.584.584,0,0,0,.211.365.6.6,0,0,0,.409.129h3.636l15.857.007,26.849.027,18.1.04,4.921.023,1.28.013c.289,0,.436.013.436.013s-.148.009-.436.013l-1.28.012-4.921.024-18.1.04-26.849.027-15.857.007H236.5a.849.849,0,0,1-.566-.183.834.834,0,0,1-.3-.523c-.021-.213-.006-.361-.011-.545v-3.177q0-2.13,0-4.29,0-1.08,0-2.167v-1.093a.839.839,0,0,1,.838-.806l59.72.037,10.314.019,1.122,0a.779.779,0,0,1,.738.774q0,1.058-.005,2.034c0,1.3-.007,2.488-.011,3.557-.01,2.133-.018,3.79-.024,4.922-.008.283.01.526-.02.746a.722.722,0,0,1-.3.446.693.693,0,0,1-.306.117.422.422,0,0,1-.111,0" transform="translate(-120.768 -111.26)" fill="#263238"/>
              <path id="Trazado_180397" data-name="Trazado 180397" d="M248.471,191.325v2.895h-.339l-1.737-2.159v2.159h-.413v-2.895h.339l1.736,2.158v-2.158Z" transform="translate(-126.08 -98.065)" fill="#263238"/>
              <path id="Trazado_180398" data-name="Trazado 180398" d="M254.313,193.614v1.323h-.376v-.29a.814.814,0,0,1-.72.314c-.5,0-.811-.265-.811-.645,0-.351.228-.641.881-.641h.628V193.6c0-.335-.194-.529-.587-.529a1.112,1.112,0,0,0-.7.236l-.165-.3a1.458,1.458,0,0,1,.906-.282c.6,0,.938.29.938.89m-.4.653v-.306H253.3c-.393,0-.5.153-.5.339,0,.219.182.355.484.355a.634.634,0,0,0,.633-.388" transform="translate(-129.373 -98.782)" fill="#263238"/>
              <path id="Trazado_180399" data-name="Trazado 180399" d="M261.47,193.676v1.261h-.4v-1.216c0-.43-.207-.641-.567-.641a.636.636,0,0,0-.657.728v1.129h-.4v-1.216c0-.43-.206-.641-.566-.641a.636.636,0,0,0-.657.728v1.129h-.4v-2.192h.381v.327a.888.888,0,0,1,.757-.348.811.811,0,0,1,.761.406.989.989,0,0,1,.843-.406.841.841,0,0,1,.9.951" transform="translate(-132.153 -98.783)" fill="#263238"/>
              <path id="Trazado_180400" data-name="Trazado 180400" d="M268.589,193.974h-1.778a.742.742,0,0,0,.794.641.819.819,0,0,0,.633-.265l.219.256a1.194,1.194,0,0,1-2.043-.765,1.074,1.074,0,0,1,1.1-1.117,1.057,1.057,0,0,1,1.084,1.129c0,.033,0,.083-.008.12m-1.778-.285h1.406a.708.708,0,0,0-1.406,0" transform="translate(-136.553 -98.783)" fill="#263238"/>
              <path id="Trazado_180401" data-name="Trazado 180401" d="M307.946,269.678H236.822a.709.709,0,0,1-.709-.709V257.856a.709.709,0,0,1,.709-.709h71.124a.709.709,0,0,1,.709.709v11.114a.709.709,0,0,1-.709.709" transform="translate(-121.022 -131.803)" fill="#79f5ed"/>
              <path id="Trazado_180402" data-name="Trazado 180402" d="M245.179,229.191a1.09,1.09,0,1,1-1.09-1.09,1.09,1.09,0,0,1,1.09,1.09" transform="translate(-124.551 -116.915)" fill="#263238"/>
              <path id="Trazado_180403" data-name="Trazado 180403" d="M252.215,229.191a1.09,1.09,0,1,1-1.09-1.09,1.09,1.09,0,0,1,1.09,1.09" transform="translate(-128.157 -116.915)" fill="#263238"/>
              <path id="Trazado_180404" data-name="Trazado 180404" d="M259.251,229.191a1.09,1.09,0,1,1-1.09-1.09,1.09,1.09,0,0,1,1.09,1.09" transform="translate(-131.763 -116.915)" fill="#263238"/>
              <path id="Trazado_180405" data-name="Trazado 180405" d="M266.286,229.191a1.09,1.09,0,1,1-1.09-1.09,1.09,1.09,0,0,1,1.09,1.09" transform="translate(-135.369 -116.915)" fill="#263238"/>
              <path id="Trazado_180406" data-name="Trazado 180406" d="M273.322,229.191a1.09,1.09,0,1,1-1.09-1.09,1.09,1.09,0,0,1,1.09,1.09" transform="translate(-138.975 -116.915)" fill="#263238"/>
              <path id="Trazado_180407" data-name="Trazado 180407" d="M280.358,229.191a1.09,1.09,0,1,1-1.09-1.09,1.09,1.09,0,0,1,1.09,1.09" transform="translate(-142.582 -116.915)" fill="#263238"/>
              <path id="Trazado_180408" data-name="Trazado 180408" d="M287.394,229.191a1.09,1.09,0,1,1-1.09-1.09,1.09,1.09,0,0,1,1.09,1.09" transform="translate(-146.188 -116.915)" fill="#263238"/>
              <path id="Trazado_180409" data-name="Trazado 180409" d="M294.429,229.191a1.09,1.09,0,1,1-1.09-1.09,1.09,1.09,0,0,1,1.09,1.09" transform="translate(-149.794 -116.915)" fill="#263238"/>
              <path id="Trazado_180410" data-name="Trazado 180410" d="M369.008,226.864h-.283v-.4a1.351,1.351,0,0,0-2.7,0v.4h-.409a.5.5,0,0,0-.5.5v2.194a.5.5,0,0,0,.5.5h3.395a.5.5,0,0,0,.5-.5v-2.194a.5.5,0,0,0-.5-.5m-1.182,2.477H366.8l.267-.671a.562.562,0,1,1,.487,0Zm.488-2.477h-1.881v-.4a.941.941,0,1,1,1.881,0Z" transform="translate(-187.142 -115.384)" fill="#e0e0e0"/>
            </g>
          </g>
          <text id="Ingresar" transform="translate(139.004 131.698)" font-size="3" font-family="Roboto-Bold, Roboto" font-weight="700"><tspan x="0" y="0">Ing</tspan><tspan y="0" letter-spacing="-0.007em">r</tspan><tspan y="0">esar</tspan></text>
          <g id="Grupo_112575" data-name="Grupo 112575">
            <g id="Grupo_112574" data-name="Grupo 112574" clip-path="url(#clip-path)">
              <path id="Trazado_180411" data-name="Trazado 180411" d="M309.406,101.121a21.682,21.682,0,1,1-21.682-21.682,21.682,21.682,0,0,1,21.682,21.682" transform="translate(-136.362 -40.717)" fill="#fafafa"/>
              <path id="Trazado_180412" data-name="Trazado 180412" d="M309.273,101.013s-.015-.119-.031-.351-.037-.582-.065-1.029q-.02-.341-.044-.758c-.029-.277-.088-.578-.136-.906s-.108-.679-.167-1.055a11.7,11.7,0,0,0-.283-1.183,20.657,20.657,0,0,0-2.4-5.754,21.548,21.548,0,0,0-5.492-6.127l-.934-.7c-.328-.215-.673-.412-1.015-.622s-.679-.439-1.053-.609l-1.121-.537-.57-.271-.6-.218-1.214-.443c-.413-.136-.844-.224-1.271-.34a10.905,10.905,0,0,0-1.306-.3,20.068,20.068,0,0,0-2.728-.316c-.465-.016-.933-.061-1.406-.054l-1.428.074c-.239.017-.481.015-.72.047l-.719.111c-.48.079-.968.136-1.451.235a22.841,22.841,0,0,0-2.876.844,22.469,22.469,0,0,0-2.812,1.236c-.455.247-.892.535-1.343.8-.22.141-.456.261-.666.421l-.635.476a24.217,24.217,0,0,0-2.446,2.078l-1.1,1.207-.275.3-.248.328-.493.66-.5.663-.434.709-.433.714-.218.358-.184.377-.732,1.52-.585,1.6a21.356,21.356,0,0,0,0,13.6l.584,1.6.732,1.52.184.378.217.358.434.714.434.71.5.663.493.661.248.328.276.3,1.1,1.207a24.285,24.285,0,0,0,2.446,2.079l.635.476c.21.159.446.28.666.421.451.268.888.555,1.343.8a22.477,22.477,0,0,0,2.813,1.236,22.744,22.744,0,0,0,2.876.844c.483.1.971.156,1.451.236l.719.11c.24.032.482.03.721.047l1.428.074c.472.007.941-.038,1.406-.054a20.138,20.138,0,0,0,2.728-.316,11.079,11.079,0,0,0,1.306-.3c.427-.117.859-.2,1.271-.341l1.215-.443.6-.218.57-.271,1.121-.538c.374-.17.7-.41,1.053-.609s.687-.407,1.015-.622l.933-.7a21.553,21.553,0,0,0,5.492-6.127,20.668,20.668,0,0,0,2.4-5.754,11.794,11.794,0,0,0,.283-1.182l.167-1.055c.049-.328.108-.628.136-.906s.031-.531.044-.758q.042-.67.065-1.029c.016-.232.031-.351.031-.351s0,.119,0,.351-.022.584-.039,1.032q-.015.341-.032.76c-.025.279-.08.582-.125.91s-.1.683-.156,1.062a11.582,11.582,0,0,1-.273,1.19,20.561,20.561,0,0,1-2.373,5.8,21.615,21.615,0,0,1-5.5,6.2l-.939.7c-.33.218-.678.418-1.021.631s-.684.445-1.06.618l-1.129.546-.574.274-.6.222-1.225.45c-.416.139-.852.229-1.282.348a11.187,11.187,0,0,1-1.318.3,20.2,20.2,0,0,1-2.755.326c-.469.018-.943.064-1.42.058L286,122.726c-.241-.017-.486-.015-.728-.046l-.727-.11c-.485-.079-.979-.136-1.467-.235a23.066,23.066,0,0,1-2.909-.848,22.723,22.723,0,0,1-2.846-1.245c-.461-.249-.9-.539-1.359-.809-.223-.143-.462-.264-.674-.426l-.643-.48a24.455,24.455,0,0,1-2.475-2.1l-1.11-1.22-.279-.307-.251-.331-.5-.668-.5-.671-.44-.718-.439-.722-.22-.362-.186-.382-.741-1.538-.593-1.615a21.6,21.6,0,0,1,0-13.763l.593-1.615.741-1.538.187-.381.22-.362.439-.722.44-.717.5-.671.5-.668.251-.331.279-.307,1.109-1.22a24.449,24.449,0,0,1,2.475-2.1l.642-.48c.213-.161.451-.283.674-.425.456-.27.9-.56,1.359-.809a22.748,22.748,0,0,1,2.845-1.245,23,23,0,0,1,2.908-.848c.488-.1.981-.156,1.467-.235l.727-.11c.242-.032.486-.03.728-.046l1.442-.071c.477-.006.951.04,1.42.058a20.2,20.2,0,0,1,2.754.326,11.084,11.084,0,0,1,1.318.3c.431.118.867.209,1.283.347l1.225.45.6.222.574.274,1.129.546c.377.173.709.416,1.06.618s.691.413,1.021.632l.939.7a21.615,21.615,0,0,1,5.506,6.2,20.562,20.562,0,0,1,2.373,5.8,11.653,11.653,0,0,1,.273,1.19l.156,1.062c.045.329.1.631.125.91s.022.533.032.761q.026.672.039,1.032c.008.233,0,.351,0,.351" transform="translate(-136.229 -40.609)" fill="#263238"/>
              <path id="Trazado_180413" data-name="Trazado 180413" d="M303.491,114.5a4.961,4.961,0,1,0-3.605,0c-7.627,1.079-7.281,8.866-7.281,8.866l18.036.078s.411-7.871-7.149-8.944" transform="translate(-149.976 -53.778)" fill="#e0e0e0"/>
              <path id="Trazado_180414" data-name="Trazado 180414" d="M238.369,298.167h-2.352a.6.6,0,0,1-.6-.6v-2.352a.6.6,0,0,1,.6-.6h2.352a.6.6,0,0,1,.6.6v2.352a.6.6,0,0,1-.6.6m-2.352-3.307a.356.356,0,0,0-.356.355v2.352a.357.357,0,0,0,.356.356h2.352a.356.356,0,0,0,.355-.356v-2.352a.356.356,0,0,0-.355-.355Z" transform="translate(-120.665 -151.008)" fill="#263238"/>
              <path id="Trazado_180415" data-name="Trazado 180415" d="M237.971,298.221a.183.183,0,0,1-.116-.041l-.518-.425a.183.183,0,1,1,.232-.283l.384.315.892-.971a.183.183,0,0,1,.27.248l-1.009,1.1a.181.181,0,0,1-.135.059" transform="translate(-121.615 -152.105)" fill="#263238"/>
              <path id="Trazado_180416" data-name="Trazado 180416" d="M368.583,191.99a1.521,1.521,0,0,0,.906-1.406,1.429,1.429,0,1,0-2.852-.014,1.519,1.519,0,0,0,.909,1.42,2.6,2.6,0,0,0-2.1,2.716l5.189.024s.118-2.411-2.057-2.739" transform="translate(-187.314 -96.902)" fill="#e0e0e0"/>
            </g>
          </g>
          <text id="Recordarme" transform="translate(120.144 145.27)" font-size="2" font-family="Roboto-Bold, Roboto" font-weight="700"><tspan x="0" y="0">Reco</tspan><tspan y="0" letter-spacing="-0.009em">r</tspan><tspan y="0">darme</tspan></text>
          <text id="Olvido_su_contraseña_" data-name="Olvido su contraseña?" transform="translate(157.46 145.431)" fill="#418780" font-size="2" font-family="Roboto-Bold, Roboto" font-weight="700"><tspan x="0" y="0">Olvido su contraseña?</tspan></text>
          <g id="Grupo_112610" data-name="Grupo 112610">
            <g id="Grupo_112609" data-name="Grupo 112609" clip-path="url(#clip-path)">
              <path id="Trazado_180417" data-name="Trazado 180417" d="M394.765,65.145h5.221a.3.3,0,0,0,0-.609h-5.221a.3.3,0,0,0,0,.609" transform="translate(-202.189 -33.078)" fill="#263238"/>
              <path id="Trazado_180418" data-name="Trazado 180418" d="M394.765,68.516h5.221a.3.3,0,0,0,0-.609h-5.221a.3.3,0,0,0,0,.609" transform="translate(-202.189 -34.806)" fill="#263238"/>
              <path id="Trazado_180419" data-name="Trazado 180419" d="M394.765,71.888h5.221a.3.3,0,0,0,0-.609h-5.221a.3.3,0,0,0,0,.609" transform="translate(-202.189 -36.535)" fill="#263238"/>
              <path id="Trazado_180420" data-name="Trazado 180420" d="M388.068,336.955a3.053,3.053,0,0,1,.213,1.334,4.454,4.454,0,0,1,.606-1.511c.109-.172.283-.358.481-.308s.261.3.269.5a3.275,3.275,0,0,1-.369,1.625,3.617,3.617,0,0,1,1.375-1.065.327.327,0,0,1,.3-.023c.1.064.106.212.089.331a2.784,2.784,0,0,1-1.689,2.148l-.291.042a2.591,2.591,0,0,1-1.858-2.976c.045-.241.182-.521.427-.525.22,0,.369.219.45.423" transform="translate(-198.436 -172.456)" fill="#ff725e"/>
              <path id="Trazado_180421" data-name="Trazado 180421" d="M392.234,353.074a8.382,8.382,0,0,0-2.766-1.115,11.371,11.371,0,0,0,.078-6.113,5.841,5.841,0,0,0-1.032-2.2,3,3,0,0,0-2.077-1.16,2.92,2.92,0,0,0-2.308,1.069l-1.021,2.361a9.206,9.206,0,0,0-.123,1.037,12.461,12.461,0,0,0,1.491,6.6,6.933,6.933,0,0,0-1.869,5.539h12.123a6.705,6.705,0,0,0-2.5-6.023" transform="translate(-196.076 -175.541)" fill="#455a64"/>
              <path id="Trazado_180422" data-name="Trazado 180422" d="M385.4,364.319a.533.533,0,0,1,.092-.132,3.611,3.611,0,0,1,.3-.349,5.611,5.611,0,0,1,1.344-1.028,6.357,6.357,0,0,1,2.391-.763,5.792,5.792,0,0,1,5.436,2.344,6.351,6.351,0,0,1,1.086,2.263,5.606,5.606,0,0,1,.176,1.683,3.512,3.512,0,0,1-.047.457.53.53,0,0,1-.033.157,7.391,7.391,0,0,0-.221-2.264,6.415,6.415,0,0,0-1.1-2.193,5.712,5.712,0,0,0-5.282-2.277,6.406,6.406,0,0,0-2.347.709,7.389,7.389,0,0,0-1.8,1.394" transform="translate(-197.538 -185.55)" fill="#263238"/>
              <path id="Trazado_180423" data-name="Trazado 180423" d="M383.287,348.387a3,3,0,0,1-.022-.8,6.985,6.985,0,0,1,.327-1.918,3.942,3.942,0,0,1,1.037-1.65,1.644,1.644,0,0,1,.683-.431c.016.027-.255.175-.593.524a4.339,4.339,0,0,0-.954,1.616,8.885,8.885,0,0,0-.371,1.868,4.146,4.146,0,0,1-.108.794" transform="translate(-196.441 -176.106)" fill="#263238"/>
              <path id="Trazado_180424" data-name="Trazado 180424" d="M397.7,371.01a47.536,47.536,0,0,1,2.3-2.276,8.437,8.437,0,0,1-2.3,2.276" transform="translate(-203.843 -188.996)" fill="#263238"/>
              <path id="Trazado_180425" data-name="Trazado 180425" d="M394.914,369.473a8.066,8.066,0,0,1,.573-2.362,8.066,8.066,0,0,1-.573,2.362" transform="translate(-202.409 -188.166)" fill="#263238"/>
              <path id="Trazado_180426" data-name="Trazado 180426" d="M387.538,369.194a4.781,4.781,0,0,1,1.06,2.337,94.152,94.152,0,0,1-1.06-2.337" transform="translate(-198.633 -189.233)" fill="#263238"/>
              <path id="Trazado_180427" data-name="Trazado 180427" d="M395.527,355.094a11.944,11.944,0,0,1,1.787-2.363,11.943,11.943,0,0,1-1.787,2.363" transform="translate(-202.729 -180.794)" fill="#263238"/>
              <path id="Trazado_180428" data-name="Trazado 180428" d="M393.77,346.718a17.189,17.189,0,0,1,2.008-2.931,17.183,17.183,0,0,1-2.008,2.931" transform="translate(-201.828 -176.21)" fill="#263238"/>
              <path id="Trazado_180429" data-name="Trazado 180429" d="M390.927,351.843a9.114,9.114,0,0,1,.161,2.58,9.114,9.114,0,0,1-.161-2.58" transform="translate(-200.352 -180.34)" fill="#263238"/>
              <path id="Trazado_180430" data-name="Trazado 180430" d="M379.8,355.377a12.842,12.842,0,0,1,3.289,2.006,47.4,47.4,0,0,1-3.289-2.006" transform="translate(-194.668 -182.15)" fill="#263238"/>
              <g id="Grupo_112578" data-name="Grupo 112578" transform="translate(188.455 175.999)" opacity="0.3">
                <g id="Grupo_112577" data-name="Grupo 112577">
                  <g id="Grupo_112576" data-name="Grupo 112576" clip-path="url(#clip-path-5)">
                    <path id="Trazado_180431" data-name="Trazado 180431" d="M387.659,361.559a4.274,4.274,0,0,1,1.965-.485,2.461,2.461,0,0,1,1.975.558v.025a7.342,7.342,0,0,0-4.979,1.553,1.979,1.979,0,0,1,1.039-1.651" transform="translate(-386.62 -361.066)"/>
                  </g>
                </g>
              </g>
              <path id="Trazado_180432" data-name="Trazado 180432" d="M400.18,310.863a2.409,2.409,0,0,1,1.063-.041,3.5,3.5,0,0,1-1.125-.616c-.124-.1-.253-.255-.2-.4s.259-.176.419-.163a2.58,2.58,0,0,1,1.236.442,2.85,2.85,0,0,1-.7-1.175.256.256,0,0,1,.01-.235c.06-.075.175-.063.268-.038a2.192,2.192,0,0,1,1.52,1.523l.005.231a2.04,2.04,0,0,1-2.5,1.172c-.184-.058-.39-.191-.37-.383.018-.172.206-.267.373-.312" transform="translate(-204.923 -158.182)" fill="#ff725e"/>
              <path id="Trazado_180433" data-name="Trazado 180433" d="M449.85,281.017a2.41,2.41,0,0,1-.048,1.063,3.511,3.511,0,0,1,.708-1.069c.112-.115.275-.231.42-.16s.154.272.127.431a2.58,2.58,0,0,1-.544,1.194,2.85,2.85,0,0,1,1.23-.6.258.258,0,0,1,.234.029c.069.066.048.18.016.27a2.19,2.19,0,0,1-1.645,1.387l-.231-.014a2.039,2.039,0,0,1-.958-2.59c.073-.178.223-.372.412-.337.17.032.249.228.28.4" transform="translate(-230.142 -143.832)" fill="#ff725e"/>
              <path id="Trazado_180434" data-name="Trazado 180434" d="M408.813,314.831c.18.007.348.028.52.044.314-3.463-.736-6.98.322-10.29l-.14.18a7.834,7.834,0,0,1-3.8-.341,4.752,4.752,0,0,1-2.749-2.547,3.437,3.437,0,0,1,.585-3.6,4.039,4.039,0,0,1,4.814-.324,11.383,11.383,0,0,1,3.425,3.608,6.317,6.317,0,0,1,1.656-.952c-1.671-2.3-3.287-4.717-3.814-7.5-.577-3.04.559-6.643,3.381-7.912a6.283,6.283,0,0,1,7.111,1.915c.133.158.245.329.363.5l-.057-.164a4.378,4.378,0,0,1,2.286-2.407,3.718,3.718,0,0,1,3.28.157,3.238,3.238,0,0,1,1.612,2.816,3.608,3.608,0,0,1-2.088,3,5.649,5.649,0,0,1-3.6.333,10.931,10.931,0,0,1-.018,3.23,18.64,18.64,0,0,1-2.736,6.761,6.02,6.02,0,0,1,.985.814c2.178,2.281,2.318,5.942,1.177,8.882s-4.232,5.108-6.377,7.42h0a14.035,14.035,0,0,1,1.648,5.172,4.706,4.706,0,0,1,4.151-2.664,2.314,2.314,0,0,1,2.274,1.313,2.392,2.392,0,0,1-.732,2.241,5.95,5.95,0,0,1-5.489,1.608l-.024-.573a24.894,24.894,0,0,1-.095,3.952H402.85s-3.7-15.026,5.962-14.668" transform="translate(-206.128 -145.943)" fill="#455a64"/>
              <rect id="Rectángulo_38046" data-name="Rectángulo 38046" width="32.733" height="5.802" transform="translate(180.865 183.556)" fill="#79f5ed"/>
              <path id="Trazado_180435" data-name="Trazado 180435" d="M403.907,386.11l-3.98,17.336H380.418l-4.355-17.336Z" transform="translate(-192.754 -197.904)" fill="#79f5ed"/>
              <path id="Trazado_180436" data-name="Trazado 180436" d="M371.086,388.365c0,.063,7.383.115,16.489.115s16.491-.052,16.491-.115-7.382-.115-16.491-.115-16.489.052-16.489.115" transform="translate(-190.203 -199.001)" fill="#263238"/>
              <path id="Trazado_180437" data-name="Trazado 180437" d="M410.548,346.981a.937.937,0,0,1,.189-.108,4.187,4.187,0,0,1,.575-.247,5.63,5.63,0,0,1,2.278-.263,6.943,6.943,0,0,1,3.205,1.123,8.591,8.591,0,0,1,2.754,3.115,12.672,12.672,0,0,1,1.318,3.954,21.252,21.252,0,0,1,.222,3.4c-.006.968-.036,1.749-.056,2.289-.011.254-.02.46-.027.622a.966.966,0,0,1-.021.217,1,1,0,0,1-.016-.217c0-.162,0-.368-.008-.622,0-.564,0-1.339,0-2.287a22.467,22.467,0,0,0-.259-3.368,12.778,12.778,0,0,0-1.313-3.894,8.545,8.545,0,0,0-2.685-3.061,6.916,6.916,0,0,0-3.124-1.134,5.835,5.835,0,0,0-2.244.2c-.514.158-.776.308-.786.286" transform="translate(-210.43 -177.521)" fill="#263238"/>
              <path id="Trazado_180438" data-name="Trazado 180438" d="M416.5,324.444a.571.571,0,0,1-.022-.164c0-.108-.026-.268-.019-.473a7.774,7.774,0,0,1,.2-1.732,8.141,8.141,0,0,1,.961-2.4,6.638,6.638,0,0,1,.928-1.225,5.47,5.47,0,0,1,2.84-1.621,6.384,6.384,0,0,1,1.536-.114,7.532,7.532,0,0,1,2.52.6,8.476,8.476,0,0,1,1.531.835c.173.112.294.218.38.283s.128.1.124.11a5.632,5.632,0,0,1-.543-.332,9.718,9.718,0,0,0-1.541-.775,7.665,7.665,0,0,0-2.478-.549,6.385,6.385,0,0,0-1.49.12,5.433,5.433,0,0,0-1.491.578,5.378,5.378,0,0,0-1.257.992,6.558,6.558,0,0,0-.913,1.188,8.3,8.3,0,0,0-.98,2.346,8.8,8.8,0,0,0-.26,1.7,6.151,6.151,0,0,1-.03.636" transform="translate(-213.46 -162.329)" fill="#263238"/>
              <path id="Trazado_180439" data-name="Trazado 180439" d="M440.244,295.224a6.433,6.433,0,0,1-.117-1.111c-.026-.343-.061-.749-.137-1.194a5.85,5.85,0,0,0-.392-1.4,14.373,14.373,0,0,0-1.264-2.353c-.378-.572-.665-.887-.644-.907s.091.061.227.2a6.7,6.7,0,0,1,.523.633,11.679,11.679,0,0,1,1.328,2.358,5.6,5.6,0,0,1,.389,1.447,10.178,10.178,0,0,1,.1,1.214,7,7,0,0,1-.013,1.118" transform="translate(-224.341 -147.747)" fill="#263238"/>
              <path id="Trazado_180440" data-name="Trazado 180440" d="M439.265,366.365a7.5,7.5,0,0,1,1.765,1.533,7.469,7.469,0,0,1-1.765-1.533" transform="translate(-225.148 -187.781)" fill="#263238"/>
              <path id="Trazado_180441" data-name="Trazado 180441" d="M441.65,363.721a7.68,7.68,0,0,1,2.364-.231,7.723,7.723,0,0,1-2.364.231" transform="translate(-226.371 -186.293)" fill="#263238"/>
              <path id="Trazado_180442" data-name="Trazado 180442" d="M439.841,357.9a209.13,209.13,0,0,1,1.32-1.815,3.569,3.569,0,0,1-1.32,1.815" transform="translate(-225.443 -182.514)" fill="#263238"/>
              <path id="Trazado_180443" data-name="Trazado 180443" d="M436.013,357.888a10.007,10.007,0,0,1-.607,2.639,10.013,10.013,0,0,1,.607-2.639" transform="translate(-223.164 -183.438)" fill="#263238"/>
              <path id="Trazado_180444" data-name="Trazado 180444" d="M434.537,366.436c-.034-.038.185-.29.488-.563s.578-.464.611-.426-.184.29-.488.563-.578.464-.612.426" transform="translate(-222.724 -187.31)" fill="#263238"/>
              <path id="Trazado_180445" data-name="Trazado 180445" d="M424.668,364.174a2.558,2.558,0,0,1,.593-.752c.364-.38.689-.659.726-.624a2.548,2.548,0,0,1-.593.752c-.364.38-.689.659-.726.624" transform="translate(-217.666 -185.954)" fill="#263238"/>
              <path id="Trazado_180446" data-name="Trazado 180446" d="M422.524,354.717a5.468,5.468,0,0,1,1.044-1.705,5.47,5.47,0,0,1-1.044,1.705" transform="translate(-216.565 -180.938)" fill="#263238"/>
              <path id="Trazado_180447" data-name="Trazado 180447" d="M416.165,349.092a7.3,7.3,0,0,1,.031,2.309,7.266,7.266,0,0,1-.031-2.309" transform="translate(-213.268 -178.93)" fill="#263238"/>
              <path id="Trazado_180448" data-name="Trazado 180448" d="M403.058,351.606a38.229,38.229,0,0,1,1.788,2.167,6.3,6.3,0,0,1-1.788-2.167" transform="translate(-206.589 -180.218)" fill="#263238"/>
              <path id="Trazado_180449" data-name="Trazado 180449" d="M401.371,364.539a7.186,7.186,0,0,1,2.255.436,7.225,7.225,0,0,1-2.255-.436" transform="translate(-205.726 -186.838)" fill="#263238"/>
              <path id="Trazado_180450" data-name="Trazado 180450" d="M415.038,366.579a5.079,5.079,0,0,1,1.2-2.368,114.3,114.3,0,0,1-1.2,2.368" transform="translate(-212.727 -186.679)" fill="#263238"/>
              <path id="Trazado_180451" data-name="Trazado 180451" d="M410.368,360.889a4.793,4.793,0,0,1-.042-1.87,4.794,4.794,0,0,1,.042,1.87" transform="translate(-210.278 -184.018)" fill="#263238"/>
              <path id="Trazado_180452" data-name="Trazado 180452" d="M425.2,371.951a3.112,3.112,0,0,1,1.085-1.766,81.67,81.67,0,0,1-1.085,1.766" transform="translate(-217.933 -189.74)" fill="#263238"/>
              <path id="Trazado_180453" data-name="Trazado 180453" d="M408.716,372.742a5.7,5.7,0,0,1-.825-1.87,5.712,5.712,0,0,1,.825,1.87" transform="translate(-209.063 -190.093)" fill="#263238"/>
              <path id="Trazado_180454" data-name="Trazado 180454" d="M433.864,345.773a8.76,8.76,0,0,1,2.53.083,8.763,8.763,0,0,1-2.53-.083" transform="translate(-222.38 -177.198)" fill="#263238"/>
              <path id="Trazado_180455" data-name="Trazado 180455" d="M439.524,334.25a13.167,13.167,0,0,1,2.54-1.8,13.17,13.17,0,0,1-2.54,1.8" transform="translate(-225.281 -170.398)" fill="#263238"/>
              <path id="Trazado_180456" data-name="Trazado 180456" d="M438.936,322.314A544.266,544.266,0,0,0,440.919,321a3.905,3.905,0,0,1-1.983,1.315" transform="translate(-224.98 -164.53)" fill="#263238"/>
              <path id="Trazado_180457" data-name="Trazado 180457" d="M432.582,316.236a12.266,12.266,0,0,1,.715-2.914,12.275,12.275,0,0,1-.715,2.914" transform="translate(-221.718 -160.596)" fill="#263238"/>
              <path id="Trazado_180458" data-name="Trazado 180458" d="M421.986,316.162a6.265,6.265,0,0,1,1.042,1.871,6.284,6.284,0,0,1-1.042-1.871" transform="translate(-216.289 -162.051)" fill="#263238"/>
              <path id="Trazado_180459" data-name="Trazado 180459" d="M412.855,337.16c.035-.041.623.41,1.4.887s1.441.8,1.419.854a6.854,6.854,0,0,1-2.818-1.741" transform="translate(-211.611 -172.813)" fill="#263238"/>
              <path id="Trazado_180460" data-name="Trazado 180460" d="M427.666,340.667a6.594,6.594,0,0,1,1.871-1.153,6.6,6.6,0,0,1-1.871,1.153" transform="translate(-219.203 -174.017)" fill="#263238"/>
              <path id="Trazado_180461" data-name="Trazado 180461" d="M430.148,329.29c-.038-.04.429-.5.863-1.167s.672-1.276.723-1.258a4.058,4.058,0,0,1-1.587,2.426" transform="translate(-220.475 -167.537)" fill="#263238"/>
              <path id="Trazado_180462" data-name="Trazado 180462" d="M425.231,327.089a7.645,7.645,0,0,1,.11-2.365,7.682,7.682,0,0,1-.11,2.365" transform="translate(-217.929 -166.44)" fill="#263238"/>
              <path id="Trazado_180463" data-name="Trazado 180463" d="M422.277,336.957a8.1,8.1,0,0,1-.279-2.419,8.1,8.1,0,0,1,.279,2.419" transform="translate(-216.284 -171.47)" fill="#263238"/>
              <path id="Trazado_180464" data-name="Trazado 180464" d="M415.071,309.6a5031.06,5031.06,0,0,0,.773,2.708,5.475,5.475,0,0,1-.773-2.708" transform="translate(-212.738 -158.686)" fill="#263238"/>
              <path id="Trazado_180465" data-name="Trazado 180465" d="M409.8,325.4a126.531,126.531,0,0,1,2.123-1.547A4.95,4.95,0,0,1,409.8,325.4" transform="translate(-210.045 -165.993)" fill="#263238"/>
              <path id="Trazado_180466" data-name="Trazado 180466" d="M402.613,321.146a57.358,57.358,0,0,1,2.585-.495,5.207,5.207,0,0,1-2.585.495" transform="translate(-206.362 -164.347)" fill="#263238"/>
              <path id="Trazado_180467" data-name="Trazado 180467" d="M409.606,315.691a1.889,1.889,0,0,1,.737.362c.38.243.665.475.638.518a1.89,1.89,0,0,1-.737-.362c-.379-.243-.665-.475-.638-.518" transform="translate(-209.946 -161.806)" fill="#263238"/>
              <path id="Trazado_180468" data-name="Trazado 180468" d="M406.114,309.235a3.35,3.35,0,0,1,1.41,1.619,77.7,77.7,0,0,1-1.41-1.619" transform="translate(-208.156 -158.499)" fill="#263238"/>
              <path id="Trazado_180469" data-name="Trazado 180469" d="M401.358,315.384a32.576,32.576,0,0,1,2.372.638,4.763,4.763,0,0,1-2.372-.638" transform="translate(-205.719 -161.648)" fill="#263238"/>
              <path id="Trazado_180470" data-name="Trazado 180470" d="M434.317,303.771a17.763,17.763,0,0,1,1.046-1.594,17.571,17.571,0,0,1,1.064-1.583,10.553,10.553,0,0,1-2.109,3.177" transform="translate(-222.611 -154.072)" fill="#263238"/>
              <path id="Trazado_180471" data-name="Trazado 180471" d="M432.178,296.716a10.275,10.275,0,0,1,.358-2.719,10.275,10.275,0,0,1-.358,2.719" transform="translate(-221.505 -150.69)" fill="#263238"/>
              <path id="Trazado_180472" data-name="Trazado 180472" d="M424.864,300.748c.054-.01.2.7.557,1.505s.759,1.4.715,1.437a4.891,4.891,0,0,1-1.272-2.942" transform="translate(-217.761 -154.151)" fill="#263238"/>
              <path id="Trazado_180473" data-name="Trazado 180473" d="M416.273,302.57c.042-.034.563.582,1.286,1.258s1.365,1.163,1.334,1.207a7.491,7.491,0,0,1-2.62-2.465" transform="translate(-213.363 -155.084)" fill="#263238"/>
              <path id="Trazado_180474" data-name="Trazado 180474" d="M419.59,286.946c.053-.009.215.765.5,1.693s.587,1.659.538,1.682a7.8,7.8,0,0,1-1.041-3.375" transform="translate(-215.058 -147.076)" fill="#263238"/>
              <path id="Trazado_180475" data-name="Trazado 180475" d="M429.472,281.806a10.118,10.118,0,0,1,.166,2.722,10.175,10.175,0,0,1-.166-2.722" transform="translate(-220.108 -144.442)" fill="#263238"/>
              <path id="Trazado_180476" data-name="Trazado 180476" d="M449.97,295a57.308,57.308,0,0,1,2.076.169A3.2,3.2,0,0,1,449.97,295" transform="translate(-230.635 -151.197)" fill="#263238"/>
              <path id="Trazado_180477" data-name="Trazado 180477" d="M449.365,288.213a15.068,15.068,0,0,1,2.941-1.561,15.07,15.07,0,0,1-2.941,1.561" transform="translate(-230.325 -146.924)" fill="#263238"/>
              <path id="Trazado_180478" data-name="Trazado 180478" d="M443.825,287.41a9.368,9.368,0,0,1,.786-2.5,9.367,9.367,0,0,1-.786,2.5" transform="translate(-227.481 -146.03)" fill="#263238"/>
              <g id="Grupo_112581" data-name="Grupo 112581" transform="translate(203.127 168.519)" opacity="0.3">
                <g id="Grupo_112580" data-name="Grupo 112580">
                  <g id="Grupo_112579" data-name="Grupo 112579" clip-path="url(#clip-path-6)">
                    <path id="Trazado_180479" data-name="Trazado 180479" d="M422.387,349.722a4.316,4.316,0,0,0-1.843-3.386,4.11,4.11,0,0,0-3.823-.255,5.909,5.909,0,0,1,3.354,1.157,9.4,9.4,0,0,1,2.312,2.484" transform="translate(-416.721 -345.721)"/>
                  </g>
                </g>
              </g>
              <g id="Grupo_112584" data-name="Grupo 112584" transform="translate(207.302 153.549)" opacity="0.3">
                <g id="Grupo_112583" data-name="Grupo 112583">
                  <g id="Grupo_112582" data-name="Grupo 112582" clip-path="url(#clip-path-7)">
                    <path id="Trazado_180480" data-name="Trazado 180480" d="M431.045,317.1a3.739,3.739,0,0,0-2.634-2.052,3.561,3.561,0,0,0-3.124,1.119,5.12,5.12,0,0,1,3.064-.241,8.152,8.152,0,0,1,2.7,1.174" transform="translate(-425.286 -315.01)"/>
                  </g>
                </g>
              </g>
              <g id="Grupo_112587" data-name="Grupo 112587" transform="translate(214.243 141.588)" opacity="0.3">
                <g id="Grupo_112586" data-name="Grupo 112586">
                  <g id="Grupo_112585" data-name="Grupo 112585" clip-path="url(#clip-path-8)">
                    <path id="Trazado_180481" data-name="Trazado 180481" d="M441.165,294.486a2.959,2.959,0,0,0,.181-2.551,2.5,2.5,0,0,0-1.821-1.463,7.713,7.713,0,0,1,1.617,4.063" transform="translate(-439.525 -290.471)"/>
                  </g>
                </g>
              </g>
              <path id="Trazado_180482" data-name="Trazado 180482" d="M404.267,349.277c.01.013-.145.134-.373.4a7.316,7.316,0,0,0-.837,1.228,13.359,13.359,0,0,0-1.2,4.736,21.572,21.572,0,0,0,.243,4.915c.1.625.192,1.128.256,1.477a2.9,2.9,0,0,1,.083.545,2.835,2.835,0,0,1-.16-.528c-.089-.344-.2-.845-.32-1.47a19.46,19.46,0,0,1-.3-4.954,12.6,12.6,0,0,1,1.278-4.79,6.294,6.294,0,0,1,.9-1.212,1.483,1.483,0,0,1,.431-.349" transform="translate(-205.847 -179.025)" fill="#263238"/>
              <path id="Trazado_180483" data-name="Trazado 180483" d="M403.711,376.472a.381.381,0,0,1-.1.009l-.292.009-1.123.018-4.13.029-13.625.027-13.463-.026.066-.066c-.007,1.784-.012,3.233-.016,4.251-.006.491-.011.877-.014,1.155,0,.123-.006.222-.008.3a.4.4,0,0,1-.009.1.453.453,0,0,1-.01-.1c0-.078-.006-.177-.01-.3,0-.277-.012-.664-.021-1.155-.01-1.017-.025-2.466-.043-4.25v-.066h.066l13.463-.026,13.625.027,4.13.029,1.123.018.292.009a.384.384,0,0,1,.1.009" transform="translate(-190.114 -192.917)" fill="#263238"/>
              <path id="Trazado_180484" data-name="Trazado 180484" d="M83.275,200.163a2.006,2.006,0,1,1-2.006-2.006,2.006,2.006,0,0,1,2.006,2.006" transform="translate(-40.627 -101.567)" fill="#fff"/>
              <path id="Trazado_180485" data-name="Trazado 180485" d="M83.141,200.049c-.024,0-.023-.178-.111-.478a2,2,0,0,0-.736-1.046,1.9,1.9,0,1,0,0,3.047,2,2,0,0,0,.736-1.046c.087-.3.087-.479.111-.478a1.041,1.041,0,0,1-.015.5,2,2,0,0,1-.723,1.164,2.087,2.087,0,0,1-1.991.329,2.115,2.115,0,0,1,0-3.988,2.089,2.089,0,0,1,1.991.328,2,2,0,0,1,.723,1.164,1.043,1.043,0,0,1,.015.5" transform="translate(-40.493 -101.453)" fill="#263238"/>
              <path id="Trazado_180486" data-name="Trazado 180486" d="M43.92,183.212a11.473,11.473,0,1,0-12.46-10.393,11.473,11.473,0,0,0,12.46,10.393" transform="translate(-16.1 -82.169)" fill="#fff"/>
              <path id="Trazado_180487" data-name="Trazado 180487" d="M43.811,183.09a1.007,1.007,0,0,1-.185.02l-.545.034-.4.022c-.149,0-.31-.013-.486-.02a8.154,8.154,0,0,1-1.21-.113,10.879,10.879,0,0,1-3.182-.967,11.55,11.55,0,0,1-6.156-7.251,11.6,11.6,0,0,1-.063-6.1,10.665,10.665,0,0,1,1.3-3.067,13,13,0,0,1,.992-1.412,13.143,13.143,0,0,1,1.235-1.255,11.223,11.223,0,0,1,3.031-1.942,11.484,11.484,0,0,1,7.291-.66,11.224,11.224,0,0,1,3.332,1.366,10.617,10.617,0,0,1,2.67,2.224,10.656,10.656,0,0,1,1.831,2.783,11.6,11.6,0,0,1,1.034,6.017A11.55,11.55,0,0,1,49.542,181a10.864,10.864,0,0,1-2.957,1.522,8.157,8.157,0,0,1-1.169.329c-.172.039-.329.081-.475.107l-.4.05-.543.064a.986.986,0,0,1-.186.013,1.012,1.012,0,0,1,.183-.039l.538-.089.4-.062c.145-.03.3-.076.469-.118a8.414,8.414,0,0,0,1.154-.348,10.974,10.974,0,0,0,2.906-1.544,11.372,11.372,0,0,0,3.593-14.04,10.418,10.418,0,0,0-1.8-2.721,10.384,10.384,0,0,0-2.618-2.172,10.991,10.991,0,0,0-3.261-1.333,11.248,11.248,0,0,0-7.132.646,10.985,10.985,0,0,0-2.968,1.9,10.371,10.371,0,0,0-2.185,2.606,10.437,10.437,0,0,0-1.282,3,11.4,11.4,0,0,0,6.055,13.167,10.952,10.952,0,0,0,3.136,1,8.412,8.412,0,0,0,1.2.135c.175.011.335.028.483.031l.4-.01.545-.009a1,1,0,0,1,.187.005" transform="translate(-15.992 -82.046)" fill="#263238"/>
              <path id="Trazado_180488" data-name="Trazado 180488" d="M50.1,184.013l-4.661-3.444,1.2-1.627,3.125,2.31,4.264-5.125,1.554,1.294Z" transform="translate(-23.29 -90.275)" fill="#79f5ed"/>
              <path id="Trazado_180489" data-name="Trazado 180489" d="M59.655,394.825,57.17,415.9h3.817l6.835-21.078Z" transform="translate(-29.303 -202.371)" fill="#e0e0e0"/>
              <path id="Trazado_180490" data-name="Trazado 180490" d="M88.25,378.266l-2.485,21.078h3.817l6.835-21.078Z" transform="translate(-43.959 -193.883)" fill="#e0e0e0"/>
              <path id="Trazado_180491" data-name="Trazado 180491" d="M187.351,394.825l2.709,21.078H185.9l-7.451-21.078Z" transform="translate(-91.466 -202.371)" fill="#e0e0e0"/>
              <path id="Trazado_180492" data-name="Trazado 180492" d="M160.783,379.324l2.709,21.078h-4.161l-7.451-21.078Z" transform="translate(-77.848 -194.426)" fill="#e0e0e0"/>
              <path id="Trazado_180493" data-name="Trazado 180493" d="M48.961,235.113s-10.43.737-17.424,4.338c-5.491,2.827-8.158,6.788-9.236,16.75s-8.083,12.008-8.263,15.418c-.175,3.327,1.53,17.555,13.793,46.029A3.569,3.569,0,0,0,31.11,319.8h42.5V234.446Z" transform="translate(-7.189 -120.167)" fill="#455a64"/>
              <path id="Trazado_180494" data-name="Trazado 180494" d="M142.861,235.113s10.43.737,17.424,4.338c5.491,2.827,8.158,6.788,9.236,16.75s8.083,12.008,8.263,15.418c.176,3.338-1.542,17.652-13.918,46.32a3.089,3.089,0,0,1-2.835,1.864H118.209V234.446Z" transform="translate(-60.589 -120.167)" fill="#455a64"/>
              <path id="Trazado_180495" data-name="Trazado 180495" d="M190.36,380a4.111,4.111,0,0,1,.754-.14,6.958,6.958,0,0,1,2.094.1,5.369,5.369,0,0,1,2.72,1.492,8.608,8.608,0,0,1,1.909,3.29,18.53,18.53,0,0,1,.816,3.712c.146,1.158.2,2.208.231,3.088s.022,1.593.011,2.085a4.22,4.22,0,0,1-.046.764,4.571,4.571,0,0,1-.053-.763c-.019-.491-.042-1.2-.091-2.078s-.126-1.919-.284-3.065a19.33,19.33,0,0,0-.824-3.66,8.574,8.574,0,0,0-1.836-3.209,5.291,5.291,0,0,0-2.593-1.481A10.063,10.063,0,0,0,190.36,380" transform="translate(-97.57 -194.682)" fill="#263238"/>
              <path id="Trazado_180496" data-name="Trazado 180496" d="M124.948,355.168c0,.07-15.78.127-35.242.127s-35.244-.057-35.244-.127,15.777-.127,35.244-.127,35.242.057,35.242.127" transform="translate(-27.915 -181.979)" fill="#263238"/>
              <path id="Trazado_180497" data-name="Trazado 180497" d="M53.31,378.928a4.057,4.057,0,0,1-.725.084c-.233.015-.512.086-.838.136-.163.027-.33.091-.51.138a3.106,3.106,0,0,0-.557.2,5.678,5.678,0,0,0-2.3,1.709,8.481,8.481,0,0,0-1.518,3.193,16.74,16.74,0,0,0-.489,3.549,26.557,26.557,0,0,0,.051,2.939c.058.836.137,1.511.194,1.977a5.226,5.226,0,0,1,.077.727,3.276,3.276,0,0,1-.174-.712c-.088-.463-.194-1.137-.275-1.977a23.537,23.537,0,0,1-.106-2.962,16.151,16.151,0,0,1,.477-3.605,8.5,8.5,0,0,1,1.582-3.277,5.72,5.72,0,0,1,2.416-1.728,3.125,3.125,0,0,1,.578-.184c.187-.042.359-.1.527-.122.335-.038.621-.1.857-.1a3.992,3.992,0,0,1,.734.014" transform="translate(-23.644 -194.214)" fill="#263238"/>
              <path id="Trazado_180498" data-name="Trazado 180498" d="M37.081,340.993a.433.433,0,0,1-.052-.113l-.127-.341c-.11-.3-.27-.746-.443-1.328-.367-1.159-.829-2.856-1.381-4.957l-1.9-7.388c-.721-2.778-1.518-5.832-2.483-9a48.116,48.116,0,0,0-1.605-4.546,9.511,9.511,0,0,0-.488-1.042c-.166-.34-.351-.671-.545-1-.374-.653-.731-1.295-1.106-1.9a9.638,9.638,0,0,0-2.637-3.009,7.718,7.718,0,0,0-3.252-1.223,8.985,8.985,0,0,0-4.981.718,11.55,11.55,0,0,0-1.618.951.51.51,0,0,1,.091-.085l.284-.229a7.732,7.732,0,0,1,1.2-.727,8.92,8.92,0,0,1,5.048-.807,7.863,7.863,0,0,1,3.347,1.228,9.792,9.792,0,0,1,2.717,3.06c.382.612.742,1.255,1.117,1.9.193.32.38.651.552,1a9.5,9.5,0,0,1,.5,1.058,47.346,47.346,0,0,1,1.62,4.57c.966,3.174,1.757,6.232,2.466,9.014.694,2.781,1.319,5.288,1.846,7.4s.965,3.807,1.3,4.973c.158.586.3,1.034.4,1.34.041.141.076.256.1.349a.52.52,0,0,1,.027.122" transform="translate(-7.415 -156.278)" fill="#263238"/>
              <path id="Trazado_180499" data-name="Trazado 180499" d="M112.44,335.94s-.148.008-.436.012l-1.281.008-4.925.008-18.114-.019-12.509-.025-6.968-.045c-1.2,0-2.412,0-3.637.063a5.622,5.622,0,0,0-.89.1,6.074,6.074,0,0,0-.828.383c-.545.294-1.081.619-1.612.957-1.061.679-2.107,1.415-3.133,2.2a28.571,28.571,0,0,0-2.959,2.55,6.4,6.4,0,0,0-1.186,1.541,1.209,1.209,0,0,0-.118.432,2.588,2.588,0,0,0,.09.463l.239.98c.325,1.31.667,2.629,1.018,3.959s.72,2.666,1.085,4.016l.58,2.022c.1.336.2.675.321,1,.015.045.028.059.039.092.005.011.01.037.015.036s0-.011,0-.008c.081.012.161.025.25.032.172.018.349.027.525.039,2.831.135,5.717.161,8.632.206,11.67.14,22.79.151,32.9.129,5.056-.015,9.86-.043,14.356-.1,2.248-.032,4.419-.068,6.5-.144.521-.021,1.036-.043,1.543-.082q.19-.013.376-.036c.064-.005.12-.018.179-.028a.18.18,0,0,0,.115-.067,2.171,2.171,0,0,0,.346-.623,23.693,23.693,0,0,0,.853-2.793c.469-1.851.848-3.632,1.2-5.317l.258-1.247a4.675,4.675,0,0,0,.171-1.2,4.183,4.183,0,0,0-1.064-2.017,22.183,22.183,0,0,0-3.112-2.839c-1.024-.8-1.987-1.5-2.847-2.133a16.566,16.566,0,0,0-2.334-1.6,8.263,8.263,0,0,0-3.212-.873c-.143-.013-.253-.012-.326-.017s-.11-.009-.11-.009.148-.01.437,0a7.6,7.6,0,0,1,1.273.154,8.016,8.016,0,0,1,1.972.678,16.443,16.443,0,0,1,2.358,1.59c.864.629,1.832,1.32,2.863,2.117a22.174,22.174,0,0,1,3.146,2.843,4.306,4.306,0,0,1,1.107,2.093,4.774,4.774,0,0,1-.168,1.242l-.253,1.248c-.347,1.688-.72,3.471-1.185,5.328a23.759,23.759,0,0,1-.853,2.821,2.28,2.28,0,0,1-.386.686.384.384,0,0,1-.207.118c-.066.011-.134.026-.2.031-.129.017-.257.029-.385.039-.513.04-1.029.064-1.551.087-2.088.081-4.259.122-6.507.159-4.5.07-9.3.1-14.359.127-10.113.035-21.232.031-32.906-.109-2.918-.046-5.8-.072-8.643-.208-.178-.012-.355-.021-.536-.04-.088-.007-.182-.021-.277-.037a.5.5,0,0,1-.121-.052c-.03-.023-.033-.049-.05-.075a1.06,1.06,0,0,1-.071-.15c-.123-.341-.225-.678-.326-1.018q-.291-1.018-.581-2.027l-1.084-4.02c-.349-1.331-.691-2.651-1.016-3.962l-.238-.983a2.574,2.574,0,0,1-.1-.523,1.437,1.437,0,0,1,.14-.529,6.583,6.583,0,0,1,1.235-1.61,28.8,28.8,0,0,1,2.988-2.57q1.549-1.179,3.152-2.2c.535-.34,1.075-.666,1.629-.964a6.215,6.215,0,0,1,.864-.4,5.423,5.423,0,0,1,.95-.107c1.236-.059,2.451-.058,3.65-.058l6.968.058,12.509.056,18.114.1,4.925.04,1.281.017c.289.005.436.015.436.015" transform="translate(-27.473 -172.043)" fill="#263238"/>
              <path id="Trazado_180500" data-name="Trazado 180500" d="M195.92,341.406a.462.462,0,0,1,.025-.122l.1-.348c.091-.3.23-.751.369-1.338.309-1.165.677-2.873,1.111-4.987l1.487-7.436c.572-2.8,1.2-5.874,2.044-9.065a38.089,38.089,0,0,1,1.494-4.586c.157-.359.346-.7.516-1.049s.388-.656.584-.976a20.626,20.626,0,0,1,1.273-1.8,11.778,11.778,0,0,1,3-2.751,8.389,8.389,0,0,1,3.344-1.176,8.916,8.916,0,0,1,5.017.815,7.676,7.676,0,0,1,1.192.725l.282.227a.463.463,0,0,1,.091.084,11.543,11.543,0,0,0-1.607-.947,8.982,8.982,0,0,0-4.951-.727,8.258,8.258,0,0,0-3.258,1.177,11.646,11.646,0,0,0-2.929,2.717,20.65,20.65,0,0,0-1.251,1.784c-.194.316-.4.633-.576.968s-.347.672-.5,1.025a38.487,38.487,0,0,0-1.477,4.554c-.837,3.181-1.475,6.253-2.06,9.046s-1.083,5.316-1.54,7.426-.853,3.815-1.192,4.976c-.154.584-.31,1.028-.416,1.328l-.122.341a.447.447,0,0,1-.05.113" transform="translate(-100.42 -156.691)" fill="#263238"/>
              <path id="Trazado_180501" data-name="Trazado 180501" d="M187.56,250.278c.068.017-2.156,9.418-4.968,21s-5.147,20.955-5.215,20.939,2.155-9.416,4.968-21,5.146-20.953,5.214-20.937" transform="translate(-90.915 -128.282)" fill="#263238"/>
              <path id="Trazado_180502" data-name="Trazado 180502" d="M55.089,256.421a2.492,2.492,0,0,1,.139.387l.35,1.123,1.235,4.144c1.028,3.5,2.414,8.355,3.9,13.726s2.775,10.25,3.688,13.786l1.063,4.192q.173.718.274,1.144a2.5,2.5,0,0,1,.079.4,2.419,2.419,0,0,1-.129-.39l-.321-1.131c-.275-1.009-.664-2.427-1.141-4.171-.968-3.543-2.294-8.4-3.759-13.764-1.491-5.357-2.84-10.206-3.824-13.744l-1.158-4.167-.3-1.136a2.462,2.462,0,0,1-.09-.4" transform="translate(-28.235 -131.431)" fill="#263238"/>
              <path id="Trazado_180503" data-name="Trazado 180503" d="M94.159,132.356a2.987,2.987,0,0,1,2.753-2.721,3.051,3.051,0,0,1,1.272-4.072,4.017,4.017,0,0,1,4.431.7,3.07,3.07,0,0,1,5.7,1.691,2.514,2.514,0,0,1,3.009,1.982,3.624,3.624,0,0,1-1.608,3.5,1.585,1.585,0,0,1,.054,2.215,3.7,3.7,0,0,1-2.2,1.041l-5.137,1.523a4.909,4.909,0,0,1-4.067.53,2.814,2.814,0,0,1-1.767-3.383,2.987,2.987,0,0,1-2.435-3.009" transform="translate(-48.26 -63.962)" fill="#263238"/>
              <path id="Trazado_180504" data-name="Trazado 180504" d="M94.254,136.119a.84.84,0,0,1,.179-.174,2.049,2.049,0,0,1,.646-.325,2.415,2.415,0,0,1,1.151-.052,2.221,2.221,0,0,1,1.323.782l-.155.047a3.063,3.063,0,0,1,.809-1.867,3.906,3.906,0,0,1,2.062-1.187,4.532,4.532,0,0,1,2.64.3,6.573,6.573,0,0,1,2.336,1.665,3.147,3.147,0,0,1,.723,1.221,1.636,1.636,0,0,1-.207,1.38,1.323,1.323,0,0,1-.533.467,1.058,1.058,0,0,1-.7.061,1.325,1.325,0,0,1-.906-.933,1.525,1.525,0,0,1,.232-1.211,1.99,1.99,0,0,1,.889-.736,3.543,3.543,0,0,1,2.011-.164,4.571,4.571,0,0,1,2.52,1.384,4,4,0,0,1,.478.627,1.1,1.1,0,0,1,.123.246,8.4,8.4,0,0,0-.672-.8,4.6,4.6,0,0,0-2.479-1.276,3.392,3.392,0,0,0-1.895.18,1.781,1.781,0,0,0-.786.664,1.3,1.3,0,0,0-.194,1.029,1.093,1.093,0,0,0,.74.759.9.9,0,0,0,.97-.433,1.384,1.384,0,0,0,.17-1.174,2.907,2.907,0,0,0-.669-1.119,5.309,5.309,0,0,0-4.74-1.9,3.719,3.719,0,0,0-1.957,1.1,2.9,2.9,0,0,0-.789,1.738l-.019.226-.136-.178A2.1,2.1,0,0,0,96.2,135.7a2.381,2.381,0,0,0-1.1.009,2.759,2.759,0,0,0-.85.408" transform="translate(-48.31 -68.304)" fill="#455a64"/>
              <path id="Trazado_180505" data-name="Trazado 180505" d="M96.262,140.57c.005,0-.01.047-.051.129a1.123,1.123,0,0,1-.265.307,1.356,1.356,0,0,1-.6.271,1.244,1.244,0,0,1-.876-.151l-.468-.285.527.159.556.167.693.209-.723-.055a1.393,1.393,0,0,1-.871-2.373l.163.137a3,3,0,0,1-5.32-.884,2.847,2.847,0,0,1,.207-2.369,1.515,1.515,0,0,1,2.053-.6l-.14.189a2.152,2.152,0,0,1-.718-1.457,2.383,2.383,0,0,1,.327-1.439,1.9,1.9,0,0,1,1.026-.812,2.287,2.287,0,0,1,2.444.719,1.318,1.318,0,0,1,.26.49c-.02.01-.087-.177-.318-.441a2.218,2.218,0,0,0-1.3-.692,2.093,2.093,0,0,0-1.032.087,1.721,1.721,0,0,0-.913.751,2.192,2.192,0,0,0-.278,1.317,1.933,1.933,0,0,0,.651,1.3l-.14.189a1.278,1.278,0,0,0-1.712.532,2.609,2.609,0,0,0-.177,2.156,2.779,2.779,0,0,0,4.9.843l.164.136a1.228,1.228,0,0,0-.25,1.357,1.254,1.254,0,0,0,.984.707l-.031.154-.551-.183.059-.127a1.141,1.141,0,0,0,.782.161,1.32,1.32,0,0,0,.569-.222,1.766,1.766,0,0,0,.361-.376" transform="translate(-45.55 -67.457)" fill="#263238"/>
              <path id="Trazado_180506" data-name="Trazado 180506" d="M128.058,134.829a6.459,6.459,0,0,0,.433-.638,3,3,0,0,0,.3-2.006,2.816,2.816,0,0,0-1.987-2.094,2.713,2.713,0,0,0-.859-.1.938.938,0,0,0-.743.319.4.4,0,0,0,.137.639,1.224,1.224,0,0,0,.889-.072,2.373,2.373,0,0,0,1.332-1.273,1.933,1.933,0,0,0-.125-1.687,2.879,2.879,0,0,0-2.513-1.435,3.035,3.035,0,0,0-1.909.693c-.381.316-.529.558-.548.542s.024-.067.1-.178a2.61,2.61,0,0,1,.385-.439,3.04,3.04,0,0,1,1.972-.8,3.141,3.141,0,0,1,1.462.324,2.882,2.882,0,0,1,1.257,1.177,2.163,2.163,0,0,1,.151,1.893,2.607,2.607,0,0,1-1.47,1.417,1.452,1.452,0,0,1-1.082.067.624.624,0,0,1-.376-.459.748.748,0,0,1,.137-.555,1.169,1.169,0,0,1,.934-.418,2.925,2.925,0,0,1,.937.121,2.93,2.93,0,0,1,1.7,4.374,2.46,2.46,0,0,1-.36.46c-.1.091-.153.135-.158.128" transform="translate(-62.77 -64.735)" fill="#263238"/>
              <path id="Trazado_180507" data-name="Trazado 180507" d="M102.058,148.383c.579-1.108,2.174-1.249,3.323-.757a2.262,2.262,0,0,1,3.51-2.151c.275.185.546.443.877.421.347-.023.585-.341.836-.581a2.288,2.288,0,1,1,2.929,3.5l-.157-.61a12.95,12.95,0,0,1-7.035,3.424,4.969,4.969,0,0,1-3.246-.408,2.283,2.283,0,0,1-1.036-2.842" transform="translate(-52.213 -74.18)" fill="#79f5ed"/>
              <path id="Trazado_180508" data-name="Trazado 180508" d="M95.418,159.589a4.127,4.127,0,0,1,.188-4.767,3.937,3.937,0,0,1,1.574-1.158,4.957,4.957,0,0,1,1.13-2.871,3.011,3.011,0,0,1,4.109-.475,3.737,3.737,0,0,1,5.124-1.571,3.981,3.981,0,0,1,5.949.214,2.762,2.762,0,0,1,4.284,2.713,3.017,3.017,0,0,1,3.311,4.055,2.231,2.231,0,0,1,1.324,3.922,3.17,3.17,0,0,1-.673,4.566,2.637,2.637,0,0,1-1.762,3.035l-18.428,5.478a3.976,3.976,0,0,1-4.061-4.1,2.831,2.831,0,0,1-1.557-4.02,3.175,3.175,0,0,1-.512-5.017" transform="translate(-48.395 -75.61)" fill="#263238"/>
              <path id="Trazado_180509" data-name="Trazado 180509" d="M108.935,161.115l11.3-2.509c3.605-.275,5.865,4.22,5.987,7.834a64.266,64.266,0,0,1-.419,11.9c-1.13,5.984-5.761,6.615-5.761,6.615,0-.02-.017.09-.1,1.874l-.081,2.9a5.016,5.016,0,0,1-1.2,3.2c-1.78,2-4.777,2.083-8.2.543-1.984-.893-1.861-2.018-2.1-4.787l-1.608-26.169a3.131,3.131,0,0,1,2.184-1.4" transform="translate(-54.716 -81.289)" fill="#d8765f"/>
              <path id="Trazado_180510" data-name="Trazado 180510" d="M140.246,185.056a.771.771,0,0,1-.766.756.738.738,0,0,1-.775-.718.772.772,0,0,1,.765-.757.738.738,0,0,1,.776.719" transform="translate(-71.094 -94.483)" fill="#263238"/>
              <path id="Trazado_180511" data-name="Trazado 180511" d="M140.614,180.113c-.1.1-.67-.351-1.5-.374s-1.45.375-1.537.271c-.043-.046.059-.225.33-.41a2.113,2.113,0,0,1,1.234-.341,2.033,2.033,0,0,1,1.19.423c.25.2.33.388.282.431" transform="translate(-70.511 -91.88)" fill="#263238"/>
              <path id="Trazado_180512" data-name="Trazado 180512" d="M125.464,184.57a.771.771,0,0,1-.766.756.738.738,0,0,1-.775-.718.772.772,0,0,1,.766-.757.738.738,0,0,1,.775.719" transform="translate(-63.518 -94.234)" fill="#263238"/>
              <path id="Trazado_180513" data-name="Trazado 180513" d="M124.519,180.113c-.1.1-.671-.351-1.5-.373s-1.45.375-1.537.271c-.042-.046.059-.225.331-.41a2.113,2.113,0,0,1,1.234-.341,2.034,2.034,0,0,1,1.19.423c.249.2.33.388.282.431" transform="translate(-62.262 -91.88)" fill="#263238"/>
              <path id="Trazado_180514" data-name="Trazado 180514" d="M132.333,185.137a5.5,5.5,0,0,1,1.355-.2c.213-.016.414-.052.454-.2a1.077,1.077,0,0,0-.123-.632l-.58-1.631a27.8,27.8,0,0,1-1.284-4.261,27.787,27.787,0,0,1,1.624,4.148q.29.858.553,1.64a1.226,1.226,0,0,1,.085.835.532.532,0,0,1-.357.3,1.445,1.445,0,0,1-.361.039,5.387,5.387,0,0,1-1.366-.038" transform="translate(-67.732 -91.345)" fill="#263238"/>
              <path id="Trazado_180515" data-name="Trazado 180515" d="M125.677,210.164a15.3,15.3,0,0,1-7.989-2.383s1.868,4.266,7.9,3.879Z" transform="translate(-60.322 -106.5)" fill="#7c4236"/>
              <path id="Trazado_180516" data-name="Trazado 180516" d="M126.577,195.27a1.2,1.2,0,0,1,1.016-.516,1.564,1.564,0,0,1,1.4.748.973.973,0,0,1,.042.7c-.056.117-.013.06-.108.139a2.741,2.741,0,0,1-1.139.661,1.175,1.175,0,0,1-1.227-.492,1.2,1.2,0,0,1,.011-1.244" transform="translate(-64.786 -99.823)" fill="#7c4236"/>
              <path id="Trazado_180517" data-name="Trazado 180517" d="M127.025,193.5c.135,0,.116.9.872,1.553s1.717.581,1.721.707c.011.057-.218.17-.623.171a2.243,2.243,0,0,1-1.438-.539,1.954,1.954,0,0,1-.673-1.3c-.025-.377.08-.6.142-.592" transform="translate(-65.033 -99.18)" fill="#263238"/>
              <path id="Trazado_180518" data-name="Trazado 180518" d="M124,172.983c-.076.228-.907.145-1.877.29-.973.125-1.75.433-1.885.234-.06-.1.071-.311.382-.539a3.307,3.307,0,0,1,2.866-.4c.362.134.546.306.514.414" transform="translate(-61.622 -88.368)" fill="#263238"/>
              <path id="Trazado_180519" data-name="Trazado 180519" d="M140.175,173.94c-.173.179-.8-.051-1.567-.1-.765-.075-1.423.049-1.562-.156-.06-.1.052-.282.346-.445a2.363,2.363,0,0,1,1.291-.239,2.334,2.334,0,0,1,1.229.447c.261.208.339.407.262.495" transform="translate(-70.236 -88.667)" fill="#263238"/>
              <path id="Trazado_180520" data-name="Trazado 180520" d="M134.592,157.3c.007.044.013.088.02.132l-.021.007c0-.046,0-.093,0-.139" transform="translate(-68.985 -80.624)" fill="#263238"/>
              <path id="Trazado_180521" data-name="Trazado 180521" d="M106.357,184.825a.784.784,0,0,0-.62-.817c-.971-.207-2.692-.21-2.863,2.233-.236,3.379,3.205,2.92,3.218,2.823.01-.075.186-2.949.264-4.239" transform="translate(-52.723 -94.272)" fill="#d8765f"/>
              <path id="Trazado_180522" data-name="Trazado 180522" d="M106.056,188.835c-.014-.012-.062.037-.165.076a.591.591,0,0,1-.441-.021,1.461,1.461,0,0,1-.583-1.355,1.946,1.946,0,0,1,.224-.831.682.682,0,0,1,.474-.421.3.3,0,0,1,.336.186c.039.1.013.164.03.171s.077-.052.059-.193a.374.374,0,0,0-.118-.221.444.444,0,0,0-.319-.109.829.829,0,0,0-.652.481,2,2,0,0,0-.27.928,1.532,1.532,0,0,0,.757,1.52.633.633,0,0,0,.545-.052c.111-.077.134-.151.122-.157" transform="translate(-53.629 -95.395)" fill="#7c4236"/>
              <path id="Trazado_180523" data-name="Trazado 180523" d="M133.522,167.437a2.1,2.1,0,0,1-2.1-2.529,2.186,2.186,0,0,1-2.154-2.771,2.716,2.716,0,0,1-3.843-1.83.789.789,0,0,1-.428.655,1.438,1.438,0,0,1-.8.14,2.547,2.547,0,0,1-2.1-1.48,2.286,2.286,0,0,1-2.788.895c-.358-.157-.707-.49-.646-.876a1.006,1.006,0,0,1,.176-.387,6.307,6.307,0,0,1,4.748-2.574,13.542,13.542,0,0,1,5.477.884,7.235,7.235,0,0,1,2.864,1.548A8.131,8.131,0,0,1,133.6,162.2a13.354,13.354,0,0,1,.725,2.468,4.474,4.474,0,0,1-.256,2.528l-.233.02" transform="translate(-60.819 -80.289)" fill="#263238"/>
              <path id="Trazado_180524" data-name="Trazado 180524" d="M110.708,160.057a3.18,3.18,0,0,1-2.62,3.02,1.576,1.576,0,0,1-.866,3.02,3.851,3.851,0,0,1,.392,1.534,1.314,1.314,0,0,1-.819,1.249,1.515,1.515,0,0,1,.388,1.33,1.252,1.252,0,0,1-1.229.964c-.5,0-.9-.611-1.394-.7a2.38,2.38,0,0,0-2.071.628l-.621-6.3.763-5.052,2.95-2.157,5.686,1.016Z" transform="translate(-52.213 -80.771)" fill="#263238"/>
              <path id="Trazado_180525" data-name="Trazado 180525" d="M100.581,161.506a4.042,4.042,0,0,0,.6-.066,1.639,1.639,0,0,0,1.128-.992l.14-.376.056.4a1.942,1.942,0,0,0,.725,1.235,1.8,1.8,0,0,0,1.6.32,1.874,1.874,0,0,0,.936-.568l.109-.125.089.139a2.63,2.63,0,0,0,1.294,1.036,2.59,2.59,0,0,0,1.334.12,4.121,4.121,0,0,0,1.157-.444c.008.01-.072.1-.255.228a2.536,2.536,0,0,1-.871.373,2.653,2.653,0,0,1-1.437-.074,2.789,2.789,0,0,1-1.43-1.106l.2.014a2.1,2.1,0,0,1-1.059.651,2.029,2.029,0,0,1-1.814-.378,2.114,2.114,0,0,1-.777-1.4l.2.023a1.716,1.716,0,0,1-1.295,1.035.968.968,0,0,1-.621-.046" transform="translate(-51.553 -82.046)" fill="#455a64"/>
              <path id="Trazado_180526" data-name="Trazado 180526" d="M116.081,149.44a12.537,12.537,0,0,0-1.252.686,2.616,2.616,0,0,0-.924,1.163,1.616,1.616,0,0,0,.264,1.674,1.243,1.243,0,0,0,.493.34l.149.055-.086.132a1.582,1.582,0,0,0-.025,1.5,2.817,2.817,0,0,0,.826,1c.6.461,1.011.685.989.721-.008.014-.117-.029-.307-.123a5.866,5.866,0,0,1-.783-.464,2.842,2.842,0,0,1-.927-1.033,1.783,1.783,0,0,1,.017-1.73l.063.187a1.477,1.477,0,0,1-.6-.407,1.833,1.833,0,0,1-.292-1.928,2.7,2.7,0,0,1,1.039-1.225,3.972,3.972,0,0,1,.971-.456,1.011,1.011,0,0,1,.384-.082" transform="translate(-58.194 -76.594)" fill="#455a64"/>
              <path id="Trazado_180527" data-name="Trazado 180527" d="M152.359,185.614c0,.008-.037.03-.118.065a1.467,1.467,0,0,1-.375.086,1.915,1.915,0,0,1-1.347-.4,1.916,1.916,0,0,1,.088-3.007,1.184,1.184,0,0,1,.667-.232.841.841,0,0,1,.678.326.729.729,0,0,1,.044.756,1.228,1.228,0,0,1-.485.512,1.807,1.807,0,0,1-1.263.165,2.194,2.194,0,0,1-1.011-.532,2.243,2.243,0,0,1-.545-.829,2.727,2.727,0,0,1-.131-1.4,1.23,1.23,0,0,1,.15-.491c.021.006-.027.181-.052.5a2.864,2.864,0,0,0,.2,1.32,2.112,2.112,0,0,0,.52.74,2.009,2.009,0,0,0,.918.458,1.586,1.586,0,0,0,1.088-.15c.319-.178.583-.611.362-.9a.592.592,0,0,0-.472-.222.944.944,0,0,0-.526.183,1.63,1.63,0,0,0-.626.91,1.666,1.666,0,0,0,.509,1.752,1.9,1.9,0,0,0,1.229.436c.319,0,.491-.075.5-.052" transform="translate(-76.126 -92.588)" fill="#263238"/>
              <path id="Trazado_180528" data-name="Trazado 180528" d="M96.738,176.382a1.224,1.224,0,0,1-.437.234,3.731,3.731,0,0,1-1.333.23,5.363,5.363,0,0,1-1.979-.368,1.532,1.532,0,0,1-.862-.88.982.982,0,0,1,.009-.694.919.919,0,0,1,.523-.5.72.72,0,0,1,.445-.016l-.091.236a2.066,2.066,0,0,1-1.1-2.019,1.778,1.778,0,0,1,.389-.969,2,2,0,0,1,.719-.542,1.957,1.957,0,0,1,1.261-.129.9.9,0,0,1,.422.191c-.01.02-.156-.054-.44-.1a1.982,1.982,0,0,0-1.168.193,1.655,1.655,0,0,0-.955,1.372,1.852,1.852,0,0,0,.984,1.771l-.091.235a.466.466,0,0,0-.286.013.671.671,0,0,0-.376.357.743.743,0,0,0-.006.516,1.3,1.3,0,0,0,.725.746,5.524,5.524,0,0,0,1.883.4,4.954,4.954,0,0,0,1.766-.284" transform="translate(-47.104 -87.605)" fill="#263238"/>
              <path id="Trazado_180529" data-name="Trazado 180529" d="M149.49,260.777c.153.23,5.592,7.537,5.592,7.537l6.581-6.111-4.211-10.612-2.527-4.328Z" transform="translate(-76.622 -126.737)" fill="#d8765f"/>
              <g id="Grupo_112590" data-name="Grupo 112590" transform="translate(41.766 166.515)" opacity="0.3">
                <g id="Grupo_112589" data-name="Grupo 112589">
                  <g id="Grupo_112588" data-name="Grupo 112588" clip-path="url(#clip-path-9)">
                    <path id="Trazado_180530" data-name="Trazado 180530" d="M95.369,374.73l-2.748-.055-.975-23.861-5.963-2.531,10.837-6.674,28.9,20.431,5.77,12.69Z" transform="translate(-85.684 -341.609)"/>
                  </g>
                </g>
              </g>
              <path id="Trazado_180531" data-name="Trazado 180531" d="M144.624,387.391c-.021.011,5.1,9.663,5.1,9.663l7.573-4.218-3.329-10.527Z" transform="translate(-74.128 -195.956)" fill="#d8765f"/>
              <path id="Trazado_180532" data-name="Trazado 180532" d="M153.3,404.835s7.786.239,7.956-4.782l.417,1.009,11.63,7.647c1.85,1.315,1.7,2.822,1.215,3.593a1.764,1.764,0,0,1-1.718.818c-3.617-.462-16.915-2.227-17.585-3.3l-.693-.935c-1.108-1.313-1.474-2.923-1.1-3.509Z" transform="translate(-78.564 -205.05)" fill="#263238"/>
              <g id="Grupo_112593" data-name="Grupo 112593" transform="translate(75.957 203.837)" opacity="0.6">
                <g id="Grupo_112592" data-name="Grupo 112592">
                  <g id="Grupo_112591" data-name="Grupo 112591" clip-path="url(#clip-path-10)">
                    <path id="Trazado_180533" data-name="Trazado 180533" d="M175.624,421.853l-19.8-3.676.435.587c.413.679.877.727,1.481.913,1.788.552,6.266,1.436,16.32,2.765a1.765,1.765,0,0,0,1.56-.589" transform="translate(-155.828 -418.177)" fill="#fff"/>
                  </g>
                </g>
              </g>
              <g id="Grupo_112596" data-name="Grupo 112596" transform="translate(76.355 201.312)" opacity="0.6">
                <g id="Grupo_112595" data-name="Grupo 112595">
                  <g id="Grupo_112594" data-name="Grupo 112594" clip-path="url(#clip-path-11)">
                    <path id="Trazado_180534" data-name="Trazado 180534" d="M157.632,413a1.069,1.069,0,0,1,1.066.948,1.028,1.028,0,0,1-.93,1.066,1.127,1.127,0,0,1-1.124-1.01c.02-.524.575-1.1,1.09-1" transform="translate(-156.644 -412.996)" fill="#fff"/>
                  </g>
                </g>
              </g>
              <path id="Trazado_180535" data-name="Trazado 180535" d="M177.222,412.544a5.382,5.382,0,0,1,.417-1.978c.505-1.017,1.416-1.388,1.37-1.487-.013-.043-.269-.021-.627.174a2.816,2.816,0,0,0-1.381,2.68c.049.4.179.625.222.611" transform="translate(-90.715 -209.667)" fill="#fff"/>
              <path id="Trazado_180536" data-name="Trazado 180536" d="M181.937,415.06a14.454,14.454,0,0,1,.786-1.505c.549-.749,1.266-1.074,1.224-1.177-.012-.1-.9.1-1.527.95a1.959,1.959,0,0,0-.483,1.732" transform="translate(-93.222 -211.355)" fill="#fff"/>
              <path id="Trazado_180537" data-name="Trazado 180537" d="M172.3,410.3a7.882,7.882,0,0,1,2.391-3.822A4.189,4.189,0,0,0,172.3,410.3" transform="translate(-88.295 -208.341)" fill="#fff"/>
              <path id="Trazado_180538" data-name="Trazado 180538" d="M168.915,404.212c.015-.016-.128-.2-.46-.463a4.535,4.535,0,0,0-1.6-.789,2.012,2.012,0,0,0-1.289-.026.711.711,0,0,0-.432.693,1.159,1.159,0,0,0,.382.731,2.5,2.5,0,0,0,3.183-.02,2.9,2.9,0,0,0,.838-3.113,1,1,0,0,0-.578-.606.7.7,0,0,0-.767.28,2.476,2.476,0,0,0-.345,1.233,5.066,5.066,0,0,0,.174,1.775,1.546,1.546,0,0,0,.254.6,8.038,8.038,0,0,1-.162-2.349,2.3,2.3,0,0,1,.327-1.068.371.371,0,0,1,.417-.155.688.688,0,0,1,.356.421,2.585,2.585,0,0,1-.757,2.691,2.168,2.168,0,0,1-2.7.055.839.839,0,0,1-.289-.5.385.385,0,0,1,.233-.386,1.816,1.816,0,0,1,1.092,0,6.7,6.7,0,0,1,2.126.991" transform="translate(-84.638 -205.325)" fill="#fff"/>
              <path id="Trazado_180539" data-name="Trazado 180539" d="M110.922,418.779c.036,0,.092,11.907.092,11.907s8.252,1.294,8.252,1.083,2.439-11.586,2.439-11.586Z" transform="translate(-56.854 -214.649)" fill="#d8765f"/>
              <path id="Trazado_180540" data-name="Trazado 180540" d="M113.9,438.643s-6,4.519-8.939.444l-.117,1.087L99.442,453c-.8,2.123.158,3.292.993,3.661a1.764,1.764,0,0,0,1.883-.277c2.747-2.4,12.807-11.272,12.767-12.536l.054-1.163c.189-1.708-.4-3.249-1.039-3.528Z" transform="translate(-50.815 -224.83)" fill="#263238"/>
              <g id="Grupo_112599" data-name="Grupo 112599" transform="translate(49.931 217.859)" opacity="0.6">
                <g id="Grupo_112598" data-name="Grupo 112598">
                  <g id="Grupo_112597" data-name="Grupo 112597" clip-path="url(#clip-path-12)">
                    <path id="Trazado_180541" data-name="Trazado 180541" d="M102.435,461.024l14.393-14.081-.034.73a2.038,2.038,0,0,1-.721,1.583c-1.177,1.455-4.4,4.683-12.013,11.388a1.765,1.765,0,0,1-1.624.38" transform="translate(-102.435 -446.943)" fill="#fff"/>
                  </g>
                </g>
              </g>
              <g id="Grupo_112602" data-name="Grupo 112602" transform="translate(61.291 216.396)" opacity="0.6">
                <g id="Grupo_112601" data-name="Grupo 112601">
                  <g id="Grupo_112600" data-name="Grupo 112600" clip-path="url(#clip-path-13)">
                    <path id="Trazado_180542" data-name="Trazado 180542" d="M126.221,444.087a1.069,1.069,0,0,0-.357,1.381,1.028,1.028,0,0,0,1.366.367,1.129,1.129,0,0,0,.371-1.465,1.067,1.067,0,0,0-1.463-.223" transform="translate(-125.741 -443.942)" fill="#fff"/>
                  </g>
                </g>
              </g>
              <path id="Trazado_180543" data-name="Trazado 180543" d="M109.3,455.158c-.1.043-.446-.877-1.448-1.411a5.38,5.38,0,0,0-1.965-.472c-.013-.043.212-.167.617-.2a2.816,2.816,0,0,1,2.64,1.456c.185.364.2.619.156.631" transform="translate(-54.273 -232.22)" fill="#fff"/>
              <path id="Trazado_180544" data-name="Trazado 180544" d="M106.746,459.9c-.085.071-.612-.515-1.491-.812a14.347,14.347,0,0,0-1.672-.3,1.959,1.959,0,0,1,1.8-.062c1,.344,1.457,1.127,1.366,1.169" transform="translate(-53.091 -235.042)" fill="#fff"/>
              <path id="Trazado_180545" data-name="Trazado 180545" d="M111.779,450.921a15.285,15.285,0,0,0-1.922-1.222,15.43,15.43,0,0,0-2.192-.62,4.191,4.191,0,0,1,4.115,1.842" transform="translate(-55.184 -230.136)" fill="#fff"/>
              <path id="Trazado_180546" data-name="Trazado 180546" d="M109.811,444.647a1.5,1.5,0,0,1,.124-.641,4.537,4.537,0,0,1,.891-1.547,2.007,2.007,0,0,1,1.056-.74.71.71,0,0,1,.744.334,1.158,1.158,0,0,1,.09.82,2.5,2.5,0,0,1-2.654,1.757,2.9,2.9,0,0,1-2.43-2.118,1,1,0,0,1,.143-.825.7.7,0,0,1,.793-.2,2.473,2.473,0,0,1,.973.832,5.048,5.048,0,0,1,.844,1.571,1.538,1.538,0,0,1,.123.64,8.037,8.037,0,0,0-1.174-2.041,2.306,2.306,0,0,0-.867-.7.371.371,0,0,0-.433.1.691.691,0,0,0-.062.548,2.586,2.586,0,0,0,2.128,1.813,2.17,2.17,0,0,0,2.275-1.459.839.839,0,0,0-.039-.575.385.385,0,0,0-.408-.191,1.815,1.815,0,0,0-.906.61,6.7,6.7,0,0,0-1.213,2.008" transform="translate(-55.153 -226.265)" fill="#fff"/>
              <path id="Trazado_180547" data-name="Trazado 180547" d="M88.758,221.337l10.29-3.96s2.594,4.48,7.163,4.089c4.676-.4,4.528-3.81,4.528-3.81l12.932,3.669s.852,17.486,0,20.218a30.162,30.162,0,0,1-3.276,6.284s2.555,5.942,2.621,7.582-.656,1.229-.656,1.229l-31.2.374Z" transform="translate(-45.494 -111.418)" fill="#79f5ed"/>
              <g id="Grupo_112605" data-name="Grupo 112605" transform="translate(45.51 127.652)" opacity="0.3">
                <g id="Grupo_112604" data-name="Grupo 112604">
                  <g id="Grupo_112603" data-name="Grupo 112603" clip-path="url(#clip-path-14)">
                    <path id="Trazado_180548" data-name="Trazado 180548" d="M118.561,262.065c-.4-.361-1.029-.119-1.5.137-2.689,1.453-5.383,2.908-7.934,4.591-3.218,2.123-6.191,4.6-9.342,6.816q-2.786,1.964-5.747,3.66l-.671,1.167a3.787,3.787,0,0,0,3.531,1.571,8.411,8.411,0,0,0,3.749-1.466c5.3-3.353,9.025-8.778,14.322-12.131,1.31-.829,2.768-1.584,3.563-2.915.265-.445.415-1.083.031-1.43" transform="translate(-93.365 -261.882)"/>
                  </g>
                </g>
              </g>
              <path id="Trazado_180549" data-name="Trazado 180549" d="M138.339,279.115a7.551,7.551,0,0,1-1.286.069c-.793.021-1.887.06-3.093.15s-2.293.215-3.081.312a7.58,7.58,0,0,1-1.282.124,5.691,5.691,0,0,1,1.255-.3,31.015,31.015,0,0,1,6.2-.465,5.689,5.689,0,0,1,1.286.111" transform="translate(-66.426 -143)" fill="#263238"/>
              <path id="Trazado_180550" data-name="Trazado 180550" d="M79.152,264.025s2.881,8.13,4.157,10.2,1.821,4.744,5.91,3.653,6.167-3.755,10.638-7.422,7.356-6.432,7.356-6.432l-3.148-3.812-13.046,5.943-3.108-6.815Z" transform="translate(-40.57 -132.927)" fill="#d8765f"/>
              <path id="Trazado_180551" data-name="Trazado 180551" d="M142.938,243.907l-8.966,4.727-7.335,4.673s3.644,3.225,4.671,3.145a5.483,5.483,0,0,0,2.423-1.5,1.071,1.071,0,0,0,.606.58c.447.158.974-.369.974-.369a3.143,3.143,0,0,0,.974.211c.447,0,.969-1.717,1.232-2.849a2.015,2.015,0,0,0-.178-1.68l.349-.2.494.865-.765,2.735c-.406,1.5,1.044,1.3,1.044,1.3a15.793,15.793,0,0,0,1.759-4.35,3.061,3.061,0,0,0-1.413-2.581s3.315-2.853,4.13-3.4,0-1.3,0-1.3" transform="translate(-64.909 -125.016)" fill="#d8765f"/>
              <path id="Trazado_180552" data-name="Trazado 180552" d="M100.876,279.283a2.325,2.325,0,0,1-.293-.9,5.946,5.946,0,0,1,.934-4.383,2.32,2.32,0,0,1,.634-.7,7.424,7.424,0,0,0-1.275,5.98" transform="translate(-51.507 -140.083)" fill="#7c4236"/>
              <path id="Trazado_180553" data-name="Trazado 180553" d="M82.446,225.077a10.407,10.407,0,0,0-6.876,7.781c-.664,3.624.94,15.387.94,15.387L87.647,244.1Z" transform="translate(-38.651 -115.365)" fill="#79f5ed"/>
              <path id="Trazado_180554" data-name="Trazado 180554" d="M93.68,241.658a12.152,12.152,0,0,1,.442,1.64l.956,3.979c.379,1.552.739,2.953,1.019,3.961a16.614,16.614,0,0,1,.443,1.638,1.622,1.622,0,0,1-.2-.414c-.115-.272-.253-.674-.418-1.172-.326-1-.715-2.4-1.094-3.953s-.683-2.972-.885-4a10.484,10.484,0,0,1-.266-1.678" transform="translate(-48.013 -123.864)" fill="#263238"/>
              <path id="Trazado_180555" data-name="Trazado 180555" d="M86.822,298.492s-7.359,8.627-7.185,15.594a26.182,26.182,0,0,0,3.284,12l9.757.574s.868-4.653,4.356-4.653c.756,0,13.477,24.369,13.477,24.369l12.463-5.7s-8.2-21.532-10.2-26.593-3.885-7.5-6.564-8.226l-2.986-7.554Z" transform="translate(-40.817 -152.899)" fill="#263238"/>
              <path id="Trazado_180556" data-name="Trazado 180556" d="M90.968,315.4c-.012.043-.46-.081-1.2-.139a7.26,7.26,0,0,0-2.837.337,6.252,6.252,0,0,0-2.426,1.483c-.519.524-.764.922-.8.9-.015-.009.037-.114.143-.3a4.523,4.523,0,0,1,.531-.722,5.773,5.773,0,0,1,2.476-1.6,6.544,6.544,0,0,1,2.935-.274,3.311,3.311,0,0,1,1.179.317" transform="translate(-42.901 -161.468)" fill="#455a64"/>
              <path id="Trazado_180557" data-name="Trazado 180557" d="M122.953,305.049a44,44,0,0,1,0-6.687,44.332,44.332,0,0,1,0,6.687" transform="translate(-62.955 -152.928)" fill="#455a64"/>
              <path id="Trazado_180558" data-name="Trazado 180558" d="M96.53,298.305a1.172,1.172,0,0,1-.129.39,6.3,6.3,0,0,1-.538.982,7.4,7.4,0,0,1-6.309,3.306,6.3,6.3,0,0,1-1.113-.117,1.166,1.166,0,0,1-.394-.116c.007-.045.579.077,1.506.053a7.8,7.8,0,0,0,6.163-3.229c.547-.749.773-1.288.814-1.269" transform="translate(-45.129 -152.899)" fill="#455a64"/>
              <path id="Trazado_180559" data-name="Trazado 180559" d="M131.007,297.92a20.155,20.155,0,0,1,5.025,10.028c1.009,6.04,1.071,13.92-.648,16.835l-4.922,1.107-4.332,4.392-6.137,33.41-13.935-1.913s-1.3-29.031-.855-31.8.534-3.52.534-3.52a11.006,11.006,0,0,1,2.979-7.841,80.986,80.986,0,0,1,8-6.727l-.431-13.787Z" transform="translate(-53.874 -152.701)" fill="#263238"/>
              <path id="Trazado_180560" data-name="Trazado 180560" d="M153.446,302.754a1.836,1.836,0,0,1-.454.192,7.628,7.628,0,0,1-5.66-.412,5.773,5.773,0,0,1-1.053-.724c-.314-.261-.607-.526-.876-.787a18.6,18.6,0,0,1-1.349-1.462c-.362-.434-.641-.8-.831-1.048a1.851,1.851,0,0,1-.273-.409,15.834,15.834,0,0,1,1.24,1.339c.378.416.833.906,1.375,1.411a9.661,9.661,0,0,0,1.887,1.457,7.673,7.673,0,0,0,4.209.752c1.114-.1,1.773-.357,1.787-.308" transform="translate(-73.269 -152.795)" fill="#455a64"/>
              <path id="Trazado_180561" data-name="Trazado 180561" d="M100,333.574s.02-.16.076-.472a3.275,3.275,0,0,1,.136-.573,4.418,4.418,0,0,1,.284-.763,4.718,4.718,0,0,1,1.386-1.8,5.511,5.511,0,0,1,2.864-1.161l.039,0,.02.037,13.135,24.392-.154-.052,12.46-5.7-.065.161-2-5.09-6.719-17.156-2.993-7.658a7.862,7.862,0,0,0-2.041-3.1,7.092,7.092,0,0,0-3.039-1.669l-.009,0a25.489,25.489,0,0,0-8.228-.98,25.934,25.934,0,0,0-6.222,1.031,26.8,26.8,0,0,0-3.753,1.423c-.417.2-.726.365-.94.467s-.325.154-.325.154.1-.065.31-.179.515-.289.929-.493A25.226,25.226,0,0,1,98.9,312.91a25.8,25.8,0,0,1,14.537-.135l-.009,0a7.282,7.282,0,0,1,3.143,1.708,8.074,8.074,0,0,1,2.105,3.172l3.01,7.652,6.733,17.152,2,5.091.044.111-.109.05-12.466,5.69-.1.046-.053-.1L104.687,328.9l.059.033a5.435,5.435,0,0,0-2.81,1.111,4.7,4.7,0,0,0-1.386,1.748,4.519,4.519,0,0,0-.3.75,3.4,3.4,0,0,0-.151.565c-.066.308-.109.465-.109.465" transform="translate(-48.134 -159.812)" fill="#455a64"/>
              <path id="Trazado_180562" data-name="Trazado 180562" d="M152.931,317.575c-.027.042-.563-.338-1.523-.748a10.314,10.314,0,0,0-1.741-.559,10.413,10.413,0,0,0-4.444-.027,10.255,10.255,0,0,0-1.747.537c-.966.4-1.505.772-1.532.729a1.591,1.591,0,0,1,.363-.283,3.7,3.7,0,0,1,.459-.285,6.267,6.267,0,0,1,.639-.326,9.221,9.221,0,0,1,1.768-.6,9.863,9.863,0,0,1,4.547.028,9.248,9.248,0,0,1,1.761.622,6.243,6.243,0,0,1,.634.334,3.7,3.7,0,0,1,.456.291,1.608,1.608,0,0,1,.36.288" transform="translate(-72.754 -161.845)" fill="#455a64"/>
              <g id="Grupo_112608" data-name="Grupo 112608" transform="translate(56.609 169.06)" opacity="0.3">
                <g id="Grupo_112607" data-name="Grupo 112607">
                  <g id="Grupo_112606" data-name="Grupo 112606" clip-path="url(#clip-path-15)">
                    <path id="Trazado_180563" data-name="Trazado 180563" d="M116.134,346.83s3.686,15.76,7.71,20.17,5.1,5.339,5.1,5.339l.276-1.091Z" transform="translate(-116.134 -346.83)"/>
                  </g>
                </g>
              </g>
              <path id="Trazado_180564" data-name="Trazado 180564" d="M160.762,278.891a9.279,9.279,0,0,1,1.6-3.846A27,27,0,0,1,165.755,272h.617l1.619-3.627,4.546-.219s-.961,8.859-3.158,11.558-4.417,2.551-5.342,2.281-3.275-3.1-3.275-3.1" transform="translate(-82.4 -137.443)" fill="#d8765f"/>
              <path id="Trazado_180565" data-name="Trazado 180565" d="M140.869,218.638l-3.588,17.71a1.573,1.573,0,0,0,1.542,1.886h24.693a1.574,1.574,0,0,0,1.535-1.23l3.968-17.709a1.573,1.573,0,0,0-1.535-1.918H142.411a1.574,1.574,0,0,0-1.542,1.261" transform="translate(-70.348 -111.418)" fill="#263238"/>
              <path id="Trazado_180566" data-name="Trazado 180566" d="M140.765,218.515a.912.912,0,0,1,.057-.242,1.538,1.538,0,0,1,.394-.613,1.6,1.6,0,0,1,1.09-.444l1.612-.012,10.273-.04,7.094-.016,3.952-.006,2.066,0a1.706,1.706,0,0,1,1.705,1.238,2.069,2.069,0,0,1-.045,1.123l-.238,1.068-.485,2.174-1,4.483c-.681,3.045-1.387,6.2-2.11,9.426a2.71,2.71,0,0,1-.184.62,1.65,1.65,0,0,1-.4.531,1.721,1.721,0,0,1-1.214.436H160.9l-4.76,0-9-.008L139,238.216a2.077,2.077,0,0,1-.97-.153,1.682,1.682,0,0,1-.732-.647,1.645,1.645,0,0,1-.246-.927,7.294,7.294,0,0,1,.157-.9l.684-3.334,2.079-10.06.578-2.733.156-.709c.037-.159.062-.24.062-.24s-.008.084-.037.245-.075.409-.132.714l-.531,2.742-2,10.076-.668,3.337a7.329,7.329,0,0,0-.149.866,1.443,1.443,0,0,0,.219.814,1.474,1.474,0,0,0,.644.566,1.864,1.864,0,0,0,.885.131l8.143-.012,9-.008,4.76,0h2.434a1.463,1.463,0,0,0,1.045-.371,1.4,1.4,0,0,0,.338-.451,2.5,2.5,0,0,0,.166-.566L167,227.17,168,222.689l.489-2.173.24-1.068a1.837,1.837,0,0,0,.051-1.009,1.472,1.472,0,0,0-1.48-1.071l-2.066,0-3.952-.006-7.094-.016-10.273-.04-1.612-.012a1.557,1.557,0,0,0-1.055.406,1.715,1.715,0,0,0-.485.817" transform="translate(-70.245 -111.295)" fill="#455a64"/>
              <path id="Trazado_180567" data-name="Trazado 180567" d="M167.77,236.409s2.98,5.068,3.287,5.745,1.2,1.7,1.26,2.342a51.142,51.142,0,0,1,.706,5.614,9.939,9.939,0,0,1-.793,2.951l-4.091-1.016a6.58,6.58,0,0,1-1.528-2.089,4.728,4.728,0,0,0-1.575-2.12,19.006,19.006,0,0,1-2.824-2.159,1,1,0,0,1,0-1s-.951-.459-1.107-.99c-.166-.566,0-1.321,1.075-.83s5.038,3.318,5.437,3.01-.092-1.05-.092-1.05-4.209-3.834-4.424-4.51.4-1.629,1.382-.8,4.209,4.086,4.546,4.086-.031-.952-.031-.952-1.656-3.563-1.934-4.516-.125-2.212.7-1.72" transform="translate(-82.547 -121.117)" fill="#d8765f"/>
              <path id="Trazado_180568" data-name="Trazado 180568" d="M170.106,219.381a.432.432,0,0,1-.12.013l-.353.013-1.358.023-4.995.04-16.478.037h-2.383a1.253,1.253,0,0,0-.986.327,1.1,1.1,0,0,0-.278.43c-.052.155-.087.364-.131.542-.337,1.478-.648,2.908-.939,4.271l-1.527,7.249c-.441,2.062-.818,3.727-1.092,4.874l-.325,1.319-.092.341a.061.061,0,1,1-.025-.006l.067-.347.278-1.329,1.013-4.89,1.474-7.26c.285-1.365.591-2.8.925-4.278.047-.19.071-.36.138-.569a1.339,1.339,0,0,1,.341-.529,1.506,1.506,0,0,1,1.159-.4H146.8l16.478.037,4.995.04,1.358.024.353.012a.434.434,0,0,1,.12.013" transform="translate(-71.25 -112.378)" fill="#455a64"/>
              <path id="Trazado_180569" data-name="Trazado 180569" d="M161.974,275.9a1.289,1.289,0,0,1,.127-.4,5.336,5.336,0,0,1,.57-.984,5.641,5.641,0,0,1,3.056-2.116,5.3,5.3,0,0,1,1.12-.169l-.1.057c.556-1.014.985-1.978,1.316-2.633a8.492,8.492,0,0,1,.548-1.05,4.989,4.989,0,0,1-.4,1.117c-.3.684-.68,1.631-1.253,2.7l-.027.052-.072.005a5.286,5.286,0,0,0-1.064.166,5.813,5.813,0,0,0-2.979,1.98c-.587.734-.8,1.293-.839,1.273" transform="translate(-83.019 -137.674)" fill="#7c4236"/>
              <path id="Trazado_180570" data-name="Trazado 180570" d="M168.06,256.18a28.047,28.047,0,0,1-4.552-2.774,28.081,28.081,0,0,1,4.552,2.774" transform="translate(-83.807 -129.883)" fill="#7c4236"/>
              <path id="Trazado_180571" data-name="Trazado 180571" d="M173.882,227.088a.814.814,0,1,1-.5-1.108.864.864,0,0,1,.5,1.108" transform="translate(-88.31 -115.811)" fill="#e0e0e0"/>
              <path id="Trazado_180572" data-name="Trazado 180572" d="M100.142,182.3a1.334,1.334,0,0,1-.27-.492,2.921,2.921,0,0,1-.118-1.529,2.834,2.834,0,0,1,1.276-1.872,2.971,2.971,0,0,1,1.289-.461,2.046,2.046,0,0,1,.744.034.787.787,0,0,1,.587.57.582.582,0,0,1-.09.442.861.861,0,0,1-.314.275,1.208,1.208,0,0,1-.762.108,1.41,1.41,0,0,1-1-2.114,1.638,1.638,0,0,1,.806-.736,1.792,1.792,0,0,1,1.523.12,1.052,1.052,0,0,1,.428.365c-.015.018-.156-.129-.473-.277a1.746,1.746,0,0,0-1.408-.043,1.467,1.467,0,0,0-.69.668,1.265,1.265,0,0,0-.064,1.064,1.243,1.243,0,0,0,.918.706.965.965,0,0,0,.6-.086.435.435,0,0,0,.274-.444.538.538,0,0,0-.407-.377,1.827,1.827,0,0,0-.649-.03,2.786,2.786,0,0,0-1.191.411,2.693,2.693,0,0,0-1.225,1.71,3.043,3.043,0,0,0,.037,1.462c.1.338.2.513.176.523" transform="translate(-51.103 -90.421)" fill="#263238"/>
            </g>
          </g>
        </g>
      </g>
      <rect id="Rectángulo_38491" data-name="Rectángulo 38491" width="295" height="232" transform="translate(1718 -9024)" fill="none"/>
    </g>
  </g>
</svg>
