<svg xmlns="http://www.w3.org/2000/svg" xmlns:xlink="http://www.w3.org/1999/xlink" width="295" height="232" viewBox="0 0 295 232">
  <defs>
    <clipPath id="clip-path">
      <rect id="Rectángulo_38033" data-name="Rectángulo 38033" width="217.199" height="212.018" fill="none"/>
    </clipPath>
    <clipPath id="clip-path-3">
      <rect id="Rectángulo_38025" data-name="Rectángulo 38025" width="22.437" height="27.337" fill="none"/>
    </clipPath>
    <clipPath id="clip-path-4">
      <rect id="Rectángulo_38027" data-name="Rectángulo 38027" width="46.391" height="9.279" fill="none"/>
    </clipPath>
    <clipPath id="clip-path-5">
      <rect id="Rectángulo_38028" data-name="Rectángulo 38028" width="3.293" height="23.067" fill="none"/>
    </clipPath>
    <clipPath id="clip-path-6">
      <rect id="Rectángulo_38029" data-name="Rectángulo 38029" width="14.857" height="9.813" fill="none"/>
    </clipPath>
    <clipPath id="clip-path-7">
      <rect id="Rectángulo_38030" data-name="Rectángulo 38030" width="18.751" height="9.517" fill="none"/>
    </clipPath>
    <clipPath id="clip-path-8">
      <rect id="Rectángulo_38031" data-name="Rectángulo 38031" width="6.906" height="28.28" fill="none"/>
    </clipPath>
  </defs>
  <g id="Grupo_143605" data-name="Grupo 143605" transform="translate(-1654 9485)">
    <g id="Grupo_112883" data-name="Grupo 112883" transform="translate(-17 -13)">
      <g id="Grupo_112571" data-name="Grupo 112571" transform="translate(1709.001 -9461.499)">
        <g id="Grupo_112570" data-name="Grupo 112570" clip-path="url(#clip-path)">
          <rect id="Rectángulo_38013" data-name="Rectángulo 38013" width="185.349" height="144.98" transform="translate(5.277 0.128)" fill="#e1f8fa"/>
          <g id="Grupo_112569" data-name="Grupo 112569">
            <g id="Grupo_112568" data-name="Grupo 112568" clip-path="url(#clip-path)">
              <path id="Trazado_180146" data-name="Trazado 180146" d="M195.967,145.108c0-.88-.042-57.485-.106-144.98l.106.106L10.633.256h-.016l.128-.128c0,52.278-.009,101.716-.013,144.98l-.115-.115,185.349.115-185.349.115H10.5v-.115c0-43.265-.008-92.7-.013-144.98V0h.143L195.967.022h.106V.128c-.064,87.5-.105,144.1-.106,144.98" transform="translate(-5.341)" fill="#cadee0"/>
              <path id="Trazado_180147" data-name="Trazado 180147" d="M53.044,54.044H42.116a1.367,1.367,0,0,1-1.367-1.367V37.551a1.367,1.367,0,0,1,1.367-1.367h6.931l5.364,5.529V52.677a1.368,1.368,0,0,1-1.368,1.367" transform="translate(-20.746 -18.422)" fill="#d4e9eb"/>
              <path id="Trazado_180148" data-name="Trazado 180148" d="M57.652,36.184v4.257a1.272,1.272,0,0,0,1.271,1.272h4.093Z" transform="translate(-29.352 -18.422)" fill="#ddf3f5"/>
              <path id="Trazado_180149" data-name="Trazado 180149" d="M57.766,45.617a1.414,1.414,0,0,0,1.122,1.372,1.264,1.264,0,0,0,.134.03c.535.1,4.053.722,4.053.641V46.516H58.981s-1.022-.035-1.216-.9" transform="translate(-29.41 -23.225)" fill="#cadee0"/>
              <path id="Trazado_180150" data-name="Trazado 180150" d="M52.993,53.994c0-.006.082,0,.236-.028a1.374,1.374,0,0,0,.62-.289,1.351,1.351,0,0,0,.489-.964c.007-.441,0-.953,0-1.524,0-2.29-.01-5.567-.017-9.525l.011.028-5.369-5.525L49,36.18H42.374a3.491,3.491,0,0,0-.525.019,1.319,1.319,0,0,0-.857.535,1.3,1.3,0,0,0-.242.672c-.01.242,0,.5,0,.742q0,.742,0,1.475,0,1.465,0,2.885c0,1.891,0,3.715,0,5.453q0,1.3,0,2.539,0,.617,0,1.216,0,.3,0,.594a3.166,3.166,0,0,0,.026.575,1.331,1.331,0,0,0,.618.878,1.314,1.314,0,0,0,.5.178,5.006,5.006,0,0,0,.538.014l2.063,0,6.224.015,1.693.009.44,0c.1,0,.15,0,.15,0s-.051,0-.15,0l-.44,0-1.693.009-6.224.015-2.063,0a5.038,5.038,0,0,1-.548-.014,1.4,1.4,0,0,1-.534-.187,1.411,1.411,0,0,1-.657-.929,3.188,3.188,0,0,1-.028-.591q0-.295,0-.594,0-.6,0-1.216,0-1.235,0-2.539c0-1.738,0-3.562,0-5.453q0-1.419,0-2.885V38.149c0-.249-.005-.493,0-.749a1.4,1.4,0,0,1,.259-.721,1.416,1.416,0,0,1,.919-.573,3.533,3.533,0,0,1,.54-.021h6.641l.014.014,5.36,5.534.011.012v.016c-.007,3.958-.013,7.235-.017,9.525,0,.572,0,1.081-.01,1.526a1.373,1.373,0,0,1-.51.981,1.355,1.355,0,0,1-.633.283,1,1,0,0,1-.178.016h-.06" transform="translate(-20.696 -18.372)" fill="#cadee0"/>
              <path id="Trazado_180151" data-name="Trazado 180151" d="M62.967,41.713a.444.444,0,0,1-.105.01l-.3.009-1.109.015-1.644.01h-.972a1.322,1.322,0,0,1-1.22-.921,1.525,1.525,0,0,1-.06-.522c0-.336,0-.661,0-.971,0-.616.007-1.172.01-1.644s.011-.834.015-1.109c0-.122.007-.222.009-.3a.444.444,0,0,1,.01-.105.414.414,0,0,1,.01.105c0,.08.005.179.009.3,0,.275.009.65.016,1.109s.006,1.028.01,1.644c0,.31,0,.635,0,.971a1.266,1.266,0,0,0,.307.933,1.224,1.224,0,0,0,.882.416l.969,0,1.644.01,1.109.016.3.009a.445.445,0,0,1,.105.01" transform="translate(-29.302 -18.422)" fill="#cadee0"/>
              <path id="Trazado_180152" data-name="Trazado 180152" d="M51.252,43.872c0,.027-1.291.048-2.882.048s-2.883-.022-2.883-.048,1.29-.048,2.883-.048,2.882.022,2.882.048" transform="translate(-23.159 -22.312)" fill="#cadee0"/>
              <path id="Trazado_180153" data-name="Trazado 180153" d="M53.987,48.2c0,.027-1.9.048-4.25.048s-4.251-.022-4.251-.048,1.9-.048,4.251-.048,4.25.022,4.25.048" transform="translate(-23.158 -24.514)" fill="#cadee0"/>
              <path id="Trazado_180154" data-name="Trazado 180154" d="M53.987,52.525c0,.027-1.9.048-4.25.048s-4.25-.022-4.25-.048,1.9-.048,4.25-.048,4.25.022,4.25.048" transform="translate(-23.158 -26.717)" fill="#cadee0"/>
              <path id="Trazado_180155" data-name="Trazado 180155" d="M53.987,56.851c0,.027-1.9.048-4.25.048s-4.25-.022-4.25-.048,1.9-.048,4.25-.048,4.25.022,4.25.048" transform="translate(-23.158 -28.92)" fill="#cadee0"/>
              <path id="Trazado_180156" data-name="Trazado 180156" d="M53.987,61.177c0,.026-1.9.048-4.25.048s-4.25-.022-4.25-.048,1.9-.048,4.25-.048,4.25.022,4.25.048" transform="translate(-23.158 -31.122)" fill="#cadee0"/>
              <path id="Trazado_180157" data-name="Trazado 180157" d="M53.987,66.512c0,.026-1.9.048-4.25.048s-4.25-.022-4.25-.048,1.9-.048,4.25-.048,4.25.022,4.25.048" transform="translate(-23.158 -33.839)" fill="#cadee0"/>
              <path id="Trazado_180158" data-name="Trazado 180158" d="M54.4,81.67c0,.071-3.032.128-6.77.128s-6.77-.057-6.77-.128,3.031-.128,6.77-.128,6.77.057,6.77.128" transform="translate(-20.805 -41.515)" fill="#cadee0"/>
              <path id="Trazado_180159" data-name="Trazado 180159" d="M54.494,85.281a37.266,37.266,0,0,1-4.358.128,37.264,37.264,0,0,1-4.358-.128,37.263,37.263,0,0,1,4.358-.128,37.265,37.265,0,0,1,4.358.128" transform="translate(-23.307 -43.354)" fill="#cadee0"/>
              <path id="Trazado_180160" data-name="Trazado 180160" d="M53.044,132.814H42.116a1.367,1.367,0,0,1-1.367-1.367V116.321a1.367,1.367,0,0,1,1.367-1.367h6.931l5.364,5.529v10.964a1.368,1.368,0,0,1-1.368,1.367" transform="translate(-20.746 -58.526)" fill="#d4e9eb"/>
              <path id="Trazado_180161" data-name="Trazado 180161" d="M57.652,114.954v4.257a1.272,1.272,0,0,0,1.271,1.272h4.093Z" transform="translate(-29.352 -58.526)" fill="#ddf3f5"/>
              <path id="Trazado_180162" data-name="Trazado 180162" d="M57.766,124.387a1.414,1.414,0,0,0,1.122,1.372,1.264,1.264,0,0,0,.134.03c.535.1,4.053.722,4.053.641v-1.144H58.981s-1.022-.035-1.216-.9" transform="translate(-29.41 -63.329)" fill="#cadee0"/>
              <path id="Trazado_180163" data-name="Trazado 180163" d="M52.993,132.764c0-.006.082,0,.236-.028a1.374,1.374,0,0,0,.62-.289,1.351,1.351,0,0,0,.489-.964c.007-.441,0-.953,0-1.524,0-2.29-.01-5.567-.017-9.525l.011.028-5.369-5.525.033.014H42.374a3.49,3.49,0,0,0-.525.019,1.319,1.319,0,0,0-.857.535,1.3,1.3,0,0,0-.242.671c-.01.242,0,.5,0,.742q0,.742,0,1.475,0,1.465,0,2.884c0,1.891,0,3.715,0,5.453q0,1.3,0,2.539,0,.617,0,1.216,0,.3,0,.594a3.166,3.166,0,0,0,.026.575,1.331,1.331,0,0,0,.618.878,1.315,1.315,0,0,0,.5.178,5.011,5.011,0,0,0,.538.014l2.063,0,6.224.015,1.693.009.44,0c.1,0,.15,0,.15,0s-.051,0-.15,0l-.44,0-1.693.009-6.224.015-2.063,0a5.04,5.04,0,0,1-.548-.014,1.4,1.4,0,0,1-.534-.187,1.411,1.411,0,0,1-.657-.929,3.188,3.188,0,0,1-.028-.591q0-.295,0-.594,0-.6,0-1.216,0-1.235,0-2.539c0-1.738,0-3.562,0-5.453q0-1.418,0-2.884v-1.475c0-.249-.005-.493,0-.749a1.394,1.394,0,0,1,.259-.721,1.415,1.415,0,0,1,.919-.573,3.535,3.535,0,0,1,.54-.021h6.641l.014.014,5.36,5.534.011.012v.016c-.007,3.958-.013,7.235-.017,9.525,0,.572,0,1.081-.01,1.526a1.374,1.374,0,0,1-.51.981,1.355,1.355,0,0,1-.633.283,1,1,0,0,1-.178.016h-.06" transform="translate(-20.696 -58.476)" fill="#cadee0"/>
              <path id="Trazado_180164" data-name="Trazado 180164" d="M62.967,120.483a.443.443,0,0,1-.105.01l-.3.009-1.109.015-1.644.01h-.972a1.322,1.322,0,0,1-1.22-.921,1.525,1.525,0,0,1-.06-.522c0-.336,0-.661,0-.971,0-.616.007-1.172.01-1.644s.011-.834.015-1.109c0-.122.007-.222.009-.3a.444.444,0,0,1,.01-.105.414.414,0,0,1,.01.105c0,.08.005.179.009.3,0,.275.009.65.016,1.109s.006,1.028.01,1.644c0,.31,0,.635,0,.971a1.266,1.266,0,0,0,.307.933,1.224,1.224,0,0,0,.882.416l.969,0,1.644.01,1.109.016.3.009a.447.447,0,0,1,.105.01" transform="translate(-29.302 -58.526)" fill="#cadee0"/>
              <path id="Trazado_180165" data-name="Trazado 180165" d="M51.252,122.642c0,.027-1.291.048-2.882.048s-2.883-.022-2.883-.048,1.29-.048,2.883-.048,2.882.022,2.882.048" transform="translate(-23.159 -62.416)" fill="#cadee0"/>
              <path id="Trazado_180166" data-name="Trazado 180166" d="M53.987,126.968c0,.027-1.9.048-4.25.048s-4.251-.022-4.251-.048,1.9-.048,4.251-.048,4.25.022,4.25.048" transform="translate(-23.158 -64.618)" fill="#cadee0"/>
              <path id="Trazado_180167" data-name="Trazado 180167" d="M53.987,131.294c0,.027-1.9.048-4.25.048s-4.25-.022-4.25-.048,1.9-.048,4.25-.048,4.25.022,4.25.048" transform="translate(-23.158 -66.821)" fill="#cadee0"/>
              <path id="Trazado_180168" data-name="Trazado 180168" d="M53.987,135.62c0,.027-1.9.048-4.25.048s-4.25-.022-4.25-.048,1.9-.048,4.25-.048,4.25.022,4.25.048" transform="translate(-23.158 -69.023)" fill="#cadee0"/>
              <path id="Trazado_180169" data-name="Trazado 180169" d="M53.987,139.946c0,.027-1.9.048-4.25.048s-4.25-.022-4.25-.048,1.9-.048,4.25-.048,4.25.022,4.25.048" transform="translate(-23.158 -71.226)" fill="#cadee0"/>
              <path id="Trazado_180170" data-name="Trazado 180170" d="M53.987,145.282c0,.027-1.9.048-4.25.048s-4.25-.022-4.25-.048,1.9-.048,4.25-.048,4.25.022,4.25.048" transform="translate(-23.158 -73.943)" fill="#cadee0"/>
              <path id="Trazado_180171" data-name="Trazado 180171" d="M54.4,160.44c0,.071-3.032.128-6.77.128s-6.77-.057-6.77-.128,3.031-.128,6.77-.128,6.77.057,6.77.128" transform="translate(-20.805 -81.619)" fill="#cadee0"/>
              <path id="Trazado_180172" data-name="Trazado 180172" d="M54.494,164.051a37.258,37.258,0,0,1-4.358.128,37.257,37.257,0,0,1-4.358-.128,37.263,37.263,0,0,1,4.358-.128,37.265,37.265,0,0,1,4.358.128" transform="translate(-23.307 -83.458)" fill="#cadee0"/>
              <path id="Trazado_180173" data-name="Trazado 180173" d="M51.514,229.443H40.586a1.367,1.367,0,0,1-1.367-1.368V212.95a1.367,1.367,0,0,1,1.367-1.367h6.931l5.364,5.529v10.963a1.367,1.367,0,0,1-1.367,1.368" transform="translate(-19.967 -107.723)" fill="#d4e9eb"/>
              <path id="Trazado_180174" data-name="Trazado 180174" d="M56.123,211.582v4.257a1.272,1.272,0,0,0,1.271,1.272h4.093Z" transform="translate(-28.574 -107.722)" fill="#ddf3f5"/>
              <path id="Trazado_180175" data-name="Trazado 180175" d="M56.237,221.016a1.414,1.414,0,0,0,1.122,1.372c.044.013.089.022.134.03.535.1,4.053.721,4.053.64v-1.144H57.452s-1.022-.035-1.216-.9" transform="translate(-28.631 -112.525)" fill="#cadee0"/>
              <path id="Trazado_180176" data-name="Trazado 180176" d="M51.463,229.393c0-.006.082,0,.236-.028a1.374,1.374,0,0,0,.62-.289,1.353,1.353,0,0,0,.489-.964c.007-.441,0-.953,0-1.524,0-2.29-.01-5.567-.017-9.525l.012.028-5.369-5.525.033.014H40.844a3.5,3.5,0,0,0-.525.019,1.319,1.319,0,0,0-.857.535,1.3,1.3,0,0,0-.242.672c-.01.242,0,.5,0,.742q0,.742,0,1.475,0,1.465,0,2.884c0,1.891,0,3.715,0,5.453q0,1.3,0,2.539,0,.617,0,1.216,0,.3,0,.594a3.165,3.165,0,0,0,.026.575,1.331,1.331,0,0,0,.618.878,1.315,1.315,0,0,0,.5.178,5.024,5.024,0,0,0,.538.014l2.063,0,6.224.015,1.693.009.44,0c.1,0,.15,0,.15,0s-.051,0-.15,0l-.44,0-1.693.009-6.224.015-2.063,0a5.159,5.159,0,0,1-.548-.014,1.386,1.386,0,0,1-.534-.187,1.409,1.409,0,0,1-.657-.929,3.186,3.186,0,0,1-.028-.59q0-.295,0-.594,0-.6,0-1.216,0-1.235,0-2.539c0-1.738,0-3.562,0-5.453q0-1.418,0-2.884v-1.475c0-.249-.005-.493,0-.749a1.4,1.4,0,0,1,.259-.721,1.417,1.417,0,0,1,.919-.573,3.528,3.528,0,0,1,.54-.021h6.641l.014.014,5.36,5.534.011.012v.016c-.007,3.958-.013,7.235-.017,9.525,0,.572,0,1.081-.01,1.526a1.374,1.374,0,0,1-.51.981,1.355,1.355,0,0,1-.633.283,1,1,0,0,1-.178.016c-.04,0-.06,0-.06,0" transform="translate(-19.917 -107.672)" fill="#cadee0"/>
              <path id="Trazado_180177" data-name="Trazado 180177" d="M61.438,217.112a.445.445,0,0,1-.105.01l-.3.009-1.109.015-1.644.01h-.972a1.322,1.322,0,0,1-1.22-.921,1.526,1.526,0,0,1-.06-.522c0-.336,0-.661,0-.971,0-.616.007-1.172.01-1.644s.011-.834.015-1.109c0-.122.007-.222.009-.3a.44.44,0,0,1,.01-.105.409.409,0,0,1,.01.105c0,.079.005.179.009.3,0,.275.009.65.015,1.109s.007,1.028.01,1.644c0,.31,0,.635,0,.971a1.266,1.266,0,0,0,.307.933,1.225,1.225,0,0,0,.882.416l.969,0,1.644.01,1.109.016.3.009a.445.445,0,0,1,.105.01" transform="translate(-28.524 -107.723)" fill="#cadee0"/>
              <path id="Trazado_180178" data-name="Trazado 180178" d="M49.722,219.271c0,.027-1.291.048-2.882.048s-2.883-.022-2.883-.048,1.29-.048,2.883-.048,2.882.022,2.882.048" transform="translate(-22.38 -111.612)" fill="#cadee0"/>
              <path id="Trazado_180179" data-name="Trazado 180179" d="M52.458,223.6c0,.026-1.9.048-4.25.048s-4.25-.022-4.25-.048,1.9-.048,4.25-.048,4.25.022,4.25.048" transform="translate(-22.38 -113.815)" fill="#cadee0"/>
              <path id="Trazado_180180" data-name="Trazado 180180" d="M52.458,227.923c0,.026-1.9.048-4.25.048s-4.25-.022-4.25-.048,1.9-.048,4.25-.048,4.25.022,4.25.048" transform="translate(-22.38 -116.017)" fill="#cadee0"/>
              <path id="Trazado_180181" data-name="Trazado 180181" d="M52.458,232.249c0,.026-1.9.048-4.25.048s-4.25-.022-4.25-.048,1.9-.048,4.25-.048,4.25.022,4.25.048" transform="translate(-22.38 -118.22)" fill="#cadee0"/>
              <path id="Trazado_180182" data-name="Trazado 180182" d="M52.458,236.575c0,.026-1.9.048-4.25.048s-4.25-.022-4.25-.048,1.9-.048,4.25-.048,4.25.022,4.25.048" transform="translate(-22.38 -120.422)" fill="#cadee0"/>
              <path id="Trazado_180183" data-name="Trazado 180183" d="M52.458,241.911c0,.027-1.9.048-4.25.048s-4.251-.022-4.251-.048,1.9-.048,4.251-.048,4.25.022,4.25.048" transform="translate(-22.38 -123.139)" fill="#cadee0"/>
              <path id="Trazado_180184" data-name="Trazado 180184" d="M52.875,257.069c0,.071-3.031.128-6.77.128s-6.77-.057-6.77-.128,3.031-.128,6.77-.128,6.77.057,6.77.128" transform="translate(-20.026 -130.815)" fill="#cadee0"/>
              <path id="Trazado_180185" data-name="Trazado 180185" d="M52.964,260.679a37.249,37.249,0,0,1-4.358.128,37.247,37.247,0,0,1-4.358-.128,37.267,37.267,0,0,1,4.358-.128,37.269,37.269,0,0,1,4.358.128" transform="translate(-22.528 -132.653)" fill="#cadee0"/>
              <path id="Trazado_180186" data-name="Trazado 180186" d="M197.932,227.241H187a1.367,1.367,0,0,1-1.367-1.368V210.748A1.367,1.367,0,0,1,187,209.381h6.931l5.364,5.529v10.963a1.367,1.367,0,0,1-1.367,1.368" transform="translate(-94.513 -106.601)" fill="#d4e9eb"/>
              <path id="Trazado_180187" data-name="Trazado 180187" d="M202.541,209.381v4.257a1.272,1.272,0,0,0,1.271,1.272h4.093Z" transform="translate(-103.119 -106.601)" fill="#ddf3f5"/>
              <path id="Trazado_180188" data-name="Trazado 180188" d="M202.654,218.814a1.414,1.414,0,0,0,1.122,1.372,1.261,1.261,0,0,0,.134.03c.535.1,4.053.722,4.053.641v-1.144h-4.093s-1.022-.035-1.216-.9" transform="translate(-103.176 -111.404)" fill="#cadee0"/>
              <path id="Trazado_180189" data-name="Trazado 180189" d="M197.881,227.191c0-.006.082,0,.236-.028a1.374,1.374,0,0,0,.62-.289,1.353,1.353,0,0,0,.489-.964c.007-.441,0-.953,0-1.524,0-2.29-.01-5.567-.017-9.525l.012.028-5.369-5.525.033.014h-6.621a3.493,3.493,0,0,0-.525.019,1.319,1.319,0,0,0-.857.535,1.3,1.3,0,0,0-.242.672c-.01.242,0,.5,0,.742q0,.742,0,1.475,0,1.465,0,2.884c0,1.891,0,3.715,0,5.453q0,1.3,0,2.539,0,.617,0,1.216,0,.3,0,.594a3.166,3.166,0,0,0,.026.575,1.331,1.331,0,0,0,.618.878,1.314,1.314,0,0,0,.5.178,5,5,0,0,0,.538.014l2.063,0,6.224.015,1.693.009.44,0c.1,0,.15,0,.15,0s-.051,0-.15,0l-.44,0-1.693.009-6.224.015-2.063,0a5.158,5.158,0,0,1-.548-.014,1.389,1.389,0,0,1-.534-.187,1.409,1.409,0,0,1-.657-.929,3.189,3.189,0,0,1-.028-.591q0-.295,0-.594,0-.6,0-1.216,0-1.235,0-2.539c0-1.738,0-3.562,0-5.453q0-1.418,0-2.884v-1.475c0-.249-.005-.493,0-.749a1.4,1.4,0,0,1,.259-.721,1.417,1.417,0,0,1,.919-.573,3.524,3.524,0,0,1,.54-.021H193.9l.014.014,5.36,5.534.011.012v.016c-.007,3.958-.013,7.235-.017,9.525,0,.572,0,1.081-.01,1.526a1.374,1.374,0,0,1-.51.981,1.354,1.354,0,0,1-.633.283,1,1,0,0,1-.178.016h-.06" transform="translate(-94.462 -106.551)" fill="#cadee0"/>
              <path id="Trazado_180190" data-name="Trazado 180190" d="M207.855,214.91a.446.446,0,0,1-.105.01l-.3.009-1.109.015-1.644.01h-.972a1.322,1.322,0,0,1-1.22-.921,1.524,1.524,0,0,1-.06-.522c0-.336,0-.661,0-.971,0-.616.007-1.172.01-1.644s.011-.834.015-1.109c0-.122.007-.222.009-.3a.444.444,0,0,1,.01-.105.413.413,0,0,1,.01.105c0,.079.005.179.009.3,0,.275.009.65.016,1.109s.006,1.028.01,1.644c0,.31,0,.635,0,.971a1.266,1.266,0,0,0,.307.933,1.224,1.224,0,0,0,.882.416l.969,0,1.644.01,1.109.016.3.009a.445.445,0,0,1,.105.01" transform="translate(-103.068 -106.601)" fill="#cadee0"/>
              <path id="Trazado_180191" data-name="Trazado 180191" d="M196.14,217.07c0,.027-1.291.048-2.882.048s-2.883-.022-2.883-.048,1.29-.048,2.883-.048,2.882.022,2.882.048" transform="translate(-96.925 -110.492)" fill="#cadee0"/>
              <path id="Trazado_180192" data-name="Trazado 180192" d="M198.876,221.4c0,.027-1.9.048-4.25.048s-4.25-.022-4.25-.048,1.9-.048,4.25-.048,4.25.022,4.25.048" transform="translate(-96.925 -112.694)" fill="#cadee0"/>
              <path id="Trazado_180193" data-name="Trazado 180193" d="M198.876,225.722c0,.026-1.9.048-4.25.048s-4.25-.022-4.25-.048,1.9-.048,4.25-.048,4.25.022,4.25.048" transform="translate(-96.925 -114.897)" fill="#cadee0"/>
              <path id="Trazado_180194" data-name="Trazado 180194" d="M198.876,230.048c0,.027-1.9.048-4.25.048s-4.25-.022-4.25-.048,1.9-.048,4.25-.048,4.25.022,4.25.048" transform="translate(-96.925 -117.099)" fill="#cadee0"/>
              <path id="Trazado_180195" data-name="Trazado 180195" d="M198.876,234.374c0,.026-1.9.048-4.25.048s-4.25-.022-4.25-.048,1.9-.048,4.25-.048,4.25.022,4.25.048" transform="translate(-96.925 -119.302)" fill="#cadee0"/>
              <path id="Trazado_180196" data-name="Trazado 180196" d="M198.876,239.709c0,.027-1.9.048-4.25.048s-4.25-.022-4.25-.048,1.9-.048,4.25-.048,4.25.022,4.25.048" transform="translate(-96.925 -122.018)" fill="#cadee0"/>
              <path id="Trazado_180197" data-name="Trazado 180197" d="M199.293,254.867c0,.071-3.031.128-6.77.128s-6.77-.057-6.77-.128,3.031-.128,6.77-.128,6.77.057,6.77.128" transform="translate(-94.572 -129.694)" fill="#cadee0"/>
              <path id="Trazado_180198" data-name="Trazado 180198" d="M199.382,258.478a37.265,37.265,0,0,1-4.358.128,37.263,37.263,0,0,1-4.358-.128,37.263,37.263,0,0,1,4.358-.128,37.265,37.265,0,0,1,4.358.128" transform="translate(-97.073 -131.533)" fill="#cadee0"/>
              <path id="Trazado_180199" data-name="Trazado 180199" d="M122.351,21.858l.517,9.779a.612.612,0,0,0,.565.619h15.083a.618.618,0,0,0,.566-.66V23.981a.618.618,0,0,0-.569-.661l-9.276.07a.528.528,0,0,1-.4-.19l-1.612-1.854a.527.527,0,0,0-.4-.189h-3.91a.625.625,0,0,0-.565.7" transform="translate(-62.292 -10.772)" fill="#d4e9eb"/>
              <rect id="Rectángulo_38014" data-name="Rectángulo 38014" width="16.48" height="11.494" transform="translate(60.31 11.393)" fill="#ddf3f5"/>
              <path id="Trazado_180200" data-name="Trazado 180200" d="M120.189,24.817,121.447,36.8a.389.389,0,0,0,.361.373h16.061a.393.393,0,0,0,.363-.391l.808-11.986a.4.4,0,0,0-.363-.458H120.55a.406.406,0,0,0-.361.476" transform="translate(-61.19 -12.393)" fill="#d4e9eb"/>
              <path id="Trazado_180201" data-name="Trazado 180201" d="M139.141,62.75c0,.071-3.031.128-6.77.128s-6.77-.057-6.77-.128,3.031-.128,6.77-.128,6.77.057,6.77.128" transform="translate(-63.947 -31.883)" fill="#cadee0"/>
              <path id="Trazado_180202" data-name="Trazado 180202" d="M139.23,66.36a37.259,37.259,0,0,1-4.358.128,37.257,37.257,0,0,1-4.358-.128,37.262,37.262,0,0,1,4.358-.128,37.264,37.264,0,0,1,4.358.128" transform="translate(-66.448 -33.72)" fill="#cadee0"/>
              <path id="Trazado_180203" data-name="Trazado 180203" d="M123.431,115.5l.517,9.779a.613.613,0,0,0,.565.62H139.6a.619.619,0,0,0,.565-.661v-7.615a.618.618,0,0,0-.569-.661l-9.276.07a.526.526,0,0,1-.4-.19l-1.612-1.854a.529.529,0,0,0-.4-.189H124a.625.625,0,0,0-.565.7" transform="translate(-62.841 -58.449)" fill="#d4e9eb"/>
              <rect id="Rectángulo_38015" data-name="Rectángulo 38015" width="16.48" height="11.494" transform="translate(60.84 57.361)" fill="#ddf3f5"/>
              <path id="Trazado_180204" data-name="Trazado 180204" d="M121.269,118.463l1.258,11.986a.389.389,0,0,0,.361.373h16.061a.393.393,0,0,0,.363-.391l.808-11.986a.4.4,0,0,0-.363-.458H121.63a.406.406,0,0,0-.361.476" transform="translate(-61.74 -60.07)" fill="#d4e9eb"/>
              <path id="Trazado_180205" data-name="Trazado 180205" d="M140.221,156.4c0,.071-3.031.128-6.77.128s-6.77-.057-6.77-.128,3.031-.128,6.77-.128,6.77.057,6.77.128" transform="translate(-64.497 -79.56)" fill="#cadee0"/>
              <path id="Trazado_180206" data-name="Trazado 180206" d="M140.31,160.006a37.261,37.261,0,0,1-4.358.128,37.259,37.259,0,0,1-4.358-.128,37.265,37.265,0,0,1,4.358-.128,37.267,37.267,0,0,1,4.358.128" transform="translate(-66.998 -81.398)" fill="#cadee0"/>
              <path id="Trazado_180207" data-name="Trazado 180207" d="M107.192,230.962l.517,9.779a.612.612,0,0,0,.565.619h15.083a.618.618,0,0,0,.565-.66v-7.615a.618.618,0,0,0-.569-.661l-9.276.07a.526.526,0,0,1-.4-.19l-1.612-1.854a.527.527,0,0,0-.4-.189h-3.91a.625.625,0,0,0-.565.7" transform="translate(-54.574 -117.232)" fill="#d4e9eb"/>
              <rect id="Rectángulo_38016" data-name="Rectángulo 38016" width="16.48" height="11.494" transform="translate(52.869 114.037)" fill="#ddf3f5"/>
              <path id="Trazado_180208" data-name="Trazado 180208" d="M105.03,233.921l1.258,11.986a.389.389,0,0,0,.361.373H122.71a.393.393,0,0,0,.363-.391l.808-11.986a.4.4,0,0,0-.363-.458H105.391a.406.406,0,0,0-.361.476" transform="translate(-53.472 -118.853)" fill="#d4e9eb"/>
              <path id="Trazado_180209" data-name="Trazado 180209" d="M123.982,271.854c0,.071-3.031.128-6.77.128s-6.77-.057-6.77-.128,3.031-.128,6.77-.128,6.77.057,6.77.128" transform="translate(-56.229 -138.343)" fill="#cadee0"/>
              <path id="Trazado_180210" data-name="Trazado 180210" d="M124.071,275.465a37.244,37.244,0,0,1-4.358.128,37.243,37.243,0,0,1-4.358-.128,37.268,37.268,0,0,1,4.358-.128,37.269,37.269,0,0,1,4.358.128" transform="translate(-58.73 -140.181)" fill="#cadee0"/>
              <rect id="Rectángulo_38017" data-name="Rectángulo 38017" width="109.071" height="95.921" transform="translate(107.812 8.391)" fill="#fff"/>
              <path id="Trazado_180211" data-name="Trazado 180211" d="M328.571,112.882c0-.91-.043-38.205-.108-95.921l.108.108-109.061.02h-.01l.128-.128c-.005,34.861-.01,67.686-.015,95.921l-.113-.113,109.071.113L219.5,113h-.113v-.113c0-28.235-.009-61.06-.015-95.921v-.128h.137l109.061.02h.109v.108c-.065,57.715-.107,95.011-.108,95.921" transform="translate(-111.689 -8.571)" fill="#cadee0"/>
              <path id="Trazado_180212" data-name="Trazado 180212" d="M330.282,37.047c0,.047-24.217.085-54.082.085s-54.087-.038-54.087-.085,24.211-.085,54.087-.085,54.082.038,54.082.085" transform="translate(-113.083 -18.818)" fill="#cadee0"/>
              <path id="Trazado_180213" data-name="Trazado 180213" d="M232.433,26.827a1.119,1.119,0,1,1-1.119-1.119,1.119,1.119,0,0,1,1.119,1.119" transform="translate(-117.198 -13.089)" fill="#d4e9eb"/>
              <path id="Trazado_180214" data-name="Trazado 180214" d="M239.919,26.827a1.119,1.119,0,1,1-1.119-1.119,1.119,1.119,0,0,1,1.119,1.119" transform="translate(-121.009 -13.089)" fill="#d4e9eb"/>
              <path id="Trazado_180215" data-name="Trazado 180215" d="M247.406,26.827a1.119,1.119,0,1,1-1.119-1.119,1.119,1.119,0,0,1,1.119,1.119" transform="translate(-124.821 -13.089)" fill="#d4e9eb"/>
              <path id="Trazado_180216" data-name="Trazado 180216" d="M398.9,49.061a1.212,1.212,0,0,0,.183-.036.628.628,0,0,0,.382-.359.935.935,0,0,0,.043-.395q0-.225,0-.491c0-.356-.005-.766-.008-1.227s0-.975-.008-1.536c0-.139,0-.288,0-.427a.591.591,0,0,0-.177-.368.577.577,0,0,0-.39-.162h-.482l-4.454.013-25.791.025a.547.547,0,0,0-.543.5q0,.466,0,.929,0,.933,0,1.853V48.3a.7.7,0,0,0,.071.4.54.54,0,0,0,.3.246.591.591,0,0,0,.194.031h1.57l6.848,0,11.6.019,7.817.027,2.125.016.553.008c.125,0,.189.009.189.009s-.064.006-.189.009l-.553.008-2.125.016-7.817.027-11.6.019-6.848,0H368.2a.747.747,0,0,1-.25-.04.711.711,0,0,1-.387-.322.874.874,0,0,1-.093-.483v-.916q0-.92,0-1.853,0-.469,0-.942a.718.718,0,0,1,.714-.66l25.791.025,4.454.013.484,0a.668.668,0,0,1,.449.19.676.676,0,0,1,.2.424c.005.154,0,.292,0,.434,0,.561-.005,1.074-.008,1.536s-.005.87-.008,1.227q0,.266,0,.491a.961.961,0,0,1-.053.408.639.639,0,0,1-.409.362.49.49,0,0,1-.188.02" transform="translate(-187.087 -22.365)" fill="#cadee0"/>
              <path id="Trazado_180217" data-name="Trazado 180217" d="M371.7,49.066l.084-.179a.828.828,0,0,0,.531.186c.277,0,.4-.108.4-.248,0-.393-.974-.145-.974-.742,0-.248.193-.459.616-.459a.947.947,0,0,1,.517.142l-.076.184a.827.827,0,0,0-.441-.131c-.273,0-.391.115-.391.255,0,.393.974.147.974.737,0,.246-.2.457-.622.457a.953.953,0,0,1-.616-.2" transform="translate(-189.241 -24.246)" fill="#cadee0"/>
              <path id="Trazado_180218" data-name="Trazado 180218" d="M375.816,49.127h-.988a.412.412,0,0,0,.441.356.455.455,0,0,0,.352-.147l.121.142a.664.664,0,0,1-1.134-.425.6.6,0,0,1,.611-.62.587.587,0,0,1,.6.627.656.656,0,0,1,0,.067m-.988-.159h.781a.393.393,0,0,0-.781,0" transform="translate(-190.723 -24.659)" fill="#cadee0"/>
              <path id="Trazado_180219" data-name="Trazado 180219" d="M378.5,48.927v.735h-.209V49.5a.453.453,0,0,1-.4.174c-.276,0-.45-.147-.45-.358,0-.195.126-.356.489-.356h.349v-.044c0-.186-.108-.294-.326-.294a.616.616,0,0,0-.386.131l-.092-.165a.811.811,0,0,1,.5-.156c.333,0,.521.161.521.494m-.22.363v-.17h-.34c-.218,0-.28.085-.28.188,0,.121.1.2.269.2a.353.353,0,0,0,.351-.216" transform="translate(-192.164 -24.659)" fill="#cadee0"/>
              <path id="Trazado_180220" data-name="Trazado 180220" d="M381.084,48.433v.214a.456.456,0,0,0-.051,0,.363.363,0,0,0-.384.411v.606h-.22V48.444h.211v.2a.466.466,0,0,1,.444-.216" transform="translate(-193.687 -24.659)" fill="#cadee0"/>
              <path id="Trazado_180221" data-name="Trazado 180221" d="M382.062,49.053a.608.608,0,0,1,.643-.62.542.542,0,0,1,.5.259l-.168.108a.379.379,0,0,0-.33-.174.428.428,0,0,0,0,.857.379.379,0,0,0,.33-.174l.168.106a.544.544,0,0,1-.5.262.61.61,0,0,1-.643-.622" transform="translate(-194.518 -24.659)" fill="#cadee0"/>
              <path id="Trazado_180222" data-name="Trazado 180222" d="M386.087,48.468v.7h-.22v-.675c0-.239-.12-.356-.329-.356a.362.362,0,0,0-.386.4v.627h-.22v-1.7h.22v.659a.527.527,0,0,1,.429-.184.472.472,0,0,1,.506.528" transform="translate(-195.979 -24.165)" fill="#cadee0"/>
              <path id="Trazado_180223" data-name="Trazado 180223" d="M387.908,50.479a.154.154,0,0,1,.157-.156.151.151,0,0,1,.151.156.153.153,0,0,1-.151.159.156.156,0,0,1-.157-.159" transform="translate(-197.494 -25.621)" fill="#cadee0"/>
              <path id="Trazado_180224" data-name="Trazado 180224" d="M388.97,50.479a.153.153,0,0,1,.156-.156.151.151,0,0,1,.152.156.153.153,0,0,1-.152.159.155.155,0,0,1-.156-.159" transform="translate(-198.035 -25.621)" fill="#cadee0"/>
              <path id="Trazado_180225" data-name="Trazado 180225" d="M390.033,50.479a.153.153,0,0,1,.156-.156.151.151,0,0,1,.152.156.153.153,0,0,1-.152.159.155.155,0,0,1-.156-.159" transform="translate(-198.576 -25.621)" fill="#cadee0"/>
              <path id="Trazado_180226" data-name="Trazado 180226" d="M357.285,69.518v17.2H378.2v-17.2a1.483,1.483,0,0,0-1.483-1.483H358.768a1.483,1.483,0,0,0-1.483,1.483" transform="translate(-181.903 -34.638)" fill="#cadee0"/>
              <path id="Trazado_180227" data-name="Trazado 180227" d="M359.285,80.518l.139-6.316h18.3v3.6" transform="translate(-182.921 -37.778)" fill="#ddf3f5"/>
              <rect id="Rectángulo_38018" data-name="Rectángulo 38018" width="15.987" height="1.707" transform="translate(177.693 34.717)" fill="#ddf3f5"/>
              <path id="Trazado_180228" data-name="Trazado 180228" d="M361.956,70.636a.324.324,0,0,1,.075-.006l.232-.006.906-.012,3.38-.025,11.393-.036h.085v.085c0,.544,0,1.122,0,1.706-.171.173-.051.048-.09.086h-2.6l-2.49,0-4.512-.01-6.375-.035h-.037v-.036q.013-.825.021-1.281c0-.134.006-.24.009-.322a.536.536,0,0,1,.007-.1.856.856,0,0,1,.007.117c0,.085.005.193.009.33q.007.448.021,1.26l-.036-.036,6.375-.036,4.512-.01,2.49,0h2.6c-.037.038.09-.084-.081.085,0-.585,0-1.162,0-1.706l.085.085-11.331-.036-3.4-.025-.926-.012-.243-.006a.55.55,0,0,1-.087-.006" transform="translate(-184.263 -35.919)" fill="#cadee0"/>
              <path id="Trazado_180229" data-name="Trazado 180229" d="M379.841,114.783c0,.047-4,.085-8.923.085s-8.924-.038-8.924-.085,3.995-.085,8.924-.085,8.923.038,8.923.085" transform="translate(-184.301 -58.396)" fill="#cadee0"/>
              <path id="Trazado_180230" data-name="Trazado 180230" d="M354,79.47l1.608,12.448h20.911V79.863h-9.5l-1.842-1.62h-10.1A1.088,1.088,0,0,0,354,79.47" transform="translate(-180.226 -39.836)" fill="#d4e9eb"/>
              <path id="Trazado_180231" data-name="Trazado 180231" d="M377.551,91.386c0,.047-2.29.085-5.114.085s-5.114-.038-5.114-.085,2.289-.085,5.114-.085,5.114.038,5.114.085" transform="translate(-187.014 -46.484)" fill="#cadee0"/>
              <path id="Trazado_180232" data-name="Trazado 180232" d="M377.551,93.881c0,.047-2.29.085-5.114.085s-5.114-.038-5.114-.085,2.289-.085,5.114-.085,5.114.038,5.114.085" transform="translate(-187.014 -47.754)" fill="#cadee0"/>
              <path id="Trazado_180233" data-name="Trazado 180233" d="M377.814,119.523c0,.047-2.505.085-5.6.085s-5.6-.038-5.6-.085,2.5-.085,5.6-.085,5.6.038,5.6.085" transform="translate(-186.657 -60.809)" fill="#cadee0"/>
              <path id="Trazado_180234" data-name="Trazado 180234" d="M264.635,69.518v17.2h20.91v-17.2a1.483,1.483,0,0,0-1.483-1.483H266.118a1.483,1.483,0,0,0-1.483,1.483" transform="translate(-134.733 -34.638)" fill="#cadee0"/>
              <path id="Trazado_180235" data-name="Trazado 180235" d="M266.635,80.518l.139-6.316h18.3v3.6" transform="translate(-135.751 -37.778)" fill="#ddf3f5"/>
              <rect id="Rectángulo_38019" data-name="Rectángulo 38019" width="15.987" height="1.707" transform="translate(132.214 34.717)" fill="#ddf3f5"/>
              <path id="Trazado_180236" data-name="Trazado 180236" d="M269.306,70.636a.326.326,0,0,1,.075-.006l.232-.006.906-.012,3.38-.025,11.393-.036h.085v.085c0,.544,0,1.122,0,1.706-.171.173-.051.048-.09.086h-2.6l-2.49,0-4.512-.01-6.375-.035h-.037v-.036q.013-.825.021-1.281c0-.134.006-.24.009-.322a.547.547,0,0,1,.007-.1.843.843,0,0,1,.007.117c0,.085.005.193.009.33q.007.448.021,1.26l-.036-.036,6.375-.036,4.512-.01,2.49,0h2.6c-.037.038.09-.084-.081.085,0-.585,0-1.162,0-1.706l.085.085-11.331-.036-3.4-.025-.926-.012-.243-.006a.552.552,0,0,1-.087-.006" transform="translate(-137.092 -35.919)" fill="#cadee0"/>
              <path id="Trazado_180237" data-name="Trazado 180237" d="M287.191,114.783c0,.047-4,.085-8.923.085s-8.924-.038-8.924-.085,3.995-.085,8.924-.085,8.923.038,8.923.085" transform="translate(-137.13 -58.396)" fill="#cadee0"/>
              <path id="Trazado_180238" data-name="Trazado 180238" d="M261.35,79.47l1.608,12.448h20.911V79.863h-9.5l-1.842-1.62h-10.1a1.088,1.088,0,0,0-1.079,1.227" transform="translate(-133.055 -39.836)" fill="#d4e9eb"/>
              <path id="Trazado_180239" data-name="Trazado 180239" d="M284.9,91.386c0,.047-2.29.085-5.114.085s-5.114-.038-5.114-.085,2.289-.085,5.114-.085,5.114.038,5.114.085" transform="translate(-139.843 -46.484)" fill="#cadee0"/>
              <path id="Trazado_180240" data-name="Trazado 180240" d="M284.9,93.881c0,.047-2.29.085-5.114.085s-5.114-.038-5.114-.085,2.289-.085,5.114-.085,5.114.038,5.114.085" transform="translate(-139.843 -47.754)" fill="#cadee0"/>
              <path id="Trazado_180241" data-name="Trazado 180241" d="M285.163,119.523c0,.047-2.505.085-5.6.085s-5.6-.038-5.6-.085,2.5-.085,5.6-.085,5.6.038,5.6.085" transform="translate(-139.486 -60.809)" fill="#cadee0"/>
              <path id="Trazado_180242" data-name="Trazado 180242" d="M263.3,143.959v17.2h20.91v-17.2a1.483,1.483,0,0,0-1.482-1.483H264.779a1.483,1.483,0,0,0-1.483,1.483" transform="translate(-134.051 -72.538)" fill="#cadee0"/>
              <path id="Trazado_180243" data-name="Trazado 180243" d="M265.3,154.959l.138-6.316h18.3v3.6" transform="translate(-135.069 -75.678)" fill="#ddf3f5"/>
              <rect id="Rectángulo_38020" data-name="Rectángulo 38020" width="15.987" height="1.707" transform="translate(131.557 71.258)" fill="#ddf3f5"/>
              <path id="Trazado_180244" data-name="Trazado 180244" d="M267.967,145.077a.328.328,0,0,1,.075-.006l.232-.006.906-.012,3.38-.025,11.393-.037h.085v.085c0,.544,0,1.122,0,1.706-.171.173-.051.048-.09.086h-2.6l-2.49,0-4.512-.01-6.375-.035h-.037v-.036l.021-1.281c0-.134.006-.24.009-.322a.54.54,0,0,1,.007-.1.84.84,0,0,1,.007.117c0,.085.005.193.009.33q.007.448.021,1.26l-.036-.036,6.375-.036,4.512-.01,2.49,0h2.6c-.037.038.09-.084-.081.085,0-.585,0-1.162,0-1.706l.085.085-11.331-.036-3.4-.025-.926-.012-.243-.006a.546.546,0,0,1-.087-.006" transform="translate(-136.41 -73.819)" fill="#cadee0"/>
              <path id="Trazado_180245" data-name="Trazado 180245" d="M285.852,189.224c0,.047-4,.085-8.923.085s-8.924-.038-8.924-.085,3.995-.085,8.924-.085,8.923.038,8.923.085" transform="translate(-136.448 -96.296)" fill="#cadee0"/>
              <path id="Trazado_180246" data-name="Trazado 180246" d="M260.011,153.911l1.608,12.448h20.911V154.3h-9.5l-1.842-1.62h-10.1a1.088,1.088,0,0,0-1.078,1.227" transform="translate(-132.374 -77.735)" fill="#d4e9eb"/>
              <path id="Trazado_180247" data-name="Trazado 180247" d="M283.562,165.828c0,.047-2.29.085-5.114.085s-5.114-.038-5.114-.085,2.289-.085,5.114-.085,5.114.038,5.114.085" transform="translate(-139.162 -84.384)" fill="#cadee0"/>
              <path id="Trazado_180248" data-name="Trazado 180248" d="M283.562,168.322c0,.047-2.29.085-5.114.085s-5.114-.038-5.114-.085,2.289-.085,5.114-.085,5.114.038,5.114.085" transform="translate(-139.162 -85.654)" fill="#cadee0"/>
              <path id="Trazado_180249" data-name="Trazado 180249" d="M283.824,193.965c0,.047-2.505.085-5.6.085s-5.6-.038-5.6-.085,2.5-.085,5.6-.085,5.6.038,5.6.085" transform="translate(-138.805 -98.709)" fill="#cadee0"/>
              <path id="Trazado_180250" data-name="Trazado 180250" d="M356.96,143.959v17.2h20.91v-17.2a1.483,1.483,0,0,0-1.482-1.483H358.443a1.483,1.483,0,0,0-1.483,1.483" transform="translate(-181.738 -72.538)" fill="#cadee0"/>
              <path id="Trazado_180251" data-name="Trazado 180251" d="M358.959,154.959l.138-6.316h18.3v3.6" transform="translate(-182.756 -75.678)" fill="#ddf3f5"/>
              <rect id="Rectángulo_38021" data-name="Rectángulo 38021" width="15.987" height="1.707" transform="translate(177.534 71.258)" fill="#ddf3f5"/>
              <path id="Trazado_180252" data-name="Trazado 180252" d="M361.631,145.077a.327.327,0,0,1,.075-.006l.232-.006.906-.012,3.38-.025,11.393-.037h.085v.085c0,.544,0,1.122,0,1.706-.171.173-.051.048-.09.086h-2.6l-2.49,0-4.512-.01-6.375-.035h-.037v-.036q.013-.825.021-1.281c0-.134.006-.24.009-.322a.536.536,0,0,1,.007-.1.854.854,0,0,1,.007.117c0,.085.005.193.009.33q.007.448.021,1.26l-.036-.036,6.375-.036,4.512-.01,2.49,0h2.6c-.037.038.09-.084-.082.085,0-.585,0-1.162,0-1.706l.085.085-11.331-.036-3.4-.025-.926-.012-.243-.006a.545.545,0,0,1-.087-.006" transform="translate(-184.097 -73.819)" fill="#cadee0"/>
              <path id="Trazado_180253" data-name="Trazado 180253" d="M379.515,189.224c0,.047-4,.085-8.923.085s-8.924-.038-8.924-.085,3.995-.085,8.924-.085,8.923.038,8.923.085" transform="translate(-184.135 -96.296)" fill="#cadee0"/>
              <path id="Trazado_180254" data-name="Trazado 180254" d="M353.674,153.911l1.608,12.448h20.911V154.3h-9.5l-1.842-1.62h-10.1a1.087,1.087,0,0,0-1.078,1.227" transform="translate(-180.06 -77.735)" fill="#d4e9eb"/>
              <path id="Trazado_180255" data-name="Trazado 180255" d="M377.226,165.828c0,.047-2.29.085-5.114.085s-5.114-.038-5.114-.085,2.289-.085,5.114-.085,5.114.038,5.114.085" transform="translate(-186.848 -84.384)" fill="#cadee0"/>
              <path id="Trazado_180256" data-name="Trazado 180256" d="M377.226,168.322c0,.047-2.29.085-5.114.085S367,168.37,367,168.322s2.289-.085,5.114-.085,5.114.038,5.114.085" transform="translate(-186.848 -85.654)" fill="#cadee0"/>
              <path id="Trazado_180257" data-name="Trazado 180257" d="M377.488,193.965c0,.047-2.505.085-5.6.085s-5.6-.038-5.6-.085,2.5-.085,5.6-.085,5.6.038,5.6.085" transform="translate(-186.492 -98.709)" fill="#cadee0"/>
              <path id="Trazado_180258" data-name="Trazado 180258" d="M215.4,431.312c0,.071-48.222.128-107.693.128-59.491,0-107.7-.057-107.7-.128s48.212-.128,107.7-.128c59.471,0,107.693.057,107.693.128" transform="translate(0 -219.527)" fill="#263238"/>
              <path id="Trazado_180259" data-name="Trazado 180259" d="M174.884,140.681h-38.16L129.436,151.5l-7.112-10.817H84.841A4.341,4.341,0,0,1,80.5,136.34V61.995a4.341,4.341,0,0,1,4.341-4.341h90.043a4.341,4.341,0,0,1,4.341,4.341V136.34a4.341,4.341,0,0,1-4.341,4.341" transform="translate(-40.985 -29.353)" fill="#fafafa"/>
              <path id="Trazado_180260" data-name="Trazado 180260" d="M174.752,140.548s.081-.008.239-.019a4.308,4.308,0,0,0,3.031-1.511,4.244,4.244,0,0,0,.915-1.8,4.8,4.8,0,0,0,.1-.566c.007-.2.027-.395.022-.6q0-.619,0-1.291c0-1.791-.007-3.856-.011-6.181-.01-9.305-.024-22.764-.041-39.394,0-8.316-.01-17.425-.016-27.2a4.255,4.255,0,0,0-2.926-4.142,5.144,5.144,0,0,0-1.831-.208l-7.7,0-16.067.005-34.5.007-18.249,0H84.848c-.2,0-.384.015-.577.023a4.656,4.656,0,0,0-.564.1,4.187,4.187,0,0,0-3.09,3.1,8.939,8.939,0,0,0-.122,2.105v2.14q0,2.137,0,4.261v8.446q0,8.393,0,16.554c0,10.874,0,21.407-.006,31.507q0,3.787,0,7.491,0,.926,0,1.847a9.853,9.853,0,0,0,.081,1.808A4.236,4.236,0,0,0,84.2,140.4c.573.059,1.184.024,1.775.034h3.546l6.949,0,25.723.013h.053l.028.044,7.1,10.822h-.147l7.3-10.811.024-.034h.041l28.134.036,7.458.021,1.918.01c.431,0,.649.011.649.011s-.219.007-.649.011l-1.918.011-7.458.02-28.134.036.064-.034-7.28,10.823-.074.11-.073-.111L122.111,140.6l.081.043-25.723.013-6.949,0H85.973c-.6-.01-1.184.027-1.8-.035a4.466,4.466,0,0,1-3.833-3.551,10.027,10.027,0,0,1-.086-1.853q0-.92,0-1.847,0-3.7,0-7.491c0-10.1,0-20.633-.006-31.507q0-8.155,0-16.554,0-4.2,0-8.446V61.9a4.7,4.7,0,0,1,.129-1.093,4.441,4.441,0,0,1,3.278-3.286,4.946,4.946,0,0,1,.6-.108c.2-.009.408-.028.6-.024H97.714l18.249,0,34.5.007,16.067.005,7.7,0a5.359,5.359,0,0,1,1.9.22,4.493,4.493,0,0,1,2.727,2.51,4.639,4.639,0,0,1,.345,1.838c-.006,9.779-.011,18.887-.016,27.2-.017,16.63-.031,30.089-.041,39.394,0,2.325-.008,4.39-.012,6.181q0,.672,0,1.291c0,.206-.017.411-.025.609a4.885,4.885,0,0,1-.1.574,4.352,4.352,0,0,1-3.3,3.222,4.026,4.026,0,0,1-.7.087c-.159.006-.239.005-.239.005" transform="translate(-40.852 -29.22)" fill="#263238"/>
              <path id="Trazado_180261" data-name="Trazado 180261" d="M154.751,149.163c0,.963-.723,1.562-1.877,1.562H152v1.191h-1V147.6h1.871c1.155,0,1.877.6,1.877,1.568m-1.013,0c0-.476-.309-.753-.92-.753H152v1.5h.815c.611,0,.92-.278.92-.747" transform="translate(-76.88 -75.145)" fill="#263238"/>
              <path id="Trazado_180262" data-name="Trazado 180262" d="M162.6,151.008v1.9h-.9v-.414a1.09,1.09,0,0,1-1.013.463c-.778,0-1.241-.432-1.241-1.006s.414-.994,1.426-.994h.766c0-.414-.247-.654-.766-.654a1.6,1.6,0,0,0-.957.308l-.346-.673a2.552,2.552,0,0,1,1.432-.4c1.013,0,1.6.469,1.6,1.476m-.963.846v-.34h-.661c-.451,0-.592.167-.592.389,0,.241.2.4.543.4a.71.71,0,0,0,.71-.451" transform="translate(-81.177 -76.131)" fill="#263238"/>
              <path id="Trazado_180263" data-name="Trazado 180263" d="M166.99,152.594l.321-.692a2.273,2.273,0,0,0,1.155.321c.444,0,.611-.117.611-.3,0-.543-2.006.012-2.006-1.315,0-.63.568-1.074,1.537-1.074a2.735,2.735,0,0,1,1.278.29l-.321.685a1.911,1.911,0,0,0-.957-.247c-.432,0-.617.135-.617.309,0,.568,2.006.018,2.006,1.327,0,.617-.574,1.055-1.568,1.055a2.852,2.852,0,0,1-1.439-.358" transform="translate(-85.019 -76.131)" fill="#263238"/>
              <path id="Trazado_180264" data-name="Trazado 180264" d="M173.669,152.594l.321-.692a2.272,2.272,0,0,0,1.154.321c.444,0,.611-.117.611-.3,0-.543-2.006.012-2.006-1.315,0-.63.568-1.074,1.537-1.074a2.733,2.733,0,0,1,1.278.29l-.321.685a1.911,1.911,0,0,0-.957-.247c-.432,0-.617.135-.617.309,0,.568,2.006.018,2.006,1.327,0,.617-.574,1.055-1.568,1.055a2.852,2.852,0,0,1-1.439-.358" transform="translate(-88.419 -76.131)" fill="#263238"/>
              <path id="Trazado_180265" data-name="Trazado 180265" d="M185.756,149.633l-1.2,3.322h-.926l-.747-2.062-.772,2.062h-.926l-1.2-3.322h.908l.784,2.247.815-2.247h.815l.79,2.247.808-2.247Z" transform="translate(-91.634 -76.182)" fill="#263238"/>
              <path id="Trazado_180266" data-name="Trazado 180266" d="M191.97,151.242a1.828,1.828,0,1,1,1.828,1.71,1.71,1.71,0,0,1-1.828-1.71m2.673,0a.852.852,0,1,0-.846.92.838.838,0,0,0,.846-.92" transform="translate(-97.737 -76.131)" fill="#263238"/>
              <path id="Trazado_180267" data-name="Trazado 180267" d="M202.774,149.532v.889c-.08-.006-.142-.012-.216-.012a.816.816,0,0,0-.883.926V152.9h-.964v-3.321h.92v.438a1.339,1.339,0,0,1,1.142-.487" transform="translate(-102.188 -76.131)" fill="#263238"/>
              <path id="Trazado_180268" data-name="Trazado 180268" d="M209.16,147.067v4.581h-.92v-.383a1.277,1.277,0,0,1-1.037.432,1.711,1.711,0,0,1,0-3.42,1.274,1.274,0,0,1,.994.4v-1.612Zm-.944,2.92a.852.852,0,1,0-.846.92.842.842,0,0,0,.846-.92" transform="translate(-104.647 -74.876)" fill="#263238"/>
              <path id="Trazado_180269" data-name="Trazado 180269" d="M122.478,187.691H116.22A2.687,2.687,0,0,1,113.532,185V174.281a2.687,2.687,0,0,1,2.688-2.687h6.259a2.687,2.687,0,0,1,2.687,2.688V185a2.687,2.687,0,0,1-2.687,2.688" transform="translate(-57.802 -87.363)" fill="#ebebeb"/>
              <path id="Trazado_180270" data-name="Trazado 180270" d="M178.732,187.691h-5.944A2.687,2.687,0,0,1,170.1,185V174.281a2.687,2.687,0,0,1,2.688-2.687h5.944a2.687,2.687,0,0,1,2.688,2.688V185a2.687,2.687,0,0,1-2.688,2.688" transform="translate(-86.602 -87.363)" fill="#ebebeb"/>
              <path id="Trazado_180271" data-name="Trazado 180271" d="M151.014,187.691H145.07A2.687,2.687,0,0,1,142.382,185V174.281a2.687,2.687,0,0,1,2.688-2.687h5.944a2.687,2.687,0,0,1,2.688,2.688V185a2.687,2.687,0,0,1-2.688,2.688" transform="translate(-72.49 -87.363)" fill="#ebebeb"/>
              <path id="Trazado_180272" data-name="Trazado 180272" d="M206.638,187.691h-6.264A2.688,2.688,0,0,1,197.686,185V174.281a2.688,2.688,0,0,1,2.688-2.687h6.264a2.687,2.687,0,0,1,2.688,2.688V185a2.687,2.687,0,0,1-2.688,2.688" transform="translate(-100.647 -87.363)" fill="#ebebeb"/>
              <path id="Trazado_180273" data-name="Trazado 180273" d="M233.834,187.691H227.57A2.688,2.688,0,0,1,224.882,185V174.281a2.688,2.688,0,0,1,2.688-2.687h6.264a2.688,2.688,0,0,1,2.688,2.688V185a2.688,2.688,0,0,1-2.688,2.688" transform="translate(-114.493 -87.363)" fill="#ebebeb"/>
              <path id="Trazado_180274" data-name="Trazado 180274" d="M124.9,184.773l1.244.673-.56.937-1.256-.742.023,1.381h-1.074l.012-1.393-1.256.753-.548-.937,1.245-.673-1.245-.685.548-.937,1.256.754-.012-1.393h1.074l-.023,1.393,1.256-.754.56.937Z" transform="translate(-61.851 -92.922)" fill="#79f5ed"/>
              <path id="Trazado_180275" data-name="Trazado 180275" d="M152.522,184.622l1.244.673-.56.937-1.256-.742.023,1.381H150.9l.012-1.393-1.256.753-.548-.937,1.245-.673-1.245-.685.548-.937,1.256.753-.012-1.393h1.073l-.023,1.393,1.256-.753.56.937Z" transform="translate(-75.915 -92.845)" fill="#79f5ed"/>
              <path id="Trazado_180276" data-name="Trazado 180276" d="M180.812,184.622l1.244.673-.56.937-1.256-.742.023,1.381h-1.074l.012-1.393-1.256.753-.548-.937,1.244-.673-1.244-.685.548-.937,1.256.753-.012-1.393h1.074l-.023,1.393L181.5,183l.56.937Z" transform="translate(-90.318 -92.845)" fill="#79f5ed"/>
              <path id="Trazado_180277" data-name="Trazado 180277" d="M208.216,184.622l1.244.673-.56.937-1.256-.742.023,1.381h-1.074l.012-1.393-1.256.753-.548-.937,1.244-.673-1.244-.685.548-.937,1.256.753-.012-1.393h1.074l-.023,1.393L208.9,183l.56.937Z" transform="translate(-104.27 -92.845)" fill="#79f5ed"/>
              <path id="Trazado_180278" data-name="Trazado 180278" d="M122.36,187.687h-6.021a2.809,2.809,0,0,1-2.806-2.806V174.2a2.81,2.81,0,0,1,2.806-2.807h6.021a2.81,2.81,0,0,1,2.806,2.807V184.88a2.81,2.81,0,0,1-2.806,2.806m-6.021-16.1a2.611,2.611,0,0,0-2.608,2.608V184.88a2.611,2.611,0,0,0,2.608,2.608h6.021a2.61,2.61,0,0,0,2.608-2.608V174.2a2.611,2.611,0,0,0-2.608-2.608Z" transform="translate(-57.803 -87.259)" fill="#263238"/>
              <path id="Trazado_180279" data-name="Trazado 180279" d="M150.831,187.687h-6.021A2.81,2.81,0,0,1,142,184.88V174.2a2.81,2.81,0,0,1,2.807-2.807h6.021a2.81,2.81,0,0,1,2.806,2.807V184.88a2.81,2.81,0,0,1-2.806,2.806m-6.021-16.1A2.611,2.611,0,0,0,142.2,174.2V184.88a2.61,2.61,0,0,0,2.608,2.608h6.021a2.61,2.61,0,0,0,2.608-2.608V174.2a2.611,2.611,0,0,0-2.608-2.608Z" transform="translate(-72.298 -87.259)" fill="#263238"/>
              <path id="Trazado_180280" data-name="Trazado 180280" d="M178.521,187.687H172.5a2.81,2.81,0,0,1-2.807-2.806V174.2a2.81,2.81,0,0,1,2.807-2.807h6.021a2.81,2.81,0,0,1,2.806,2.807V184.88a2.81,2.81,0,0,1-2.806,2.806m-6.021-16.1a2.611,2.611,0,0,0-2.608,2.608V184.88a2.61,2.61,0,0,0,2.608,2.608h6.021a2.61,2.61,0,0,0,2.608-2.608V174.2a2.611,2.611,0,0,0-2.608-2.608Z" transform="translate(-86.396 -87.259)" fill="#263238"/>
              <path id="Trazado_180281" data-name="Trazado 180281" d="M206.526,187.687h-6.021a2.809,2.809,0,0,1-2.806-2.806V174.2a2.81,2.81,0,0,1,2.806-2.807h6.021a2.81,2.81,0,0,1,2.806,2.807V184.88a2.81,2.81,0,0,1-2.806,2.806m-6.021-16.1A2.611,2.611,0,0,0,197.9,174.2V184.88a2.61,2.61,0,0,0,2.608,2.608h6.021a2.61,2.61,0,0,0,2.607-2.608V174.2a2.611,2.611,0,0,0-2.607-2.608Z" transform="translate(-100.654 -87.259)" fill="#263238"/>
              <path id="Trazado_180282" data-name="Trazado 180282" d="M233.716,187.687H227.7a2.81,2.81,0,0,1-2.807-2.806V174.2a2.81,2.81,0,0,1,2.807-2.807h6.021a2.81,2.81,0,0,1,2.806,2.807V184.88a2.81,2.81,0,0,1-2.806,2.806m-6.021-16.1a2.61,2.61,0,0,0-2.608,2.608V184.88a2.61,2.61,0,0,0,2.608,2.608h6.021a2.61,2.61,0,0,0,2.608-2.608V174.2a2.611,2.611,0,0,0-2.608-2.608Z" transform="translate(-114.497 -87.259)" fill="#263238"/>
              <path id="Trazado_180283" data-name="Trazado 180283" d="M236.619,195.753a40.629,40.629,0,0,1-6.449,0,40.8,40.8,0,0,1,6.449,0" transform="translate(-117.186 -99.598)" fill="#79f5ed"/>
              <path id="Trazado_180284" data-name="Trazado 180284" d="M181.66,97.613a13,13,0,1,1-13-13,13,13,0,0,1,13,13" transform="translate(-79.249 -43.078)" fill="#79f5ed"/>
              <path id="Trazado_180285" data-name="Trazado 180285" d="M177.256,102.394h-.216V101.18a2.536,2.536,0,0,1,5.072,0v.989H181.9v-.989a2.32,2.32,0,1,0-4.639,0Z" transform="translate(-90.136 -50.222)" fill="#5bb8b2"/>
              <path id="Trazado_180286" data-name="Trazado 180286" d="M180.915,114.648h-6.448a1.07,1.07,0,0,1-1.069-1.07v-6.448a1.07,1.07,0,0,1,1.069-1.069h6.448a1.07,1.07,0,0,1,1.069,1.069v6.448a1.07,1.07,0,0,1-1.069,1.07m-6.448-8.37a.854.854,0,0,0-.853.853v6.448a.854.854,0,0,0,.853.854h6.448a.854.854,0,0,0,.853-.854v-6.448a.854.854,0,0,0-.853-.853Z" transform="translate(-88.282 -53.999)" fill="#5bb8b2"/>
              <path id="Trazado_180287" data-name="Trazado 180287" d="M181.157,113.14a1.012,1.012,0,1,1,1.012-1.012,1.013,1.013,0,0,1-1.012,1.012m0-1.807a.8.8,0,1,0,.8.8.8.8,0,0,0-.8-.8" transform="translate(-91.717 -56.572)" fill="#5bb8b2"/>
              <rect id="Rectángulo_38022" data-name="Rectángulo 38022" width="0.216" height="1.827" transform="translate(89.301 56.413)" fill="#5bb8b2"/>
              <path id="Trazado_180288" data-name="Trazado 180288" d="M263.706,68.513A4.016,4.016,0,1,1,259.69,64.5a4.016,4.016,0,0,1,4.016,4.016" transform="translate(-130.171 -32.837)" fill="#e0e0e0"/>
              <path id="Trazado_180289" data-name="Trazado 180289" d="M261.08,72.625a.121.121,0,0,1-.087-.036.124.124,0,0,1,0-.174l2.6-2.6a.123.123,0,0,1,.174.174l-2.6,2.6a.122.122,0,0,1-.087.036" transform="translate(-132.86 -35.526)" fill="#fff"/>
              <path id="Trazado_180290" data-name="Trazado 180290" d="M263.679,72.625a.121.121,0,0,1-.087-.036l-2.6-2.6a.123.123,0,0,1,.174-.174l2.6,2.6a.124.124,0,0,1,0,.174.12.12,0,0,1-.086.036" transform="translate(-132.86 -35.526)" fill="#fff"/>
              <path id="Trazado_180291" data-name="Trazado 180291" d="M31.692,336.565s-12.969-14.927-17.864-29.854S11.259,293.5,11.259,293.5,17.866,308,22.882,315s13.949,17.282,13.949,17.282Z" transform="translate(-5.451 -149.397)" fill="#455a64"/>
              <path id="Trazado_180292" data-name="Trazado 180292" d="M57.254,297.894a.756.756,0,0,0-1.407.48c.791,5.244,2.5,17.548,2.433,25.528-.087,10.367,0,14.375,0,14.375h5.4s-.958-21.432-2.178-27.966a44.851,44.851,0,0,0-4.249-12.418" transform="translate(-28.428 -151.469)" fill="#455a64"/>
              <path id="Trazado_180293" data-name="Trazado 180293" d="M64.718,334.618A57.153,57.153,0,0,0,69.161,318.5c.445-3.817-.349-8.973-1.528-15.856a42.7,42.7,0,0,1-.682-7.63,1.288,1.288,0,0,1,2.418-.6,34.269,34.269,0,0,1,3.016,7.623c1.307,6.8,2.788,10.193,1.655,16.64s-5.314,16.378-5.314,16.378Z" transform="translate(-32.95 -149.551)" fill="#455a64"/>
              <path id="Trazado_180294" data-name="Trazado 180294" d="M74.623,326.483s14.24-30.6,15.227-35.142,4.343-15,4.737-14.41.987,6.119-1.579,12.436-13.523,38.048-13.523,38.048H74.623" transform="translate(-37.993 -140.981)" fill="#455a64"/>
              <path id="Trazado_180295" data-name="Trazado 180295" d="M35.841,333.948a2.9,2.9,0,0,1-.4-.274c-.253-.192-.637-.461-1.1-.842a50.465,50.465,0,0,1-3.827-3.378,64.253,64.253,0,0,1-10.331-13.26,86.894,86.894,0,0,1-7.052-15.276c-.716-2.032-1.238-3.7-1.578-4.852-.174-.576-.294-1.028-.378-1.334a2.949,2.949,0,0,1-.11-.472,2.85,2.85,0,0,1,.169.454l.432,1.317c.373,1.144.926,2.8,1.667,4.814a92.379,92.379,0,0,0,7.111,15.194A67.043,67.043,0,0,0,30.663,329.3c1.524,1.514,2.828,2.668,3.751,3.439.454.395.826.678,1.066.886a2.863,2.863,0,0,1,.362.323" transform="translate(-5.631 -149.816)" fill="#263238"/>
              <path id="Trazado_180296" data-name="Trazado 180296" d="M60.924,321.648a5.169,5.169,0,0,1-.128-.9c-.068-.634-.156-1.459-.263-2.453-.225-2.07-.577-4.925-1.08-8.062s-1.066-5.959-1.5-8l-.52-2.411a5.219,5.219,0,0,1-.16-.893,5.137,5.137,0,0,1,.275.864c.16.561.37,1.378.615,2.393.489,2.028,1.085,4.85,1.591,7.995s.823,6.01.994,8.089c.086,1.04.142,1.882.166,2.465a5.174,5.174,0,0,1,.01.907" transform="translate(-29.157 -152.196)" fill="#263238"/>
              <path id="Trazado_180297" data-name="Trazado 180297" d="M70,294.619a2.2,2.2,0,0,1,.168.389l.427,1.137c.189.493.4,1.1.611,1.822s.486,1.529.692,2.45q.169.689.353,1.439c.119.5.2,1.031.313,1.575.233,1.086.376,2.264.549,3.5a52.27,52.27,0,0,1-.58,16.177c-.261,1.221-.488,2.386-.8,3.453-.148.535-.27,1.057-.426,1.549l-.455,1.41c-.271.9-.6,1.693-.866,2.394s-.517,1.3-.74,1.774c-.211.457-.379.824-.507,1.1a2.274,2.274,0,0,1-.2.376,2.2,2.2,0,0,1,.139-.4l.454-1.124c.206-.484.449-1.08.69-1.788s.563-1.5.82-2.4l.434-1.41c.149-.491.265-1.013.407-1.546.3-1.065.515-2.226.767-3.442a54.018,54.018,0,0,0,.577-16.092c-.164-1.231-.3-2.4-.518-3.488-.1-.542-.182-1.071-.3-1.571l-.332-1.437c-.192-.921-.451-1.732-.646-2.453s-.389-1.335-.56-1.832l-.373-1.154a2.229,2.229,0,0,1-.11-.41" transform="translate(-34.9 -149.998)" fill="#263238"/>
              <path id="Trazado_180298" data-name="Trazado 180298" d="M96.839,278.209a.47.47,0,0,1-.011.137c-.017.107-.038.238-.063.4-.063.348-.142.865-.281,1.523-.275,1.316-.733,3.211-1.446,5.509s-1.682,4.995-2.836,7.956-2.484,6.19-3.748,9.626c-1.284,3.43-2.272,6.779-3.2,9.816s-1.795,5.77-2.639,8.023a51.252,51.252,0,0,1-2.248,5.233c-.292.606-.554,1.058-.723,1.369l-.2.35a.468.468,0,0,1-.077.114.463.463,0,0,1,.05-.129l.172-.364c.152-.32.4-.78.671-1.392.573-1.213,1.345-3,2.153-5.256s1.667-4.985,2.572-8.03,1.9-6.4,3.185-9.841c1.267-3.444,2.61-6.669,3.773-9.624S94.1,288,94.833,285.712s1.225-4.164,1.535-5.47c.157-.653.254-1.165.336-1.509l.093-.392a.483.483,0,0,1,.042-.132" transform="translate(-40.407 -141.644)" fill="#263238"/>
              <path id="Trazado_180299" data-name="Trazado 180299" d="M23.355,264.072a1.226,1.226,0,0,0-2.018,1.25,35.125,35.125,0,0,0,1.789,4.6c1.958,4.16,7.709,19.087,10.4,27.285S40.011,320.7,40.011,320.7l5.748-.932s-5.259-25.129-10.4-34.183C31.233,278.31,27.1,267.8,23.355,264.072" transform="translate(-10.833 -134.266)" fill="#455a64"/>
              <path id="Trazado_180300" data-name="Trazado 180300" d="M49.43,342.389a3.572,3.572,0,0,1,.3.689c.17.451.4,1.109.663,1.93.529,1.639,1.177,3.93,1.829,6.475s1.193,4.861,1.571,6.539l.433,1.992a3.578,3.578,0,0,1,.119.74,3.5,3.5,0,0,1-.234-.712c-.14-.524-.317-1.184-.526-1.969-.44-1.729-1.018-4-1.657-6.515-.652-2.541-1.265-4.836-1.741-6.487l-.569-1.955a3.553,3.553,0,0,1-.184-.726" transform="translate(-25.165 -174.319)" fill="#263238"/>
              <path id="Trazado_180301" data-name="Trazado 180301" d="M43.586,320.5a.619.619,0,0,1-.032-.153l-.065-.453c-.06-.4-.114-.988-.236-1.741-.211-1.51-.588-3.686-1.205-6.341a90.773,90.773,0,0,0-2.69-9.183c-1.179-3.406-2.658-7.085-4.334-10.893-3.382-7.607-6.759-14.355-8.98-19.344-1.122-2.489-1.991-4.521-2.563-5.936-.292-.706-.5-1.261-.646-1.635l-.16-.429a.6.6,0,0,1-.045-.15.6.6,0,0,1,.074.138l.188.417.7,1.613c.605,1.4,1.5,3.417,2.649,5.893,2.268,4.963,5.676,11.692,9.063,19.311,1.678,3.814,3.153,7.505,4.321,10.925a86.474,86.474,0,0,1,2.635,9.226,64.228,64.228,0,0,1,1.113,6.373c.1.757.138,1.35.179,1.75.014.186.026.335.035.456a.6.6,0,0,1,0,.156" transform="translate(-11.521 -134.533)" fill="#263238"/>
              <path id="Trazado_180302" data-name="Trazado 180302" d="M64.62,352.851a6.15,6.15,0,0,1-.194-.966l-.447-2.642c-.4-2.227-1-5.295-1.871-8.633s-1.831-6.315-2.577-8.45l-.9-2.525a6.232,6.232,0,0,1-.306-.936,5.994,5.994,0,0,1,.416.893c.247.583.594,1.433.991,2.495a83.558,83.558,0,0,1,2.669,8.447,87.864,87.864,0,0,1,1.788,8.675c.163,1.122.289,2.03.352,2.661a6.1,6.1,0,0,1,.077.982" transform="translate(-29.695 -167.349)" fill="#263238"/>
              <rect id="Rectángulo_38023" data-name="Rectángulo 38023" width="22.437" height="27.337" transform="translate(24.286 184.676)" fill="#7cc6c1"/>
              <g id="Grupo_112552" data-name="Grupo 112552" transform="translate(24.287 184.676)" opacity="0.3">
                <g id="Grupo_112551" data-name="Grupo 112551">
                  <g id="Grupo_112550" data-name="Grupo 112550" clip-path="url(#clip-path-3)">
                    <rect id="Rectángulo_38024" data-name="Rectángulo 38024" width="22.437" height="27.337" transform="translate(0 0)" fill="#7cc6c1"/>
                  </g>
                </g>
              </g>
              <rect id="Rectángulo_38026" data-name="Rectángulo 38026" width="19.906" height="27.337" transform="translate(19.66 184.676)" fill="#79f5ed"/>
              <path id="Trazado_180303" data-name="Trazado 180303" d="M318.732,250.548l-11.8-1.711-23.6,3.492-6.623,2.341,1.175,14.481,22.686,4.179,15.309-4.536,5.787-8.516Z" transform="translate(-140.884 -126.689)" fill="#ffc09d"/>
              <path id="Trazado_180304" data-name="Trazado 180304" d="M315.227,252.731l-9.872-2.326s-6.979,21.576-24.2,20.648c-14.039-.757-14.2-16.427-14.2-16.427l-10.119,3.24s-3.87,25.952.414,44.337c1,4.3,2.341,10.087,2.341,10.087l-1.368,26.863,74.827.119Z" transform="translate(-129.944 -127.488)" fill="#79f5ed"/>
              <g id="Grupo_112555" data-name="Grupo 112555" transform="translate(155.95 200.173)" opacity="0.3">
                <g id="Grupo_112554" data-name="Grupo 112554">
                  <g id="Grupo_112553" data-name="Grupo 112553" clip-path="url(#clip-path-4)">
                    <path id="Trazado_180305" data-name="Trazado 180305" d="M317.7,414.066c3.641-.09,7,.218,10.643.128a69.826,69.826,0,0,1,13.086.5c3.232.533,6.378,1.519,9.614,2.029,4.41.7,9.121.447,13.048-1.678l-.633-3.664-14.91-3.589Z" transform="translate(-317.7 -407.79)"/>
                  </g>
                </g>
              </g>
              <path id="Trazado_180306" data-name="Trazado 180306" d="M222.559,271.428a21.171,21.171,0,0,1,9.113-6.259L235.5,298.5l-7.25,48.525L204.5,346.91s13.1-69.075,18.057-75.482" transform="translate(-104.117 -135.005)" fill="#79f5ed"/>
              <path id="Trazado_180307" data-name="Trazado 180307" d="M370.775,254.642s15.983,1.281,21.718,27.467c2.594,11.844,5.871,25.725,6.816,35.055.685,6.767-2.992,17.36-9.738,18.227l-8.481,1.14a14,14,0,0,1-5-.185c-5.356-1.23-5.9-4.905-6.846-8.812l-2.476-7.815c-1.354-7.432,5.57-8.818,9.394-8.735l-2.851-33.921Z" transform="translate(-186.645 -129.645)" fill="#79f5ed"/>
              <path id="Trazado_180308" data-name="Trazado 180308" d="M255.08,302.917a1.992,1.992,0,0,0-.073.365c-.041.266-.094.617-.161,1.055l-.11.764q-.043.423-.093.913c-.066.655-.146,1.4-.181,2.231a54.983,54.983,0,0,0-.039,5.825,70.13,70.13,0,0,0,.707,7.1c.367,2.5.829,4.872,1.3,7.013s.932,4.059,1.33,5.667.744,2.9.988,3.8l.286,1.028a2.063,2.063,0,0,0,.116.354,1.994,1.994,0,0,0-.066-.367c-.06-.262-.14-.607-.239-1.04l-.91-3.815c-.375-1.613-.828-3.531-1.275-5.674s-.909-4.5-1.275-7-.62-4.888-.725-7.071-.113-4.153-.015-5.8c.023-.827.09-1.572.142-2.227l.072-.913q.047-.416.087-.765l.113-1.06a2.016,2.016,0,0,0,.022-.373" transform="translate(-129.505 -154.223)" fill="#263238"/>
              <path id="Trazado_180309" data-name="Trazado 180309" d="M398.545,378.489a2.88,2.88,0,0,0-.127-.659,10.544,10.544,0,0,0-.617-1.723,11.748,11.748,0,0,0-9.382-6.828,10.539,10.539,0,0,0-1.829-.058,2.883,2.883,0,0,0-.666.082,24.088,24.088,0,0,1,2.472.155,12.092,12.092,0,0,1,9.241,6.726,23.944,23.944,0,0,1,.908,2.3" transform="translate(-196.485 -187.972)" fill="#263238"/>
              <path id="Trazado_180310" data-name="Trazado 180310" d="M394.94,361.5a1.134,1.134,0,0,0-.386-.036,8.382,8.382,0,0,0-1.053.047,12.16,12.16,0,0,0-6.367,2.619,8.275,8.275,0,0,0-.781.708c-.172.18-.261.285-.249.3.029.031.431-.342,1.141-.862a14.05,14.05,0,0,1,6.279-2.582c.87-.129,1.418-.147,1.417-.19" transform="translate(-196.575 -184.031)" fill="#263238"/>
              <path id="Trazado_180311" data-name="Trazado 180311" d="M370.316,274.964a3.794,3.794,0,0,0,.038-.7c0-.45.029-1.1.084-1.9a30.468,30.468,0,0,1,3.365-11.989c.37-.713.686-1.282.917-1.668a3.672,3.672,0,0,0,.331-.618,3.7,3.7,0,0,0-.416.565c-.258.371-.6.929-.993,1.635a27.534,27.534,0,0,0-3.386,12.064c-.033.807-.031,1.461,0,1.912a3.7,3.7,0,0,0,.061.7" transform="translate(-188.496 -131.4)" fill="#263238"/>
              <path id="Trazado_180312" data-name="Trazado 180312" d="M308.034,340.9a1.191,1.191,0,0,0,.072.276c.06.176.13.444.265.773a16.057,16.057,0,0,0,1.331,2.694,17.3,17.3,0,0,0,16.967,8.147,16.047,16.047,0,0,0,2.935-.646c.34-.1.593-.213.769-.276a1.2,1.2,0,0,0,.26-.116c-.008-.022-.379.106-1.057.3a18.124,18.124,0,0,1-2.928.561,17.41,17.41,0,0,1-16.792-8.063,18.122,18.122,0,0,1-1.393-2.636c-.275-.65-.408-1.019-.429-1.011" transform="translate(-156.828 -173.561)" fill="#263238"/>
              <path id="Trazado_180313" data-name="Trazado 180313" d="M376.658,409.308c.026-.023.277.334.874.825a8,8,0,0,0,2.925,1.4,15.57,15.57,0,0,0,4.813.423c1.826-.132,3.84-.346,5.933-.656a30.277,30.277,0,0,0,5.79-1.334,7.4,7.4,0,0,0,2.128-1.421,11.375,11.375,0,0,0,1.488-1.69,15.924,15.924,0,0,0,1.633-2.835c.153-.356.272-.633.343-.825a.157.157,0,1,1,.049.017c-.056.2-.16.482-.3.847a14.6,14.6,0,0,1-1.578,2.9,11.286,11.286,0,0,1-1.49,1.739,7.524,7.524,0,0,1-2.18,1.482,29.388,29.388,0,0,1-5.845,1.371c-2.1.312-4.116.519-5.958.639a15.327,15.327,0,0,1-4.874-.484,7.753,7.753,0,0,1-2.941-1.494,5.185,5.185,0,0,1-.624-.65,1.435,1.435,0,0,1-.186-.252" transform="translate(-191.767 -205.13)" fill="#263238"/>
              <path id="Trazado_180314" data-name="Trazado 180314" d="M371.283,309.47c.069-.017,1.754,6.526,3.764,14.613s3.584,14.659,3.516,14.676-1.753-6.525-3.764-14.614-3.584-14.657-3.516-14.675" transform="translate(-189.029 -157.559)" fill="#263238"/>
              <path id="Trazado_180315" data-name="Trazado 180315" d="M367,376.782a2.1,2.1,0,0,1-.081-.538,9.075,9.075,0,0,1-.034-1.486,4.315,4.315,0,0,1,.718-2.1,6.283,6.283,0,0,1,.82-1.031,5.675,5.675,0,0,1,1.136-.845,14.225,14.225,0,0,1,4.652-1.5,13.036,13.036,0,0,1,1.477-.132,2.006,2.006,0,0,1,.544.02c0,.043-.77.072-1.991.29a15.6,15.6,0,0,0-4.554,1.545,5.589,5.589,0,0,0-1.089.8,6.331,6.331,0,0,0-.8.98,4.272,4.272,0,0,0-.735,1.985,12.586,12.586,0,0,0-.047,1.464,2.328,2.328,0,0,1-.018.543" transform="translate(-186.783 -187.944)" fill="#263238"/>
              <g id="Grupo_112558" data-name="Grupo 112558" transform="translate(123.139 147.613)" opacity="0.3">
                <g id="Grupo_112557" data-name="Grupo 112557">
                  <g id="Grupo_112556" data-name="Grupo 112556" clip-path="url(#clip-path-5)">
                    <path id="Trazado_180316" data-name="Trazado 180316" d="M254.028,323.783a24.665,24.665,0,0,1-.608-23.068,64.53,64.53,0,0,0,.728,23.037" transform="translate(-250.856 -300.716)"/>
                  </g>
                </g>
              </g>
              <path id="Trazado_180317" data-name="Trazado 180317" d="M301.29,382.829l.029.014-.029-.014" transform="translate(-153.395 -194.908)" fill="#ffc09d"/>
              <path id="Trazado_180318" data-name="Trazado 180318" d="M301.646,383l.065.031-.065-.031" transform="translate(-153.576 -194.995)" fill="#ffc09d"/>
              <path id="Trazado_180319" data-name="Trazado 180319" d="M301.349,382.857l.146.07-.146-.07" transform="translate(-153.425 -194.923)" fill="#ffc09d"/>
              <path id="Trazado_180320" data-name="Trazado 180320" d="M301.158,382.766l.064.031-.064-.031" transform="translate(-153.328 -194.876)" fill="#ffc09d"/>
              <path id="Trazado_180321" data-name="Trazado 180321" d="M269.882,395.228c1.283-2.427,11.311-8.827,11.311-8.827l-2.715-.627-3,1.267a7.377,7.377,0,0,1-1.29,2.807c-1.1,1.572-2.973-.054-2.973-.054l1.266-6.07,5.93-3.569a58.344,58.344,0,0,1,6.48,1.282l2.379,2.177c1.044.818,4.057,4.044,4.881,4.142s26.708-5.725,26.708-5.725c3.549,2.81,5.418,8.393,5.982,12.421,0,0,.632,1.978-.055,3.052L293.015,400l-6.732,1.861a47.362,47.362,0,0,1-5.532,1.9c-2.24.471-3.75-.251-3.81-1.491s1.677-1.374,1.677-1.374a34.19,34.19,0,0,0,4.33-1.9,7.6,7.6,0,0,0,2.444-2.682l-2.4.287s-5.1,3.542-7.021,4.581-2.3-.867-2.452-1.449,5.732-6.34,5.732-6.34-5.6,3.451-6.6,4.321-2.5,1.131-2.819.547-1.228-.6.055-3.027" transform="translate(-137.065 -193.547)" fill="#ffc09d"/>
              <path id="Trazado_180322" data-name="Trazado 180322" d="M301.778,383.062l.056.027-.056-.027" transform="translate(-153.643 -195.027)" fill="#ffc09d"/>
              <path id="Trazado_180323" data-name="Trazado 180323" d="M301.956,383.146h0" transform="translate(-153.734 -195.07)" fill="#ffc09d"/>
              <path id="Trazado_180324" data-name="Trazado 180324" d="M301.893,383.116l.031.015-.031-.015" transform="translate(-153.702 -195.055)" fill="#ffc09d"/>
              <path id="Trazado_180325" data-name="Trazado 180325" d="M321.289,403.671a1.27,1.27,0,0,0,.03-.393,2.342,2.342,0,0,0-.031-.462,3.451,3.451,0,0,0-.11-.6,8.535,8.535,0,0,0-1.626-3.135,18.255,18.255,0,0,0-2.448-2.544,7.231,7.231,0,0,0-1.155-.894,11.626,11.626,0,0,0,1.043,1.017,23.464,23.464,0,0,1,2.374,2.565,9.335,9.335,0,0,1,1.652,3.034c.249.854.223,1.419.272,1.418" transform="translate(-160.857 -201.429)" fill="#ff9b6c"/>
              <path id="Trazado_180326" data-name="Trazado 180326" d="M294.088,391.384a3.7,3.7,0,0,0,3.169-1.064c-.043-.056-.656.4-1.533.687s-1.636.306-1.636.377" transform="translate(-149.728 -198.72)" fill="#ff9b6c"/>
              <path id="Trazado_180327" data-name="Trazado 180327" d="M290.694,403.885a31.27,31.27,0,0,0,5.016-2.064,31.263,31.263,0,0,0-5.016,2.064" transform="translate(-148 -204.575)" fill="#ff9b6c"/>
              <path id="Trazado_180328" data-name="Trazado 180328" d="M301.647,411.883a21.314,21.314,0,0,0,2.585-1.01,5.166,5.166,0,0,0-2.585,1.01" transform="translate(-153.576 -209.178)" fill="#ff9b6c"/>
              <path id="Trazado_180329" data-name="Trazado 180329" d="M292.374,406.92a3.268,3.268,0,0,1,1.559,2.049c.029,0,.059-.159.02-.414a2.134,2.134,0,0,0-1.175-1.544c-.235-.106-.4-.119-.4-.091" transform="translate(-148.855 -207.168)" fill="#ff9b6c"/>
              <path id="Trazado_180330" data-name="Trazado 180330" d="M287.576,399.364c-.031.061.408.3.7.807a6.442,6.442,0,0,1,.361,1,1.194,1.194,0,0,0-.158-1.123c-.335-.582-.89-.752-.9-.689" transform="translate(-146.412 -203.321)" fill="#ff9b6c"/>
              <path id="Trazado_180331" data-name="Trazado 180331" d="M288.657,383.62c.026.013.118-.1.188-.316a1.724,1.724,0,0,0-.4-1.661c-.162-.162-.294-.218-.311-.2a2.642,2.642,0,0,1,.525,2.173" transform="translate(-146.694 -194.203)" fill="#ff9b6c"/>
              <path id="Trazado_180332" data-name="Trazado 180332" d="M376.23,399.967a4.026,4.026,0,0,1-.043-.73c0-.235-.009-.521-.033-.854s-.03-.711-.079-1.128a25.433,25.433,0,0,0-1.387-6.367,23.01,23.01,0,0,0-1.506-3.258c-.292-.469-.547-.928-.84-1.323l-.408-.582-.408-.513c-1.055-1.3-1.864-1.962-1.826-2a4,4,0,0,1,.57.459,6.672,6.672,0,0,1,.624.591,10.96,10.96,0,0,1,.771.839l.425.509c.141.183.278.38.425.58.3.395.57.855.87,1.327a21.649,21.649,0,0,1,1.542,3.289,23.317,23.317,0,0,1,1.327,6.441c.038.42.033.8.041,1.137s0,.623-.01.858a4.013,4.013,0,0,1-.057.73" transform="translate(-188.224 -195.101)" fill="#263238"/>
              <g id="Grupo_112561" data-name="Grupo 112561" transform="translate(189.493 180.953)" opacity="0.3">
                <g id="Grupo_112560" data-name="Grupo 112560">
                  <g id="Grupo_112559" data-name="Grupo 112559" clip-path="url(#clip-path-6)">
                    <path id="Trazado_180333" data-name="Trazado 180333" d="M395.448,369.843a15.969,15.969,0,0,0-9.416-.856,13.012,13.012,0,0,1,12.705,8.216c.23.611.682,1.33,1.327,1.235.6-.089.825-.841.825-1.448,0-3.176-2.512-5.923-5.441-7.147" transform="translate(-386.032 -368.634)"/>
                  </g>
                </g>
              </g>
              <path id="Trazado_180334" data-name="Trazado 180334" d="M246.054,291.413a1.51,1.51,0,0,1-.425-.143c-.268-.105-.647-.277-1.107-.506a23.616,23.616,0,0,1-6.437-4.757c-.354-.373-.629-.685-.808-.91a1.514,1.514,0,0,1-.261-.364c.03-.026.462.437,1.2,1.146a29.944,29.944,0,0,0,6.394,4.725,16.416,16.416,0,0,1,1.447.808" transform="translate(-120.67 -144.965)" fill="#fff"/>
              <path id="Trazado_180335" data-name="Trazado 180335" d="M312.275,302.109a.648.648,0,0,1-.124.084l-.376.225c-.329.2-.829.475-1.478.816a41.262,41.262,0,0,1-5.721,2.406,54.433,54.433,0,0,1-8.949,2.151,86.314,86.314,0,0,1-11.232.933c-4,.1-7.807.02-11.269-.058a75.482,75.482,0,0,1-9.179-.693,35.811,35.811,0,0,1-6.044-1.4c-.695-.236-1.229-.433-1.583-.586l-.405-.169a.685.685,0,0,1-.134-.065.618.618,0,0,1,.144.041l.414.145c.36.137.9.319,1.595.539a38.149,38.149,0,0,0,6.04,1.32,78.685,78.685,0,0,0,9.158.636c3.46.065,7.267.133,11.258.037a88.51,88.51,0,0,0,11.2-.91,55.894,55.894,0,0,0,8.928-2.09,44.4,44.4,0,0,0,5.733-2.324c.654-.327,1.16-.586,1.5-.772l.389-.2a.646.646,0,0,1,.137-.062" transform="translate(-130.225 -153.812)" fill="#fff"/>
              <path id="Trazado_180336" data-name="Trazado 180336" d="M240.083,333.013a2.9,2.9,0,0,1-.609-.13l-1.634-.446c-1.376-.388-3.272-.94-5.362-1.565s-3.978-1.2-5.341-1.637l-1.61-.524a2.923,2.923,0,0,1-.58-.225,2.945,2.945,0,0,1,.609.13l1.634.446c1.376.388,3.272.94,5.362,1.565s3.977,1.2,5.34,1.637l1.61.524a2.916,2.916,0,0,1,.581.226" transform="translate(-114.527 -167.239)" fill="#fff"/>
              <path id="Trazado_180337" data-name="Trazado 180337" d="M236.058,386.244c-.02.068-4.922-1.339-10.947-3.141s-10.895-3.318-10.875-3.386,4.921,1.339,10.948,3.141,10.893,3.318,10.873,3.386" transform="translate(-109.074 -193.323)" fill="#fff"/>
              <path id="Trazado_180338" data-name="Trazado 180338" d="M387.018,273.439a3.514,3.514,0,0,1-.54.427c-.356.263-.885.625-1.549,1.057a52.692,52.692,0,0,1-11.086,5.444c-.748.261-1.357.458-1.783.579a3.593,3.593,0,0,1-.668.167,3.586,3.586,0,0,1,.637-.262l1.752-.654c1.475-.563,3.491-1.4,5.653-2.456s4.053-2.149,5.4-2.972l1.589-.986a3.606,3.606,0,0,1,.6-.344" transform="translate(-189.085 -139.214)" fill="#fff"/>
              <path id="Trazado_180339" data-name="Trazado 180339" d="M400.517,330.255a5.9,5.9,0,0,1-.8.378c-.518.231-1.281.537-2.233.887a51.91,51.91,0,0,1-15.5,3.083c-1.014.041-1.835.051-2.4.035a5.758,5.758,0,0,1-.88-.044,5.753,5.753,0,0,1,.879-.055c.566-.015,1.384-.053,2.394-.117a58.963,58.963,0,0,0,15.453-3.073c.957-.327,1.728-.606,2.256-.808a5.813,5.813,0,0,1,.834-.286" transform="translate(-192.807 -168.141)" fill="#fff"/>
              <path id="Trazado_180340" data-name="Trazado 180340" d="M388.014,394.925a1.151,1.151,0,0,1,.026-.274c.032-.2.072-.46.121-.773.06-.334.127-.744.172-1.225s.134-1.022.156-1.629q.027-.455.057-.95c.019-.33.008-.675.014-1.031.022-.713-.03-1.473-.067-2.273a30.874,30.874,0,0,0-2.436-10.085c-.332-.729-.632-1.429-.978-2.053-.167-.314-.316-.626-.482-.911l-.485-.819c-.3-.53-.619-.974-.882-1.378s-.506-.741-.712-1.011l-.461-.633a1.121,1.121,0,0,1-.147-.232,1.085,1.085,0,0,1,.188.2l.5.6a12.18,12.18,0,0,1,.75.99c.276.4.611.838.919,1.365l.5.816c.173.285.326.6.5.911.355.624.666,1.326,1.006,2.059a29.766,29.766,0,0,1,2.455,10.163c.031.807.076,1.573.044,2.291-.01.359,0,.706-.028,1.038s-.051.65-.075.955c-.033.61-.131,1.155-.194,1.634a12.264,12.264,0,0,1-.215,1.223c-.069.31-.124.563-.169.766a1.1,1.1,0,0,1-.076.263" transform="translate(-194.439 -188.197)" fill="#fff"/>
              <path id="Trazado_180341" data-name="Trazado 180341" d="M409.473,378.644c-.027,0-.04-.4-.152-1.107a9.6,9.6,0,0,0-.964-2.859,12.021,12.021,0,0,0-2.773-3.5,14.548,14.548,0,0,0-4.716-2.759,18.459,18.459,0,0,0-5.4-.953,34.92,34.92,0,0,0-4.508.169c-1.282.121-2.317.249-3.033.33l-.826.089a1.246,1.246,0,0,1-.29.014,1.233,1.233,0,0,1,.283-.065l.819-.136c.712-.112,1.745-.267,3.028-.412a32.594,32.594,0,0,1,4.534-.224,18.262,18.262,0,0,1,5.481.947,14.514,14.514,0,0,1,4.787,2.824,11.915,11.915,0,0,1,2.779,3.591,9.108,9.108,0,0,1,.9,2.926,6.147,6.147,0,0,1,.058.832,1.227,1.227,0,0,1,0,.29" transform="translate(-196.934 -186.964)" fill="#fff"/>
              <path id="Trazado_180342" data-name="Trazado 180342" d="M296.841,361.535a1.168,1.168,0,0,1-.277.047l-.8.082-2.945.247c-2.487.192-5.926.427-9.729.625s-7.249.319-9.745.346c-1.248.009-2.258.013-2.956-.009l-.8-.026a.141.141,0,1,1,0-.052l.8-.023,2.952-.072c2.493-.073,5.935-.221,9.736-.421l9.73-.55,2.95-.166.8-.035a1.192,1.192,0,0,1,.281,0" transform="translate(-137.111 -184.063)" fill="#fff"/>
              <g id="Grupo_112564" data-name="Grupo 112564" transform="translate(154.224 172.819)" opacity="0.3">
                <g id="Grupo_112563" data-name="Grupo 112563">
                  <g id="Grupo_112562" data-name="Grupo 112562" clip-path="url(#clip-path-7)">
                    <path id="Trazado_180343" data-name="Trazado 180343" d="M322.541,357.737c3.094.91,7.379,1.132,10.393-.017-2.359,3.348-6.909,4.563-10.857,3.472s-7.589-5.043-7.894-9.127a16.9,16.9,0,0,0,8.358,5.672" transform="translate(-314.182 -352.065)"/>
                  </g>
                </g>
              </g>
              <path id="Trazado_180344" data-name="Trazado 180344" d="M356.523,357.024a.963.963,0,0,1-.246.07l-.714.151c-.621.128-1.523.3-2.64.492-2.233.392-5.329.873-8.764,1.294s-6.558.7-8.819.855c-1.131.08-2.047.133-2.681.159l-.729.025a.129.129,0,1,1,0-.052l.727-.073,2.672-.24c2.257-.2,5.371-.51,8.8-.929s6.527-.872,8.766-1.218l2.652-.411.723-.1a.958.958,0,0,1,.255-.019" transform="translate(-168.865 -181.768)" fill="#fff"/>
              <g id="Grupo_112567" data-name="Grupo 112567" transform="translate(182.367 153.401)" opacity="0.3">
                <g id="Grupo_112566" data-name="Grupo 112566">
                  <g id="Grupo_112565" data-name="Grupo 112565" clip-path="url(#clip-path-8)">
                    <path id="Trazado_180345" data-name="Trazado 180345" d="M371.663,312.506c-.775,8.885,1.647,17.7,4.045,26.294a3.725,3.725,0,0,0,.66,1.481,1.274,1.274,0,0,0,1.463.406c.749-.379.649-1.463.437-2.275L371.6,312.869" transform="translate(-371.516 -312.506)"/>
                  </g>
                </g>
              </g>
              <path id="Trazado_180346" data-name="Trazado 180346" d="M118.576,328.164l10.089,49.53h87.569a1.749,1.749,0,1,0,0-3.5H198.606l-9.354-46.064A1.912,1.912,0,0,0,187.4,326.6l-66.929-.73a1.912,1.912,0,0,0-1.895,2.294" transform="translate(-60.35 -165.909)" fill="#e0e0e0"/>
              <path id="Trazado_180347" data-name="Trazado 180347" d="M118.569,328.137s-.011-.05-.027-.149a1.71,1.71,0,0,1-.008-.45,1.924,1.924,0,0,1,.926-1.448,1.985,1.985,0,0,1,.578-.23,3.073,3.073,0,0,1,.689-.043l1.576.012,3.94.032,25.307.24,17.641.178,9.882.1,5.184.054,2.649.027c.226.006.437,0,.678.017a2.005,2.005,0,0,1,.676.2,2.026,2.026,0,0,1,.961,1.008,3.139,3.139,0,0,1,.183.673l.135.666q.136.667.272,1.339.274,1.343.551,2.7.554,2.721,1.121,5.509,1.134,5.576,2.319,11.4l4.912,24.165-.117-.1h17.336a3.224,3.224,0,0,1,.682.041,1.871,1.871,0,0,1,.5,3.473,1.9,1.9,0,0,1-.824.222l-.808,0h-9.555l-12.451,0-23.707-.005-41.116-.021h-.076l-.015-.074-7.331-36.19-1.99-9.9c-.224-1.131-.4-2-.512-2.581s-.165-.882-.165-.882.07.3.192.877l.538,2.576,2.039,9.885c1.757,8.578,4.293,20.956,7.41,36.173l-.091-.074,41.116-.021,23.707-.006h22.006l.8,0a1.619,1.619,0,0,0,1.549-1.379,1.627,1.627,0,0,0-1.268-1.838,3,3,0,0,0-.632-.036H198.5l-.02-.1-4.9-24.167-2.312-11.405-1.116-5.511q-.276-1.361-.548-2.7-.136-.672-.271-1.34l-.135-.666a2.965,2.965,0,0,0-.169-.631,1.816,1.816,0,0,0-.86-.9,1.794,1.794,0,0,0-.605-.176c-.2-.018-.439-.011-.658-.016l-2.65-.03-5.184-.06-9.882-.114-17.641-.207-25.306-.313-3.94-.054-1.576-.022a2.98,2.98,0,0,0-.678.036,1.947,1.947,0,0,0-.566.219,1.91,1.91,0,0,0-.927,1.412,2.531,2.531,0,0,0,.014.6" transform="translate(-60.343 -165.882)" fill="#263238"/>
              <path id="Trazado_180348" data-name="Trazado 180348" d="M194.823,373.72a2.892,2.892,0,1,1-2.892-2.892,2.892,2.892,0,0,1,2.892,2.892" transform="translate(-96.245 -188.798)" fill="#fff"/>
              <path id="Trazado_180349" data-name="Trazado 180349" d="M118.784,331.345s.1-.007.3-.01l.886,0,3.4,0,12.521.061,41.309.291,5.974.048,1.468.012a3.823,3.823,0,0,1,.75.045,2.092,2.092,0,0,1,1.6,1.494c.109.484.191.942.287,1.412l2.135,10.758c1.355,6.857,2.576,13.031,3.6,18.22l2.407,12.287c.278,1.445.494,2.57.643,3.343l.161.87c.035.2.047.3.047.3s-.028-.1-.07-.294-.106-.491-.185-.866c-.159-.771-.39-1.892-.687-3.334l-2.482-12.272L189.2,345.5l-2.149-10.756c-.095-.462-.183-.944-.285-1.4a1.851,1.851,0,0,0-1.416-1.321,3.631,3.631,0,0,0-.7-.04l-1.468-.011-5.974-.047-41.308-.362-12.521-.137-3.4-.05-.886-.019c-.2-.005-.3-.015-.3-.015" transform="translate(-60.476 -168.689)" fill="#263238"/>
              <path id="Trazado_180350" data-name="Trazado 180350" d="M341.5,178.117a32.422,32.422,0,0,1-10.349,24.48l-4.625-13.4" transform="translate(-166.242 -90.684)" fill="#263238"/>
              <path id="Trazado_180351" data-name="Trazado 180351" d="M278.259,121.685a19.647,19.647,0,0,1,13.2-1.593,41.616,41.616,0,0,1,12.488,5.163,20.405,20.405,0,0,1,5.968,4.656c2.883,3.628,5.732,9.584,6.011,14.21.225,3.739-1.208,13.1-2.788,16.5-1.451,3.117-8.239,5.49-11.59,6.26L270.8,131.12a15.567,15.567,0,0,1,7.456-9.435" transform="translate(-137.873 -60.906)" fill="#263238"/>
              <path id="Trazado_180352" data-name="Trazado 180352" d="M266.109,132.278l7.371-1.318c-4.029,9.6-5.122,31.539-7.427,41.688-2.717-3.943-9.027-15.95-8.689-20.726s-.013-20.459,8.745-19.644" transform="translate(-131.024 -66.675)" fill="#263238"/>
              <path id="Trazado_180353" data-name="Trazado 180353" d="M305.233,149.617a12.59,12.59,0,0,0-9.471-11.593l-16.974-4.33c-7.336-.792-12.235,8.232-12.715,15.6-.534,8.18-.862,16.812.093,22.918,1.922,12.279,11.327,13.862,11.327,13.862,0-.018,0,5.84.008,9.425l5.681,23.515,18.307-25.286,3.789-43.957c0-.21-.024.131-.043-.149" transform="translate(-135.202 -68.042)" fill="#ffc09d"/>
              <path id="Trazado_180354" data-name="Trazado 180354" d="M274.12,182.935a1.574,1.574,0,0,0,1.514,1.592,1.505,1.505,0,0,0,1.626-1.416,1.574,1.574,0,0,0-1.512-1.592,1.507,1.507,0,0,0-1.628,1.416" transform="translate(-139.561 -92.415)" fill="#263238"/>
              <path id="Trazado_180355" data-name="Trazado 180355" d="M270.336,173.6c.194.206,1.389-.674,3.083-.666,1.693-.016,2.933.859,3.118.651.09-.092-.108-.463-.648-.858a4.324,4.324,0,0,0-2.5-.775,4.146,4.146,0,0,0-2.454.786c-.522.4-.7.769-.6.861" transform="translate(-137.623 -87.546)" fill="#263238"/>
              <path id="Trazado_180356" data-name="Trazado 180356" d="M304.2,182.935a1.574,1.574,0,0,0,1.514,1.591,1.506,1.506,0,0,0,1.626-1.416,1.575,1.575,0,0,0-1.513-1.592,1.506,1.506,0,0,0-1.627,1.417" transform="translate(-154.876 -92.414)" fill="#263238"/>
              <path id="Trazado_180357" data-name="Trazado 180357" d="M303.11,173.6c.2.206,1.391-.674,3.084-.666,1.692-.016,2.933.858,3.117.651.09-.092-.106-.462-.648-.858a4.318,4.318,0,0,0-2.495-.776,4.153,4.153,0,0,0-2.455.787c-.52.4-.7.769-.6.861" transform="translate(-154.309 -87.546)" fill="#263238"/>
              <path id="Trazado_180358" data-name="Trazado 180358" d="M287.872,187.777a11.227,11.227,0,0,0-2.75-.5c-.432-.046-.841-.133-.914-.428a2.2,2.2,0,0,1,.292-1.281q.614-1.569,1.287-3.291c1.787-4.685,3.081-8.539,2.892-8.609s-1.792,3.67-3.578,8.356q-.644,1.733-1.233,3.31a2.5,2.5,0,0,0-.228,1.7,1.087,1.087,0,0,0,.71.634,2.921,2.921,0,0,0,.734.1,10.989,10.989,0,0,0,2.789.01" transform="translate(-144.367 -88.417)" fill="#263238"/>
              <path id="Trazado_180359" data-name="Trazado 180359" d="M306.153,231.545s-3.995,8.431-16.277,7.255l0-2.887a30.921,30.921,0,0,0,16.281-4.368" transform="translate(-147.582 -117.886)" fill="#ff9b6c"/>
              <path id="Trazado_180360" data-name="Trazado 180360" d="M304.209,161.531c.166.461,1.858.246,3.845.49,1.992.2,3.593.789,3.858.377.118-.2-.16-.632-.807-1.079a6.736,6.736,0,0,0-5.868-.661c-.73.293-1.1.653-1.027.872" transform="translate(-154.876 -81.597)" fill="#263238"/>
              <path id="Trazado_180361" data-name="Trazado 180361" d="M271.442,162.941c.3.385,1.465-.011,2.868-.027,1.4-.065,2.591.264,2.866-.137.12-.2-.066-.581-.585-.946a4.151,4.151,0,0,0-4.62.133c-.5.395-.661.79-.53.978" transform="translate(-138.176 -82.067)" fill="#263238"/>
              <path id="Trazado_180362" data-name="Trazado 180362" d="M273.171,133.146a5.4,5.4,0,0,1,4.769-3.057,10.488,10.488,0,0,1,5.662,1.651c7.31,4.225,11.067,14.432,18.291,18.8,1.776,1.075,4.089.09,5.6,1.514s2.491,3.7,1.655,5.6a17.182,17.182,0,0,0,2.506-4.239,5.8,5.8,0,0,0-.2-4.785c-.625-1.082-1.729-1.909-2.032-3.122-.267-1.067.155-2.183.108-3.282A7.149,7.149,0,0,0,308.4,139.1a31.858,31.858,0,0,0-11.734-12.344,20.769,20.769,0,0,0-10.773-2.786,15.892,15.892,0,0,0-10.25,4.068c-1.615,1.507-3.314,3.065-2.476,5.109" transform="translate(-138.966 -63.111)" fill="#263238"/>
              <path id="Trazado_180363" data-name="Trazado 180363" d="M342.96,183.617c.129-.352,6.533-2.663,6.617,4.142.082,6.612-6.589,5.311-6.6,5.121s-.015-9.263-.015-9.263" transform="translate(-174.61 -93.148)" fill="#ffc09d"/>
              <path id="Trazado_180364" data-name="Trazado 180364" d="M347.092,192.593c.029-.021.116.08.312.167a1.148,1.148,0,0,0,.861.01,2.85,2.85,0,0,0,1.295-2.569,3.8,3.8,0,0,0-.338-1.646,1.329,1.329,0,0,0-.874-.876.586.586,0,0,0-.677.322c-.087.186-.044.317-.079.329-.019.017-.143-.109-.092-.383a.732.732,0,0,1,.256-.417.868.868,0,0,1,.635-.174,1.618,1.618,0,0,1,1.213,1.014,3.912,3.912,0,0,1,.416,1.839,2.99,2.99,0,0,1-1.653,2.871,1.234,1.234,0,0,1-1.055-.165c-.207-.162-.242-.309-.22-.322" transform="translate(-176.711 -95.385)" fill="#ff9b6c"/>
              <path id="Trazado_180365" data-name="Trazado 180365" d="M311.419,154.269a2.6,2.6,0,0,1-.4-.223c-.253-.161-.643-.375-1.109-.7a22.73,22.73,0,0,1-3.569-3.249,63.693,63.693,0,0,1-4.365-5.671,52.038,52.038,0,0,0-5.457-6.794A20.762,20.762,0,0,0,293,134.846a17.148,17.148,0,0,0-3.8-1.726,18.821,18.821,0,0,0-7-.86,18.055,18.055,0,0,0-4.692.919c-.543.165-.945.348-1.225.454a2.524,2.524,0,0,1-.432.153,2.656,2.656,0,0,1,.407-.209,11.225,11.225,0,0,1,1.21-.509,17.139,17.139,0,0,1,4.715-1.022,18.69,18.69,0,0,1,7.1.808,17.235,17.235,0,0,1,3.872,1.738,20.827,20.827,0,0,1,3.579,2.82,50.606,50.606,0,0,1,5.471,6.849,68.045,68.045,0,0,0,4.3,5.69,24.54,24.54,0,0,0,3.479,3.3c.452.342.83.571,1.071.748a2.584,2.584,0,0,1,.367.274" transform="translate(-140.439 -67.198)" fill="#455a64"/>
              <path id="Trazado_180366" data-name="Trazado 180366" d="M347.533,200.392a1.3,1.3,0,1,1-.309.1" transform="translate(-176.401 -102.015)" fill="#fff"/>
              <path id="Trazado_180367" data-name="Trazado 180367" d="M347.1,200.435a1.783,1.783,0,0,0-.594.888,1.12,1.12,0,0,0,.258,1.038,1.156,1.156,0,0,0,2.033-.648,1.121,1.121,0,0,0-.389-1,1.778,1.778,0,0,0-1-.38c0-.016.1-.068.31-.073a1.349,1.349,0,0,1,.825.288,1.321,1.321,0,0,1,.53,1.192,1.42,1.42,0,0,1-2.517.8,1.324,1.324,0,0,1-.257-1.28,1.351,1.351,0,0,1,.507-.712c.172-.117.289-.135.295-.12" transform="translate(-176.278 -101.959)" fill="#263238"/>
              <path id="Trazado_180368" data-name="Trazado 180368" d="M336,171.452a10.188,10.188,0,0,1-.647,5.317c-.835,1.6-2.939,2.7-4.509,1.8-1.281-.732-1.664-2.372-1.881-3.832-.627-4.211-.914-8.468-1.578-12.674Z" transform="translate(-166.678 -82.511)" fill="#263238"/>
              <path id="Trazado_180369" data-name="Trazado 180369" d="M276.716,135.948c.007.038.584-.11,1.644-.144a11.312,11.312,0,0,1,4.376.8,14.391,14.391,0,0,1,2.741,1.411,29.765,29.765,0,0,1,2.828,2.159,34,34,0,0,1,5.537,5.969c.84,1.18,1.584,2.392,2.39,3.515a16.812,16.812,0,0,0,2.651,2.981,29.455,29.455,0,0,0,5.588,3.738c1.692.894,3.105,1.52,4.081,1.954l1.13.482a1.946,1.946,0,0,0,.4.144,1.857,1.857,0,0,0-.374-.213l-1.1-.545c-.956-.473-2.351-1.134-4.017-2.053a30.488,30.488,0,0,1-5.486-3.764,16.719,16.719,0,0,1-2.581-2.935c-.792-1.111-1.534-2.325-2.383-3.518a33.333,33.333,0,0,0-5.618-6.014,28.8,28.8,0,0,0-2.882-2.157,14.308,14.308,0,0,0-2.817-1.4,10.92,10.92,0,0,0-4.474-.7,7.725,7.725,0,0,0-1.223.17,1.885,1.885,0,0,0-.414.118" transform="translate(-140.883 -69.058)" fill="#455a64"/>
              <path id="Trazado_180370" data-name="Trazado 180370" d="M345.3,164.072a2.932,2.932,0,0,0,.585.395l1.674.983.564.323a1.782,1.782,0,0,0,.724.24.692.692,0,0,0,.448-.106.576.576,0,0,0,.247-.436,1.478,1.478,0,0,0-.312-.836l-1.944-3.112-.262.243a6.925,6.925,0,0,0,4.491,1.338,2,2,0,0,0,.6-.1.811.811,0,0,0,.513-.447.72.72,0,0,0-.111-.668,2.8,2.8,0,0,0-.377-.414,13.946,13.946,0,0,1-2.252-2.84,23.709,23.709,0,0,1-1.432-3.045,3.445,3.445,0,0,0,.208.89,12.425,12.425,0,0,0,1,2.286,13.344,13.344,0,0,0,2.239,2.953c.247.234.491.5.4.711-.079.208-.455.311-.8.313a6.685,6.685,0,0,1-4.254-1.267l-.789-.578.527.821,1.983,3.087a1.257,1.257,0,0,1,.281.646.315.315,0,0,1-.381.281,3.381,3.381,0,0,1-1.188-.489l-1.727-.887a2.932,2.932,0,0,0-.647-.283" transform="translate(-175.803 -79.214)" fill="#455a64"/>
              <path id="Trazado_180371" data-name="Trazado 180371" d="M300.973,207.028a2.21,2.21,0,0,0-2.284-1.678,2.311,2.311,0,0,0-1.777,1.264,2.839,2.839,0,0,0-.1,2.21l.036.159a2.516,2.516,0,0,0,2.833.6,2.353,2.353,0,0,0,1.293-2.558" transform="translate(-151.025 -104.544)" fill="#ff9b6c"/>
              <path id="Trazado_180372" data-name="Trazado 180372" d="M294.565,207.832c0-.257,1.711-.175,3-1.581s1.191-3.238,1.431-3.24c.109-.019.312.423.3,1.2a4.274,4.274,0,0,1-1.1,2.709,3.723,3.723,0,0,1-2.51,1.216c-.72.029-1.134-.183-1.118-.3" transform="translate(-149.97 -103.358)" fill="#263238"/>
              <path id="Trazado_180373" data-name="Trazado 180373" d="M365.311,424.773a.4.4,0,0,1-.115.021l-.341.035-1.312.108c-1.139.091-2.789.2-4.829.322-4.08.242-9.722.488-15.957.593s-11.885.045-15.971-.06c-2.043-.052-3.7-.108-4.837-.161l-1.315-.065-.342-.023a.4.4,0,0,1-.116-.017.4.4,0,0,1,.117-.01l.343,0,1.316.017,4.837.079c4.085.058,9.729.088,15.963-.014s11.871-.323,15.952-.518l4.833-.241,1.315-.061.342-.009a.392.392,0,0,1,.117.005" transform="translate(-163.011 -216.26)" fill="#fff"/>
            </g>
          </g>
        </g>
      </g>
      <rect id="Rectángulo_38491" data-name="Rectángulo 38491" width="295" height="232" transform="translate(1671 -9472)" fill="none"/>
    </g>
  </g>
</svg>
