<svg xmlns="http://www.w3.org/2000/svg" xmlns:xlink="http://www.w3.org/1999/xlink" width="229.108" height="195.662" viewBox="0 0 229.108 195.662">
  <defs>
    <clipPath id="clip-path">
      <rect id="Rectángulo_39212" data-name="Rectángulo 39212" width="229.108" height="195.662" fill="none"/>
    </clipPath>
    <clipPath id="clip-path-2">
      <rect id="Rectángulo_39214" data-name="Rectángulo 39214" width="170.747" height="119.522" rx="14.229" fill="none"/>
    </clipPath>
    <linearGradient id="linear-gradient" x1="-0.171" y1="1.104" x2="-0.165" y2="1.104" gradientUnits="objectBoundingBox">
      <stop offset="0" stop-color="#f4f4f4"/>
      <stop offset="0.565" stop-color="#ebebeb"/>
      <stop offset="0.994" stop-color="#e0e0e0"/>
      <stop offset="1" stop-color="#e0e0e0"/>
    </linearGradient>
  </defs>
  <g id="Grupo_143638" data-name="Grupo 143638" transform="translate(-915 -3037.841)">
    <g id="Grupo_143498" data-name="Grupo 143498" transform="translate(915 3037.841)">
      <g id="Grupo_143252" data-name="Grupo 143252" transform="translate(0)">
        <g id="Grupo_143251" data-name="Grupo 143251" clip-path="url(#clip-path)">
          <path id="Trazado_186650" data-name="Trazado 186650" d="M140.166,29.532a8.523,8.523,0,0,0-5.691-8.013V15.3a2.846,2.846,0,0,0-5.692,0v6.216a8.487,8.487,0,0,0,0,16.026V66.527a2.846,2.846,0,1,0,5.692,0V37.545a8.523,8.523,0,0,0,5.691-8.013m-8.537,2.846a2.846,2.846,0,1,1,2.846-2.846,2.846,2.846,0,0,1-2.846,2.846" fill="#263238"/>
        </g>
      </g>
      <g id="Grupo_143254" data-name="Grupo 143254" transform="translate(29.181 63.682)">
        <g id="Grupo_143253" data-name="Grupo 143253" clip-path="url(#clip-path-2)">
          <rect id="Rectángulo_39213" data-name="Rectángulo 39213" width="170.747" height="119.522" transform="translate(0)" fill="url(#linear-gradient)"/>
        </g>
      </g>
      <g id="Grupo_143256" data-name="Grupo 143256" transform="translate(0)">
        <g id="Grupo_143255" data-name="Grupo 143255" clip-path="url(#clip-path)">
          <path id="Trazado_186651" data-name="Trazado 186651" d="M30.2,174.2A14.227,14.227,0,0,0,43.41,183.2H185.7a14.246,14.246,0,0,0,14.229-14.229V95.141C173.1,158.467,59.126,171.813,30.2,174.2Z" fill="#e0e0e0"/>
          <path id="Trazado_186652" data-name="Trazado 186652" d="M185.7,63.681H43.41A14.245,14.245,0,0,0,29.181,77.91V94.985a2.846,2.846,0,0,0,2.846,2.845H197.082a2.846,2.846,0,0,0,2.846-2.845V77.91A14.245,14.245,0,0,0,185.7,63.681" fill="#79f5ed"/>
          <path id="Trazado_186653" data-name="Trazado 186653" d="M185.7,63.682C155.077,86.262,54.305,88.935,29.18,89.251v5.734a2.846,2.846,0,0,0,2.846,2.846H197.081a2.846,2.846,0,0,0,2.846-2.846V77.91A14.245,14.245,0,0,0,185.7,63.682" fill="#7cc6c1"/>
          <path id="Trazado_186654" data-name="Trazado 186654" d="M69.022,83.6h-31.3a2.846,2.846,0,0,1,0-5.692h31.3a2.846,2.846,0,0,1,0,5.692" fill="#263238"/>
          <path id="Trazado_186655" data-name="Trazado 186655" d="M114.554,157.592a14.245,14.245,0,0,1-14.229-14.229,2.846,2.846,0,1,1,5.692,0,8.546,8.546,0,0,0,8.537,8.537,2.846,2.846,0,1,1,0,5.692" fill="#a7f"/>
          <path id="Trazado_186656" data-name="Trazado 186656" d="M124.411,154.746a2.846,2.846,0,0,1-2.461-4.27,8.534,8.534,0,0,0,1.141-4.267V134.826a8.538,8.538,0,1,0-17.075,0,2.846,2.846,0,0,1-5.691,0,14.229,14.229,0,1,1,28.457,0v11.383a14.223,14.223,0,0,1-1.9,7.116,2.845,2.845,0,0,1-2.466,1.421" fill="#a7f"/>
          <path id="Trazado_186657" data-name="Trazado 186657" d="M114.554,149.055a2.846,2.846,0,0,1-2.846-2.846V134.826a2.846,2.846,0,1,1,5.692,0v11.383a2.846,2.846,0,0,1-2.846,2.846" fill="#a7f"/>
          <path id="Trazado_186658" data-name="Trazado 186658" d="M94.837,160.438a2.845,2.845,0,0,1-2.467-1.422,25.592,25.592,0,0,1-3.428-12.807V134.826a25.612,25.612,0,0,1,44.822-16.94,2.846,2.846,0,0,1-4.269,3.766,19.92,19.92,0,0,0-34.862,13.174v11.383a19.907,19.907,0,0,0,2.665,9.959,2.847,2.847,0,0,1-2.461,4.27" fill="#a7f"/>
          <path id="Trazado_186659" data-name="Trazado 186659" d="M114.554,171.821a25.64,25.64,0,0,1-12.407-3.2,2.846,2.846,0,0,1,2.737-4.99l.022.012a19.927,19.927,0,0,0,29.568-17.433V134.826a20.031,20.031,0,0,0-.626-4.982,2.845,2.845,0,0,1,5.511-1.42,25.7,25.7,0,0,1,.807,6.4v11.383a25.642,25.642,0,0,1-25.612,25.612" fill="#a7f"/>
          <path id="Trazado_186660" data-name="Trazado 186660" d="M114.554,86.448A22.792,22.792,0,0,1,91.788,63.682V49.453a2.845,2.845,0,0,1,4.424-2.368l8.537,5.692a2.846,2.846,0,0,1-3.157,4.735l-4.113-2.741v8.911a17.093,17.093,0,0,0,17.075,17.074,2.846,2.846,0,0,1,0,5.692Z" fill="#263238"/>
          <path id="Trazado_186661" data-name="Trazado 186661" d="M191.39,77.91a2.846,2.846,0,1,1-2.846,2.846,2.846,2.846,0,0,1,2.846-2.846" fill="#263238"/>
          <path id="Trazado_186662" data-name="Trazado 186662" d="M180.007,77.91a2.846,2.846,0,1,1-2.846,2.846,2.846,2.846,0,0,1,2.846-2.846" fill="#263238"/>
          <path id="Trazado_186663" data-name="Trazado 186663" d="M168.624,77.91a2.846,2.846,0,1,1-2.846,2.846,2.846,2.846,0,0,1,2.846-2.846" fill="#263238"/>
          <path id="Trazado_186664" data-name="Trazado 186664" d="M34.872,117.751a2.846,2.846,0,0,1-2.846-2.846V103.522a2.846,2.846,0,0,1,2.846-2.846H46.255a2.846,2.846,0,1,1,0,5.692H37.718V114.9a2.846,2.846,0,0,1-2.846,2.846" fill="#fff"/>
          <path id="Trazado_186665" data-name="Trazado 186665" d="M34.872,123.443a2.846,2.846,0,1,1-2.846,2.846,2.846,2.846,0,0,1,2.846-2.846" fill="#fff"/>
        </g>
      </g>
    </g>
  </g>
</svg>
