<svg xmlns="http://www.w3.org/2000/svg" xmlns:xlink="http://www.w3.org/1999/xlink" width="229.108" height="195.662" viewBox="0 0 229.108 195.662">
  <defs>
    <clipPath id="clip-path">
      <rect id="Rectángulo_39220" data-name="Rectángulo 39220" width="229.108" height="195.662" fill="none"/>
    </clipPath>
  </defs>
  <g id="Grupo_143636" data-name="Grupo 143636" transform="translate(-941.423 -2495.889)">
    <g id="Grupo_143500" data-name="Grupo 143500" transform="translate(941.423 2495.889)">
      <g id="Grupo_143260" data-name="Grupo 143260" transform="translate(0)" clip-path="url(#clip-path)">
        <path id="Trazado_186690" data-name="Trazado 186690" d="M111.364,34.7H48.9a3.359,3.359,0,0,0-3.35,3.35V54.8h65.811Z" fill="#293d7c"/>
        <path id="Trazado_186691" data-name="Trazado 186691" d="M55.571,34.7H48.9a3.359,3.359,0,0,0-3.35,3.35V54.8h6.668V38.054a3.36,3.36,0,0,1,3.35-3.35" fill="#1a2b63"/>
        <path id="Trazado_186692" data-name="Trazado 186692" d="M56.894,48.087a2.82,2.82,0,1,1,1.994-.824,2.854,2.854,0,0,1-1.994.824" fill="#e26693"/>
        <path id="Trazado_186693" data-name="Trazado 186693" d="M66.147,48.087a2.82,2.82,0,1,1,2-.828,2.832,2.832,0,0,1-2,.828" fill="#ffaf10"/>
        <path id="Trazado_186694" data-name="Trazado 186694" d="M75.4,48.087a2.82,2.82,0,1,1,1.994-.824,2.838,2.838,0,0,1-1.994.824" fill="#37c47a"/>
        <path id="Trazado_186695" data-name="Trazado 186695" d="M113.044,69a1.685,1.685,0,0,1-1.68-1.68V54.8H45.553v88.137c4.513,6.917,5.05,13.114,11.377,18.38H183.556V69Z" fill="#c9fbf8"/>
        <path id="Trazado_186696" data-name="Trazado 186696" d="M52.221,140.76V54.8H45.553v88.137c.047.073.1.145.144.217Z" fill="#7cc6c1"/>
        <path id="Trazado_186697" data-name="Trazado 186697" d="M113.044,69a1.685,1.685,0,0,1-1.68-1.68V63.176H55.607a1.685,1.685,0,0,0-1.68,1.68v75.277l14.5-5.326a1.169,1.169,0,0,1,.389-.082.254.254,0,0,1,.217.076c.054.078.072.269-.039.572l-6.454,17.572H173.5a1.685,1.685,0,0,0,1.68-1.68V69Z" fill="#e8f9f7"/>
        <rect id="Rectángulo_39217" data-name="Rectángulo 39217" width="89.558" height="48.951" rx="1.68" transform="translate(111.027 20.382)" fill="#d2b7ff"/>
        <path id="Trazado_186698" data-name="Trazado 186698" d="M117.7,67.652V22.062a1.684,1.684,0,0,1,1.68-1.68h-6.668a1.684,1.684,0,0,0-1.68,1.68v45.59a1.685,1.685,0,0,0,1.68,1.68h6.668a1.685,1.685,0,0,1-1.68-1.68" fill="#a7f"/>
        <path id="Trazado_186699" data-name="Trazado 186699" d="M200.586,22.062a1.685,1.685,0,0,0-1.68-1.68H183.054V36.906a1.008,1.008,0,0,0,1.008,1.008h16.524Z" fill="#e01650"/>
        <path id="Trazado_186700" data-name="Trazado 186700" d="M164.814,81.036H106.5a2.52,2.52,0,1,1,0-5.04h58.316a2.52,2.52,0,1,1,0,5.04" fill="#5bb8b2"/>
        <path id="Trazado_186701" data-name="Trazado 186701" d="M164.814,89.605H106.5a2.521,2.521,0,0,1,0-5.041h58.316a2.521,2.521,0,0,1,0,5.041" fill="#5bb8b2"/>
        <path id="Trazado_186702" data-name="Trazado 186702" d="M145.756,98.175H106.5a2.521,2.521,0,1,1,0-5.041h39.257a2.521,2.521,0,0,1,0,5.041" fill="#5bb8b2"/>
        <path id="Trazado_186703" data-name="Trazado 186703" d="M109.335,141.692H66.675l-1.852,5.041h44.512a2.521,2.521,0,0,0,0-5.041" fill="#5bb8b2"/>
        <path id="Trazado_186704" data-name="Trazado 186704" d="M109.335,133.627H64.471a2.521,2.521,0,0,0-2.327,3.488l6.285-2.308a1.164,1.164,0,0,1,.388-.082.253.253,0,0,1,.218.076c.054.078.072.269-.039.572l-1.211,3.295h41.55a2.521,2.521,0,0,0,0-5.041" fill="#5bb8b2"/>
        <path id="Trazado_186705" data-name="Trazado 186705" d="M109.335,130.6H64.471a2.521,2.521,0,0,1,0-5.041h44.864a2.521,2.521,0,0,1,0,5.041" fill="#5bb8b2"/>
        <path id="Trazado_186706" data-name="Trazado 186706" d="M164.637,146.733H119.773a2.521,2.521,0,0,1,0-5.041h44.864a2.521,2.521,0,0,1,0,5.041" fill="#5bb8b2"/>
        <path id="Trazado_186707" data-name="Trazado 186707" d="M164.637,138.668H119.773a2.521,2.521,0,0,1,0-5.041h44.864a2.521,2.521,0,0,1,0,5.041" fill="#5bb8b2"/>
        <path id="Trazado_186708" data-name="Trazado 186708" d="M164.637,130.6H119.773a2.521,2.521,0,0,1,0-5.041h44.864a2.521,2.521,0,0,1,0,5.041" fill="#5bb8b2"/>
        <path id="Trazado_186709" data-name="Trazado 186709" d="M69.311,135.489c.319-.868-.131-1.317-1-1l-37.789,13.88a.993.993,0,0,0-.389,1.768l7.369,7.368a1.686,1.686,0,0,1,0,2.376l-8.492,8.491a1.687,1.687,0,0,0,0,2.377l4.04,4.039a1.684,1.684,0,0,0,2.376,0l8.491-8.491a1.684,1.684,0,0,1,2.376,0l7.369,7.368a.992.992,0,0,0,1.767-.389Z" fill="#293d7c"/>
        <path id="Trazado_186710" data-name="Trazado 186710" d="M33.824,153.827,67.059,141.62l2.252-6.132c.319-.867-.131-1.316-1-1l-37.789,13.88a.993.993,0,0,0-.389,1.767Z" fill="#1a2b63"/>
        <path id="Rectángulo_39218" data-name="Rectángulo 39218" d="M1.68,0H35.286a1.681,1.681,0,0,1,1.681,1.681v25.54a1.68,1.68,0,0,1-1.68,1.68H1.68A1.68,1.68,0,0,1,0,27.221V1.68A1.68,1.68,0,0,1,1.68,0Z" transform="translate(60.448 72.807)" fill="#5bb8b2"/>
        <rect id="Rectángulo_39219" data-name="Rectángulo 39219" width="107.032" height="15.291" rx="1.68" transform="translate(61.038 105.739)" fill="#5bb8b2"/>
        <path id="Trazado_186711" data-name="Trazado 186711" d="M67.117,100.028V74.487a1.685,1.685,0,0,1,1.68-1.68H62.129a1.685,1.685,0,0,0-1.68,1.68v25.541a1.685,1.685,0,0,0,1.68,1.68H68.8a1.685,1.685,0,0,1-1.68-1.68" fill="#aff9f4"/>
        <path id="Trazado_186712" data-name="Trazado 186712" d="M67.707,119.35V107.419a1.685,1.685,0,0,1,1.68-1.68H62.719a1.685,1.685,0,0,0-1.68,1.68V119.35a1.685,1.685,0,0,0,1.68,1.68h6.668a1.685,1.685,0,0,1-1.68-1.68" fill="#aff9f4"/>
        <path id="Trazado_186713" data-name="Trazado 186713" d="M150.7,60.036h-7.393a2.52,2.52,0,0,1-2.521-2.52V34.327a2.52,2.52,0,0,1,2.521-2.519H150.7a7.57,7.57,0,0,1,7.561,7.56V52.476a7.569,7.569,0,0,1-7.561,7.56m-4.873-5.041H150.7a2.522,2.522,0,0,0,2.52-2.519V39.368a2.522,2.522,0,0,0-2.52-2.519h-4.873Z" fill="#5c379b"/>
        <path id="Trazado_186714" data-name="Trazado 186714" d="M171.535,60.036h-9.074a2.521,2.521,0,0,1,0-5.041h9.074a.852.852,0,0,0,.84-.84V49.282a.852.852,0,0,0-.84-.84h-5.713a5.888,5.888,0,0,1-5.881-5.881V37.688a5.887,5.887,0,0,1,5.881-5.881H174.9a2.521,2.521,0,0,1,0,5.041h-9.074a.852.852,0,0,0-.84.84v4.873a.852.852,0,0,0,.84.84h5.713a5.887,5.887,0,0,1,5.881,5.881v4.873a5.887,5.887,0,0,1-5.881,5.881" fill="#5c379b"/>
        <path id="Trazado_186715" data-name="Trazado 186715" d="M131.544,31.808h-2.353a7.57,7.57,0,0,0-7.561,7.561V57.516a2.521,2.521,0,1,0,5.041,0V48.5h7.393v9.017a2.521,2.521,0,1,0,5.041,0V39.369a7.57,7.57,0,0,0-7.561-7.561m-4.873,11.65V39.369a2.523,2.523,0,0,1,2.52-2.52h2.353a2.522,2.522,0,0,1,2.52,2.52v4.089Z" fill="#5c379b"/>
        <path id="Trazado_186716" data-name="Trazado 186716" d="M195.384,29.148l2.279-2.279A2.52,2.52,0,1,0,194.1,23.3l-2.28,2.28-2.28-2.28a2.52,2.52,0,0,0-3.564,3.565l2.279,2.279-2.279,2.279a2.52,2.52,0,1,0,3.564,3.565l2.28-2.28,2.28,2.28a2.52,2.52,0,1,0,3.564-3.565Z" fill="#e26693"/>
      </g>
    </g>
  </g>
</svg>
