<svg xmlns="http://www.w3.org/2000/svg" xmlns:xlink="http://www.w3.org/1999/xlink" width="229.108" height="195.662" viewBox="0 0 229.108 195.662">
  <defs>
    <clipPath id="clip-path">
      <rect id="Rectángulo_39205" data-name="Rectángulo 39205" width="229.108" height="195.662" fill="none"/>
    </clipPath>
    <clipPath id="clip-path-2">
      <path id="Trazado_186631" data-name="Trazado 186631" d="M57.168,37.257A9.573,9.573,0,0,0,47.6,46.821V91.455a3.187,3.187,0,0,0,3.188,3.187H165.564a3.188,3.188,0,0,0,3.189-3.187V46.821a9.575,9.575,0,0,0-9.566-9.564Z" transform="translate(-47.604 -37.257)" fill="none"/>
    </clipPath>
    <linearGradient id="linear-gradient" x1="-0.393" y1="2.76" x2="-0.385" y2="2.76" gradientUnits="objectBoundingBox">
      <stop offset="0" stop-color="#f4f4f4"/>
      <stop offset="0.565" stop-color="#ebebeb"/>
      <stop offset="0.994" stop-color="#e0e0e0"/>
      <stop offset="1" stop-color="#e0e0e0"/>
    </linearGradient>
    <clipPath id="clip-path-4">
      <path id="Trazado_186633" data-name="Trazado 186633" d="M44.415,56.385a9.575,9.575,0,0,0-9.564,9.565v95.643a9.576,9.576,0,0,0,9.564,9.565h133.9a3.189,3.189,0,0,0,3.188-3.188V78.7a9.577,9.577,0,0,0-9.565-9.565h-79.7V65.95a9.575,9.575,0,0,0-9.564-9.565Z" transform="translate(-34.851 -56.385)" fill="none"/>
    </clipPath>
    <linearGradient id="linear-gradient-2" x1="-0.238" y1="1.213" x2="-0.231" y2="1.213" gradientUnits="objectBoundingBox">
      <stop offset="0" stop-color="#ffee71"/>
      <stop offset="0.25" stop-color="#ffeb68"/>
      <stop offset="0.664" stop-color="#fee14e"/>
      <stop offset="1" stop-color="#fdd835"/>
    </linearGradient>
    <clipPath id="clip-path-6">
      <path id="Trazado_186641" data-name="Trazado 186641" d="M104.99,88.267a9.575,9.575,0,0,0-9.565,9.564v6.376a3.188,3.188,0,0,0,3.189,3.188h19.129a3.187,3.187,0,0,0,3.187-3.188V97.831a9.573,9.573,0,0,0-9.564-9.564Z" transform="translate(-95.425 -88.267)" fill="none"/>
    </clipPath>
    <linearGradient id="linear-gradient-3" x1="-3.741" y1="5.615" x2="-3.702" y2="5.615" gradientUnits="objectBoundingBox">
      <stop offset="0" stop-color="#546870"/>
      <stop offset="0.38" stop-color="#4c5f67"/>
      <stop offset="0.995" stop-color="#37474f"/>
      <stop offset="1" stop-color="#37474f"/>
    </linearGradient>
  </defs>
  <g id="Grupo_143637" data-name="Grupo 143637" transform="translate(-429.655 -2772.887)">
    <g id="Grupo_143497" data-name="Grupo 143497" transform="translate(429.655 2772.887)">
      <g id="Grupo_143237" data-name="Grupo 143237" transform="translate(0)">
        <g id="Grupo_143236" data-name="Grupo 143236" clip-path="url(#clip-path)">
          <path id="Trazado_186630" data-name="Trazado 186630" d="M184.693,24.5H69.92a9.576,9.576,0,0,0-9.564,9.564v133.9a3.188,3.188,0,0,0,3.188,3.188H184.693a9.575,9.575,0,0,0,9.564-9.565V34.068a9.574,9.574,0,0,0-9.564-9.564" fill="#ffee58"/>
        </g>
      </g>
      <g id="Grupo_143239" data-name="Grupo 143239" transform="translate(47.604 37.257)">
        <g id="Grupo_143238" data-name="Grupo 143238" clip-path="url(#clip-path-2)">
          <rect id="Rectángulo_39206" data-name="Rectángulo 39206" width="121.149" height="57.385" transform="translate(0 0)" fill="url(#linear-gradient)"/>
        </g>
      </g>
      <g id="Grupo_143241" data-name="Grupo 143241" transform="translate(0)">
        <g id="Grupo_143240" data-name="Grupo 143240" clip-path="url(#clip-path)">
          <path id="Trazado_186632" data-name="Trazado 186632" d="M47.6,69.01V91.454a3.188,3.188,0,0,0,3.188,3.189H165.564a3.19,3.19,0,0,0,3.189-3.189V46.821a9.48,9.48,0,0,0-2.278-6.121C137.792,63.671,63.772,68.273,47.6,69.01" fill="#e0e0e0"/>
        </g>
      </g>
      <g id="Grupo_143243" data-name="Grupo 143243" transform="translate(34.851 56.385)">
        <g id="Grupo_143242" data-name="Grupo 143242" clip-path="url(#clip-path-4)">
          <rect id="Rectángulo_39208" data-name="Rectángulo 39208" width="146.654" height="114.773" transform="translate(0 0)" fill="url(#linear-gradient-2)"/>
        </g>
      </g>
      <g id="Grupo_143245" data-name="Grupo 143245" transform="translate(0)">
        <g id="Grupo_143244" data-name="Grupo 143244" clip-path="url(#clip-path)">
          <path id="Trazado_186634" data-name="Trazado 186634" d="M92.237,113.771H82.673a3.188,3.188,0,0,1-2.852-1.762L73.445,99.256a3.188,3.188,0,1,1,5.7-2.864l.006.012,5.495,10.991h7.594a3.188,3.188,0,0,1,0,6.376" fill="#263238"/>
          <path id="Trazado_186635" data-name="Trazado 186635" d="M173.853,69.331c-25.556,68.192-99.536,77.762-139,77.764v14.5a9.576,9.576,0,0,0,9.565,9.565h133.9a3.188,3.188,0,0,0,3.188-3.188V78.7a9.579,9.579,0,0,0-7.652-9.371" fill="#fdd835"/>
          <path id="Trazado_186636" data-name="Trazado 186636" d="M76.293,152.029a3.188,3.188,0,0,1-2.849-4.614l6.376-12.753a3.19,3.19,0,0,1,2.852-1.762h9.565a3.188,3.188,0,0,1,0,6.376H84.643l-5.495,10.991a3.186,3.186,0,0,1-2.855,1.762" fill="#263238"/>
          <path id="Trazado_186637" data-name="Trazado 186637" d="M92.237,126.524H73.108a3.188,3.188,0,1,1,0-6.376H92.237a3.188,3.188,0,1,1,0,6.376" fill="#263238"/>
          <path id="Trazado_186638" data-name="Trazado 186638" d="M133.683,113.771h-9.564a3.188,3.188,0,1,1,0-6.376h7.593L137.207,96.4a3.189,3.189,0,0,1,5.712,2.837l-.008.015-6.376,12.753A3.188,3.188,0,0,1,133.683,113.771Z" fill="#263238"/>
          <path id="Trazado_186639" data-name="Trazado 186639" d="M140.062,152.029a3.186,3.186,0,0,1-2.855-1.762l-5.495-10.991h-7.594a3.188,3.188,0,0,1,0-6.376h9.565a3.188,3.188,0,0,1,2.851,1.762l6.377,12.753a3.188,3.188,0,0,1-2.849,4.614Z" fill="#263238"/>
          <path id="Trazado_186640" data-name="Trazado 186640" d="M143.247,126.524H124.118a3.188,3.188,0,0,1,0-6.376h19.129a3.188,3.188,0,1,1,0,6.376" fill="#263238"/>
        </g>
      </g>
      <g id="Grupo_143247" data-name="Grupo 143247" transform="translate(95.425 88.267)">
        <g id="Grupo_143246" data-name="Grupo 143246" clip-path="url(#clip-path-6)">
          <rect id="Rectángulo_39210" data-name="Rectángulo 39210" width="25.505" height="19.128" transform="translate(0 0)" fill="url(#linear-gradient-3)"/>
        </g>
      </g>
      <g id="Grupo_143249" data-name="Grupo 143249" transform="translate(0)">
        <g id="Grupo_143248" data-name="Grupo 143248" clip-path="url(#clip-path)">
          <path id="Trazado_186642" data-name="Trazado 186642" d="M124.118,101.019H92.237a3.188,3.188,0,0,0-3.188,3.188v25.505a15.96,15.96,0,0,0,15.94,15.941h6.376a15.96,15.96,0,0,0,15.941-15.941V104.207a3.188,3.188,0,0,0-3.188-3.188" fill="#79f5ed"/>
          <path id="Trazado_186643" data-name="Trazado 186643" d="M124.827,101.162c-5.013,29.991-21.618,38.213-30.333,40.452a15.806,15.806,0,0,0,10.5,4.039h6.376a15.96,15.96,0,0,0,15.941-15.941V104.207a3.143,3.143,0,0,0-2.48-3.045" fill="#7cc6c1"/>
          <path id="Trazado_186644" data-name="Trazado 186644" d="M111.366,145.653V116.96a3.188,3.188,0,0,0-6.376,0v28.693Z" fill="#263238"/>
          <path id="Trazado_186645" data-name="Trazado 186645" d="M41.227,75.514a3.188,3.188,0,0,1-3.188-3.188V65.95a6.383,6.383,0,0,1,6.376-6.377h6.376a3.188,3.188,0,1,1,0,6.377H44.415v6.376a3.188,3.188,0,0,1-3.188,3.188" fill="#fff"/>
          <path id="Trazado_186646" data-name="Trazado 186646" d="M41.227,81.89a3.188,3.188,0,1,1-3.188,3.188,3.188,3.188,0,0,1,3.188-3.188" fill="#fff"/>
          <path id="Trazado_186647" data-name="Trazado 186647" d="M57.168,40.445a3.188,3.188,0,1,1-3.188,3.188,3.188,3.188,0,0,1,3.188-3.188" fill="#fff"/>
          <path id="Trazado_186648" data-name="Trazado 186648" d="M82.673,46.821H69.92a3.188,3.188,0,0,1,0-6.376H82.673a3.188,3.188,0,1,1,0,6.376" fill="#fff"/>
          <path id="Trazado_186649" data-name="Trazado 186649" d="M95.425,116.96a3.188,3.188,0,0,1-3.188-3.188V107.4a3.188,3.188,0,0,1,3.188-3.189H101.8a3.188,3.188,0,0,1,0,6.377H98.613v3.188a3.188,3.188,0,0,1-3.188,3.188" fill="#fff"/>
        </g>
      </g>
    </g>
  </g>
</svg>
