<svg xmlns="http://www.w3.org/2000/svg" xmlns:xlink="http://www.w3.org/1999/xlink" width="129.897" height="129.897" viewBox="0 0 129.897 129.897">
  <defs>
    <clipPath id="clip-path">
      <rect id="Rectángulo_37382" data-name="Rectángulo 37382" width="129.897" height="129.897" fill="none"/>
    </clipPath>
  </defs>
  <g id="Grupo_143579" data-name="Grupo 143579" transform="translate(-1148.251 -1116.552)">
    <g id="Grupo_112008" data-name="Grupo 112008" transform="translate(1148.251 1116.552)">
      <g id="Grupo_112007" data-name="Grupo 112007" clip-path="url(#clip-path)">
        <path id="Trazado_169215" data-name="Trazado 169215" d="M52.035,133.922a3.806,3.806,0,1,1-3.805-3.805,3.8,3.8,0,0,1,3.805,3.805" transform="translate(-3.323 -9.734)" fill="#ff2c5c"/>
        <path id="Trazado_169216" data-name="Trazado 169216" d="M104.137,5.862a3.806,3.806,0,1,1-3.805-3.805,3.8,3.8,0,0,1,3.805,3.805" transform="translate(-7.221 -0.154)" fill="#ff2c5c"/>
        <path id="Trazado_169217" data-name="Trazado 169217" d="M9.668,47.406A3.806,3.806,0,1,1,5.862,43.6a3.8,3.8,0,0,1,3.805,3.805" transform="translate(-0.154 -3.262)" fill="#ff2c5c"/>
        <path id="Trazado_169218" data-name="Trazado 169218" d="M16.044,63.311a3.806,3.806,0,1,1-3.805-3.805,3.8,3.8,0,0,1,3.805,3.805" transform="translate(-0.631 -4.452)" fill="#ff2c5c"/>
        <path id="Trazado_169219" data-name="Trazado 169219" d="M137.728,65.5a3.806,3.806,0,1,1-3.805-3.805,3.8,3.8,0,0,1,3.805,3.805" transform="translate(-9.734 -4.616)" fill="#ff2c5c"/>
        <path id="Trazado_169220" data-name="Trazado 169220" d="M131.353,81.409a3.806,3.806,0,1,1-3.805-3.805,3.8,3.8,0,0,1,3.805,3.805" transform="translate(-9.257 -5.805)" fill="#ff2c5c"/>
        <path id="Trazado_169221" data-name="Trazado 169221" d="M49.979,126.319V102.312a1.9,1.9,0,1,0-3.806,0v24.007a5.708,5.708,0,1,0,3.806,0m-1.9,7.284a1.9,1.9,0,1,1,1.9-1.9,1.9,1.9,0,0,1-1.9,1.9" transform="translate(-3.169 -7.511)" fill="#29063c"/>
        <path id="Trazado_169222" data-name="Trazado 169222" d="M102.08,31.713V11.089a5.708,5.708,0,1,0-3.806,0V31.713a1.9,1.9,0,1,0,3.806,0m-1.9-27.907a1.9,1.9,0,1,1-1.9,1.9,1.9,1.9,0,0,1,1.9-1.9" transform="translate(-7.067)" fill="#29063c"/>
        <path id="Trazado_169223" data-name="Trazado 169223" d="M31.459,45.35H11.089a5.708,5.708,0,1,0,0,3.805h20.37a1.9,1.9,0,1,0,0-3.805M5.708,49.156a1.9,1.9,0,1,1,1.9-1.9,1.9,1.9,0,0,1-1.9,1.9" transform="translate(0 -3.108)" fill="#29063c"/>
        <path id="Trazado_169224" data-name="Trazado 169224" d="M31.936,61.254H17.464a5.708,5.708,0,1,0,0,3.805H31.936a1.9,1.9,0,0,0,0-3.805M12.083,65.06a1.9,1.9,0,1,1,1.9-1.9,1.9,1.9,0,0,1-1.9,1.9" transform="translate(-0.477 -4.298)" fill="#29063c"/>
        <path id="Trazado_169225" data-name="Trazado 169225" d="M131.871,59.642a5.718,5.718,0,0,0-5.381,3.806H104.6a1.9,1.9,0,0,0,0,3.805H126.49a5.708,5.708,0,1,0,5.381-7.612m0,7.612a1.9,1.9,0,1,1,1.9-1.9,1.9,1.9,0,0,1-1.9,1.9" transform="translate(-7.682 -4.462)" fill="#29063c"/>
        <path id="Trazado_169226" data-name="Trazado 169226" d="M125.91,75.547a5.718,5.718,0,0,0-5.381,3.806H103.774a1.9,1.9,0,0,0,0,3.805h16.755a5.708,5.708,0,1,0,5.381-7.612m0,7.612a1.9,1.9,0,1,1,1.9-1.9,1.9,1.9,0,0,1-1.9,1.9" transform="translate(-7.621 -5.652)" fill="#29063c"/>
        <path id="Trazado_169227" data-name="Trazado 169227" d="M67.25,115.6a1.036,1.036,0,0,1-.746,0A77.61,77.61,0,0,1,35.193,93.69a40.423,40.423,0,0,1-9.416-26.4V31.981a.99.99,0,0,1,.74-.987A73.89,73.89,0,0,0,48.265,21.9a36.062,36.062,0,0,1,37.225,0,73.9,73.9,0,0,0,21.748,9.092.992.992,0,0,1,.74.987V67.293a40.419,40.419,0,0,1-9.418,26.4A77.61,77.61,0,0,1,67.25,115.6" transform="translate(-1.928 -1.251)" fill="#e01650"/>
        <path id="Trazado_169228" data-name="Trazado 169228" d="M110.381,31.988a60.817,60.817,0,0,1-6.87-1.977V67.039a44.258,44.258,0,0,1-9.418,27.909,77.412,77.412,0,0,1-26.285,20.909c.61.252,1.222.5,1.84.739a1.044,1.044,0,0,0,.745,0A77.629,77.629,0,0,0,101.7,94.685a40.423,40.423,0,0,0,9.417-26.4V32.974a.988.988,0,0,0-.74-.986" transform="translate(-5.073 -2.245)" fill="#bc1445"/>
        <path id="Trazado_169229" data-name="Trazado 169229" d="M67.8,108.024a.765.765,0,0,1-.609,0,69.634,69.634,0,0,1-25.6-18.675A32.816,32.816,0,0,1,34,67.909V38.391a1.015,1.015,0,0,1,.707-.966,86.5,86.5,0,0,0,18.1-8.391,28.457,28.457,0,0,1,29.367,0,86.487,86.487,0,0,0,18.1,8.39,1.016,1.016,0,0,1,.707.966V67.908A32.82,32.82,0,0,1,93.4,89.351a69.661,69.661,0,0,1-25.6,18.673" transform="translate(-2.544 -1.867)" fill="#fff"/>
        <path id="Trazado_169230" data-name="Trazado 169230" d="M102.814,38.224q-3.428-1.1-6.9-2.6v30.82c0,8.985-2.692,17.4-7.582,23.706A70.572,70.572,0,0,1,67.955,108.03q.878.405,1.773.793a.773.773,0,0,0,.609,0,69.673,69.673,0,0,0,25.6-18.674,32.822,32.822,0,0,0,7.583-21.442V39.19a1.015,1.015,0,0,0-.707-.966" transform="translate(-5.084 -2.665)" fill="#e8e8e8"/>
        <path id="Trazado_169231" data-name="Trazado 169231" d="M69.431,48.125a9.523,9.523,0,0,0-9.514,9.514v8.034a1.9,1.9,0,1,0,3.805,0V57.639a5.708,5.708,0,1,1,11.417,0v8.034a1.9,1.9,0,1,0,3.805,0V57.639a9.523,9.523,0,0,0-9.514-9.514" transform="translate(-4.482 -3.6)" fill="#5c379b"/>
        <path id="Trazado_169232" data-name="Trazado 169232" d="M79.323,84.189h-20.3a2.538,2.538,0,0,1-2.538-2.537V66.43a2.537,2.537,0,0,1,2.538-2.537h20.3A2.536,2.536,0,0,1,81.86,66.43V81.652a2.537,2.537,0,0,1-2.537,2.537" transform="translate(-4.226 -4.78)" fill="#7142c1"/>
        <path id="Trazado_169233" data-name="Trazado 169233" d="M80.554,63.893H72.942A2.538,2.538,0,0,1,75.48,66.43V81.652a2.537,2.537,0,0,1-2.538,2.537h7.612a2.536,2.536,0,0,0,2.537-2.537V66.43a2.537,2.537,0,0,0-2.537-2.537" transform="translate(-5.457 -4.78)" fill="#a7f"/>
        <path id="Trazado_169234" data-name="Trazado 169234" d="M73.7,72.5a3.806,3.806,0,1,1-3.805-3.805A3.8,3.8,0,0,1,73.7,72.5" transform="translate(-4.944 -5.139)" fill="#685c79"/>
        <path id="Trazado_169235" data-name="Trazado 169235" d="M75.447,72.343a5.708,5.708,0,1,0-7.612,5.382v2.23a1.9,1.9,0,1,0,3.806,0v-2.23a5.719,5.719,0,0,0,3.805-5.382m-5.708,1.9a1.9,1.9,0,1,1,1.9-1.9,1.9,1.9,0,0,1-1.9,1.9" transform="translate(-4.79 -4.985)" fill="#50475e"/>
      </g>
    </g>
  </g>
</svg>
