<svg xmlns="http://www.w3.org/2000/svg" xmlns:xlink="http://www.w3.org/1999/xlink" width="295" height="232.067" viewBox="0 0 295 232.067">
  <defs>
    <clipPath id="clip-path">
      <rect id="Rectángulo_37989" data-name="Rectángulo 37989" width="295" height="231.777" fill="none"/>
    </clipPath>
    <clipPath id="clip-path-3">
      <rect id="Rectángulo_37981" data-name="Rectángulo 37981" width="116.177" height="192.015" fill="none"/>
    </clipPath>
    <clipPath id="clip-path-4">
      <rect id="Rectángulo_37982" data-name="Rectángulo 37982" width="7.128" height="6.854" fill="none"/>
    </clipPath>
    <clipPath id="clip-path-5">
      <rect id="Rectángulo_37983" data-name="Rectángulo 37983" width="16.833" height="20.164" fill="none"/>
    </clipPath>
    <clipPath id="clip-path-6">
      <rect id="Rectángulo_37984" data-name="Rectángulo 37984" width="9.145" height="8.149" fill="none"/>
    </clipPath>
    <clipPath id="clip-path-7">
      <path id="Trazado_179873" data-name="Trazado 179873" d="M166.368,115.819a9.964,9.964,0,0,0-8.122,11.107c.8,6.128,2.394,13.061,2.835,19.292.489,6.9.8,19.979.231,24.659,2.228,3.383,25.123,2.322,32.953-.529.979-22.45-1.448-37.425-3.3-46.063a11.609,11.609,0,0,0-10.759-9.236q-1.715-.076-3.4-.077a61.432,61.432,0,0,0-10.436.846" transform="translate(-158.162 -114.973)" fill="none"/>
    </clipPath>
    <clipPath id="clip-path-9">
      <rect id="Rectángulo_37986" data-name="Rectángulo 37986" width="4.88" height="8.044" fill="none"/>
    </clipPath>
    <clipPath id="clip-path-10">
      <rect id="Rectángulo_37987" data-name="Rectángulo 37987" width="44.928" height="37.485" fill="none"/>
    </clipPath>
  </defs>
  <g id="Grupo_143603" data-name="Grupo 143603" transform="translate(-1020 -1654.06)">
    <g id="Grupo_112881" data-name="Grupo 112881" transform="translate(0 -111.873)">
      <g id="Grupo_112500" data-name="Grupo 112500" transform="translate(1020 1765.933)">
        <g id="Grupo_112499" data-name="Grupo 112499" clip-path="url(#clip-path)">
          <rect id="Rectángulo_37972" data-name="Rectángulo 37972" width="295" height="0.149" transform="translate(0 204.884)" fill="#ebebeb"/>
          <rect id="Rectángulo_37973" data-name="Rectángulo 37973" width="19.543" height="0.149" transform="translate(77.568 214.07)" fill="#ebebeb"/>
          <rect id="Rectángulo_37974" data-name="Rectángulo 37974" width="5.129" height="0.148" transform="translate(147.59 212.454)" fill="#ebebeb"/>
          <rect id="Rectángulo_37975" data-name="Rectángulo 37975" width="11.324" height="0.149" transform="translate(30.951 209.94)" fill="#ebebeb"/>
          <rect id="Rectángulo_37976" data-name="Rectángulo 37976" width="15.388" height="0.149" transform="translate(229.921 208.939)" fill="#ebebeb"/>
          <rect id="Rectángulo_37977" data-name="Rectángulo 37977" width="13.832" height="0.149" transform="translate(210.836 208.939)" fill="#ebebeb"/>
          <rect id="Rectángulo_37978" data-name="Rectángulo 37978" width="55.269" height="0.149" transform="translate(210.173 216.084)" fill="#ebebeb"/>
          <g id="Grupo_112488" data-name="Grupo 112488">
            <g id="Grupo_112487" data-name="Grupo 112487" clip-path="url(#clip-path)">
              <path id="Trazado_179769" data-name="Trazado 179769" d="M155.5,185.054H41.575a3.387,3.387,0,0,1-3.368-3.4V20.027a3.388,3.388,0,0,1,3.368-3.4H155.5a3.387,3.387,0,0,1,3.367,3.4V181.655a3.387,3.387,0,0,1-3.367,3.4M41.575,16.777a3.239,3.239,0,0,0-3.22,3.25V181.655a3.239,3.239,0,0,0,3.22,3.25H155.5a3.239,3.239,0,0,0,3.22-3.25V20.027a3.239,3.239,0,0,0-3.22-3.25Z" transform="translate(-15.665 -6.727)" fill="#ebebeb"/>
              <path id="Trazado_179770" data-name="Trazado 179770" d="M371.8,185.054H257.872a3.387,3.387,0,0,1-3.367-3.4V20.027a3.387,3.387,0,0,1,3.367-3.4H371.8a3.388,3.388,0,0,1,3.368,3.4V181.655a3.387,3.387,0,0,1-3.368,3.4M257.872,16.777a3.238,3.238,0,0,0-3.22,3.25V181.655a3.238,3.238,0,0,0,3.22,3.25H371.8a3.239,3.239,0,0,0,3.22-3.25V20.027a3.239,3.239,0,0,0-3.22-3.25Z" transform="translate(-104.347 -6.727)" fill="#ebebeb"/>
              <rect id="Rectángulo_37979" data-name="Rectángulo 37979" width="90.036" height="54.097" transform="translate(42.512 50.326)" fill="#d1edf0"/>
              <path id="Trazado_179771" data-name="Trazado 179771" d="M117.071,114.021l45.018-29.507H72.053Z" transform="translate(-29.542 -34.189)" fill="#c3dde0"/>
              <path id="Trazado_179772" data-name="Trazado 179772" d="M122.7,40.012,162.09,65.831H72.054l39.392-25.819a10.25,10.25,0,0,1,11.252,0" transform="translate(-29.542 -15.506)" fill="#d1edf0"/>
              <path id="Trazado_179773" data-name="Trazado 179773" d="M77.722,66.986,115.15,42.455a7.735,7.735,0,0,1,8.491,0l37.428,24.531Z" transform="translate(-31.866 -16.661)" fill="#c3dde0"/>
              <path id="Trazado_179774" data-name="Trazado 179774" d="M157.529,79.882l-30.07,19.709L97.389,79.882V48.846h60.14Z" transform="translate(-39.93 -19.76)" fill="#d9f7fa"/>
              <path id="Trazado_179775" data-name="Trazado 179775" d="M148.84,83.4H129.2a3.628,3.628,0,0,1-3.611-3.645V70.328a13.531,13.531,0,0,1,13.429-13.553h0a13.531,13.531,0,0,1,13.429,13.553v9.426A3.628,3.628,0,0,1,148.84,83.4" transform="translate(-51.493 -22.967)" fill="#c3dde0"/>
              <path id="Trazado_179776" data-name="Trazado 179776" d="M145.032,72.172h3.408a.63.63,0,0,1,.627.632V93.687a2.331,2.331,0,1,1-4.662,0V72.8a.63.63,0,0,1,.627-.632" transform="translate(-59.206 -29.196)" fill="#c3dde0"/>
              <path id="Trazado_179777" data-name="Trazado 179777" d="M151.977,72.172h3.408a.63.63,0,0,1,.627.632V93.687a2.331,2.331,0,1,1-4.662,0V72.8a.63.63,0,0,1,.627-.632" transform="translate(-62.054 -29.196)" fill="#c3dde0"/>
              <path id="Trazado_179778" data-name="Trazado 179778" d="M138.086,72.172h3.408a.63.63,0,0,1,.627.632V93.687a2.331,2.331,0,1,1-4.662,0V72.8a.63.63,0,0,1,.627-.632" transform="translate(-56.358 -29.196)" fill="#c3dde0"/>
              <path id="Trazado_179779" data-name="Trazado 179779" d="M145.5,88.76,143.691,91a1.1,1.1,0,0,0,.843,1.792h3.615A1.1,1.1,0,0,0,148.992,91l-1.807-2.239a1.082,1.082,0,0,0-1.687,0" transform="translate(-58.812 -35.743)" fill="#d9f7fa"/>
              <path id="Trazado_179780" data-name="Trazado 179780" d="M131.373,83.047c.516,1.783,2.763,2.689,5.019,2.024s3.667-2.649,3.151-4.432-2.763-2.689-5.019-2.024-3.667,2.649-3.151,4.432" transform="translate(-53.819 -31.714)" fill="#d9f7fa"/>
              <path id="Trazado_179781" data-name="Trazado 179781" d="M159.511,83.047c-.516,1.783-2.763,2.689-5.019,2.024s-3.667-2.649-3.151-4.432,2.763-2.689,5.019-2.024,3.667,2.649,3.151,4.432" transform="translate(-62.006 -31.714)" fill="#d9f7fa"/>
              <path id="Trazado_179782" data-name="Trazado 179782" d="M109.394,123.782l-37.341,29.63h90.036l-37.341-29.63a12.332,12.332,0,0,0-15.354,0" transform="translate(-29.542 -48.989)" fill="#d5f2f5"/>
              <path id="Trazado_179783" data-name="Trazado 179783" d="M379.91,214,349.5,267.153a6.652,6.652,0,0,0,5.708,9.978h60.811a6.652,6.652,0,0,0,5.708-9.978L391.325,214a6.561,6.561,0,0,0-11.416,0" transform="translate(-142.931 -85.226)" fill="#cce8eb"/>
              <path id="Trazado_179784" data-name="Trazado 179784" d="M406.09,241.766h3.165a3.7,3.7,0,0,1,3.685,3.719V249.7a3.771,3.771,0,0,1-.028.462l-1.6,12.914a3.681,3.681,0,0,1-7.314-.011l-1.564-12.909a3.835,3.835,0,0,1-.027-.451v-4.218a3.7,3.7,0,0,1,3.685-3.719m.363,28.919h2.463A3.7,3.7,0,0,1,412.6,274.4v1.336a3.7,3.7,0,0,1-3.685,3.719h-2.463a3.7,3.7,0,0,1-3.685-3.719V274.4a3.7,3.7,0,0,1,3.685-3.719" transform="translate(-164.986 -97.803)" fill="#fff"/>
              <path id="Trazado_179785" data-name="Trazado 179785" d="M131.261,230.167H62.35a3.991,3.991,0,0,1-3.961-4v-5.352a3.991,3.991,0,0,1,3.961-4h68.911a3.991,3.991,0,0,1,3.961,4v5.352a3.991,3.991,0,0,1-3.961,4" transform="translate(-23.939 -87.711)" fill="#cce8eb"/>
              <path id="Trazado_179786" data-name="Trazado 179786" d="M131.261,262.19H62.35a3.991,3.991,0,0,1-3.961-4V252.84a3.991,3.991,0,0,1,3.961-4h68.911a3.991,3.991,0,0,1,3.961,4v5.351a3.991,3.991,0,0,1-3.961,4" transform="translate(-23.939 -100.665)" fill="#cce8eb"/>
              <path id="Trazado_179787" data-name="Trazado 179787" d="M124.591,225.58a3.569,3.569,0,1,1-3.569-3.6,3.585,3.585,0,0,1,3.569,3.6" transform="translate(-48.156 -89.798)" fill="#fff"/>
              <path id="Trazado_179788" data-name="Trazado 179788" d="M145.939,225.58a3.569,3.569,0,1,1-3.569-3.6,3.585,3.585,0,0,1,3.569,3.6" transform="translate(-56.908 -89.798)" fill="#fff"/>
              <path id="Trazado_179789" data-name="Trazado 179789" d="M167.288,225.58a3.569,3.569,0,1,1-3.569-3.6,3.585,3.585,0,0,1,3.569,3.6" transform="translate(-65.661 -89.798)" fill="#fff"/>
              <path id="Trazado_179790" data-name="Trazado 179790" d="M103.242,225.58a3.569,3.569,0,1,1-3.569-3.6,3.585,3.585,0,0,1,3.569,3.6" transform="translate(-39.403 -89.798)" fill="#fff"/>
              <path id="Trazado_179791" data-name="Trazado 179791" d="M81.893,225.58a3.569,3.569,0,1,1-3.569-3.6,3.585,3.585,0,0,1,3.569,3.6" transform="translate(-30.65 -89.798)" fill="#fff"/>
              <path id="Trazado_179792" data-name="Trazado 179792" d="M124.591,257.6a3.569,3.569,0,1,1-3.569-3.6,3.586,3.586,0,0,1,3.569,3.6" transform="translate(-48.156 -102.752)" fill="#fff"/>
              <path id="Trazado_179793" data-name="Trazado 179793" d="M145.939,257.6a3.569,3.569,0,1,1-3.569-3.6,3.586,3.586,0,0,1,3.569,3.6" transform="translate(-56.908 -102.752)" fill="#fff"/>
              <path id="Trazado_179794" data-name="Trazado 179794" d="M167.288,257.6a3.569,3.569,0,1,1-3.569-3.6,3.586,3.586,0,0,1,3.569,3.6" transform="translate(-65.661 -102.752)" fill="#fff"/>
              <path id="Trazado_179795" data-name="Trazado 179795" d="M103.242,257.6a3.569,3.569,0,1,1-3.569-3.6,3.586,3.586,0,0,1,3.569,3.6" transform="translate(-39.403 -102.752)" fill="#fff"/>
              <path id="Trazado_179796" data-name="Trazado 179796" d="M81.893,257.6a3.569,3.569,0,1,1-3.569-3.6,3.586,3.586,0,0,1,3.569,3.6" transform="translate(-30.65 -102.752)" fill="#fff"/>
              <path id="Trazado_179797" data-name="Trazado 179797" d="M399.826,30.95a13.04,13.04,0,0,0-2.578.257A16.4,16.4,0,0,0,368.2,35.5a11.01,11.01,0,1,0-1.509,21.929h33.132a13.239,13.239,0,0,0,0-26.476" transform="translate(-145.869 -9.784)" fill="#d1edf0"/>
              <path id="Trazado_179798" data-name="Trazado 179798" d="M422.988,99.169a7.271,7.271,0,0,1,1.436.144,9.138,9.138,0,0,1,16.184,2.39,6.135,6.135,0,1,1,.841,12.219H422.988a7.377,7.377,0,0,1,0-14.753" transform="translate(-170.429 -38.593)" fill="#d1edf0"/>
              <path id="Trazado_179799" data-name="Trazado 179799" d="M69.226,3.375a6.5,6.5,0,0,1,1.286.129A8.183,8.183,0,0,1,85,5.644a5.494,5.494,0,1,1,.753,10.942H69.226a6.605,6.605,0,0,1,0-13.21" transform="translate(-25.7)" fill="#d1edf0"/>
              <path id="Trazado_179800" data-name="Trazado 179800" d="M284.9,373.333c0,3.724-51.216,6.742-114.394,6.742s-114.394-3.018-114.394-6.742,51.216-6.742,114.394-6.742S284.9,369.61,284.9,373.333" transform="translate(-23.006 -148.299)" fill="#f5f5f5"/>
              <path id="Trazado_179801" data-name="Trazado 179801" d="M222.928,34.763H311.6a9.3,9.3,0,0,1,9.313,10.026l-11.28,182.246a10.8,10.8,0,0,1-10.555,10.026h-88.67a9.3,9.3,0,0,1-9.314-10.026L212.373,44.789a10.8,10.8,0,0,1,10.555-10.026" transform="translate(-82.44 -14.063)" fill="#263238"/>
              <rect id="Rectángulo_37980" data-name="Rectángulo 37980" width="21.125" height="0.595" transform="translate(138.962 18.616)" fill="#7cc6c1"/>
              <path id="Trazado_179802" data-name="Trazado 179802" d="M220.761,36.18l-.421-.418a13.076,13.076,0,0,1,4.282-2.914l.225.551a12.474,12.474,0,0,0-4.086,2.781" transform="translate(-90.339 -13.288)" fill="#7cc6c1"/>
              <path id="Trazado_179803" data-name="Trazado 179803" d="M220.341,34.763h88.671a9.3,9.3,0,0,1,9.313,10.026l-11.28,182.246a10.8,10.8,0,0,1-10.555,10.026h-88.67a9.3,9.3,0,0,1-9.314-10.026L209.786,44.789a10.8,10.8,0,0,1,10.555-10.026" transform="translate(-81.379 -14.063)" fill="#79f5ed"/>
              <path id="Trazado_179804" data-name="Trazado 179804" d="M210.045,230.455a7.306,7.306,0,0,1-7.331-7.892L213.628,46.239a8.483,8.483,0,0,1,8.308-7.891h88.67a7.306,7.306,0,0,1,7.331,7.891L307.023,222.564a8.483,8.483,0,0,1-8.308,7.892Z" transform="translate(-83.106 -15.513)" fill="#fff"/>
              <g id="Grupo_112477" data-name="Grupo 112477" transform="translate(119.174 26.785)" opacity="0.1">
                <g id="Grupo_112476" data-name="Grupo 112476">
                  <g id="Grupo_112475" data-name="Grupo 112475" clip-path="url(#clip-path-3)">
                    <path id="Trazado_179805" data-name="Trazado 179805" d="M324.231,69.318h-64.5a.3.3,0,0,1-.216-.094L251.047,60.1H220.493a.3.3,0,0,1,0-.6h30.682a.294.294,0,0,1,.215.094l8.471,9.119h64.371a.3.3,0,0,1,0,.6" transform="translate(-209.455 -50.858)" fill="#007cff"/>
                    <path id="Trazado_179806" data-name="Trazado 179806" d="M352.125,65.576h-64.5a.3.3,0,0,1,0-.6h64.5a.3.3,0,0,1,0,.6" transform="translate(-236.98 -53.072)" fill="#007cff"/>
                    <path id="Trazado_179807" data-name="Trazado 179807" d="M348.905,51.531h-64.5a.3.3,0,0,1-.216-.094l-5.531-5.955a.3.3,0,0,1,.014-.421.294.294,0,0,1,.417.014l5.444,5.861h64.37a.3.3,0,0,1,0,.6" transform="translate(-233.392 -44.981)" fill="#007cff"/>
                    <path id="Trazado_179808" data-name="Trazado 179808" d="M325.709,45.576H221.4a.3.3,0,0,1,0-.6H325.709a.3.3,0,0,1,0,.6" transform="translate(-209.827 -44.981)" fill="#007cff"/>
                    <path id="Trazado_179809" data-name="Trazado 179809" d="M323.606,79.318h-64.5a.294.294,0,0,1-.216-.094L250.422,70.1H219.868a.3.3,0,0,1,0-.6H250.55a.294.294,0,0,1,.215.094l8.471,9.119h64.371a.3.3,0,0,1,0,.6" transform="translate(-209.199 -54.903)" fill="#007cff"/>
                    <path id="Trazado_179810" data-name="Trazado 179810" d="M322.982,89.318h-64.5a.3.3,0,0,1-.216-.094L249.8,80.1H219.243a.3.3,0,0,1,0-.6h30.682a.294.294,0,0,1,.215.094l8.47,9.119h64.371a.3.3,0,0,1,0,.6" transform="translate(-208.943 -58.949)" fill="#007cff"/>
                    <path id="Trazado_179811" data-name="Trazado 179811" d="M322.357,99.318h-64.5a.294.294,0,0,1-.216-.094l-8.47-9.119H218.619a.3.3,0,0,1,0-.6H249.3a.294.294,0,0,1,.215.094l8.47,9.119h64.371a.3.3,0,0,1,0,.6" transform="translate(-208.687 -62.994)" fill="#007cff"/>
                    <path id="Trazado_179812" data-name="Trazado 179812" d="M321.733,109.318h-64.5a.3.3,0,0,1-.216-.094l-8.471-9.119H217.994a.3.3,0,0,1,0-.6h30.682a.294.294,0,0,1,.215.094l8.471,9.119h64.371a.3.3,0,0,1,0,.6" transform="translate(-208.431 -67.039)" fill="#007cff"/>
                    <path id="Trazado_179813" data-name="Trazado 179813" d="M246.118,134.789H215.436a.3.3,0,0,1,0-.6H246l9.613-9.132a.3.3,0,0,1,.2-.081h64.5a.3.3,0,0,1,0,.6H255.934l-9.613,9.132a.294.294,0,0,1-.2.081" transform="translate(-207.382 -77.344)" fill="#007cff"/>
                    <path id="Trazado_179814" data-name="Trazado 179814" d="M247.368,121.048H216.686a.3.3,0,0,1,0-.6h30.682a.3.3,0,0,1,0,.6" transform="translate(-207.894 -75.512)" fill="#007cff"/>
                    <path id="Trazado_179815" data-name="Trazado 179815" d="M246.743,122.958H216.06a.3.3,0,0,1,0-.6h30.405l.7-11.314H216.8a.3.3,0,0,1,0-.6h30.682a.292.292,0,0,1,.215.094.3.3,0,0,1,.08.222l-.737,11.909a.3.3,0,0,1-.294.279" transform="translate(-207.638 -71.467)" fill="#007cff"/>
                    <path id="Trazado_179816" data-name="Trazado 179816" d="M278.061,164.79h-64.5a.3.3,0,0,1,0-.6h64.381l9.613-9.132a.293.293,0,0,1,.2-.081h30.682a.3.3,0,0,1,0,.6H287.877l-9.613,9.132a.3.3,0,0,1-.2.081" transform="translate(-206.614 -89.48)" fill="#007cff"/>
                    <path id="Trazado_179817" data-name="Trazado 179817" d="M284.586,161.048h-70.4a.3.3,0,0,1,0-.6h70.4a.3.3,0,0,1,0,.6" transform="translate(-206.87 -91.693)" fill="#007cff"/>
                    <path id="Trazado_179818" data-name="Trazado 179818" d="M252.538,147H214.812a.3.3,0,0,1,0-.6h37.61l6.183-5.874a.3.3,0,0,1,.2-.081H319.49a.3.3,0,0,1,0,.6H258.924l-6.183,5.874a.3.3,0,0,1-.2.081" transform="translate(-207.126 -83.603)" fill="#007cff"/>
                    <path id="Trazado_179819" data-name="Trazado 179819" d="M277.436,174.79h-64.5a.3.3,0,0,1,0-.6h64.381l9.613-9.132a.293.293,0,0,1,.2-.081h30.682a.3.3,0,0,1,0,.6H287.252l-9.613,9.132a.3.3,0,0,1-.2.081" transform="translate(-206.358 -93.525)" fill="#007cff"/>
                    <path id="Trazado_179820" data-name="Trazado 179820" d="M276.812,184.79h-64.5a.3.3,0,0,1,0-.6H276.7l9.613-9.132a.3.3,0,0,1,.2-.081h30.681a.3.3,0,0,1,0,.6H286.628l-9.613,9.132a.3.3,0,0,1-.2.081" transform="translate(-206.101 -97.57)" fill="#007cff"/>
                    <path id="Trazado_179821" data-name="Trazado 179821" d="M276.187,194.789h-64.5a.3.3,0,0,1,0-.6H276.07l9.613-9.132a.3.3,0,0,1,.2-.081h30.681a.3.3,0,0,1,0,.6H286l-9.613,9.132a.3.3,0,0,1-.2.081" transform="translate(-205.846 -101.616)" fill="#007cff"/>
                    <path id="Trazado_179822" data-name="Trazado 179822" d="M275.562,204.79h-64.5a.3.3,0,0,1,0-.6h64.381l9.613-9.132a.3.3,0,0,1,.2-.081h30.682a.3.3,0,0,1,0,.6H285.378l-9.613,9.132a.3.3,0,0,1-.2.081" transform="translate(-205.589 -105.661)" fill="#007cff"/>
                    <path id="Trazado_179823" data-name="Trazado 179823" d="M314.177,230.261H283.5a.293.293,0,0,1-.215-.094l-8.471-9.119H210.439a.3.3,0,0,1,0-.6h64.5a.292.292,0,0,1,.215.094l8.471,9.119h30.554a.3.3,0,0,1,0,.6" transform="translate(-205.333 -115.965)" fill="#007cff"/>
                    <path id="Trazado_179824" data-name="Trazado 179824" d="M366.2,216.52H335.514a.3.3,0,0,1,0-.6H366.2a.3.3,0,0,1,0,.6" transform="translate(-256.614 -114.134)" fill="#007cff"/>
                    <path id="Trazado_179825" data-name="Trazado 179825" d="M365.571,218.43H334.889a.292.292,0,0,1-.215-.094.3.3,0,0,1-.08-.222l.737-11.909a.3.3,0,0,1,.294-.279h30.682a.3.3,0,0,1,0,.6H335.9l-.7,11.314h30.368a.3.3,0,0,1,0,.6" transform="translate(-256.358 -110.088)" fill="#007cff"/>
                    <path id="Trazado_179826" data-name="Trazado 179826" d="M306.023,360.78H275.342a.293.293,0,0,1-.215-.094l-8.471-9.119h-64.37a.3.3,0,0,1,0-.6h64.5a.292.292,0,0,1,.215.094l8.471,9.119h30.554a.3.3,0,0,1,0,.6" transform="translate(-201.99 -168.764)" fill="#007cff"/>
                    <path id="Trazado_179827" data-name="Trazado 179827" d="M267.409,335.307h-64.5a.3.3,0,0,1,0-.6h64.381l9.613-9.132a.293.293,0,0,1,.2-.081h30.682a.3.3,0,0,1,0,.6H277.225l-9.613,9.132a.3.3,0,0,1-.2.081" transform="translate(-202.247 -158.46)" fill="#007cff"/>
                    <path id="Trazado_179828" data-name="Trazado 179828" d="M358.1,346.094H327.419a.3.3,0,0,1,0-.6H358.1a.3.3,0,0,1,0,.6" transform="translate(-253.295 -166.551)" fill="#007cff"/>
                    <path id="Trazado_179829" data-name="Trazado 179829" d="M357.476,348H326.794a.292.292,0,0,1-.215-.094.3.3,0,0,1-.08-.222l.737-11.909a.3.3,0,0,1,.294-.279h30.682a.3.3,0,0,1,0,.6H327.808l-.7,11.314h30.368a.3.3,0,0,1,0,.6" transform="translate(-253.039 -162.505)" fill="#007cff"/>
                    <path id="Trazado_179830" data-name="Trazado 179830" d="M235.466,305.307H204.784a.3.3,0,0,1,0-.6h30.565l9.613-9.132a.3.3,0,0,1,.2-.081h64.5a.3.3,0,0,1,0,.6H245.282l-9.613,9.132a.3.3,0,0,1-.2.081" transform="translate(-203.015 -146.324)" fill="#007cff"/>
                    <path id="Trazado_179831" data-name="Trazado 179831" d="M333,306.094H262.6a.3.3,0,0,1,0-.6H333a.3.3,0,0,1,0,.6" transform="translate(-226.72 -150.369)" fill="#007cff"/>
                    <path id="Trazado_179832" data-name="Trazado 179832" d="M264.559,322.049H203.877a.3.3,0,0,1,0-.6h60.565l6.183-5.874a.3.3,0,0,1,.2-.081h37.726a.3.3,0,0,1,0,.6h-37.61l-6.183,5.874a.3.3,0,0,1-.2.081" transform="translate(-202.643 -154.415)" fill="#007cff"/>
                    <path id="Trazado_179833" data-name="Trazado 179833" d="M236.09,295.307H205.408a.3.3,0,0,1,0-.6h30.566l9.613-9.132a.3.3,0,0,1,.2-.081h64.5a.3.3,0,0,1,0,.6H245.906l-9.613,9.132a.3.3,0,0,1-.2.081" transform="translate(-203.27 -142.279)" fill="#007cff"/>
                    <path id="Trazado_179834" data-name="Trazado 179834" d="M236.715,285.307H206.033a.3.3,0,0,1,0-.6H236.6l9.613-9.132a.293.293,0,0,1,.2-.081h64.5a.3.3,0,0,1,0,.6H246.531l-9.613,9.132a.3.3,0,0,1-.2.081" transform="translate(-203.527 -138.233)" fill="#007cff"/>
                    <path id="Trazado_179835" data-name="Trazado 179835" d="M237.34,275.307H206.658a.3.3,0,0,1,0-.6h30.565l9.613-9.132a.293.293,0,0,1,.2-.081h64.5a.3.3,0,0,1,0,.6H247.156l-9.613,9.132a.3.3,0,0,1-.2.081" transform="translate(-203.783 -134.188)" fill="#007cff"/>
                    <path id="Trazado_179836" data-name="Trazado 179836" d="M237.964,265.307H207.282a.3.3,0,0,1,0-.6h30.566l9.613-9.132a.293.293,0,0,1,.2-.081h64.5a.3.3,0,0,1,0,.6H247.78l-9.613,9.132a.3.3,0,0,1-.2.081" transform="translate(-204.039 -130.143)" fill="#007cff"/>
                    <path id="Trazado_179837" data-name="Trazado 179837" d="M313.579,239.835h-64.5a.292.292,0,0,1-.215-.094l-8.471-9.119H209.841a.3.3,0,0,1,0-.6h30.682a.293.293,0,0,1,.215.094l8.471,9.119h64.371a.3.3,0,0,1,0,.6" transform="translate(-205.088 -119.838)" fill="#007cff"/>
                    <path id="Trazado_179838" data-name="Trazado 179838" d="M239.273,250.622H208.591a.3.3,0,0,1,0-.6h30.682a.3.3,0,0,1,0,.6" transform="translate(-204.575 -127.929)" fill="#007cff"/>
                    <path id="Trazado_179839" data-name="Trazado 179839" d="M238.649,252.532H207.967a.3.3,0,0,1,0-.6h30.4l.7-11.314H208.7a.3.3,0,0,1,0-.6h30.682a.292.292,0,0,1,.215.094.3.3,0,0,1,.08.222l-.737,11.909a.3.3,0,0,1-.294.279" transform="translate(-204.32 -123.884)" fill="#007cff"/>
                  </g>
                </g>
              </g>
              <path id="Trazado_179840" data-name="Trazado 179840" d="M302.92,259.848h-1.958a.356.356,0,0,1,0-.711h1.958a2.511,2.511,0,0,0,.745-.114.355.355,0,0,1,.207.68,3.2,3.2,0,0,1-.952.145m-4.777,0h-2.819a.356.356,0,0,1,0-.711h2.819a.356.356,0,0,1,0,.711m-5.639,0h-2.82a.356.356,0,0,1,0-.711h2.82a.356.356,0,0,1,0,.711m-5.64,0h-2.818a.356.356,0,0,1,0-.711h2.818a.356.356,0,0,1,0,.711m-5.639,0h-2.82a.356.356,0,0,1,0-.711h2.82a.356.356,0,0,1,0,.711m-5.64,0h-2.819a.356.356,0,0,1,0-.711h2.819a.356.356,0,0,1,0,.711m-5.639,0h-2.82a.356.356,0,0,1,0-.711h2.82a.356.356,0,0,1,0,.711m-5.64,0h-2.82a.356.356,0,0,1,0-.711h2.82a.356.356,0,0,1,0,.711m-5.638,0h-2.82a.356.356,0,0,1,0-.711h2.82a.356.356,0,0,1,0,.711m-5.64,0h-2.82a.356.356,0,0,1,0-.711h2.82a.356.356,0,0,1,0,.711m-5.639,0h-2.82a.356.356,0,0,1,0-.711h2.82a.356.356,0,0,1,0,.711m-5.639,0h-2.82a.356.356,0,0,1,0-.711h2.82a.356.356,0,0,1,0,.711m-5.423-.8a.351.351,0,0,1-.254-.109,3.011,3.011,0,0,1-.826-2.094c0-.066,0-.132.005-.2l.039-.629a.353.353,0,1,1,.7.043l-.038.628c0,.052,0,.1,0,.157a2.3,2.3,0,0,0,.628,1.6.358.358,0,0,1-.008.5.351.351,0,0,1-.245.1m69.406-1.229a.346.346,0,0,1-.119-.021.356.356,0,0,1-.214-.454,2.5,2.5,0,0,0,.142-.7l.125-2.026a.362.362,0,0,1,.375-.333.354.354,0,0,1,.329.377l-.125,2.026a3.232,3.232,0,0,1-.182.894.352.352,0,0,1-.332.236m-69.913-4.265H235.8a.355.355,0,0,1-.33-.378l.175-2.84a.359.359,0,0,1,.374-.333.355.355,0,0,1,.33.377l-.176,2.84a.354.354,0,0,1-.352.333m70.376-1.4h-.022a.354.354,0,0,1-.329-.377l.176-2.84a.353.353,0,1,1,.7.045l-.176,2.84a.354.354,0,0,1-.352.334m-70.024-4.283h-.022a.355.355,0,0,1-.33-.377l.176-2.84a.36.36,0,0,1,.374-.333.355.355,0,0,1,.33.378l-.175,2.84a.355.355,0,0,1-.352.334m70.376-1.4h-.022a.355.355,0,0,1-.33-.378l.176-2.84a.353.353,0,1,1,.7.044l-.176,2.84a.355.355,0,0,1-.352.333m-70.024-4.283H236.5a.355.355,0,0,1-.33-.378l.176-2.84a.361.361,0,0,1,.374-.333.354.354,0,0,1,.33.377l-.176,2.84a.354.354,0,0,1-.351.333m70.376-1.4h-.022a.355.355,0,0,1-.33-.377l.176-2.84a.353.353,0,1,1,.7.045l-.175,2.84a.355.355,0,0,1-.352.333m-70.025-4.282h-.022a.354.354,0,0,1-.33-.377l.176-2.84a.353.353,0,1,1,.7.045l-.176,2.84a.354.354,0,0,1-.352.334m70.377-1.4h-.023a.355.355,0,0,1-.33-.378l.177-2.84a.352.352,0,1,1,.7.044l-.176,2.84a.355.355,0,0,1-.351.333m-70.025-4.283h-.022a.356.356,0,0,1-.33-.378l.176-2.84a.353.353,0,1,1,.7.044l-.176,2.84a.355.355,0,0,1-.352.333m70.376-1.4h-.022a.354.354,0,0,1-.329-.377l.175-2.84a.361.361,0,0,1,.374-.333.356.356,0,0,1,.33.377l-.176,2.84a.353.353,0,0,1-.352.333m-70.024-4.283h-.022a.355.355,0,0,1-.33-.377l.176-2.84a.353.353,0,1,1,.7.045l-.176,2.84a.354.354,0,0,1-.351.333m70.376-1.4h-.022a.355.355,0,0,1-.33-.378l.176-2.84a.362.362,0,0,1,.374-.333.355.355,0,0,1,.33.377l-.175,2.84a.355.355,0,0,1-.352.333m-70.025-4.283h-.022a.355.355,0,0,1-.33-.378l.176-2.84a.353.353,0,1,1,.7.045l-.176,2.84a.354.354,0,0,1-.352.333m70.32-1.4a.355.355,0,0,1-.349-.307,2.248,2.248,0,0,0-1.453-1.821.356.356,0,0,1-.211-.455.351.351,0,0,1,.45-.214,2.958,2.958,0,0,1,1.913,2.393.356.356,0,0,1-.3.4.351.351,0,0,1-.05,0m-4.482-2.268h-2.82a.356.356,0,0,1,0-.712h2.82a.356.356,0,0,1,0,.712m-5.639,0h-2.82a.356.356,0,0,1,0-.712h2.82a.356.356,0,0,1,0,.712m-5.64,0h-2.82a.356.356,0,0,1,0-.712h2.82a.356.356,0,0,1,0,.712m-5.639,0h-2.82a.356.356,0,0,1,0-.712h2.82a.356.356,0,0,1,0,.712m-5.64,0h-2.82a.356.356,0,0,1,0-.712h2.82a.356.356,0,0,1,0,.712m-5.64,0h-2.819a.356.356,0,0,1,0-.712h2.819a.356.356,0,0,1,0,.712m-5.638-.02H269.9a6.46,6.46,0,0,1-2.819-.891.358.358,0,0,1-.125-.487.35.35,0,0,1,.483-.126,5.758,5.758,0,0,0,2.516.794.356.356,0,0,1-.027.71m-31.651-2h-.022a.355.355,0,0,1-.33-.377l.153-2.472a3.377,3.377,0,0,1,.051-.41.353.353,0,1,1,.693.133,2.494,2.494,0,0,0-.04.321l-.153,2.472a.354.354,0,0,1-.352.333m26.976-.806a.352.352,0,0,1-.3-.164,6.524,6.524,0,0,1-.92-2.432,2.247,2.247,0,0,0-1.5-1.777.356.356,0,0,1-.225-.449.352.352,0,0,1,.445-.227,2.957,2.957,0,0,1,1.979,2.335,5.816,5.816,0,0,0,.819,2.168.359.359,0,0,1-.109.491.349.349,0,0,1-.188.055m-25.11-4.2a.353.353,0,0,1-.317-.2.357.357,0,0,1,.165-.475,3.216,3.216,0,0,1,1.415-.329h1.513a.356.356,0,0,1,0,.712H241.41a2.525,2.525,0,0,0-1.109.258.351.351,0,0,1-.153.036m19.693-.294h-2.82a.356.356,0,0,1,0-.712h2.82a.356.356,0,0,1,0,.712m-5.64,0h-2.819a.356.356,0,0,1,0-.712H254.2a.356.356,0,0,1,0,.712m-5.639,0h-2.819a.356.356,0,0,1,0-.712h2.819a.356.356,0,0,1,0,.712" transform="translate(-96.452 -84.054)" fill="#79f5ed"/>
              <path id="Trazado_179841" data-name="Trazado 179841" d="M300.3,251.49a13.145,13.145,0,0,1-12.889,12.243,11.322,11.322,0,0,1-11.373-12.243,13.144,13.144,0,0,1,12.889-12.243A11.322,11.322,0,0,1,300.3,251.49" transform="translate(-113.165 -96.784)" fill="#79f5ed"/>
              <path id="Trazado_179842" data-name="Trazado 179842" d="M293.975,245.239h2.91a1.023,1.023,0,0,1,1.028,1.106l-.172,2.778a1.1,1.1,0,0,1-.017.138l-1.284,6.905a1.187,1.187,0,0,1-1.147.968h-1.218a1.019,1.019,0,0,1-1.028-.972l-.408-6.9a1.012,1.012,0,0,1,0-.134l.172-2.78a1.187,1.187,0,0,1,1.164-1.106m-.3,13.415h1.87a1.022,1.022,0,0,1,1.027,1.106l-.087,1.413a1.187,1.187,0,0,1-1.164,1.106h-1.87a1.022,1.022,0,0,1-1.027-1.106l.087-1.413a1.187,1.187,0,0,1,1.164-1.106" transform="translate(-119.891 -99.208)"/>
              <path id="Trazado_179843" data-name="Trazado 179843" d="M307.417,110.35l-3.561-2.608,6.573-9.145a10.047,10.047,0,0,0,1.721-7.487,8.585,8.585,0,0,0-3.592-5.643c-4.189-2.862-10.162-1.56-13.312,2.906l-2.431,3.446-3.584-2.575,2.431-3.446c4.524-6.413,13.211-8.211,19.362-4.008a12.99,12.99,0,0,1,5.455,8.532A14.554,14.554,0,0,1,314,101.189Z" transform="translate(-118.585 -32.168)" fill="#5bb8b2"/>
              <path id="Trazado_179844" data-name="Trazado 179844" d="M302.652,152.963H275.768a5.1,5.1,0,0,1-5.11-5.5l1.038-16.774a5.924,5.924,0,0,1,5.791-5.5h26.884a5.1,5.1,0,0,1,5.109,5.5l-1.038,16.774a5.923,5.923,0,0,1-5.79,5.5" transform="translate(-110.965 -50.643)" fill="#263238"/>
              <path id="Trazado_179845" data-name="Trazado 179845" d="M305.062,139.96a3.44,3.44,0,0,0-3.456-3.72,3.993,3.993,0,0,0-3.915,3.72,3.461,3.461,0,0,0,1.805,3.311l-1.281,7.583h4.974l-.343-7.583a4.018,4.018,0,0,0,2.215-3.311" transform="translate(-122.05 -55.114)" fill="#fff"/>
              <path id="Trazado_179846" data-name="Trazado 179846" d="M149.659,364.019l-5.617-.089-2.929-13.125,5.617.089Z" transform="translate(-57.856 -141.913)" fill="#ffb570"/>
              <path id="Trazado_179847" data-name="Trazado 179847" d="M138.962,370.158l6.125.1a.519.519,0,0,1,.489.394l1.257,5.046a.782.782,0,0,1-.777.993c-2.211-.073-5.408-.254-8.186-.3-3.247-.051-2.07.358-5.878.3-2.3-.036-3.011-2.394-2.054-2.592,4.36-.9,3.962-1.221,7.685-3.52a2.493,2.493,0,0,1,1.339-.419" transform="translate(-53.105 -149.741)" fill="#263238"/>
              <g id="Grupo_112480" data-name="Grupo 112480" transform="translate(83.258 208.896)" opacity="0.2">
                <g id="Grupo_112479" data-name="Grupo 112479">
                  <g id="Grupo_112478" data-name="Grupo 112478" clip-path="url(#clip-path-4)">
                    <path id="Trazado_179848" data-name="Trazado 179848" d="M141.115,350.812l1.509,6.765,5.619.089-1.509-6.765Z" transform="translate(-141.115 -350.812)"/>
                  </g>
                </g>
              </g>
              <path id="Trazado_179849" data-name="Trazado 179849" d="M133.8,249.684c14.24-10.209,34.28-27.39,31.705-41.716l-19.762.238s-26.488,25.982-26.475,40.9c.015,17.7,11.886,46.611,11.886,46.611l9.022.13s-3.008-26.49-6.377-46.164" transform="translate(-48.901 -84.13)" fill="#263238"/>
              <g id="Grupo_112483" data-name="Grupo 112483" transform="translate(97.78 135.234)" opacity="0.2">
                <g id="Grupo_112482" data-name="Grupo 112482">
                  <g id="Grupo_112481" data-name="Grupo 112481" clip-path="url(#clip-path-5)">
                    <path id="Trazado_179850" data-name="Trazado 179850" d="M182.561,227.107c-3.284,6.973-9.822,14.013-16.834,20.164,2.527-9.906,7.3-19.231,16.834-20.164" transform="translate(-165.728 -227.107)"/>
                  </g>
                </g>
              </g>
              <path id="Trazado_179851" data-name="Trazado 179851" d="M135.988,351.934l1.8,3.9,9.976.179-.6-3.688Z" transform="translate(-55.755 -142.369)" fill="#263238"/>
              <path id="Trazado_179852" data-name="Trazado 179852" d="M251.214,356.532l-4.83,2.88-8.368-10.219,4.83-2.88Z" transform="translate(-97.587 -140.096)" fill="#ffb570"/>
              <path id="Trazado_179853" data-name="Trazado 179853" d="M245.445,364.039l5.263-3.138a.43.43,0,0,1,.573.108l3.064,4.023a.926.926,0,0,1-.27,1.332c-1.915,1.1-2.6,1.308-4.985,2.731-2.79,1.663-4.375,3.535-8.175,3.475-2.3-.036-2.666-2.384-1.682-2.592a6.79,6.79,0,0,0,5.236-4.844,1.989,1.989,0,0,1,.976-1.094" transform="translate(-97.875 -145.97)" fill="#263238"/>
              <g id="Grupo_112486" data-name="Grupo 112486" transform="translate(140.432 206.219)" opacity="0.2">
                <g id="Grupo_112485" data-name="Grupo 112485">
                  <g id="Grupo_112484" data-name="Grupo 112484" clip-path="url(#clip-path-6)">
                    <path id="Trazado_179854" data-name="Trazado 179854" d="M238.021,349.2l4.312,5.268,4.832-2.882-4.312-5.268Z" transform="translate(-238.021 -346.315)"/>
                  </g>
                </g>
              </g>
              <path id="Trazado_179855" data-name="Trazado 179855" d="M199.351,258.095c3.071-28.88,8.114-36.339,3.671-50.665l-22.461.558s2.116,34.188,4.617,51.387c1.9,13.074,29.273,36.8,29.273,36.8l7.777-4.652s-11.144-19.446-22.877-33.428" transform="translate(-74.03 -83.912)" fill="#263238"/>
              <path id="Trazado_179856" data-name="Trazado 179856" d="M234.323,350.918l2.524,3.017,8.736-5.187-1.42-3.448Z" transform="translate(-96.072 -139.686)" fill="#263238"/>
              <path id="Trazado_179857" data-name="Trazado 179857" d="M154.871,129.081c-.647,2.2-1.352,4.272-2.114,6.38s-1.572,4.179-2.474,6.245-1.85,4.129-2.967,6.18c-.561,1.026-1.138,2.059-1.821,3.086a22.886,22.886,0,0,1-2.443,3.146l.323-.407a7.521,7.521,0,0,1-1.494,1.535,6.417,6.417,0,0,1-.584.389,6.04,6.04,0,0,1-.713.35,5.177,5.177,0,0,1-1.735.367,5.292,5.292,0,0,1-2.944-.8,6.983,6.983,0,0,1-1.5-1.276,10.832,10.832,0,0,1-1.555-2.308,20.433,20.433,0,0,1-.959-2.138,33.645,33.645,0,0,1-1.258-4.158,36.579,36.579,0,0,1-.745-4.186,2.132,2.132,0,0,1,4-1.268l.045.086c.594,1.118,1.192,2.309,1.8,3.426s1.23,2.228,1.88,3.224a16.425,16.425,0,0,0,.971,1.376,4.813,4.813,0,0,0,.86.876c.1.064.157.06.052-.032a1.679,1.679,0,0,0-1.047-.295,2.271,2.271,0,0,0-.771.139,1.785,1.785,0,0,0-.27.122,1.7,1.7,0,0,0-.176.1c-.178.12-.181.126-.158.055l0-.009.318-.4a16.162,16.162,0,0,0,1.372-2.119c.453-.824.906-1.706,1.332-2.615s.839-1.849,1.234-2.8.8-1.917,1.173-2.895c.753-1.956,1.489-3.938,2.191-5.938s1.4-4.037,2.059-5.984l.017-.052a4.239,4.239,0,0,1,5.392-2.677,4.3,4.3,0,0,1,2.7,5.277" transform="translate(-53.247 -49.99)" fill="#263238"/>
              <path id="Trazado_179858" data-name="Trazado 179858" d="M128.362,153.518l-4.86-4.044,6.094-3.053s4.074,3.453,2.067,6.057Z" transform="translate(-50.636 -59.232)" fill="#ffb570"/>
              <path id="Trazado_179859" data-name="Trazado 179859" d="M122.525,142.957l2.315-1.629a1.767,1.767,0,0,1,2.511.5l1.533,2.4-6.094,3.053-.89-2.169a1.8,1.8,0,0,1,.625-2.157" transform="translate(-49.923 -57.041)" fill="#ffb570"/>
              <path id="Trazado_179860" data-name="Trazado 179860" d="M166.368,115.819a64.593,64.593,0,0,1,13.839-.769,11.607,11.607,0,0,1,10.759,9.235c1.851,8.638,4.279,23.613,3.3,46.063-7.831,2.85-30.726,3.912-32.953.529.568-4.68.258-17.755-.231-24.659-.441-6.231-2.036-13.165-2.835-19.292a9.964,9.964,0,0,1,8.122-11.107" transform="translate(-64.846 -46.511)" fill="#263238"/>
            </g>
          </g>
          <g id="Grupo_112490" data-name="Grupo 112490" transform="translate(93.315 68.462)">
            <g id="Grupo_112489" data-name="Grupo 112489" clip-path="url(#clip-path-7)">
              <path id="Trazado_179861" data-name="Trazado 179861" d="M171.5,210.978c-6.344,0-13.007-.522-14.48-2.591a1.153,1.153,0,0,1,.26-1.6,1.129,1.129,0,0,1,1.585.262c.54.753,5.3,1.853,15.784,1.6,8.628-.211,17.039-1.234,20.93-2.544a1.132,1.132,0,0,1,1.437.725,1.149,1.149,0,0,1-.718,1.45c-4.719,1.589-14.25,2.481-21.6,2.661-1.037.025-2.113.04-3.2.04" transform="translate(-157.604 -151.814)" fill="#fff"/>
              <path id="Trazado_179862" data-name="Trazado 179862" d="M156.993,197.612a1.13,1.13,0,0,1,1.585.262c.57.793,5.568,1.839,15.853,1.593,8.593-.2,17.072-1.209,21.028-2.541a1.133,1.133,0,0,1,1.437.725,1.149,1.149,0,0,1-.718,1.45c-4.646,1.564-14.185,2.478-21.685,2.662-1.044.026-2.123.041-3.207.041-6.449,0-13.091-.539-14.552-2.591a1.153,1.153,0,0,1,.26-1.6" transform="translate(-157.489 -148.102)" fill="#fff"/>
              <path id="Trazado_179863" data-name="Trazado 179863" d="M156.711,188.437a1.131,1.131,0,0,1,1.585.262c.6.832,5.837,1.826,15.921,1.59,8.558-.2,17.1-1.184,21.127-2.538a1.132,1.132,0,0,1,1.437.725,1.149,1.149,0,0,1-.718,1.45c-4.571,1.539-14.119,2.474-21.768,2.663-1.053.026-2.135.041-3.219.041-6.554,0-13.175-.558-14.624-2.593a1.153,1.153,0,0,1,.26-1.6" transform="translate(-157.373 -144.39)" fill="#fff"/>
              <path id="Trazado_179864" data-name="Trazado 179864" d="M156.429,179.261a1.133,1.133,0,0,1,1.585.262c.632.872,6.106,1.813,15.988,1.588,8.523-.192,17.138-1.159,21.225-2.535a1.132,1.132,0,0,1,1.437.725,1.149,1.149,0,0,1-.717,1.45c-4.5,1.514-14.054,2.469-21.851,2.664-1.061.026-2.146.042-3.23.042-6.659,0-13.26-.576-14.7-2.594a1.153,1.153,0,0,1,.26-1.6" transform="translate(-157.257 -140.678)" fill="#fff"/>
              <path id="Trazado_179865" data-name="Trazado 179865" d="M156.146,170.086a1.134,1.134,0,0,1,1.585.262c.663.911,6.375,1.8,16.057,1.585,8.488-.186,17.171-1.134,21.323-2.533a1.133,1.133,0,0,1,1.437.725,1.149,1.149,0,0,1-.718,1.45c-4.424,1.489-13.989,2.465-21.934,2.664-1.068.027-2.156.042-3.242.042-6.763,0-13.343-.594-14.768-2.6a1.153,1.153,0,0,1,.26-1.6" transform="translate(-157.141 -136.966)" fill="#fff"/>
              <path id="Trazado_179866" data-name="Trazado 179866" d="M155.864,160.911a1.134,1.134,0,0,1,1.585.262c.694.95,6.644,1.786,16.125,1.582,8.453-.179,17.2-1.109,21.422-2.53a1.132,1.132,0,0,1,1.437.725,1.149,1.149,0,0,1-.718,1.45c-4.349,1.465-13.923,2.461-22.016,2.665-1.076.027-2.168.042-3.253.042-6.868,0-13.428-.612-14.841-2.6a1.153,1.153,0,0,1,.26-1.6" transform="translate(-157.026 -133.255)" fill="#fff"/>
              <path id="Trazado_179867" data-name="Trazado 179867" d="M155.582,151.735a1.135,1.135,0,0,1,1.585.262c.725.99,6.913,1.773,16.193,1.579,8.419-.173,17.237-1.085,21.52-2.527a1.133,1.133,0,0,1,1.437.725,1.149,1.149,0,0,1-.718,1.45c-4.276,1.44-13.859,2.457-22.1,2.666-1.083.027-2.178.042-3.264.042-6.973,0-13.512-.63-14.913-2.6a1.153,1.153,0,0,1,.26-1.6" transform="translate(-156.91 -129.543)" fill="#fff"/>
              <path id="Trazado_179868" data-name="Trazado 179868" d="M155.3,142.56a1.135,1.135,0,0,1,1.585.262c.756,1.029,7.182,1.76,16.262,1.576,8.383-.167,17.271-1.06,21.618-2.524a1.133,1.133,0,0,1,1.437.725,1.149,1.149,0,0,1-.718,1.45c-4.2,1.415-13.793,2.453-22.183,2.666-1.091.028-2.189.043-3.276.043-7.078,0-13.6-.648-14.985-2.6a1.153,1.153,0,0,1,.26-1.6" transform="translate(-156.794 -125.831)" fill="#fff"/>
              <path id="Trazado_179869" data-name="Trazado 179869" d="M155.017,133.385a1.136,1.136,0,0,1,1.585.262c.787,1.068,7.452,1.747,16.33,1.573,8.348-.161,17.3-1.036,21.717-2.521a1.132,1.132,0,0,1,1.437.725,1.149,1.149,0,0,1-.718,1.45c-4.128,1.39-13.727,2.449-22.265,2.668-1.1.028-2.2.043-3.287.043-7.183,0-13.681-.666-15.057-2.6a1.153,1.153,0,0,1,.26-1.6" transform="translate(-156.678 -122.12)" fill="#fff"/>
              <path id="Trazado_179870" data-name="Trazado 179870" d="M154.735,124.209a1.136,1.136,0,0,1,1.585.262c.818,1.108,7.721,1.734,16.4,1.571,8.314-.155,17.337-1.011,21.815-2.519a1.132,1.132,0,0,1,1.437.725,1.149,1.149,0,0,1-.717,1.45c-4.054,1.365-13.662,2.445-22.349,2.668-1.106.029-2.211.043-3.3.043-7.287,0-13.765-.684-15.129-2.6a1.153,1.153,0,0,1,.26-1.6" transform="translate(-156.563 -118.408)" fill="#fff"/>
              <path id="Trazado_179871" data-name="Trazado 179871" d="M154.452,115.034a1.137,1.137,0,0,1,1.585.262c.85,1.147,7.99,1.721,16.466,1.568,8.279-.148,17.37-.986,21.913-2.516a1.133,1.133,0,0,1,1.437.725,1.149,1.149,0,0,1-.718,1.45c-3.98,1.34-13.6,2.441-22.431,2.669-1.114.029-2.222.044-3.31.044-7.393,0-13.849-.7-15.2-2.6a1.153,1.153,0,0,1,.26-1.6" transform="translate(-156.447 -114.696)" fill="#fff"/>
              <path id="Trazado_179872" data-name="Trazado 179872" d="M169.184,110.062c-7.5,0-13.933-.721-15.275-2.6a1.153,1.153,0,0,1,.26-1.6,1.128,1.128,0,0,1,1.585.262c1.807,2.331,29.312,2.162,38.546-.948a1.133,1.133,0,0,1,1.437.725,1.15,1.15,0,0,1-.718,1.451c-4.394,1.479-16.023,2.714-25.836,2.714" transform="translate(-156.331 -110.984)" fill="#fff"/>
            </g>
          </g>
          <g id="Grupo_112498" data-name="Grupo 112498">
            <g id="Grupo_112497" data-name="Grupo 112497" clip-path="url(#clip-path)">
              <path id="Trazado_179874" data-name="Trazado 179874" d="M182.009,97.027c.559,4.209,1.294,9.034,3.277,12.157-1.1,2.909-4.8,4.867-8.685,3.969-4.355-1.008-3-1.6-2.267-3.506,1.9-2.147.984-4.536.507-6.235Z" transform="translate(-71.152 -39.251)" fill="#ffb570"/>
              <g id="Grupo_112493" data-name="Grupo 112493" transform="translate(103.691 59.716)" opacity="0.2">
                <g id="Grupo_112492" data-name="Grupo 112492">
                  <g id="Grupo_112491" data-name="Grupo 112491" clip-path="url(#clip-path-9)">
                    <path id="Trazado_179875" data-name="Trazado 179875" d="M180.6,101.082c-.028-.268-.07-.535-.112-.8l-4.742,4.448a10.388,10.388,0,0,1,.629,3.6c2.354-1.593,4.512-4.7,4.226-7.247" transform="translate(-175.748 -100.285)"/>
                  </g>
                </g>
              </g>
              <path id="Trazado_179876" data-name="Trazado 179876" d="M177.464,81.924c-.7,5.564-.833,8.859-3.818,11.518-4.49,4-11.165.926-12.126-4.753-.865-5.111.429-13.352,6-15.168a7.681,7.681,0,0,1,9.946,8.4" transform="translate(-66.123 -29.583)" fill="#ffb570"/>
              <path id="Trazado_179877" data-name="Trazado 179877" d="M173.263,98.12a5.042,5.042,0,0,0,.752-.485.158.158,0,0,0,.029-.22.154.154,0,0,0-.218-.029,4.163,4.163,0,0,1-3.716.79.155.155,0,0,0-.2.1.157.157,0,0,0,.095.2,4.313,4.313,0,0,0,3.257-.352" transform="translate(-69.66 -39.383)" fill="#263238"/>
              <path id="Trazado_179878" data-name="Trazado 179878" d="M176.832,73.162c3.879.4,7.54,1.16,8.947,5.914,1.255,4.237-.713,7.226-2.421,8.3a4.268,4.268,0,0,1-3.486.419Z" transform="translate(-72.501 -29.597)" fill="#ffb570"/>
              <path id="Trazado_179879" data-name="Trazado 179879" d="M176.832,73.162c3.879.4,7.54,1.16,8.947,5.914,1.255,4.237-.713,7.226-2.421,8.3a12.616,12.616,0,0,1-3.134-3.427l2.115-3.371c.27-2.219-2.237-6.164-5.508-7.413" transform="translate(-72.501 -29.597)" fill="#93989c"/>
              <path id="Trazado_179880" data-name="Trazado 179880" d="M178.1,90.019s2.2-1.143-3.06-2.377c-3.145-.738-12.107-1.554-14.784-.654-.85.286-1.173,5.44,4.182,3.9.418-.6.93.378,2.087.523,3.96.5,6.478-2.74,11.575-1.394" transform="translate(-65.506 -35.029)" fill="#263238"/>
              <path id="Trazado_179881" data-name="Trazado 179881" d="M190.165,90.04c.91-.528,2.48-.322,2.139.436.675.352,1.176,1.446-.766,1.531s-1.373-1.967-1.373-1.967" transform="translate(-77.936 -36.306)" fill="#263238"/>
              <path id="Trazado_179882" data-name="Trazado 179882" d="M190.542,89.024c1.392.186,2.8-1.605,3.175-2.281-1.65.532-3.182,1.167-3.175,2.281" transform="translate(-78.122 -35.091)" fill="#263238"/>
              <path id="Trazado_179883" data-name="Trazado 179883" d="M187.895,94.88a4.569,4.569,0,0,1-2.822,2.111c-1.573.381-2.313-1.053-1.838-2.521.428-1.32,1.761-3.11,3.321-2.837a2.11,2.11,0,0,1,1.339,3.247" transform="translate(-75.068 -37.058)" fill="#ffb570"/>
              <path id="Trazado_179884" data-name="Trazado 179884" d="M174.613,89.188c-.029.455-.293.806-.588.784s-.51-.409-.481-.865.293-.806.588-.784.51.409.481.864" transform="translate(-71.152 -35.73)" fill="#fff"/>
              <path id="Trazado_179885" data-name="Trazado 179885" d="M165.875,88.774c-.03.455-.293.806-.588.784s-.51-.409-.48-.865.292-.806.587-.784.51.409.481.864" transform="translate(-67.57 -35.562)" fill="#fff"/>
              <path id="Trazado_179886" data-name="Trazado 179886" d="M167.708,90.428a16.165,16.165,0,0,1-2.339,3.775,2.6,2.6,0,0,0,2.139.53Z" transform="translate(-67.801 -36.581)" fill="#ff8935"/>
              <path id="Trazado_179887" data-name="Trazado 179887" d="M175.572,84.125a.266.266,0,0,0-.143-.438,2.646,2.646,0,0,0-2.364.582.267.267,0,0,0,.374.38,2.115,2.115,0,0,1,1.877-.44.267.267,0,0,0,.256-.084" transform="translate(-70.924 -33.827)" fill="#263238"/>
              <path id="Trazado_179888" data-name="Trazado 179888" d="M164.665,83.765a.262.262,0,0,0-.215-.129,2.082,2.082,0,0,1-1.69-.9.262.262,0,0,0-.363-.091.271.271,0,0,0-.091.367,2.608,2.608,0,0,0,2.122,1.162.267.267,0,0,0,.276-.258.271.271,0,0,0-.038-.151" transform="translate(-66.53 -33.416)" fill="#263238"/>
              <path id="Trazado_179889" data-name="Trazado 179889" d="M162.1,140.324h0a1.751,1.751,0,0,1,2.036-.815l12.245,3.753a1.778,1.778,0,0,1,1.171,2.214l-8.261,27.453a1.755,1.755,0,0,1-2.193,1.183L128.237,162.2a1.777,1.777,0,0,1-1.171-2.213L134,136.928a1.756,1.756,0,0,1,2.193-1.183l21.144,6.48a4.09,4.09,0,0,0,4.755-1.9" transform="translate(-52.066 -54.883)" fill="#79f5ed"/>
              <path id="Trazado_179890" data-name="Trazado 179890" d="M170.5,170.568s6.152-22.884,6.82-27.784c-4.4-1.025-33.25-8.163-39.925-11.408-2.973,10.227-6.5,26.862-6.5,26.862s32.872,11.718,39.607,12.33" transform="translate(-53.664 -53.146)" fill="#e7e7e7"/>
              <path id="Trazado_179891" data-name="Trazado 179891" d="M170.5,171.315s4.853-21.785,5.52-26.685c-4.4-1.025-33.25-8.163-39.924-11.408-2.973,10.227-5.2,25.763-5.2,25.763s32.872,11.718,39.607,12.33" transform="translate(-53.664 -53.893)" fill="#fff"/>
              <path id="Trazado_179892" data-name="Trazado 179892" d="M167.915,172.862s4.853-21.785,5.52-26.685c-4.4-1.025-33.25-8.162-39.924-11.408-2.973,10.227-5.2,25.763-5.2,25.763" transform="translate(-52.606 -54.519)" fill="#e7e7e7"/>
              <g id="Grupo_112496" data-name="Grupo 112496" transform="translate(74.021 81.619)" opacity="0.5">
                <g id="Grupo_112495" data-name="Grupo 112495">
                  <g id="Grupo_112494" data-name="Grupo 112494" clip-path="url(#clip-path-10)">
                    <path id="Trazado_179893" data-name="Trazado 179893" d="M154.852,141.536h0a1.379,1.379,0,0,1,1.78-.893l12.245,3.753a2.262,2.262,0,0,1,1.5,2.314L167.691,173.2a1.407,1.407,0,0,1-1.864,1.283l-38.857-11.91a2.264,2.264,0,0,1-1.5-2.314l2.214-21.833a1.407,1.407,0,0,1,1.864-1.283l21.144,6.481a3.225,3.225,0,0,0,4.159-2.085" transform="translate(-125.459 -137.068)" fill="#263238"/>
                  </g>
                </g>
              </g>
              <path id="Trazado_179894" data-name="Trazado 179894" d="M203.081,119.027l.719.573.65.541c.428.358.835.732,1.243,1.1q1.219,1.118,2.371,2.291a57.265,57.265,0,0,1,4.352,4.969,45.588,45.588,0,0,1,6.727,11.7c.207.538.388,1.093.574,1.642l.254.838.129.431c.063.249.129.491.173.75a7.512,7.512,0,0,1-.1,3.167,8.188,8.188,0,0,1-1.179,2.562,12.183,12.183,0,0,1-3.1,3.015,21.949,21.949,0,0,1-3.152,1.767,37.012,37.012,0,0,1-6.258,2.181,46.114,46.114,0,0,1-6.333,1.2,2.139,2.139,0,0,1-1.041-4.1l.084-.035a65.375,65.375,0,0,0,10.428-5.09,15.487,15.487,0,0,0,2.033-1.537,4.773,4.773,0,0,0,1.165-1.4c.073-.168.064-.264.042-.264s-.055.079-.068.095-.016,0-.016,0l-.116-.3-.239-.629c-.178-.416-.345-.833-.538-1.245a42.751,42.751,0,0,0-6.052-9.368c-1.2-1.473-2.512-2.874-3.846-4.25q-1.005-1.027-2.058-2l-1.053-.953-.522-.461-.473-.4-.171-.146a4.313,4.313,0,0,1-.5-6.039,4.226,4.226,0,0,1,5.875-.6" transform="translate(-80.443 -47.779)" fill="#263238"/>
              <path id="Trazado_179895" data-name="Trazado 179895" d="M201.365,176.486l-5.632.688,2.677,6.313s5.024-1.248,4.8-4.05Z" transform="translate(-80.251 -71.395)" fill="#ffb570"/>
              <path id="Trazado_179896" data-name="Trazado 179896" d="M189.292,182.294l1.308,2.053a1.956,1.956,0,0,0,2.435.747l2.606-1.139-2.677-6.313-3.047,1.888a2,2,0,0,0-.625,2.764" transform="translate(-77.481 -71.862)" fill="#ffb570"/>
              <path id="Trazado_179897" data-name="Trazado 179897" d="M181.414,79.955c.676.573.217,1.683-.412,2.245-1.418-1.081-9.92-4.256-16.545-4.246-.6-.888.009-2.112.919-2.97,4.915.49,12.822,2.245,16.039,4.97" transform="translate(-67.329 -30.334)" fill="#263238"/>
              <path id="Trazado_179898" data-name="Trazado 179898" d="M166.4,73.452c.662-1.5,5.216-4.96,12.766-2.694,6.144,1.844,2.882,7.746,2.882,7.746Z" transform="translate(-68.222 -28.321)" fill="#263238"/>
            </g>
          </g>
        </g>
      </g>
      <rect id="Rectángulo_38491" data-name="Rectángulo 38491" width="295" height="232" transform="translate(1020 1766)" fill="none"/>
    </g>
  </g>
</svg>
