<svg xmlns="http://www.w3.org/2000/svg" xmlns:xlink="http://www.w3.org/1999/xlink" width="104.64" height="104.64" viewBox="0 0 104.64 104.64">
  <defs>
    <clipPath id="clip-path">
      <rect id="Rect치ngulo_37555" data-name="Rect치ngulo 37555" width="104.64" height="104.64" fill="none"/>
    </clipPath>
  </defs>
  <g id="Grupo_143582" data-name="Grupo 143582" transform="translate(-915.36 -5338.441)">
    <g id="Grupo_112124" data-name="Grupo 112124" transform="translate(915.36 5338.441)">
      <g id="Grupo_112123" data-name="Grupo 112123" transform="translate(0)" clip-path="url(#clip-path)">
        <path id="Trazado_169507" data-name="Trazado 169507" d="M75.948,48.944a27,27,0,1,1-27,27,27,27,0,0,1,27-27" fill="#62e8db"/>
        <path id="Trazado_169508" data-name="Trazado 169508" d="M75.948,48.944A26.97,26.97,0,0,0,54.514,92.319a26.969,26.969,0,0,0,37.805-37.8A26.863,26.863,0,0,0,75.948,48.944Z" fill="#79f5ed"/>
        <path id="Trazado_169509" data-name="Trazado 169509" d="M75.948,102.952c-8.518,0-15.19-11.861-15.19-27s6.672-27,15.19-27,15.19,11.861,15.19,27-6.672,27-15.19,27m0-50.632c-6.4,0-11.814,10.82-11.814,23.628s5.411,23.629,11.814,23.629,11.814-10.82,11.814-23.629S82.351,52.32,75.948,52.32" fill="#7fa3f8"/>
        <path id="Trazado_169510" data-name="Trazado 169510" d="M75.948,91.138c-15.142,0-27-6.672-27-15.19s11.862-15.189,27-15.189,27,6.671,27,15.189-11.862,15.19-27,15.19m0-27c-12.864,0-23.731,5.411-23.731,11.814S63.084,87.762,75.948,87.762s23.731-5.411,23.731-11.814S88.812,64.134,75.948,64.134" fill="#fff"/>
        <path id="Trazado_169511" data-name="Trazado 169511" d="M94.513,16.877H91.138A3.376,3.376,0,0,0,87.762,13.5V10.126a6.752,6.752,0,0,1,6.751,6.751" fill="#4184a9"/>
        <path id="Trazado_169512" data-name="Trazado 169512" d="M99.577,16.877H96.2a8.45,8.45,0,0,0-8.439-8.439V5.063A11.826,11.826,0,0,1,99.577,16.877" fill="#4c506e"/>
        <path id="Trazado_169513" data-name="Trazado 169513" d="M104.64,16.877h-3.375a13.518,13.518,0,0,0-13.5-13.5V0A16.9,16.9,0,0,1,104.64,16.877" fill="#363a4f"/>
        <path id="Trazado_169514" data-name="Trazado 169514" d="M87.763,45.569H84.388V20.253H62.447V16.877H86.075a1.688,1.688,0,0,1,1.688,1.688Z" fill="#bae1e5"/>
        <path id="Trazado_169515" data-name="Trazado 169515" d="M16.877,94.514a6.752,6.752,0,0,1-6.751-6.751H13.5a3.376,3.376,0,0,0,3.375,3.376Z" fill="#4184a9"/>
        <path id="Trazado_169516" data-name="Trazado 169516" d="M16.877,99.577A11.826,11.826,0,0,1,5.063,87.763H8.438A8.45,8.45,0,0,0,16.877,96.2Z" fill="#4c506e"/>
        <path id="Trazado_169517" data-name="Trazado 169517" d="M16.877,104.64A16.9,16.9,0,0,1,0,87.763H3.375a13.518,13.518,0,0,0,13.5,13.5Z" fill="#363a4f"/>
        <path id="Trazado_169518" data-name="Trazado 169518" d="M45.569,87.763h-27a1.688,1.688,0,0,1-1.688-1.688V52.32h3.376V84.388H45.569Z" fill="#bae1e5"/>
        <path id="Trazado_169519" data-name="Trazado 169519" d="M5.063,1.688H59.071a3.375,3.375,0,0,1,3.375,3.375v30.38a3.375,3.375,0,0,1-3.375,3.375H5.063a3.375,3.375,0,0,1-3.375-3.375V5.063A3.375,3.375,0,0,1,5.063,1.688" fill="#4184a9"/>
        <path id="Trazado_169520" data-name="Trazado 169520" d="M6.751,35.443H57.383a1.61,1.61,0,0,0,1.688-1.519V6.751a1.687,1.687,0,0,0-1.688-1.687H6.751A1.687,1.687,0,0,0,5.063,6.751V33.924a1.61,1.61,0,0,0,1.688,1.519" fill="#415e6f"/>
        <path id="Trazado_169521" data-name="Trazado 169521" d="M13.5,45.569h37.13a3.375,3.375,0,0,1,3.376,3.375V52.32H10.127V48.944A3.375,3.375,0,0,1,13.5,45.569" fill="#415e6f"/>
        <path id="Trazado_169522" data-name="Trazado 169522" d="M38.818,45.569l-3.375-6.751H28.692l-3.376,6.751" fill="#415e6f"/>
        <rect id="Rect치ngulo_37554" data-name="Rect치ngulo 37554" width="50.632" height="27.004" transform="translate(6.751 6.751)" fill="#bae1e5"/>
        <path id="Trazado_169523" data-name="Trazado 169523" d="M6.751,6.751V28.692H48.945a3.376,3.376,0,0,0,3.375-3.376V6.751Z" fill="#d9f0f4"/>
        <path id="Trazado_169524" data-name="Trazado 169524" d="M52.274,46.013a3.325,3.325,0,0,0-1.642-.444H13.5a3.375,3.375,0,0,0-3.376,3.376H48.944a3.364,3.364,0,0,0,3.33-2.932" fill="#4184a9"/>
      </g>
    </g>
  </g>
</svg>
