<svg xmlns="http://www.w3.org/2000/svg" xmlns:xlink="http://www.w3.org/1999/xlink" width="400" height="91.065" viewBox="0 0 400 91.065">
  <defs>
    <clipPath id="clip-path">
      <rect id="Rectángulo_38427" data-name="Rectángulo 38427" width="400" height="91.065" fill="none"/>
    </clipPath>
  </defs>
  <g id="Grupo_143610" data-name="Grupo 143610" transform="translate(-1020 -4895.552)">
    <g id="Grupo_112816" data-name="Grupo 112816" transform="translate(1020 4895.552)">
      <path id="Trazado_181774" data-name="Trazado 181774" d="M.969,71.57,1,.968h92.71L100.35,7.61h261.5l10.585,10.585h20.546l6.046,6.046V79.15L388.677,89.5H77.921L65.546,77.128H6.526ZM.031,0,0,71.972,6.125,78.1H65.145L77.52,90.471H389.079l10.778-10.778.142-.141V23.84l-6.615-6.615H372.839L362.4,6.783l-.142-.141h-261.5L94.109,0Z" fill="#8f52f5"/>
      <path id="Trazado_181775" data-name="Trazado 181775" d="M345.2,80.766h6.689v-6.6Z" transform="translate(47.937 10.299)" fill="#8f52f5"/>
      <path id="Trazado_181776" data-name="Trazado 181776" d="M79.823,69.726l5.465,5.465H82.452l-5.43-5.431Z" transform="translate(10.696 9.682)" fill="#8f52f5"/>
      <path id="Trazado_181777" data-name="Trazado 181777" d="M74.883,69.726l5.465,5.465H77.511l-5.43-5.431Z" transform="translate(10.01 9.682)" fill="#8f52f5"/>
      <path id="Trazado_181778" data-name="Trazado 181778" d="M69.942,69.726l5.465,5.465H72.571L67.14,69.76Z" transform="translate(9.323 9.682)" fill="#8f52f5"/>
      <path id="Trazado_181779" data-name="Trazado 181779" d="M83.734,2.065H336.775l4.647,4.647H89.107Z" transform="translate(11.628 0.287)" fill="#8f52f5"/>
      <path id="Trazado_181780" data-name="Trazado 181780" d="M74.668,78.375H17.94L7.7,68.137H64.277Z" transform="translate(1.069 9.462)" fill="#8f52f5"/>
      <path id="Trazado_181781" data-name="Trazado 181781" d="M11.244,6.986,5.433,12.8V64.821l5.12,5.119H90.664L101.11,80.387H381.5l10.135-10.135V28.294l-3.269-3.27H362.13l-12.2-12.2H85.683L79.859,7Z" transform="translate(0.754 0.97)" fill="#e4fdfc"/>
      <g id="Grupo_112810" data-name="Grupo 112810" transform="translate(0 0)">
        <g id="Grupo_112809" data-name="Grupo 112809" clip-path="url(#clip-path)">
          <path id="Trazado_181782" data-name="Trazado 181782" d="M64.539,45.88C58.2,59.164,48.457,62.034,41.385,62.034A24.772,24.772,0,0,1,21.305,51.569,25.082,25.082,0,0,1,18.23,28.784l.492-1.015A24.939,24.939,0,0,1,41.385,12.63,24.772,24.772,0,0,1,61.464,23.1,25.082,25.082,0,0,1,64.539,45.88" transform="translate(2.333 1.754)" fill="#65b1fc"/>
          <path id="Trazado_181783" data-name="Trazado 181783" d="M61.541,45.88C55.207,59.164,45.459,62.034,38.387,62.034V12.63A24.772,24.772,0,0,1,58.466,23.1,25.082,25.082,0,0,1,61.541,45.88" transform="translate(5.331 1.754)" fill="#1689fc"/>
          <path id="Trazado_181784" data-name="Trazado 181784" d="M62.923,22.391a26.037,26.037,0,0,0-45.509,5.258l-.523,1.076c-2.823,8.6-1.724,16.74,3.352,23.923a26.373,26.373,0,0,0,21.34,11.111,26.442,26.442,0,0,0,24.046-16l.461-.922c3.074-8.745,2-17.146-3.167-24.446M22.765,50.865a23.5,23.5,0,0,1-2.86-21.4l.4-.83a23.434,23.434,0,0,1,13.345-12.8c-3.721,4.858-5.965,14.309-5.689,17.384a.91.91,0,0,0-.062.307c-.8,10.3,1.537,20.243,5.935,25.809a23.47,23.47,0,0,1-11.07-8.466m17.281,9.543a8.312,8.312,0,0,1-3.167-2.255c-4.3-4.643-6.673-14.452-5.9-24.384v-.277c0-.092.031-.215.031-.307.892-9.563,4.643-17.107,9.04-18.552Zm3.075-.031V14.632c4.735,1.568,8.7,10.281,9.163,20.674.43,9.594-1.968,18.6-6.119,22.97a7.785,7.785,0,0,1-3.044,2.1m20.141-14.8C59.818,52.833,54.959,57.3,49.332,59.3c4.12-5.2,6.457-14.462,6.027-24.118C54.99,27,52.684,19.951,49.332,15.708A23.312,23.312,0,0,1,63.262,45.576" transform="translate(2.134 1.566)" fill="#96ebe6"/>
          <path id="Trazado_181785" data-name="Trazado 181785" d="M59.727,22.391A26.373,26.373,0,0,0,38.387,11.28V63.759a26.442,26.442,0,0,0,24.046-16l.461-.922c3.074-8.745,2-17.146-3.167-24.446m-19.8,37.986V14.632c4.735,1.568,8.7,10.281,9.163,20.674.43,9.594-1.968,18.6-6.119,22.97a7.785,7.785,0,0,1-3.044,2.1m20.141-14.8C56.621,52.833,51.763,57.3,46.136,59.3c4.12-5.2,6.457-14.462,6.027-24.118C51.794,27,49.488,19.951,46.136,15.708A23.312,23.312,0,0,1,60.065,45.576" transform="translate(5.331 1.566)" fill="#00c8c8"/>
          <path id="Trazado_181786" data-name="Trazado 181786" d="M63.111,24.87H20.062a4.7,4.7,0,0,0-4.715,4.612v12.3a4.7,4.7,0,0,0,4.715,4.612H63.111a4.7,4.7,0,0,0,4.715-4.612v-12.3a4.7,4.7,0,0,0-4.715-4.612" transform="translate(2.131 3.453)" fill="#0053bf"/>
          <path id="Trazado_181787" data-name="Trazado 181787" d="M64.626,29.482v12.3a4.7,4.7,0,0,1-4.715,4.612H38.387V24.87H59.912a4.7,4.7,0,0,1,4.715,4.612" transform="translate(5.331 3.453)" fill="#05377f"/>
          <path id="Trazado_181788" data-name="Trazado 181788" d="M46.858,32.484l-3.075,6.15a1.542,1.542,0,0,1-2.767,0l-1.691-3.382-1.691,3.382a1.613,1.613,0,0,1-2.767,0l-3.075-6.15a1.54,1.54,0,0,1,2.767-1.353l1.691,3.382,1.691-3.382a1.6,1.6,0,0,1,2.767,0L42.4,34.514l1.691-3.382a1.54,1.54,0,1,1,2.767,1.353" transform="translate(4.393 4.203)" fill="#e1f1fa"/>
          <path id="Trazado_181789" data-name="Trazado 181789" d="M55.9,39.495a1.54,1.54,0,0,1-1.376-.85l-1.7-3.4-1.7,3.4a1.6,1.6,0,0,1-2.751,0l-2.945-5.894a1.476,1.476,0,0,1-.335-.842,1.5,1.5,0,0,1,1.388-1.631,1.694,1.694,0,0,1,1.568.84l1.7,3.4,1.7-3.4a1.6,1.6,0,0,1,2.751,0l1.7,3.4,1.7-3.4A1.538,1.538,0,0,1,60.356,32.5l-3.075,6.15a1.54,1.54,0,0,1-1.376.85" transform="translate(6.262 4.203)" fill="#bfe1ff"/>
          <path id="Trazado_181790" data-name="Trazado 181790" d="M32.073,30.273a1.609,1.609,0,0,0-1.475.847l-1.7,3.4-1.7-3.4a1.559,1.559,0,0,0-2.751,0l-1.7,3.4-1.7-3.4A1.538,1.538,0,0,0,18.3,32.5l3.075,6.15a1.539,1.539,0,0,0,2.751,0l1.7-3.4,1.7,3.4a1.539,1.539,0,0,0,2.751,0l2.9-5.792a1.556,1.556,0,0,0-1.1-2.58" transform="translate(2.519 4.203)" fill="#e1f1fa"/>
          <path id="Trazado_181791" data-name="Trazado 181791" d="M45.921,32.484l-3.075,6.15a1.542,1.542,0,0,1-2.767,0l-1.691-3.382v-4.92a1.551,1.551,0,0,1,1.384.8l1.691,3.382,1.691-3.382a1.54,1.54,0,1,1,2.767,1.353" transform="translate(5.331 4.203)" fill="#bfe1ff"/>
        </g>
      </g>
    </g>
    <text id="http:_www.defaultpassword.us" data-name="http://www.defaultpassword.us" transform="translate(1125 4935.532)" fill="#5c379b" font-size="18" font-family="Roboto-Black, Roboto" font-weight="800"><tspan x="0" y="19">http://www.defaultpassword.us</tspan></text>
  </g>
</svg>
