<svg xmlns="http://www.w3.org/2000/svg" xmlns:xlink="http://www.w3.org/1999/xlink" width="108.36" height="108.368" viewBox="0 0 108.36 108.368">
  <defs>
    <clipPath id="clip-path">
      <rect id="Rectángulo_37566" data-name="Rectángulo 37566" width="108.36" height="108.368" fill="none"/>
    </clipPath>
  </defs>
  <g id="Grupo_143583" data-name="Grupo 143583" transform="translate(-475 -5635.738)">
    <g id="Grupo_112126" data-name="Grupo 112126" transform="translate(475 5635.738)">
      <g id="Grupo_112125" data-name="Grupo 112125" transform="translate(0)" clip-path="url(#clip-path)">
        <path id="Trazado_169525" data-name="Trazado 169525" d="M78.468,59.793v7.473A3.737,3.737,0,0,1,74.731,71h-41.1a3.737,3.737,0,0,1-3.736-3.737V59.793a3.737,3.737,0,0,1,3.736-3.737h41.1a3.737,3.737,0,0,1,3.737,3.737" fill="#4184a9"/>
        <path id="Trazado_169526" data-name="Trazado 169526" d="M33.629,41.11h41.1a3.737,3.737,0,0,1,3.737,3.737V52.32a3.737,3.737,0,0,1-3.737,3.736h-41.1a3.737,3.737,0,0,1-3.737-3.736V44.847a3.737,3.737,0,0,1,3.737-3.737" fill="#4184a9"/>
        <path id="Trazado_169527" data-name="Trazado 169527" d="M33.629,26.164h41.1A3.737,3.737,0,0,1,78.468,29.9v7.473a3.737,3.737,0,0,1-3.737,3.736h-41.1a3.737,3.737,0,0,1-3.737-3.736V29.9a3.737,3.737,0,0,1,3.737-3.737" fill="#4184a9"/>
        <path id="Trazado_169528" data-name="Trazado 169528" d="M46.707,71H33.629a3.736,3.736,0,0,1-3.736-3.737V59.792a3.736,3.736,0,0,1,3.736-3.736H46.707a3.737,3.737,0,0,0-3.737,3.736v7.473A3.737,3.737,0,0,0,46.707,71" fill="#415e6f"/>
        <path id="Trazado_169529" data-name="Trazado 169529" d="M46.707,56.056H33.629a3.736,3.736,0,0,1-3.736-3.737V44.846a3.736,3.736,0,0,1,3.736-3.736H46.707a3.737,3.737,0,0,0-3.737,3.736v7.473a3.737,3.737,0,0,0,3.737,3.737" fill="#415e6f"/>
        <path id="Trazado_169530" data-name="Trazado 169530" d="M46.707,41.11H33.629a3.736,3.736,0,0,1-3.736-3.737V29.9a3.736,3.736,0,0,1,3.736-3.736H46.707A3.737,3.737,0,0,0,42.97,29.9v7.473a3.737,3.737,0,0,0,3.737,3.737" fill="#415e6f"/>
        <path id="Trazado_169531" data-name="Trazado 169531" d="M91.546,26.164a16.814,16.814,0,0,1,0,33.629H78.467a3.737,3.737,0,0,0-3.736-3.737,3.736,3.736,0,0,0,3.736-3.736V44.847a3.737,3.737,0,0,0-3.736-3.737,3.736,3.736,0,0,0,3.736-3.736V29.9a3.737,3.737,0,0,0-3.736-3.737h-41.1A3.737,3.737,0,0,0,29.893,29.9v7.473a3.736,3.736,0,0,0,3.736,3.736,3.737,3.737,0,0,0-3.736,3.737V52.32a3.736,3.736,0,0,0,3.736,3.736,3.737,3.737,0,0,0-3.736,3.737H20.551a20.551,20.551,0,1,1,3.362-40.829A33.639,33.639,0,0,1,87.1,26.76,16.653,16.653,0,0,1,91.546,26.164Z" fill="#79f5ed"/>
        <path id="Trazado_169532" data-name="Trazado 169532" d="M54.18.008a33.686,33.686,0,0,1,7.475.834A33.685,33.685,0,0,0,38.86,18.964a20.555,20.555,0,0,0-8.893,40.075,3.818,3.818,0,0,0-.075.754H20.551a20.551,20.551,0,1,1,3.363-40.829A33.628,33.628,0,0,1,54.18.008Z" fill="#62e8db"/>
        <path id="Trazado_169533" data-name="Trazado 169533" d="M84.072,41.11a3.737,3.737,0,0,1,3.737,3.737V52.32a3.737,3.737,0,0,1-3.737,3.736,3.734,3.734,0,0,1,3.734,3.634,17.09,17.09,0,0,1-1.866.1H78.467a3.737,3.737,0,0,0-3.736-3.737,3.736,3.736,0,0,0,3.736-3.736V44.847a3.737,3.737,0,0,0-3.736-3.737,3.737,3.737,0,0,0,3.736-3.737V29.9a3.736,3.736,0,0,0-3.736-3.736s8.853.128,9.941.046a3.739,3.739,0,0,1,3.137,3.69v7.473a3.737,3.737,0,0,1-3.737,3.737" fill="#62e8db"/>
        <rect id="Rectángulo_37556" data-name="Rectángulo 37556" width="22.419" height="3.737" transform="translate(35.497 31.769)" fill="#e01650"/>
        <rect id="Rectángulo_37557" data-name="Rectángulo 37557" width="3.737" height="3.737" transform="translate(61.653 31.769)" fill="#e01650"/>
        <rect id="Rectángulo_37558" data-name="Rectángulo 37558" width="3.737" height="3.737" transform="translate(69.126 31.769)" fill="#e01650"/>
        <rect id="Rectángulo_37559" data-name="Rectángulo 37559" width="22.419" height="3.737" transform="translate(35.497 46.715)" fill="#e01650"/>
        <rect id="Rectángulo_37560" data-name="Rectángulo 37560" width="3.737" height="3.737" transform="translate(61.653 46.715)" fill="#e01650"/>
        <rect id="Rectángulo_37561" data-name="Rectángulo 37561" width="3.737" height="3.737" transform="translate(69.126 46.715)" fill="#e01650"/>
        <rect id="Rectángulo_37562" data-name="Rectángulo 37562" width="22.419" height="3.737" transform="translate(35.497 61.661)" fill="#e01650"/>
        <rect id="Rectángulo_37563" data-name="Rectángulo 37563" width="3.737" height="3.737" transform="translate(61.653 61.661)" fill="#e01650"/>
        <rect id="Rectángulo_37564" data-name="Rectángulo 37564" width="3.737" height="3.737" transform="translate(69.126 61.661)" fill="#e01650"/>
        <rect id="Rectángulo_37565" data-name="Rectángulo 37565" width="3.737" height="24.288" transform="translate(52.312 71.002)" fill="#4184a9"/>
        <path id="Trazado_169534" data-name="Trazado 169534" d="M35.5,84.08H9.341V80.343H33.629V71h3.736v11.21A1.868,1.868,0,0,1,35.5,84.08" fill="#4184a9"/>
        <path id="Trazado_169535" data-name="Trazado 169535" d="M28.024,99.027H24.287V89.686a1.869,1.869,0,0,1,1.869-1.869H41.1V71h3.736V89.686a1.868,1.868,0,0,1-1.868,1.868H28.024Z" fill="#4184a9"/>
        <path id="Trazado_169536" data-name="Trazado 169536" d="M99.019,84.08H72.863A1.868,1.868,0,0,1,71,82.212V71h3.736v9.341H99.019Z" fill="#4184a9"/>
        <path id="Trazado_169537" data-name="Trazado 169537" d="M84.072,99.027H80.335V91.554H65.389a1.868,1.868,0,0,1-1.868-1.868V71h3.737V87.817H82.2a1.868,1.868,0,0,1,1.868,1.869Z" fill="#4184a9"/>
        <path id="Trazado_169538" data-name="Trazado 169538" d="M102.755,76.607a5.6,5.6,0,1,1-5.6,5.6,5.605,5.605,0,0,1,5.6-5.6" fill="#79f5ed"/>
        <path id="Trazado_169539" data-name="Trazado 169539" d="M82.2,97.158a5.6,5.6,0,1,1-5.605,5.605A5.605,5.605,0,0,1,82.2,97.158" fill="#79f5ed"/>
        <path id="Trazado_169540" data-name="Trazado 169540" d="M54.18,93.422a5.605,5.605,0,1,1-5.6,5.605,5.605,5.605,0,0,1,5.6-5.605" fill="#79f5ed"/>
        <path id="Trazado_169541" data-name="Trazado 169541" d="M26.156,97.158a5.6,5.6,0,1,1-5.6,5.605,5.605,5.605,0,0,1,5.6-5.605" fill="#79f5ed"/>
        <path id="Trazado_169542" data-name="Trazado 169542" d="M5.605,76.607A5.6,5.6,0,1,1,0,82.212a5.605,5.605,0,0,1,5.605-5.6" fill="#79f5ed"/>
      </g>
    </g>
  </g>
</svg>
