<svg xmlns="http://www.w3.org/2000/svg" xmlns:xlink="http://www.w3.org/1999/xlink" width="101.76" height="101.76" viewBox="0 0 101.76 101.76">
  <defs>
    <clipPath id="clip-path">
      <rect id="Rectángulo_37576" data-name="Rectángulo 37576" width="101.76" height="101.76" fill="none"/>
    </clipPath>
  </defs>
  <g id="Grupo_143584" data-name="Grupo 143584" transform="translate(-918.24 -5880.076)">
    <g id="Grupo_112128" data-name="Grupo 112128" transform="translate(918.24 5880.076)">
      <g id="Grupo_112127" data-name="Grupo 112127" transform="translate(0)" clip-path="url(#clip-path)">
        <path id="Trazado_169543" data-name="Trazado 169543" d="M71.636,0H3.367A3.367,3.367,0,0,0,0,3.367V71.636A3.367,3.367,0,0,0,3.367,75H71.636A3.368,3.368,0,0,0,75,71.636V3.367A3.368,3.368,0,0,0,71.636,0" transform="translate(0 0)" fill="#415e6f"/>
        <rect id="Rectángulo_37567" data-name="Rectángulo 37567" width="64.098" height="55.608" transform="translate(5.455 13.939)" fill="#fff"/>
        <rect id="Rectángulo_37568" data-name="Rectángulo 37568" width="45.834" height="3.876" transform="translate(5.455 4.838)" fill="#fff"/>
        <path id="Trazado_169544" data-name="Trazado 169544" d="M55.523,4.838a1.939,1.939,0,1,1-1.939,1.939,1.939,1.939,0,0,1,1.939-1.939" transform="translate(0 0)" fill="#fcd462"/>
        <path id="Trazado_169545" data-name="Trazado 169545" d="M61.565,4.838a1.939,1.939,0,1,1-1.939,1.939,1.939,1.939,0,0,1,1.939-1.939" transform="translate(0 0)" fill="#44c4a1"/>
        <path id="Trazado_169546" data-name="Trazado 169546" d="M67.61,4.838a1.939,1.939,0,1,1-1.939,1.939A1.939,1.939,0,0,1,67.61,4.838" transform="translate(0 0)" fill="#e01650"/>
        <rect id="Rectángulo_37569" data-name="Rectángulo 37569" width="47.806" height="25.092" transform="translate(50.117 61.269)" fill="#3a556a"/>
        <path id="Trazado_169547" data-name="Trazado 169547" d="M99.746,46.28H48.294A2.015,2.015,0,0,0,46.28,48.3v13.03a2.016,2.016,0,0,0,2.014,2.019H99.746a2.017,2.017,0,0,0,2.014-2.019V48.3a2.016,2.016,0,0,0-2.014-2.018" transform="translate(0 0)" fill="#4184a9"/>
        <rect id="Rectángulo_37570" data-name="Rectángulo 37570" width="25.081" height="11.002" transform="translate(73.649 49.311)" fill="#79f5ed"/>
        <rect id="Rectángulo_37571" data-name="Rectángulo 37571" width="25.081" height="2.017" transform="translate(73.649 58.296)" fill="#49b7a9"/>
        <path id="Trazado_169548" data-name="Trazado 169548" d="M53.785,51.952a2.861,2.861,0,1,1-2.855,2.861,2.858,2.858,0,0,1,2.855-2.861" transform="translate(0 0)" fill="#e01650"/>
        <path id="Trazado_169549" data-name="Trazado 169549" d="M63.823,51.952a2.861,2.861,0,1,1-2.855,2.861,2.858,2.858,0,0,1,2.855-2.861" transform="translate(0 0)" fill="#fcd462"/>
        <path id="Trazado_169550" data-name="Trazado 169550" d="M99.746,65.487H48.294A2.015,2.015,0,0,0,46.28,67.5v13.03a2.016,2.016,0,0,0,2.014,2.019H99.746a2.017,2.017,0,0,0,2.014-2.019V67.5a2.016,2.016,0,0,0-2.014-2.018" transform="translate(0 0)" fill="#4184a9"/>
        <rect id="Rectángulo_37572" data-name="Rectángulo 37572" width="25.081" height="11.001" transform="translate(73.649 68.518)" fill="#79f5ed"/>
        <rect id="Rectángulo_37573" data-name="Rectángulo 37573" width="25.081" height="2.017" transform="translate(73.649 77.507)" fill="#49b7a9"/>
        <path id="Trazado_169551" data-name="Trazado 169551" d="M53.785,71.159A2.861,2.861,0,1,1,50.93,74.02a2.858,2.858,0,0,1,2.855-2.861" transform="translate(0 0)" fill="#e01650"/>
        <path id="Trazado_169552" data-name="Trazado 169552" d="M63.823,71.159a2.861,2.861,0,1,1-2.855,2.861,2.858,2.858,0,0,1,2.855-2.861" transform="translate(0 0)" fill="#fcd462"/>
        <path id="Trazado_169553" data-name="Trazado 169553" d="M99.746,84.693H48.294a2.016,2.016,0,0,0-2.014,2.018v13.03a2.016,2.016,0,0,0,2.014,2.019H99.746a2.017,2.017,0,0,0,2.014-2.019V86.711a2.017,2.017,0,0,0-2.014-2.018" transform="translate(0 0)" fill="#4184a9"/>
        <rect id="Rectángulo_37574" data-name="Rectángulo 37574" width="25.081" height="11.001" transform="translate(73.649 87.726)" fill="#79f5ed"/>
        <rect id="Rectángulo_37575" data-name="Rectángulo 37575" width="25.081" height="2.017" transform="translate(73.649 96.714)" fill="#49b7a9"/>
        <path id="Trazado_169554" data-name="Trazado 169554" d="M53.785,90.366a2.861,2.861,0,1,1-2.855,2.861,2.858,2.858,0,0,1,2.855-2.861" transform="translate(0 0)" fill="#e01650"/>
        <path id="Trazado_169555" data-name="Trazado 169555" d="M63.823,90.366a2.861,2.861,0,1,1-2.855,2.861,2.858,2.858,0,0,1,2.855-2.861" transform="translate(0 0)" fill="#fcd462"/>
        <path id="Trazado_169556" data-name="Trazado 169556" d="M8.415,33.3A16.007,16.007,0,0,0,24.422,49.311V17.3A16.007,16.007,0,0,0,8.415,33.3" transform="translate(0 0)" fill="#79f5ed"/>
        <path id="Trazado_169557" data-name="Trazado 169557" d="M24.423,17.3V49.312a16.007,16.007,0,1,0,0-32.015" transform="translate(0 0)" fill="#62e8db"/>
        <path id="Trazado_169558" data-name="Trazado 169558" d="M20.5,42.718l-.1,0a2.314,2.314,0,0,1-1.66-.814L13.6,35.849a2.314,2.314,0,1,1,3.527-2.995l3.527,4.154,11.21-11.025a2.314,2.314,0,0,1,3.245,3.3L22.122,42.054a2.317,2.317,0,0,1-1.623.664" transform="translate(0 0)" fill="#49b7a9"/>
        <path id="Trazado_169559" data-name="Trazado 169559" d="M20.5,41.291l-.1,0a2.311,2.311,0,0,1-1.66-.815L13.6,34.422a2.314,2.314,0,1,1,3.527-3l3.527,4.154,11.21-11.025a2.314,2.314,0,0,1,3.245,3.3L22.122,40.627a2.317,2.317,0,0,1-1.623.664" transform="translate(0 0)" fill="#fff"/>
      </g>
    </g>
  </g>
</svg>
