<svg xmlns="http://www.w3.org/2000/svg" width="289.882" height="196.646" viewBox="0 0 289.882 196.646">
  <g id="Grupo_143651" data-name="Grupo 143651" transform="translate(-1130.118 -6896.354)">
    <g id="Grupo_143517" data-name="Grupo 143517" transform="translate(1156.795 6917.872)">
      <path id="Trazado_188206" data-name="Trazado 188206" d="M688.349,109.038l-7.191,7.041v58.34h-5.342V.607L688.349.472Z" transform="translate(-675.816 0)" fill="#5c379b"/>
      <path id="Trazado_188205" data-name="Trazado 188205" d="M449.4,26.281l11.733-13.274H678.19L688.2,24.329V162.15l-3.106,3.514H455.268l-8.109-9.175V127.011l2.243-2.538Z" transform="translate(-431.34 0)" fill="#e7defc"/>
      <g id="Rectángulo_39464" data-name="Rectángulo 39464" transform="translate(-0.795 0.128)" fill="none" stroke="#5c379b" stroke-width="2">
        <rect width="264" height="175" stroke="none"/>
        <rect x="1" y="1" width="262" height="173" fill="none"/>
      </g>
    </g>
    <text id="Utilice_un_software_antivirus_de_confianza." data-name="Utilice un software antivirus de confianza." transform="translate(1198 6981.685)" fill="#12263f" font-size="16" font-family="Roboto-Regular, Roboto"><tspan x="30.426" y="17">Utilice un</tspan><tspan y="17" xml:space="preserve" font-family="Roboto-Italic, Roboto" font-style="italic"> software</tspan><tspan y="17"> </tspan><tspan x="16.129" y="41">antivirus de confianza.</tspan></text>
    <g id="Grupo_143438" data-name="Grupo 143438" transform="translate(1120.904 6887.14)">
      <g id="Grupo_20664" data-name="Grupo 20664" transform="translate(0 0)">
        <path id="Trazado_99077" data-name="Trazado 99077" d="M30.441,0A30.441,30.441,0,1,1,0,30.441,30.441,30.441,0,0,1,30.441,0Z" transform="translate(9.214 9.214)" fill="#5c379b"/>
        <text id="_4" data-name="4" transform="translate(30 21.155)" fill="#fff" font-size="30" font-family="Roboto-Black, Roboto" font-weight="800"><tspan x="0" y="31">4</tspan></text>
      </g>
    </g>
  </g>
</svg>
