<svg xmlns="http://www.w3.org/2000/svg" xmlns:xlink="http://www.w3.org/1999/xlink" width="400" height="235.116" viewBox="0 0 400 235.116">
  <defs>
    <clipPath id="clip-path">
      <rect id="Rectángulo_39485" data-name="Rectángulo 39485" width="222.48" height="213.861" fill="none"/>
    </clipPath>
  </defs>
  <g id="Grupo_143650" data-name="Grupo 143650" transform="translate(-1020 -5869)">
    <g id="Image_Place_Holder" data-name="Image Place Holder" transform="translate(1020 5905.025)">
      <rect id="Image_Place_Holder-2" data-name="Image Place Holder" width="400" height="199.091" rx="10" fill="#ffd8e3"/>
    </g>
    <g id="Grupo_143548" data-name="Grupo 143548" transform="translate(1112.52 5869)">
      <g id="Grupo_143548-2" data-name="Grupo 143548" clip-path="url(#clip-path)">
        <path id="Trazado_189101" data-name="Trazado 189101" d="M177.242,118.128h-5.411A42.96,42.96,0,0,0,136.96,59.909V87.243a1.514,1.514,0,0,0,1.512,1.512h4.447a.772.772,0,0,1,.6,1.261l-12.445,15.241a.774.774,0,0,1-1.2,0L117.43,90.016a.772.772,0,0,1,.6-1.261h4.447a1.515,1.515,0,0,0,1.512-1.512V60.309a42.915,42.915,0,0,0-25.5,15.113v30.01a.774.774,0,0,1-.773.773H86.294a.774.774,0,0,1-.773-.773V83.012a31.733,31.733,0,0,0-39.355,35.116h-.928a28.642,28.642,0,0,0,0,57.285h13.3V165.3a1.536,1.536,0,0,1,1.535-1.534H162.412a1.536,1.536,0,0,1,1.534,1.534v10.11h13.3a28.642,28.642,0,1,0,0-57.285Z" fill="#c8effe"/>
        <path id="Trazado_189102" data-name="Trazado 189102" d="M85.151,82.919a31.733,31.733,0,0,0-38.985,35.209h-.514c-15.607,0-28.656,12.316-29.047,27.917A28.726,28.726,0,0,0,33.714,172.97a28.4,28.4,0,0,1-3.436-13.953,28.861,28.861,0,0,1,27.886-28.225v-5.578a1.9,1.9,0,0,1,1.525-1.866,31.776,31.776,0,0,1,25.462-28.1Z" fill="#99e6fc"/>
        <path id="Trazado_189103" data-name="Trazado 189103" d="M123.618,60.375a42.915,42.915,0,0,0-24.756,14.6V95.564a31.436,31.436,0,0,1,4.037,1.28,3.67,3.67,0,0,0,4.574-1.713,43.171,43.171,0,0,1,16.145-16.925Z" fill="#99e6fc"/>
        <path id="Trazado_189104" data-name="Trazado 189104" d="M137.329,59.954V73.011a42.995,42.995,0,0,1,29.753,5.052A42.944,42.944,0,0,0,137.329,59.954Z" fill="#99e6fc"/>
        <path id="Rectángulo_39483" data-name="Rectángulo 39483" d="M1.9,0H104.248a1.9,1.9,0,0,1,1.9,1.9V26.758a1.9,1.9,0,0,1-1.9,1.9H1.9a1.9,1.9,0,0,1-1.9-1.9V1.9A1.9,1.9,0,0,1,1.9,0Z" transform="translate(58.164 123.31)" fill="#8d9ca8"/>
        <path id="Trazado_189105" data-name="Trazado 189105" d="M81.642,150.069V125.214a1.9,1.9,0,0,1,1.9-1.9H60.069a1.9,1.9,0,0,0-1.9,1.9v24.855a1.9,1.9,0,0,0,1.9,1.9H83.546a1.9,1.9,0,0,1-1.9-1.9" fill="#7a8c98"/>
        <path id="Trazado_189106" data-name="Trazado 189106" d="M152.351,140.414H139.465a2.773,2.773,0,0,1,0-5.546h12.886a2.773,2.773,0,0,1,0,5.546" fill="#fac600"/>
        <path id="Trazado_189107" data-name="Trazado 189107" d="M70.129,143.175a2.772,2.772,0,0,1-2.773-2.773V134.88a2.773,2.773,0,1,1,5.546,0V140.4a2.773,2.773,0,0,1-2.773,2.773" fill="#465a61"/>
        <path id="Trazado_189108" data-name="Trazado 189108" d="M81.174,143.175A2.772,2.772,0,0,1,78.4,140.4V134.88a2.773,2.773,0,1,1,5.546,0V140.4a2.773,2.773,0,0,1-2.773,2.773" fill="#465a61"/>
        <path id="Trazado_189109" data-name="Trazado 189109" d="M92.219,143.175a2.772,2.772,0,0,1-2.773-2.773V134.88a2.773,2.773,0,1,1,5.546,0V140.4a2.773,2.773,0,0,1-2.773,2.773" fill="#465a61"/>
        <path id="Trazado_189110" data-name="Trazado 189110" d="M103.263,143.175a2.772,2.772,0,0,1-2.773-2.773V134.88a2.773,2.773,0,1,1,5.546,0V140.4a2.773,2.773,0,0,1-2.773,2.773" fill="#465a61"/>
        <path id="Trazado_189111" data-name="Trazado 189111" d="M130.78,134.868a2.773,2.773,0,1,1-2.773,2.773,2.773,2.773,0,0,1,2.773-2.773" fill="#fac600"/>
        <path id="Trazado_189112" data-name="Trazado 189112" d="M123.163,134.868a2.773,2.773,0,1,1-2.773,2.773,2.773,2.773,0,0,1,2.773-2.773" fill="#fff"/>
        <path id="Trazado_189113" data-name="Trazado 189113" d="M115.546,134.868a2.773,2.773,0,1,1-2.773,2.773,2.773,2.773,0,0,1,2.773-2.773" fill="#fff"/>
        <path id="Rectángulo_39484" data-name="Rectángulo 39484" d="M1.9,0H104.248a1.9,1.9,0,0,1,1.9,1.9V26.758a1.9,1.9,0,0,1-1.9,1.9H1.9a1.9,1.9,0,0,1-1.9-1.9V1.9A1.9,1.9,0,0,1,1.9,0Z" transform="translate(58.164 163.399)" fill="#8d9ca8"/>
        <path id="Trazado_189114" data-name="Trazado 189114" d="M81.642,190.158V165.3a1.9,1.9,0,0,1,1.9-1.9H60.069a1.9,1.9,0,0,0-1.9,1.9v24.855a1.9,1.9,0,0,0,1.9,1.9H83.546a1.9,1.9,0,0,1-1.9-1.9" fill="#7a8c98"/>
        <path id="Trazado_189115" data-name="Trazado 189115" d="M152.351,180.5H139.465a2.773,2.773,0,0,1,0-5.546h12.886a2.773,2.773,0,0,1,0,5.546" fill="#fac600"/>
        <path id="Trazado_189116" data-name="Trazado 189116" d="M70.129,183.265a2.772,2.772,0,0,1-2.773-2.773V174.97a2.773,2.773,0,0,1,5.546,0v5.522a2.773,2.773,0,0,1-2.773,2.773" fill="#465a61"/>
        <path id="Trazado_189117" data-name="Trazado 189117" d="M81.174,183.265a2.772,2.772,0,0,1-2.773-2.773V174.97a2.773,2.773,0,0,1,5.546,0v5.522a2.773,2.773,0,0,1-2.773,2.773" fill="#465a61"/>
        <path id="Trazado_189118" data-name="Trazado 189118" d="M92.219,183.265a2.772,2.772,0,0,1-2.773-2.773V174.97a2.773,2.773,0,0,1,5.546,0v5.522a2.773,2.773,0,0,1-2.773,2.773" fill="#465a61"/>
        <path id="Trazado_189119" data-name="Trazado 189119" d="M103.263,183.265a2.772,2.772,0,0,1-2.773-2.773V174.97a2.773,2.773,0,0,1,5.546,0v5.522a2.773,2.773,0,0,1-2.773,2.773" fill="#465a61"/>
        <path id="Trazado_189120" data-name="Trazado 189120" d="M130.78,174.958a2.773,2.773,0,1,1-2.773,2.773,2.773,2.773,0,0,1,2.773-2.773" fill="#fac600"/>
        <path id="Trazado_189121" data-name="Trazado 189121" d="M123.163,174.958a2.773,2.773,0,1,1-2.773,2.773,2.773,2.773,0,0,1,2.773-2.773" fill="#fac600"/>
        <path id="Trazado_189122" data-name="Trazado 189122" d="M115.546,174.958a2.773,2.773,0,1,1-2.773,2.773,2.773,2.773,0,0,1,2.773-2.773" fill="#fff"/>
        <path id="Trazado_189123" data-name="Trazado 189123" d="M105.337,47.107,92.892,31.867a1.143,1.143,0,0,0-1.771,0L78.676,47.107a1.143,1.143,0,0,0,.885,1.865h4.447a1.143,1.143,0,0,1,1.143,1.143v55.317a1.143,1.143,0,0,0,1.143,1.143H97.72a1.142,1.142,0,0,0,1.142-1.143V50.115A1.143,1.143,0,0,1,100,48.972h4.447A1.143,1.143,0,0,0,105.337,47.107Z" fill="#a7f"/>
        <path id="Trazado_189124" data-name="Trazado 189124" d="M87.125,43.254h-5.3l-3.146,3.853a1.143,1.143,0,0,0,.885,1.865h4.448a1.143,1.143,0,0,1,1.143,1.143v55.317a1.142,1.142,0,0,0,1.142,1.142h4.64V47.062A3.81,3.81,0,0,0,87.125,43.254Z" fill="#8f52f5"/>
        <path id="Trazado_189125" data-name="Trazado 189125" d="M117.143,90.25l12.445,15.241a1.145,1.145,0,0,0,1.771,0L143.8,90.25a1.143,1.143,0,0,0-.885-1.865h-4.447a1.143,1.143,0,0,1-1.143-1.142V31.926a1.143,1.143,0,0,0-1.143-1.143H124.76a1.142,1.142,0,0,0-1.142,1.143V87.243a1.143,1.143,0,0,1-1.143,1.142h-4.447A1.143,1.143,0,0,0,117.143,90.25Z" fill="#ff93b2"/>
        <path id="Trazado_189126" data-name="Trazado 189126" d="M120.432,94.278h5.16a3.808,3.808,0,0,0,3.808-3.809V30.783h-4.639a1.142,1.142,0,0,0-1.143,1.142V87.243a1.142,1.142,0,0,1-1.143,1.142h-4.447a1.142,1.142,0,0,0-.885,1.865Z" fill="#ff5082"/>
      </g>
    </g>
  </g>
</svg>
