<svg xmlns="http://www.w3.org/2000/svg" xmlns:xlink="http://www.w3.org/1999/xlink" width="85.68" height="93.494" viewBox="0 0 85.68 93.494">
  <defs>
    <clipPath id="clip-path">
      <rect id="Rectángulo_37584" data-name="Rectángulo 37584" width="85.68" height="93.494" fill="none"/>
    </clipPath>
  </defs>
  <g id="Grupo_143587" data-name="Grupo 143587" transform="translate(-495 -6699.761)">
    <g id="Grupo_112133" data-name="Grupo 112133" transform="translate(495 6699.761)">
      <g id="Grupo_112132" data-name="Grupo 112132" transform="translate(0)" clip-path="url(#clip-path)">
        <path id="Trazado_169568" data-name="Trazado 169568" d="M74.552,40.267v-.025C74.553,34.854,60.355,0,42.84,0S11.127,34.854,11.127,40.242l0,.025,0,.025c0,5.019,21.383,31.4,31.713,31.4,10.109,0,31.713-26.38,31.713-31.4v-.026Z" transform="translate(0 0)" fill="#415e6f"/>
        <path id="Trazado_169569" data-name="Trazado 169569" d="M64.029,39.554h-3.6V29.109h3.6a3.36,3.36,0,0,1,3.361,3.36v3.724a3.361,3.361,0,0,1-3.361,3.361" transform="translate(0 0)" fill="#f4c892"/>
        <path id="Trazado_169570" data-name="Trazado 169570" d="M21.651,39.554h3.6V29.109h-3.6a3.36,3.36,0,0,0-3.361,3.36v3.724a3.361,3.361,0,0,0,3.361,3.361" transform="translate(0 0)" fill="#f4c892"/>
        <path id="Trazado_169571" data-name="Trazado 169571" d="M55.109,58.155,52.836,57.7a3.452,3.452,0,0,1-2.772-3.384V51.041H35.2V54.4a3.45,3.45,0,0,1-2.772,3.384l-1.859.374v12.5H55.109Z" transform="translate(0 0)" fill="#fed9a8"/>
        <path id="Trazado_169572" data-name="Trazado 169572" d="M42.84,53.5h0A19.426,19.426,0,0,1,23.414,34.078v-5.46a19.426,19.426,0,1,1,38.852,0v5.46A19.426,19.426,0,0,1,42.84,53.5" transform="translate(0 0)" fill="#fed9a8"/>
        <path id="Trazado_169573" data-name="Trazado 169573" d="M42.84,9.193h0a19.461,19.461,0,0,0-5.067.669A19.434,19.434,0,0,1,52.132,28.619v5.46A19.435,19.435,0,0,1,37.773,52.836,19.437,19.437,0,0,0,62.266,34.079v-5.46A19.426,19.426,0,0,0,42.84,9.193" transform="translate(0 0)" fill="#f4ce9f"/>
        <path id="Trazado_169574" data-name="Trazado 169574" d="M42.84,29.195c17.486,0,31.665,6.059,31.712,11.072v-.026C74.553,34.854,60.355,0,42.84,0S11.127,34.854,11.127,40.241v.026c.047-5.013,14.226-11.072,31.712-11.072" transform="translate(0 0)" fill="#5498c8"/>
        <path id="Trazado_169575" data-name="Trazado 169575" d="M42.84,0A14.248,14.248,0,0,0,38.3.768C49.609,4.554,58.993,21.5,63.156,32.135c6.944,2.214,11.37,5.336,11.4,8.132v-.026C74.553,34.854,60.355,0,42.84,0" transform="translate(0 0)" fill="#415e6f"/>
        <path id="Trazado_169576" data-name="Trazado 169576" d="M85.663,91.373c-.845-6.21-4.277-24.219-16.067-28.95L56.148,58.23H29.532L16.085,62.423C4.3,67.154.862,85.162.018,91.373a1.87,1.87,0,0,0,1.855,2.12H83.808a1.87,1.87,0,0,0,1.855-2.12" transform="translate(0 0)" fill="#5498c8"/>
        <path id="Trazado_169577" data-name="Trazado 169577" d="M85.663,91.373c-.845-6.21-4.277-24.219-16.067-28.95L56.148,58.23H45.794l13.448,4.193c14.317,5.745,16.31,31.07,16.31,31.07h8.256a1.87,1.87,0,0,0,1.855-2.12" transform="translate(0 0)" fill="#415e6f"/>
        <path id="Trazado_169578" data-name="Trazado 169578" d="M69.426,57.55H16.253a3.2,3.2,0,0,0-3.2,3.195v30.3H72.621v-30.3a3.2,3.2,0,0,0-3.195-3.195" transform="translate(0 0)" fill="#cfcfcf"/>
        <path id="Trazado_169579" data-name="Trazado 169579" d="M69.427,57.55H59.292a3.2,3.2,0,0,1,3.2,3.195v30.3H72.622v-30.3a3.2,3.2,0,0,0-3.195-3.195" transform="translate(0 0)" fill="#c2c4c6"/>
        <path id="Trazado_169580" data-name="Trazado 169580" d="M74.544,88.668H11.136a2.177,2.177,0,0,0-2.177,2.177v.471a2.176,2.176,0,0,0,2.177,2.177H74.544a2.177,2.177,0,0,0,2.177-2.177v-.471a2.177,2.177,0,0,0-2.177-2.177" transform="translate(0 0)" fill="#9c9da0"/>
        <path id="Trazado_169581" data-name="Trazado 169581" d="M74.544,88.668h-8.02v4.825h8.02a2.177,2.177,0,0,0,2.177-2.177v-.471a2.177,2.177,0,0,0-2.177-2.177" transform="translate(0 0)" fill="#8d8f93"/>
        <path id="Trazado_169582" data-name="Trazado 169582" d="M42.84,69.91a4.47,4.47,0,1,1-4.471,4.471A4.471,4.471,0,0,1,42.84,69.91" transform="translate(0 0)" fill="#fff"/>
        <path id="Trazado_169583" data-name="Trazado 169583" d="M47.679,34.326a12.425,12.425,0,0,0-9.678,0l.632,1.291c.072.146.151.287.234.426a10.564,10.564,0,0,1,7.966.01c.338-.691.508-1.036.846-1.727" transform="translate(0 0)" fill="#4d4d4d"/>
        <path id="Trazado_169584" data-name="Trazado 169584" d="M62.266,34.078V33.062H55.589V34.5c0,.162.009.324.022.485h6.634c.013-.3.021-.6.021-.907" transform="translate(0 0)" fill="#4d4d4d"/>
        <path id="Trazado_169585" data-name="Trazado 169585" d="M23.414,33.062v1.016c0,.3.01.606.023.907h6.654V33.062Z" transform="translate(0 0)" fill="#4d4d4d"/>
        <path id="Trazado_169586" data-name="Trazado 169586" d="M37.268,39.315h-7.2a1.436,1.436,0,0,1-1.435-1.435v-4.1a1.436,1.436,0,0,1,1.435-1.435h8.969a1.436,1.436,0,0,1,1.436,1.435v2.323a3.209,3.209,0,0,1-3.209,3.209" transform="translate(0 0)" fill="#4d4d4d"/>
        <path id="Trazado_169587" data-name="Trazado 169587" d="M48.412,39.315h7.2a1.436,1.436,0,0,0,1.435-1.435v-4.1a1.436,1.436,0,0,0-1.435-1.435H46.639A1.436,1.436,0,0,0,45.2,33.783v2.323a3.209,3.209,0,0,0,3.209,3.209" transform="translate(0 0)" fill="#4d4d4d"/>
        <path id="Trazado_169588" data-name="Trazado 169588" d="M55.608,32.348H46.9v6.586a3.193,3.193,0,0,0,1.517.381h7.2a1.434,1.434,0,0,0,1.435-1.435v-4.1a1.435,1.435,0,0,0-1.435-1.435" transform="translate(0 0)" fill="#353535"/>
        <path id="Trazado_169589" data-name="Trazado 169589" d="M39.041,32.348H30.324v6.967h6.944a3.208,3.208,0,0,0,3.208-3.209V33.783a1.435,1.435,0,0,0-1.435-1.435" transform="translate(0 0)" fill="#353535"/>
      </g>
    </g>
  </g>
</svg>
