<svg xmlns="http://www.w3.org/2000/svg" width="119.931" height="119.93" viewBox="0 0 119.931 119.93">
  <g id="Grupo_143597" data-name="Grupo 143597" transform="translate(-7620 5729.614)">
    <path id="Trazado_187940" data-name="Trazado 187940" d="M117.431,359.682a52.8,52.8,0,1,0-52.8,52.8,52.8,52.8,0,0,0,52.8-52.8" transform="translate(7620 -6034)" fill="#fff"/>
    <path id="Trazado_187941" data-name="Trazado 187941" d="M117.431,359.682a52.8,52.8,0,1,0-52.8,52.8A52.8,52.8,0,0,0,117.431,359.682Z" transform="translate(7620 -6034)" fill="none" stroke="#5c379b" stroke-miterlimit="10" stroke-width="1"/>
    <path id="Trazado_187942" data-name="Trazado 187942" d="M105.342,393.3a52.815,52.815,0,0,0-59.281-83.06" transform="translate(7620 -6034)" fill="none" stroke="#a7f" stroke-miterlimit="10" stroke-width="5"/>
    <path id="Trazado_187943" data-name="Trazado 187943" d="M5.853,339.5A62.187,62.187,0,0,0,75.2,420.922" transform="translate(7620 -6034)" fill="none" stroke="#5c379b" stroke-miterlimit="10" stroke-width="5"/>
    <path id="Trazado_188010" data-name="Trazado 188010" d="M51.545,380.735v1.4a1.707,1.707,0,0,0,1.016,1.411l9.883,5.752a5.368,5.368,0,0,0,4.856,0l12.517-7.232a1.653,1.653,0,0,0,1-1.412v-1.412a1.729,1.729,0,0,1-1,1.429L67.3,387.88a5.345,5.345,0,0,1-4.873,0l-9.883-5.733a1.729,1.729,0,0,1-1-1.412" transform="translate(7620 -6034)" fill="#4c5671"/>
    <path id="Trazado_188011" data-name="Trazado 188011" d="M52.555,379.317c-1.352.781-1.348,2.044-.005,2.824l9.884,5.744a5.362,5.362,0,0,0,4.865,0l12.511-7.222c1.341-.775,1.348-2.044.015-2.818L69.941,372.1a5.391,5.391,0,0,0-4.876-.006Z" transform="translate(7620 -6034)" fill="#9da9c1"/>
    <path id="Trazado_188012" data-name="Trazado 188012" d="M62.553,370.661l.041,13.546,8.864-5.118-.041-13.546Z" transform="translate(7620 -6034)" fill="#4c5671"/>
    <path id="Trazado_188013" data-name="Trazado 188013" d="M60.942,369.731l.047,13.541,1.61.931-.047-13.541,8.868-5.113-1.61-.946Z" transform="translate(7620 -6034)" fill="#373f51"/>
    <path id="Trazado_188014" data-name="Trazado 188014" d="M42.495,357.933a3.663,3.663,0,0,1,1.655-2.874L86.9,330.378c.92-.53,1.663-.1,1.666.958l.072,27.535-46.068,26.6Z" transform="translate(7620 -6034)" fill="#5793fb"/>
    <path id="Trazado_188015" data-name="Trazado 188015" d="M88.635,358.871l.009,3.658a3.648,3.648,0,0,1-1.655,2.866L44.242,390.076c-.913.526-1.663.1-1.666-.949l-.009-3.659Z" transform="translate(7620 -6034)" fill="#d3dbea"/>
    <path id="Trazado_188016" data-name="Trazado 188016" d="M66.817,372.894a2.674,2.674,0,0,0-1.212,2.1c0,.774.545,1.084,1.22.695a2.672,2.672,0,0,0,1.211-2.1c0-.767-.552-1.08-1.219-.695" transform="translate(7620 -6034)" fill="#9da9c1"/>
    <path id="Trazado_188017" data-name="Trazado 188017" d="M40.625,356.842a3.633,3.633,0,0,1,1.652-2.869l42.742-24.68a1.17,1.17,0,0,1,1.183-.117l1.869,1.089a1.15,1.15,0,0,0-1.172.117l-42.754,24.68a3.667,3.667,0,0,0-1.651,2.871l.073,27.534L40.7,384.389Z" transform="translate(7620 -6034)" fill="#4c5671"/>
    <path id="Trazado_188018" data-name="Trazado 188018" d="M42.567,385.467l.009,3.662a1.16,1.16,0,0,0,.48,1.054l-1.868-1.089a1.145,1.145,0,0,1-.481-1.054l-.009-3.651Z" transform="translate(7620 -6034)" fill="#9da9c1"/>
    <path id="Trazado_188019" data-name="Trazado 188019" d="M71.114,339.491l17.514,16.9.007,2.485L76.78,365.715,57.652,347.264Z" transform="translate(7620 -6034)" fill="#7bb1ff"/>
    <path id="Trazado_188020" data-name="Trazado 188020" d="M54.158,349.281l19.128,18.451-7.2,4.157L46.958,353.437Z" transform="translate(7620 -6034)" fill="#7bb1ff"/>
  </g>
</svg>
