<svg xmlns="http://www.w3.org/2000/svg" width="119.931" height="119.93" viewBox="0 0 119.931 119.93">
  <g id="Grupo_143601" data-name="Grupo 143601" transform="translate(-7620 5091.9)">
    <path id="Trazado_187960" data-name="Trazado 187960" d="M117.431,997.4a52.8,52.8,0,1,0-52.8,52.8,52.8,52.8,0,0,0,52.8-52.8" transform="translate(7620 -6034)" fill="#fff"/>
    <path id="Trazado_187961" data-name="Trazado 187961" d="M117.431,997.4a52.8,52.8,0,1,0-52.8,52.8A52.8,52.8,0,0,0,117.431,997.4Z" transform="translate(7620 -6034)" fill="none" stroke="#5c379b" stroke-miterlimit="10" stroke-width="1"/>
    <path id="Trazado_187962" data-name="Trazado 187962" d="M105.342,1031.019a52.815,52.815,0,0,0-59.281-83.06" transform="translate(7620 -6034)" fill="none" stroke="#a7f" stroke-miterlimit="10" stroke-width="5"/>
    <path id="Trazado_187963" data-name="Trazado 187963" d="M5.853,977.21A62.186,62.186,0,0,0,75.2,1058.636" transform="translate(7620 -6034)" fill="none" stroke="#5c379b" stroke-miterlimit="10" stroke-width="5"/>
    <path id="Trazado_188194" data-name="Trazado 188194" d="M80.646,981.492h-.005a2.429,2.429,0,0,0-1.481-2.073l-8.53-4.925a7.12,7.12,0,0,0-5.125-.638c-11.751,3.306-21.061,8.682-26.788,15.466a1.521,1.521,0,0,0-.371.843h0v.029c-.006.077,0,27.092,0,27.092a1.371,1.371,0,0,0,0,.231v.01a2.621,2.621,0,0,0,1.478,1.846l8.531,4.924a7.12,7.12,0,0,0,5.125.638c11.75-3.306,21.061-8.681,26.788-15.466a1.465,1.465,0,0,0,.364-1.175l.017,0Z" transform="translate(7620 -6034)" fill="#ffd800"/>
    <path id="Trazado_188195" data-name="Trazado 188195" d="M65.5,973.857a7.12,7.12,0,0,1,5.125.638l8.531,4.925c1.437.83,1.886,2.033,1.1,2.959-5.727,6.784-15.038,12.159-26.789,15.466a7.126,7.126,0,0,1-5.125-.638l-8.53-4.925c-1.437-.83-1.887-2.033-1.1-2.959,5.727-6.784,15.038-12.159,26.788-15.466" transform="translate(7620 -6034)" fill="#dca700"/>
    <path id="Trazado_188196" data-name="Trazado 188196" d="M38.342,990.4c0,2.506,0,26.884,0,26.884a1.359,1.359,0,0,0,0,.23v.011a2.62,2.62,0,0,0,1.478,1.845l8.531,4.925V997.207l-8.531-4.925a2.587,2.587,0,0,1-1.479-1.878" transform="translate(7620 -6034)" fill="#f0c419"/>
    <path id="Trazado_188197" data-name="Trazado 188197" d="M49.464,994.259a3.232,3.232,0,0,1-3.232-3.232V986.9a23.511,23.511,0,0,1,11.723-20.3A10.829,10.829,0,0,1,74.2,975.972v2.64a3.232,3.232,0,0,1-6.465,0v-2.64a4.365,4.365,0,0,0-6.547-3.781A17.029,17.029,0,0,0,52.7,986.9v4.129a3.232,3.232,0,0,1-3.232,3.232" transform="translate(7620 -6034)" fill="#e9e9e9"/>
    <path id="Trazado_188198" data-name="Trazado 188198" d="M87.638,992.631l-.016-.009c-.1-.06-.191-.116-.29-.167L84.806,991v0c-1.474-.883-3.409-.82-5.529.4-4.619,2.666-8.362,9.819-8.362,15.977,0,3.4,1.139,5.776,2.935,6.784v0l2.693,1.549v0c1.467.849,3.38.774,5.474-.436,4.619-2.666,8.362-9.819,8.362-15.977,0-3.272-1.057-5.6-2.74-6.672" transform="translate(7620 -6034)" fill="#a7f"/>
    <path id="Trazado_188199" data-name="Trazado 188199" d="M90.378,999.3c0,6.158-3.744,13.311-8.362,15.977s-8.362-.164-8.362-6.321,3.744-13.311,8.362-15.978,8.362.164,8.362,6.322" transform="translate(7620 -6034)" fill="#d2b7ff"/>
    <path id="Trazado_188200" data-name="Trazado 188200" d="M80.635,1012.079a1.2,1.2,0,0,1-1.365.034l-3.473-2.626c-.754-.57-.754-2.2,0-3.639s1.975-2.145,2.729-1.575l2.109,1.594,4.457-8.515c.753-1.44,1.975-2.146,2.729-1.576s.753,2.2,0,3.639L82,1010.537a3.8,3.8,0,0,1-1.364,1.542" transform="translate(7620 -6034)" fill="#fff"/>
  </g>
</svg>
