<svg xmlns="http://www.w3.org/2000/svg" xmlns:xlink="http://www.w3.org/1999/xlink" width="184.83" height="157.848" viewBox="0 0 184.83 157.848">
  <defs>
    <clipPath id="clip-path">
      <rect id="Rect치ngulo_39342" data-name="Rect치ngulo 39342" width="184.83" height="157.848" fill="none"/>
    </clipPath>
  </defs>
  <g id="Grupo_143652" data-name="Grupo 143652" transform="translate(-1045.17 -7191.576)">
    <g id="Grupo_143441" data-name="Grupo 143441" transform="translate(1045.17 7191.576)">
      <g id="Grupo_143440" data-name="Grupo 143440" clip-path="url(#clip-path)">
        <path id="Trazado_188207" data-name="Trazado 188207" d="M130.73,67.977A32.878,32.878,0,0,1,97.889,35.136a32.385,32.385,0,0,1,.378-4.7,43.8,43.8,0,0,1-6.58-4.056L81.468,18.715,71.252,26.378a43.8,43.8,0,0,1-26.273,8.758H26.733V80.011a71.152,71.152,0,0,0,44.73,66.065l10.005,4,10.006-4A71.161,71.161,0,0,0,136.2,80.011V67.482A32.821,32.821,0,0,1,130.73,67.977Z" fill="#d2b7ff"/>
        <path id="Trazado_188208" data-name="Trazado 188208" d="M82.409,146.079a71.158,71.158,0,0,1-44.73-66.068V35.136H26.732V80.011a71.154,71.154,0,0,0,44.73,66.065l10.006,4,5.473-2.189Z" fill="#a7f"/>
        <path id="Trazado_188209" data-name="Trazado 188209" d="M81.468,117.239A32.841,32.841,0,1,1,114.309,84.4a32.842,32.842,0,0,1-32.841,32.841" fill="#8f52f5"/>
        <path id="Trazado_188210" data-name="Trazado 188210" d="M92.415,106.292H70.521a5.472,5.472,0,0,1-5.474-5.474V84.4a5.473,5.473,0,0,1,5.474-5.474H92.415A5.473,5.473,0,0,1,97.889,84.4v16.42a5.472,5.472,0,0,1-5.474,5.474" fill="#f0f0f0"/>
        <path id="Trazado_188211" data-name="Trazado 188211" d="M73.258,78.924v-8.21a5.472,5.472,0,0,1,5.474-5.474h5.473a5.473,5.473,0,0,1,5.474,5.474v8.21h2.736v-8.21a8.21,8.21,0,0,0-8.21-8.211H78.732a8.211,8.211,0,0,0-8.211,8.211v8.21Z" fill="#f0f0f0"/>
        <path id="Trazado_188212" data-name="Trazado 188212" d="M130.73,62.5A27.367,27.367,0,1,1,158.1,35.135,27.367,27.367,0,0,1,130.73,62.5" fill="#fa6450"/>
        <path id="Trazado_188213" data-name="Trazado 188213" d="M108.836,35.136a27.371,27.371,0,0,1,24.63-27.231c-.9-.087-1.812-.137-2.737-.137a27.368,27.368,0,1,0,0,54.736c.925,0,1.836-.05,2.737-.137a27.371,27.371,0,0,1-24.63-27.231" fill="#dc4632"/>
        <path id="Trazado_188214" data-name="Trazado 188214" d="M130.73,46.083a5.472,5.472,0,0,1-5.474-5.474V29.662a5.474,5.474,0,0,1,10.948,0V40.609a5.472,5.472,0,0,1-5.474,5.474" fill="#f0f0f0"/>
        <rect id="Rect치ngulo_39341" data-name="Rect치ngulo 39341" width="21.894" height="2.737" transform="translate(119.783 33.767)" fill="#f0f0f0"/>
        <path id="Trazado_188215" data-name="Trazado 188215" d="M140.894,47.065l-4.05-3.93a4.1,4.1,0,0,0-2.858-1.158h-6.461a4.083,4.083,0,0,0-2.9,1.2l-3.87,3.87-1.934-1.935,3.869-3.87a6.8,6.8,0,0,1,4.839-2h6.461a6.8,6.8,0,0,1,4.762,1.929L142.8,45.1Z" fill="#f0f0f0"/>
        <path id="Trazado_188216" data-name="Trazado 188216" d="M133.934,31.031h-6.412a6.8,6.8,0,0,1-4.839-2l-3.87-3.87,1.935-1.935,3.87,3.87a4.086,4.086,0,0,0,2.9,1.2h6.412a4.089,4.089,0,0,0,2.9-1.2l3.869-3.87,1.935,1.935-3.869,3.87a6.8,6.8,0,0,1-4.839,2" fill="#f0f0f0"/>
      </g>
    </g>
  </g>
</svg>
