<svg xmlns="http://www.w3.org/2000/svg" xmlns:xlink="http://www.w3.org/1999/xlink" width="295" height="200.106" viewBox="0 0 295 200.106">
  <defs>
    <clipPath id="clip-path">
      <rect id="Rectángulo_37612" data-name="Rectángulo 37612" width="295" height="200.107" fill="none"/>
    </clipPath>
    <clipPath id="clip-path-3">
      <rect id="Rectángulo_37595" data-name="Rectángulo 37595" width="295" height="8.706" fill="none"/>
    </clipPath>
    <clipPath id="clip-path-4">
      <rect id="Rectángulo_37599" data-name="Rectángulo 37599" width="167.096" height="107.531" fill="none"/>
    </clipPath>
    <linearGradient id="linear-gradient" x1="-0.265" y1="0.868" x2="-0.259" y2="0.868" gradientUnits="objectBoundingBox">
      <stop offset="0" stop-color="#fff"/>
      <stop offset="1" stop-color="#c1d5f0"/>
    </linearGradient>
    <clipPath id="clip-path-6">
      <rect id="Rectángulo_37601" data-name="Rectángulo 37601" width="54.801" height="69.668" fill="none"/>
    </clipPath>
  </defs>
  <g id="Grupo_143592" data-name="Grupo 143592" transform="translate(-1125 -8911.446)">
    <g id="Grupo_112158" data-name="Grupo 112158" transform="translate(1125 8911.446)">
      <g id="Grupo_112157" data-name="Grupo 112157" clip-path="url(#clip-path)">
        <g id="Grupo_112148" data-name="Grupo 112148">
          <g id="Grupo_112147" data-name="Grupo 112147" clip-path="url(#clip-path)">
            <path id="Trazado_174917" data-name="Trazado 174917" d="M25.851,91.811a.478.478,0,0,1-.257-.074.485.485,0,0,1-.153-.669l6.988-11.147a.486.486,0,0,1,.823.515L26.263,91.583a.484.484,0,0,1-.412.228" transform="translate(3.241 10.181)" fill="#c7e2ff"/>
            <path id="Trazado_174918" data-name="Trazado 174918" d="M29.156,91.811a.478.478,0,0,1-.257-.074.485.485,0,0,1-.153-.669l6.988-11.147a.486.486,0,0,1,.823.515L29.568,91.583a.484.484,0,0,1-.412.228" transform="translate(3.663 10.181)" fill="#c7e2ff"/>
            <path id="Trazado_174919" data-name="Trazado 174919" d="M32.461,91.811a.478.478,0,0,1-.257-.074.485.485,0,0,1-.153-.669l6.988-11.147a.486.486,0,0,1,.823.515L32.873,91.583a.484.484,0,0,1-.412.228" transform="translate(4.085 10.181)" fill="#c7e2ff"/>
            <path id="Trazado_174920" data-name="Trazado 174920" d="M35.766,91.811a.478.478,0,0,1-.257-.074.485.485,0,0,1-.153-.669l6.989-11.147a.485.485,0,0,1,.822.515L36.178,91.583a.484.484,0,0,1-.412.228" transform="translate(4.507 10.181)" fill="#c7e2ff"/>
            <path id="Trazado_174921" data-name="Trazado 174921" d="M39.071,91.811a.478.478,0,0,1-.257-.074.484.484,0,0,1-.153-.669l6.988-11.147a.486.486,0,0,1,.823.515L39.483,91.583a.484.484,0,0,1-.412.228" transform="translate(4.929 10.181)" fill="#c7e2ff"/>
            <path id="Trazado_174922" data-name="Trazado 174922" d="M42.376,91.811a.478.478,0,0,1-.257-.074.485.485,0,0,1-.153-.669l6.988-11.147a.485.485,0,0,1,.822.515L42.788,91.583a.484.484,0,0,1-.412.228" transform="translate(5.352 10.181)" fill="#c7e2ff"/>
            <path id="Trazado_174923" data-name="Trazado 174923" d="M45.681,91.811a.478.478,0,0,1-.257-.074.485.485,0,0,1-.153-.669l6.988-11.147a.486.486,0,0,1,.823.515L46.093,91.583a.484.484,0,0,1-.412.228" transform="translate(5.774 10.181)" fill="#c7e2ff"/>
            <path id="Trazado_174924" data-name="Trazado 174924" d="M48.986,91.811a.478.478,0,0,1-.257-.074.485.485,0,0,1-.153-.669l6.988-11.147a.486.486,0,0,1,.823.515L49.4,91.583a.484.484,0,0,1-.412.228" transform="translate(6.196 10.181)" fill="#c7e2ff"/>
            <path id="Trazado_174925" data-name="Trazado 174925" d="M52.291,91.811a.478.478,0,0,1-.257-.074.485.485,0,0,1-.153-.669l6.988-11.147a.486.486,0,0,1,.823.515L52.7,91.583a.484.484,0,0,1-.412.228" transform="translate(6.618 10.181)" fill="#c7e2ff"/>
            <path id="Trazado_174926" data-name="Trazado 174926" d="M55.6,91.811a.478.478,0,0,1-.257-.074.485.485,0,0,1-.153-.669l6.989-11.147a.485.485,0,0,1,.822.515L56.008,91.583a.484.484,0,0,1-.412.228" transform="translate(7.04 10.181)" fill="#c7e2ff"/>
            <g id="Grupo_112146" data-name="Grupo 112146" transform="translate(0 191.4)" opacity="0.65" style="mix-blend-mode: multiply;isolation: isolate">
              <g id="Grupo_112145" data-name="Grupo 112145">
                <g id="Grupo_112144" data-name="Grupo 112144" clip-path="url(#clip-path-3)">
                  <path id="Trazado_174927" data-name="Trazado 174927" d="M295,174.072c0,2.4-66.038,4.353-147.5,4.353S0,176.476,0,174.072s66.038-4.353,147.5-4.353S295,171.668,295,174.072" transform="translate(0 -169.719)" fill="#c3d5e3"/>
                </g>
              </g>
            </g>
            <path id="Trazado_174928" data-name="Trazado 174928" d="M230.849,180.46H51.351V62.268a1.741,1.741,0,0,1,1.741-1.741H229.108a1.741,1.741,0,0,1,1.741,1.741Z" transform="translate(6.56 7.732)" fill="#9fd0e6"/>
            <rect id="Rectángulo_37596" data-name="Rectángulo 37596" width="179.498" height="1.649" transform="translate(57.911 186.544)" fill="#001a2d"/>
            <path id="Trazado_174929" data-name="Trazado 174929" d="M252.12,174.455H34.762a1.742,1.742,0,0,1-1.742-1.741v-5.775a.218.218,0,0,1,.219-.218h220.4a.217.217,0,0,1,.218.218v5.775a1.741,1.741,0,0,1-1.741,1.741" transform="translate(4.218 21.298)" fill="#9fd0e6"/>
            <path id="Trazado_174930" data-name="Trazado 174930" d="M154.572,168.23h-42.4a.34.34,0,0,1-.339-.339v-1.127a.043.043,0,0,1,.042-.043H154.87a.043.043,0,0,1,.042.043v1.127a.34.34,0,0,1-.339.339" transform="translate(14.287 21.298)" fill="#c7e2ff"/>
          </g>
        </g>
        <g id="Grupo_112150" data-name="Grupo 112150" transform="translate(64.111 74.461)">
          <g id="Grupo_112149" data-name="Grupo 112149" clip-path="url(#clip-path-4)">
            <rect id="Rectángulo_37598" data-name="Rectángulo 37598" width="192.946" height="195.285" transform="matrix(0.687, -0.726, 0.726, 0.687, -53.683, 56.75)" fill="url(#linear-gradient)"/>
          </g>
        </g>
        <g id="Grupo_112152" data-name="Grupo 112152">
          <g id="Grupo_112151" data-name="Grupo 112151" clip-path="url(#clip-path)">
            <path id="Trazado_174931" data-name="Trazado 174931" d="M194.308,131.756h-37.3a2.094,2.094,0,0,0-2.094,2.094v21.882a2.094,2.094,0,0,0,2.094,2.094h37.3a2.1,2.1,0,0,0,2.094-2.094V133.85a2.094,2.094,0,0,0-2.094-2.094m-13.957,6.9a.392.392,0,0,1,.391-.391h6.375a.392.392,0,0,1,.391.391v.061a.392.392,0,0,1-.391.392h-6.375a.392.392,0,0,1-.391-.392Zm0,6.4a.391.391,0,0,1,.391-.391h6.375a.392.392,0,0,1,.391.391v.061a.392.392,0,0,1-.391.391h-6.375a.391.391,0,0,1-.391-.391Zm-8.966,4.322H158.8V135.646h12.588Zm5.544,2.752a1.828,1.828,0,1,1,1.827-1.828,1.828,1.828,0,0,1-1.827,1.828m0-6.4a1.828,1.828,0,1,1,1.827-1.827,1.827,1.827,0,0,1-1.827,1.827m0-6.4a1.828,1.828,0,1,1,1.827-1.828,1.828,1.828,0,0,1-1.827,1.828m10.579,12.18a.392.392,0,0,1-.391.391h-6.375a.392.392,0,0,1-.391-.391v-.062a.392.392,0,0,1,.391-.391h6.375a.392.392,0,0,1,.391.391Zm2.48.391h-1.206a.422.422,0,0,1,0-.845h1.206a.422.422,0,0,1,0,.845m3.2-2.5a.391.391,0,0,1-.391.391H180.742a.391.391,0,0,1-.391-.391v-.061a.391.391,0,0,1,.391-.391h12.052a.391.391,0,0,1,.391.391Zm-4.825-4.322a.422.422,0,0,1,.422-.422h1.206a.422.422,0,1,1,0,.844h-1.206a.422.422,0,0,1-.422-.422m4.825-2.076a.392.392,0,0,1-.391.392H180.742a.392.392,0,0,1-.391-.392v-.061a.392.392,0,0,1,.391-.391h12.052a.392.392,0,0,1,.391.391Zm-4.825-4.322a.423.423,0,0,1,.422-.422h1.206a.422.422,0,0,1,0,.845h-1.206a.423.423,0,0,1-.422-.423m4.825-2.075a.391.391,0,0,1-.391.391H180.742a.391.391,0,0,1-.391-.391v-.061a.391.391,0,0,1,.391-.391h12.052a.391.391,0,0,1,.391.391Z" transform="translate(19.79 16.832)" fill="#acd4ff"/>
          </g>
        </g>
        <g id="Grupo_112154" data-name="Grupo 112154" transform="translate(64.113 99.967)">
          <g id="Grupo_112153" data-name="Grupo 112153" clip-path="url(#clip-path-6)">
            <path id="Trazado_174932" data-name="Trazado 174932" d="M64.136,101.135a3.23,3.23,0,0,1-2.064,2.222,1.951,1.951,0,0,0,1.759.52,1.652,1.652,0,0,0,1-1.359,1.41,1.41,0,0,0-.691-1.383" transform="translate(-56.183 -87.047)" fill="#001a2d"/>
            <path id="Trazado_174933" data-name="Trazado 174933" d="M91.951,127.421l2.663-1.446s5.951,2.977,6.474,2.5-2.835-2.1-2.835-2.1,5.234,1.985,5.474,1.645-3.744-2.305-3.744-2.305,4.028,1.06,4.2.581-3.512-1.8-3.512-1.8,3.48.159,3.592-.36-6.958-2.072-6.958-2.072-.723-.812-1.194-1.232l-2.461,1.215-4.028,2.279Z" transform="translate(-52.664 -84.531)" fill="#ffc6b5"/>
            <path id="Trazado_174934" data-name="Trazado 174934" d="M67.975,109.887s6.124,4.086,7.572,6.354,5.2,15.292,5.2,15.292l13.7-8.486,2.7,5.759S84.26,142.314,78.154,140.615c-7.209-2.007-9.146-16.782-9.146-16.782Z" transform="translate(-55.429 -85.929)" fill="#001a2d"/>
            <path id="Trazado_174935" data-name="Trazado 174935" d="M73.812,123.094l3.376-6.515A21.3,21.3,0,0,0,66.759,108.1c-3.025-1.123-8.531-1.054-11.6-.209L51.992,118.85l-7.1,19.751,13.074,11.608Z" transform="translate(-58.377 -86.265)" fill="#001a2d"/>
            <path id="Trazado_174936" data-name="Trazado 174936" d="M73.638,94.253s3.291.2,3.575,2.99-2.968,5.994-2.968,5.994Z" transform="translate(-54.705 -87.926)" fill="#001a2d"/>
            <path id="Trazado_174937" data-name="Trazado 174937" d="M62.91,106.482s4.386.863,6.41,2.85l-1.213,1.634-5.349-2.647Z" transform="translate(-56.095 -86.364)" fill="#001a2d"/>
            <path id="Trazado_174938" data-name="Trazado 174938" d="M63.362,110.438l.954-7.657s-3.149.094-2.649-2.3c.444-2.133,2.746-1.59,3.526-.28,0,0,.3-7.834,6.735-6.464s3.831,9.959,3.21,12.04a5.492,5.492,0,0,1-6.211,4.2l-.55,2.285a1.9,1.9,0,0,1-2.324,1.508,3.86,3.86,0,0,1-2.691-3.327" transform="translate(-56.241 -88.013)" fill="#ffc6b5"/>
            <path id="Trazado_174939" data-name="Trazado 174939" d="M64.8,99.658s4.089,2.019,4.79,2.18,1.975-.583,2.232-.434.945,1.306,1.428,1.336,2.137.039,2.137.039l.566-2.165L64.662,97.828Z" transform="translate(-55.852 -87.47)" fill="#001a2d"/>
            <path id="Trazado_174940" data-name="Trazado 174940" d="M71.855,100.781a.67.67,0,1,0,.882-.345.669.669,0,0,0-.882.345" transform="translate(-54.94 -87.144)" fill="#fff"/>
            <path id="Trazado_174941" data-name="Trazado 174941" d="M69.085,100a.67.67,0,1,0,.882-.345.671.671,0,0,0-.882.345" transform="translate(-55.294 -87.243)" fill="#fff"/>
            <path id="Trazado_174942" data-name="Trazado 174942" d="M73.785,102.334s3.142-.9,2.844,1.69c-.327,2.846-3.767.9-3.767.9Z" transform="translate(-54.804 -86.913)" fill="#ffc6b5"/>
            <path id="Trazado_174943" data-name="Trazado 174943" d="M68.481,108.35c-1.308-.18-3.372-2.074-3.372-2.074a6.827,6.827,0,0,0,3.091,3.239Z" transform="translate(-55.795 -86.39)" fill="#4763d5"/>
            <path id="Trazado_174944" data-name="Trazado 174944" d="M68.1,101.765a3.1,3.1,0,0,0,1.828,2.563" transform="translate(-55.412 -86.967)" fill="none" stroke="#001a2d" stroke-linecap="round" stroke-miterlimit="10" stroke-width="0.112"/>
            <path id="Trazado_174945" data-name="Trazado 174945" d="M71.176,100.628a6.409,6.409,0,0,1-.141,1.414,1.4,1.4,0,0,1-.241.6.554.554,0,0,1-.577.209" transform="translate(-55.143 -87.112)" fill="none" stroke="#001a2d" stroke-linecap="round" stroke-miterlimit="10" stroke-width="0.112"/>
            <path id="Trazado_174946" data-name="Trazado 174946" d="M73.705,104.339q.257-.744.513-1.486" transform="translate(-54.697 -86.828)" fill="none" stroke="#001a2d" stroke-linecap="round" stroke-miterlimit="10" stroke-width="0.112"/>
            <line id="Línea_148" data-name="Línea 148" x2="0.417" transform="translate(19.359 16.765)" fill="none" stroke="#001a2d" stroke-linecap="round" stroke-miterlimit="10" stroke-width="0.112"/>
            <path id="Trazado_174947" data-name="Trazado 174947" d="M62.818,99.295a1.863,1.863,0,0,1,1.133,1.534" transform="translate(-56.088 -87.282)" fill="none" stroke="#001a2d" stroke-linecap="round" stroke-miterlimit="10" stroke-width="0.112"/>
            <path id="Trazado_174948" data-name="Trazado 174948" d="M62.759,100.142l.833-.185" transform="translate(-56.095 -87.198)" fill="none" stroke="#001a2d" stroke-linecap="round" stroke-miterlimit="10" stroke-width="0.112"/>
            <path id="Trazado_174949" data-name="Trazado 174949" d="M68.944,97.786l1.688,1.3" transform="translate(-55.305 -87.475)" fill="none" stroke="#001a2d" stroke-linecap="round" stroke-miterlimit="10" stroke-width="0.112"/>
            <path id="Trazado_174950" data-name="Trazado 174950" d="M71.982,99.217l1.936-.095" transform="translate(-54.917 -87.304)" fill="none" stroke="#001a2d" stroke-linecap="round" stroke-miterlimit="10" stroke-width="0.112"/>
            <path id="Trazado_174951" data-name="Trazado 174951" d="M62.349,109.182l.637-2.7c1.049,1.95,5.023,3.84,6.41,2.85l-1.387,4.349-5.847-1.987Z" transform="translate(-56.171 -86.364)" fill="#001a2d"/>
            <path id="Trazado_174952" data-name="Trazado 174952" d="M81.136,97.282c-.184,5.646-12.669-.235-12.669-.235a3.461,3.461,0,0,1-2.43,2.554l-.992,3.128s-2.537-4.291-2.222-5.82a1.414,1.414,0,0,1,1.892-1.032c-1.2-5.779,8.911-4.74,8.911-4.74l-2.731,2.053,7.041-2.346c.855,2-1.41,3.817-1.41,3.817s4.725-.9,4.61,2.62" transform="translate(-56.091 -88.362)" fill="#001a2d"/>
          </g>
        </g>
        <g id="Grupo_112156" data-name="Grupo 112156">
          <g id="Grupo_112155" data-name="Grupo 112155" clip-path="url(#clip-path)">
            <path id="Trazado_174953" data-name="Trazado 174953" d="M169.78,148.01H97.991a1.64,1.64,0,0,1-1.64-1.64V89.182a1.64,1.64,0,0,1,1.64-1.64H169.78a1.64,1.64,0,0,1,1.64,1.64V146.37a1.64,1.64,0,0,1-1.64,1.64" transform="translate(12.309 11.183)" fill="#fff"/>
            <path id="Trazado_174954" data-name="Trazado 174954" d="M95.371,120.872c1.719-.566,3.962-.341,4.116.183s-4.116,1.547-4.116,1.547Z" transform="translate(12.184 15.399)" fill="#ffc6b5"/>
            <path id="Trazado_174955" data-name="Trazado 174955" d="M133.228,129.048H109.52a1.436,1.436,0,0,1,0-2.872h23.709a1.436,1.436,0,1,1,0,2.872m4.885-33.521a2.163,2.163,0,0,0-2.163-2.163H118.644a2.163,2.163,0,0,0,0,4.326h17.306a2.163,2.163,0,0,0,2.163-2.163m10.177,0a2.163,2.163,0,0,0-2.163-2.163h-3.987a2.163,2.163,0,0,0,0,4.326h3.987a2.163,2.163,0,0,0,2.163-2.163" transform="translate(13.808 11.927)" fill="#ff4352"/>
            <path id="Trazado_174956" data-name="Trazado 174956" d="M158.886,108.9h-51.8a3.714,3.714,0,0,1,0-7.428h51.8a3.714,3.714,0,0,1,0,7.428" transform="translate(13.206 12.963)" fill="#c7e2ff"/>
            <path id="Trazado_174957" data-name="Trazado 174957" d="M158.886,119.882h-51.8a3.714,3.714,0,0,1,0-7.428h51.8a3.714,3.714,0,0,1,0,7.428" transform="translate(13.206 14.366)" fill="#c7e2ff"/>
            <path id="Trazado_174958" data-name="Trazado 174958" d="M123.478,116.456a.24.24,0,0,1-.078-.184v-.1l-.076.044a.26.26,0,0,1-.363-.058.264.264,0,0,1,.06-.365l.13-.078-.124-.074a.234.234,0,0,1-.114-.2.253.253,0,0,1,.048-.158.27.27,0,0,1,.171-.106.161.161,0,0,1,.044,0,.24.24,0,0,1,.15.05l.073.044v-.1a.262.262,0,0,1,.267-.262.252.252,0,0,1,.254.262v.1l.065-.039a.22.22,0,0,1,.15-.048.283.283,0,0,1,.215.106.246.246,0,0,1,.048.156.184.184,0,0,1,0,.041.242.242,0,0,1-.112.167l-.124.074.13.076a.254.254,0,0,1,.106.211.251.251,0,0,1-.046.152.255.255,0,0,1-.208.109.249.249,0,0,1-.156-.052l-.068-.039v.1a.262.262,0,0,1-.259.262.262.262,0,0,1-.184-.078m2.278,0a.24.24,0,0,1-.078-.184v-.1l-.076.044a.259.259,0,0,1-.362-.058.261.261,0,0,1,.06-.365l.13-.078-.125-.074a.236.236,0,0,1-.114-.2.253.253,0,0,1,.05-.158.268.268,0,0,1,.17-.106.161.161,0,0,1,.044,0,.243.243,0,0,1,.151.05l.072.044v-.1a.262.262,0,0,1,.267-.262.252.252,0,0,1,.254.262v.1l.065-.039a.222.222,0,0,1,.15-.048.283.283,0,0,1,.215.106.247.247,0,0,1,.05.156.124.124,0,0,1,0,.041.241.241,0,0,1-.111.167l-.124.074.13.076a.256.256,0,0,1,.1.211.251.251,0,0,1-.046.152.254.254,0,0,1-.208.109.249.249,0,0,1-.156-.052l-.068-.039v.1a.249.249,0,0,1-.074.184.253.253,0,0,1-.185.078.262.262,0,0,1-.184-.078m2.279,0a.24.24,0,0,1-.078-.184v-.1l-.076.044a.26.26,0,0,1-.363-.058.264.264,0,0,1,.06-.365l.13-.078-.124-.074a.234.234,0,0,1-.114-.2.253.253,0,0,1,.048-.158.27.27,0,0,1,.171-.106.161.161,0,0,1,.044,0,.242.242,0,0,1,.15.05l.073.044v-.1a.262.262,0,0,1,.267-.262.252.252,0,0,1,.254.262v.1l.065-.039a.22.22,0,0,1,.15-.048.283.283,0,0,1,.215.106.246.246,0,0,1,.048.156.184.184,0,0,1,0,.041.242.242,0,0,1-.112.167l-.124.074.13.076a.254.254,0,0,1,.106.211.259.259,0,0,1-.046.152.255.255,0,0,1-.208.109.249.249,0,0,1-.156-.052l-.068-.039v.1a.262.262,0,0,1-.259.262.262.262,0,0,1-.184-.078m2.278,0a.24.24,0,0,1-.078-.184v-.1l-.076.044a.26.26,0,0,1-.363-.058.26.26,0,0,1-.048-.158.254.254,0,0,1,.108-.208l.131-.078-.125-.074a.236.236,0,0,1-.114-.2.26.26,0,0,1,.048-.158.273.273,0,0,1,.171-.106.161.161,0,0,1,.044,0,.243.243,0,0,1,.151.05l.072.044v-.1a.262.262,0,0,1,.267-.262.252.252,0,0,1,.254.262v.1l.065-.039a.22.22,0,0,1,.15-.048.283.283,0,0,1,.215.106.247.247,0,0,1,.05.156.124.124,0,0,1,0,.041.24.24,0,0,1-.111.167l-.125.074.13.076a.254.254,0,0,1,.106.211.251.251,0,0,1-.046.152.254.254,0,0,1-.208.109.249.249,0,0,1-.156-.052l-.068-.039v.1a.26.26,0,0,1-.259.262.262.262,0,0,1-.184-.078m2.278,0a.24.24,0,0,1-.078-.184v-.1l-.074.044a.26.26,0,0,1-.363-.058.261.261,0,0,1,.06-.365l.13-.078-.125-.074a.236.236,0,0,1-.114-.2.253.253,0,0,1,.05-.158.27.27,0,0,1,.171-.106.161.161,0,0,1,.044,0,.242.242,0,0,1,.15.05l.072.044v-.1a.262.262,0,0,1,.267-.262.252.252,0,0,1,.254.262v.1l.065-.039a.225.225,0,0,1,.151-.048.285.285,0,0,1,.215.106.246.246,0,0,1,.048.156.185.185,0,0,1,0,.041.242.242,0,0,1-.112.167l-.124.074.13.076a.261.261,0,0,1-.148.473.246.246,0,0,1-.156-.052l-.069-.039v.1a.249.249,0,0,1-.074.184.253.253,0,0,1-.184.078.263.263,0,0,1-.185-.078m2.278,0a.243.243,0,0,1-.077-.184v-.1l-.076.044a.26.26,0,0,1-.363-.058.261.261,0,0,1,.06-.365l.13-.078-.124-.074a.235.235,0,0,1-.115-.2.253.253,0,0,1,.05-.158.27.27,0,0,1,.171-.106.161.161,0,0,1,.044,0,.242.242,0,0,1,.15.05l.073.044v-.1a.262.262,0,0,1,.267-.262.253.253,0,0,1,.254.262v.1l.064-.039a.225.225,0,0,1,.151-.048.283.283,0,0,1,.215.106.246.246,0,0,1,.048.156.185.185,0,0,1,0,.041.242.242,0,0,1-.112.167l-.124.074.13.076a.254.254,0,0,1,.106.211.259.259,0,0,1-.046.152.255.255,0,0,1-.208.109.249.249,0,0,1-.156-.052l-.068-.039v.1a.262.262,0,0,1-.259.262.265.265,0,0,1-.185-.078m2.279,0a.24.24,0,0,1-.078-.184v-.1l-.076.044a.259.259,0,0,1-.362-.058.261.261,0,0,1,.06-.365l.13-.078-.125-.074a.236.236,0,0,1-.114-.2.253.253,0,0,1,.05-.158.268.268,0,0,1,.17-.106.161.161,0,0,1,.044,0,.243.243,0,0,1,.151.05l.072.044v-.1a.262.262,0,0,1,.267-.262.252.252,0,0,1,.254.262v.1l.065-.039a.225.225,0,0,1,.151-.048.283.283,0,0,1,.214.106.247.247,0,0,1,.05.156.185.185,0,0,1,0,.041.245.245,0,0,1-.112.167l-.124.074.13.076a.257.257,0,0,1,.106.211.256.256,0,0,1-.411.21l-.068-.039v.1a.249.249,0,0,1-.074.184.253.253,0,0,1-.185.078.262.262,0,0,1-.184-.078" transform="translate(15.702 14.678)" fill="#fff"/>
            <rect id="Rectángulo_37602" data-name="Rectángulo 37602" width="2.872" height="2.872" transform="translate(116.582 138.104)" fill="#ff4352"/>
            <path id="Trazado_174959" data-name="Trazado 174959" d="M142.772,136.081H119.837a3.283,3.283,0,1,1,0-6.566h22.935a3.283,3.283,0,1,1,0,6.566" transform="translate(14.89 16.545)" fill="#2e8eb1"/>
            <path id="Trazado_174960" data-name="Trazado 174960" d="M245.054,149.129h-6.19a2.957,2.957,0,0,1-2.957,2.957v2.155a9.253,9.253,0,0,0,6.051,8.681h0a9.253,9.253,0,0,0,6.052-8.681v-2.155a2.957,2.957,0,0,1-2.957-2.957m-.151,8.088-1.388,1.388-1.556-1.556-1.555,1.556-1.388-1.388,1.556-1.556-1.556-1.555,1.388-1.388,1.555,1.555,1.556-1.555,1.388,1.388-1.556,1.555Z" transform="translate(30.137 19.051)" fill="#5bb8b2"/>
            <path id="Trazado_174961" data-name="Trazado 174961" d="M51.35,161.978h8.485a4.808,4.808,0,0,0,4.809-4.808V131.761a4.809,4.809,0,0,0-4.809-4.809H51.35Z" transform="translate(6.56 16.218)" fill="#001a2d"/>
            <path id="Trazado_174962" data-name="Trazado 174962" d="M15.259,161H68.591a2.025,2.025,0,0,0,2.025-2.025V128a2.025,2.025,0,0,0-2.025-2.025H15.259A2.025,2.025,0,0,0,13.234,128v30.975A2.025,2.025,0,0,0,15.259,161" transform="translate(1.691 16.093)" fill="#5bb8b2"/>
            <rect id="Rectángulo_37603" data-name="Rectángulo 37603" width="57.382" height="8.732" transform="translate(14.924 161.335)" fill="#001a2d"/>
            <path id="Trazado_174963" data-name="Trazado 174963" d="M54.854,134.822a4.5,4.5,0,1,1-4.5-4.5,4.5,4.5,0,0,1,4.5,4.5" transform="translate(5.857 16.648)" fill="#fff"/>
            <path id="Trazado_174964" data-name="Trazado 174964" d="M60.861,134.822a4.5,4.5,0,1,1-4.5-4.5,4.5,4.5,0,0,1,4.5,4.5" transform="translate(6.624 16.648)" fill="#c7e2ff"/>
            <path id="Trazado_174965" data-name="Trazado 174965" d="M36.786,133.249H19.042a1.466,1.466,0,0,1,0-2.932H36.786a1.466,1.466,0,0,1,0,2.932m-9.144,4.61h0a1.466,1.466,0,0,0-1.466-1.466H19.042a1.466,1.466,0,1,0,0,2.932h7.134a1.466,1.466,0,0,0,1.466-1.466M65.24,156.7h0a.771.771,0,0,0-.77-.77H56.78a.77.77,0,1,0,0,1.54h7.69a.771.771,0,0,0,.77-.77" transform="translate(2.245 16.648)" fill="#c7e2ff"/>
            <path id="Trazado_174966" data-name="Trazado 174966" d="M243.12,70.584V54.966a1.732,1.732,0,1,0-3.464,0v.116h-1.531a1.728,1.728,0,0,0-.1,3.453v2.223a1.728,1.728,0,0,0,.1,3.453h1.531v6.373a8.062,8.062,0,1,0,3.464,0m-1.732,12.47a4.6,4.6,0,1,1,4.6-4.6,4.6,4.6,0,0,1-4.6,4.6" transform="translate(29.807 6.801)" fill="#7cc6c1"/>
            <path id="Trazado_174967" data-name="Trazado 174967" d="M215.729,34.943a.573.573,0,0,1,.171.417.59.59,0,0,1-.045.23.669.669,0,0,1-.126.194.6.6,0,0,1-.648.126.584.584,0,0,1-.193-.126.577.577,0,0,1-.134-.194.611.611,0,0,1-.045-.23.587.587,0,0,1,.179-.417.514.514,0,0,1,.193-.134.6.6,0,0,1,.648.134m5.572,0a.513.513,0,0,0-.2-.134.6.6,0,0,0-.647.134.548.548,0,0,0-.134.186.646.646,0,0,0-.044.231.623.623,0,0,0,.178.424.578.578,0,0,0,.194.126.557.557,0,0,0,.223.045.589.589,0,0,0,.23-.045.659.659,0,0,0,.2-.126.806.806,0,0,0,.126-.194.609.609,0,0,0,.044-.23.646.646,0,0,0-.044-.231.654.654,0,0,0-.126-.186m4.923-.134a.5.5,0,0,0-.193.134.569.569,0,0,0-.173.417.587.587,0,0,0,.173.424.573.573,0,0,0,.193.126.56.56,0,0,0,.223.045.6.6,0,0,0,.231-.045.669.669,0,0,0,.194-.126.616.616,0,0,0,.171-.424.573.573,0,0,0-.171-.417.6.6,0,0,0-.648-.134m6.221.134a.513.513,0,0,0-.2-.134.6.6,0,0,0-.647.134.483.483,0,0,0-.126.193.475.475,0,0,0-.052.224.609.609,0,0,0,.044.23.652.652,0,0,0,.134.194.586.586,0,0,0,.417.171.584.584,0,0,0,.6-.6.586.586,0,0,0-.044-.224.6.6,0,0,0-.126-.193m4.923-.134a.665.665,0,0,0-.327.327.586.586,0,0,0-.045.224.593.593,0,0,0,.179.424.573.573,0,0,0,.193.126.557.557,0,0,0,.223.045.6.6,0,0,0,.231-.045.56.56,0,0,0,.32-.32.61.61,0,0,0,.045-.23.584.584,0,0,0-.171-.417.6.6,0,0,0-.648-.134m5.378.976a.578.578,0,0,0,.194.126.557.557,0,0,0,.223.045.585.585,0,0,0,.23-.045.659.659,0,0,0,.2-.126.842.842,0,0,0,.126-.194.617.617,0,0,0,.052-.23.6.6,0,0,0-1.2,0,.609.609,0,0,0,.044.23.653.653,0,0,0,.134.194M215.08,40.379a.543.543,0,0,0-.193.135.588.588,0,0,0-.179.416.618.618,0,0,0,.045.232.577.577,0,0,0,.134.194.59.59,0,0,0,.416.169.594.594,0,0,0,.425-.169.669.669,0,0,0,.126-.194.6.6,0,0,0,.045-.232.574.574,0,0,0-.171-.416.6.6,0,0,0-.648-.135m5.572,0a.538.538,0,0,0-.194.135.58.58,0,0,0-.178.416.626.626,0,0,0,.178.426.612.612,0,0,0,.647.126.659.659,0,0,0,.2-.126.806.806,0,0,0,.126-.194.617.617,0,0,0,.044-.232.584.584,0,0,0-.17-.416.6.6,0,0,0-.648-.135m5.571,0a.533.533,0,0,0-.193.135.494.494,0,0,0-.127.194.474.474,0,0,0-.045.222.592.592,0,0,0,.173.426.573.573,0,0,0,.193.126.558.558,0,0,0,.223.043.594.594,0,0,0,.425-.169.774.774,0,0,0,.126-.194.6.6,0,0,0,.045-.232.585.585,0,0,0-.171-.416.6.6,0,0,0-.648-.135m5.378.135a.592.592,0,0,0-.178.416.6.6,0,0,0,.178.426.589.589,0,0,0,.417.169.58.58,0,0,0,.6-.6.573.573,0,0,0-.17-.416.613.613,0,0,0-.842,0m6.414,0a.6.6,0,0,0-.648-.135.533.533,0,0,0-.193.135.577.577,0,0,0-.179.416.618.618,0,0,0,.045.232.633.633,0,0,0,.134.194.573.573,0,0,0,.193.126.555.555,0,0,0,.223.043.593.593,0,0,0,.231-.043.669.669,0,0,0,.194-.126.619.619,0,0,0,.171-.426.636.636,0,0,0-.045-.229.623.623,0,0,0-.126-.187m4.924-.135a.538.538,0,0,0-.194.135.592.592,0,0,0-.178.416.617.617,0,0,0,.044.232.605.605,0,0,0,.328.32.555.555,0,0,0,.223.043.584.584,0,0,0,.23-.043.659.659,0,0,0,.2-.126.719.719,0,0,0,.126-.194.623.623,0,0,0,.052-.232.6.6,0,0,0-.178-.416.606.606,0,0,0-.648-.135m-27.21,5.708a.6.6,0,0,0-.648-.134.5.5,0,0,0-.193.134.513.513,0,0,0-.134.193.582.582,0,0,0-.045.224.614.614,0,0,0,.179.423.584.584,0,0,0,.416.173.592.592,0,0,0,.425-.173.586.586,0,0,0,.171-.423.562.562,0,0,0-.045-.224.584.584,0,0,0-.126-.193m4.924-.134a.5.5,0,0,0-.194.134.579.579,0,0,0-.178.417.618.618,0,0,0,.178.423.587.587,0,0,0,.417.173.571.571,0,0,0,.23-.046.638.638,0,0,0,.2-.126.778.778,0,0,0,.126-.193.614.614,0,0,0,.044-.23.572.572,0,0,0-.17-.417.6.6,0,0,0-.648-.134m5.571,0a.493.493,0,0,0-.193.134.5.5,0,0,0-.127.193.48.48,0,0,0-.045.224.582.582,0,0,0,.173.423.556.556,0,0,0,.193.126.543.543,0,0,0,.223.046.576.576,0,0,0,.231-.046.647.647,0,0,0,.194-.126.611.611,0,0,0,.171-.423.586.586,0,0,0-.171-.417.6.6,0,0,0-.648-.134m5.378.134a.593.593,0,0,0-.178.417.614.614,0,0,0,.044.23.634.634,0,0,0,.134.193.587.587,0,0,0,.417.173.6.6,0,0,0,.425-.173.585.585,0,0,0,.17-.423.572.572,0,0,0-.17-.417.611.611,0,0,0-.842,0m5.765-.134a.493.493,0,0,0-.193.134.5.5,0,0,0-.134.193.582.582,0,0,0-.045.224.588.588,0,0,0,.179.423.556.556,0,0,0,.193.126.539.539,0,0,0,.223.046.576.576,0,0,0,.231-.046.646.646,0,0,0,.194-.126.748.748,0,0,0,.126-.193.615.615,0,0,0,.045-.23.586.586,0,0,0-.171-.417.6.6,0,0,0-.648-.134m5.378.134a.593.593,0,0,0-.178.417.614.614,0,0,0,.044.23.635.635,0,0,0,.134.193.562.562,0,0,0,.194.126.539.539,0,0,0,.223.046.567.567,0,0,0,.23-.046.638.638,0,0,0,.2-.126.812.812,0,0,0,.126-.193.622.622,0,0,0,.052-.23.6.6,0,0,0-.178-.417.611.611,0,0,0-.842,0m-27.016,5.57a.6.6,0,0,0-.648-.133.538.538,0,0,0-.193.133.521.521,0,0,0-.134.2.577.577,0,0,0-.045.223.6.6,0,0,0,.179.425.587.587,0,0,0,.416.17.584.584,0,0,0,.6-.6.557.557,0,0,0-.045-.223.594.594,0,0,0-.126-.2m5.377-.133a.6.6,0,0,0-.647.133.585.585,0,0,0-.178.418.6.6,0,0,0,.178.425.634.634,0,0,0,.194.126.556.556,0,0,0,.223.044.588.588,0,0,0,.23-.044.734.734,0,0,0,.2-.126.6.6,0,0,0,.17-.425.578.578,0,0,0-.17-.418.537.537,0,0,0-.2-.133m5.766.133a.6.6,0,0,0-.648-.133.528.528,0,0,0-.193.133.506.506,0,0,0-.127.2.576.576,0,0,0-.045.223.593.593,0,0,0,.173.425.629.629,0,0,0,.193.126.587.587,0,0,0,.223.044.594.594,0,0,0,.231-.044.747.747,0,0,0,.194-.126.606.606,0,0,0,.171-.425.557.557,0,0,0-.045-.223.594.594,0,0,0-.126-.2m4.73-.007a.6.6,0,0,0,0,.85.635.635,0,0,0,.194.126.556.556,0,0,0,.223.044.585.585,0,0,0,.23-.044.735.735,0,0,0,.2-.126.6.6,0,0,0,.17-.425.605.605,0,0,0-.17-.425.63.63,0,0,0-.842,0m6.414.007a.6.6,0,0,0-.648-.133.528.528,0,0,0-.193.133.582.582,0,0,0-.179.418.616.616,0,0,0,.045.231.608.608,0,0,0,.327.32.556.556,0,0,0,.223.044.594.594,0,0,0,.231-.044.746.746,0,0,0,.194-.126.62.62,0,0,0,.171-.425.584.584,0,0,0-.171-.418m4.73-.007a.623.623,0,0,0-.178.425.615.615,0,0,0,.044.231.653.653,0,0,0,.134.194.635.635,0,0,0,.194.126.556.556,0,0,0,.223.044.585.585,0,0,0,.23-.044.734.734,0,0,0,.2-.126.842.842,0,0,0,.126-.194.577.577,0,0,0-.126-.656.63.63,0,0,0-.842,0m-27.016,5.58a.6.6,0,0,0-.648-.135.5.5,0,0,0-.193.135.589.589,0,0,0-.179.417.607.607,0,0,0,.179.424.584.584,0,0,0,.193.126.6.6,0,0,0,.648-.126.76.76,0,0,0,.126-.2.584.584,0,0,0,.045-.229.6.6,0,0,0-.171-.417m5.377-.135a.6.6,0,0,0-.647.135.581.581,0,0,0-.178.417.625.625,0,0,0,.178.424.578.578,0,0,0,.194.126.556.556,0,0,0,.223.045.589.589,0,0,0,.23-.045.659.659,0,0,0,.2-.126.589.589,0,0,0,.17-.424.574.574,0,0,0-.17-.417.5.5,0,0,0-.2-.135m5.118,0a.5.5,0,0,0-.193.135.595.595,0,0,0-.173.417.587.587,0,0,0,.173.424.573.573,0,0,0,.193.126.595.595,0,0,0,.454,0,.669.669,0,0,0,.194-.126.618.618,0,0,0,.171-.424.586.586,0,0,0-.171-.417.6.6,0,0,0-.648-.135m6.026,0a.6.6,0,0,0-.647.135.593.593,0,0,0-.178.417.625.625,0,0,0,.178.424.586.586,0,0,0,.417.171.584.584,0,0,0,.6-.6.574.574,0,0,0-.17-.417.5.5,0,0,0-.2-.135m5.118,0a.5.5,0,0,0-.193.135.489.489,0,0,0-.134.192.59.59,0,0,0,.134.65.573.573,0,0,0,.193.126.556.556,0,0,0,.223.045.6.6,0,0,0,.231-.045.669.669,0,0,0,.194-.126.76.76,0,0,0,.126-.2.6.6,0,0,0,.045-.229.586.586,0,0,0-.171-.417.6.6,0,0,0-.648-.135m5.572,0a.5.5,0,0,0-.194.135.593.593,0,0,0-.178.417.6.6,0,0,0,.044.229.644.644,0,0,0,.134.2.578.578,0,0,0,.194.126.557.557,0,0,0,.223.045.585.585,0,0,0,.23-.045.659.659,0,0,0,.2-.126.825.825,0,0,0,.126-.2.611.611,0,0,0,.052-.229.606.606,0,0,0-.827-.553" transform="translate(27.429 4.441)" fill="#5bb8b2"/>
            <path id="Trazado_174968" data-name="Trazado 174968" d="M211.292,60.527H172.077v39a3.65,3.65,0,0,0,3.649,3.649h39.7V64.661a4.134,4.134,0,0,0-4.134-4.134" transform="translate(21.983 7.732)" fill="#001a2d"/>
            <path id="Trazado_174969" data-name="Trazado 174969" d="M227.278,103.7H174.463a1.537,1.537,0,0,1-1.537-1.537V50.434a1.537,1.537,0,0,1,1.537-1.537h52.815a1.537,1.537,0,0,1,1.537,1.537v51.73a1.537,1.537,0,0,1-1.537,1.537" transform="translate(22.091 6.247)" fill="#7cc6c1"/>
            <path id="Trazado_174970" data-name="Trazado 174970" d="M192.283,59.288H179.409a1.459,1.459,0,0,1,0-2.919h12.873a1.459,1.459,0,1,1,0,2.919" transform="translate(22.733 7.201)" fill="#fff"/>
            <path id="Trazado_174971" data-name="Trazado 174971" d="M221.047,64.794H179.409a1.459,1.459,0,1,1,0-2.919h41.638a1.459,1.459,0,0,1,0,2.919" transform="translate(22.733 7.904)" fill="#fff"/>
            <path id="Trazado_174972" data-name="Trazado 174972" d="M201.906,70.3h-22.5a1.459,1.459,0,0,1,0-2.919h22.5a1.459,1.459,0,0,1,0,2.919" transform="translate(22.733 8.608)" fill="#fff"/>
            <path id="Trazado_174973" data-name="Trazado 174973" d="M208.447,70.3h-2.952a1.459,1.459,0,0,1,0-2.919h2.952a1.459,1.459,0,0,1,0,2.919" transform="translate(26.065 8.608)" fill="#fff"/>
            <path id="Trazado_174974" data-name="Trazado 174974" d="M192.283,79.341H179.409a1.459,1.459,0,0,1,0-2.919h12.873a1.459,1.459,0,1,1,0,2.919" transform="translate(22.733 9.763)" fill="#fff"/>
            <path id="Trazado_174975" data-name="Trazado 174975" d="M221.047,84.847H179.409a1.459,1.459,0,1,1,0-2.919h41.638a1.459,1.459,0,0,1,0,2.919" transform="translate(22.733 10.466)" fill="#fff"/>
            <path id="Trazado_174976" data-name="Trazado 174976" d="M201.906,90.352h-22.5a1.459,1.459,0,0,1,0-2.919h22.5a1.459,1.459,0,0,1,0,2.919" transform="translate(22.733 11.169)" fill="#fff"/>
            <path id="Trazado_174977" data-name="Trazado 174977" d="M208.447,90.352h-2.952a1.459,1.459,0,0,1,0-2.919h2.952a1.459,1.459,0,0,1,0,2.919" transform="translate(26.065 11.169)" fill="#fff"/>
            <path id="Trazado_174978" data-name="Trazado 174978" d="M211.367,52.7a.928.928,0,1,1-.927-.927.928.928,0,0,1,.927.927" transform="translate(26.765 6.614)" fill="#ff4352"/>
            <path id="Trazado_174979" data-name="Trazado 174979" d="M214.394,52.7a.928.928,0,1,1-.928-.927.928.928,0,0,1,.928.927" transform="translate(27.152 6.614)" fill="#ff4352"/>
            <path id="Trazado_174980" data-name="Trazado 174980" d="M217.42,52.7a.928.928,0,1,1-.928-.927.928.928,0,0,1,.928.927" transform="translate(27.538 6.614)" fill="#fff"/>
            <path id="Trazado_174981" data-name="Trazado 174981" d="M78.578,79.13a3.544,3.544,0,0,0,3.543-3.543V60.527H55.485a4.135,4.135,0,0,0-4.134,4.134V79.13Z" transform="translate(6.56 7.732)" fill="#001a2d"/>
            <path id="Trazado_174982" data-name="Trazado 174982" d="M16.675,40.259v36.5a3.543,3.543,0,0,0,3.543,3.543H84.873a3.543,3.543,0,0,0,3.543-3.543v-36.5a3.545,3.545,0,0,0-3.543-3.543H20.218a3.545,3.545,0,0,0-3.543,3.543" transform="translate(2.13 4.69)" fill="#2e8eb1"/>
            <path id="Trazado_174983" data-name="Trazado 174983" d="M22.96,64.738H80.527V43H22.96ZM53.846,54.473l-1.754,1.013L50.338,56.5a.7.7,0,0,1-1.045-.6v-4.05a.7.7,0,0,1,1.045-.6l3.507,2.025a.7.7,0,0,1,0,1.207" transform="translate(2.933 5.493)" fill="#fff"/>
            <path id="Trazado_174984" data-name="Trazado 174984" d="M78.25,70.566H24.981a2.314,2.314,0,1,1,0-4.627H78.25a2.314,2.314,0,1,1,0,4.627" transform="translate(2.896 8.424)" fill="#7cc6c1"/>
            <path id="Trazado_174985" data-name="Trazado 174985" d="M41.981,70.566h-17a2.314,2.314,0,1,1,0-4.627h17a2.314,2.314,0,1,1,0,4.627" transform="translate(2.896 8.424)" fill="#c9fbf8"/>
            <path id="Trazado_174986" data-name="Trazado 174986" d="M212.485,121.832a21.374,21.374,0,0,0,0,42Z" transform="translate(24.924 15.564)" fill="#001a2d"/>
            <path id="Trazado_174987" data-name="Trazado 174987" d="M238.636,142.091a21.376,21.376,0,1,1-21.375-21.375,21.375,21.375,0,0,1,21.375,21.375" transform="translate(25.024 15.421)" fill="#e01650"/>
            <path id="Trazado_174988" data-name="Trazado 174988" d="M226.65,132.984a7.25,7.25,0,0,0-2.047-2.1,10.289,10.289,0,0,0-2.511-1.256,15.131,15.131,0,0,0-1.852-.5,18.661,18.661,0,0,0-7.625,0,15.131,15.131,0,0,0-1.852.5,10.289,10.289,0,0,0-2.512,1.256,7.25,7.25,0,0,0-2.047,2.1,8.513,8.513,0,0,0-1.021,5.484,26.683,26.683,0,0,0,1.594,5.74,4.26,4.26,0,0,0,3.724,6.533l2.477-2.5-1.813,4.334a9.919,9.919,0,0,0,10.525,0l-1.813-4.334,2.477,2.5a4.26,4.26,0,0,0,3.724-6.533,26.684,26.684,0,0,0,1.594-5.74,8.513,8.513,0,0,0-1.021-5.484m-16.841,9.782-.041-.03c-1.672-1.282-.039-4.183,1.716-3.048a8.56,8.56,0,0,1,2.925,3.167c-1.63.443-3.246.932-4.6-.088m6.618,4.369-1.561.478,1.561-3.47,1.562,3.47Zm6.659-4.4-.041.03c-1.356,1.019-2.972.531-4.6.088a8.56,8.56,0,0,1,2.925-3.167c1.756-1.135,3.389,1.766,1.716,3.048" transform="translate(26.202 16.446)" fill="#fff"/>
            <path id="Trazado_174989" data-name="Trazado 174989" d="M250,111.045a13.475,13.475,0,1,1-13.474-13.474A13.475,13.475,0,0,1,250,111.045" transform="translate(28.494 12.465)" fill="#5bb8b2"/>
            <path id="Trazado_174990" data-name="Trazado 174990" d="M238.8,117.186h-6.041a3.869,3.869,0,0,1-3.865-3.865v-6.044a3.869,3.869,0,0,1,3.865-3.865H238.8a3.869,3.869,0,0,1,3.865,3.865v6.044a3.869,3.869,0,0,1-3.865,3.865m-6.041-12.508a2.6,2.6,0,0,0-2.6,2.6v6.044a2.6,2.6,0,0,0,2.6,2.6H238.8a2.6,2.6,0,0,0,2.6-2.6v-6.044a2.6,2.6,0,0,0-2.6-2.6Z" transform="translate(29.241 13.211)" fill="#fff"/>
            <path id="Trazado_174991" data-name="Trazado 174991" d="M235.4,113.43a3.514,3.514,0,1,1,3.513-3.513,3.516,3.516,0,0,1-3.513,3.513m0-5.762a2.249,2.249,0,1,0,2.249,2.249,2.252,2.252,0,0,0-2.249-2.249" transform="translate(29.623 13.593)" fill="#fff"/>
            <path id="Trazado_174992" data-name="Trazado 174992" d="M239.177,106.313a.843.843,0,1,1-.844-.844.844.844,0,0,1,.844.844" transform="translate(30.339 13.474)" fill="#fff"/>
            <path id="Trazado_174993" data-name="Trazado 174993" d="M28.614,108.434a5.8,5.8,0,0,0-11.6-.108c0,.085-.007.169-.007.254a5.7,5.7,0,0,0,.832,2.973l-1.045,3.09,3.212-1.021a5.81,5.81,0,0,0,8.606-5.042c0-.048,0-.1,0-.145m-5.8,4.986a4.872,4.872,0,0,1-2.683-.8l-1.875.6.61-1.8a4.792,4.792,0,0,1-.929-2.839c0-.158.009-.315.024-.469a4.881,4.881,0,0,1,9.717.091c.009.124.017.25.017.378a4.866,4.866,0,0,1-4.88,4.84m2.764-3.514a1.179,1.179,0,0,1-.083.671,1.433,1.433,0,0,1-.96.671c-.261.025-.261.213-1.707-.353a5.824,5.824,0,0,1-2.429-2.129,3.251,3.251,0,0,1-.509-.98,1.81,1.81,0,0,1-.073-.482,1.577,1.577,0,0,1,.5-1.176.525.525,0,0,1,.38-.177c.094,0,.188.012.273.012s.2-.047.318.236.4.978.44,1.047a.259.259,0,0,1,.011.248,1.526,1.526,0,0,1-.09.168.594.594,0,0,1-.053.068c-.069.082-.148.184-.212.247s-.147.147-.063.286a4.229,4.229,0,0,0,.792.979,3.887,3.887,0,0,0,1.144.7c.142.07.226.059.308-.036s.356-.412.451-.553.189-.117.32-.07.83.388.972.458.236.106.273.165" transform="translate(2.146 13.135)" fill="#5bb8b2"/>
            <path id="Trazado_174994" data-name="Trazado 174994" d="M172.368,23.433h-10.89a3.151,3.151,0,0,0-3.151,3.15V35.4a3.15,3.15,0,0,0,3.151,3.15h2.633l2.813,2.813,2.813-2.813h2.631a3.15,3.15,0,0,0,3.15-3.15V26.583a3.151,3.151,0,0,0-3.15-3.15" transform="translate(20.226 2.994)" fill="#e01650"/>
            <path id="Trazado_174995" data-name="Trazado 174995" d="M168.806,28.38a2.352,2.352,0,1,1-2.352-2.354,2.353,2.353,0,0,1,2.352,2.354m-2.352,2.941a4.816,4.816,0,0,0-4.446,3.634h8.89a4.813,4.813,0,0,0-4.444-3.634" transform="translate(20.696 3.325)" fill="#fff"/>
            <path id="Trazado_174996" data-name="Trazado 174996" d="M193.663,43.962h-.221a.6.6,0,0,0-.205-.012c-.3-.009-.606-.033-.908-.065a10.415,10.415,0,0,1-2.816-.735,10.333,10.333,0,0,1-1.342-.68.893.893,0,0,1-.235-.165,7.486,7.486,0,0,0,5.392-1.524,3.7,3.7,0,0,1-3.408-2.571c.134.018.268.042.4.051s.273,0,.409.006a2.589,2.589,0,0,0,.407-.036,2.653,2.653,0,0,0,.4-.086.307.307,0,0,0-.047-.018,3.69,3.69,0,0,1-1.986-1.192,3.522,3.522,0,0,1-.611-1,3.689,3.689,0,0,1-.281-1.384c0-.07.024-.067.07-.041a3.705,3.705,0,0,0,1.255.4.823.823,0,0,0,.317.01c-.021-.016-.034-.026-.046-.034a3.525,3.525,0,0,1-.663-.6,3.7,3.7,0,0,1-.9-2.222,3.508,3.508,0,0,1,.043-.791,3.848,3.848,0,0,1,.418-1.207c.033-.058.051-.048.087,0a10.189,10.189,0,0,0,.785.851,10.478,10.478,0,0,0,2.346,1.72,10.284,10.284,0,0,0,1.775.751,10.807,10.807,0,0,0,1.484.356,9.173,9.173,0,0,0,1.084.116c.062,0,.073-.011.06-.073a3.678,3.678,0,0,1-.032-1.36,3.538,3.538,0,0,1,.409-1.181,3.69,3.69,0,0,1,.8-1,3.8,3.8,0,0,1,.91-.589,3.677,3.677,0,0,1,1.457-.325,3.784,3.784,0,0,1,.85.085,3.581,3.581,0,0,1,.9.323,3.471,3.471,0,0,1,.968.723.079.079,0,0,0,.083.024c.176-.036.351-.08.523-.129a7.374,7.374,0,0,0,1.489-.6l.268-.147c.015.021,0,.033,0,.044a3.682,3.682,0,0,1-.8,1.348,4.151,4.151,0,0,1-.714.6l-.034.026c.01.011.023.008.034,0,.122-.018.245-.032.365-.054a7.372,7.372,0,0,0,1.535-.458c.034-.015.069-.045.121-.03-.037.055-.071.1-.106.154a7.539,7.539,0,0,1-1.662,1.693.1.1,0,0,0-.059.1A9.153,9.153,0,0,1,204,34.454a10.971,10.971,0,0,1-2.966,6.418,9.834,9.834,0,0,1-2.888,2.084,10.244,10.244,0,0,1-3.065.9c-.4.052-.8.081-1.194.1a.728.728,0,0,0-.221.012" transform="translate(24.009 3.748)" fill="#7cc6c1"/>
            <path id="Trazado_174997" data-name="Trazado 174997" d="M84.157,91.7c-.174.395-.8.655-1.16.761a1.056,1.056,0,0,1-.97-.144.987.987,0,0,1-.256-1.031c.2-.653,1.109-1.521,1.728-.836a3.534,3.534,0,0,1,.652.81.526.526,0,0,1,.007.44m1.1-.323a1.314,1.314,0,0,0,.527-.25,6.456,6.456,0,0,0,1.859-1.652,1.184,1.184,0,0,0,.2-1.131.929.929,0,0,0-.714-.468,2.148,2.148,0,0,0-.876.1,6.8,6.8,0,0,0-1.947.886.816.816,0,0,0-.4,1.063c.158.4.822,1.527,1.348,1.454m6.785-.806c-.123.413-.715.75-1.056.9a1.058,1.058,0,0,1-.981-.023.988.988,0,0,1-.383-.991c.115-.671.91-1.647,1.61-1.044a3.523,3.523,0,0,1,.748.722.525.525,0,0,1,.062.436M93.1,90.11a1.3,1.3,0,0,0,.491-.314,6.462,6.462,0,0,0,1.637-1.871,1.185,1.185,0,0,0,.061-1.148.927.927,0,0,0-.767-.376,2.155,2.155,0,0,0-.857.206,6.838,6.838,0,0,0-1.82,1.123.817.817,0,0,0-.264,1.105c.208.379,1.006,1.412,1.519,1.273m1.72-7.344c-.123.413-.714.75-1.054.9a1.054,1.054,0,0,1-.981-.023.988.988,0,0,1-.383-.99c.115-.672.91-1.648,1.61-1.045a3.55,3.55,0,0,1,.748.722.521.521,0,0,1,.061.436m1.057-.459a1.282,1.282,0,0,0,.489-.314,6.449,6.449,0,0,0,1.639-1.871,1.185,1.185,0,0,0,.061-1.148A.927.927,0,0,0,97.3,78.6a2.155,2.155,0,0,0-.857.206,6.862,6.862,0,0,0-1.821,1.123.819.819,0,0,0-.264,1.105c.208.378,1.007,1.412,1.52,1.273m6.018-.263c-.152.4-.768.695-1.119.819a1.056,1.056,0,0,1-.977-.095.986.986,0,0,1-.308-1.016c.164-.662,1.029-1.575,1.683-.924a3.558,3.558,0,0,1,.692.776.52.52,0,0,1,.028.44m1.088-.379a1.3,1.3,0,0,0,.512-.277,6.46,6.46,0,0,0,1.773-1.743,1.184,1.184,0,0,0,.144-1.14.928.928,0,0,0-.736-.432,2.156,2.156,0,0,0-.869.142,6.856,6.856,0,0,0-1.9.986.816.816,0,0,0-.345,1.082c.178.394.9,1.484,1.421,1.384m3.25-6.732a1.94,1.94,0,0,1-1.294.5,1.056,1.056,0,0,1-.919-.345.99.99,0,0,1-.033-1.062c.33-.6,1.4-1.253,1.866-.452a3.554,3.554,0,0,1,.466.929.524.524,0,0,1-.087.432m1.148-.083a1.288,1.288,0,0,0,.567-.133,6.465,6.465,0,0,0,2.165-1.222,1.183,1.183,0,0,0,.436-1.063.928.928,0,0,0-.6-.609,2.152,2.152,0,0,0-.877-.088,6.813,6.813,0,0,0-2.09.456.817.817,0,0,0-.616.955c.071.426.483,1.667,1.012,1.705m6.12,2.216a1.947,1.947,0,0,1-1.387-.007,1.058,1.058,0,0,1-.729-.657.987.987,0,0,1,.356-1c.526-.434,1.764-.654,1.9.259a3.568,3.568,0,0,1,.095,1.034.52.52,0,0,1-.238.371m1.1.342a1.288,1.288,0,0,0,.576.082,6.438,6.438,0,0,0,2.462-.348,1.186,1.186,0,0,0,.8-.83.931.931,0,0,0-.335-.785,2.147,2.147,0,0,0-.785-.4,6.818,6.818,0,0,0-2.112-.337.816.816,0,0,0-.921.664c-.09.422-.159,1.728.32,1.957" transform="translate(10.44 9.163)" fill="#acd4ff"/>
            <path id="Trazado_174998" data-name="Trazado 174998" d="M145.193,149.091a1.938,1.938,0,0,1,1.2-.69,1.057,1.057,0,0,1,.96.2.988.988,0,0,1,.194,1.044c-.236.639-1.2,1.453-1.775.732a3.53,3.53,0,0,1-.6-.847.531.531,0,0,1,.019-.441m-1.122.257a1.3,1.3,0,0,0-.54.219,6.447,6.447,0,0,0-1.954,1.538,1.186,1.186,0,0,0-.27,1.116.928.928,0,0,0,.683.511,2.179,2.179,0,0,0,.882-.046,6.861,6.861,0,0,0,1.995-.769.819.819,0,0,0,.465-1.038c-.136-.411-.732-1.573-1.261-1.531m-5.965-.848a1.946,1.946,0,0,1,1.251-.6,1.058,1.058,0,0,1,.943.273.99.99,0,0,1,.116,1.056c-.283.62-1.3,1.359-1.825.6a3.5,3.5,0,0,1-.537-.89.522.522,0,0,1,.052-.438m-1.138.174a1.285,1.285,0,0,0-.555.178,6.46,6.46,0,0,0-2.063,1.388,1.184,1.184,0,0,0-.353,1.094.926.926,0,0,0,.645.559,2.149,2.149,0,0,0,.882.02,6.814,6.814,0,0,0,2.047-.619.818.818,0,0,0,.539-1c-.1-.42-.612-1.624-1.142-1.621m-4.433,6.02a1.94,1.94,0,0,1,1.363-.254,1.061,1.061,0,0,1,.84.509.989.989,0,0,1-.164,1.05c-.434.524-1.61.973-1.917.1a3.537,3.537,0,0,1-.286-1,.521.521,0,0,1,.164-.408m-1.142-.13a1.294,1.294,0,0,0-.583.027,6.46,6.46,0,0,0-2.354.8,1.185,1.185,0,0,0-.625.964.928.928,0,0,0,.477.708,2.154,2.154,0,0,0,.846.248,6.835,6.835,0,0,0,2.138-.064.818.818,0,0,0,.78-.826c.009-.432-.168-1.727-.68-1.862m-5.608-3.3a1.934,1.934,0,0,1,1.36.262,1.064,1.064,0,0,1,.6.78.993.993,0,0,1-.537.918c-.6.33-1.854.319-1.821-.6a3.535,3.535,0,0,1,.1-1.035.519.519,0,0,1,.3-.32m-1.018-.538a1.293,1.293,0,0,0-.553-.186,6.42,6.42,0,0,0-2.484-.111,1.185,1.185,0,0,0-.934.67.93.93,0,0,0,.185.833,2.185,2.185,0,0,0,.7.54,6.856,6.856,0,0,0,2.015.72.817.817,0,0,0,1.027-.484c.166-.4.474-1.669.046-1.983" transform="translate(15.427 18.892)" fill="#acd4ff"/>
            <path id="Trazado_174999" data-name="Trazado 174999" d="M150.688,40.312V38.943a.274.274,0,0,0-.274-.274h-10.94a.274.274,0,0,0-.274.274v1.369a.274.274,0,0,0,.274.274h.44c-.238,3.843,1.228,4.835,2.616,6.042s2.048,1.963,2.048,2.515-.659,1.31-2.048,2.517-2.854,2.2-2.616,6.041h-.44a.274.274,0,0,0-.274.274v1.368a.275.275,0,0,0,.274.275h10.94a.274.274,0,0,0,.274-.275V57.976a.273.273,0,0,0-.274-.274h-.44c.238-3.844-1.228-4.836-2.616-6.041s-2.047-1.965-2.047-2.517.659-1.309,2.047-2.515,2.854-2.2,2.616-6.042h.44a.274.274,0,0,0,.274-.274M149.467,57.7h-9.045c.151-1.7,4.035-2.8,4.522-3.2.486.4,4.371,1.493,4.522,3.2m-2.906-11.3c-.08.069-.159.136-.239.208a15.175,15.175,0,0,0-1.377,1.317,15.358,15.358,0,0,0-1.378-1.317c-.079-.071-.159-.139-.238-.208-.911-.782-2.346-2.045-2.346-3.108h7.922c0,1.065-1.434,2.327-2.345,3.108" transform="translate(17.783 4.94)" fill="#2e8eb1"/>
            <path id="Trazado_175000" data-name="Trazado 175000" d="M35.986,127.823a16.648,16.648,0,0,0,6.085,3.928h0a16.648,16.648,0,0,0,6.085-3.928Z" transform="translate(4.597 16.329)" fill="#001a2d"/>
            <path id="Trazado_175001" data-name="Trazado 175001" d="M43.353,133.144h0a16.7,16.7,0,0,1-10.918-15.662v-7.027h21.84v7.027a16.7,16.7,0,0,1-10.919,15.662" transform="translate(4.143 14.111)" fill="#c7e2ff"/>
            <path id="Trazado_175002" data-name="Trazado 175002" d="M44.853,116.5a2.46,2.46,0,1,0-3.373,2.283,9.549,9.549,0,0,0-1.546,5.188h4.919a9.549,9.549,0,0,0-1.546-5.188,2.46,2.46,0,0,0,1.546-2.283" transform="translate(5.102 14.568)" fill="#001a2d"/>
            <path id="Trazado_175003" data-name="Trazado 175003" d="M50.923,111.765H47.4v-6.285a1.766,1.766,0,0,0-1.764-1.764H40.587a1.765,1.765,0,0,0-1.764,1.764v3.267l-3.528-.725v-2.542a5.3,5.3,0,0,1,5.291-5.293h5.044a5.3,5.3,0,0,1,5.291,5.293Z" transform="translate(4.509 12.799)" fill="#fff"/>
            <line id="Línea_149" data-name="Línea 149" y2="41.773" transform="translate(141.402 13.053)" fill="none" stroke="#2e8eb1" stroke-miterlimit="10" stroke-width="1"/>
            <line id="Línea_150" data-name="Línea 150" y2="38.801" transform="translate(108.01 12.22)" fill="none" stroke="#2e8eb1" stroke-miterlimit="10" stroke-width="1"/>
            <path id="Trazado_175004" data-name="Trazado 175004" d="M103.461,50.962h26.226a1.669,1.669,0,1,0,0-3.338H103.461a1.669,1.669,0,0,0,0,3.338" transform="translate(13.004 6.084)" fill="#e01650"/>
            <rect id="Rectángulo_37604" data-name="Rectángulo 37604" width="2.578" height="2.82" transform="translate(140.113 57.046)" fill="#e01650"/>
            <rect id="Rectángulo_37605" data-name="Rectángulo 37605" width="1.934" height="2.257" transform="translate(136.568 57.046)" fill="#e01650"/>
            <rect id="Rectángulo_37606" data-name="Rectángulo 37606" width="2.014" height="2.257" transform="translate(132.781 57.046)" fill="#e01650"/>
            <rect id="Rectángulo_37607" data-name="Rectángulo 37607" width="22.1" height="0.398" transform="translate(120.59 54.427)" fill="#ff9192"/>
            <rect id="Rectángulo_37608" data-name="Rectángulo 37608" width="2.578" height="0.564" transform="translate(140.113 59.303)" fill="#ff93b2"/>
            <rect id="Rectángulo_37609" data-name="Rectángulo 37609" width="1.934" height="0.466" transform="translate(136.568 58.837)" fill="#ff93b2"/>
            <rect id="Rectángulo_37610" data-name="Rectángulo 37610" width="2.014" height="0.466" transform="translate(132.781 58.837)" fill="#ff93b2"/>
            <path id="Trazado_175005" data-name="Trazado 175005" d="M90.709,49.587A8.583,8.583,0,1,0,99.292,41a8.584,8.584,0,0,0-8.583,8.583" transform="translate(11.588 5.238)" fill="#e01650"/>
            <path id="Trazado_175006" data-name="Trazado 175006" d="M91.805,49.447A7.347,7.347,0,1,0,99.151,42.1a7.347,7.347,0,0,0-7.346,7.346" transform="translate(11.728 5.378)" fill="#bc1445"/>
            <path id="Trazado_175007" data-name="Trazado 175007" d="M94.56,48.836A1.939,1.939,0,1,0,96.5,46.9a1.939,1.939,0,0,0-1.939,1.94" transform="translate(12.08 5.991)" fill="#fff"/>
            <path id="Trazado_175008" data-name="Trazado 175008" d="M90.784,10c2.058-2.157,6.633-2.249,8.976-.4a10.631,10.631,0,0,1,14.36-4.8c.954-2.637,5.085-5.838,11.055-4.457,4.025.932,7.628,4.818,6.576,8.812a6.575,6.575,0,0,1,6.667,4.1,9.363,9.363,0,0,1-.8,8.1H91.948S85.186,15.863,90.784,10" transform="translate(11.314 0)" fill="#2e8eb1"/>
          </g>
        </g>
      </g>
    </g>
  </g>
</svg>
