<svg xmlns="http://www.w3.org/2000/svg" width="119.931" height="119.93" viewBox="0 0 119.931 119.93">
  <g id="Grupo_143596" data-name="Grupo 143596" transform="translate(-7620 5886.453)">
    <path id="Trazado_187935" data-name="Trazado 187935" d="M117.431,202.843a52.8,52.8,0,1,0-52.8,52.8,52.8,52.8,0,0,0,52.8-52.8" transform="translate(7620 -6034)" fill="#fff"/>
    <path id="Trazado_187936" data-name="Trazado 187936" d="M117.431,202.843a52.8,52.8,0,1,0-52.8,52.8A52.8,52.8,0,0,0,117.431,202.843Z" transform="translate(7620 -6034)" fill="none" stroke="#5c379b" stroke-miterlimit="10" stroke-width="1"/>
    <path id="Trazado_187937" data-name="Trazado 187937" d="M105.342,236.466a52.815,52.815,0,0,0-59.281-83.06" transform="translate(7620 -6034)" fill="none" stroke="#a7f" stroke-miterlimit="10" stroke-width="5"/>
    <path id="Trazado_187938" data-name="Trazado 187938" d="M5.853,182.657A62.187,62.187,0,0,0,75.2,264.083" transform="translate(7620 -6034)" fill="none" stroke="#5c379b" stroke-miterlimit="10" stroke-width="5"/>
    <path id="Trazado_187964" data-name="Trazado 187964" d="M92.224,217.244l-.017,5.386a1.693,1.693,0,0,1-.99,1.4l-24.09,13.983a5.217,5.217,0,0,1-4.815,0l-24.261-14a1.717,1.717,0,0,1-1.008-1.4l.018-5.4a1.739,1.739,0,0,0,1.007,1.417l24.261,14a5.319,5.319,0,0,0,4.815,0l24.09-14A1.7,1.7,0,0,0,92.224,217.244Z" transform="translate(7620 -6034)" fill="#714fd0"/>
    <path id="Trazado_187965" data-name="Trazado 187965" d="M91.215,215.831c1.341.774,1.348,2.02.016,2.794l-24.086,14a5.3,5.3,0,0,1-4.824,0l-24.254-14c-1.33-.767-1.348-2.02-.016-2.794l24.086-14a5.32,5.32,0,0,1,4.824,0Z" transform="translate(7620 -6034)" fill="#8070fb"/>
    <path id="Trazado_187966" data-name="Trazado 187966" d="M91.293,221.3,67.067,235.36a5.1,5.1,0,0,1-4.695,0l-24.4-14.077a1.664,1.664,0,0,1-.925-1.185v.029a1.611,1.611,0,0,0,.77,1.4l.01.006,24.394,14.077a5.421,5.421,0,0,0,4.987,0l24.226-14.061.01-.006a1.613,1.613,0,0,0,.767-1.385v-.139a1.563,1.563,0,0,1-.923,1.28" transform="translate(7620 -6034)" fill="#9b90ff"/>
    <path id="Trazado_187967" data-name="Trazado 187967" d="M90.324,221.672a.369.369,0,0,0-.377.029.982.982,0,0,0-.453.783.372.372,0,0,0,.164.338.3.3,0,0,0,.151.039.455.455,0,0,0,.226-.068.982.982,0,0,0,.453-.783.371.371,0,0,0-.164-.338" transform="translate(7620 -6034)" fill="#9b90ff"/>
    <path id="Trazado_187968" data-name="Trazado 187968" d="M88.145,222.742a.977.977,0,0,0-.452.783.368.368,0,0,0,.163.338.3.3,0,0,0,.151.039.448.448,0,0,0,.226-.068.984.984,0,0,0,.453-.783.335.335,0,0,0-.541-.309Z" transform="translate(7620 -6034)" fill="#9b90ff"/>
    <path id="Trazado_187969" data-name="Trazado 187969" d="M86.342,223.782a.979.979,0,0,0-.452.784.369.369,0,0,0,.163.337.3.3,0,0,0,.151.039.448.448,0,0,0,.227-.068.984.984,0,0,0,.452-.783.335.335,0,0,0-.541-.309" transform="translate(7620 -6034)" fill="#9b90ff"/>
    <path id="Trazado_187970" data-name="Trazado 187970" d="M84.54,224.823a.983.983,0,0,0-.454.784.372.372,0,0,0,.166.338.3.3,0,0,0,.149.038.448.448,0,0,0,.227-.068.978.978,0,0,0,.449-.781.374.374,0,0,0-.165-.34A.364.364,0,0,0,84.54,224.823Z" transform="translate(7620 -6034)" fill="#9b90ff"/>
    <path id="Trazado_187971" data-name="Trazado 187971" d="M82.733,225.866a.974.974,0,0,0-.449.781.368.368,0,0,0,.164.34.292.292,0,0,0,.148.039.454.454,0,0,0,.225-.068.981.981,0,0,0,.452-.783.334.334,0,0,0-.54-.309" transform="translate(7620 -6034)" fill="#9b90ff"/>
    <path id="Trazado_187972" data-name="Trazado 187972" d="M80.93,226.907a.979.979,0,0,0-.452.784.369.369,0,0,0,.163.337.3.3,0,0,0,.151.039.448.448,0,0,0,.227-.068.984.984,0,0,0,.452-.783.335.335,0,0,0-.541-.309" transform="translate(7620 -6034)" fill="#9b90ff"/>
    <path id="Trazado_187973" data-name="Trazado 187973" d="M79.129,227.947a.983.983,0,0,0-.454.784.372.372,0,0,0,.164.337.3.3,0,0,0,.151.039.451.451,0,0,0,.227-.068.981.981,0,0,0,.452-.783.334.334,0,0,0-.54-.309" transform="translate(7620 -6034)" fill="#9b90ff"/>
    <path id="Trazado_187974" data-name="Trazado 187974" d="M77.326,228.987a.98.98,0,0,0-.453.784.368.368,0,0,0,.163.338.3.3,0,0,0,.15.039.455.455,0,0,0,.226-.068.985.985,0,0,0,.454-.784.334.334,0,0,0-.54-.309" transform="translate(7620 -6034)" fill="#9b90ff"/>
    <path id="Trazado_187975" data-name="Trazado 187975" d="M75.522,230.028a.982.982,0,0,0-.452.784.369.369,0,0,0,.163.337.294.294,0,0,0,.151.04.459.459,0,0,0,.227-.068.987.987,0,0,0,.452-.783.335.335,0,0,0-.541-.31Z" transform="translate(7620 -6034)" fill="#9b90ff"/>
    <path id="Trazado_187976" data-name="Trazado 187976" d="M73.721,231.069a.979.979,0,0,0-.452.784.368.368,0,0,0,.163.338.3.3,0,0,0,.15.039.452.452,0,0,0,.226-.068.986.986,0,0,0,.454-.784.335.335,0,0,0-.541-.309Z" transform="translate(7620 -6034)" fill="#9b90ff"/>
    <path id="Trazado_187977" data-name="Trazado 187977" d="M71.918,232.11a.982.982,0,0,0-.452.784.372.372,0,0,0,.163.338.3.3,0,0,0,.151.039.459.459,0,0,0,.227-.068.986.986,0,0,0,.449-.781.376.376,0,0,0-.164-.341A.37.37,0,0,0,71.918,232.11Z" transform="translate(7620 -6034)" fill="#9b90ff"/>
    <path id="Trazado_187978" data-name="Trazado 187978" d="M70.116,233.15a.985.985,0,0,0-.454.784.372.372,0,0,0,.166.338.294.294,0,0,0,.15.039.458.458,0,0,0,.226-.068.981.981,0,0,0,.449-.781.373.373,0,0,0-.165-.341A.367.367,0,0,0,70.116,233.15Z" transform="translate(7620 -6034)" fill="#9b90ff"/>
    <path id="Trazado_187979" data-name="Trazado 187979" d="M68.309,234.193a.985.985,0,0,0-.454.784.369.369,0,0,0,.166.337.282.282,0,0,0,.149.04.45.45,0,0,0,.227-.069.984.984,0,0,0,.453-.783.335.335,0,0,0-.541-.309Z" transform="translate(7620 -6034)" fill="#9b90ff"/>
    <path id="Trazado_187980" data-name="Trazado 187980" d="M39.029,221.672a.369.369,0,0,1,.377.029.982.982,0,0,1,.453.783.372.372,0,0,1-.164.338.3.3,0,0,1-.151.039.455.455,0,0,1-.226-.068.982.982,0,0,1-.453-.783.371.371,0,0,1,.164-.338" transform="translate(7620 -6034)" fill="#9b90ff"/>
    <path id="Trazado_187981" data-name="Trazado 187981" d="M41.209,222.742a.977.977,0,0,1,.452.783.368.368,0,0,1-.163.338.3.3,0,0,1-.151.039.448.448,0,0,1-.226-.068.984.984,0,0,1-.453-.783.335.335,0,0,1,.541-.309" transform="translate(7620 -6034)" fill="#9b90ff"/>
    <path id="Trazado_187982" data-name="Trazado 187982" d="M43.012,223.782a.979.979,0,0,1,.452.784.369.369,0,0,1-.163.337.3.3,0,0,1-.151.039.448.448,0,0,1-.227-.068.984.984,0,0,1-.452-.783.335.335,0,0,1,.541-.309" transform="translate(7620 -6034)" fill="#9b90ff"/>
    <path id="Trazado_187983" data-name="Trazado 187983" d="M44.814,224.823a.983.983,0,0,1,.454.784.372.372,0,0,1-.166.338.3.3,0,0,1-.149.038.448.448,0,0,1-.227-.068.978.978,0,0,1-.449-.781.374.374,0,0,1,.165-.34.364.364,0,0,1,.372.029" transform="translate(7620 -6034)" fill="#9b90ff"/>
    <path id="Trazado_187984" data-name="Trazado 187984" d="M46.62,225.866a.974.974,0,0,1,.449.781.368.368,0,0,1-.164.34.292.292,0,0,1-.148.039.454.454,0,0,1-.225-.068.981.981,0,0,1-.452-.783.334.334,0,0,1,.54-.309" transform="translate(7620 -6034)" fill="#9b90ff"/>
    <path id="Trazado_187985" data-name="Trazado 187985" d="M48.423,226.907a.979.979,0,0,1,.452.784.369.369,0,0,1-.163.337.3.3,0,0,1-.151.039.448.448,0,0,1-.227-.068.984.984,0,0,1-.452-.783.335.335,0,0,1,.541-.309" transform="translate(7620 -6034)" fill="#9b90ff"/>
    <path id="Trazado_187986" data-name="Trazado 187986" d="M50.225,227.947a.983.983,0,0,1,.454.784.372.372,0,0,1-.164.337.3.3,0,0,1-.151.039.451.451,0,0,1-.227-.068.981.981,0,0,1-.452-.783.334.334,0,0,1,.54-.309" transform="translate(7620 -6034)" fill="#9b90ff"/>
    <path id="Trazado_187987" data-name="Trazado 187987" d="M52.028,228.987a.982.982,0,0,1,.452.784.368.368,0,0,1-.163.338.3.3,0,0,1-.15.039.452.452,0,0,1-.226-.068.985.985,0,0,1-.454-.784.335.335,0,0,1,.541-.309Z" transform="translate(7620 -6034)" fill="#9b90ff"/>
    <path id="Trazado_187988" data-name="Trazado 187988" d="M53.831,230.028a.982.982,0,0,1,.452.784.369.369,0,0,1-.163.337.294.294,0,0,1-.151.04.459.459,0,0,1-.227-.068.987.987,0,0,1-.452-.783.335.335,0,0,1,.541-.31" transform="translate(7620 -6034)" fill="#9b90ff"/>
    <path id="Trazado_187989" data-name="Trazado 187989" d="M55.633,231.069a.979.979,0,0,1,.452.784.368.368,0,0,1-.163.338.3.3,0,0,1-.15.039.452.452,0,0,1-.226-.068.986.986,0,0,1-.454-.784.335.335,0,0,1,.541-.309" transform="translate(7620 -6034)" fill="#9b90ff"/>
    <path id="Trazado_187990" data-name="Trazado 187990" d="M57.436,232.11a.982.982,0,0,1,.452.784.372.372,0,0,1-.163.338.3.3,0,0,1-.151.039.459.459,0,0,1-.227-.068.986.986,0,0,1-.449-.781.376.376,0,0,1,.164-.341A.37.37,0,0,1,57.436,232.11Z" transform="translate(7620 -6034)" fill="#9b90ff"/>
    <path id="Trazado_187991" data-name="Trazado 187991" d="M59.237,233.15a.985.985,0,0,1,.454.784.372.372,0,0,1-.166.338.294.294,0,0,1-.15.039.458.458,0,0,1-.226-.068.981.981,0,0,1-.449-.781.373.373,0,0,1,.165-.341A.367.367,0,0,1,59.237,233.15Z" transform="translate(7620 -6034)" fill="#9b90ff"/>
    <path id="Trazado_187992" data-name="Trazado 187992" d="M61.044,234.193a.985.985,0,0,1,.454.784.369.369,0,0,1-.166.337.282.282,0,0,1-.149.04.45.45,0,0,1-.227-.069.984.984,0,0,1-.453-.783.335.335,0,0,1,.541-.309Z" transform="translate(7620 -6034)" fill="#9b90ff"/>
    <path id="Trazado_187993" data-name="Trazado 187993" d="M87.251,215.835a1.255,1.255,0,0,1,.013,2.378l-20.5,11.91a4.509,4.509,0,0,1-4.1,0L42.027,218.208a1.257,1.257,0,0,1-.014-2.378l20.495-11.91a4.524,4.524,0,0,1,4.1,0Z" transform="translate(7620 -6034)" fill="#fff"/>
    <path id="Trazado_187994" data-name="Trazado 187994" d="M84.444,210.2a1.1,1.1,0,0,1,.012,2.082l-17.95,10.432a3.952,3.952,0,0,1-3.6,0L44.835,212.278a1.1,1.1,0,0,1-.012-2.082l17.95-10.432a3.967,3.967,0,0,1,3.6,0Z" transform="translate(7620 -6034)" fill="#9b90ff"/>
    <path id="Trazado_187995" data-name="Trazado 187995" d="M85.2,211.253l-.013,5.764a1.259,1.259,0,0,1-.738,1.043L66.492,228.481a3.887,3.887,0,0,1-3.588,0L44.823,218.048A1.281,1.281,0,0,1,44.072,217l.013-5.776a1.3,1.3,0,0,0,.751,1.056l18.08,10.433a3.962,3.962,0,0,0,3.589,0l17.953-10.433a1.263,1.263,0,0,0,.738-1.031" transform="translate(7620 -6034)" fill="#714fd0"/>
    <path id="Trazado_187996" data-name="Trazado 187996" d="M72.275,206.313c4.243,2.449,4.265,6.422.05,8.872a16.885,16.885,0,0,1-15.317,0c-4.242-2.45-4.264-6.423-.05-8.872a16.882,16.882,0,0,1,15.317,0" transform="translate(7620 -6034)" fill="#fff"/>
    <path id="Trazado_187997" data-name="Trazado 187997" d="M64.628,168.524a14.54,14.54,0,1,1-14.54,14.54,14.54,14.54,0,0,1,14.54-14.54" transform="translate(7620 -6034)" fill="#9b90ff"/>
    <path id="Trazado_187998" data-name="Trazado 187998" d="M73.962,175.264a2,2,0,0,0-.055.581c.011.534-.512.075-.852.419-.549.557-.782.765-1.089.8-.222.024-.343.159-.195.294a.482.482,0,0,1,.152.447c-.015.335-.015.568-.861.537-.449-.016-.168,0-.349,1.052l.507.221a.508.508,0,0,1,.654.1c.208-.252-.2-.194,1.021-1.4.189-.186,1.016.01,1.343.14.632.252.5.172.792.874.249-.019.406-.615.032-.782-.266-.119-.479-.282-.481-.579.479.1.04.473.812.512.41.021.376.183.741,1.071.513-.229.268-.3.486-.737.672.281.207.819.871.824,1.028.006,1.356-.3.919.785a.525.525,0,0,1-.5.3c-1.814.165-2.081-.774-2.235.059-.065.351-.4-.03-.545-.1-1.386-.613-1.287-.2-.943-1.161-.536.039-2.942.1-3.081.87-.707-.116-.522.305-.667.454-.162.166-.381.306-.327.564.007.03-.063.1-.108.1-.24.042-.282.211-.377.359-.043.066-.555.553-.525.615.315.66-.508,1.37.313,2.032.292.235.719,1.6,2.951.976.879-.246.365.132,1.088.2.1.01.264.079.269.131a.879.879,0,0,1-.05.56c-.37.537.6,1.042.55,1.723-.194,2.764.672,3.33,1.088,4.812a14.487,14.487,0,0,0,3.842-9.147,4.793,4.793,0,0,1-.665-1.467c-.389-1-.328-.67-.27-.99.8.153.227.45.716,1.04.072.087.156.168.226.255A14.459,14.459,0,0,0,76.725,175C76.575,175.059,75.4,176.831,73.962,175.264Z" transform="translate(7620 -6034)" fill="#8070fb"/>
    <path id="Trazado_187999" data-name="Trazado 187999" d="M66.127,188.2c-.045.08-.089.2-.169.224-.74.2-.274,1.143-.877,1.559-.06.045-.124.12-.187.12-.391,0-.512.323-.79.455-.236.11.2.764-.682,1.217-.35.175-.144.754-1.118.431-.031.02-.068.036-.1.052a1.935,1.935,0,0,0,.271.4c.323.286-.283.631-.747.6a3.442,3.442,0,0,0-.9,1.449c-.036.083.132.227.216.363-.016.173-.762-.013-.037,1.651-.271-.02-.223.083-1.316-.57-.244-.143-.22-.131-.121-3.332,0-.165.218-.511.229-.69.217-2.731.37-3.075-.268-3.308-1.118-.4-.642-1.217-.982-1.6-1.078-1.222.833-1.739.308-2.554a.09.09,0,0,1,0-.079,2.586,2.586,0,0,0-.507.048,2.531,2.531,0,0,1-1.2-.807c-.195-.276-.337-.053-.985-.586-.125-.107-1.972.051-2.374-1.261a2.661,2.661,0,0,0-.607-1c-.29-.331-.243-.6-.674-.687.259.467.523.934.782,1.4-.04.024-.08.052-.12.08-.62-.414-.835-1.47-1.364-1.884a2.462,2.462,0,0,1-.926-1.548,14.557,14.557,0,0,1,5.016-6.9.018.018,0,0,1-.008.012.881.881,0,0,0-.124.348c.377.023.628.087.674-.048.164-.419.671-.507,1.026-.743.386.34.386.34.307.679.135-.028.259-.044.378-.076.583-.164.557.9-.677,1.3-1.031.339-.957,1.329-.8,1.36.347.085-.032.511.6.487s.171.3.806.335c.351.012.386.036.363.335s.284.367.575.519c.084-.655.084-.87.247-1.034s.25-.3.172-.5c-.044-.113.024-.662-.012-.838s.032-.22.2-.236c.558-.06.474.031,1.457.567-.02.168-.04.347-.064.531.056.028.112.055.163.083.14-.179.276-.359.415-.542a1.131,1.131,0,0,0,.124.028,2.774,2.774,0,0,0,1.528,1.679c-2.99,1.2-1.526,1.739-2.206,1.792-.337.029-.746.005-.659.415.1.5-.837-.011-.981.854a1.645,1.645,0,0,1-.77,1.1c-.533.364-.1,1.2-.224,1.5-.227-.227-.587-.355-.614-.706-.01-.2-.4-.243-.543-.295-.163-.064-.284-.072-.339.108s-.191.147-.339.063c-1.519-.853-1.5,2.807-.267,2.019a6.322,6.322,0,0,0,.518-.438c.705.067.152.17.2.953,0,.048.195.14.263.12.389-.119.432.222.487.686s.04.463.571.523c.06.008.306.024.606.04l.012-.012c.523-.452.892-.759,1.393-.475.6.35,1.556-.031,1.887.937.075.216.186.3.455.22a.747.747,0,0,1,.9.487c.114.789.774.446,1.193.57a4.775,4.775,0,0,1,1.46.874C66.641,187.31,66.364,187.776,66.127,188.2Z" transform="translate(7620 -6034)" fill="#8070fb"/>
    <path id="Trazado_188000" data-name="Trazado 188000" d="M63.242,168.924c-.058.134.208.453.208.471-.017.34.237.321.519.29.407-.045.314.089.481,1.268.037.258.252.146.145,1.549a1.418,1.418,0,0,0,.651,1.418c.047-.135.085-.237.116-.34a2.286,2.286,0,0,1,.677-1.261c.256-.207.3-.625.825-.572.051.005.114-.062.169-.1.425-.274.142-.815.6-1.59.076-.129.17-.221.124-.373-.081-.273.073-.554-.025-.828a14.547,14.547,0,0,0-3.908-.31c-.043.043-.09.078-.115.074-.314-.054-.4.154-.462.3" transform="translate(7620 -6034)" fill="#8070fb"/>
    <path id="Trazado_188001" data-name="Trazado 188001" d="M58.607,170.184a3.8,3.8,0,0,0,.4.031c.012.021.023.042.034.063a1.392,1.392,0,0,1-.318.179c-.224.057-.436.175-.4.349a.752.752,0,0,0,.9.554c.7-.077,1.649.342,1.274,1-.15.261-.458.154-.694.259-.039.319.417.209.686.332.37.17.732.352,1.087.525.181-.629.512-.019-.013-1.053.407.046.671.169.684-.139a.556.556,0,0,0-.136-.338,4.276,4.276,0,0,0-.448-.467c-.407-.378-.738-.855-1.5-.766a.676.676,0,0,1-.391-.16c-.028-.019.07-.159.1-.246.018-.047.011-.1.033-.146a.872.872,0,0,1,.169-.293,5.686,5.686,0,0,0,1.03-.91,14.5,14.5,0,0,0-2.7.967v.011c-.1.195.059.223.2.25" transform="translate(7620 -6034)" fill="#8070fb"/>
    <path id="Trazado_188002" data-name="Trazado 188002" d="M50.451,176.639c.187.4.4.8.615,1.2.1-.26.22-.51.335-.763-.122-.239-.255-.481-.366-.717-1.67-3.525-1.907-6.268-.648-7.526s4-1.02,7.524.65a44.306,44.306,0,0,1,11.656,8.656A44.328,44.328,0,0,1,78.223,189.8c1.669,3.524,1.906,6.267.648,7.525a3.219,3.219,0,0,1-2.351.8,12.8,12.8,0,0,1-5.174-1.447c-.232-.11-.471-.241-.706-.361-.258.117-.522.221-.787.323.409.219.817.432,1.216.621,3.842,1.82,6.775,2.006,8.258.522s1.3-4.417-.521-8.258a44.973,44.973,0,0,0-8.782-11.836A44.985,44.985,0,0,0,58.188,168.9a13.346,13.346,0,0,0-5.452-1.514,3.82,3.82,0,0,0-2.806.992C48.446,169.865,48.631,172.8,50.451,176.639Z" transform="translate(7620 -6034)" fill="#3e3b51"/>
    <path id="Trazado_188003" data-name="Trazado 188003" d="M57.911,196.675c-3.523,1.67-6.267,1.907-7.524.649s-1.022-4,.648-7.525a44.355,44.355,0,0,1,8.655-11.656,44.348,44.348,0,0,1,11.657-8.656,12.767,12.767,0,0,1,5.173-1.447,3.215,3.215,0,0,1,2.351.8c1.258,1.258,1.021,4-.648,7.525-.109.231-.239.468-.358.7.118.26.213.531.317.8.221-.412.434-.821.625-1.224,1.819-3.84,2-6.774.52-8.258s-4.413-1.3-8.258.522a45.026,45.026,0,0,0-11.835,8.784,44.963,44.963,0,0,0-8.783,11.836c-1.82,3.841-2.005,6.774-.521,8.258a3.82,3.82,0,0,0,2.806.992,13.37,13.37,0,0,0,5.453-1.514c.4-.189.805-.4,1.214-.62-.265-.1-.527-.208-.784-.325C58.383,196.435,58.143,196.565,57.911,196.675Z" transform="translate(7620 -6034)" fill="#3e3b51"/>
    <path id="Trazado_188004" data-name="Trazado 188004" d="M79.169,167.085a1.673,1.673,0,1,1-1.674,1.673,1.673,1.673,0,0,1,1.674-1.673" transform="translate(7620 -6034)" fill="#fe607c"/>
    <path id="Trazado_188005" data-name="Trazado 188005" d="M49.586,192.685a1.673,1.673,0,1,1-1.673,1.673,1.673,1.673,0,0,1,1.673-1.673" transform="translate(7620 -6034)" fill="#fe607c"/>
    <path id="Trazado_188006" data-name="Trazado 188006" d="M58.609,167.876a1.673,1.673,0,1,1-1.673,1.673,1.673,1.673,0,0,1,1.673-1.673" transform="translate(7620 -6034)" fill="#fe607c"/>
    <path id="Trazado_188007" data-name="Trazado 188007" d="M50.609,187.6l3.2,23.236c.039,1.575,1.115,3.151,3.194,4.352,4.248,2.454,11.1,2.454,15.314,0,2.079-1.213,3.125-2.789,3.151-4.352l3.2-23.236A71.652,71.652,0,0,1,50.609,187.6Z" transform="translate(7620 -6034)" fill="#a0d6c7"/>
    <rect id="Rectángulo_39326" data-name="Rectángulo 39326" width="28.065" height="29.428" transform="translate(7670.609 -5846.401)" fill="none"/>
    <path id="Trazado_188008" data-name="Trazado 188008" d="M78.38,178.383c.082.24.153.484.223.729,3.9,1.076,6.168,2.547,6.168,3.969,0,2.7-8.094,5.581-20.143,5.581s-20.142-2.886-20.142-5.581c0-1.422,2.27-2.893,6.168-3.969.07-.245.141-.489.223-.729-4.329,1.133-7.036,2.8-7.036,4.7,0,3.491,9.13,6.226,20.787,6.226s20.788-2.735,20.788-6.226C85.416,181.185,82.709,179.516,78.38,178.383Z" transform="translate(7620 -6034)" fill="#3e3b51"/>
    <path id="Trazado_188009" data-name="Trazado 188009" d="M70.368,186.941a1.673,1.673,0,1,1-1.674,1.673,1.673,1.673,0,0,1,1.674-1.673" transform="translate(7620 -6034)" fill="#fe607c"/>
  </g>
</svg>
