<svg xmlns="http://www.w3.org/2000/svg" width="119.931" height="119.93" viewBox="0 0 119.931 119.93">
  <g id="Grupo_143599" data-name="Grupo 143599" transform="translate(-7620 5412.483)">
    <path id="Trazado_187950" data-name="Trazado 187950" d="M117.431,676.813a52.8,52.8,0,1,0-52.8,52.8,52.8,52.8,0,0,0,52.8-52.8" transform="translate(7620 -6034)" fill="#fff"/>
    <path id="Trazado_187951" data-name="Trazado 187951" d="M117.431,676.813a52.8,52.8,0,1,0-52.8,52.8A52.8,52.8,0,0,0,117.431,676.813Z" transform="translate(7620 -6034)" fill="none" stroke="#5c379b" stroke-miterlimit="10" stroke-width="1"/>
    <path id="Trazado_187952" data-name="Trazado 187952" d="M105.342,710.436a52.815,52.815,0,0,0-59.281-83.06" transform="translate(7620 -6034)" fill="none" stroke="#a7f" stroke-miterlimit="10" stroke-width="5"/>
    <path id="Trazado_187953" data-name="Trazado 187953" d="M5.853,656.627A62.186,62.186,0,0,0,75.2,738.053" transform="translate(7620 -6034)" fill="none" stroke="#5c379b" stroke-miterlimit="10" stroke-width="5"/>
    <path id="Trazado_188021" data-name="Trazado 188021" d="M87.578,667.509l-8.49-4.934,6.345-3.663,8.49,4.934Z" transform="translate(7620 -6034)" fill="#7142c1"/>
    <path id="Trazado_188022" data-name="Trazado 188022" d="M67.02,679.383,61.2,676l6.35-3.666,5.822,3.383Z" transform="translate(7620 -6034)" fill="#7142c1"/>
    <path id="Trazado_188023" data-name="Trazado 188023" d="M80.54,696.783,74.718,693.4,61.2,676l5.822,3.384Z" transform="translate(7620 -6034)" fill="#7142c1"/>
    <path id="Trazado_188024" data-name="Trazado 188024" d="M73.294,649.1l-5.822-3.383,14.209-8.2L87.5,640.9Z" transform="translate(7620 -6034)" fill="#7142c1"/>
    <path id="Trazado_188025" data-name="Trazado 188025" d="M87.5,640.9l.075,26.611,6.345-3.663L80.54,696.782l-13.521-17.4,6.35-3.666L73.294,649.1Z" transform="translate(7620 -6034)" fill="#8f52f5"/>
    <path id="Trazado_188026" data-name="Trazado 188026" d="M73.369,675.717l-5.822-3.383-.076-26.617,5.823,3.383Z" transform="translate(7620 -6034)" fill="#7142c1"/>
    <path id="Trazado_188027" data-name="Trazado 188027" d="M47.034,711.6l-5.822-3.383-.076-26.612,5.823,3.384Z" transform="translate(7620 -6034)" fill="#d2b7ff"/>
    <path id="Trazado_188028" data-name="Trazado 188028" d="M54,655.717l13.521,17.4-6.35,3.666.075,26.617-14.208,8.2-.076-26.611-6.345,3.663Z" transform="translate(7620 -6034)" fill="#a7f"/>
    <path id="Trazado_188029" data-name="Trazado 188029" d="M40.614,688.654l-5.822-3.383,13.383-32.938L54,655.717Z" transform="translate(7620 -6034)" fill="#d2b7ff"/>
  </g>
</svg>
