<svg xmlns="http://www.w3.org/2000/svg" xmlns:xlink="http://www.w3.org/1999/xlink" width="1219.49" height="544.32" viewBox="0 0 1219.49 544.32">
  <defs>
    <clipPath id="clip-path">
      <rect id="Rectángulo_38712" data-name="Rectángulo 38712" width="1219.49" height="544.32" fill="none"/>
    </clipPath>
    <clipPath id="clip-path-2">
      <rect id="Rectángulo_38676" data-name="Rectángulo 38676" width="1219.487" height="544.32" fill="none"/>
    </clipPath>
    <clipPath id="clip-path-15">
      <rect id="Rectángulo_38710" data-name="Rectángulo 38710" width="13.244" height="21.812" transform="translate(46.102 63.881)" fill="none"/>
    </clipPath>
  </defs>
  <g id="Grupo_143629" data-name="Grupo 143629" transform="translate(-991 52)">
    <g id="Grupo_113004" data-name="Grupo 113004" transform="translate(991 -52)">
      <g id="Grupo_143628" data-name="Grupo 143628">
        <g id="Grupo_113003" data-name="Grupo 113003" clip-path="url(#clip-path)">
          <line id="Línea_191" data-name="Línea 191" x2="241.191" transform="translate(354.047 318.72)" fill="none" stroke="#5c379b" stroke-miterlimit="10" stroke-width="2" stroke-dasharray="12 12"/>
          <path id="Trazado_183438" data-name="Trazado 183438" d="M588.611,326.9l-1.364-1.465,7.223-6.713-7.223-6.715,1.364-1.464,8.8,8.179Z" fill="#5c379b"/>
          <g id="Grupo_112975" data-name="Grupo 112975">
            <g id="Grupo_112974" data-name="Grupo 112974" clip-path="url(#clip-path-2)">
              <path id="Trazado_183439" data-name="Trazado 183439" d="M655.718,498.72H399.434a30.288,30.288,0,0,1-30.285-29.9l-.7-35.915" fill="none" stroke="#5c379b" stroke-miterlimit="10" stroke-width="2" stroke-dasharray="12 12"/>
              <path id="Trazado_183440" data-name="Trazado 183440" d="M649.091,490.54l-1.364,1.465,7.223,6.713-7.223,6.715,1.364,1.464,8.8-8.179Z" fill="#5c379b"/>
              <line id="Línea_192" data-name="Línea 192" x1="140.871" transform="translate(490.616 390.24)" fill="none" stroke="#5c379b" stroke-miterlimit="10" stroke-width="2" stroke-dasharray="12 12"/>
              <path id="Trazado_183441" data-name="Trazado 183441" d="M497.243,382.06l1.364,1.465-7.223,6.713,7.223,6.715-1.364,1.464-8.8-8.179Z" fill="#5c379b"/>
              <line id="Línea_193" data-name="Línea 193" y1="244.311" transform="translate(902.687 200.889)" fill="none" stroke="#5bb8b2" stroke-miterlimit="10" stroke-width="2" stroke-dasharray="12 12"/>
              <path id="Trazado_183442" data-name="Trazado 183442" d="M910.867,207.516,909.4,208.88l-6.713-7.223-6.715,7.223-1.464-1.364,8.179-8.8Z" fill="#5bb8b2"/>
              <path id="Trazado_183443" data-name="Trazado 183443" d="M377.052,64.242h95.294l5.573,7.53H382.578Z" fill="#7142c1"/>
              <path id="Trazado_183444" data-name="Trazado 183444" d="M466.119,147.889H259.843l-6.409-8.66h-35.2l-6-8.1V61.92H375.654l7.059,9.538h99.014V126.8Zm-206.007-.879H465.85l15.227-20.576v-54.1H382.444L375.385,62.8h-162.5v67.966l5.615,7.586h35.2Z" fill="#7142c1"/>
              <path id="Trazado_183445" data-name="Trazado 183445" d="M252.024,142.084l3.669,4.957h-1.9l-3.646-4.926Z" fill="#7142c1"/>
              <path id="Trazado_183446" data-name="Trazado 183446" d="M248.247,142.084l3.669,4.957h-1.9l-3.646-4.926Z" fill="#7142c1"/>
              <path id="Trazado_183447" data-name="Trazado 183447" d="M244.47,142.084l3.669,4.957h-1.9l-3.646-4.926Z" fill="#7142c1"/>
              <path id="Trazado_183448" data-name="Trazado 183448" d="M217.531,68.76v57.229l3.9,5.271h33.994l6.966,9.413H464.405l13.1-17.7v-43.3H382.764L374.683,68.76Z" fill="#e4fdfc"/>
            </g>
          </g>
          <text id="Shiela_" data-name="Shiela " transform="translate(324.917 100.883)" fill="#5c379b" font-size="16" font-family="Roboto-Regular, Roboto"><tspan x="0" y="0">Shiela </tspan></text>
          <text id="_" data-name="**********" transform="translate(312.437 120.083)" fill="#5c379b" font-size="16" font-family="Roboto-Regular, Roboto"><tspan x="0" y="0">**********</tspan></text>
          <g id="Grupo_112977" data-name="Grupo 112977">
            <g id="Grupo_112976" data-name="Grupo 112976" clip-path="url(#clip-path-2)">
              <path id="Trazado_183449" data-name="Trazado 183449" d="M392.9,212.2h123.47l7.221,7.53H400.063Z" fill="#a7f"/>
              <path id="Trazado_183450" data-name="Trazado 183450" d="M376.862,349.362h90.682l5.3,7.53H382.121Z" fill="#7142c1"/>
              <path id="Trazado_183451" data-name="Trazado 183451" d="M511.744,295.849H236.028l-8.566-8.66H180.411l-8.014-8.1V209.88H390.826l9.435,9.538H532.607v55.34Zm-275.356-.879h275l20.354-20.576V220.3H399.9l-9.435-9.538h-217.2v67.966l7.5,7.586h47.052Z" fill="#a7f"/>
              <path id="Trazado_183452" data-name="Trazado 183452" d="M225.578,290.044l4.9,4.957h-2.545l-4.873-4.926Z" fill="#a7f"/>
              <path id="Trazado_183453" data-name="Trazado 183453" d="M220.53,290.044l4.9,4.957h-2.545l-4.873-4.926Z" fill="#a7f"/>
              <path id="Trazado_183454" data-name="Trazado 183454" d="M215.481,290.044l4.9,4.957H217.84l-4.873-4.926Z" fill="#a7f"/>
              <path id="Trazado_183455" data-name="Trazado 183455" d="M179.473,216.72v57.229l5.214,5.271h45.438l9.311,9.413H509.454l17.5-17.7v-43.3H400.329l-10.8-10.919Z" fill="#e4fdfc"/>
            </g>
          </g>
          <text id="Shiela:_1005:_NO_" data-name="Shiela: 1005: NO " transform="translate(202.128 235.343)" fill="#5c379b" font-size="16" font-family="Roboto-Regular, Roboto"><tspan x="0" y="0">Shiela: 1005: NO </tspan></text>
          <text id="PASSWORD_:_" data-name="PASSWORD******************************: " transform="translate(202.128 254.544)" fill="#5c379b" font-size="16" font-family="Roboto-Regular, Roboto"><tspan x="0" y="0" letter-spacing="-0.067em">P</tspan><tspan y="0">ASSWORD******************************: </tspan></text>
          <text id="OCB6948805F797BF2A82807973B89537:_:_:" data-name="OCB6948805F797BF2A82807973B89537: : :" transform="translate(202.128 273.744)" fill="#5c379b" font-size="16" font-family="Roboto-Regular, Roboto"><tspan x="0" y="0">OCB6948805F797BF2A82807973B89537: : :</tspan></text>
          <g id="Grupo_112979" data-name="Grupo 112979">
            <g id="Grupo_112978" data-name="Grupo 112978" clip-path="url(#clip-path-2)">
              <path id="Trazado_183456" data-name="Trazado 183456" d="M896.063,107.442h123.47l7.221,7.53H903.223Z" fill="#e01650"/>
              <path id="Trazado_183457" data-name="Trazado 183457" d="M1015.024,191.089H739.308l-8.566-8.66H683.691l-8.014-8.1V105.12H894.106l9.435,9.538h132.346V170Zm-275.356-.879h275l20.354-20.576v-54.1H903.181L893.746,106h-217.2v67.966l7.505,7.586H731.1Z" fill="#e01650"/>
              <path id="Trazado_183458" data-name="Trazado 183458" d="M728.858,185.284l4.9,4.957h-2.545l-4.873-4.926Z" fill="#e01650"/>
              <path id="Trazado_183459" data-name="Trazado 183459" d="M723.81,185.284l4.9,4.957h-2.545l-4.873-4.926Z" fill="#e01650"/>
              <path id="Trazado_183460" data-name="Trazado 183460" d="M718.761,185.284l4.9,4.957H721.12l-4.873-4.926Z" fill="#e01650"/>
              <path id="Trazado_183461" data-name="Trazado 183461" d="M682.753,111.96v57.229l5.214,5.271h45.438l9.311,9.413h270.018l17.5-17.7v-43.3H903.609l-10.8-10.919Z" fill="#ffd2e1"/>
            </g>
          </g>
          <text id="Shiela:_1005:_NO_2" data-name="Shiela: 1005: NO " transform="translate(705.408 130.584)" fill="#951339" font-size="16" font-family="Roboto-Regular, Roboto"><tspan x="0" y="0">Shiela: 1005: NO </tspan></text>
          <text id="PASSWORD_:_2" data-name="PASSWORD******************************: " transform="translate(705.408 149.784)" fill="#951339" font-size="16" font-family="Roboto-Regular, Roboto"><tspan x="0" y="0" letter-spacing="-0.067em">P</tspan><tspan y="0">ASSWORD******************************: </tspan></text>
          <text id="OCB6948805F797BF2A82807973B89537:::" transform="translate(705.408 168.984)" fill="#951339" font-size="16" font-family="Roboto-Regular, Roboto"><tspan x="0" y="0">OCB6948805F797BF2A82807973B89537:::</tspan></text>
          <text id="El_ordenador_envía_una_solicitud_" data-name="El ordenador envía una solicitud " transform="translate(564.288 267.016)" fill="#5c379b" font-size="16" font-family="Roboto-Regular, Roboto"><tspan x="0" y="0">El o</tspan><tspan y="0" letter-spacing="-0.009em">r</tspan><tspan y="0">denador envía una solicitud </tspan></text>
          <text id="de_inicio_de_sesión_a_DC" data-name="de inicio de sesión a DC" transform="translate(564.288 286.216)" fill="#5c379b" font-size="16" font-family="Roboto-Regular, Roboto"><tspan x="0" y="0">de inicio de sesión a DC</tspan></text>
          <text id="DC_compara_la_respuesta_de_la_" data-name="DC compara la respuesta de la " transform="translate(924.288 272.776)" fill="#5c379b" font-size="16" font-family="Roboto-Regular, Roboto"><tspan x="0" y="0">DC compara la </tspan><tspan y="0" letter-spacing="-0.009em">r</tspan><tspan y="0">espuesta de la </tspan></text>
          <text id="computadora_con_la_respuesta_que_creó_" data-name="computadora con la respuesta que creó " transform="translate(924.288 291.975)" fill="#5c379b" font-size="16" font-family="Roboto-Regular, Roboto"><tspan x="0" y="0">computadora con la </tspan><tspan y="0" letter-spacing="-0.007em">r</tspan><tspan y="0">espuesta que c</tspan><tspan y="0" letter-spacing="-0.007em">r</tspan><tspan y="0">eó </tspan></text>
          <text id="con_su_propio_hash" data-name="con su propio hash" transform="translate(924.288 311.175)" fill="#5c379b" font-size="16" font-family="Roboto-Regular, Roboto"><tspan x="0" y="0">con su p</tspan><tspan y="0" letter-spacing="-0.008em">r</tspan><tspan y="0">opio </tspan><tspan y="0" font-family="Roboto-BoldItalic, Roboto" font-weight="700" font-style="italic">hash</tspan></text>
          <text id="Si_coinciden_el_inicio_de_sesión_es_un_" data-name="Si coinciden, el inicio de sesión es un " transform="translate(924.288 349.576)" fill="#5c379b" font-size="16" font-family="Roboto-Regular, Roboto"><tspan x="0" y="0">Si coinciden, el inicio de sesión es un </tspan></text>
          <text id="éxito." transform="translate(924.288 368.776)" fill="#5c379b" font-size="16" font-family="Roboto-Regular, Roboto"><tspan x="0" y="0">éxito.</tspan></text>
          <text id="El_controlador_de_dominio_tiene_una_copia_" data-name="El controlador de dominio tiene una copia " transform="translate(641.088 70.696)" fill="#5c379b" font-size="16" font-family="Roboto-Regular, Roboto"><tspan x="0" y="0">El</tspan><tspan y="0" letter-spacing="0.189em"> </tspan><tspan y="0">cont</tspan><tspan y="0" letter-spacing="-0.008em">r</tspan><tspan y="0">olador</tspan><tspan y="0" letter-spacing="0.19em"> </tspan><tspan y="0">de</tspan><tspan y="0" letter-spacing="0.19em"> </tspan><tspan y="0">dominio</tspan><tspan y="0" letter-spacing="0.191em"> </tspan><tspan y="0">tiene</tspan><tspan y="0" letter-spacing="0.191em"> </tspan><tspan y="0">una</tspan><tspan y="0" letter-spacing="0.19em"> </tspan><tspan y="0">copia </tspan></text>
          <text id="almacenada_de_la_contraseña_del_usuario." data-name="almacenada de la contraseña del usuario." transform="translate(657.52 89.896)" fill="#5c379b" font-size="16" font-family="Roboto-Regular, Roboto"><tspan x="0" y="0">almacenada de la contraseña del usuario.</tspan></text>
          <text id="DC_envía_un_desafío_de_" data-name="DC envía un desafío de " transform="translate(582.288 435.496)" fill="#5c379b" font-size="16" font-family="Roboto-Regular, Roboto"><tspan x="0" y="0">DC envía un desafío de </tspan></text>
          <text id="inicio_de_sesión" data-name="inicio de sesión" transform="translate(582.288 454.696)" fill="#5c379b" font-size="16" font-family="Roboto-Regular, Roboto"><tspan x="0" y="0">inicio de sesión</tspan></text>
          <text id="El_ordenador_envía_un_mensaje_" data-name="El ordenador envía un mensaje " transform="translate(397.248 517.576)" fill="#5c379b" font-size="16" font-family="Roboto-Regular, Roboto"><tspan x="0" y="0">El o</tspan><tspan y="0" letter-spacing="-0.009em">r</tspan><tspan y="0">denador envía un mensaje </tspan></text>
          <text id="de_respuesta" data-name="de respuesta" transform="translate(397.248 536.776)" fill="#5c379b" font-size="16" font-family="Roboto-Regular, Roboto"><tspan x="0" y="0">de </tspan><tspan y="0" letter-spacing="-0.008em">r</tspan><tspan y="0">espuesta</tspan></text>
          <g id="Grupo_112981" data-name="Grupo 112981">
            <g id="Grupo_112980" data-name="Grupo 112980" clip-path="url(#clip-path-2)">
              <text id="Windows_ejecutra_la_" data-name="Windows ejecutra la " transform="translate(0 234.263)" fill="#5c379b" font-size="16" font-family="Roboto-Regular, Roboto"><tspan x="0" y="0">Windows ejecutra la </tspan></text>
              <text id="contraseña_a_través_de_" data-name="contraseña a través de " transform="translate(0 253.464)" fill="#5c379b" font-size="16" font-family="Roboto-Regular, Roboto"><tspan x="0" y="0">contraseña a tr</tspan><tspan y="0" letter-spacing="-0.006em">av</tspan><tspan y="0">és de </tspan></text>
              <text id="un_algoritmo_hash" data-name="un algoritmo hash" transform="translate(0 272.664)" fill="#5c379b" font-size="16" font-family="Roboto-Regular, Roboto"><tspan x="0" y="0">un algoritmo </tspan><tspan y="0" font-family="Roboto-Italic, Roboto" font-style="italic">hash</tspan></text>
              <text id="El_usuario_escribe_la_" data-name="El usuario escribe la " transform="translate(0 112.216)" fill="#5c379b" font-size="16" font-family="Roboto-Regular, Roboto"><tspan x="0" y="0">El usuario escribe la </tspan></text>
              <text id="contraseña_en_la_ventana_" data-name="contraseña en la ventana " transform="translate(0 131.415)" fill="#5c379b" font-size="16" font-family="Roboto-Regular, Roboto"><tspan x="0" y="0">contraseña en la </tspan><tspan y="0" letter-spacing="-0.005em">v</tspan><tspan y="0">entana </tspan></text>
              <text id="de_inicio_de_sesión" data-name="de inicio de sesión" transform="translate(0 150.615)" fill="#5c379b" font-size="16" font-family="Roboto-Regular, Roboto"><tspan x="0" y="0">de inicio de sesión</tspan></text>
            </g>
          </g>
          <text id="Computadora_Cliente" data-name="Computadora Cliente" transform="translate(271.75 47.424)" fill="#5c379b" font-size="16" font-family="Roboto-Black, Roboto" font-weight="800"><tspan x="0" y="0">Computadora Cliente</tspan></text>
          <text id="Ventana_del_Controlador_de_Dominio" data-name="Ventana del Controlador de Dominio" transform="translate(696.07 47.424)" fill="#5c379b" font-size="16" font-family="Roboto-Black, Roboto" font-weight="800"><tspan x="0" y="0" letter-spacing="-0.021em">V</tspan><tspan y="0">entana del Cont</tspan><tspan y="0" letter-spacing="-0.008em">r</tspan><tspan y="0">olador de Dominio</tspan></text>
          <g id="Grupo_112983" data-name="Grupo 112983">
            <g id="Grupo_112982" data-name="Grupo 112982" clip-path="url(#clip-path-2)">
              <rect id="Rectángulo_38680" data-name="Rectángulo 38680" width="68.308" height="9.108" transform="translate(978.259 33.504)" fill="#384949"/>
              <rect id="Rectángulo_38681" data-name="Rectángulo 38681" width="34.154" height="9.108" transform="translate(1012.413 33.504)" fill="#293939"/>
              <rect id="Rectángulo_38682" data-name="Rectángulo 38682" width="68.308" height="9.108" transform="translate(978.259 60.827)" fill="#384949"/>
              <rect id="Rectángulo_38683" data-name="Rectángulo 38683" width="34.154" height="9.108" transform="translate(1012.413 60.827)" fill="#293939"/>
              <rect id="Rectángulo_38684" data-name="Rectángulo 38684" width="77.719" height="23.073" transform="translate(973.554 12.708)" fill="#4a696f"/>
              <rect id="Rectángulo_38685" data-name="Rectángulo 38685" width="38.859" height="23.073" transform="translate(1012.413 12.708)" fill="#384949"/>
              <rect id="Rectángulo_38686" data-name="Rectángulo 38686" width="4.554" height="4.554" transform="translate(982.813 22.119)" fill="#9bfcff"/>
              <rect id="Rectángulo_38687" data-name="Rectángulo 38687" width="4.554" height="4.554" transform="translate(991.921 22.119)" fill="#9bfcff"/>
              <rect id="Rectángulo_38688" data-name="Rectángulo 38688" width="4.554" height="4.554" transform="translate(1001.029 22.119)" fill="#9bfcff"/>
              <rect id="Rectángulo_38689" data-name="Rectángulo 38689" width="22.769" height="4.554" transform="translate(1019.244 22.119)" fill="#293939"/>
              <rect id="Rectángulo_38690" data-name="Rectángulo 38690" width="77.719" height="22.769" transform="translate(973.554 40.335)" fill="#4a696f"/>
              <rect id="Rectángulo_38691" data-name="Rectángulo 38691" width="38.859" height="22.769" transform="translate(1012.413 40.334)" fill="#384949"/>
              <rect id="Rectángulo_38692" data-name="Rectángulo 38692" width="4.554" height="4.554" transform="translate(982.813 49.442)" fill="#9bfcff"/>
              <rect id="Rectángulo_38693" data-name="Rectángulo 38693" width="4.554" height="4.554" transform="translate(991.921 49.442)" fill="#9bfcff"/>
              <rect id="Rectángulo_38694" data-name="Rectángulo 38694" width="4.554" height="4.554" transform="translate(1001.029 49.442)" fill="#9bfcff"/>
              <rect id="Rectángulo_38695" data-name="Rectángulo 38695" width="22.769" height="4.554" transform="translate(1019.244 49.442)" fill="#293939"/>
              <rect id="Rectángulo_38696" data-name="Rectángulo 38696" width="77.719" height="22.769" transform="translate(973.554 67.658)" fill="#4a696f"/>
              <rect id="Rectángulo_38697" data-name="Rectángulo 38697" width="38.859" height="22.769" transform="translate(1012.413 67.657)" fill="#384949"/>
              <rect id="Rectángulo_38698" data-name="Rectángulo 38698" width="4.554" height="4.554" transform="translate(982.813 76.765)" fill="#9bfcff"/>
              <rect id="Rectángulo_38699" data-name="Rectángulo 38699" width="4.554" height="4.554" transform="translate(991.921 76.765)" fill="#9bfcff"/>
              <rect id="Rectángulo_38700" data-name="Rectángulo 38700" width="4.554" height="4.554" transform="translate(1001.029 76.765)" fill="#9bfcff"/>
              <rect id="Rectángulo_38701" data-name="Rectángulo 38701" width="22.769" height="4.554" transform="translate(1019.244 76.765)" fill="#293939"/>
              <path id="Trazado_183462" data-name="Trazado 183462" d="M359.25,178.743l-11.58,10.164-11.513-10.195,11.371,16ZM357.8,160.061v6.215L347.67,181.327l-10.127-14.051v-7.215l10.127,14.382Z" fill="#500c75" fill-rule="evenodd"/>
              <path id="Trazado_183463" data-name="Trazado 183463" d="M357,153.048l-9.341,14.579-9.338-14.579Z" fill="#e01650" fill-rule="evenodd"/>
              <path id="Trazado_183464" data-name="Trazado 183464" d="M228.047,97.2a15.96,15.96,0,1,1-15.96-15.96,15.961,15.961,0,0,1,15.96,15.96" fill="#5c379b"/>
            </g>
          </g>
          <text id="_1" data-name="1" transform="translate(207.454 102.405)" fill="#fff" font-size="16" font-family="Roboto-Black, Roboto" font-weight="800"><tspan x="0" y="0">1</tspan></text>
          <g id="Grupo_112985" data-name="Grupo 112985">
            <g id="Grupo_112984" data-name="Grupo 112984" clip-path="url(#clip-path-2)">
              <path id="Trazado_183465" data-name="Trazado 183465" d="M466.119,433.009H259.843l-6.409-8.66h-35.2l-6-8.1V347.04H375.654l7.059,9.538h99.014v55.34Zm-206.007-.879H465.85l15.227-20.576v-54.1H382.444l-7.059-9.538h-162.5v67.966l5.615,7.586h35.2Z" fill="#7142c1"/>
              <path id="Trazado_183466" data-name="Trazado 183466" d="M252.024,427.2l3.669,4.957h-1.9l-3.646-4.926Z" fill="#7142c1"/>
              <path id="Trazado_183467" data-name="Trazado 183467" d="M248.247,427.2l3.669,4.957h-1.9l-3.646-4.926Z" fill="#7142c1"/>
              <path id="Trazado_183468" data-name="Trazado 183468" d="M244.47,427.2l3.669,4.957h-1.9l-3.646-4.926Z" fill="#7142c1"/>
              <path id="Trazado_183469" data-name="Trazado 183469" d="M217.531,353.88v57.229l3.9,5.271h33.994l6.966,9.413H464.405l13.1-17.7V364.8H382.764l-8.081-10.919Z" fill="#e4fdfc"/>
            </g>
          </g>
          <text id="Aa_r8_ppq_kgj89_pqr" data-name="Aa r8 ppq kgj89 pqr" transform="translate(277.073 396.081)" fill="#5c379b" font-size="16" font-family="Roboto-Regular, Roboto"><tspan x="0" y="0">Aa r8 ppq </tspan><tspan y="0" letter-spacing="-0.009em">k</tspan><tspan y="0">gj89 pqr</tspan></text>
          <g id="Grupo_112987" data-name="Grupo 112987">
            <g id="Grupo_112986" data-name="Grupo 112986" clip-path="url(#clip-path-2)">
              <path id="Trazado_183470" data-name="Trazado 183470" d="M1020.519,539.569H814.243l-6.409-8.66h-35.2l-6-8.1V453.6H930.054l7.059,9.538h99.014v55.34Zm-206.007-.879H1020.25l15.227-20.576v-54.1H936.844l-7.059-9.538h-162.5v67.966l5.615,7.586h35.2Z" fill="#32cebb"/>
              <path id="Trazado_183471" data-name="Trazado 183471" d="M806.424,533.764l3.669,4.957h-1.9l-3.646-4.926Z" fill="#32cebb"/>
              <path id="Trazado_183472" data-name="Trazado 183472" d="M802.647,533.764l3.669,4.957h-1.9l-3.646-4.926Z" fill="#32cebb"/>
              <path id="Trazado_183473" data-name="Trazado 183473" d="M798.87,533.764l3.669,4.957h-1.9l-3.646-4.926Z" fill="#32cebb"/>
              <path id="Trazado_183474" data-name="Trazado 183474" d="M771.931,460.44v57.229l3.9,5.271h33.994l6.966,9.413h202.013l13.1-17.7v-43.3H937.164l-8.081-10.919Z" fill="#e4fdfc"/>
            </g>
          </g>
          <text id="Aa_r8_ppq_kgj89_pqr-2" data-name="Aa r8 ppq kgj89 pqr" transform="translate(831.473 502.641)" fill="#5c379b" font-size="16" font-family="Roboto-Regular, Roboto"><tspan x="0" y="0">Aa r8 ppq </tspan><tspan y="0" letter-spacing="-0.009em">k</tspan><tspan y="0">gj89 pqr</tspan></text>
          <g id="Grupo_112989" data-name="Grupo 112989">
            <g id="Grupo_112988" data-name="Grupo 112988" clip-path="url(#clip-path-2)">
              <path id="Trazado_183475" data-name="Trazado 183475" d="M228.047,382.32a15.96,15.96,0,1,1-15.96-15.96,15.961,15.961,0,0,1,15.96,15.96" fill="#5c379b"/>
            </g>
          </g>
          <text id="_5" data-name="5" transform="translate(207.454 387.525)" fill="#fff" font-size="16" font-family="Roboto-Black, Roboto" font-weight="800"><tspan x="0" y="0">5</tspan></text>
          <g id="Grupo_112991" data-name="Grupo 112991">
            <g id="Grupo_112990" data-name="Grupo 112990" clip-path="url(#clip-path-2)">
              <path id="Trazado_183476" data-name="Trazado 183476" d="M662.447,390.48a15.96,15.96,0,1,1-15.96-15.96,15.961,15.961,0,0,1,15.96,15.96" fill="#5c379b"/>
            </g>
          </g>
          <text id="_4" data-name="4" transform="translate(641.854 395.685)" fill="#fff" font-size="16" font-family="Roboto-Black, Roboto" font-weight="800"><tspan x="0" y="0">4</tspan></text>
          <g id="Grupo_112993" data-name="Grupo 112993">
            <g id="Grupo_112992" data-name="Grupo 112992" clip-path="url(#clip-path-2)">
              <path id="Trazado_183477" data-name="Trazado 183477" d="M918.047,450.96A15.96,15.96,0,1,1,902.087,435a15.961,15.961,0,0,1,15.96,15.96" fill="#5bb8b2"/>
            </g>
          </g>
          <text id="_6" data-name="6" transform="translate(897.454 456.166)" fill="#fff" font-size="16" font-family="Roboto-Black, Roboto" font-weight="800"><tspan x="0" y="0">6</tspan></text>
          <g id="Grupo_112995" data-name="Grupo 112995">
            <g id="Grupo_112994" data-name="Grupo 112994" clip-path="url(#clip-path-2)">
              <path id="Trazado_183478" data-name="Trazado 183478" d="M198.527,246.96A15.96,15.96,0,1,1,182.567,231a15.961,15.961,0,0,1,15.96,15.96" fill="#5c379b"/>
            </g>
          </g>
          <text id="_2" data-name="2" transform="translate(177.934 252.166)" fill="#fff" font-size="16" font-family="Roboto-Black, Roboto" font-weight="800"><tspan x="0" y="0">2</tspan></text>
          <g id="Grupo_112997" data-name="Grupo 112997">
            <g id="Grupo_112996" data-name="Grupo 112996" clip-path="url(#clip-path-2)">
              <path id="Trazado_183479" data-name="Trazado 183479" d="M361.967,318.24a15.96,15.96,0,1,1-15.96-15.96,15.961,15.961,0,0,1,15.96,15.96" fill="#5c379b"/>
            </g>
          </g>
          <text id="_3" data-name="3" transform="translate(341.374 323.445)" fill="#fff" font-size="16" font-family="Roboto-Black, Roboto" font-weight="800"><tspan x="0" y="0">3</tspan></text>
          <g id="Grupo_113002" data-name="Grupo 113002">
            <g id="Grupo_113001" data-name="Grupo 113001" clip-path="url(#clip-path-2)">
              <path id="Trazado_183480" data-name="Trazado 183480" d="M84.274,63.881H70.252l-7.79,7.79-7.79-7.79H40.65A9.348,9.348,0,0,0,31.3,73.229V90.367h62.32V73.229a9.348,9.348,0,0,0-9.348-9.348" fill="#8f52f5"/>
              <path id="Trazado_183481" data-name="Trazado 183481" d="M70.252,63.881V52.648a16.937,16.937,0,0,0,7.556-7.656c.091-.184.183-.368.268-.555.1-.237.208-.476.311-.717s.19-.5.279-.762c.067-.2.141-.389.2-.587.135-.444.25-.9.348-1.355.037-.166.063-.335.094-.5.065-.355.122-.714.165-1.077.018-.155.038-.321.052-.483.048-.514.08-1.033.08-1.558V28.047H78.241a6.235,6.235,0,0,1-6.046-4.721l-3.5-12.417-3.2,11.238a7.788,7.788,0,0,1-7.55,5.9H45.324V37.4a17.124,17.124,0,0,0,9.348,15.253V63.881H53.549a12.436,12.436,0,0,1,4.133,7.79H74.925a7.79,7.79,0,0,0,7.79-7.79Z" fill="#f2dbc0"/>
              <path id="Trazado_183482" data-name="Trazado 183482" d="M54.671,38.563A2.726,2.726,0,1,1,57.4,35.836a2.727,2.727,0,0,1-2.727,2.727m0-3.116a.389.389,0,0,0-.389.389c0,.429.779.429.779,0a.39.39,0,0,0-.39-.389" fill="#30271f"/>
              <path id="Trazado_183483" data-name="Trazado 183483" d="M70.252,38.563a2.726,2.726,0,1,1,2.727-2.727,2.727,2.727,0,0,1-2.727,2.727m0-3.116a.389.389,0,0,0-.39.389c0,.429.78.429.78,0a.39.39,0,0,0-.39-.389" fill="#30271f"/>
              <path id="Trazado_183484" data-name="Trazado 183484" d="M62.461,49.469a5.85,5.85,0,0,1-5.843-5.843h2.337a3.506,3.506,0,1,0,7.012,0H68.3a5.849,5.849,0,0,1-5.843,5.843" fill="#f0caa8"/>
              <path id="Trazado_183485" data-name="Trazado 183485" d="M70.252,54.2V52.646a16.631,16.631,0,0,1-1.7.751c-.084.033-.168.062-.253.093a15.653,15.653,0,0,1-1.521.468c-.141.037-.279.075-.419.109-.481.112-.973.2-1.467.269-.157.024-.313.055-.468.074a16.136,16.136,0,0,1-3.9,0c-.156-.019-.311-.05-.467-.074-.5-.07-.987-.155-1.469-.269-.139-.034-.278-.072-.418-.109q-.779-.2-1.521-.468c-.085-.031-.169-.06-.255-.093a16.979,16.979,0,0,1-1.717-.749v1.558a17.758,17.758,0,0,0,1.7.751c.084.032.168.062.253.093.5.181,1,.335,1.521.467.14.038.279.077.419.109.482.113.973.2,1.468.27.156.023.312.055.467.073a16.145,16.145,0,0,0,3.9,0c.156-.018.31-.05.466-.073.5-.072.986-.156,1.469-.27.139-.032.278-.071.418-.109.517-.135,1.026-.289,1.522-.467l.254-.093a18.155,18.155,0,0,0,1.718-.751Z" fill="#dbc6ae"/>
              <path id="Trazado_183486" data-name="Trazado 183486" d="M65.247.158A24.927,24.927,0,0,0,37.533,24.93v.7a27.34,27.34,0,0,0,1.991,10.234q.312.78.669,1.525t.779,1.521l3.485,6.27H35.975a4.674,4.674,0,0,0,0,9.348H34.417a9.348,9.348,0,0,0-1.55,18.556c0,.046-.008.093-.008.14a12.464,12.464,0,1,0,20.689-9.348h1.123V52.646A17.189,17.189,0,0,1,46.1,42.494c-.014-.042-.029-.083-.043-.125v-.023a17.024,17.024,0,0,1-.736-4.952V28.046h12.62a7.788,7.788,0,0,0,7.558-5.9l3.192-11.238,3.5,12.418a6.231,6.231,0,0,0,6.045,4.72H79.6v9.348c0,.527-.031,1.046-.079,1.558-.014.156-.034.323-.053.483q-.066.544-.165,1.077c-.031.168-.058.335-.094.5-.1.458-.213.911-.349,1.355-.059.2-.134.391-.2.588-.088.255-.179.511-.279.761s-.2.48-.311.717c-.086.187-.176.371-.268.555a17.318,17.318,0,0,1-.985,1.753H79.6l.072-.13,4.277-7.7q.416-.747.779-1.521t.668-1.525a27.343,27.343,0,0,0,1.994-10.234C87.389,12.811,78,1.537,65.247.158" fill="#1e1c19"/>
              <path id="Trazado_183487" data-name="Trazado 183487" d="M68.693,10.909l-3.2,11.238a7.789,7.789,0,0,1-7.551,5.9H59.5a7.791,7.791,0,0,0,7.558-5.9l2.415-8.485Z" fill="#dbc6ae"/>
              <g id="Grupo_113000" data-name="Grupo 113000" opacity="0.25" style="isolation: isolate">
                <g id="Grupo_112999" data-name="Grupo 112999">
                  <g id="Grupo_112998" data-name="Grupo 112998" clip-path="url(#clip-path-15)">
                    <path id="Trazado_183488" data-name="Trazado 183488" d="M53.548,63.881A12.44,12.44,0,0,1,46.1,85.654c.259.016.516.039.779.039a12.451,12.451,0,0,0,8.225-21.812"/>
                  </g>
                </g>
              </g>
              <path id="Trazado_183489" data-name="Trazado 183489" d="M103.351,90.367H59.427a3.319,3.319,0,0,1-3.319-3.318,1.9,1.9,0,0,1,1.9-1.9h46.758a1.9,1.9,0,0,1,1.9,1.9,3.318,3.318,0,0,1-3.318,3.318" fill="#c6c6c6"/>
              <path id="Trazado_183490" data-name="Trazado 183490" d="M64.656,87.049h0a1.9,1.9,0,0,1,1.9-1.9H58.011a1.9,1.9,0,0,0-1.9,1.9,3.318,3.318,0,0,0,3.318,3.319h8.547a3.319,3.319,0,0,1-3.318-3.319" fill="#b7b7b7"/>
              <path id="Trazado_183491" data-name="Trazado 183491" d="M100.474,56.1H62.3a2.177,2.177,0,0,0-2.171,2.171v24.7A2.177,2.177,0,0,0,62.3,85.147h38.17a2.177,2.177,0,0,0,2.171-2.171v-24.7a2.177,2.177,0,0,0-2.171-2.171" fill="#ededed"/>
              <path id="Trazado_183492" data-name="Trazado 183492" d="M64.656,82.976v-24.7A2.177,2.177,0,0,1,66.827,56.1H62.3a2.177,2.177,0,0,0-2.17,2.171v24.7a2.177,2.177,0,0,0,2.17,2.171h4.523a2.177,2.177,0,0,1-2.171-2.171" fill="#dadada"/>
              <path id="Trazado_183493" data-name="Trazado 183493" d="M81.39,67.488a3.136,3.136,0,1,1-3.136,3.136,3.136,3.136,0,0,1,3.136-3.136" fill="#dadada"/>
              <path id="Trazado_183494" data-name="Trazado 183494" d="M81.391,67.491a3.134,3.134,0,1,0,2.713,4.7,3.132,3.132,0,0,1-2.713-4.7" fill="#c6c6c6"/>
            </g>
          </g>
        </g>
      </g>
    </g>
  </g>
</svg>
